<?xml version="1.0"?>
	<!-- Generated by github.com/dustismo/heavyfishdesign -->
	<svg width="20.000in" height="12.000in" viewBox="0.000 0.000 20.000 12.000"
    	xmlns="http://www.w3.org/2000/svg"
		xmlns:xlink="http://www.w3.org/1999/xlink">
	<g transform="translate(0.100 0.100)">
<path id="24849bce3baa2134" d="M 1.581 0.300 L 2.949 0.300 L 2.949 0.000 L 1.581 0.000 L 1.581 0.300 M 2.949 0.300 L 3.997 1.179 L 4.190 0.950 L 3.142 0.070 L 2.949 0.300 M 3.997 1.179 L 4.235 2.527 L 4.530 2.475 L 4.293 1.127 L 3.997 1.179 M 4.235 2.527 L 3.551 3.711 L 3.810 3.861 L 4.494 2.677 L 4.235 2.527 M 3.551 3.711 L 2.265 4.179 L 2.368 4.461 L 3.653 3.993 L 3.551 3.711 M 2.265 4.179 L 0.979 3.711 L 0.877 3.993 L 2.162 4.461 L 2.265 4.179 M 0.979 3.711 L 0.295 2.527 L 0.036 2.677 L 0.720 3.861 L 0.979 3.711 M 0.295 2.527 L 0.533 1.179 L 0.238 1.127 L 0.000 2.475 L 0.295 2.527 M 0.533 1.179 L 1.581 0.300 L 1.388 0.070 L 0.340 0.950 L 0.533 1.179" style="fill:none;stroke:black;stroke-width:0.012" />
</g>
</svg>
