<?xml version="1.0"?>
	<!-- Generated by github.com/dustismo/heavyfishdesign -->
	<svg width="20.000in" height="12.000in" viewBox="0.000 0.000 20.000 12.000"
    	xmlns="http://www.w3.org/2000/svg"
		xmlns:xlink="http://www.w3.org/1999/xlink">
	<g transform="translate(0.100 0.100)">
<path id="4aed9deb232c1d69" d="M 4.180 2.698 L 5.216 2.698 L 5.216 3.733 L 4.180 3.733 L 4.180 2.698 M 3.982 3.439 L 4.878 3.957 L 4.361 4.853 L 3.464 4.336 L 3.982 3.439 M 3.439 3.982 L 3.957 4.878 L 3.060 5.396 L 2.543 4.499 L 3.439 3.982 M 2.698 4.180 L 2.698 5.216 L 1.663 5.216 L 1.663 4.180 L 2.698 4.180 M 1.957 3.982 L 1.439 4.878 L 0.543 4.361 L 1.060 3.464 L 1.957 3.982 M 1.414 3.439 L 0.518 3.957 L 0.000 3.060 L 0.897 2.543 L 1.414 3.439 M 1.216 2.698 L 0.180 2.698 L 0.180 1.663 L 1.216 1.663 L 1.216 2.698 M 1.414 1.957 L 0.518 1.439 L 1.035 0.543 L 1.932 1.060 L 1.414 1.957 M 1.957 1.414 L 1.439 0.518 L 2.336 0.000 L 2.853 0.897 L 1.957 1.414 M 2.698 1.216 L 2.698 0.180 L 3.733 0.180 L 3.733 1.216 L 2.698 1.216 M 3.439 1.414 L 3.957 0.518 L 4.853 1.035 L 4.336 1.932 L 3.439 1.414 M 3.982 1.957 L 4.878 1.439 L 5.396 2.336 L 4.499 2.853 L 3.982 1.957" style="fill:none;stroke:black;stroke-width:0.012" />
</g>
</svg>
