<?xml version="1.0"?>
	<!-- Generated by github.com/dustismo/heavyfishdesign -->
	<svg width="20.000in" height="12.000in" viewBox="0.000 0.000 20.000 12.000"
    	xmlns="http://www.w3.org/2000/svg"
		xmlns:xlink="http://www.w3.org/1999/xlink">
	<g transform="translate(0.100 0.100)">
<path id="TxRINKSzjAIvxBRD" d="M 1.606 0.000 L 2.675 0.000 L 2.675 0.200 L 1.606 0.200 L 1.606 0.000 M 3.068 0.143 L 3.886 0.830 L 3.758 0.983 L 2.939 0.296 L 3.068 0.143 M 4.096 1.192 L 4.281 2.244 L 4.084 2.279 L 3.899 1.227 L 4.096 1.192 M 4.208 2.657 L 3.674 3.582 L 3.501 3.482 L 4.035 2.557 L 4.208 2.657 M 3.354 3.851 L 2.350 4.216 L 2.281 4.028 L 3.285 3.663 L 3.354 3.851 M 1.931 4.216 L 0.928 3.851 L 0.996 3.663 L 2.000 4.028 L 1.931 4.216 M 0.607 3.582 L 0.073 2.657 L 0.246 2.557 L 0.780 3.482 L 0.607 3.582 M 0.000 2.244 L 0.185 1.192 L 0.382 1.227 L 0.197 2.279 L 0.000 2.244 M 0.395 0.830 L 1.213 0.143 L 1.342 0.296 L 0.523 0.983 L 0.395 0.830" style="fill:none;stroke:black;stroke-width:0.012" />
</g>
</svg>
