<?xml version="1.0"?>
	<!-- Generated by github.com/dustismo/heavyfishdesign -->
	<svg width="20.000in" height="12.000in" viewBox="0.000 0.000 20.000 12.000"
    	xmlns="http://www.w3.org/2000/svg"
		xmlns:xlink="http://www.w3.org/1999/xlink">
	<g transform="translate(0.100 0.100)">
<path id="6df6cb3b93c3ad73" d="M 2.157 10.007 L 1.850 10.007 L 1.850 9.807 L 1.754 9.807 L 1.657 9.807 L 1.657 10.007 L 1.350 10.007 L 1.350 9.807 L 1.254 9.807 L 1.157 9.807 L 1.157 10.007 L 0.850 10.007 L 0.850 9.807 L 0.753 9.807 L 0.657 9.807 L 0.657 10.007 L 0.350 10.007 L 0.350 9.807 L 0.254 9.807 L 0.200 9.807 L 0.200 9.754 L 0.200 9.657 L 0.000 9.657 L 0.000 9.350 L 0.200 9.350 L 0.200 9.254 L 0.200 9.157 L 0.000 9.157 L 0.000 8.850 L 0.200 8.850 L 0.200 8.754 L 0.200 8.657 L 0.000 8.657 L 0.000 8.350 L 0.200 8.350 L 0.200 8.254 L 0.200 8.157 L 0.000 8.157 L 0.000 7.850 L 0.200 7.850 L 0.200 7.753 L 0.200 7.657 L 0.000 7.657 L 0.000 7.350 L 0.200 7.350 L 0.200 7.253 L 0.200 7.157 L 0.000 7.157 L 0.000 6.850 L 0.200 6.850 L 0.200 6.753 L 0.200 6.657 L 0.000 6.657 L 0.000 6.350 L 0.200 6.350 L 0.200 6.253 L 0.200 6.157 L 0.000 6.157 L 0.000 5.850 L 0.200 5.850 L 0.200 5.753 L 0.200 5.657 L 0.000 5.657 L 0.000 5.350 L 0.200 5.350 L 0.200 5.253 L 0.200 5.157 L 0.000 5.157 L 0.000 4.850 L 0.200 4.850 L 0.200 4.753 L 0.200 4.657 L 0.000 4.657 L 0.000 4.350 L 0.200 4.350 L 0.200 4.253 L 0.200 4.157 L 0.000 4.157 L 0.000 3.850 L 0.200 3.850 L 0.200 3.753 L 0.200 3.657 L 0.000 3.657 L 0.000 3.350 L 0.200 3.350 L 0.200 3.253 L 0.200 3.157 L 0.000 3.157 L 0.000 2.850 L 0.200 2.850 L 0.200 2.753 L 0.200 2.657 L 0.000 2.657 L 0.000 2.350 L 0.200 2.350 L 0.200 2.253 L 0.200 2.157 L 0.000 2.157 L 0.000 1.850 L 0.200 1.850 L 0.200 1.754 L 0.200 1.657 L 0.000 1.657 L 0.000 1.350 L 0.200 1.350 L 0.200 1.254 L 0.200 1.157 L 0.000 1.157 L 0.000 0.850 L 0.200 0.850 L 0.200 0.753 L 0.200 0.657 L 0.000 0.657 L 0.000 0.350 L 0.200 0.350 L 0.200 0.254 L 0.200 0.000 L 0.254 0.000 L 0.357 0.000 L 0.357 0.220 L 0.650 0.220 L 0.650 0.000 L 0.753 0.000 L 0.857 0.000 L 0.857 0.220 L 1.150 0.220 L 1.150 0.000 L 1.254 0.000 L 1.357 0.000 L 1.357 0.220 L 1.650 0.220 L 1.650 0.000 L 1.754 0.000 L 1.857 0.000 L 1.857 0.220 L 2.150 0.220 L 2.150 0.000 L 2.253 0.000 L 2.357 0.000 L 2.357 0.220 L 2.650 0.220 L 2.650 0.000 L 2.753 0.000 L 2.857 0.000 L 2.857 0.220 L 3.150 0.220 L 3.150 0.000 L 3.253 0.000 L 3.357 0.000 L 3.357 0.220 L 3.650 0.220 L 3.650 0.000 L 3.753 0.000 L 3.857 0.000 L 3.857 0.220 L 4.150 0.220 L 4.150 0.000 L 4.253 0.000 L 4.357 0.000 L 4.357 0.220 L 4.650 0.220 L 4.650 0.000 L 4.753 0.000 L 4.857 0.000 L 4.857 0.220 L 5.150 0.220 L 5.150 0.000 L 5.253 0.000 L 5.357 0.000 L 5.357 0.220 L 5.650 0.220 L 5.650 0.000 L 5.753 0.000 L 5.857 0.000 L 5.857 0.220 L 6.150 0.220 L 6.150 0.000 L 6.253 0.000 L 6.357 0.000 L 6.357 0.220 L 6.650 0.220 L 6.650 0.000 L 6.753 0.000 L 6.857 0.000 L 6.857 0.220 L 7.150 0.220 L 7.150 0.000 L 7.253 0.000 L 7.357 0.000 L 7.357 0.220 L 7.650 0.220 L 7.650 0.000 L 7.753 0.000 L 7.857 0.000 L 7.857 0.220 L 8.150 0.220 L 8.150 0.000 L 8.254 0.000 L 8.357 0.000 L 8.357 0.220 L 8.650 0.220 L 8.650 0.000 L 8.754 0.000 L 8.857 0.000 L 8.857 0.220 L 9.150 0.220 L 9.150 0.000 L 9.254 0.000 L 9.357 0.000 L 9.357 0.220 L 9.650 0.220 L 9.650 0.000 L 9.754 0.000 L 9.807 0.000 L 9.807 0.254 L 9.807 0.350 L 10.007 0.350 L 10.007 0.657 L 9.807 0.657 L 9.807 0.753 L 9.807 0.850 L 10.007 0.850 L 10.007 1.157 L 9.807 1.157 L 9.807 1.254 L 9.807 1.350 L 10.007 1.350 L 10.007 1.657 L 9.807 1.657 L 9.807 1.754 L 9.807 1.850 L 10.007 1.850 L 10.007 2.157 L 9.807 2.157 L 9.807 2.253 L 9.807 2.350 L 10.007 2.350 L 10.007 2.657 L 9.807 2.657 L 9.807 2.753 L 9.807 2.850 L 10.007 2.850 L 10.007 3.157 L 9.807 3.157 L 9.807 3.253 L 9.807 3.350 L 10.007 3.350 L 10.007 3.657 L 9.807 3.657 L 9.807 3.753 L 9.807 3.850 L 10.007 3.850 L 10.007 4.157 L 9.807 4.157 L 9.807 4.253 L 9.807 4.350 L 10.007 4.350 L 10.007 4.657 L 9.807 4.657 L 9.807 4.753 L 9.807 4.850 L 10.007 4.850 L 10.007 5.157 L 9.807 5.157 L 9.807 5.253 L 9.807 5.350 L 10.007 5.350 L 10.007 5.657 L 9.807 5.657 L 9.807 5.753 L 9.807 5.850 L 10.007 5.850 L 10.007 6.157 L 9.807 6.157 L 9.807 6.253 L 9.807 6.350 L 10.007 6.350 L 10.007 6.657 L 9.807 6.657 L 9.807 6.753 L 9.807 6.850 L 10.007 6.850 L 10.007 7.157 L 9.807 7.157 L 9.807 7.253 L 9.807 7.350 L 10.007 7.350 L 10.007 7.657 L 9.807 7.657 L 9.807 7.753 L 9.807 7.850 L 10.007 7.850 L 10.007 8.157 L 9.807 8.157 L 9.807 8.254 L 9.807 8.350 L 10.007 8.350 L 10.007 8.657 L 9.807 8.657 L 9.807 8.754 L 9.807 8.850 L 10.007 8.850 L 10.007 9.157 L 9.807 9.157 L 9.807 9.254 L 9.807 9.350 L 10.007 9.350 L 10.007 9.657 L 9.807 9.657 L 9.807 9.754 L 9.807 9.807 L 9.754 9.807 L 9.657 9.807 L 9.657 10.007 L 9.350 10.007 L 9.350 9.807 L 9.254 9.807 L 9.157 9.807 L 9.157 10.007 L 8.850 10.007 L 8.850 9.807 L 8.754 9.807 L 8.657 9.807 L 8.657 10.007 L 8.350 10.007 L 8.350 9.807 L 8.254 9.807 L 8.157 9.807 L 8.157 10.007 L 7.850 10.007 L 7.850 9.807 L 7.753 9.807 L 7.657 9.807 L 7.657 10.007 L 7.350 10.007 L 7.350 9.807 L 7.253 9.807 L 7.157 9.807 L 7.157 10.007 L 6.850 10.007 L 6.850 9.807 L 6.753 9.807 L 6.657 9.807 L 6.657 10.007 L 6.350 10.007 L 6.350 9.807 L 6.253 9.807 L 6.157 9.807 L 6.157 10.007 L 5.850 10.007 L 5.850 9.807 L 5.753 9.807 L 5.657 9.807 L 5.657 10.007 L 5.350 10.007 L 5.350 9.807 L 5.253 9.807 L 5.157 9.807 L 5.157 10.007 L 4.850 10.007 L 4.850 9.807 L 4.753 9.807 L 4.657 9.807 L 4.657 10.007 L 4.350 10.007 L 4.350 9.807 L 4.253 9.807 L 4.157 9.807 L 4.157 10.007 L 3.850 10.007 L 3.850 9.807 L 3.753 9.807 L 3.657 9.807 L 3.657 10.007 L 3.350 10.007 L 3.350 9.807 L 3.253 9.807 L 3.157 9.807 L 3.157 10.007 L 2.850 10.007 L 2.850 9.807 L 2.753 9.807 L 2.657 9.807 L 2.657 10.007 L 2.350 10.007 L 2.350 9.807 L 2.253 9.807 L 2.157 9.807 L 2.157 10.007" style="fill:none;stroke:black;stroke-width:0.012" />
</g>
</svg>
