<?xml version="1.0"?>
	<!-- Generated by github.com/dustismo/heavyfishdesign -->
	<svg width="20.000in" height="12.000in" viewBox="0.000 0.000 20.000 12.000"
    	xmlns="http://www.w3.org/2000/svg"
		xmlns:xlink="http://www.w3.org/1999/xlink">
	<g transform="translate(0.100 0.100)">
<path id="front_flat_top" d="M 0.250 1.132 L 0.000 1.132 L 0.000 0.875 L 0.250 0.875 L 0.250 0.753 L 0.250 0.632 L 0.000 0.632 L 0.000 0.375 L 0.250 0.375 L 0.250 0.254 L 0.250 0.000 L 6.757 0.000 L 6.757 0.254 L 6.757 0.375 L 7.007 0.375 L 7.007 0.632 L 6.757 0.632 L 6.757 0.753 L 6.757 0.875 L 7.007 0.875 L 7.007 1.132 L 6.757 1.132 L 6.757 1.254 L 6.757 1.375 L 7.007 1.375 L 7.007 1.632 L 6.757 1.632 L 6.757 1.754 L 6.757 1.875 L 7.007 1.875 L 7.007 2.132 L 6.757 2.132 L 6.757 2.253 L 6.757 2.375 L 7.007 2.375 L 7.007 2.632 L 6.757 2.632 L 6.757 2.753 L 6.757 2.875 L 7.007 2.875 L 7.007 3.132 L 6.757 3.132 L 6.757 3.253 L 6.757 3.375 L 7.007 3.375 L 7.007 3.632 L 6.757 3.632 L 6.757 3.753 L 6.757 3.875 L 7.007 3.875 L 7.007 4.132 L 6.757 4.132 L 6.757 4.253 L 6.757 4.375 L 7.007 4.375 L 7.007 4.632 L 6.757 4.632 L 6.757 4.753 L 6.757 4.875 L 7.007 4.875 L 7.007 5.132 L 6.757 5.132 L 6.757 5.253 L 6.757 5.375 L 7.007 5.375 L 7.007 5.632 L 6.757 5.632 L 6.757 5.753 L 6.757 5.875 L 7.007 5.875 L 7.007 6.132 L 6.757 6.132 L 6.757 6.253 L 6.757 6.507 L 6.503 6.507 L 6.382 6.507 L 6.382 6.757 L 6.125 6.757 L 6.125 6.507 L 6.003 6.507 L 5.882 6.507 L 5.882 6.757 L 5.625 6.757 L 5.625 6.507 L 5.503 6.507 L 5.382 6.507 L 5.382 6.757 L 5.125 6.757 L 5.125 6.507 L 5.003 6.507 L 4.882 6.507 L 4.882 6.757 L 4.625 6.757 L 4.625 6.507 L 4.503 6.507 L 4.382 6.507 L 4.382 6.757 L 4.125 6.757 L 4.125 6.507 L 4.003 6.507 L 3.882 6.507 L 3.882 6.757 L 3.625 6.757 L 3.625 6.507 L 3.503 6.507 L 3.382 6.507 L 3.382 6.757 L 3.125 6.757 L 3.125 6.507 L 3.003 6.507 L 2.882 6.507 L 2.882 6.757 L 2.625 6.757 L 2.625 6.507 L 2.503 6.507 L 2.382 6.507 L 2.382 6.757 L 2.125 6.757 L 2.125 6.507 L 2.003 6.507 L 1.882 6.507 L 1.882 6.757 L 1.625 6.757 L 1.625 6.507 L 1.504 6.507 L 1.382 6.507 L 1.382 6.757 L 1.125 6.757 L 1.125 6.507 L 1.004 6.507 L 0.882 6.507 L 0.882 6.757 L 0.625 6.757 L 0.625 6.507 L 0.503 6.507 L 0.250 6.507 L 0.250 6.253 L 0.250 6.132 L 0.000 6.132 L 0.000 5.875 L 0.250 5.875 L 0.250 5.753 L 0.250 5.632 L 0.000 5.632 L 0.000 5.375 L 0.250 5.375 L 0.250 5.253 L 0.250 5.132 L 0.000 5.132 L 0.000 4.875 L 0.250 4.875 L 0.250 4.753 L 0.250 4.632 L 0.000 4.632 L 0.000 4.375 L 0.250 4.375 L 0.250 4.253 L 0.250 4.132 L 0.000 4.132 L 0.000 3.875 L 0.250 3.875 L 0.250 3.753 L 0.250 3.632 L 0.000 3.632 L 0.000 3.375 L 0.250 3.375 L 0.250 3.253 L 0.250 3.132 L 0.000 3.132 L 0.000 2.875 L 0.250 2.875 L 0.250 2.753 L 0.250 2.632 L 0.000 2.632 L 0.000 2.375 L 0.250 2.375 L 0.250 2.253 L 0.250 2.132 L 0.000 2.132 L 0.000 1.875 L 0.250 1.875 L 0.250 1.754 L 0.250 1.632 L 0.000 1.632 L 0.000 1.375 L 0.250 1.375 L 0.250 1.254 L 0.250 1.132" style="fill:none;stroke:black;stroke-width:0.012" />
</g>
<g transform="translate(7.307 0.100)">
<path id="front_flat_top" d="M 0.250 1.132 L 0.000 1.132 L 0.000 0.875 L 0.250 0.875 L 0.250 0.753 L 0.250 0.632 L 0.000 0.632 L 0.000 0.375 L 0.250 0.375 L 0.250 0.254 L 0.250 0.000 L 6.757 0.000 L 6.757 0.254 L 6.757 0.375 L 7.007 0.375 L 7.007 0.632 L 6.757 0.632 L 6.757 0.753 L 6.757 0.875 L 7.007 0.875 L 7.007 1.132 L 6.757 1.132 L 6.757 1.254 L 6.757 1.375 L 7.007 1.375 L 7.007 1.632 L 6.757 1.632 L 6.757 1.754 L 6.757 1.875 L 7.007 1.875 L 7.007 2.132 L 6.757 2.132 L 6.757 2.253 L 6.757 2.375 L 7.007 2.375 L 7.007 2.632 L 6.757 2.632 L 6.757 2.753 L 6.757 2.875 L 7.007 2.875 L 7.007 3.132 L 6.757 3.132 L 6.757 3.253 L 6.757 3.375 L 7.007 3.375 L 7.007 3.632 L 6.757 3.632 L 6.757 3.753 L 6.757 3.875 L 7.007 3.875 L 7.007 4.132 L 6.757 4.132 L 6.757 4.253 L 6.757 4.375 L 7.007 4.375 L 7.007 4.632 L 6.757 4.632 L 6.757 4.753 L 6.757 4.875 L 7.007 4.875 L 7.007 5.132 L 6.757 5.132 L 6.757 5.253 L 6.757 5.375 L 7.007 5.375 L 7.007 5.632 L 6.757 5.632 L 6.757 5.753 L 6.757 5.875 L 7.007 5.875 L 7.007 6.132 L 6.757 6.132 L 6.757 6.253 L 6.757 6.507 L 6.503 6.507 L 6.382 6.507 L 6.382 6.757 L 6.125 6.757 L 6.125 6.507 L 6.003 6.507 L 5.882 6.507 L 5.882 6.757 L 5.625 6.757 L 5.625 6.507 L 5.503 6.507 L 5.382 6.507 L 5.382 6.757 L 5.125 6.757 L 5.125 6.507 L 5.003 6.507 L 4.882 6.507 L 4.882 6.757 L 4.625 6.757 L 4.625 6.507 L 4.503 6.507 L 4.382 6.507 L 4.382 6.757 L 4.125 6.757 L 4.125 6.507 L 4.003 6.507 L 3.882 6.507 L 3.882 6.757 L 3.625 6.757 L 3.625 6.507 L 3.503 6.507 L 3.382 6.507 L 3.382 6.757 L 3.125 6.757 L 3.125 6.507 L 3.003 6.507 L 2.882 6.507 L 2.882 6.757 L 2.625 6.757 L 2.625 6.507 L 2.503 6.507 L 2.382 6.507 L 2.382 6.757 L 2.125 6.757 L 2.125 6.507 L 2.003 6.507 L 1.882 6.507 L 1.882 6.757 L 1.625 6.757 L 1.625 6.507 L 1.504 6.507 L 1.382 6.507 L 1.382 6.757 L 1.125 6.757 L 1.125 6.507 L 1.004 6.507 L 0.882 6.507 L 0.882 6.757 L 0.625 6.757 L 0.625 6.507 L 0.503 6.507 L 0.250 6.507 L 0.250 6.253 L 0.250 6.132 L 0.000 6.132 L 0.000 5.875 L 0.250 5.875 L 0.250 5.753 L 0.250 5.632 L 0.000 5.632 L 0.000 5.375 L 0.250 5.375 L 0.250 5.253 L 0.250 5.132 L 0.000 5.132 L 0.000 4.875 L 0.250 4.875 L 0.250 4.753 L 0.250 4.632 L 0.000 4.632 L 0.000 4.375 L 0.250 4.375 L 0.250 4.253 L 0.250 4.132 L 0.000 4.132 L 0.000 3.875 L 0.250 3.875 L 0.250 3.753 L 0.250 3.632 L 0.000 3.632 L 0.000 3.375 L 0.250 3.375 L 0.250 3.253 L 0.250 3.132 L 0.000 3.132 L 0.000 2.875 L 0.250 2.875 L 0.250 2.753 L 0.250 2.632 L 0.000 2.632 L 0.000 2.375 L 0.250 2.375 L 0.250 2.253 L 0.250 2.132 L 0.000 2.132 L 0.000 1.875 L 0.250 1.875 L 0.250 1.754 L 0.250 1.632 L 0.000 1.632 L 0.000 1.375 L 0.250 1.375 L 0.250 1.254 L 0.250 1.132" style="fill:none;stroke:black;stroke-width:0.012" />
</g>
</svg>
