<?xml version="1.0"?>
	<!-- Generated by github.com/dustismo/heavyfishdesign -->
	<svg width="20.000in" height="12.000in" viewBox="0.000 0.000 20.000 12.000"
    	xmlns="http://www.w3.org/2000/svg"
		xmlns:xlink="http://www.w3.org/1999/xlink">
	<g transform="translate(0.100 0.100)">
<path id="side_flat_top" d="M 8.007 1.882 L 8.007 2.125 L 8.257 2.125 L 8.257 2.253 L 8.257 2.382 L 8.007 2.382 L 8.007 2.625 L 8.257 2.625 L 8.257 2.753 L 8.257 2.882 L 8.007 2.882 L 8.007 3.125 L 8.257 3.125 L 8.257 3.253 L 8.257 3.382 L 8.007 3.382 L 8.007 3.625 L 8.257 3.625 L 8.257 3.753 L 8.257 3.882 L 8.007 3.882 L 8.007 4.125 L 8.257 4.125 L 8.257 4.253 L 8.257 4.382 L 8.007 4.382 L 8.007 4.625 L 8.257 4.625 L 8.257 4.753 L 8.257 4.882 L 8.007 4.882 L 8.007 5.125 L 8.257 5.125 L 8.257 5.253 L 8.257 5.382 L 8.007 5.382 L 8.007 5.625 L 8.257 5.625 L 8.257 5.753 L 8.257 5.882 L 8.007 5.882 L 8.007 6.125 L 8.257 6.125 L 8.257 6.253 L 8.257 6.507 L 7.878 6.507 L 7.757 6.507 L 7.757 6.757 L 7.500 6.757 L 7.500 6.507 L 7.378 6.507 L 7.257 6.507 L 7.257 6.757 L 7.000 6.757 L 7.000 6.507 L 6.878 6.507 L 6.757 6.507 L 6.757 6.757 L 6.500 6.757 L 6.500 6.507 L 6.378 6.507 L 6.257 6.507 L 6.257 6.757 L 6.000 6.757 L 6.000 6.507 L 5.878 6.507 L 5.757 6.507 L 5.757 6.757 L 5.500 6.757 L 5.500 6.507 L 5.378 6.507 L 5.257 6.507 L 5.257 6.757 L 5.000 6.757 L 5.000 6.507 L 4.878 6.507 L 4.757 6.507 L 4.757 6.757 L 4.500 6.757 L 4.500 6.507 L 4.378 6.507 L 4.257 6.507 L 4.257 6.757 L 4.000 6.757 L 4.000 6.507 L 3.878 6.507 L 3.757 6.507 L 3.757 6.757 L 3.500 6.757 L 3.500 6.507 L 3.378 6.507 L 3.257 6.507 L 3.257 6.757 L 3.000 6.757 L 3.000 6.507 L 2.878 6.507 L 2.757 6.507 L 2.757 6.757 L 2.500 6.757 L 2.500 6.507 L 2.378 6.507 L 2.257 6.507 L 2.257 6.757 L 2.000 6.757 L 2.000 6.507 L 1.879 6.507 L 1.757 6.507 L 1.757 6.757 L 1.500 6.757 L 1.500 6.507 L 1.379 6.507 L 1.257 6.507 L 1.257 6.757 L 1.000 6.757 L 1.000 6.507 L 0.878 6.507 L 0.757 6.507 L 0.757 6.757 L 0.500 6.757 L 0.500 6.507 L 0.379 6.507 L 0.000 6.507 L 0.000 6.253 L 0.000 6.125 L 0.250 6.125 L 0.250 5.882 L 0.000 5.882 L 0.000 5.753 L 0.000 5.625 L 0.250 5.625 L 0.250 5.382 L 0.000 5.382 L 0.000 5.253 L 0.000 5.125 L 0.250 5.125 L 0.250 4.882 L 0.000 4.882 L 0.000 4.753 L 0.000 4.625 L 0.250 4.625 L 0.250 4.382 L 0.000 4.382 L 0.000 4.253 L 0.000 4.125 L 0.250 4.125 L 0.250 3.882 L 0.000 3.882 L 0.000 3.753 L 0.000 3.625 L 0.250 3.625 L 0.250 3.382 L 0.000 3.382 L 0.000 3.253 L 0.000 3.125 L 0.250 3.125 L 0.250 2.882 L 0.000 2.882 L 0.000 2.753 L 0.000 2.625 L 0.250 2.625 L 0.250 2.382 L 0.000 2.382 L 0.000 2.253 L 0.000 2.125 L 0.250 2.125 L 0.250 1.882 L 0.000 1.882 L 0.000 1.754 L 0.000 1.625 L 0.250 1.625 L 0.250 1.382 L 0.000 1.382 L 0.000 1.254 L 0.000 1.125 L 0.250 1.125 L 0.250 0.882 L 0.000 0.882 L 0.000 0.753 L 0.000 0.625 L 0.250 0.625 L 0.250 0.382 L 0.000 0.382 L 0.000 0.254 L 0.000 0.000 L 8.257 0.000 L 8.257 0.254 L 8.257 0.382 L 8.007 0.382 L 8.007 0.625 L 8.257 0.625 L 8.257 0.753 L 8.257 0.882 L 8.007 0.882 L 8.007 1.125 L 8.257 1.125 L 8.257 1.254 L 8.257 1.382 L 8.007 1.382 L 8.007 1.625 L 8.257 1.625 L 8.257 1.754 L 8.257 1.882 L 8.007 1.882" style="fill:none;stroke:black;stroke-width:0.012" />
</g>
<g transform="translate(8.557 0.100)">
<path id="side_flat_top" d="M 8.007 1.882 L 8.007 2.125 L 8.257 2.125 L 8.257 2.253 L 8.257 2.382 L 8.007 2.382 L 8.007 2.625 L 8.257 2.625 L 8.257 2.753 L 8.257 2.882 L 8.007 2.882 L 8.007 3.125 L 8.257 3.125 L 8.257 3.253 L 8.257 3.382 L 8.007 3.382 L 8.007 3.625 L 8.257 3.625 L 8.257 3.753 L 8.257 3.882 L 8.007 3.882 L 8.007 4.125 L 8.257 4.125 L 8.257 4.253 L 8.257 4.382 L 8.007 4.382 L 8.007 4.625 L 8.257 4.625 L 8.257 4.753 L 8.257 4.882 L 8.007 4.882 L 8.007 5.125 L 8.257 5.125 L 8.257 5.253 L 8.257 5.382 L 8.007 5.382 L 8.007 5.625 L 8.257 5.625 L 8.257 5.753 L 8.257 5.882 L 8.007 5.882 L 8.007 6.125 L 8.257 6.125 L 8.257 6.253 L 8.257 6.507 L 7.878 6.507 L 7.757 6.507 L 7.757 6.757 L 7.500 6.757 L 7.500 6.507 L 7.378 6.507 L 7.257 6.507 L 7.257 6.757 L 7.000 6.757 L 7.000 6.507 L 6.878 6.507 L 6.757 6.507 L 6.757 6.757 L 6.500 6.757 L 6.500 6.507 L 6.378 6.507 L 6.257 6.507 L 6.257 6.757 L 6.000 6.757 L 6.000 6.507 L 5.878 6.507 L 5.757 6.507 L 5.757 6.757 L 5.500 6.757 L 5.500 6.507 L 5.378 6.507 L 5.257 6.507 L 5.257 6.757 L 5.000 6.757 L 5.000 6.507 L 4.878 6.507 L 4.757 6.507 L 4.757 6.757 L 4.500 6.757 L 4.500 6.507 L 4.378 6.507 L 4.257 6.507 L 4.257 6.757 L 4.000 6.757 L 4.000 6.507 L 3.878 6.507 L 3.757 6.507 L 3.757 6.757 L 3.500 6.757 L 3.500 6.507 L 3.378 6.507 L 3.257 6.507 L 3.257 6.757 L 3.000 6.757 L 3.000 6.507 L 2.878 6.507 L 2.757 6.507 L 2.757 6.757 L 2.500 6.757 L 2.500 6.507 L 2.378 6.507 L 2.257 6.507 L 2.257 6.757 L 2.000 6.757 L 2.000 6.507 L 1.879 6.507 L 1.757 6.507 L 1.757 6.757 L 1.500 6.757 L 1.500 6.507 L 1.379 6.507 L 1.257 6.507 L 1.257 6.757 L 1.000 6.757 L 1.000 6.507 L 0.878 6.507 L 0.757 6.507 L 0.757 6.757 L 0.500 6.757 L 0.500 6.507 L 0.379 6.507 L 0.000 6.507 L 0.000 6.253 L 0.000 6.125 L 0.250 6.125 L 0.250 5.882 L 0.000 5.882 L 0.000 5.753 L 0.000 5.625 L 0.250 5.625 L 0.250 5.382 L 0.000 5.382 L 0.000 5.253 L 0.000 5.125 L 0.250 5.125 L 0.250 4.882 L 0.000 4.882 L 0.000 4.753 L 0.000 4.625 L 0.250 4.625 L 0.250 4.382 L 0.000 4.382 L 0.000 4.253 L 0.000 4.125 L 0.250 4.125 L 0.250 3.882 L 0.000 3.882 L 0.000 3.753 L 0.000 3.625 L 0.250 3.625 L 0.250 3.382 L 0.000 3.382 L 0.000 3.253 L 0.000 3.125 L 0.250 3.125 L 0.250 2.882 L 0.000 2.882 L 0.000 2.753 L 0.000 2.625 L 0.250 2.625 L 0.250 2.382 L 0.000 2.382 L 0.000 2.253 L 0.000 2.125 L 0.250 2.125 L 0.250 1.882 L 0.000 1.882 L 0.000 1.754 L 0.000 1.625 L 0.250 1.625 L 0.250 1.382 L 0.000 1.382 L 0.000 1.254 L 0.000 1.125 L 0.250 1.125 L 0.250 0.882 L 0.000 0.882 L 0.000 0.753 L 0.000 0.625 L 0.250 0.625 L 0.250 0.382 L 0.000 0.382 L 0.000 0.254 L 0.000 0.000 L 8.257 0.000 L 8.257 0.254 L 8.257 0.382 L 8.007 0.382 L 8.007 0.625 L 8.257 0.625 L 8.257 0.753 L 8.257 0.882 L 8.007 0.882 L 8.007 1.125 L 8.257 1.125 L 8.257 1.254 L 8.257 1.382 L 8.007 1.382 L 8.007 1.625 L 8.257 1.625 L 8.257 1.754 L 8.257 1.882 L 8.007 1.882" style="fill:none;stroke:black;stroke-width:0.012" />
</g>
</svg>
