<?xml version="1.0"?>
	<!-- Generated by github.com/dustismo/heavyfishdesign -->
	<svg width="20.000in" height="12.000in" viewBox="0.000 0.000 20.000 12.000"
    	xmlns="http://www.w3.org/2000/svg"
		xmlns:xlink="http://www.w3.org/1999/xlink">
	<g transform="translate(0.100 0.100)">
<path id="bottom" d="M 1.875 8.257 L 2.003 8.257 L 2.132 8.257 L 2.132 8.007 L 2.375 8.007 L 2.375 8.257 L 2.503 8.257 L 2.632 8.257 L 2.632 8.007 L 2.875 8.007 L 2.875 8.257 L 3.003 8.257 L 3.132 8.257 L 3.132 8.007 L 3.375 8.007 L 3.375 8.257 L 3.503 8.257 L 3.632 8.257 L 3.632 8.007 L 3.875 8.007 L 3.875 8.257 L 4.003 8.257 L 4.132 8.257 L 4.132 8.007 L 4.375 8.007 L 4.375 8.257 L 4.503 8.257 L 4.632 8.257 L 4.632 8.007 L 4.875 8.007 L 4.875 8.257 L 5.003 8.257 L 5.132 8.257 L 5.132 8.007 L 5.375 8.007 L 5.375 8.257 L 5.503 8.257 L 5.632 8.257 L 5.632 8.007 L 5.875 8.007 L 5.875 8.257 L 6.003 8.257 L 6.132 8.257 L 6.132 8.007 L 6.375 8.007 L 6.375 8.257 L 6.503 8.257 L 7.007 8.257 L 7.007 7.878 L 7.007 7.750 L 6.757 7.750 L 6.757 7.507 L 7.007 7.507 L 7.007 7.378 L 7.007 7.250 L 6.757 7.250 L 6.757 7.007 L 7.007 7.007 L 7.007 6.878 L 7.007 6.750 L 6.757 6.750 L 6.757 6.507 L 7.007 6.507 L 7.007 6.378 L 7.007 6.250 L 6.757 6.250 L 6.757 6.007 L 7.007 6.007 L 7.007 5.878 L 7.007 5.750 L 6.757 5.750 L 6.757 5.507 L 7.007 5.507 L 7.007 5.378 L 7.007 5.250 L 6.757 5.250 L 6.757 5.007 L 7.007 5.007 L 7.007 4.878 L 7.007 4.750 L 6.757 4.750 L 6.757 4.507 L 7.007 4.507 L 7.007 4.378 L 7.007 4.250 L 6.757 4.250 L 6.757 4.007 L 7.007 4.007 L 7.007 3.878 L 7.007 3.750 L 6.757 3.750 L 6.757 3.507 L 7.007 3.507 L 7.007 3.378 L 7.007 3.250 L 6.757 3.250 L 6.757 3.007 L 7.007 3.007 L 7.007 2.878 L 7.007 2.750 L 6.757 2.750 L 6.757 2.507 L 7.007 2.507 L 7.007 2.378 L 7.007 2.250 L 6.757 2.250 L 6.757 2.007 L 7.007 2.007 L 7.007 1.879 L 7.007 1.750 L 6.757 1.750 L 6.757 1.507 L 7.007 1.507 L 7.007 1.379 L 7.007 1.250 L 6.757 1.250 L 6.757 1.007 L 7.007 1.007 L 7.007 0.878 L 7.007 0.750 L 6.757 0.750 L 6.757 0.507 L 7.007 0.507 L 7.007 0.379 L 7.007 0.000 L 6.503 0.000 L 6.375 0.000 L 6.375 0.250 L 6.132 0.250 L 6.132 0.000 L 6.003 0.000 L 5.875 0.000 L 5.875 0.250 L 5.632 0.250 L 5.632 0.000 L 5.503 0.000 L 5.375 0.000 L 5.375 0.250 L 5.132 0.250 L 5.132 0.000 L 5.003 0.000 L 4.875 0.000 L 4.875 0.250 L 4.632 0.250 L 4.632 0.000 L 4.503 0.000 L 4.375 0.000 L 4.375 0.250 L 4.132 0.250 L 4.132 0.000 L 4.003 0.000 L 3.875 0.000 L 3.875 0.250 L 3.632 0.250 L 3.632 0.000 L 3.503 0.000 L 3.375 0.000 L 3.375 0.250 L 3.132 0.250 L 3.132 0.000 L 3.003 0.000 L 2.875 0.000 L 2.875 0.250 L 2.632 0.250 L 2.632 0.000 L 2.503 0.000 L 2.375 0.000 L 2.375 0.250 L 2.132 0.250 L 2.132 0.000 L 2.003 0.000 L 1.875 0.000 L 1.875 0.250 L 1.632 0.250 L 1.632 0.000 L 1.504 0.000 L 1.375 0.000 L 1.375 0.250 L 1.132 0.250 L 1.132 0.000 L 1.004 0.000 L 0.875 0.000 L 0.875 0.250 L 0.632 0.250 L 0.632 0.000 L 0.503 0.000 L 0.000 0.000 L 0.000 0.379 L 0.000 0.507 L 0.250 0.507 L 0.250 0.750 L 0.000 0.750 L 0.000 0.878 L 0.000 1.007 L 0.250 1.007 L 0.250 1.250 L 0.000 1.250 L 0.000 1.379 L 0.000 1.507 L 0.250 1.507 L 0.250 1.750 L 0.000 1.750 L 0.000 1.879 L 0.000 2.007 L 0.250 2.007 L 0.250 2.250 L 0.000 2.250 L 0.000 2.378 L 0.000 2.507 L 0.250 2.507 L 0.250 2.750 L 0.000 2.750 L 0.000 2.878 L 0.000 3.007 L 0.250 3.007 L 0.250 3.250 L 0.000 3.250 L 0.000 3.378 L 0.000 3.507 L 0.250 3.507 L 0.250 3.750 L 0.000 3.750 L 0.000 3.878 L 0.000 4.007 L 0.250 4.007 L 0.250 4.250 L 0.000 4.250 L 0.000 4.378 L 0.000 4.507 L 0.250 4.507 L 0.250 4.750 L 0.000 4.750 L 0.000 4.878 L 0.000 5.007 L 0.250 5.007 L 0.250 5.250 L 0.000 5.250 L 0.000 5.378 L 0.000 5.507 L 0.250 5.507 L 0.250 5.750 L 0.000 5.750 L 0.000 5.878 L 0.000 6.007 L 0.250 6.007 L 0.250 6.250 L 0.000 6.250 L 0.000 6.378 L 0.000 6.507 L 0.250 6.507 L 0.250 6.750 L 0.000 6.750 L 0.000 6.878 L 0.000 7.007 L 0.250 7.007 L 0.250 7.250 L 0.000 7.250 L 0.000 7.378 L 0.000 7.507 L 0.250 7.507 L 0.250 7.750 L 0.000 7.750 L 0.000 7.878 L 0.000 8.257 L 0.503 8.257 L 0.632 8.257 L 0.632 8.007 L 0.875 8.007 L 0.875 8.257 L 1.004 8.257 L 1.132 8.257 L 1.132 8.007 L 1.375 8.007 L 1.375 8.257 L 1.504 8.257 L 1.632 8.257 L 1.632 8.007 L 1.875 8.007 L 1.875 8.257" style="fill:none;stroke:black;stroke-width:0.012" />
</g>
</svg>
