<?xml version="1.0"?>
	<!-- Generated by github.com/dustismo/heavyfishdesign -->
	<svg width="12.000in" height="11.000in" viewBox="0.000 0.000 12.000 11.000"
    	xmlns="http://www.w3.org/2000/svg"
		xmlns:xlink="http://www.w3.org/1999/xlink">
	<g transform="translate(0.100 0.100)">
<path id="back" d="M 5.107 1.757 L 5.204 1.757 L 5.300 1.757 L 5.300 2.007 L 5.507 2.007 L 5.507 1.757 L 5.603 1.757 L 6.007 1.757 L 6.007 1.604 L 6.007 1.500 L 5.757 1.500 L 5.757 1.307 L 6.007 1.307 L 6.007 1.204 L 6.007 1.100 L 5.757 1.100 L 5.757 0.907 L 6.007 0.907 L 6.007 0.803 L 6.007 0.700 L 5.757 0.700 L 5.757 0.507 L 6.007 0.507 L 6.007 0.404 L 6.007 0.000 L 0.000 0.000 L 0.000 0.404 L 0.000 0.507 L 0.250 0.507 L 0.250 0.700 L 0.000 0.700 L 0.000 0.803 L 0.000 0.907 L 0.250 0.907 L 0.250 1.100 L 0.000 1.100 L 0.000 1.204 L 0.000 1.307 L 0.250 1.307 L 0.250 1.500 L 0.000 1.500 L 0.000 1.604 L 0.000 1.757 L 0.404 1.757 L 0.500 1.757 L 0.500 2.007 L 0.707 2.007 L 0.707 1.757 L 0.803 1.757 L 0.900 1.757 L 0.900 2.007 L 1.107 2.007 L 1.107 1.757 L 1.204 1.757 L 1.300 1.757 L 1.300 2.007 L 1.507 2.007 L 1.507 1.757 L 1.604 1.757 L 1.700 1.757 L 1.700 2.007 L 1.907 2.007 L 1.907 1.757 L 2.003 1.757 L 2.100 1.757 L 2.100 2.007 L 2.307 2.007 L 2.307 1.757 L 2.403 1.757 L 2.500 1.757 L 2.500 2.007 L 2.707 2.007 L 2.707 1.757 L 2.803 1.757 L 2.900 1.757 L 2.900 2.007 L 3.107 2.007 L 3.107 1.757 L 3.204 1.757 L 3.300 1.757 L 3.300 2.007 L 3.507 2.007 L 3.507 1.757 L 3.603 1.757 L 3.700 1.757 L 3.700 2.007 L 3.907 2.007 L 3.907 1.757 L 4.003 1.757 L 4.100 1.757 L 4.100 2.007 L 4.307 2.007 L 4.307 1.757 L 4.404 1.757 L 4.500 1.757 L 4.500 2.007 L 4.707 2.007 L 4.707 1.757 L 4.803 1.757 L 4.900 1.757 L 4.900 2.007 L 5.107 2.007 L 5.107 1.757 M 0.853 0.603 C 0.909 0.603 0.953 0.648 0.953 0.703 C 0.953 0.759 0.909 0.803 0.853 0.803 C 0.798 0.803 0.753 0.759 0.753 0.703 C 0.753 0.648 0.798 0.603 0.853 0.603 M 5.153 0.603 C 5.209 0.603 5.253 0.648 5.253 0.703 C 5.253 0.759 5.209 0.803 5.153 0.803 C 5.098 0.803 5.053 0.759 5.053 0.703 C 5.053 0.648 5.098 0.603 5.153 0.603" style="fill:none;stroke:black;stroke-width:0.012" />
</g>
<g transform="translate(6.307 0.100)">
<path id="side" d="M 0.250 0.000 L 2.757 0.836 L 2.757 1.222 L 2.757 1.318 L 3.007 1.318 L 3.007 1.525 L 2.757 1.525 L 2.757 1.622 L 2.757 1.675 L 2.704 1.675 L 2.607 1.675 L 2.607 1.925 L 2.400 1.925 L 2.400 1.675 L 2.303 1.675 L 2.207 1.675 L 2.207 1.925 L 2.000 1.925 L 2.000 1.675 L 1.903 1.675 L 1.807 1.675 L 1.807 1.925 L 1.600 1.925 L 1.600 1.675 L 1.504 1.675 L 1.407 1.675 L 1.407 1.925 L 1.200 1.925 L 1.200 1.675 L 1.104 1.675 L 1.007 1.675 L 1.007 1.925 L 0.800 1.925 L 0.800 1.675 L 0.703 1.675 L 0.607 1.675 L 0.607 1.925 L 0.400 1.925 L 0.400 1.675 L 0.303 1.675 L 0.250 1.675 L 0.250 1.522 L 0.250 1.425 L 0.000 1.425 L 0.000 1.218 L 0.250 1.218 L 0.250 1.122 L 0.250 1.025 L 0.000 1.025 L 0.000 0.818 L 0.250 0.818 L 0.250 0.722 L 0.250 0.625 L 0.000 0.625 L 0.000 0.418 L 0.250 0.418 L 0.250 0.322 L 0.250 0.000 M 0.753 1.172 C 0.753 1.172 0.753 1.172 0.753 1.172 C 0.753 1.172 0.753 1.172 0.753 1.172 C 0.753 1.172 0.753 1.172 0.753 1.172 C 0.753 1.172 0.753 1.172 0.753 1.172 M 2.253 1.172 C 2.253 1.172 2.253 1.172 2.253 1.172 C 2.253 1.172 2.253 1.172 2.253 1.172 C 2.253 1.172 2.253 1.172 2.253 1.172 C 2.253 1.172 2.253 1.172 2.253 1.172" style="fill:none;stroke:black;stroke-width:0.012" />
</g>
<g transform="translate(0.100 2.307)">
<path id="side" d="M 0.250 0.000 L 2.757 0.836 L 2.757 1.222 L 2.757 1.318 L 3.007 1.318 L 3.007 1.525 L 2.757 1.525 L 2.757 1.622 L 2.757 1.675 L 2.704 1.675 L 2.607 1.675 L 2.607 1.925 L 2.400 1.925 L 2.400 1.675 L 2.303 1.675 L 2.207 1.675 L 2.207 1.925 L 2.000 1.925 L 2.000 1.675 L 1.903 1.675 L 1.807 1.675 L 1.807 1.925 L 1.600 1.925 L 1.600 1.675 L 1.504 1.675 L 1.407 1.675 L 1.407 1.925 L 1.200 1.925 L 1.200 1.675 L 1.104 1.675 L 1.007 1.675 L 1.007 1.925 L 0.800 1.925 L 0.800 1.675 L 0.703 1.675 L 0.607 1.675 L 0.607 1.925 L 0.400 1.925 L 0.400 1.675 L 0.303 1.675 L 0.250 1.675 L 0.250 1.522 L 0.250 1.425 L 0.000 1.425 L 0.000 1.218 L 0.250 1.218 L 0.250 1.122 L 0.250 1.025 L 0.000 1.025 L 0.000 0.818 L 0.250 0.818 L 0.250 0.722 L 0.250 0.625 L 0.000 0.625 L 0.000 0.418 L 0.250 0.418 L 0.250 0.322 L 0.250 0.000 M 0.753 1.172 C 0.753 1.172 0.753 1.172 0.753 1.172 C 0.753 1.172 0.753 1.172 0.753 1.172 C 0.753 1.172 0.753 1.172 0.753 1.172 C 0.753 1.172 0.753 1.172 0.753 1.172 M 2.253 1.172 C 2.253 1.172 2.253 1.172 2.253 1.172 C 2.253 1.172 2.253 1.172 2.253 1.172 C 2.253 1.172 2.253 1.172 2.253 1.172 C 2.253 1.172 2.253 1.172 2.253 1.172" style="fill:none;stroke:black;stroke-width:0.012" />
</g>
<g transform="rotate(90 1.107 4.432) translate(1.107 4.432)">
<path id="front" d="M 4.900 1.007 L 4.900 0.757 L 4.803 0.757 L 4.707 0.757 L 4.707 1.007 L 4.500 1.007 L 4.500 0.757 L 4.404 0.757 L 4.307 0.757 L 4.307 1.007 L 4.100 1.007 L 4.100 0.757 L 4.003 0.757 L 3.907 0.757 L 3.907 1.007 L 3.700 1.007 L 3.700 0.757 L 3.603 0.757 L 3.507 0.757 L 3.507 1.007 L 3.300 1.007 L 3.300 0.757 L 3.204 0.757 L 3.107 0.757 L 3.107 1.007 L 2.900 1.007 L 2.900 0.757 L 2.803 0.757 L 2.707 0.757 L 2.707 1.007 L 2.500 1.007 L 2.500 0.757 L 2.403 0.757 L 2.307 0.757 L 2.307 1.007 L 2.100 1.007 L 2.100 0.757 L 2.003 0.757 L 1.907 0.757 L 1.907 1.007 L 1.700 1.007 L 1.700 0.757 L 1.604 0.757 L 1.507 0.757 L 1.507 1.007 L 1.300 1.007 L 1.300 0.757 L 1.204 0.757 L 1.107 0.757 L 1.107 1.007 L 0.900 1.007 L 0.900 0.757 L 0.803 0.757 L 0.707 0.757 L 0.707 1.007 L 0.500 1.007 L 0.500 0.757 L 0.404 0.757 L 0.000 0.757 L 0.000 0.703 L 0.000 0.600 L 0.250 0.600 L 0.250 0.407 L 0.000 0.407 L 0.000 0.303 L 0.000 0.000 L 6.007 0.000 L 6.007 0.303 L 6.007 0.407 L 5.757 0.407 L 5.757 0.600 L 6.007 0.600 L 6.007 0.703 L 6.007 0.757 L 5.603 0.757 L 5.507 0.757 L 5.507 1.007 L 5.300 1.007 L 5.300 0.757 L 5.204 0.757 L 5.107 0.757 L 5.107 1.007 L 4.900 1.007" style="fill:none;stroke:black;stroke-width:0.012" />
</g>
<g transform="translate(3.307 2.307)">
<path id="bottom" d="M 4.107 0.250 L 4.300 0.250 L 4.300 0.000 L 4.404 0.000 L 4.507 0.000 L 4.507 0.250 L 4.700 0.250 L 4.700 0.000 L 4.803 0.000 L 4.907 0.000 L 4.907 0.250 L 5.100 0.250 L 5.100 0.000 L 5.204 0.000 L 5.307 0.000 L 5.307 0.250 L 5.500 0.250 L 5.500 0.000 L 5.603 0.000 L 6.007 0.000 L 6.007 0.303 L 6.007 0.407 L 5.757 0.407 L 5.757 0.600 L 6.007 0.600 L 6.007 0.703 L 6.007 0.807 L 5.757 0.807 L 5.757 1.000 L 6.007 1.000 L 6.007 1.104 L 6.007 1.207 L 5.757 1.207 L 5.757 1.400 L 6.007 1.400 L 6.007 1.504 L 6.007 1.607 L 5.757 1.607 L 5.757 1.800 L 6.007 1.800 L 6.007 1.903 L 6.007 2.007 L 5.757 2.007 L 5.757 2.200 L 6.007 2.200 L 6.007 2.303 L 6.007 2.407 L 5.757 2.407 L 5.757 2.600 L 6.007 2.600 L 6.007 2.704 L 6.007 3.007 L 5.603 3.007 L 5.500 3.007 L 5.500 2.757 L 5.307 2.757 L 5.307 3.007 L 5.204 3.007 L 5.100 3.007 L 5.100 2.757 L 4.907 2.757 L 4.907 3.007 L 4.803 3.007 L 4.700 3.007 L 4.700 2.757 L 4.507 2.757 L 4.507 3.007 L 4.404 3.007 L 4.300 3.007 L 4.300 2.757 L 4.107 2.757 L 4.107 3.007 L 4.003 3.007 L 3.900 3.007 L 3.900 2.757 L 3.707 2.757 L 3.707 3.007 L 3.603 3.007 L 3.500 3.007 L 3.500 2.757 L 3.307 2.757 L 3.307 3.007 L 3.204 3.007 L 3.100 3.007 L 3.100 2.757 L 2.907 2.757 L 2.907 3.007 L 2.803 3.007 L 2.700 3.007 L 2.700 2.757 L 2.507 2.757 L 2.507 3.007 L 2.403 3.007 L 2.300 3.007 L 2.300 2.757 L 2.107 2.757 L 2.107 3.007 L 2.003 3.007 L 1.900 3.007 L 1.900 2.757 L 1.707 2.757 L 1.707 3.007 L 1.604 3.007 L 1.500 3.007 L 1.500 2.757 L 1.307 2.757 L 1.307 3.007 L 1.204 3.007 L 1.100 3.007 L 1.100 2.757 L 0.907 2.757 L 0.907 3.007 L 0.803 3.007 L 0.700 3.007 L 0.700 2.757 L 0.507 2.757 L 0.507 3.007 L 0.404 3.007 L 0.000 3.007 L 0.000 2.704 L 0.000 2.600 L 0.250 2.600 L 0.250 2.407 L 0.000 2.407 L 0.000 2.303 L 0.000 2.200 L 0.250 2.200 L 0.250 2.007 L 0.000 2.007 L 0.000 1.903 L 0.000 1.800 L 0.250 1.800 L 0.250 1.607 L 0.000 1.607 L 0.000 1.504 L 0.000 1.400 L 0.250 1.400 L 0.250 1.207 L 0.000 1.207 L 0.000 1.104 L 0.000 1.000 L 0.250 1.000 L 0.250 0.807 L 0.000 0.807 L 0.000 0.703 L 0.000 0.600 L 0.250 0.600 L 0.250 0.407 L 0.000 0.407 L 0.000 0.303 L 0.000 0.000 L 0.404 0.000 L 0.507 0.000 L 0.507 0.250 L 0.700 0.250 L 0.700 0.000 L 0.803 0.000 L 0.907 0.000 L 0.907 0.250 L 1.100 0.250 L 1.100 0.000 L 1.204 0.000 L 1.307 0.000 L 1.307 0.250 L 1.500 0.250 L 1.500 0.000 L 1.604 0.000 L 1.707 0.000 L 1.707 0.250 L 1.900 0.250 L 1.900 0.000 L 2.003 0.000 L 2.107 0.000 L 2.107 0.250 L 2.300 0.250 L 2.300 0.000 L 2.403 0.000 L 2.507 0.000 L 2.507 0.250 L 2.700 0.250 L 2.700 0.000 L 2.803 0.000 L 2.907 0.000 L 2.907 0.250 L 3.100 0.250 L 3.100 0.000 L 3.204 0.000 L 3.307 0.000 L 3.307 0.250 L 3.500 0.250 L 3.500 0.000 L 3.603 0.000 L 3.707 0.000 L 3.707 0.250 L 3.900 0.250 L 3.900 0.000 L 4.003 0.000 L 4.107 0.000 L 4.107 0.250" style="fill:none;stroke:black;stroke-width:0.012" />
</g>
</svg>
