<?xml version="1.0"?>
	<!-- Generated by github.com/dustismo/heavyfishdesign -->
	<svg width="12.000in" height="11.000in" viewBox="0.000 0.000 12.000 11.000"
    	xmlns="http://www.w3.org/2000/svg"
		xmlns:xlink="http://www.w3.org/1999/xlink">
	<g transform="translate(0.100 0.100)">
<path id="bottom" d="M 4.107 0.250 L 4.300 0.250 L 4.300 0.000 L 4.404 0.000 L 4.507 0.000 L 4.507 0.250 L 4.700 0.250 L 4.700 0.000 L 4.803 0.000 L 4.907 0.000 L 4.907 0.250 L 5.100 0.250 L 5.100 0.000 L 5.204 0.000 L 5.307 0.000 L 5.307 0.250 L 5.500 0.250 L 5.500 0.000 L 5.603 0.000 L 6.007 0.000 L 6.007 0.303 L 6.007 0.407 L 5.757 0.407 L 5.757 0.600 L 6.007 0.600 L 6.007 0.703 L 6.007 0.807 L 5.757 0.807 L 5.757 1.000 L 6.007 1.000 L 6.007 1.104 L 6.007 1.207 L 5.757 1.207 L 5.757 1.400 L 6.007 1.400 L 6.007 1.504 L 6.007 1.607 L 5.757 1.607 L 5.757 1.800 L 6.007 1.800 L 6.007 1.903 L 6.007 2.007 L 5.757 2.007 L 5.757 2.200 L 6.007 2.200 L 6.007 2.303 L 6.007 2.407 L 5.757 2.407 L 5.757 2.600 L 6.007 2.600 L 6.007 2.704 L 6.007 2.807 L 5.757 2.807 L 5.757 3.000 L 6.007 3.000 L 6.007 3.103 L 6.007 3.207 L 5.757 3.207 L 5.757 3.400 L 6.007 3.400 L 6.007 3.503 L 6.007 3.607 L 5.757 3.607 L 5.757 3.800 L 6.007 3.800 L 6.007 3.903 L 6.007 4.007 L 5.757 4.007 L 5.757 4.200 L 6.007 4.200 L 6.007 4.303 L 6.007 4.407 L 5.757 4.407 L 5.757 4.600 L 6.007 4.600 L 6.007 4.704 L 6.007 5.007 L 5.603 5.007 L 5.500 5.007 L 5.500 4.757 L 5.307 4.757 L 5.307 5.007 L 5.204 5.007 L 5.100 5.007 L 5.100 4.757 L 4.907 4.757 L 4.907 5.007 L 4.803 5.007 L 4.700 5.007 L 4.700 4.757 L 4.507 4.757 L 4.507 5.007 L 4.404 5.007 L 4.300 5.007 L 4.300 4.757 L 4.107 4.757 L 4.107 5.007 L 4.003 5.007 L 3.900 5.007 L 3.900 4.757 L 3.707 4.757 L 3.707 5.007 L 3.603 5.007 L 3.500 5.007 L 3.500 4.757 L 3.307 4.757 L 3.307 5.007 L 3.204 5.007 L 3.100 5.007 L 3.100 4.757 L 2.907 4.757 L 2.907 5.007 L 2.803 5.007 L 2.700 5.007 L 2.700 4.757 L 2.507 4.757 L 2.507 5.007 L 2.403 5.007 L 2.300 5.007 L 2.300 4.757 L 2.107 4.757 L 2.107 5.007 L 2.003 5.007 L 1.900 5.007 L 1.900 4.757 L 1.707 4.757 L 1.707 5.007 L 1.604 5.007 L 1.500 5.007 L 1.500 4.757 L 1.307 4.757 L 1.307 5.007 L 1.204 5.007 L 1.100 5.007 L 1.100 4.757 L 0.907 4.757 L 0.907 5.007 L 0.803 5.007 L 0.700 5.007 L 0.700 4.757 L 0.507 4.757 L 0.507 5.007 L 0.404 5.007 L 0.000 5.007 L 0.000 4.704 L 0.000 4.600 L 0.250 4.600 L 0.250 4.407 L 0.000 4.407 L 0.000 4.303 L 0.000 4.200 L 0.250 4.200 L 0.250 4.007 L 0.000 4.007 L 0.000 3.903 L 0.000 3.800 L 0.250 3.800 L 0.250 3.607 L 0.000 3.607 L 0.000 3.503 L 0.000 3.400 L 0.250 3.400 L 0.250 3.207 L 0.000 3.207 L 0.000 3.103 L 0.000 3.000 L 0.250 3.000 L 0.250 2.807 L 0.000 2.807 L 0.000 2.704 L 0.000 2.600 L 0.250 2.600 L 0.250 2.407 L 0.000 2.407 L 0.000 2.303 L 0.000 2.200 L 0.250 2.200 L 0.250 2.007 L 0.000 2.007 L 0.000 1.903 L 0.000 1.800 L 0.250 1.800 L 0.250 1.607 L 0.000 1.607 L 0.000 1.504 L 0.000 1.400 L 0.250 1.400 L 0.250 1.207 L 0.000 1.207 L 0.000 1.104 L 0.000 1.000 L 0.250 1.000 L 0.250 0.807 L 0.000 0.807 L 0.000 0.703 L 0.000 0.600 L 0.250 0.600 L 0.250 0.407 L 0.000 0.407 L 0.000 0.303 L 0.000 0.000 L 0.404 0.000 L 0.507 0.000 L 0.507 0.250 L 0.700 0.250 L 0.700 0.000 L 0.803 0.000 L 0.907 0.000 L 0.907 0.250 L 1.100 0.250 L 1.100 0.000 L 1.204 0.000 L 1.307 0.000 L 1.307 0.250 L 1.500 0.250 L 1.500 0.000 L 1.604 0.000 L 1.707 0.000 L 1.707 0.250 L 1.900 0.250 L 1.900 0.000 L 2.003 0.000 L 2.107 0.000 L 2.107 0.250 L 2.300 0.250 L 2.300 0.000 L 2.403 0.000 L 2.507 0.000 L 2.507 0.250 L 2.700 0.250 L 2.700 0.000 L 2.803 0.000 L 2.907 0.000 L 2.907 0.250 L 3.100 0.250 L 3.100 0.000 L 3.204 0.000 L 3.307 0.000 L 3.307 0.250 L 3.500 0.250 L 3.500 0.000 L 3.603 0.000 L 3.707 0.000 L 3.707 0.250 L 3.900 0.250 L 3.900 0.000 L 4.003 0.000 L 4.107 0.000 L 4.107 0.250" style="fill:none;stroke:black;stroke-width:0.012" />
</g>
</svg>
