<?xml version="1.0"?>
	<!-- Generated by github.com/dustismo/heavyfishdesign -->
	<svg width="12.000in" height="11.000in" viewBox="0.000 0.000 12.000 11.000"
    	xmlns="http://www.w3.org/2000/svg"
		xmlns:xlink="http://www.w3.org/1999/xlink">
	<g transform="translate(0.100 0.100)">
<path id="back" d="M 5.107 3.757 L 5.204 3.757 L 5.300 3.757 L 5.300 4.007 L 5.507 4.007 L 5.507 3.757 L 5.603 3.757 L 6.007 3.757 L 6.007 3.603 L 6.007 3.500 L 5.757 3.500 L 5.757 3.307 L 6.007 3.307 L 6.007 3.204 L 6.007 3.100 L 5.757 3.100 L 5.757 2.907 L 6.007 2.907 L 6.007 2.803 L 6.007 2.700 L 5.757 2.700 L 5.757 2.507 L 6.007 2.507 L 6.007 2.403 L 6.007 2.300 L 5.757 2.300 L 5.757 2.107 L 6.007 2.107 L 6.007 2.003 L 6.007 1.900 L 5.757 1.900 L 5.757 1.707 L 6.007 1.707 L 6.007 1.604 L 6.007 1.500 L 5.757 1.500 L 5.757 1.307 L 6.007 1.307 L 6.007 1.204 L 6.007 1.100 L 5.757 1.100 L 5.757 0.907 L 6.007 0.907 L 6.007 0.803 L 6.007 0.700 L 5.757 0.700 L 5.757 0.507 L 6.007 0.507 L 6.007 0.404 L 6.007 0.000 L 0.000 0.000 L 0.000 0.404 L 0.000 0.507 L 0.250 0.507 L 0.250 0.700 L 0.000 0.700 L 0.000 0.803 L 0.000 0.907 L 0.250 0.907 L 0.250 1.100 L 0.000 1.100 L 0.000 1.204 L 0.000 1.307 L 0.250 1.307 L 0.250 1.500 L 0.000 1.500 L 0.000 1.604 L 0.000 1.707 L 0.250 1.707 L 0.250 1.900 L 0.000 1.900 L 0.000 2.003 L 0.000 2.107 L 0.250 2.107 L 0.250 2.300 L 0.000 2.300 L 0.000 2.403 L 0.000 2.507 L 0.250 2.507 L 0.250 2.700 L 0.000 2.700 L 0.000 2.803 L 0.000 2.907 L 0.250 2.907 L 0.250 3.100 L 0.000 3.100 L 0.000 3.204 L 0.000 3.307 L 0.250 3.307 L 0.250 3.500 L 0.000 3.500 L 0.000 3.603 L 0.000 3.757 L 0.404 3.757 L 0.500 3.757 L 0.500 4.007 L 0.707 4.007 L 0.707 3.757 L 0.803 3.757 L 0.900 3.757 L 0.900 4.007 L 1.107 4.007 L 1.107 3.757 L 1.204 3.757 L 1.300 3.757 L 1.300 4.007 L 1.507 4.007 L 1.507 3.757 L 1.604 3.757 L 1.700 3.757 L 1.700 4.007 L 1.907 4.007 L 1.907 3.757 L 2.003 3.757 L 2.100 3.757 L 2.100 4.007 L 2.307 4.007 L 2.307 3.757 L 2.403 3.757 L 2.500 3.757 L 2.500 4.007 L 2.707 4.007 L 2.707 3.757 L 2.803 3.757 L 2.900 3.757 L 2.900 4.007 L 3.107 4.007 L 3.107 3.757 L 3.204 3.757 L 3.300 3.757 L 3.300 4.007 L 3.507 4.007 L 3.507 3.757 L 3.603 3.757 L 3.700 3.757 L 3.700 4.007 L 3.907 4.007 L 3.907 3.757 L 4.003 3.757 L 4.100 3.757 L 4.100 4.007 L 4.307 4.007 L 4.307 3.757 L 4.404 3.757 L 4.500 3.757 L 4.500 4.007 L 4.707 4.007 L 4.707 3.757 L 4.803 3.757 L 4.900 3.757 L 4.900 4.007 L 5.107 4.007 L 5.107 3.757 M 0.853 1.204 C 0.909 1.204 0.953 1.248 0.953 1.304 C 0.953 1.359 0.909 1.403 0.853 1.403 C 0.798 1.403 0.753 1.359 0.753 1.304 C 0.753 1.248 0.798 1.204 0.853 1.204 M 5.153 1.204 C 5.209 1.204 5.253 1.248 5.253 1.304 C 5.253 1.359 5.209 1.403 5.153 1.403 C 5.098 1.403 5.053 1.359 5.053 1.304 C 5.053 1.248 5.098 1.204 5.153 1.204" style="fill:none;stroke:black;stroke-width:0.012" />
</g>
<g transform="translate(6.307 0.100)">
<path id="side" d="M 0.250 0.000 L 4.757 1.352 L 4.757 1.880 L 4.757 1.976 L 5.007 1.976 L 5.007 2.183 L 4.757 2.183 L 4.757 2.280 L 4.757 2.376 L 5.007 2.376 L 5.007 2.583 L 4.757 2.583 L 4.757 2.680 L 4.757 2.776 L 5.007 2.776 L 5.007 2.983 L 4.757 2.983 L 4.757 3.080 L 4.757 3.176 L 5.007 3.176 L 5.007 3.383 L 4.757 3.383 L 4.757 3.480 L 4.757 3.683 L 4.704 3.683 L 4.607 3.683 L 4.607 3.933 L 4.400 3.933 L 4.400 3.683 L 4.303 3.683 L 4.207 3.683 L 4.207 3.933 L 4.000 3.933 L 4.000 3.683 L 3.903 3.683 L 3.807 3.683 L 3.807 3.933 L 3.600 3.933 L 3.600 3.683 L 3.503 3.683 L 3.407 3.683 L 3.407 3.933 L 3.200 3.933 L 3.200 3.683 L 3.103 3.683 L 3.007 3.683 L 3.007 3.933 L 2.800 3.933 L 2.800 3.683 L 2.704 3.683 L 2.607 3.683 L 2.607 3.933 L 2.400 3.933 L 2.400 3.683 L 2.303 3.683 L 2.207 3.683 L 2.207 3.933 L 2.000 3.933 L 2.000 3.683 L 1.903 3.683 L 1.807 3.683 L 1.807 3.933 L 1.600 3.933 L 1.600 3.683 L 1.504 3.683 L 1.407 3.683 L 1.407 3.933 L 1.200 3.933 L 1.200 3.683 L 1.104 3.683 L 1.007 3.683 L 1.007 3.933 L 0.800 3.933 L 0.800 3.683 L 0.703 3.683 L 0.607 3.683 L 0.607 3.933 L 0.400 3.933 L 0.400 3.683 L 0.303 3.683 L 0.250 3.683 L 0.250 3.530 L 0.250 3.433 L 0.000 3.433 L 0.000 3.226 L 0.250 3.226 L 0.250 3.130 L 0.250 3.033 L 0.000 3.033 L 0.000 2.826 L 0.250 2.826 L 0.250 2.730 L 0.250 2.633 L 0.000 2.633 L 0.000 2.426 L 0.250 2.426 L 0.250 2.330 L 0.250 2.233 L 0.000 2.233 L 0.000 2.026 L 0.250 2.026 L 0.250 1.930 L 0.250 1.833 L 0.000 1.833 L 0.000 1.626 L 0.250 1.626 L 0.250 1.530 L 0.250 1.433 L 0.000 1.433 L 0.000 1.226 L 0.250 1.226 L 0.250 1.130 L 0.250 1.033 L 0.000 1.033 L 0.000 0.826 L 0.250 0.826 L 0.250 0.730 L 0.250 0.633 L 0.000 0.633 L 0.000 0.426 L 0.250 0.426 L 0.250 0.330 L 0.250 0.000 M 0.753 1.680 C 0.753 1.680 0.753 1.680 0.753 1.680 C 0.753 1.680 0.753 1.680 0.753 1.680 C 0.753 1.680 0.753 1.680 0.753 1.680 C 0.753 1.680 0.753 1.680 0.753 1.680 M 4.253 1.680 C 4.253 1.680 4.253 1.680 4.253 1.680 C 4.253 1.680 4.253 1.680 4.253 1.680 C 4.253 1.680 4.253 1.680 4.253 1.680 C 4.253 1.680 4.253 1.680 4.253 1.680" style="fill:none;stroke:black;stroke-width:0.012" />
</g>
<g transform="translate(0.100 4.307)">
<path id="side" d="M 0.250 0.000 L 4.757 1.352 L 4.757 1.880 L 4.757 1.976 L 5.007 1.976 L 5.007 2.183 L 4.757 2.183 L 4.757 2.280 L 4.757 2.376 L 5.007 2.376 L 5.007 2.583 L 4.757 2.583 L 4.757 2.680 L 4.757 2.776 L 5.007 2.776 L 5.007 2.983 L 4.757 2.983 L 4.757 3.080 L 4.757 3.176 L 5.007 3.176 L 5.007 3.383 L 4.757 3.383 L 4.757 3.480 L 4.757 3.683 L 4.704 3.683 L 4.607 3.683 L 4.607 3.933 L 4.400 3.933 L 4.400 3.683 L 4.303 3.683 L 4.207 3.683 L 4.207 3.933 L 4.000 3.933 L 4.000 3.683 L 3.903 3.683 L 3.807 3.683 L 3.807 3.933 L 3.600 3.933 L 3.600 3.683 L 3.503 3.683 L 3.407 3.683 L 3.407 3.933 L 3.200 3.933 L 3.200 3.683 L 3.103 3.683 L 3.007 3.683 L 3.007 3.933 L 2.800 3.933 L 2.800 3.683 L 2.704 3.683 L 2.607 3.683 L 2.607 3.933 L 2.400 3.933 L 2.400 3.683 L 2.303 3.683 L 2.207 3.683 L 2.207 3.933 L 2.000 3.933 L 2.000 3.683 L 1.903 3.683 L 1.807 3.683 L 1.807 3.933 L 1.600 3.933 L 1.600 3.683 L 1.504 3.683 L 1.407 3.683 L 1.407 3.933 L 1.200 3.933 L 1.200 3.683 L 1.104 3.683 L 1.007 3.683 L 1.007 3.933 L 0.800 3.933 L 0.800 3.683 L 0.703 3.683 L 0.607 3.683 L 0.607 3.933 L 0.400 3.933 L 0.400 3.683 L 0.303 3.683 L 0.250 3.683 L 0.250 3.530 L 0.250 3.433 L 0.000 3.433 L 0.000 3.226 L 0.250 3.226 L 0.250 3.130 L 0.250 3.033 L 0.000 3.033 L 0.000 2.826 L 0.250 2.826 L 0.250 2.730 L 0.250 2.633 L 0.000 2.633 L 0.000 2.426 L 0.250 2.426 L 0.250 2.330 L 0.250 2.233 L 0.000 2.233 L 0.000 2.026 L 0.250 2.026 L 0.250 1.930 L 0.250 1.833 L 0.000 1.833 L 0.000 1.626 L 0.250 1.626 L 0.250 1.530 L 0.250 1.433 L 0.000 1.433 L 0.000 1.226 L 0.250 1.226 L 0.250 1.130 L 0.250 1.033 L 0.000 1.033 L 0.000 0.826 L 0.250 0.826 L 0.250 0.730 L 0.250 0.633 L 0.000 0.633 L 0.000 0.426 L 0.250 0.426 L 0.250 0.330 L 0.250 0.000 M 0.753 1.680 C 0.753 1.680 0.753 1.680 0.753 1.680 C 0.753 1.680 0.753 1.680 0.753 1.680 C 0.753 1.680 0.753 1.680 0.753 1.680 C 0.753 1.680 0.753 1.680 0.753 1.680 M 4.253 1.680 C 4.253 1.680 4.253 1.680 4.253 1.680 C 4.253 1.680 4.253 1.680 4.253 1.680 C 4.253 1.680 4.253 1.680 4.253 1.680 C 4.253 1.680 4.253 1.680 4.253 1.680" style="fill:none;stroke:black;stroke-width:0.012" />
</g>
<g transform="translate(5.307 4.307)">
<path id="front" d="M 5.107 2.257 L 5.204 2.257 L 5.300 2.257 L 5.300 2.507 L 5.507 2.507 L 5.507 2.257 L 5.603 2.257 L 6.007 2.257 L 6.007 2.053 L 6.007 1.950 L 5.757 1.950 L 5.757 1.757 L 6.007 1.757 L 6.007 1.653 L 6.007 1.550 L 5.757 1.550 L 5.757 1.357 L 6.007 1.357 L 6.007 1.254 L 6.007 1.150 L 5.757 1.150 L 5.757 0.957 L 6.007 0.957 L 6.007 0.853 L 6.007 0.750 L 5.757 0.750 L 5.757 0.557 L 6.007 0.557 L 6.007 0.454 L 6.007 0.000 L 0.000 0.000 L 0.000 0.454 L 0.000 0.557 L 0.250 0.557 L 0.250 0.750 L 0.000 0.750 L 0.000 0.853 L 0.000 0.957 L 0.250 0.957 L 0.250 1.150 L 0.000 1.150 L 0.000 1.254 L 0.000 1.357 L 0.250 1.357 L 0.250 1.550 L 0.000 1.550 L 0.000 1.653 L 0.000 1.757 L 0.250 1.757 L 0.250 1.950 L 0.000 1.950 L 0.000 2.053 L 0.000 2.257 L 0.404 2.257 L 0.500 2.257 L 0.500 2.507 L 0.707 2.507 L 0.707 2.257 L 0.803 2.257 L 0.900 2.257 L 0.900 2.507 L 1.107 2.507 L 1.107 2.257 L 1.204 2.257 L 1.300 2.257 L 1.300 2.507 L 1.507 2.507 L 1.507 2.257 L 1.604 2.257 L 1.700 2.257 L 1.700 2.507 L 1.907 2.507 L 1.907 2.257 L 2.003 2.257 L 2.100 2.257 L 2.100 2.507 L 2.307 2.507 L 2.307 2.257 L 2.403 2.257 L 2.500 2.257 L 2.500 2.507 L 2.707 2.507 L 2.707 2.257 L 2.803 2.257 L 2.900 2.257 L 2.900 2.507 L 3.107 2.507 L 3.107 2.257 L 3.204 2.257 L 3.300 2.257 L 3.300 2.507 L 3.507 2.507 L 3.507 2.257 L 3.603 2.257 L 3.700 2.257 L 3.700 2.507 L 3.907 2.507 L 3.907 2.257 L 4.003 2.257 L 4.100 2.257 L 4.100 2.507 L 4.307 2.507 L 4.307 2.257 L 4.404 2.257 L 4.500 2.257 L 4.500 2.507 L 4.707 2.507 L 4.707 2.257 L 4.803 2.257 L 4.900 2.257 L 4.900 2.507 L 5.107 2.507 L 5.107 2.257" style="fill:none;stroke:black;stroke-width:0.012" />
</g>
</svg>
