<?xml version="1.0"?>
	<!-- Generated by github.com/dustismo/heavyfishdesign -->
	<svg width="17.000in" height="10.000in" viewBox="0.000 0.000 17.000 10.000"
    	xmlns="http://www.w3.org/2000/svg"
		xmlns:xlink="http://www.w3.org/1999/xlink">
	<g transform="translate(0.100 0.100)">
<path id="front_flat_top" d="M 1.807 2.807 L 1.807 2.403 L 1.807 2.307 L 2.007 2.307 L 2.007 2.100 L 1.807 2.100 L 1.807 2.003 L 1.807 1.907 L 2.007 1.907 L 2.007 1.700 L 1.807 1.700 L 1.807 1.604 L 1.807 1.507 L 2.007 1.507 L 2.007 1.300 L 1.807 1.300 L 1.807 1.204 L 1.807 1.107 L 2.007 1.107 L 2.007 0.900 L 1.807 0.900 L 1.807 0.803 L 1.807 0.707 L 2.007 0.707 L 2.007 0.500 L 1.807 0.500 L 1.807 0.404 L 1.807 0.000 L 0.200 0.000 L 0.200 0.404 L 0.200 0.500 L 0.000 0.500 L 0.000 0.707 L 0.200 0.707 L 0.200 0.803 L 0.200 0.900 L 0.000 0.900 L 0.000 1.107 L 0.200 1.107 L 0.200 1.204 L 0.200 1.300 L 0.000 1.300 L 0.000 1.507 L 0.200 1.507 L 0.200 1.604 L 0.200 1.700 L 0.000 1.700 L 0.000 1.907 L 0.200 1.907 L 0.200 2.003 L 0.200 2.100 L 0.000 2.100 L 0.000 2.307 L 0.200 2.307 L 0.200 2.403 L 0.200 2.807 L 0.404 2.807 L 0.500 2.807 L 0.500 3.007 L 0.707 3.007 L 0.707 2.807 L 0.803 2.807 L 0.900 2.807 L 0.900 3.007 L 1.107 3.007 L 1.107 2.807 L 1.204 2.807 L 1.300 2.807 L 1.300 3.007 L 1.507 3.007 L 1.507 2.807 L 1.604 2.807 L 1.807 2.807" style="fill:none;stroke:black;stroke-width:0.012" />
</g>
<g transform="translate(0.100 3.307)">
<path id="front_flat_top" d="M 1.807 2.807 L 1.807 2.403 L 1.807 2.307 L 2.007 2.307 L 2.007 2.100 L 1.807 2.100 L 1.807 2.003 L 1.807 1.907 L 2.007 1.907 L 2.007 1.700 L 1.807 1.700 L 1.807 1.604 L 1.807 1.507 L 2.007 1.507 L 2.007 1.300 L 1.807 1.300 L 1.807 1.204 L 1.807 1.107 L 2.007 1.107 L 2.007 0.900 L 1.807 0.900 L 1.807 0.803 L 1.807 0.707 L 2.007 0.707 L 2.007 0.500 L 1.807 0.500 L 1.807 0.404 L 1.807 0.000 L 0.200 0.000 L 0.200 0.404 L 0.200 0.500 L 0.000 0.500 L 0.000 0.707 L 0.200 0.707 L 0.200 0.803 L 0.200 0.900 L 0.000 0.900 L 0.000 1.107 L 0.200 1.107 L 0.200 1.204 L 0.200 1.300 L 0.000 1.300 L 0.000 1.507 L 0.200 1.507 L 0.200 1.604 L 0.200 1.700 L 0.000 1.700 L 0.000 1.907 L 0.200 1.907 L 0.200 2.003 L 0.200 2.100 L 0.000 2.100 L 0.000 2.307 L 0.200 2.307 L 0.200 2.403 L 0.200 2.807 L 0.404 2.807 L 0.500 2.807 L 0.500 3.007 L 0.707 3.007 L 0.707 2.807 L 0.803 2.807 L 0.900 2.807 L 0.900 3.007 L 1.107 3.007 L 1.107 2.807 L 1.204 2.807 L 1.300 2.807 L 1.300 3.007 L 1.507 3.007 L 1.507 2.807 L 1.604 2.807 L 1.807 2.807" style="fill:none;stroke:black;stroke-width:0.012" />
</g>
<g transform="translate(0.100 6.514)">
<path id="side_flat_top" d="M 1.507 2.807 L 1.604 2.807 L 2.007 2.807 L 2.007 2.403 L 2.007 2.300 L 1.807 2.300 L 1.807 2.107 L 2.007 2.107 L 2.007 2.003 L 2.007 1.900 L 1.807 1.900 L 1.807 1.707 L 2.007 1.707 L 2.007 1.604 L 2.007 1.500 L 1.807 1.500 L 1.807 1.307 L 2.007 1.307 L 2.007 1.204 L 2.007 1.100 L 1.807 1.100 L 1.807 0.907 L 2.007 0.907 L 2.007 0.803 L 2.007 0.700 L 1.807 0.700 L 1.807 0.507 L 2.007 0.507 L 2.007 0.404 L 2.007 0.000 L 0.000 0.000 L 0.000 0.404 L 0.000 0.507 L 0.200 0.507 L 0.200 0.700 L 0.000 0.700 L 0.000 0.803 L 0.000 0.907 L 0.200 0.907 L 0.200 1.100 L 0.000 1.100 L 0.000 1.204 L 0.000 1.307 L 0.200 1.307 L 0.200 1.500 L 0.000 1.500 L 0.000 1.604 L 0.000 1.707 L 0.200 1.707 L 0.200 1.900 L 0.000 1.900 L 0.000 2.003 L 0.000 2.107 L 0.200 2.107 L 0.200 2.300 L 0.000 2.300 L 0.000 2.403 L 0.000 2.807 L 0.404 2.807 L 0.500 2.807 L 0.500 3.007 L 0.707 3.007 L 0.707 2.807 L 0.803 2.807 L 0.900 2.807 L 0.900 3.007 L 1.107 3.007 L 1.107 2.807 L 1.204 2.807 L 1.300 2.807 L 1.300 3.007 L 1.507 3.007 L 1.507 2.807" style="fill:none;stroke:black;stroke-width:0.012" />
</g>
<g transform="translate(2.307 0.100)">
<path id="side_flat_top" d="M 1.507 2.807 L 1.604 2.807 L 2.007 2.807 L 2.007 2.403 L 2.007 2.300 L 1.807 2.300 L 1.807 2.107 L 2.007 2.107 L 2.007 2.003 L 2.007 1.900 L 1.807 1.900 L 1.807 1.707 L 2.007 1.707 L 2.007 1.604 L 2.007 1.500 L 1.807 1.500 L 1.807 1.307 L 2.007 1.307 L 2.007 1.204 L 2.007 1.100 L 1.807 1.100 L 1.807 0.907 L 2.007 0.907 L 2.007 0.803 L 2.007 0.700 L 1.807 0.700 L 1.807 0.507 L 2.007 0.507 L 2.007 0.404 L 2.007 0.000 L 0.000 0.000 L 0.000 0.404 L 0.000 0.507 L 0.200 0.507 L 0.200 0.700 L 0.000 0.700 L 0.000 0.803 L 0.000 0.907 L 0.200 0.907 L 0.200 1.100 L 0.000 1.100 L 0.000 1.204 L 0.000 1.307 L 0.200 1.307 L 0.200 1.500 L 0.000 1.500 L 0.000 1.604 L 0.000 1.707 L 0.200 1.707 L 0.200 1.900 L 0.000 1.900 L 0.000 2.003 L 0.000 2.107 L 0.200 2.107 L 0.200 2.300 L 0.000 2.300 L 0.000 2.403 L 0.000 2.807 L 0.404 2.807 L 0.500 2.807 L 0.500 3.007 L 0.707 3.007 L 0.707 2.807 L 0.803 2.807 L 0.900 2.807 L 0.900 3.007 L 1.107 3.007 L 1.107 2.807 L 1.204 2.807 L 1.300 2.807 L 1.300 3.007 L 1.507 3.007 L 1.507 2.807" style="fill:none;stroke:black;stroke-width:0.012" />
</g>
<g transform="translate(2.307 3.307)">
<path id="bottom" d="M 1.807 1.100 L 1.807 0.907 L 2.007 0.907 L 2.007 0.803 L 2.007 0.700 L 1.807 0.700 L 1.807 0.507 L 2.007 0.507 L 2.007 0.404 L 2.007 0.000 L 1.604 0.000 L 1.500 0.000 L 1.500 0.200 L 1.307 0.200 L 1.307 0.000 L 1.204 0.000 L 1.100 0.000 L 1.100 0.200 L 0.907 0.200 L 0.907 0.000 L 0.803 0.000 L 0.700 0.000 L 0.700 0.200 L 0.507 0.200 L 0.507 0.000 L 0.404 0.000 L 0.000 0.000 L 0.000 0.404 L 0.000 0.507 L 0.200 0.507 L 0.200 0.700 L 0.000 0.700 L 0.000 0.803 L 0.000 0.907 L 0.200 0.907 L 0.200 1.100 L 0.000 1.100 L 0.000 1.204 L 0.000 1.307 L 0.200 1.307 L 0.200 1.500 L 0.000 1.500 L 0.000 1.604 L 0.000 2.007 L 0.404 2.007 L 0.507 2.007 L 0.507 1.807 L 0.700 1.807 L 0.700 2.007 L 0.803 2.007 L 0.907 2.007 L 0.907 1.807 L 1.100 1.807 L 1.100 2.007 L 1.204 2.007 L 1.307 2.007 L 1.307 1.807 L 1.500 1.807 L 1.500 2.007 L 1.604 2.007 L 2.007 2.007 L 2.007 1.604 L 2.007 1.500 L 1.807 1.500 L 1.807 1.307 L 2.007 1.307 L 2.007 1.204 L 2.007 1.100 L 1.807 1.100" style="fill:none;stroke:black;stroke-width:0.012" />
</g>
<g transform="translate(2.307 5.514)">
<path id="lid_underside" d="M 0.000 0.000 L 0.000 1.587 L 1.587 1.587 L 1.587 0.000 L 0.000 0.000 M 0.942 0.888 L 0.645 0.888 L 0.645 0.695 L 0.938 0.695 L 0.938 0.892" style="fill:none;stroke:black;stroke-width:0.012" />
</g>
<g transform="translate(2.307 7.301)">
<path id="lid_top" d="M 0.000 0.000 L 0.000 2.007 L 2.007 2.007 L 2.007 0.000 L 0.000 0.000 M 1.152 1.098 L 0.855 1.098 L 0.855 0.905 L 1.148 0.905 L 1.148 1.102" style="fill:none;stroke:black;stroke-width:0.012" />
</g>
<g transform="translate(4.514 0.100)">
<path id="lid_handle" d="M 0.912 0.924 L 0.912 1.324 L 0.605 1.324 L 0.605 0.924 L 0.282 0.924 C 0.282 0.873 0.254 0.783 0.222 0.752 C 0.175 0.707 0.145 0.724 0.133 0.689 C 0.103 0.680 0.073 0.690 0.045 0.710 C 0.004 0.679 -0.009 0.641 0.006 0.597 L 0.027 0.579 L 0.159 0.558 L 0.221 0.584 L 0.247 0.525 L 0.194 0.488 L 0.116 0.422 L 0.137 0.353 C 0.104 0.369 0.084 0.196 0.106 0.202 C 0.135 0.209 0.307 0.434 0.307 0.434 L 0.340 0.375 L 0.427 0.238 L 0.463 0.250 L 0.479 0.269 L 0.486 0.407 L 0.541 0.432 L 0.550 0.400 C 0.547 0.084 0.594 0.183 0.613 0.235 L 0.679 0.375 L 0.699 0.251 L 0.519 0.056 L 0.620 0.080 C 0.620 0.080 0.710 -0.003 0.749 0.000 C 0.787 0.003 0.843 0.089 0.843 0.089 L 0.974 0.062 L 0.859 0.189 L 0.847 0.224 L 0.870 0.411 L 0.912 0.352 C 0.912 0.352 0.930 0.195 0.948 0.173 C 1.004 0.104 1.015 0.257 0.995 0.279 L 0.987 0.339 L 1.010 0.375 L 0.997 0.451 L 1.043 0.488 C 1.043 0.488 1.043 0.219 1.059 0.183 C 1.075 0.148 1.140 0.273 1.140 0.273 L 1.156 0.294 L 1.182 0.488 C 1.182 0.488 1.442 0.288 1.478 0.282 C 1.513 0.277 1.394 0.454 1.394 0.454 L 1.262 0.559 L 1.278 0.615 L 1.379 0.578 L 1.417 0.577 C 1.417 0.577 1.624 0.404 1.640 0.426 C 1.656 0.448 1.552 0.747 1.552 0.747 L 1.410 0.717 L 1.255 0.787 L 1.250 0.924 L 0.912 0.924" style="fill:none;stroke:black;stroke-width:0.012" />
</g>
</svg>
