<?xml version="1.0"?>
	<!-- Generated by github.com/dustismo/heavyfishdesign -->
	<svg width="20.000in" height="12.000in" viewBox="0.000 0.000 20.000 12.000"
    	xmlns="http://www.w3.org/2000/svg"
		xmlns:xlink="http://www.w3.org/1999/xlink">
	<g transform="translate(0.100 0.100)">
<path id="front_flat_top" d="M 1.807 2.807 L 1.807 2.403 L 1.807 2.307 L 2.007 2.307 L 2.007 2.100 L 1.807 2.100 L 1.807 2.003 L 1.807 1.907 L 2.007 1.907 L 2.007 1.700 L 1.807 1.700 L 1.807 1.604 L 1.807 1.507 L 2.007 1.507 L 2.007 1.300 L 1.807 1.300 L 1.807 1.204 L 1.807 1.107 L 2.007 1.107 L 2.007 0.900 L 1.807 0.900 L 1.807 0.803 L 1.807 0.707 L 2.007 0.707 L 2.007 0.500 L 1.807 0.500 L 1.807 0.404 L 1.807 0.000 L 0.200 0.000 L 0.200 0.404 L 0.200 0.500 L 0.000 0.500 L 0.000 0.707 L 0.200 0.707 L 0.200 0.803 L 0.200 0.900 L 0.000 0.900 L 0.000 1.107 L 0.200 1.107 L 0.200 1.204 L 0.200 1.300 L 0.000 1.300 L 0.000 1.507 L 0.200 1.507 L 0.200 1.604 L 0.200 1.700 L 0.000 1.700 L 0.000 1.907 L 0.200 1.907 L 0.200 2.003 L 0.200 2.100 L 0.000 2.100 L 0.000 2.307 L 0.200 2.307 L 0.200 2.403 L 0.200 2.807 L 0.404 2.807 L 0.500 2.807 L 0.500 3.007 L 0.707 3.007 L 0.707 2.807 L 0.803 2.807 L 0.900 2.807 L 0.900 3.007 L 1.107 3.007 L 1.107 2.807 L 1.204 2.807 L 1.300 2.807 L 1.300 3.007 L 1.507 3.007 L 1.507 2.807 L 1.604 2.807 L 1.807 2.807" style="fill:none;stroke:black;stroke-width:0.012" />
</g>
<g transform="translate(0.100 3.307)">
<path id="front_flat_top" d="M 1.807 2.807 L 1.807 2.403 L 1.807 2.307 L 2.007 2.307 L 2.007 2.100 L 1.807 2.100 L 1.807 2.003 L 1.807 1.907 L 2.007 1.907 L 2.007 1.700 L 1.807 1.700 L 1.807 1.604 L 1.807 1.507 L 2.007 1.507 L 2.007 1.300 L 1.807 1.300 L 1.807 1.204 L 1.807 1.107 L 2.007 1.107 L 2.007 0.900 L 1.807 0.900 L 1.807 0.803 L 1.807 0.707 L 2.007 0.707 L 2.007 0.500 L 1.807 0.500 L 1.807 0.404 L 1.807 0.000 L 0.200 0.000 L 0.200 0.404 L 0.200 0.500 L 0.000 0.500 L 0.000 0.707 L 0.200 0.707 L 0.200 0.803 L 0.200 0.900 L 0.000 0.900 L 0.000 1.107 L 0.200 1.107 L 0.200 1.204 L 0.200 1.300 L 0.000 1.300 L 0.000 1.507 L 0.200 1.507 L 0.200 1.604 L 0.200 1.700 L 0.000 1.700 L 0.000 1.907 L 0.200 1.907 L 0.200 2.003 L 0.200 2.100 L 0.000 2.100 L 0.000 2.307 L 0.200 2.307 L 0.200 2.403 L 0.200 2.807 L 0.404 2.807 L 0.500 2.807 L 0.500 3.007 L 0.707 3.007 L 0.707 2.807 L 0.803 2.807 L 0.900 2.807 L 0.900 3.007 L 1.107 3.007 L 1.107 2.807 L 1.204 2.807 L 1.300 2.807 L 1.300 3.007 L 1.507 3.007 L 1.507 2.807 L 1.604 2.807 L 1.807 2.807" style="fill:none;stroke:black;stroke-width:0.012" />
</g>
<g transform="translate(0.100 6.514)">
<path id="side_flat_top" d="M 1.507 2.807 L 1.604 2.807 L 2.007 2.807 L 2.007 2.403 L 2.007 2.300 L 1.807 2.300 L 1.807 2.107 L 2.007 2.107 L 2.007 2.003 L 2.007 1.900 L 1.807 1.900 L 1.807 1.707 L 2.007 1.707 L 2.007 1.604 L 2.007 1.500 L 1.807 1.500 L 1.807 1.307 L 2.007 1.307 L 2.007 1.204 L 2.007 1.100 L 1.807 1.100 L 1.807 0.907 L 2.007 0.907 L 2.007 0.803 L 2.007 0.700 L 1.807 0.700 L 1.807 0.507 L 2.007 0.507 L 2.007 0.404 L 2.007 0.000 L 0.000 0.000 L 0.000 0.404 L 0.000 0.507 L 0.200 0.507 L 0.200 0.700 L 0.000 0.700 L 0.000 0.803 L 0.000 0.907 L 0.200 0.907 L 0.200 1.100 L 0.000 1.100 L 0.000 1.204 L 0.000 1.307 L 0.200 1.307 L 0.200 1.500 L 0.000 1.500 L 0.000 1.604 L 0.000 1.707 L 0.200 1.707 L 0.200 1.900 L 0.000 1.900 L 0.000 2.003 L 0.000 2.107 L 0.200 2.107 L 0.200 2.300 L 0.000 2.300 L 0.000 2.403 L 0.000 2.807 L 0.404 2.807 L 0.500 2.807 L 0.500 3.007 L 0.707 3.007 L 0.707 2.807 L 0.803 2.807 L 0.900 2.807 L 0.900 3.007 L 1.107 3.007 L 1.107 2.807 L 1.204 2.807 L 1.300 2.807 L 1.300 3.007 L 1.507 3.007 L 1.507 2.807" style="fill:none;stroke:black;stroke-width:0.012" />
</g>
<g transform="translate(2.307 0.100)">
<path id="side_flat_top" d="M 1.507 2.807 L 1.604 2.807 L 2.007 2.807 L 2.007 2.403 L 2.007 2.300 L 1.807 2.300 L 1.807 2.107 L 2.007 2.107 L 2.007 2.003 L 2.007 1.900 L 1.807 1.900 L 1.807 1.707 L 2.007 1.707 L 2.007 1.604 L 2.007 1.500 L 1.807 1.500 L 1.807 1.307 L 2.007 1.307 L 2.007 1.204 L 2.007 1.100 L 1.807 1.100 L 1.807 0.907 L 2.007 0.907 L 2.007 0.803 L 2.007 0.700 L 1.807 0.700 L 1.807 0.507 L 2.007 0.507 L 2.007 0.404 L 2.007 0.000 L 0.000 0.000 L 0.000 0.404 L 0.000 0.507 L 0.200 0.507 L 0.200 0.700 L 0.000 0.700 L 0.000 0.803 L 0.000 0.907 L 0.200 0.907 L 0.200 1.100 L 0.000 1.100 L 0.000 1.204 L 0.000 1.307 L 0.200 1.307 L 0.200 1.500 L 0.000 1.500 L 0.000 1.604 L 0.000 1.707 L 0.200 1.707 L 0.200 1.900 L 0.000 1.900 L 0.000 2.003 L 0.000 2.107 L 0.200 2.107 L 0.200 2.300 L 0.000 2.300 L 0.000 2.403 L 0.000 2.807 L 0.404 2.807 L 0.500 2.807 L 0.500 3.007 L 0.707 3.007 L 0.707 2.807 L 0.803 2.807 L 0.900 2.807 L 0.900 3.007 L 1.107 3.007 L 1.107 2.807 L 1.204 2.807 L 1.300 2.807 L 1.300 3.007 L 1.507 3.007 L 1.507 2.807" style="fill:none;stroke:black;stroke-width:0.012" />
</g>
<g transform="translate(0.100 9.721)">
<path id="bottom" d="M 1.807 1.100 L 1.807 0.907 L 2.007 0.907 L 2.007 0.803 L 2.007 0.700 L 1.807 0.700 L 1.807 0.507 L 2.007 0.507 L 2.007 0.404 L 2.007 0.000 L 1.604 0.000 L 1.500 0.000 L 1.500 0.200 L 1.307 0.200 L 1.307 0.000 L 1.204 0.000 L 1.100 0.000 L 1.100 0.200 L 0.907 0.200 L 0.907 0.000 L 0.803 0.000 L 0.700 0.000 L 0.700 0.200 L 0.507 0.200 L 0.507 0.000 L 0.404 0.000 L 0.000 0.000 L 0.000 0.404 L 0.000 0.507 L 0.200 0.507 L 0.200 0.700 L 0.000 0.700 L 0.000 0.803 L 0.000 0.907 L 0.200 0.907 L 0.200 1.100 L 0.000 1.100 L 0.000 1.204 L 0.000 1.307 L 0.200 1.307 L 0.200 1.500 L 0.000 1.500 L 0.000 1.604 L 0.000 2.007 L 0.404 2.007 L 0.507 2.007 L 0.507 1.807 L 0.700 1.807 L 0.700 2.007 L 0.803 2.007 L 0.907 2.007 L 0.907 1.807 L 1.100 1.807 L 1.100 2.007 L 1.204 2.007 L 1.307 2.007 L 1.307 1.807 L 1.500 1.807 L 1.500 2.007 L 1.604 2.007 L 2.007 2.007 L 2.007 1.604 L 2.007 1.500 L 1.807 1.500 L 1.807 1.307 L 2.007 1.307 L 2.007 1.204 L 2.007 1.100 L 1.807 1.100" style="fill:none;stroke:black;stroke-width:0.012" />
</g>
</svg>
