<?xml version="1.0"?>
	<!-- Generated by github.com/dustismo/heavyfishdesign -->
	<svg width="18.000in" height="11.000in" viewBox="0.000 0.000 18.000 11.000"
    	xmlns="http://www.w3.org/2000/svg"
		xmlns:xlink="http://www.w3.org/1999/xlink">
	<g transform="translate(0.100 0.100)">
<path id="box_front" d="M 2.807 3.057 L 2.807 2.728 L 2.807 2.632 L 3.007 2.632 L 3.007 2.425 L 2.807 2.425 L 2.807 2.329 L 2.807 2.232 L 3.007 2.232 L 3.007 2.025 L 2.807 2.025 L 2.807 1.929 L 2.807 1.832 L 3.007 1.832 L 3.007 1.625 L 2.807 1.625 L 2.807 1.528 L 2.807 1.432 L 3.007 1.432 L 3.007 1.225 L 2.807 1.225 L 2.807 1.129 L 2.807 1.032 L 3.007 1.032 L 3.007 0.825 L 2.807 0.825 L 2.807 0.728 L 2.807 0.632 L 3.007 0.632 L 3.007 0.425 L 2.807 0.425 L 2.807 0.329 L 2.807 0.000 L 1.900 0.000 L 1.900 1.854 C 1.900 2.000 1.820 2.128 1.702 2.197 C 1.644 2.231 1.576 2.250 1.504 2.250 C 1.357 2.250 1.229 2.170 1.160 2.052 C 1.126 1.994 1.107 1.926 1.107 1.854 L 1.107 0.000 L 0.200 0.000 L 0.200 0.329 L 0.200 0.425 L 0.000 0.425 L 0.000 0.632 L 0.200 0.632 L 0.200 0.728 L 0.200 0.825 L 0.000 0.825 L 0.000 1.032 L 0.200 1.032 L 0.200 1.129 L 0.200 1.225 L 0.000 1.225 L 0.000 1.432 L 0.200 1.432 L 0.200 1.528 L 0.200 1.625 L 0.000 1.625 L 0.000 1.832 L 0.200 1.832 L 0.200 1.929 L 0.200 2.025 L 0.000 2.025 L 0.000 2.232 L 0.200 2.232 L 0.200 2.329 L 0.200 2.425 L 0.000 2.425 L 0.000 2.632 L 0.200 2.632 L 0.200 2.728 L 0.200 3.057 L 0.303 3.057 L 0.400 3.057 L 0.400 3.257 L 0.607 3.257 L 0.607 3.057 L 0.703 3.057 L 0.800 3.057 L 0.800 3.257 L 1.007 3.257 L 1.007 3.057 L 1.104 3.057 L 1.200 3.057 L 1.200 3.257 L 1.407 3.257 L 1.407 3.057 L 1.504 3.057 L 1.600 3.057 L 1.600 3.257 L 1.807 3.257 L 1.807 3.057 L 1.903 3.057 L 2.000 3.057 L 2.000 3.257 L 2.207 3.257 L 2.207 3.057 L 2.303 3.057 L 2.400 3.057 L 2.400 3.257 L 2.607 3.257 L 2.607 3.057 L 2.704 3.057 L 2.807 3.057" style="fill:none;stroke:black;stroke-width:0.012" />
</g>
<g transform="translate(0.100 3.557)">
<path id="box_back" d="M 2.807 3.057 L 2.807 2.728 L 2.807 2.632 L 3.007 2.632 L 3.007 2.425 L 2.807 2.425 L 2.807 2.329 L 2.807 2.232 L 3.007 2.232 L 3.007 2.025 L 2.807 2.025 L 2.807 1.929 L 2.807 1.832 L 3.007 1.832 L 3.007 1.625 L 2.807 1.625 L 2.807 1.528 L 2.807 1.432 L 3.007 1.432 L 3.007 1.225 L 2.807 1.225 L 2.807 1.129 L 2.807 1.032 L 3.007 1.032 L 3.007 0.825 L 2.807 0.825 L 2.807 0.728 L 2.807 0.632 L 3.007 0.632 L 3.007 0.425 L 2.807 0.425 L 2.807 0.329 L 2.807 0.000 L 0.200 0.000 L 0.200 0.329 L 0.200 0.425 L 0.000 0.425 L 0.000 0.632 L 0.200 0.632 L 0.200 0.728 L 0.200 0.825 L 0.000 0.825 L 0.000 1.032 L 0.200 1.032 L 0.200 1.129 L 0.200 1.225 L 0.000 1.225 L 0.000 1.432 L 0.200 1.432 L 0.200 1.528 L 0.200 1.625 L 0.000 1.625 L 0.000 1.832 L 0.200 1.832 L 0.200 1.929 L 0.200 2.025 L 0.000 2.025 L 0.000 2.232 L 0.200 2.232 L 0.200 2.329 L 0.200 2.425 L 0.000 2.425 L 0.000 2.632 L 0.200 2.632 L 0.200 2.728 L 0.200 3.057 L 0.303 3.057 L 0.400 3.057 L 0.400 3.257 L 0.607 3.257 L 0.607 3.057 L 0.703 3.057 L 0.800 3.057 L 0.800 3.257 L 1.007 3.257 L 1.007 3.057 L 1.104 3.057 L 1.200 3.057 L 1.200 3.257 L 1.407 3.257 L 1.407 3.057 L 1.504 3.057 L 1.600 3.057 L 1.600 3.257 L 1.807 3.257 L 1.807 3.057 L 1.903 3.057 L 2.000 3.057 L 2.000 3.257 L 2.207 3.257 L 2.207 3.057 L 2.303 3.057 L 2.400 3.057 L 2.400 3.257 L 2.607 3.257 L 2.607 3.057 L 2.704 3.057 L 2.807 3.057" style="fill:none;stroke:black;stroke-width:0.012" />
</g>
<g transform="translate(0.100 7.014)">
<path id="side" d="M 1.407 2.432 L 1.407 2.625 L 1.607 2.625 L 1.607 2.728 L 1.607 3.057 L 1.204 3.057 L 1.107 3.057 L 1.107 3.257 L 0.900 3.257 L 0.900 3.057 L 0.803 3.057 L 0.707 3.057 L 0.707 3.257 L 0.500 3.257 L 0.500 3.057 L 0.404 3.057 L 0.000 3.057 L 0.000 2.728 L 0.000 2.625 L 0.200 2.625 L 0.200 2.432 L 0.000 2.432 L 0.000 2.329 L 0.000 2.225 L 0.200 2.225 L 0.200 2.032 L 0.000 2.032 L 0.000 1.929 L 0.000 1.825 L 0.200 1.825 L 0.200 1.632 L 0.000 1.632 L 0.000 1.528 L 0.000 1.425 L 0.200 1.425 L 0.200 1.232 L 0.000 1.232 L 0.000 1.129 L 0.000 1.025 L 0.200 1.025 L 0.200 0.832 L 0.000 0.832 L 0.000 0.728 L 0.000 0.625 L 0.200 0.625 L 0.200 0.432 L 0.000 0.432 L 0.000 0.329 L 0.000 0.000 L 1.607 0.000 L 1.607 0.329 L 1.607 0.432 L 1.407 0.432 L 1.407 0.625 L 1.607 0.625 L 1.607 0.728 L 1.607 0.832 L 1.407 0.832 L 1.407 1.025 L 1.607 1.025 L 1.607 1.129 L 1.607 1.232 L 1.407 1.232 L 1.407 1.425 L 1.607 1.425 L 1.607 1.528 L 1.607 1.632 L 1.407 1.632 L 1.407 1.825 L 1.607 1.825 L 1.607 1.929 L 1.607 2.032 L 1.407 2.032 L 1.407 2.225 L 1.607 2.225 L 1.607 2.329 L 1.607 2.432 L 1.407 2.432" style="fill:none;stroke:black;stroke-width:0.012" />
</g>
<g transform="translate(3.307 0.100)">
<path id="side" d="M 1.407 2.432 L 1.407 2.625 L 1.607 2.625 L 1.607 2.728 L 1.607 3.057 L 1.204 3.057 L 1.107 3.057 L 1.107 3.257 L 0.900 3.257 L 0.900 3.057 L 0.803 3.057 L 0.707 3.057 L 0.707 3.257 L 0.500 3.257 L 0.500 3.057 L 0.404 3.057 L 0.000 3.057 L 0.000 2.728 L 0.000 2.625 L 0.200 2.625 L 0.200 2.432 L 0.000 2.432 L 0.000 2.329 L 0.000 2.225 L 0.200 2.225 L 0.200 2.032 L 0.000 2.032 L 0.000 1.929 L 0.000 1.825 L 0.200 1.825 L 0.200 1.632 L 0.000 1.632 L 0.000 1.528 L 0.000 1.425 L 0.200 1.425 L 0.200 1.232 L 0.000 1.232 L 0.000 1.129 L 0.000 1.025 L 0.200 1.025 L 0.200 0.832 L 0.000 0.832 L 0.000 0.728 L 0.000 0.625 L 0.200 0.625 L 0.200 0.432 L 0.000 0.432 L 0.000 0.329 L 0.000 0.000 L 1.607 0.000 L 1.607 0.329 L 1.607 0.432 L 1.407 0.432 L 1.407 0.625 L 1.607 0.625 L 1.607 0.728 L 1.607 0.832 L 1.407 0.832 L 1.407 1.025 L 1.607 1.025 L 1.607 1.129 L 1.607 1.232 L 1.407 1.232 L 1.407 1.425 L 1.607 1.425 L 1.607 1.528 L 1.607 1.632 L 1.407 1.632 L 1.407 1.825 L 1.607 1.825 L 1.607 1.929 L 1.607 2.032 L 1.407 2.032 L 1.407 2.225 L 1.607 2.225 L 1.607 2.329 L 1.607 2.432 L 1.407 2.432" style="fill:none;stroke:black;stroke-width:0.012" />
</g>
<g transform="rotate(90 4.914 3.557) translate(4.914 3.557)">
<path id="bottom" d="M 2.200 1.407 L 2.007 1.407 L 2.007 1.607 L 1.903 1.607 L 1.800 1.607 L 1.800 1.407 L 1.607 1.407 L 1.607 1.607 L 1.504 1.607 L 1.400 1.607 L 1.400 1.407 L 1.207 1.407 L 1.207 1.607 L 1.104 1.607 L 1.000 1.607 L 1.000 1.407 L 0.807 1.407 L 0.807 1.607 L 0.703 1.607 L 0.600 1.607 L 0.600 1.407 L 0.407 1.407 L 0.407 1.607 L 0.303 1.607 L 0.000 1.607 L 0.000 1.204 L 0.000 1.100 L 0.200 1.100 L 0.200 0.907 L 0.000 0.907 L 0.000 0.803 L 0.000 0.700 L 0.200 0.700 L 0.200 0.507 L 0.000 0.507 L 0.000 0.404 L 0.000 0.000 L 0.303 0.000 L 0.407 0.000 L 0.407 0.200 L 0.600 0.200 L 0.600 0.000 L 0.703 0.000 L 0.807 0.000 L 0.807 0.200 L 1.000 0.200 L 1.000 0.000 L 1.104 0.000 L 1.207 0.000 L 1.207 0.200 L 1.400 0.200 L 1.400 0.000 L 1.504 0.000 L 1.607 0.000 L 1.607 0.200 L 1.800 0.200 L 1.800 0.000 L 1.903 0.000 L 2.007 0.000 L 2.007 0.200 L 2.200 0.200 L 2.200 0.000 L 2.303 0.000 L 2.407 0.000 L 2.407 0.200 L 2.600 0.200 L 2.600 0.000 L 2.704 0.000 L 3.007 0.000 L 3.007 0.404 L 3.007 0.507 L 2.807 0.507 L 2.807 0.700 L 3.007 0.700 L 3.007 0.803 L 3.007 0.907 L 2.807 0.907 L 2.807 1.100 L 3.007 1.100 L 3.007 1.204 L 3.007 1.607 L 2.704 1.607 L 2.600 1.607 L 2.600 1.407 L 2.407 1.407 L 2.407 1.607 L 2.303 1.607 L 2.200 1.607 L 2.200 1.407" style="fill:none;stroke:black;stroke-width:0.012" />
</g>
</svg>
