<?xml version="1.0"?>
	<!-- Generated by github.com/dustismo/heavyfishdesign -->
	<svg width="20.000in" height="12.000in" viewBox="0.000 0.000 20.000 12.000"
    	xmlns="http://www.w3.org/2000/svg"
		xmlns:xlink="http://www.w3.org/1999/xlink">
	<g transform="translate(0.100 0.100)">
<path id="WPjwjpZlWqgmJVyX" d="M 0.375 0.250 C 0.582 0.250 0.750 0.418 0.750 0.625 C 0.750 0.832 0.582 1.000 0.375 1.000 C 0.168 1.000 0.000 0.832 0.000 0.625 C 0.000 0.418 0.168 0.250 0.375 0.250 M 0.375 1.300 C 0.582 1.300 0.750 1.468 0.750 1.675 C 0.750 1.882 0.582 2.050 0.375 2.050 C 0.168 2.050 0.000 1.882 0.000 1.675 C 0.000 1.468 0.168 1.300 0.375 1.300 M 1.425 0.000 C 1.632 0.000 1.800 0.168 1.800 0.375 C 1.800 0.582 1.632 0.750 1.425 0.750 C 1.218 0.750 1.050 0.582 1.050 0.375 C 1.050 0.168 1.218 0.000 1.425 0.000 M 1.425 1.050 C 1.632 1.050 1.800 1.218 1.800 1.425 C 1.800 1.632 1.632 1.800 1.425 1.800 C 1.218 1.800 1.050 1.632 1.050 1.425 C 1.050 1.218 1.218 1.050 1.425 1.050 M 2.475 0.000 C 2.682 0.000 2.850 0.168 2.850 0.375 C 2.850 0.582 2.682 0.750 2.475 0.750 C 2.268 0.750 2.100 0.582 2.100 0.375 C 2.100 0.168 2.268 0.000 2.475 0.000 M 2.475 1.050 C 2.682 1.050 2.850 1.218 2.850 1.425 C 2.850 1.632 2.682 1.800 2.475 1.800 C 2.268 1.800 2.100 1.632 2.100 1.425 C 2.100 1.218 2.268 1.050 2.475 1.050" style="fill:none;stroke:black;stroke-width:0.012" />
</g>
</svg>
