<?xml version="1.0"?>
	<!-- Generated by github.com/dustismo/heavyfishdesign -->
	<svg width="18.000in" height="11.000in" viewBox="0.000 0.000 18.000 11.000"
    	xmlns="http://www.w3.org/2000/svg"
		xmlns:xlink="http://www.w3.org/1999/xlink">
	<g transform="translate(0.100 0.100)">
<path id="screen_panel" d="M 10.757 7.318 L 10.757 7.415 L 10.757 7.830 L 0.250 7.830 L 0.250 7.415 L 0.250 7.318 L 0.000 7.318 L 0.000 7.011 L 0.250 7.011 L 0.250 6.915 L 0.250 6.818 L 0.000 6.818 L 0.000 6.511 L 0.250 6.511 L 0.250 6.415 L 0.250 6.318 L 0.000 6.318 L 0.000 6.011 L 0.250 6.011 L 0.250 5.915 L 0.250 5.818 L 0.000 5.818 L 0.000 5.511 L 0.250 5.511 L 0.250 5.415 L 0.250 5.318 L 0.000 5.318 L 0.000 5.011 L 0.250 5.011 L 0.250 4.915 L 0.250 4.818 L 0.000 4.818 L 0.000 4.511 L 0.250 4.511 L 0.250 4.415 L 0.250 4.318 L 0.000 4.318 L 0.000 4.011 L 0.250 4.011 L 0.250 3.915 L 0.250 3.818 L 0.000 3.818 L 0.000 3.511 L 0.250 3.511 L 0.250 3.415 L 0.250 3.318 L 0.000 3.318 L 0.000 3.011 L 0.250 3.011 L 0.250 2.915 L 0.250 2.818 L 0.000 2.818 L 0.000 2.511 L 0.250 2.511 L 0.250 2.415 L 0.250 2.318 L 0.000 2.318 L 0.000 2.011 L 0.250 2.011 L 0.250 1.915 L 0.250 1.818 L 0.000 1.818 L 0.000 1.511 L 0.250 1.511 L 0.250 1.415 L 0.250 1.318 L 0.000 1.318 L 0.000 1.011 L 0.250 1.011 L 0.250 0.915 L 0.250 0.818 L 0.000 0.818 L 0.000 0.511 L 0.250 0.511 L 0.250 0.415 L 0.250 0.000 L 10.757 0.000 L 10.757 0.415 L 10.757 0.511 L 11.007 0.511 L 11.007 0.818 L 10.757 0.818 L 10.757 0.915 L 10.757 1.011 L 11.007 1.011 L 11.007 1.318 L 10.757 1.318 L 10.757 1.415 L 10.757 1.511 L 11.007 1.511 L 11.007 1.818 L 10.757 1.818 L 10.757 1.915 L 10.757 2.011 L 11.007 2.011 L 11.007 2.318 L 10.757 2.318 L 10.757 2.415 L 10.757 2.511 L 11.007 2.511 L 11.007 2.818 L 10.757 2.818 L 10.757 2.915 L 10.757 3.011 L 11.007 3.011 L 11.007 3.318 L 10.757 3.318 L 10.757 3.415 L 10.757 3.511 L 11.007 3.511 L 11.007 3.818 L 10.757 3.818 L 10.757 3.915 L 10.757 4.011 L 11.007 4.011 L 11.007 4.318 L 10.757 4.318 L 10.757 4.415 L 10.757 4.511 L 11.007 4.511 L 11.007 4.818 L 10.757 4.818 L 10.757 4.915 L 10.757 5.011 L 11.007 5.011 L 11.007 5.318 L 10.757 5.318 L 10.757 5.415 L 10.757 5.511 L 11.007 5.511 L 11.007 5.818 L 10.757 5.818 L 10.757 5.915 L 10.757 6.011 L 11.007 6.011 L 11.007 6.318 L 10.757 6.318 L 10.757 6.415 L 10.757 6.511 L 11.007 6.511 L 11.007 6.818 L 10.757 6.818 L 10.757 6.915 L 10.757 7.011 L 11.007 7.011 L 11.007 7.318 L 10.757 7.318 M 1.129 1.165 L 9.879 1.165 L 9.879 6.665 L 1.129 6.665 L 1.129 1.165 M 1.079 0.303 C 1.120 0.303 1.154 0.337 1.154 0.378 C 1.154 0.420 1.120 0.453 1.079 0.453 C 1.037 0.453 1.004 0.420 1.004 0.378 C 1.004 0.337 1.037 0.303 1.079 0.303 M 9.929 0.303 C 9.970 0.303 10.004 0.337 10.004 0.378 C 10.004 0.420 9.970 0.453 9.929 0.453 C 9.887 0.453 9.854 0.420 9.854 0.378 C 9.854 0.337 9.887 0.303 9.929 0.303 M 9.929 7.376 C 9.970 7.376 10.004 7.410 10.004 7.451 C 10.004 7.493 9.970 7.526 9.929 7.526 C 9.887 7.526 9.854 7.493 9.854 7.451 C 9.854 7.410 9.887 7.376 9.929 7.376 M 1.079 7.376 C 1.120 7.376 1.154 7.410 1.154 7.451 C 1.154 7.493 1.120 7.526 1.079 7.526 C 1.037 7.526 1.004 7.493 1.004 7.451 C 1.004 7.410 1.037 7.376 1.079 7.376" style="fill:none;stroke:black;stroke-width:0.012" />
</g>
</svg>
