<?xml version="1.0"?>
	<!-- Generated by github.com/dustismo/heavyfishdesign -->
	<svg width="18.000in" height="11.000in" viewBox="0.000 0.000 18.000 11.000"
    	xmlns="http://www.w3.org/2000/svg"
		xmlns:xlink="http://www.w3.org/1999/xlink">
	<g transform="translate(0.100 0.100)">
<path id="bottom" d="M 10.757 10.257 L 10.757 10.004 L 10.757 9.907 L 11.007 9.907 L 11.007 9.600 L 10.757 9.600 L 10.757 9.504 L 10.757 9.407 L 11.007 9.407 L 11.007 9.100 L 10.757 9.100 L 10.757 9.004 L 10.757 8.907 L 11.007 8.907 L 11.007 8.600 L 10.757 8.600 L 10.757 8.504 L 10.757 8.407 L 11.007 8.407 L 11.007 8.100 L 10.757 8.100 L 10.757 8.004 L 10.757 7.907 L 11.007 7.907 L 11.007 7.600 L 10.757 7.600 L 10.757 7.503 L 10.757 7.407 L 11.007 7.407 L 11.007 7.100 L 10.757 7.100 L 10.757 7.003 L 10.757 6.907 L 11.007 6.907 L 11.007 6.600 L 10.757 6.600 L 10.757 6.503 L 10.757 6.407 L 11.007 6.407 L 11.007 6.100 L 10.757 6.100 L 10.757 6.003 L 10.757 5.907 L 11.007 5.907 L 11.007 5.600 L 10.757 5.600 L 10.757 5.503 L 10.757 5.407 L 11.007 5.407 L 11.007 5.100 L 10.757 5.100 L 10.757 5.003 L 10.757 4.907 L 11.007 4.907 L 11.007 4.600 L 10.757 4.600 L 10.757 4.503 L 10.757 4.407 L 11.007 4.407 L 11.007 4.100 L 10.757 4.100 L 10.757 4.003 L 10.757 3.907 L 11.007 3.907 L 11.007 3.600 L 10.757 3.600 L 10.757 3.503 L 10.757 3.407 L 11.007 3.407 L 11.007 3.100 L 10.757 3.100 L 10.757 3.003 L 10.757 2.907 L 11.007 2.907 L 11.007 2.600 L 10.757 2.600 L 10.757 2.503 L 10.757 2.407 L 11.007 2.407 L 11.007 2.100 L 10.757 2.100 L 10.757 2.003 L 10.757 1.907 L 11.007 1.907 L 11.007 1.600 L 10.757 1.600 L 10.757 1.504 L 10.757 1.407 L 11.007 1.407 L 11.007 1.100 L 10.757 1.100 L 10.757 1.004 L 10.757 0.907 L 11.007 0.907 L 11.007 0.600 L 10.757 0.600 L 10.757 0.503 L 10.757 0.000 L 10.504 0.000 L 10.400 0.000 L 10.400 0.250 L 10.107 0.250 L 10.107 0.000 L 10.004 0.000 L 9.900 0.000 L 9.900 0.250 L 9.607 0.250 L 9.607 0.000 L 9.504 0.000 L 9.400 0.000 L 9.400 0.250 L 9.107 0.250 L 9.107 0.000 L 9.004 0.000 L 8.900 0.000 L 8.900 0.250 L 8.607 0.250 L 8.607 0.000 L 8.504 0.000 L 8.400 0.000 L 8.400 0.250 L 8.107 0.250 L 8.107 0.000 L 8.004 0.000 L 7.900 0.000 L 7.900 0.250 L 7.607 0.250 L 7.607 0.000 L 7.503 0.000 L 7.400 0.000 L 7.400 0.250 L 7.107 0.250 L 7.107 0.000 L 7.003 0.000 L 6.900 0.000 L 6.900 0.250 L 6.607 0.250 L 6.607 0.000 L 6.503 0.000 L 6.400 0.000 L 6.400 0.250 L 6.107 0.250 L 6.107 0.000 L 6.003 0.000 L 5.900 0.000 L 5.900 0.250 L 5.607 0.250 L 5.607 0.000 L 5.503 0.000 L 5.400 0.000 L 5.400 0.250 L 5.107 0.250 L 5.107 0.000 L 5.003 0.000 L 4.900 0.000 L 4.900 0.250 L 4.607 0.250 L 4.607 0.000 L 4.503 0.000 L 4.400 0.000 L 4.400 0.250 L 4.107 0.250 L 4.107 0.000 L 4.003 0.000 L 3.900 0.000 L 3.900 0.250 L 3.607 0.250 L 3.607 0.000 L 3.503 0.000 L 3.400 0.000 L 3.400 0.250 L 3.107 0.250 L 3.107 0.000 L 3.003 0.000 L 2.900 0.000 L 2.900 0.250 L 2.607 0.250 L 2.607 0.000 L 2.503 0.000 L 2.400 0.000 L 2.400 0.250 L 2.107 0.250 L 2.107 0.000 L 2.003 0.000 L 1.900 0.000 L 1.900 0.250 L 1.607 0.250 L 1.607 0.000 L 1.504 0.000 L 1.400 0.000 L 1.400 0.250 L 1.107 0.250 L 1.107 0.000 L 1.004 0.000 L 0.900 0.000 L 0.900 0.250 L 0.607 0.250 L 0.607 0.000 L 0.503 0.000 L 0.250 0.000 L 0.250 0.503 L 0.250 0.600 L 0.000 0.600 L 0.000 0.907 L 0.250 0.907 L 0.250 1.004 L 0.250 1.100 L 0.000 1.100 L 0.000 1.407 L 0.250 1.407 L 0.250 1.504 L 0.250 1.600 L 0.000 1.600 L 0.000 1.907 L 0.250 1.907 L 0.250 2.003 L 0.250 2.100 L 0.000 2.100 L 0.000 2.407 L 0.250 2.407 L 0.250 2.503 L 0.250 2.600 L 0.000 2.600 L 0.000 2.907 L 0.250 2.907 L 0.250 3.003 L 0.250 3.100 L 0.000 3.100 L 0.000 3.407 L 0.250 3.407 L 0.250 3.503 L 0.250 3.600 L 0.000 3.600 L 0.000 3.907 L 0.250 3.907 L 0.250 4.003 L 0.250 4.100 L 0.000 4.100 L 0.000 4.407 L 0.250 4.407 L 0.250 4.503 L 0.250 4.600 L 0.000 4.600 L 0.000 4.907 L 0.250 4.907 L 0.250 5.003 L 0.250 5.100 L 0.000 5.100 L 0.000 5.407 L 0.250 5.407 L 0.250 5.503 L 0.250 5.600 L 0.000 5.600 L 0.000 5.907 L 0.250 5.907 L 0.250 6.003 L 0.250 6.100 L 0.000 6.100 L 0.000 6.407 L 0.250 6.407 L 0.250 6.503 L 0.250 6.600 L 0.000 6.600 L 0.000 6.907 L 0.250 6.907 L 0.250 7.003 L 0.250 7.100 L 0.000 7.100 L 0.000 7.407 L 0.250 7.407 L 0.250 7.503 L 0.250 7.600 L 0.000 7.600 L 0.000 7.907 L 0.250 7.907 L 0.250 8.004 L 0.250 8.100 L 0.000 8.100 L 0.000 8.407 L 0.250 8.407 L 0.250 8.504 L 0.250 8.600 L 0.000 8.600 L 0.000 8.907 L 0.250 8.907 L 0.250 9.004 L 0.250 9.100 L 0.000 9.100 L 0.000 9.407 L 0.250 9.407 L 0.250 9.504 L 0.250 9.600 L 0.000 9.600 L 0.000 9.907 L 0.250 9.907 L 0.250 10.004 L 0.250 10.257 L 0.503 10.257 L 0.600 10.257 L 0.600 10.507 L 0.907 10.507 L 0.907 10.257 L 1.004 10.257 L 1.100 10.257 L 1.100 10.507 L 1.407 10.507 L 1.407 10.257 L 1.504 10.257 L 1.600 10.257 L 1.600 10.507 L 1.907 10.507 L 1.907 10.257 L 2.003 10.257 L 2.100 10.257 L 2.100 10.507 L 2.407 10.507 L 2.407 10.257 L 2.503 10.257 L 2.600 10.257 L 2.600 10.507 L 2.907 10.507 L 2.907 10.257 L 3.003 10.257 L 3.100 10.257 L 3.100 10.507 L 3.407 10.507 L 3.407 10.257 L 3.503 10.257 L 3.600 10.257 L 3.600 10.507 L 3.907 10.507 L 3.907 10.257 L 4.003 10.257 L 4.100 10.257 L 4.100 10.507 L 4.407 10.507 L 4.407 10.257 L 4.503 10.257 L 4.600 10.257 L 4.600 10.507 L 4.907 10.507 L 4.907 10.257 L 5.003 10.257 L 5.100 10.257 L 5.100 10.507 L 5.407 10.507 L 5.407 10.257 L 5.503 10.257 L 5.600 10.257 L 5.600 10.507 L 5.907 10.507 L 5.907 10.257 L 6.003 10.257 L 6.100 10.257 L 6.100 10.507 L 6.407 10.507 L 6.407 10.257 L 6.503 10.257 L 6.600 10.257 L 6.600 10.507 L 6.907 10.507 L 6.907 10.257 L 7.003 10.257 L 7.100 10.257 L 7.100 10.507 L 7.407 10.507 L 7.407 10.257 L 7.503 10.257 L 7.600 10.257 L 7.600 10.507 L 7.907 10.507 L 7.907 10.257 L 8.004 10.257 L 8.100 10.257 L 8.100 10.507 L 8.407 10.507 L 8.407 10.257 L 8.504 10.257 L 8.600 10.257 L 8.600 10.507 L 8.907 10.507 L 8.907 10.257 L 9.004 10.257 L 9.100 10.257 L 9.100 10.507 L 9.407 10.507 L 9.407 10.257 L 9.504 10.257 L 9.600 10.257 L 9.600 10.507 L 9.907 10.507 L 9.907 10.257 L 10.004 10.257 L 10.100 10.257 L 10.100 10.507 L 10.407 10.507 L 10.407 10.257 L 10.504 10.257 L 10.757 10.257" style="fill:none;stroke:black;stroke-width:0.012" />
</g>
</svg>
