<?xml version="1.0"?>
	<!-- Generated by github.com/dustismo/heavyfishdesign -->
	<svg width="18.000in" height="11.000in" viewBox="0.000 0.000 18.000 11.000"
    	xmlns="http://www.w3.org/2000/svg"
		xmlns:xlink="http://www.w3.org/1999/xlink">
	<g transform="rotate(90 14.143 0.100) translate(14.143 0.100)">
<path id="right_side_panel" d="M 3.935 2.574 L 3.645 2.652 L 3.580 2.411 L 3.870 2.333 L 3.935 2.574 M 3.452 2.704 L 3.162 2.781 L 3.097 2.540 L 3.387 2.462 L 3.452 2.704 M 2.757 3.417 L 2.859 3.699 L 2.624 3.785 L 2.522 3.503 L 2.757 3.417 M 2.928 3.887 L 3.030 4.169 L 2.795 4.255 L 2.693 3.973 L 2.928 3.887 M 3.098 4.357 L 3.201 4.639 L 2.966 4.725 L 2.864 4.443 L 3.098 4.357 M 3.269 4.827 L 3.372 5.109 L 3.137 5.195 L 3.034 4.913 L 3.269 4.827 M 3.440 5.297 L 3.542 5.579 L 3.307 5.665 L 3.205 5.383 L 3.440 5.297 M 3.611 5.767 L 3.713 6.049 L 3.478 6.135 L 3.376 5.853 L 3.611 5.767 M 3.781 6.237 L 3.884 6.519 L 3.649 6.605 L 3.546 6.323 L 3.781 6.237 M 3.952 6.707 L 4.055 6.989 L 3.820 7.074 L 3.717 6.793 L 3.952 6.707 M 4.123 7.177 L 4.225 7.459 L 3.990 7.544 L 3.888 7.262 L 4.123 7.177 M 4.294 7.647 L 4.396 7.929 L 4.161 8.014 L 4.059 7.732 L 4.294 7.647 M 4.464 8.117 L 4.567 8.399 L 4.332 8.484 L 4.229 8.202 L 4.464 8.117 M 4.635 8.587 L 4.737 8.869 L 4.502 8.954 L 4.400 8.672 L 4.635 8.587 M 4.806 9.057 L 4.908 9.339 L 4.673 9.424 L 4.571 9.142 L 4.806 9.057 M 4.976 9.527 L 5.079 9.809 L 4.844 9.894 L 4.741 9.612 L 4.976 9.527 M 5.750 10.361 L 6.047 10.403 L 6.012 10.650 L 5.715 10.608 L 5.750 10.361 M 6.245 10.431 L 6.542 10.474 L 6.507 10.721 L 6.210 10.679 L 6.245 10.431 M 6.740 10.502 L 7.037 10.544 L 7.002 10.792 L 6.705 10.749 L 6.740 10.502 M 7.235 10.573 L 7.532 10.615 L 7.497 10.863 L 7.200 10.820 L 7.235 10.573 M 7.730 10.643 L 8.027 10.686 L 7.992 10.933 L 7.695 10.891 L 7.730 10.643 M 8.225 10.714 L 8.522 10.756 L 8.487 11.004 L 8.190 10.962 L 8.225 10.714 M 8.720 10.785 L 9.017 10.827 L 8.982 11.075 L 8.685 11.032 L 8.720 10.785 M 9.215 10.855 L 9.512 10.898 L 9.477 11.145 L 9.180 11.103 L 9.215 10.855 M 9.710 10.926 L 10.007 10.969 L 9.972 11.216 L 9.675 11.174 L 9.710 10.926 M 4.027 0.586 L 3.785 0.651 L 3.861 0.934 L 4.103 0.869 L 4.129 0.969 L 4.156 1.069 L 3.915 1.134 L 3.991 1.417 L 4.232 1.352 L 4.259 1.452 L 4.286 1.552 L 4.044 1.617 L 4.120 1.900 L 4.361 1.835 L 4.388 1.935 L 4.518 2.418 L 4.517 2.421 C 4.517 2.421 4.386 2.709 4.225 2.997 C 4.175 3.086 4.122 3.175 4.069 3.255 C 4.029 3.315 3.990 3.370 3.952 3.417 C 3.697 3.731 3.488 4.037 3.470 4.242 C 3.467 4.280 3.465 4.318 3.465 4.357 C 3.465 4.537 3.503 4.739 3.601 4.994 C 3.629 5.065 3.985 5.986 4.358 6.907 C 4.379 6.959 4.400 7.010 4.421 7.062 C 4.749 7.867 5.077 8.635 5.196 8.794 C 5.333 8.978 5.666 9.155 5.999 9.308 C 6.329 9.460 6.660 9.589 6.800 9.678 C 6.856 9.714 6.931 9.776 7.016 9.850 C 7.084 9.908 7.158 9.973 7.235 10.038 C 7.304 10.096 7.375 10.154 7.447 10.207 C 7.536 10.273 7.624 10.330 7.708 10.370 C 7.803 10.416 8.381 10.556 8.987 10.696 C 9.025 10.704 9.062 10.713 9.100 10.721 C 9.742 10.869 10.385 11.010 10.491 11.033 C 10.497 11.035 10.502 11.036 10.504 11.036 L 10.507 11.040 L 10.507 11.540 L 10.507 11.643 L 10.257 11.643 L 10.257 11.936 L 10.507 11.936 L 10.507 12.040 L 10.507 12.143 L 10.257 12.143 L 10.257 12.436 L 10.507 12.436 L 10.507 12.540 L 10.507 12.643 L 10.257 12.643 L 10.257 12.936 L 10.507 12.936 L 10.507 13.040 L 10.507 13.143 L 10.257 13.143 L 10.257 13.436 L 10.507 13.436 L 10.507 13.540 L 10.507 14.043 L 10.004 14.043 L 9.900 14.043 L 9.900 13.793 L 9.607 13.793 L 9.607 14.043 L 9.504 14.043 L 9.400 14.043 L 9.400 13.793 L 9.107 13.793 L 9.107 14.043 L 9.004 14.043 L 8.900 14.043 L 8.900 13.793 L 8.607 13.793 L 8.607 14.043 L 8.504 14.043 L 8.400 14.043 L 8.400 13.793 L 8.107 13.793 L 8.107 14.043 L 8.004 14.043 L 7.900 14.043 L 7.900 13.793 L 7.607 13.793 L 7.607 14.043 L 7.503 14.043 L 7.400 14.043 L 7.400 13.793 L 7.107 13.793 L 7.107 14.043 L 7.003 14.043 L 6.900 14.043 L 6.900 13.793 L 6.607 13.793 L 6.607 14.043 L 6.503 14.043 L 6.400 14.043 L 6.400 13.793 L 6.107 13.793 L 6.107 14.043 L 6.003 14.043 L 5.900 14.043 L 5.900 13.793 L 5.607 13.793 L 5.607 14.043 L 5.503 14.043 L 5.400 14.043 L 5.400 13.793 L 5.107 13.793 L 5.107 14.043 L 5.003 14.043 L 4.900 14.043 L 4.900 13.793 L 4.607 13.793 L 4.607 14.043 L 4.503 14.043 L 4.400 14.043 L 4.400 13.793 L 4.107 13.793 L 4.107 14.043 L 4.003 14.043 L 3.900 14.043 L 3.900 13.793 L 3.607 13.793 L 3.607 14.043 L 3.503 14.043 L 3.400 14.043 L 3.400 13.793 L 3.107 13.793 L 3.107 14.043 L 3.003 14.043 L 2.900 14.043 L 2.900 13.793 L 2.607 13.793 L 2.607 14.043 L 2.503 14.043 L 2.400 14.043 L 2.400 13.793 L 2.107 13.793 L 2.107 14.043 L 2.003 14.043 L 1.900 14.043 L 1.900 13.793 L 1.607 13.793 L 1.607 14.043 L 1.504 14.043 L 1.400 14.043 L 1.400 13.793 L 1.107 13.793 L 1.107 14.043 L 1.004 14.043 L 0.900 14.043 L 0.900 13.793 L 0.607 13.793 L 0.607 14.043 L 0.503 14.043 L 0.000 14.043 L 0.000 13.540 L 0.000 13.436 L 0.250 13.436 L 0.250 13.143 L 0.000 13.143 L 0.000 13.040 L 0.000 12.936 L 0.250 12.936 L 0.250 12.643 L 0.000 12.643 L 0.000 12.540 L 0.000 12.436 L 0.250 12.436 L 0.250 12.143 L 0.000 12.143 L 0.000 12.040 L 0.000 11.936 L 0.250 11.936 L 0.250 11.643 L 0.000 11.643 L 0.000 11.540 L 0.000 11.436 L 0.250 11.436 L 0.250 11.143 L 0.000 11.143 L 0.000 11.040 L 0.000 10.936 L 0.250 10.936 L 0.250 10.643 L 0.000 10.643 L 0.000 10.540 L 0.000 10.436 L 0.250 10.436 L 0.250 10.143 L 0.000 10.143 L 0.000 10.040 L 0.000 9.936 L 0.250 9.936 L 0.250 9.643 L 0.000 9.643 L 0.000 9.540 L 0.000 9.436 L 0.250 9.436 L 0.250 9.143 L 0.000 9.143 L 0.000 9.040 L 0.000 8.936 L 0.250 8.936 L 0.250 8.643 L 0.000 8.643 L 0.000 8.540 L 0.000 8.436 L 0.250 8.436 L 0.250 8.143 L 0.000 8.143 L 0.000 8.040 L 0.000 7.936 L 0.250 7.936 L 0.250 7.643 L 0.000 7.643 L 0.000 7.540 L 0.000 7.436 L 0.250 7.436 L 0.250 7.143 L 0.000 7.143 L 0.000 7.040 L 0.000 6.936 L 0.250 6.936 L 0.250 6.643 L 0.000 6.643 L 0.000 6.540 L 0.000 6.436 L 0.250 6.436 L 0.250 6.143 L 0.000 6.143 L 0.000 6.040 L 0.000 5.936 L 0.250 5.936 L 0.250 5.643 L 0.000 5.643 L 0.000 5.540 L 0.000 5.436 L 0.250 5.436 L 0.250 5.143 L 0.000 5.143 L 0.000 5.040 L 0.000 4.936 L 0.250 4.936 L 0.250 4.643 L 0.000 4.643 L 0.000 4.540 L 0.000 4.436 L 0.250 4.436 L 0.250 4.143 L 0.000 4.143 L 0.000 4.040 L 0.000 3.936 L 0.250 3.936 L 0.250 3.643 L 0.000 3.643 L 0.000 3.540 L 0.000 3.436 L 0.250 3.436 L 0.250 3.143 L 0.000 3.143 L 0.000 3.040 L 0.000 2.936 L 0.250 2.936 L 0.250 2.643 L 0.000 2.643 L 0.000 2.540 L 0.000 2.436 L 0.250 2.436 L 0.250 2.143 L 0.000 2.143 L 0.000 2.040 L 0.000 1.936 L 0.250 1.936 L 0.250 1.643 L 0.000 1.643 L 0.000 1.540 L 0.000 1.037 L 0.486 0.907 L 0.586 0.880 L 0.650 1.121 L 0.933 1.046 L 0.869 0.804 L 0.969 0.777 L 1.068 0.751 L 1.133 0.992 L 1.416 0.916 L 1.352 0.675 L 1.451 0.648 L 1.551 0.621 L 1.616 0.863 L 1.899 0.787 L 1.834 0.545 L 1.934 0.519 L 2.034 0.492 L 2.099 0.733 L 2.382 0.657 L 2.317 0.416 L 2.417 0.389 L 2.517 0.362 L 2.582 0.604 L 2.865 0.528 L 2.800 0.287 L 2.900 0.260 L 3.000 0.233 L 3.065 0.474 L 3.348 0.399 L 3.283 0.157 L 3.383 0.130 L 3.870 0.000 L 4.000 0.486 L 4.027 0.586 M 5.841 11.703 C 6.058 11.703 6.247 11.820 6.349 11.996 C 6.399 12.082 6.428 12.183 6.428 12.290 C 6.428 12.507 6.310 12.696 6.134 12.798 C 6.048 12.848 5.948 12.877 5.841 12.877 C 5.623 12.877 5.434 12.759 5.332 12.583 C 5.282 12.497 5.253 12.397 5.253 12.290 C 5.253 12.072 5.371 11.883 5.547 11.781 C 5.633 11.731 5.734 11.703 5.841 11.703 M 1.692 12.228 C 1.807 12.228 1.908 12.291 1.962 12.384 C 1.988 12.430 2.003 12.483 2.003 12.540 C 2.003 12.655 1.941 12.755 1.848 12.809 C 1.802 12.836 1.749 12.851 1.692 12.851 C 1.577 12.851 1.476 12.788 1.422 12.695 C 1.396 12.650 1.381 12.596 1.381 12.540 C 1.381 12.424 1.443 12.324 1.536 12.270 C 1.582 12.243 1.635 12.228 1.692 12.228" style="fill:none;stroke:black;stroke-width:0.012" />
</g>
</svg>
