<?xml version="1.0"?>
	<!-- Generated by github.com/dustismo/heavyfishdesign -->
	<svg width="18.000in" height="11.000in" viewBox="0.000 0.000 18.000 11.000"
    	xmlns="http://www.w3.org/2000/svg"
		xmlns:xlink="http://www.w3.org/1999/xlink">
	<g transform="translate(0.000 0.000)">
<path id="back_panel" d="M 10.757 12.757 L 10.757 12.504 L 10.757 12.407 L 11.007 12.407 L 11.007 12.100 L 10.757 12.100 L 10.757 12.004 L 10.757 11.907 L 11.007 11.907 L 11.007 11.600 L 10.757 11.600 L 10.757 11.504 L 10.757 11.407 L 11.007 11.407 L 11.007 11.100 L 10.757 11.100 L 10.757 11.004 L 10.757 10.907 L 11.007 10.907 L 11.007 10.600 L 10.757 10.600 L 10.757 10.504 L 10.757 10.407 L 11.007 10.407 L 11.007 10.100 L 10.757 10.100 L 10.757 10.004 L 10.757 9.907 L 11.007 9.907 L 11.007 9.600 L 10.757 9.600 L 10.757 9.504 L 10.757 9.407 L 11.007 9.407 L 11.007 9.100 L 10.757 9.100 L 10.757 9.004 L 10.757 8.907 L 11.007 8.907 L 11.007 8.600 L 10.757 8.600 L 10.757 8.504 L 10.757 8.407 L 11.007 8.407 L 11.007 8.100 L 10.757 8.100 L 10.757 8.004 L 10.757 7.907 L 11.007 7.907 L 11.007 7.600 L 10.757 7.600 L 10.757 7.503 L 10.757 7.407 L 11.007 7.407 L 11.007 7.100 L 10.757 7.100 L 10.757 7.003 L 10.757 6.907 L 11.007 6.907 L 11.007 6.600 L 10.757 6.600 L 10.757 6.503 L 10.757 6.407 L 11.007 6.407 L 11.007 6.100 L 10.757 6.100 L 10.757 6.003 L 10.757 5.907 L 11.007 5.907 L 11.007 5.600 L 10.757 5.600 L 10.757 5.503 L 10.757 5.407 L 11.007 5.407 L 11.007 5.100 L 10.757 5.100 L 10.757 5.003 L 10.757 4.907 L 11.007 4.907 L 11.007 4.600 L 10.757 4.600 L 10.757 4.503 L 10.757 4.407 L 11.007 4.407 L 11.007 4.100 L 10.757 4.100 L 10.757 4.003 L 10.757 3.907 L 11.007 3.907 L 11.007 3.600 L 10.757 3.600 L 10.757 3.503 L 10.757 3.407 L 11.007 3.407 L 11.007 3.100 L 10.757 3.100 L 10.757 3.003 L 10.757 2.907 L 11.007 2.907 L 11.007 2.600 L 10.757 2.600 L 10.757 2.503 L 10.757 2.407 L 11.007 2.407 L 11.007 2.100 L 10.757 2.100 L 10.757 2.003 L 10.757 1.907 L 11.007 1.907 L 11.007 1.600 L 10.757 1.600 L 10.757 1.504 L 10.757 1.407 L 11.007 1.407 L 11.007 1.100 L 10.757 1.100 L 10.757 1.004 L 10.757 0.907 L 11.007 0.907 L 11.007 0.600 L 10.757 0.600 L 10.757 0.503 L 10.757 0.000 L 10.504 0.000 L 10.400 0.000 L 10.400 0.275 L 10.107 0.275 L 10.107 0.000 L 10.004 0.000 L 9.900 0.000 L 9.900 0.275 L 9.607 0.275 L 9.607 0.000 L 9.504 0.000 L 9.400 0.000 L 9.400 0.275 L 9.107 0.275 L 9.107 0.000 L 9.004 0.000 L 8.900 0.000 L 8.900 0.275 L 8.607 0.275 L 8.607 0.000 L 8.504 0.000 L 8.400 0.000 L 8.400 0.275 L 8.107 0.275 L 8.107 0.000 L 8.004 0.000 L 7.900 0.000 L 7.900 0.275 L 7.607 0.275 L 7.607 0.000 L 7.503 0.000 L 7.400 0.000 L 7.400 0.275 L 7.107 0.275 L 7.107 0.000 L 7.003 0.000 L 6.900 0.000 L 6.900 0.275 L 6.607 0.275 L 6.607 0.000 L 6.503 0.000 L 6.400 0.000 L 6.400 0.275 L 6.107 0.275 L 6.107 0.000 L 6.003 0.000 L 5.900 0.000 L 5.900 0.275 L 5.607 0.275 L 5.607 0.000 L 5.503 0.000 L 5.400 0.000 L 5.400 0.275 L 5.107 0.275 L 5.107 0.000 L 5.003 0.000 L 4.900 0.000 L 4.900 0.275 L 4.607 0.275 L 4.607 0.000 L 4.503 0.000 L 4.400 0.000 L 4.400 0.275 L 4.107 0.275 L 4.107 0.000 L 4.003 0.000 L 3.900 0.000 L 3.900 0.275 L 3.607 0.275 L 3.607 0.000 L 3.503 0.000 L 3.400 0.000 L 3.400 0.275 L 3.107 0.275 L 3.107 0.000 L 3.003 0.000 L 2.900 0.000 L 2.900 0.275 L 2.607 0.275 L 2.607 0.000 L 2.503 0.000 L 2.400 0.000 L 2.400 0.275 L 2.107 0.275 L 2.107 0.000 L 2.003 0.000 L 1.900 0.000 L 1.900 0.275 L 1.607 0.275 L 1.607 0.000 L 1.504 0.000 L 1.400 0.000 L 1.400 0.275 L 1.107 0.275 L 1.107 0.000 L 1.004 0.000 L 0.900 0.000 L 0.900 0.275 L 0.607 0.275 L 0.607 0.000 L 0.503 0.000 L 0.250 0.000 L 0.250 0.503 L 0.250 0.600 L 0.000 0.600 L 0.000 0.907 L 0.250 0.907 L 0.250 1.004 L 0.250 1.100 L 0.000 1.100 L 0.000 1.407 L 0.250 1.407 L 0.250 1.504 L 0.250 1.600 L 0.000 1.600 L 0.000 1.907 L 0.250 1.907 L 0.250 2.003 L 0.250 2.100 L 0.000 2.100 L 0.000 2.407 L 0.250 2.407 L 0.250 2.503 L 0.250 2.600 L 0.000 2.600 L 0.000 2.907 L 0.250 2.907 L 0.250 3.003 L 0.250 3.100 L 0.000 3.100 L 0.000 3.407 L 0.250 3.407 L 0.250 3.503 L 0.250 3.600 L 0.000 3.600 L 0.000 3.907 L 0.250 3.907 L 0.250 4.003 L 0.250 4.100 L 0.000 4.100 L 0.000 4.407 L 0.250 4.407 L 0.250 4.503 L 0.250 4.600 L 0.000 4.600 L 0.000 4.907 L 0.250 4.907 L 0.250 5.003 L 0.250 5.100 L 0.000 5.100 L 0.000 5.407 L 0.250 5.407 L 0.250 5.503 L 0.250 5.600 L 0.000 5.600 L 0.000 5.907 L 0.250 5.907 L 0.250 6.003 L 0.250 6.100 L 0.000 6.100 L 0.000 6.407 L 0.250 6.407 L 0.250 6.503 L 0.250 6.600 L 0.000 6.600 L 0.000 6.907 L 0.250 6.907 L 0.250 7.003 L 0.250 7.100 L 0.000 7.100 L 0.000 7.407 L 0.250 7.407 L 0.250 7.503 L 0.250 7.600 L 0.000 7.600 L 0.000 7.907 L 0.250 7.907 L 0.250 8.004 L 0.250 8.100 L 0.000 8.100 L 0.000 8.407 L 0.250 8.407 L 0.250 8.504 L 0.250 8.600 L 0.000 8.600 L 0.000 8.907 L 0.250 8.907 L 0.250 9.004 L 0.250 9.100 L 0.000 9.100 L 0.000 9.407 L 0.250 9.407 L 0.250 9.504 L 0.250 9.600 L 0.000 9.600 L 0.000 9.907 L 0.250 9.907 L 0.250 10.004 L 0.250 10.100 L 0.000 10.100 L 0.000 10.407 L 0.250 10.407 L 0.250 10.504 L 0.250 10.600 L 0.000 10.600 L 0.000 10.907 L 0.250 10.907 L 0.250 11.004 L 0.250 11.100 L 0.000 11.100 L 0.000 11.407 L 0.250 11.407 L 0.250 11.504 L 0.250 11.600 L 0.000 11.600 L 0.000 11.907 L 0.250 11.907 L 0.250 12.004 L 0.250 12.100 L 0.000 12.100 L 0.000 12.407 L 0.250 12.407 L 0.250 12.504 L 0.250 12.757 L 0.503 12.757 L 0.600 12.757 L 0.600 13.007 L 0.907 13.007 L 0.907 12.757 L 1.004 12.757 L 1.100 12.757 L 1.100 13.007 L 1.407 13.007 L 1.407 12.757 L 1.504 12.757 L 1.600 12.757 L 1.600 13.007 L 1.907 13.007 L 1.907 12.757 L 2.003 12.757 L 2.100 12.757 L 2.100 13.007 L 2.407 13.007 L 2.407 12.757 L 2.503 12.757 L 2.600 12.757 L 2.600 13.007 L 2.907 13.007 L 2.907 12.757 L 3.003 12.757 L 3.100 12.757 L 3.100 13.007 L 3.407 13.007 L 3.407 12.757 L 3.503 12.757 L 3.600 12.757 L 3.600 13.007 L 3.907 13.007 L 3.907 12.757 L 4.003 12.757 L 4.100 12.757 L 4.100 13.007 L 4.407 13.007 L 4.407 12.757 L 4.503 12.757 L 4.600 12.757 L 4.600 13.007 L 4.907 13.007 L 4.907 12.757 L 5.003 12.757 L 5.100 12.757 L 5.100 13.007 L 5.407 13.007 L 5.407 12.757 L 5.503 12.757 L 5.600 12.757 L 5.600 13.007 L 5.907 13.007 L 5.907 12.757 L 6.003 12.757 L 6.100 12.757 L 6.100 13.007 L 6.407 13.007 L 6.407 12.757 L 6.503 12.757 L 6.600 12.757 L 6.600 13.007 L 6.907 13.007 L 6.907 12.757 L 7.003 12.757 L 7.100 12.757 L 7.100 13.007 L 7.407 13.007 L 7.407 12.757 L 7.503 12.757 L 7.600 12.757 L 7.600 13.007 L 7.907 13.007 L 7.907 12.757 L 8.004 12.757 L 8.100 12.757 L 8.100 13.007 L 8.407 13.007 L 8.407 12.757 L 8.504 12.757 L 8.600 12.757 L 8.600 13.007 L 8.907 13.007 L 8.907 12.757 L 9.004 12.757 L 9.100 12.757 L 9.100 13.007 L 9.407 13.007 L 9.407 12.757 L 9.504 12.757 L 9.600 12.757 L 9.600 13.007 L 9.907 13.007 L 9.907 12.757 L 10.004 12.757 L 10.100 12.757 L 10.100 13.007 L 10.407 13.007 L 10.407 12.757 L 10.504 12.757 L 10.757 12.757" style="fill:none;stroke:black;stroke-width:0.012" />
</g>
</svg>
