<?xml version="1.0"?>
	<!-- Generated by github.com/dustismo/heavyfishdesign -->
	<svg width="18.000in" height="11.000in" viewBox="0.000 0.000 18.000 11.000"
    	xmlns="http://www.w3.org/2000/svg"
		xmlns:xlink="http://www.w3.org/1999/xlink">
	<g transform="translate(0.100 0.100)">
<path id="top_panel" d="M 10.757 3.407 L 10.757 3.503 L 10.757 3.757 L 10.504 3.757 L 10.407 3.757 L 10.407 4.007 L 10.100 4.007 L 10.100 3.757 L 10.004 3.757 L 9.907 3.757 L 9.907 4.007 L 9.600 4.007 L 9.600 3.757 L 9.504 3.757 L 9.407 3.757 L 9.407 4.007 L 9.100 4.007 L 9.100 3.757 L 9.004 3.757 L 8.907 3.757 L 8.907 4.007 L 8.600 4.007 L 8.600 3.757 L 8.504 3.757 L 8.407 3.757 L 8.407 4.007 L 8.100 4.007 L 8.100 3.757 L 8.004 3.757 L 7.907 3.757 L 7.907 4.007 L 7.600 4.007 L 7.600 3.757 L 7.503 3.757 L 7.407 3.757 L 7.407 4.007 L 7.100 4.007 L 7.100 3.757 L 7.003 3.757 L 6.907 3.757 L 6.907 4.007 L 6.600 4.007 L 6.600 3.757 L 6.503 3.757 L 6.407 3.757 L 6.407 4.007 L 6.100 4.007 L 6.100 3.757 L 6.003 3.757 L 5.907 3.757 L 5.907 4.007 L 5.600 4.007 L 5.600 3.757 L 5.503 3.757 L 5.407 3.757 L 5.407 4.007 L 5.100 4.007 L 5.100 3.757 L 5.003 3.757 L 4.907 3.757 L 4.907 4.007 L 4.600 4.007 L 4.600 3.757 L 4.503 3.757 L 4.407 3.757 L 4.407 4.007 L 4.100 4.007 L 4.100 3.757 L 4.003 3.757 L 3.907 3.757 L 3.907 4.007 L 3.600 4.007 L 3.600 3.757 L 3.503 3.757 L 3.407 3.757 L 3.407 4.007 L 3.100 4.007 L 3.100 3.757 L 3.003 3.757 L 2.907 3.757 L 2.907 4.007 L 2.600 4.007 L 2.600 3.757 L 2.503 3.757 L 2.407 3.757 L 2.407 4.007 L 2.100 4.007 L 2.100 3.757 L 2.003 3.757 L 1.907 3.757 L 1.907 4.007 L 1.600 4.007 L 1.600 3.757 L 1.504 3.757 L 1.407 3.757 L 1.407 4.007 L 1.100 4.007 L 1.100 3.757 L 1.004 3.757 L 0.907 3.757 L 0.907 4.007 L 0.600 4.007 L 0.600 3.757 L 0.503 3.757 L 0.250 3.757 L 0.250 3.503 L 0.250 3.407 L 0.000 3.407 L 0.000 3.100 L 0.250 3.100 L 0.250 3.003 L 0.250 2.907 L 0.000 2.907 L 0.000 2.600 L 0.250 2.600 L 0.250 2.503 L 0.250 2.407 L 0.000 2.407 L 0.000 2.100 L 0.250 2.100 L 0.250 2.003 L 0.250 1.907 L 0.000 1.907 L 0.000 1.600 L 0.250 1.600 L 0.250 1.504 L 0.250 1.407 L 0.000 1.407 L 0.000 1.100 L 0.250 1.100 L 0.250 1.004 L 0.250 0.907 L 0.000 0.907 L 0.000 0.600 L 0.250 0.600 L 0.250 0.503 L 0.250 0.275 L 0.503 0.275 L 0.600 0.275 L 0.600 0.000 L 0.907 0.000 L 0.907 0.275 L 1.004 0.275 L 1.100 0.275 L 1.100 0.000 L 1.407 0.000 L 1.407 0.275 L 1.504 0.275 L 1.600 0.275 L 1.600 0.000 L 1.907 0.000 L 1.907 0.275 L 2.003 0.275 L 2.100 0.275 L 2.100 0.000 L 2.407 0.000 L 2.407 0.275 L 2.503 0.275 L 2.600 0.275 L 2.600 0.000 L 2.907 0.000 L 2.907 0.275 L 3.003 0.275 L 3.100 0.275 L 3.100 0.000 L 3.407 0.000 L 3.407 0.275 L 3.503 0.275 L 3.600 0.275 L 3.600 0.000 L 3.907 0.000 L 3.907 0.275 L 4.003 0.275 L 4.100 0.275 L 4.100 0.000 L 4.407 0.000 L 4.407 0.275 L 4.503 0.275 L 4.600 0.275 L 4.600 0.000 L 4.907 0.000 L 4.907 0.275 L 5.003 0.275 L 5.100 0.275 L 5.100 0.000 L 5.407 0.000 L 5.407 0.275 L 5.503 0.275 L 5.600 0.275 L 5.600 0.000 L 5.907 0.000 L 5.907 0.275 L 6.003 0.275 L 6.100 0.275 L 6.100 0.000 L 6.407 0.000 L 6.407 0.275 L 6.503 0.275 L 6.600 0.275 L 6.600 0.000 L 6.907 0.000 L 6.907 0.275 L 7.003 0.275 L 7.100 0.275 L 7.100 0.000 L 7.407 0.000 L 7.407 0.275 L 7.503 0.275 L 7.600 0.275 L 7.600 0.000 L 7.907 0.000 L 7.907 0.275 L 8.004 0.275 L 8.100 0.275 L 8.100 0.000 L 8.407 0.000 L 8.407 0.275 L 8.504 0.275 L 8.600 0.275 L 8.600 0.000 L 8.907 0.000 L 8.907 0.275 L 9.004 0.275 L 9.100 0.275 L 9.100 0.000 L 9.407 0.000 L 9.407 0.275 L 9.504 0.275 L 9.600 0.275 L 9.600 0.000 L 9.907 0.000 L 9.907 0.275 L 10.004 0.275 L 10.100 0.275 L 10.100 0.000 L 10.407 0.000 L 10.407 0.275 L 10.504 0.275 L 10.757 0.275 L 10.757 0.503 L 10.757 0.600 L 11.007 0.600 L 11.007 0.907 L 10.757 0.907 L 10.757 1.004 L 10.757 1.100 L 11.007 1.100 L 11.007 1.407 L 10.757 1.407 L 10.757 1.504 L 10.757 1.600 L 11.007 1.600 L 11.007 1.907 L 10.757 1.907 L 10.757 2.003 L 10.757 2.100 L 11.007 2.100 L 11.007 2.407 L 10.757 2.407 L 10.757 2.503 L 10.757 2.600 L 11.007 2.600 L 11.007 2.907 L 10.757 2.907 L 10.757 3.003 L 10.757 3.100 L 11.007 3.100 L 11.007 3.407 L 10.757 3.407" style="fill:none;stroke:black;stroke-width:0.012" />
</g>
<g transform="translate(0.100 4.307)">
<path id="marquee_panel" d="M 10.757 1.907 L 10.757 2.003 L 10.757 2.507 L 10.504 2.507 L 10.400 2.507 L 10.400 2.257 L 10.107 2.257 L 10.107 2.507 L 10.004 2.507 L 9.900 2.507 L 9.900 2.257 L 9.607 2.257 L 9.607 2.507 L 9.504 2.507 L 9.400 2.507 L 9.400 2.257 L 9.107 2.257 L 9.107 2.507 L 9.004 2.507 L 8.900 2.507 L 8.900 2.257 L 8.607 2.257 L 8.607 2.507 L 8.504 2.507 L 8.400 2.507 L 8.400 2.257 L 8.107 2.257 L 8.107 2.507 L 8.004 2.507 L 7.900 2.507 L 7.900 2.257 L 7.607 2.257 L 7.607 2.507 L 7.503 2.507 L 7.400 2.507 L 7.400 2.257 L 7.107 2.257 L 7.107 2.507 L 7.003 2.507 L 6.900 2.507 L 6.900 2.257 L 6.607 2.257 L 6.607 2.507 L 6.503 2.507 L 6.400 2.507 L 6.400 2.257 L 6.107 2.257 L 6.107 2.507 L 6.003 2.507 L 5.900 2.507 L 5.900 2.257 L 5.607 2.257 L 5.607 2.507 L 5.503 2.507 L 5.400 2.507 L 5.400 2.257 L 5.107 2.257 L 5.107 2.507 L 5.003 2.507 L 4.900 2.507 L 4.900 2.257 L 4.607 2.257 L 4.607 2.507 L 4.503 2.507 L 4.400 2.507 L 4.400 2.257 L 4.107 2.257 L 4.107 2.507 L 4.003 2.507 L 3.900 2.507 L 3.900 2.257 L 3.607 2.257 L 3.607 2.507 L 3.503 2.507 L 3.400 2.507 L 3.400 2.257 L 3.107 2.257 L 3.107 2.507 L 3.003 2.507 L 2.900 2.507 L 2.900 2.257 L 2.607 2.257 L 2.607 2.507 L 2.503 2.507 L 2.400 2.507 L 2.400 2.257 L 2.107 2.257 L 2.107 2.507 L 2.003 2.507 L 1.900 2.507 L 1.900 2.257 L 1.607 2.257 L 1.607 2.507 L 1.504 2.507 L 1.400 2.507 L 1.400 2.257 L 1.107 2.257 L 1.107 2.507 L 1.004 2.507 L 0.900 2.507 L 0.900 2.257 L 0.607 2.257 L 0.607 2.507 L 0.503 2.507 L 0.250 2.507 L 0.250 2.003 L 0.250 1.907 L 0.000 1.907 L 0.000 1.600 L 0.250 1.600 L 0.250 1.504 L 0.250 1.407 L 0.000 1.407 L 0.000 1.100 L 0.250 1.100 L 0.250 1.004 L 0.250 0.907 L 0.000 0.907 L 0.000 0.600 L 0.250 0.600 L 0.250 0.503 L 0.250 0.000 L 0.503 0.000 L 0.607 0.000 L 0.607 0.250 L 0.900 0.250 L 0.900 0.000 L 1.004 0.000 L 1.107 0.000 L 1.107 0.250 L 1.400 0.250 L 1.400 0.000 L 1.504 0.000 L 1.607 0.000 L 1.607 0.250 L 1.900 0.250 L 1.900 0.000 L 2.003 0.000 L 2.107 0.000 L 2.107 0.250 L 2.400 0.250 L 2.400 0.000 L 2.503 0.000 L 2.607 0.000 L 2.607 0.250 L 2.900 0.250 L 2.900 0.000 L 3.003 0.000 L 3.107 0.000 L 3.107 0.250 L 3.400 0.250 L 3.400 0.000 L 3.503 0.000 L 3.607 0.000 L 3.607 0.250 L 3.900 0.250 L 3.900 0.000 L 4.003 0.000 L 4.107 0.000 L 4.107 0.250 L 4.400 0.250 L 4.400 0.000 L 4.503 0.000 L 4.607 0.000 L 4.607 0.250 L 4.900 0.250 L 4.900 0.000 L 5.003 0.000 L 5.107 0.000 L 5.107 0.250 L 5.400 0.250 L 5.400 0.000 L 5.503 0.000 L 5.607 0.000 L 5.607 0.250 L 5.900 0.250 L 5.900 0.000 L 6.003 0.000 L 6.107 0.000 L 6.107 0.250 L 6.400 0.250 L 6.400 0.000 L 6.503 0.000 L 6.607 0.000 L 6.607 0.250 L 6.900 0.250 L 6.900 0.000 L 7.003 0.000 L 7.107 0.000 L 7.107 0.250 L 7.400 0.250 L 7.400 0.000 L 7.503 0.000 L 7.607 0.000 L 7.607 0.250 L 7.900 0.250 L 7.900 0.000 L 8.004 0.000 L 8.107 0.000 L 8.107 0.250 L 8.400 0.250 L 8.400 0.000 L 8.504 0.000 L 8.607 0.000 L 8.607 0.250 L 8.900 0.250 L 8.900 0.000 L 9.004 0.000 L 9.107 0.000 L 9.107 0.250 L 9.400 0.250 L 9.400 0.000 L 9.504 0.000 L 9.607 0.000 L 9.607 0.250 L 9.900 0.250 L 9.900 0.000 L 10.004 0.000 L 10.107 0.000 L 10.107 0.250 L 10.400 0.250 L 10.400 0.000 L 10.504 0.000 L 10.757 0.000 L 10.757 0.503 L 10.757 0.600 L 11.007 0.600 L 11.007 0.907 L 10.757 0.907 L 10.757 1.004 L 10.757 1.100 L 11.007 1.100 L 11.007 1.407 L 10.757 1.407 L 10.757 1.504 L 10.757 1.600 L 11.007 1.600 L 11.007 1.907 L 10.757 1.907" style="fill:none;stroke:black;stroke-width:0.012" />
</g>
<g transform="translate(0.100 7.014)">
<path id="screen_inset_panel" d="M 10.757 1.407 L 10.757 1.504 L 10.757 2.007 L 0.250 2.007 L 0.250 1.504 L 0.250 1.407 L 0.000 1.407 L 0.000 1.100 L 0.250 1.100 L 0.250 1.004 L 0.250 0.907 L 0.000 0.907 L 0.000 0.600 L 0.250 0.600 L 0.250 0.503 L 0.250 0.250 L 0.503 0.250 L 0.600 0.250 L 0.600 0.000 L 0.907 0.000 L 0.907 0.250 L 1.004 0.250 L 1.100 0.250 L 1.100 0.000 L 1.407 0.000 L 1.407 0.250 L 1.504 0.250 L 1.600 0.250 L 1.600 0.000 L 1.907 0.000 L 1.907 0.250 L 2.003 0.250 L 2.100 0.250 L 2.100 0.000 L 2.407 0.000 L 2.407 0.250 L 2.503 0.250 L 2.600 0.250 L 2.600 0.000 L 2.907 0.000 L 2.907 0.250 L 3.003 0.250 L 3.100 0.250 L 3.100 0.000 L 3.407 0.000 L 3.407 0.250 L 3.503 0.250 L 3.600 0.250 L 3.600 0.000 L 3.907 0.000 L 3.907 0.250 L 4.003 0.250 L 4.100 0.250 L 4.100 0.000 L 4.407 0.000 L 4.407 0.250 L 4.503 0.250 L 4.600 0.250 L 4.600 0.000 L 4.907 0.000 L 4.907 0.250 L 5.003 0.250 L 5.100 0.250 L 5.100 0.000 L 5.407 0.000 L 5.407 0.250 L 5.503 0.250 L 5.600 0.250 L 5.600 0.000 L 5.907 0.000 L 5.907 0.250 L 6.003 0.250 L 6.100 0.250 L 6.100 0.000 L 6.407 0.000 L 6.407 0.250 L 6.503 0.250 L 6.600 0.250 L 6.600 0.000 L 6.907 0.000 L 6.907 0.250 L 7.003 0.250 L 7.100 0.250 L 7.100 0.000 L 7.407 0.000 L 7.407 0.250 L 7.503 0.250 L 7.600 0.250 L 7.600 0.000 L 7.907 0.000 L 7.907 0.250 L 8.004 0.250 L 8.100 0.250 L 8.100 0.000 L 8.407 0.000 L 8.407 0.250 L 8.504 0.250 L 8.600 0.250 L 8.600 0.000 L 8.907 0.000 L 8.907 0.250 L 9.004 0.250 L 9.100 0.250 L 9.100 0.000 L 9.407 0.000 L 9.407 0.250 L 9.504 0.250 L 9.600 0.250 L 9.600 0.000 L 9.907 0.000 L 9.907 0.250 L 10.004 0.250 L 10.100 0.250 L 10.100 0.000 L 10.407 0.000 L 10.407 0.250 L 10.504 0.250 L 10.757 0.250 L 10.757 0.503 L 10.757 0.600 L 11.007 0.600 L 11.007 0.907 L 10.757 0.907 L 10.757 1.004 L 10.757 1.100 L 11.007 1.100 L 11.007 1.407 L 10.757 1.407" style="fill:none;stroke:black;stroke-width:0.012" />
</g>
</svg>
