<?xml version="1.0"?>
	<!-- Generated by github.com/dustismo/heavyfishdesign -->
	<svg width="18.000in" height="11.000in" viewBox="0.000 0.000 18.000 11.000"
    	xmlns="http://www.w3.org/2000/svg"
		xmlns:xlink="http://www.w3.org/1999/xlink">
	<g transform="translate(0.100 0.100)">
<path id="front_panel" d="M 10.757 2.407 L 10.757 2.503 L 10.757 3.007 L 10.504 3.007 L 10.400 3.007 L 10.400 2.757 L 10.107 2.757 L 10.107 3.007 L 10.004 3.007 L 9.900 3.007 L 9.900 2.757 L 9.607 2.757 L 9.607 3.007 L 9.504 3.007 L 9.400 3.007 L 9.400 2.757 L 9.107 2.757 L 9.107 3.007 L 9.004 3.007 L 8.900 3.007 L 8.900 2.757 L 8.607 2.757 L 8.607 3.007 L 8.504 3.007 L 8.400 3.007 L 8.400 2.757 L 8.107 2.757 L 8.107 3.007 L 8.004 3.007 L 7.900 3.007 L 7.900 2.757 L 7.607 2.757 L 7.607 3.007 L 7.503 3.007 L 7.400 3.007 L 7.400 2.757 L 7.107 2.757 L 7.107 3.007 L 7.003 3.007 L 6.900 3.007 L 6.900 2.757 L 6.607 2.757 L 6.607 3.007 L 6.503 3.007 L 6.400 3.007 L 6.400 2.757 L 6.107 2.757 L 6.107 3.007 L 6.003 3.007 L 5.900 3.007 L 5.900 2.757 L 5.607 2.757 L 5.607 3.007 L 5.503 3.007 L 5.400 3.007 L 5.400 2.757 L 5.107 2.757 L 5.107 3.007 L 5.003 3.007 L 4.900 3.007 L 4.900 2.757 L 4.607 2.757 L 4.607 3.007 L 4.503 3.007 L 4.400 3.007 L 4.400 2.757 L 4.107 2.757 L 4.107 3.007 L 4.003 3.007 L 3.900 3.007 L 3.900 2.757 L 3.607 2.757 L 3.607 3.007 L 3.503 3.007 L 3.400 3.007 L 3.400 2.757 L 3.107 2.757 L 3.107 3.007 L 3.003 3.007 L 2.900 3.007 L 2.900 2.757 L 2.607 2.757 L 2.607 3.007 L 2.503 3.007 L 2.400 3.007 L 2.400 2.757 L 2.107 2.757 L 2.107 3.007 L 2.003 3.007 L 1.900 3.007 L 1.900 2.757 L 1.607 2.757 L 1.607 3.007 L 1.504 3.007 L 1.400 3.007 L 1.400 2.757 L 1.107 2.757 L 1.107 3.007 L 1.004 3.007 L 0.900 3.007 L 0.900 2.757 L 0.607 2.757 L 0.607 3.007 L 0.503 3.007 L 0.250 3.007 L 0.250 2.503 L 0.250 2.407 L 0.000 2.407 L 0.000 2.100 L 0.250 2.100 L 0.250 2.003 L 0.250 1.907 L 0.000 1.907 L 0.000 1.600 L 0.250 1.600 L 0.250 1.504 L 0.250 1.407 L 0.000 1.407 L 0.000 1.100 L 0.250 1.100 L 0.250 1.004 L 0.250 0.907 L 0.000 0.907 L 0.000 0.600 L 0.250 0.600 L 0.250 0.503 L 0.250 0.000 L 0.503 0.000 L 0.607 0.000 L 0.607 0.275 L 0.900 0.275 L 0.900 0.000 L 1.004 0.000 L 1.107 0.000 L 1.107 0.275 L 1.400 0.275 L 1.400 0.000 L 1.504 0.000 L 1.607 0.000 L 1.607 0.275 L 1.900 0.275 L 1.900 0.000 L 2.003 0.000 L 2.107 0.000 L 2.107 0.275 L 2.400 0.275 L 2.400 0.000 L 2.503 0.000 L 2.607 0.000 L 2.607 0.275 L 2.900 0.275 L 2.900 0.000 L 3.003 0.000 L 3.107 0.000 L 3.107 0.275 L 3.400 0.275 L 3.400 0.000 L 3.503 0.000 L 3.607 0.000 L 3.607 0.275 L 3.900 0.275 L 3.900 0.000 L 4.003 0.000 L 4.107 0.000 L 4.107 0.275 L 4.400 0.275 L 4.400 0.000 L 4.503 0.000 L 4.607 0.000 L 4.607 0.275 L 4.900 0.275 L 4.900 0.000 L 5.003 0.000 L 5.107 0.000 L 5.107 0.275 L 5.400 0.275 L 5.400 0.000 L 5.503 0.000 L 5.607 0.000 L 5.607 0.275 L 5.900 0.275 L 5.900 0.000 L 6.003 0.000 L 6.107 0.000 L 6.107 0.275 L 6.400 0.275 L 6.400 0.000 L 6.503 0.000 L 6.607 0.000 L 6.607 0.275 L 6.900 0.275 L 6.900 0.000 L 7.003 0.000 L 7.107 0.000 L 7.107 0.275 L 7.400 0.275 L 7.400 0.000 L 7.503 0.000 L 7.607 0.000 L 7.607 0.275 L 7.900 0.275 L 7.900 0.000 L 8.004 0.000 L 8.107 0.000 L 8.107 0.275 L 8.400 0.275 L 8.400 0.000 L 8.504 0.000 L 8.607 0.000 L 8.607 0.275 L 8.900 0.275 L 8.900 0.000 L 9.004 0.000 L 9.107 0.000 L 9.107 0.275 L 9.400 0.275 L 9.400 0.000 L 9.504 0.000 L 9.607 0.000 L 9.607 0.275 L 9.900 0.275 L 9.900 0.000 L 10.004 0.000 L 10.107 0.000 L 10.107 0.275 L 10.400 0.275 L 10.400 0.000 L 10.504 0.000 L 10.757 0.000 L 10.757 0.503 L 10.757 0.600 L 11.007 0.600 L 11.007 0.907 L 10.757 0.907 L 10.757 1.004 L 10.757 1.100 L 11.007 1.100 L 11.007 1.407 L 10.757 1.407 L 10.757 1.504 L 10.757 1.600 L 11.007 1.600 L 11.007 1.907 L 10.757 1.907 L 10.757 2.003 L 10.757 2.100 L 11.007 2.100 L 11.007 2.407 L 10.757 2.407 M 1.591 0.916 C 1.808 0.916 1.997 1.034 2.099 1.210 C 2.149 1.296 2.178 1.397 2.178 1.504 C 2.178 1.721 2.060 1.910 1.884 2.012 C 1.798 2.062 1.698 2.091 1.591 2.091 C 1.373 2.091 1.184 1.973 1.082 1.797 C 1.032 1.711 1.004 1.610 1.004 1.504 C 1.004 1.286 1.121 1.097 1.297 0.995 C 1.383 0.945 1.484 0.916 1.591 0.916 M 9.416 0.916 C 9.634 0.916 9.823 1.034 9.925 1.210 C 9.975 1.296 10.004 1.397 10.004 1.504 C 10.004 1.721 9.886 1.910 9.710 2.012 C 9.624 2.062 9.523 2.091 9.416 2.091 C 9.199 2.091 9.010 1.973 8.908 1.797 C 8.858 1.711 8.829 1.610 8.829 1.504 C 8.829 1.286 8.947 1.097 9.123 0.995 C 9.209 0.945 9.309 0.916 9.416 0.916 M 4.253 0.768 C 4.295 0.768 4.329 0.802 4.329 0.843 C 4.329 0.885 4.295 0.918 4.253 0.918 C 4.212 0.918 4.178 0.885 4.178 0.843 C 4.178 0.802 4.212 0.768 4.253 0.768 M 6.753 0.768 C 6.795 0.768 6.829 0.802 6.829 0.843 C 6.829 0.885 6.795 0.918 6.753 0.918 C 6.712 0.918 6.678 0.885 6.678 0.843 C 6.678 0.802 6.712 0.768 6.753 0.768 M 6.753 2.088 C 6.795 2.088 6.829 2.122 6.829 2.163 C 6.829 2.205 6.795 2.238 6.753 2.238 C 6.712 2.238 6.678 2.205 6.678 2.163 C 6.678 2.122 6.712 2.088 6.753 2.088 M 4.253 2.088 C 4.295 2.088 4.329 2.122 4.329 2.163 C 4.329 2.205 4.295 2.238 4.253 2.238 C 4.212 2.238 4.178 2.205 4.178 2.163 C 4.178 2.122 4.212 2.088 4.253 2.088 M 5.286 0.703 L 5.721 0.703 L 5.721 0.803 L 5.286 0.803 L 5.286 0.703 M 4.896 0.954 L 6.111 0.954 L 6.111 1.054 L 4.896 1.054 L 4.896 0.954 M 4.750 1.203 L 6.257 1.203 L 6.257 1.303 L 4.750 1.303 L 4.750 1.203 M 4.704 1.453 L 6.303 1.453 L 6.303 1.553 L 4.704 1.553 L 4.704 1.453 M 4.737 1.704 L 6.270 1.704 L 6.270 1.804 L 4.737 1.804 L 4.737 1.704 M 4.863 1.953 L 6.144 1.953 L 6.144 2.053 L 4.863 2.053 L 4.863 1.953 M 5.176 2.204 L 5.831 2.204 L 5.831 2.304 L 5.176 2.304 L 5.176 2.204" style="fill:none;stroke:black;stroke-width:0.012" />
</g>
<g transform="translate(0.100 3.307)">
<path id="joystick_panel" d="M 10.757 5.035 L 10.757 4.905 L 10.757 4.809 L 11.007 4.809 L 11.007 4.502 L 10.757 4.502 L 10.757 4.405 L 10.757 4.309 L 11.007 4.309 L 11.007 4.002 L 10.757 4.002 L 10.757 3.905 L 10.757 3.809 L 11.007 3.809 L 11.007 3.502 L 10.757 3.502 L 10.757 3.405 L 10.757 3.309 L 11.007 3.309 L 11.007 3.002 L 10.757 3.002 L 10.757 2.905 L 10.757 2.809 L 11.007 2.809 L 11.007 2.502 L 10.757 2.502 L 10.757 2.405 L 10.757 2.309 L 11.007 2.309 L 11.007 2.002 L 10.757 2.002 L 10.757 1.905 L 10.757 1.809 L 11.007 1.809 L 11.007 1.502 L 10.757 1.502 L 10.757 1.405 L 10.757 1.309 L 11.007 1.309 L 11.007 1.002 L 10.757 1.002 L 10.757 0.905 L 10.757 0.809 L 11.007 0.809 L 11.007 0.502 L 10.757 0.502 L 10.757 0.405 L 10.757 0.000 L 0.250 0.000 L 0.250 0.405 L 0.250 0.502 L 0.000 0.502 L 0.000 0.809 L 0.250 0.809 L 0.250 0.905 L 0.250 1.002 L 0.000 1.002 L 0.000 1.309 L 0.250 1.309 L 0.250 1.405 L 0.250 1.502 L 0.000 1.502 L 0.000 1.809 L 0.250 1.809 L 0.250 1.905 L 0.250 2.002 L 0.000 2.002 L 0.000 2.309 L 0.250 2.309 L 0.250 2.405 L 0.250 2.502 L 0.000 2.502 L 0.000 2.809 L 0.250 2.809 L 0.250 2.905 L 0.250 3.002 L 0.000 3.002 L 0.000 3.309 L 0.250 3.309 L 0.250 3.405 L 0.250 3.502 L 0.000 3.502 L 0.000 3.809 L 0.250 3.809 L 0.250 3.905 L 0.250 4.002 L 0.000 4.002 L 0.000 4.309 L 0.250 4.309 L 0.250 4.405 L 0.250 4.502 L 0.000 4.502 L 0.000 4.809 L 0.250 4.809 L 0.250 4.905 L 0.250 5.035 L 0.503 5.035 L 0.600 5.035 L 0.600 5.310 L 0.907 5.310 L 0.907 5.035 L 1.004 5.035 L 1.100 5.035 L 1.100 5.310 L 1.407 5.310 L 1.407 5.035 L 1.504 5.035 L 1.600 5.035 L 1.600 5.310 L 1.907 5.310 L 1.907 5.035 L 2.003 5.035 L 2.100 5.035 L 2.100 5.310 L 2.407 5.310 L 2.407 5.035 L 2.503 5.035 L 2.600 5.035 L 2.600 5.310 L 2.907 5.310 L 2.907 5.035 L 3.003 5.035 L 3.100 5.035 L 3.100 5.310 L 3.407 5.310 L 3.407 5.035 L 3.503 5.035 L 3.600 5.035 L 3.600 5.310 L 3.907 5.310 L 3.907 5.035 L 4.003 5.035 L 4.100 5.035 L 4.100 5.310 L 4.407 5.310 L 4.407 5.035 L 4.503 5.035 L 4.600 5.035 L 4.600 5.310 L 4.907 5.310 L 4.907 5.035 L 5.003 5.035 L 5.100 5.035 L 5.100 5.310 L 5.407 5.310 L 5.407 5.035 L 5.503 5.035 L 5.600 5.035 L 5.600 5.310 L 5.907 5.310 L 5.907 5.035 L 6.003 5.035 L 6.100 5.035 L 6.100 5.310 L 6.407 5.310 L 6.407 5.035 L 6.503 5.035 L 6.600 5.035 L 6.600 5.310 L 6.907 5.310 L 6.907 5.035 L 7.003 5.035 L 7.100 5.035 L 7.100 5.310 L 7.407 5.310 L 7.407 5.035 L 7.503 5.035 L 7.600 5.035 L 7.600 5.310 L 7.907 5.310 L 7.907 5.035 L 8.004 5.035 L 8.100 5.035 L 8.100 5.310 L 8.407 5.310 L 8.407 5.035 L 8.504 5.035 L 8.600 5.035 L 8.600 5.310 L 8.907 5.310 L 8.907 5.035 L 9.004 5.035 L 9.100 5.035 L 9.100 5.310 L 9.407 5.310 L 9.407 5.035 L 9.504 5.035 L 9.600 5.035 L 9.600 5.310 L 9.907 5.310 L 9.907 5.035 L 10.004 5.035 L 10.100 5.035 L 10.100 5.310 L 10.407 5.310 L 10.407 5.035 L 10.504 5.035 L 10.757 5.035 M 2.753 0.971 C 2.780 0.971 2.803 0.986 2.815 1.007 C 2.822 1.017 2.825 1.030 2.825 1.043 C 2.825 1.069 2.811 1.092 2.789 1.105 C 2.779 1.111 2.767 1.114 2.753 1.114 C 2.727 1.114 2.704 1.100 2.692 1.078 C 2.685 1.068 2.682 1.056 2.682 1.043 C 2.682 1.016 2.696 0.993 2.718 0.981 C 2.728 0.975 2.740 0.971 2.753 0.971 M 2.753 2.159 C 2.937 2.159 3.098 2.258 3.184 2.407 C 3.226 2.480 3.250 2.565 3.250 2.655 C 3.250 2.839 3.150 2.999 3.002 3.085 C 2.929 3.127 2.844 3.152 2.753 3.152 C 2.570 3.152 2.409 3.052 2.323 2.904 C 2.281 2.830 2.257 2.746 2.257 2.655 C 2.257 2.471 2.357 2.311 2.505 2.225 C 2.578 2.183 2.663 2.159 2.753 2.159 M 2.753 4.196 C 2.780 4.196 2.803 4.211 2.815 4.232 C 2.822 4.242 2.825 4.255 2.825 4.268 C 2.825 4.294 2.811 4.317 2.789 4.330 C 2.779 4.336 2.767 4.339 2.753 4.339 C 2.727 4.339 2.704 4.325 2.692 4.303 C 2.685 4.293 2.682 4.281 2.682 4.268 C 2.682 4.241 2.696 4.218 2.718 4.206 C 2.728 4.200 2.740 4.196 2.753 4.196 M 5.594 1.449 C 5.920 1.449 6.185 1.713 6.185 2.040 C 6.185 2.366 5.920 2.630 5.594 2.630 C 5.268 2.630 5.003 2.366 5.003 2.040 C 5.003 1.713 5.268 1.449 5.594 1.449 M 5.594 2.930 C 5.920 2.930 6.185 3.195 6.185 3.521 C 6.185 3.847 5.920 4.111 5.594 4.111 C 5.268 4.111 5.003 3.847 5.003 3.521 C 5.003 3.195 5.268 2.930 5.594 2.930 M 7.075 1.199 C 7.401 1.199 7.666 1.463 7.666 1.790 C 7.666 2.116 7.401 2.380 7.075 2.380 C 6.749 2.380 6.485 2.116 6.485 1.790 C 6.485 1.463 6.749 1.199 7.075 1.199 M 7.075 2.680 C 7.401 2.680 7.666 2.945 7.666 3.271 C 7.666 3.597 7.401 3.861 7.075 3.861 C 6.749 3.861 6.485 3.597 6.485 3.271 C 6.485 2.945 6.749 2.680 7.075 2.680 M 8.556 1.199 C 8.882 1.199 9.147 1.463 9.147 1.790 C 9.147 2.116 8.882 2.380 8.556 2.380 C 8.230 2.380 7.966 2.116 7.966 1.790 C 7.966 1.463 8.230 1.199 8.556 1.199 M 8.556 2.680 C 8.882 2.680 9.147 2.945 9.147 3.271 C 9.147 3.597 8.882 3.861 8.556 3.861 C 8.230 3.861 7.966 3.597 7.966 3.271 C 7.966 2.945 8.230 2.680 8.556 2.680" style="fill:none;stroke:black;stroke-width:0.012" />
</g>
</svg>
