<?xml version="1.0"?>
	<!-- Generated by github.com/dustismo/heavyfishdesign -->
	<svg width="20.000in" height="12.000in" viewBox="0.000 0.000 20.000 12.000"
    	xmlns="http://www.w3.org/2000/svg"
		xmlns:xlink="http://www.w3.org/1999/xlink">
	<g transform="translate(0.100 0.100)">
<path id="circle_with_center_rectangle" d="M 5.003 0.000 C 3.152 0.000 1.535 1.006 0.670 2.500 C 0.244 3.237 0.000 4.092 0.000 5.003 C 0.000 6.855 1.006 8.472 2.500 9.337 C 3.237 9.763 4.092 10.007 5.003 10.007 C 6.855 10.007 8.472 9.001 9.337 7.507 C 9.763 6.770 10.007 5.915 10.007 5.003 C 10.007 3.152 9.001 1.535 7.507 0.670 C 6.770 0.244 5.915 0.000 5.003 0.000 M 5.248 5.102 L 5.248 4.905 L 4.755 4.905 L 4.755 5.098 L 5.252 5.098" style="fill:none;stroke:black;stroke-width:0.012" />
</g>
</svg>
