<?xml version="1.0"?>
	<!-- Generated by github.com/dustismo/heavyfishdesign -->
	<svg width="18.000in" height="11.000in" viewBox="0.000 0.000 18.000 11.000"
    	xmlns="http://www.w3.org/2000/svg"
		xmlns:xlink="http://www.w3.org/1999/xlink">
	<g transform="translate(0.100 0.100)">
<path id="side_flat_top" d="M 12.007 6.003 L 12.007 5.928 L 12.007 5.825 L 11.757 5.825 L 11.757 5.632 L 12.007 5.632 L 12.007 5.529 L 12.007 5.425 L 11.757 5.425 L 11.757 5.232 L 12.007 5.232 L 12.007 5.128 L 12.007 5.025 L 11.757 5.025 L 11.757 4.832 L 12.007 4.832 L 12.007 4.728 L 12.007 4.625 L 11.757 4.625 L 11.757 4.432 L 12.007 4.432 L 12.007 4.329 L 12.007 4.225 L 11.757 4.225 L 11.757 4.032 L 12.007 4.032 L 12.007 3.928 L 12.007 3.825 L 11.757 3.825 L 11.757 3.632 L 12.007 3.632 L 12.007 3.528 L 12.007 3.425 L 11.757 3.425 L 11.757 3.232 L 12.007 3.232 L 12.007 3.128 L 12.007 3.025 L 11.757 3.025 L 11.757 2.832 L 12.007 2.832 L 12.007 2.728 L 12.007 2.625 L 11.757 2.625 L 11.757 2.432 L 12.007 2.432 L 12.007 2.329 L 12.007 2.225 L 11.757 2.225 L 11.757 2.032 L 12.007 2.032 L 12.007 1.929 L 12.007 1.825 L 11.757 1.825 L 11.757 1.632 L 12.007 1.632 L 12.007 1.528 L 12.007 1.425 L 11.757 1.425 L 11.757 1.232 L 12.007 1.232 L 12.007 1.129 L 12.007 1.025 L 11.757 1.025 L 11.757 0.832 L 12.007 0.832 L 12.007 0.728 L 12.007 0.625 L 11.757 0.625 L 11.757 0.432 L 12.007 0.432 L 12.007 0.329 L 12.007 0.000 L 0.000 0.000 L 0.000 0.329 L 0.000 0.432 L 0.250 0.432 L 0.250 0.625 L 0.000 0.625 L 0.000 0.728 L 0.000 0.832 L 0.250 0.832 L 0.250 1.025 L 0.000 1.025 L 0.000 1.129 L 0.000 1.232 L 0.250 1.232 L 0.250 1.425 L 0.000 1.425 L 0.000 1.528 L 0.000 1.632 L 0.250 1.632 L 0.250 1.825 L 0.000 1.825 L 0.000 1.929 L 0.000 2.032 L 0.250 2.032 L 0.250 2.225 L 0.000 2.225 L 0.000 2.329 L 0.000 2.432 L 0.250 2.432 L 0.250 2.625 L 0.000 2.625 L 0.000 2.728 L 0.000 2.832 L 0.250 2.832 L 0.250 3.025 L 0.000 3.025 L 0.000 3.128 L 0.000 3.232 L 0.250 3.232 L 0.250 3.425 L 0.000 3.425 L 0.000 3.528 L 0.000 3.632 L 0.250 3.632 L 0.250 3.825 L 0.000 3.825 L 0.000 3.928 L 0.000 4.032 L 0.250 4.032 L 0.250 4.225 L 0.000 4.225 L 0.000 4.329 L 0.000 4.432 L 0.250 4.432 L 0.250 4.625 L 0.000 4.625 L 0.000 4.728 L 0.000 4.832 L 0.250 4.832 L 0.250 5.025 L 0.000 5.025 L 0.000 5.128 L 0.000 5.232 L 0.250 5.232 L 0.250 5.425 L 0.000 5.425 L 0.000 5.529 L 0.000 5.632 L 0.250 5.632 L 0.250 5.825 L 0.000 5.825 L 0.000 5.928 L 0.000 6.003 M 4.003 0.428 L 4.003 0.628 L 3.753 0.628 L 3.753 0.428 L 4.003 0.428 M 4.003 0.828 L 4.003 1.028 L 3.753 1.028 L 3.753 0.828 L 4.003 0.828 M 4.003 1.228 L 4.003 1.428 L 3.753 1.428 L 3.753 1.228 L 4.003 1.228 M 4.003 1.628 L 4.003 1.828 L 3.753 1.828 L 3.753 1.628 L 4.003 1.628 M 4.003 2.028 L 4.003 2.228 L 3.753 2.228 L 3.753 2.028 L 4.003 2.028 M 4.003 2.428 L 4.003 2.628 L 3.753 2.628 L 3.753 2.428 L 4.003 2.428 M 4.003 2.828 L 4.003 3.028 L 3.753 3.028 L 3.753 2.828 L 4.003 2.828 M 4.003 3.228 L 4.003 3.428 L 3.753 3.428 L 3.753 3.228 L 4.003 3.228 M 4.003 3.628 L 4.003 3.828 L 3.753 3.828 L 3.753 3.628 L 4.003 3.628 M 4.003 4.028 L 4.003 4.228 L 3.754 4.228 L 3.754 4.028 L 4.003 4.028 M 4.003 4.428 L 4.003 4.628 L 3.754 4.628 L 3.754 4.428 L 4.003 4.428 M 4.003 4.828 L 4.003 5.028 L 3.754 5.028 L 3.754 4.828 L 4.003 4.828 M 4.003 5.228 L 4.003 5.428 L 3.754 5.428 L 3.754 5.228 L 4.003 5.228 M 4.003 5.628 L 4.003 5.828 L 3.754 5.828 L 3.754 5.628 L 4.003 5.628 M 8.004 0.428 L 8.004 0.628 L 7.753 0.628 L 7.753 0.428 L 8.004 0.428 M 8.004 0.828 L 8.004 1.028 L 7.753 1.028 L 7.753 0.828 L 8.004 0.828 M 8.004 1.228 L 8.004 1.428 L 7.753 1.428 L 7.753 1.228 L 8.004 1.228 M 8.004 1.628 L 8.004 1.828 L 7.753 1.828 L 7.753 1.628 L 8.004 1.628 M 8.004 2.028 L 8.004 2.228 L 7.753 2.228 L 7.753 2.028 L 8.004 2.028 M 8.004 2.428 L 8.004 2.628 L 7.753 2.628 L 7.753 2.428 L 8.004 2.428 M 8.004 2.828 L 8.004 3.028 L 7.753 3.028 L 7.753 2.828 L 8.004 2.828 M 8.004 3.228 L 8.004 3.428 L 7.753 3.428 L 7.753 3.228 L 8.004 3.228 M 8.004 3.628 L 8.004 3.828 L 7.753 3.828 L 7.753 3.628 L 8.004 3.628 M 8.004 4.028 L 8.004 4.228 L 7.753 4.228 L 7.753 4.028 L 8.004 4.028 M 8.004 4.428 L 8.004 4.628 L 7.753 4.628 L 7.753 4.428 L 8.004 4.428 M 8.004 4.828 L 8.004 5.028 L 7.753 5.028 L 7.753 4.828 L 8.004 4.828 M 8.004 5.228 L 8.004 5.428 L 7.753 5.428 L 7.753 5.228 L 8.004 5.228 M 8.004 5.628 L 8.004 5.828 L 7.753 5.828 L 7.753 5.628 L 8.004 5.628 M 8.004 6.028 M 12.007 6.000 M 12.007 6.000 M 12.007 6.000 L 0.000 6.000" style="fill:none;stroke:black;stroke-width:0.012" />
</g>
</svg>
