<?xml version="1.0"?>
	<!-- Generated by github.com/dustismo/heavyfishdesign -->
	<svg width="18.000in" height="11.000in" viewBox="0.000 0.000 18.000 11.000"
    	xmlns="http://www.w3.org/2000/svg"
		xmlns:xlink="http://www.w3.org/1999/xlink">
	<g transform="translate(0.100 0.100)">
<path id="side_flat_top" d="M 12.007 0.250 L 12.007 0.479 L 12.007 0.582 L 11.757 0.582 L 11.757 0.775 L 12.007 0.775 L 12.007 0.879 L 12.007 0.982 L 11.757 0.982 L 11.757 1.175 L 12.007 1.175 L 12.007 1.279 L 12.007 1.382 L 11.757 1.382 L 11.757 1.575 L 12.007 1.575 L 12.007 1.679 L 12.007 1.782 L 11.757 1.782 L 11.757 1.975 L 12.007 1.975 L 12.007 2.079 L 12.007 2.182 L 11.757 2.182 L 11.757 2.375 L 12.007 2.375 L 12.007 2.479 L 12.007 2.582 L 11.757 2.582 L 11.757 2.775 L 12.007 2.775 L 12.007 2.879 L 12.007 2.982 L 11.757 2.982 L 11.757 3.175 L 12.007 3.175 L 12.007 3.279 L 12.007 3.382 L 11.757 3.382 L 11.757 3.575 L 12.007 3.575 L 12.007 3.679 L 12.007 3.782 L 11.757 3.782 L 11.757 3.975 L 12.007 3.975 L 12.007 4.079 L 12.007 4.182 L 11.757 4.182 L 11.757 4.375 L 12.007 4.375 L 12.007 4.479 L 12.007 4.582 L 11.757 4.582 L 11.757 4.775 L 12.007 4.775 L 12.007 4.879 L 12.007 4.982 L 11.757 4.982 L 11.757 5.175 L 12.007 5.175 L 12.007 5.279 L 12.007 5.382 L 11.757 5.382 L 11.757 5.575 L 12.007 5.575 L 12.007 5.679 L 12.007 5.757 M 0.000 5.757 L 0.000 5.679 L 0.000 5.575 L 0.250 5.575 L 0.250 5.382 L 0.000 5.382 L 0.000 5.279 L 0.000 5.175 L 0.250 5.175 L 0.250 4.982 L 0.000 4.982 L 0.000 4.879 L 0.000 4.775 L 0.250 4.775 L 0.250 4.582 L 0.000 4.582 L 0.000 4.479 L 0.000 4.375 L 0.250 4.375 L 0.250 4.182 L 0.000 4.182 L 0.000 4.079 L 0.000 3.975 L 0.250 3.975 L 0.250 3.782 L 0.000 3.782 L 0.000 3.679 L 0.000 3.575 L 0.250 3.575 L 0.250 3.382 L 0.000 3.382 L 0.000 3.279 L 0.000 3.175 L 0.250 3.175 L 0.250 2.982 L 0.000 2.982 L 0.000 2.879 L 0.000 2.775 L 0.250 2.775 L 0.250 2.582 L 0.000 2.582 L 0.000 2.479 L 0.000 2.375 L 0.250 2.375 L 0.250 2.182 L 0.000 2.182 L 0.000 2.079 L 0.000 1.975 L 0.250 1.975 L 0.250 1.782 L 0.000 1.782 L 0.000 1.679 L 0.000 1.575 L 0.250 1.575 L 0.250 1.382 L 0.000 1.382 L 0.000 1.279 L 0.000 1.175 L 0.250 1.175 L 0.250 0.982 L 0.000 0.982 L 0.000 0.879 L 0.000 0.775 L 0.250 0.775 L 0.250 0.582 L 0.000 0.582 L 0.000 0.479 L 0.000 0.250 L 0.404 0.250 L 0.500 0.250 L 0.500 0.000 L 0.707 0.000 L 0.707 0.250 L 0.803 0.250 L 0.900 0.250 L 0.900 0.000 L 1.107 0.000 L 1.107 0.250 L 1.204 0.250 L 1.300 0.250 L 1.300 0.000 L 1.507 0.000 L 1.507 0.250 L 1.604 0.250 L 1.700 0.250 L 1.700 0.000 L 1.907 0.000 L 1.907 0.250 L 2.003 0.250 L 2.100 0.250 L 2.100 0.000 L 2.307 0.000 L 2.307 0.250 L 2.403 0.250 L 2.500 0.250 L 2.500 0.000 L 2.707 0.000 L 2.707 0.250 L 2.803 0.250 L 2.900 0.250 L 2.900 0.000 L 3.107 0.000 L 3.107 0.250 L 3.204 0.250 L 3.300 0.250 L 3.300 0.000 L 3.507 0.000 L 3.507 0.250 L 3.603 0.250 L 3.700 0.250 L 3.700 0.000 L 3.907 0.000 L 3.907 0.250 L 4.003 0.250 L 4.100 0.250 L 4.100 0.000 L 4.307 0.000 L 4.307 0.250 L 4.404 0.250 L 4.500 0.250 L 4.500 0.000 L 4.707 0.000 L 4.707 0.250 L 4.803 0.250 L 4.900 0.250 L 4.900 0.000 L 5.107 0.000 L 5.107 0.250 L 5.204 0.250 L 5.300 0.250 L 5.300 0.000 L 5.507 0.000 L 5.507 0.250 L 5.603 0.250 L 5.700 0.250 L 5.700 0.000 L 5.907 0.000 L 5.907 0.250 L 6.003 0.250 L 6.100 0.250 L 6.100 0.000 L 6.307 0.000 L 6.307 0.250 L 6.404 0.250 L 6.500 0.250 L 6.500 0.000 L 6.707 0.000 L 6.707 0.250 L 6.803 0.250 L 6.900 0.250 L 6.900 0.000 L 7.107 0.000 L 7.107 0.250 L 7.204 0.250 L 7.300 0.250 L 7.300 0.000 L 7.507 0.000 L 7.507 0.250 L 7.603 0.250 L 7.700 0.250 L 7.700 0.000 L 7.907 0.000 L 7.907 0.250 L 8.004 0.250 L 8.100 0.250 L 8.100 0.000 L 8.307 0.000 L 8.307 0.250 L 8.404 0.250 L 8.500 0.250 L 8.500 0.000 L 8.707 0.000 L 8.707 0.250 L 8.804 0.250 L 8.900 0.250 L 8.900 0.000 L 9.107 0.000 L 9.107 0.250 L 9.204 0.250 L 9.300 0.250 L 9.300 0.000 L 9.507 0.000 L 9.507 0.250 L 9.604 0.250 L 9.700 0.250 L 9.700 0.000 L 9.907 0.000 L 9.907 0.250 L 10.004 0.250 L 10.100 0.250 L 10.100 0.000 L 10.307 0.000 L 10.307 0.250 L 10.404 0.250 L 10.500 0.250 L 10.500 0.000 L 10.707 0.000 L 10.707 0.250 L 10.804 0.250 L 10.900 0.250 L 10.900 0.000 L 11.107 0.000 L 11.107 0.250 L 11.204 0.250 L 11.300 0.250 L 11.300 0.000 L 11.507 0.000 L 11.507 0.250 L 11.604 0.250 L 12.007 0.250 M 6.003 5.579 L 6.003 5.379 L 5.753 5.379 L 5.753 5.579 L 6.003 5.579 M 6.003 5.179 L 6.003 4.979 L 5.753 4.979 L 5.753 5.179 L 6.003 5.179 M 6.003 4.779 L 6.003 4.579 L 5.753 4.579 L 5.753 4.779 L 6.003 4.779 M 6.003 4.379 L 6.004 4.179 L 5.753 4.179 L 5.753 4.379 L 6.003 4.379 M 6.004 3.979 L 6.004 3.779 L 5.754 3.779 L 5.754 3.979 L 6.004 3.979 M 6.004 3.579 L 6.004 3.379 L 5.754 3.379 L 5.754 3.579 L 6.004 3.579 M 6.004 3.179 L 6.004 2.979 L 5.754 2.979 L 5.754 3.179 L 6.004 3.179 M 6.004 2.779 L 6.004 2.579 L 5.754 2.579 L 5.754 2.779 L 6.004 2.779 M 6.004 2.379 L 6.004 2.178 L 5.754 2.178 L 5.754 2.379 L 6.004 2.379 M 6.004 1.979 L 6.004 1.779 L 5.754 1.779 L 5.754 1.979 L 6.004 1.979 M 6.004 1.579 L 6.004 1.379 L 5.754 1.379 L 5.754 1.579 L 6.004 1.579 M 6.004 1.179 L 6.004 0.979 L 5.754 0.979 L 5.754 1.179 L 6.004 1.179 M 6.004 0.779 L 6.004 0.579 L 5.754 0.579 L 5.754 0.779 L 6.004 0.779 M 6.004 0.004 M 0.000 0.000 M 0.000 0.000 M 12.007 5.754 L 0.000 5.754" style="fill:none;stroke:black;stroke-width:0.012" />
</g>
</svg>
