<?xml version="1.0"?>
	<!-- Generated by github.com/dustismo/heavyfishdesign -->
	<svg width="18.000in" height="11.000in" viewBox="0.000 0.000 18.000 11.000"
    	xmlns="http://www.w3.org/2000/svg"
		xmlns:xlink="http://www.w3.org/1999/xlink">
	<g transform="translate(0.100 0.100)">
<path id="side_flat_top" d="M 12.007 0.250 L 12.007 0.579 L 12.007 0.682 L 11.757 0.682 L 11.757 0.875 L 12.007 0.875 L 12.007 0.979 L 12.007 1.082 L 11.757 1.082 L 11.757 1.275 L 12.007 1.275 L 12.007 1.379 L 12.007 1.482 L 11.757 1.482 L 11.757 1.675 L 12.007 1.675 L 12.007 1.779 L 12.007 1.882 L 11.757 1.882 L 11.757 2.075 L 12.007 2.075 L 12.007 2.179 L 12.007 2.282 L 11.757 2.282 L 11.757 2.475 L 12.007 2.475 L 12.007 2.579 L 12.007 2.682 L 11.757 2.682 L 11.757 2.875 L 12.007 2.875 L 12.007 2.979 L 12.007 3.082 L 11.757 3.082 L 11.757 3.275 L 12.007 3.275 L 12.007 3.379 L 12.007 3.482 L 11.757 3.482 L 11.757 3.675 L 12.007 3.675 L 12.007 3.779 L 12.007 3.882 L 11.757 3.882 L 11.757 4.075 L 12.007 4.075 L 12.007 4.179 L 12.007 4.282 L 11.757 4.282 L 11.757 4.475 L 12.007 4.475 L 12.007 4.579 L 12.007 4.682 L 11.757 4.682 L 11.757 4.875 L 12.007 4.875 L 12.007 4.979 L 12.007 5.082 L 11.757 5.082 L 11.757 5.275 L 12.007 5.275 L 12.007 5.379 L 12.007 5.482 L 11.757 5.482 L 11.757 5.675 L 12.007 5.675 L 12.007 5.779 L 12.007 5.882 L 11.757 5.882 L 11.757 6.075 L 12.007 6.075 L 12.007 6.179 L 12.007 6.282 L 11.757 6.282 L 11.757 6.475 L 12.007 6.475 L 12.007 6.511 M 0.000 6.511 L 0.000 6.475 L 0.250 6.475 L 0.250 6.282 L 0.000 6.282 L 0.000 6.179 L 0.000 6.075 L 0.250 6.075 L 0.250 5.882 L 0.000 5.882 L 0.000 5.779 L 0.000 5.675 L 0.250 5.675 L 0.250 5.482 L 0.000 5.482 L 0.000 5.379 L 0.000 5.275 L 0.250 5.275 L 0.250 5.082 L 0.000 5.082 L 0.000 4.979 L 0.000 4.875 L 0.250 4.875 L 0.250 4.682 L 0.000 4.682 L 0.000 4.579 L 0.000 4.475 L 0.250 4.475 L 0.250 4.282 L 0.000 4.282 L 0.000 4.179 L 0.000 4.075 L 0.250 4.075 L 0.250 3.882 L 0.000 3.882 L 0.000 3.779 L 0.000 3.675 L 0.250 3.675 L 0.250 3.482 L 0.000 3.482 L 0.000 3.379 L 0.000 3.275 L 0.250 3.275 L 0.250 3.082 L 0.000 3.082 L 0.000 2.979 L 0.000 2.875 L 0.250 2.875 L 0.250 2.682 L 0.000 2.682 L 0.000 2.579 L 0.000 2.475 L 0.250 2.475 L 0.250 2.282 L 0.000 2.282 L 0.000 2.179 L 0.000 2.075 L 0.250 2.075 L 0.250 1.882 L 0.000 1.882 L 0.000 1.779 L 0.000 1.675 L 0.250 1.675 L 0.250 1.482 L 0.000 1.482 L 0.000 1.379 L 0.000 1.275 L 0.250 1.275 L 0.250 1.082 L 0.000 1.082 L 0.000 0.979 L 0.000 0.875 L 0.250 0.875 L 0.250 0.682 L 0.000 0.682 L 0.000 0.579 L 0.000 0.250 L 0.404 0.250 L 0.500 0.250 L 0.500 0.000 L 0.707 0.000 L 0.707 0.250 L 0.803 0.250 L 0.900 0.250 L 0.900 0.000 L 1.107 0.000 L 1.107 0.250 L 1.204 0.250 L 1.300 0.250 L 1.300 0.000 L 1.507 0.000 L 1.507 0.250 L 1.604 0.250 L 1.700 0.250 L 1.700 0.000 L 1.907 0.000 L 1.907 0.250 L 2.003 0.250 L 2.100 0.250 L 2.100 0.000 L 2.307 0.000 L 2.307 0.250 L 2.403 0.250 L 2.500 0.250 L 2.500 0.000 L 2.707 0.000 L 2.707 0.250 L 2.803 0.250 L 2.900 0.250 L 2.900 0.000 L 3.107 0.000 L 3.107 0.250 L 3.204 0.250 L 3.300 0.250 L 3.300 0.000 L 3.507 0.000 L 3.507 0.250 L 3.603 0.250 L 3.700 0.250 L 3.700 0.000 L 3.907 0.000 L 3.907 0.250 L 4.003 0.250 L 4.100 0.250 L 4.100 0.000 L 4.307 0.000 L 4.307 0.250 L 4.404 0.250 L 4.500 0.250 L 4.500 0.000 L 4.707 0.000 L 4.707 0.250 L 4.803 0.250 L 4.900 0.250 L 4.900 0.000 L 5.107 0.000 L 5.107 0.250 L 5.204 0.250 L 5.300 0.250 L 5.300 0.000 L 5.507 0.000 L 5.507 0.250 L 5.603 0.250 L 5.700 0.250 L 5.700 0.000 L 5.907 0.000 L 5.907 0.250 L 6.003 0.250 L 6.100 0.250 L 6.100 0.000 L 6.307 0.000 L 6.307 0.250 L 6.404 0.250 L 6.500 0.250 L 6.500 0.000 L 6.707 0.000 L 6.707 0.250 L 6.803 0.250 L 6.900 0.250 L 6.900 0.000 L 7.107 0.000 L 7.107 0.250 L 7.204 0.250 L 7.300 0.250 L 7.300 0.000 L 7.507 0.000 L 7.507 0.250 L 7.603 0.250 L 7.700 0.250 L 7.700 0.000 L 7.907 0.000 L 7.907 0.250 L 8.004 0.250 L 8.100 0.250 L 8.100 0.000 L 8.307 0.000 L 8.307 0.250 L 8.404 0.250 L 8.500 0.250 L 8.500 0.000 L 8.707 0.000 L 8.707 0.250 L 8.804 0.250 L 8.900 0.250 L 8.900 0.000 L 9.107 0.000 L 9.107 0.250 L 9.204 0.250 L 9.300 0.250 L 9.300 0.000 L 9.507 0.000 L 9.507 0.250 L 9.604 0.250 L 9.700 0.250 L 9.700 0.000 L 9.907 0.000 L 9.907 0.250 L 10.004 0.250 L 10.100 0.250 L 10.100 0.000 L 10.307 0.000 L 10.307 0.250 L 10.404 0.250 L 10.500 0.250 L 10.500 0.000 L 10.707 0.000 L 10.707 0.250 L 10.804 0.250 L 10.900 0.250 L 10.900 0.000 L 11.107 0.000 L 11.107 0.250 L 11.204 0.250 L 11.300 0.250 L 11.300 0.000 L 11.507 0.000 L 11.507 0.250 L 11.604 0.250 L 12.007 0.250 M 4.003 6.479 L 4.003 6.279 L 3.754 6.279 L 3.754 6.479 L 4.003 6.479 M 4.003 6.079 L 4.003 5.879 L 3.754 5.879 L 3.754 6.079 L 4.003 6.079 M 4.003 5.679 L 4.003 5.479 L 3.754 5.479 L 3.754 5.679 L 4.003 5.679 M 4.003 5.279 L 4.004 5.079 L 3.754 5.079 L 3.754 5.279 L 4.003 5.279 M 4.004 4.879 L 4.004 4.679 L 3.754 4.679 L 3.754 4.879 L 4.004 4.879 M 4.004 4.479 L 4.004 4.279 L 3.754 4.279 L 3.754 4.479 L 4.004 4.479 M 4.004 4.079 L 4.004 3.879 L 3.754 3.879 L 3.754 4.079 L 4.004 4.079 M 4.004 3.679 L 4.004 3.479 L 3.754 3.479 L 3.754 3.679 L 4.004 3.679 M 4.004 3.279 L 4.004 3.079 L 3.754 3.079 L 3.754 3.279 L 4.004 3.279 M 4.004 2.879 L 4.004 2.679 L 3.754 2.679 L 3.754 2.879 L 4.004 2.879 M 4.004 2.479 L 4.004 2.279 L 3.754 2.279 L 3.754 2.479 L 4.004 2.479 M 4.004 2.079 L 4.004 1.879 L 3.754 1.879 L 3.754 2.079 L 4.004 2.079 M 4.004 1.679 L 4.004 1.479 L 3.754 1.479 L 3.754 1.679 L 4.004 1.679 M 4.004 1.279 L 4.004 1.079 L 3.754 1.079 L 3.754 1.279 L 4.004 1.279 M 4.004 0.879 L 4.004 0.678 L 3.754 0.678 L 3.754 0.879 L 4.004 0.879 M 8.004 6.479 L 8.004 6.279 L 7.753 6.279 L 7.753 6.479 L 8.004 6.479 M 8.004 6.079 L 8.004 5.879 L 7.753 5.879 L 7.753 6.079 L 8.004 6.079 M 8.004 5.679 L 8.004 5.479 L 7.753 5.479 L 7.753 5.679 L 8.004 5.679 M 8.004 5.279 L 8.004 5.079 L 7.753 5.079 L 7.753 5.279 L 8.004 5.279 M 8.004 4.879 L 8.004 4.679 L 7.754 4.679 L 7.754 4.879 L 8.004 4.879 M 8.004 4.479 L 8.004 4.279 L 7.754 4.279 L 7.754 4.479 L 8.004 4.479 M 8.004 4.079 L 8.004 3.879 L 7.754 3.879 L 7.754 4.079 L 8.004 4.079 M 8.004 3.679 L 8.004 3.479 L 7.754 3.479 L 7.754 3.679 L 8.004 3.679 M 8.004 3.279 L 8.004 3.079 L 7.754 3.079 L 7.754 3.279 L 8.004 3.279 M 8.004 2.879 L 8.004 2.679 L 7.754 2.679 L 7.754 2.879 L 8.004 2.879 M 8.004 2.479 L 8.004 2.279 L 7.754 2.279 L 7.754 2.479 L 8.004 2.479 M 8.004 2.079 L 8.004 1.879 L 7.754 1.879 L 7.754 2.079 L 8.004 2.079 M 8.004 1.679 L 8.004 1.479 L 7.754 1.479 L 7.754 1.679 L 8.004 1.679 M 8.004 1.279 L 8.004 1.079 L 7.754 1.079 L 7.754 1.279 L 8.004 1.279 M 8.004 0.879 L 8.004 0.678 L 7.754 0.678 L 7.754 0.879 L 8.004 0.879 M 8.004 0.004 M 0.000 0.000 M 0.000 0.000 M 12.007 6.507 L 0.000 6.507" style="fill:none;stroke:black;stroke-width:0.012" />
</g>
</svg>
