<?xml version="1.0"?>
	<!-- Generated by github.com/dustismo/heavyfishdesign -->
	<svg width="18.000in" height="11.000in" viewBox="0.000 0.000 18.000 11.000"
    	xmlns="http://www.w3.org/2000/svg"
		xmlns:xlink="http://www.w3.org/1999/xlink">
	<g transform="rotate(90 12.607 0.100) translate(12.607 0.100)">
<path id="front_flat_top" d="M 2.307 12.257 L 2.403 12.257 L 2.500 12.257 L 2.500 12.507 L 2.707 12.507 L 2.707 12.257 L 2.803 12.257 L 2.900 12.257 L 2.900 12.507 L 3.107 12.507 L 3.107 12.257 L 3.204 12.257 L 3.300 12.257 L 3.300 12.507 L 3.507 12.507 L 3.507 12.257 L 3.603 12.257 L 3.757 12.257 L 3.757 11.929 L 3.757 11.832 L 4.007 11.832 L 4.007 11.625 L 3.757 11.625 L 3.757 11.529 L 3.757 11.432 L 4.007 11.432 L 4.007 11.225 L 3.757 11.225 L 3.757 11.129 L 3.757 11.032 L 4.007 11.032 L 4.007 10.825 L 3.757 10.825 L 3.757 10.729 L 3.757 10.632 L 4.007 10.632 L 4.007 10.425 L 3.757 10.425 L 3.757 10.329 L 3.757 10.232 L 4.007 10.232 L 4.007 10.025 L 3.757 10.025 L 3.757 9.929 L 3.757 9.832 L 4.007 9.832 L 4.007 9.625 L 3.757 9.625 L 3.757 9.529 L 3.757 9.432 L 4.007 9.432 L 4.007 9.225 L 3.757 9.225 L 3.757 9.129 L 3.757 9.032 L 4.007 9.032 L 4.007 8.825 L 3.757 8.825 L 3.757 8.729 L 3.757 8.632 L 4.007 8.632 L 4.007 8.425 L 3.757 8.425 L 3.757 8.329 L 3.757 8.232 L 4.007 8.232 L 4.007 8.025 L 3.757 8.025 L 3.757 7.928 L 3.757 7.832 L 4.007 7.832 L 4.007 7.625 L 3.757 7.625 L 3.757 7.529 L 3.757 7.432 L 4.007 7.432 L 4.007 7.225 L 3.757 7.225 L 3.757 7.128 L 3.757 7.032 L 4.007 7.032 L 4.007 6.825 L 3.757 6.825 L 3.757 6.728 L 3.757 6.632 L 4.007 6.632 L 4.007 6.425 L 3.757 6.425 L 3.757 6.329 L 3.757 6.232 L 4.007 6.232 L 4.007 6.025 L 3.757 6.025 L 3.757 5.928 L 3.757 5.832 L 4.007 5.832 L 4.007 5.625 L 3.757 5.625 L 3.757 5.529 L 3.757 5.432 L 4.007 5.432 L 4.007 5.225 L 3.757 5.225 L 3.757 5.128 L 3.757 5.032 L 4.007 5.032 L 4.007 4.825 L 3.757 4.825 L 3.757 4.728 L 3.757 4.632 L 4.007 4.632 L 4.007 4.425 L 3.757 4.425 L 3.757 4.329 L 3.757 4.232 L 4.007 4.232 L 4.007 4.025 L 3.757 4.025 L 3.757 3.928 L 3.757 3.832 L 4.007 3.832 L 4.007 3.625 L 3.757 3.625 L 3.757 3.528 L 3.757 3.432 L 4.007 3.432 L 4.007 3.225 L 3.757 3.225 L 3.757 3.128 L 3.757 3.032 L 4.007 3.032 L 4.007 2.825 L 3.757 2.825 L 3.757 2.728 L 3.757 2.632 L 4.007 2.632 L 4.007 2.425 L 3.757 2.425 L 3.757 2.329 L 3.757 2.232 L 4.007 2.232 L 4.007 2.025 L 3.757 2.025 L 3.757 1.929 L 3.757 1.832 L 4.007 1.832 L 4.007 1.625 L 3.757 1.625 L 3.757 1.528 L 3.757 1.432 L 4.007 1.432 L 4.007 1.225 L 3.757 1.225 L 3.757 1.129 L 3.757 1.032 L 4.007 1.032 L 4.007 0.825 L 3.757 0.825 L 3.757 0.728 L 3.757 0.632 L 4.007 0.632 L 4.007 0.425 L 3.757 0.425 L 3.757 0.329 L 3.757 0.000 L 0.250 0.000 L 0.250 0.329 L 0.250 0.425 L 0.000 0.425 L 0.000 0.632 L 0.250 0.632 L 0.250 0.728 L 0.250 0.825 L 0.000 0.825 L 0.000 1.032 L 0.250 1.032 L 0.250 1.129 L 0.250 1.225 L 0.000 1.225 L 0.000 1.432 L 0.250 1.432 L 0.250 1.528 L 0.250 1.625 L 0.000 1.625 L 0.000 1.832 L 0.250 1.832 L 0.250 1.929 L 0.250 2.025 L 0.000 2.025 L 0.000 2.232 L 0.250 2.232 L 0.250 2.329 L 0.250 2.425 L 0.000 2.425 L 0.000 2.632 L 0.250 2.632 L 0.250 2.728 L 0.250 2.825 L 0.000 2.825 L 0.000 3.032 L 0.250 3.032 L 0.250 3.128 L 0.250 3.225 L 0.000 3.225 L 0.000 3.432 L 0.250 3.432 L 0.250 3.528 L 0.250 3.625 L 0.000 3.625 L 0.000 3.832 L 0.250 3.832 L 0.250 3.928 L 0.250 4.025 L 0.000 4.025 L 0.000 4.232 L 0.250 4.232 L 0.250 4.329 L 0.250 4.425 L 0.000 4.425 L 0.000 4.632 L 0.250 4.632 L 0.250 4.728 L 0.250 4.825 L 0.000 4.825 L 0.000 5.032 L 0.250 5.032 L 0.250 5.128 L 0.250 5.225 L 0.000 5.225 L 0.000 5.432 L 0.250 5.432 L 0.250 5.529 L 0.250 5.625 L 0.000 5.625 L 0.000 5.832 L 0.250 5.832 L 0.250 5.928 L 0.250 6.025 L 0.000 6.025 L 0.000 6.232 L 0.250 6.232 L 0.250 6.329 L 0.250 6.425 L 0.000 6.425 L 0.000 6.632 L 0.250 6.632 L 0.250 6.728 L 0.250 6.825 L 0.000 6.825 L 0.000 7.032 L 0.250 7.032 L 0.250 7.128 L 0.250 7.225 L 0.000 7.225 L 0.000 7.432 L 0.250 7.432 L 0.250 7.529 L 0.250 7.625 L 0.000 7.625 L 0.000 7.832 L 0.250 7.832 L 0.250 7.928 L 0.250 8.025 L 0.000 8.025 L 0.000 8.232 L 0.250 8.232 L 0.250 8.329 L 0.250 8.425 L 0.000 8.425 L 0.000 8.632 L 0.250 8.632 L 0.250 8.729 L 0.250 8.825 L 0.000 8.825 L 0.000 9.032 L 0.250 9.032 L 0.250 9.129 L 0.250 9.225 L 0.000 9.225 L 0.000 9.432 L 0.250 9.432 L 0.250 9.529 L 0.250 9.625 L 0.000 9.625 L 0.000 9.832 L 0.250 9.832 L 0.250 9.929 L 0.250 10.025 L 0.000 10.025 L 0.000 10.232 L 0.250 10.232 L 0.250 10.329 L 0.250 10.425 L 0.000 10.425 L 0.000 10.632 L 0.250 10.632 L 0.250 10.729 L 0.250 10.825 L 0.000 10.825 L 0.000 11.032 L 0.250 11.032 L 0.250 11.129 L 0.250 11.225 L 0.000 11.225 L 0.000 11.432 L 0.250 11.432 L 0.250 11.529 L 0.250 11.625 L 0.000 11.625 L 0.000 11.832 L 0.250 11.832 L 0.250 11.929 L 0.250 12.257 L 0.404 12.257 L 0.500 12.257 L 0.500 12.507 L 0.707 12.507 L 0.707 12.257 L 0.803 12.257 L 0.900 12.257 L 0.900 12.507 L 1.107 12.507 L 1.107 12.257 L 1.204 12.257 L 1.300 12.257 L 1.300 12.507 L 1.507 12.507 L 1.507 12.257 L 1.604 12.257 L 1.700 12.257 L 1.700 12.507 L 1.907 12.507 L 1.907 12.257 L 2.003 12.257 L 2.100 12.257 L 2.100 12.507 L 2.307 12.507 L 2.307 12.257" style="fill:none;stroke:black;stroke-width:0.012" />
</g>
<g transform="rotate(90 12.607 4.307) translate(12.607 4.307)">
<path id="front_flat_top" d="M 2.307 12.257 L 2.403 12.257 L 2.500 12.257 L 2.500 12.507 L 2.707 12.507 L 2.707 12.257 L 2.803 12.257 L 2.900 12.257 L 2.900 12.507 L 3.107 12.507 L 3.107 12.257 L 3.204 12.257 L 3.300 12.257 L 3.300 12.507 L 3.507 12.507 L 3.507 12.257 L 3.603 12.257 L 3.757 12.257 L 3.757 11.929 L 3.757 11.832 L 4.007 11.832 L 4.007 11.625 L 3.757 11.625 L 3.757 11.529 L 3.757 11.432 L 4.007 11.432 L 4.007 11.225 L 3.757 11.225 L 3.757 11.129 L 3.757 11.032 L 4.007 11.032 L 4.007 10.825 L 3.757 10.825 L 3.757 10.729 L 3.757 10.632 L 4.007 10.632 L 4.007 10.425 L 3.757 10.425 L 3.757 10.329 L 3.757 10.232 L 4.007 10.232 L 4.007 10.025 L 3.757 10.025 L 3.757 9.929 L 3.757 9.832 L 4.007 9.832 L 4.007 9.625 L 3.757 9.625 L 3.757 9.529 L 3.757 9.432 L 4.007 9.432 L 4.007 9.225 L 3.757 9.225 L 3.757 9.129 L 3.757 9.032 L 4.007 9.032 L 4.007 8.825 L 3.757 8.825 L 3.757 8.729 L 3.757 8.632 L 4.007 8.632 L 4.007 8.425 L 3.757 8.425 L 3.757 8.329 L 3.757 8.232 L 4.007 8.232 L 4.007 8.025 L 3.757 8.025 L 3.757 7.928 L 3.757 7.832 L 4.007 7.832 L 4.007 7.625 L 3.757 7.625 L 3.757 7.529 L 3.757 7.432 L 4.007 7.432 L 4.007 7.225 L 3.757 7.225 L 3.757 7.128 L 3.757 7.032 L 4.007 7.032 L 4.007 6.825 L 3.757 6.825 L 3.757 6.728 L 3.757 6.632 L 4.007 6.632 L 4.007 6.425 L 3.757 6.425 L 3.757 6.329 L 3.757 6.232 L 4.007 6.232 L 4.007 6.025 L 3.757 6.025 L 3.757 5.928 L 3.757 5.832 L 4.007 5.832 L 4.007 5.625 L 3.757 5.625 L 3.757 5.529 L 3.757 5.432 L 4.007 5.432 L 4.007 5.225 L 3.757 5.225 L 3.757 5.128 L 3.757 5.032 L 4.007 5.032 L 4.007 4.825 L 3.757 4.825 L 3.757 4.728 L 3.757 4.632 L 4.007 4.632 L 4.007 4.425 L 3.757 4.425 L 3.757 4.329 L 3.757 4.232 L 4.007 4.232 L 4.007 4.025 L 3.757 4.025 L 3.757 3.928 L 3.757 3.832 L 4.007 3.832 L 4.007 3.625 L 3.757 3.625 L 3.757 3.528 L 3.757 3.432 L 4.007 3.432 L 4.007 3.225 L 3.757 3.225 L 3.757 3.128 L 3.757 3.032 L 4.007 3.032 L 4.007 2.825 L 3.757 2.825 L 3.757 2.728 L 3.757 2.632 L 4.007 2.632 L 4.007 2.425 L 3.757 2.425 L 3.757 2.329 L 3.757 2.232 L 4.007 2.232 L 4.007 2.025 L 3.757 2.025 L 3.757 1.929 L 3.757 1.832 L 4.007 1.832 L 4.007 1.625 L 3.757 1.625 L 3.757 1.528 L 3.757 1.432 L 4.007 1.432 L 4.007 1.225 L 3.757 1.225 L 3.757 1.129 L 3.757 1.032 L 4.007 1.032 L 4.007 0.825 L 3.757 0.825 L 3.757 0.728 L 3.757 0.632 L 4.007 0.632 L 4.007 0.425 L 3.757 0.425 L 3.757 0.329 L 3.757 0.000 L 0.250 0.000 L 0.250 0.329 L 0.250 0.425 L 0.000 0.425 L 0.000 0.632 L 0.250 0.632 L 0.250 0.728 L 0.250 0.825 L 0.000 0.825 L 0.000 1.032 L 0.250 1.032 L 0.250 1.129 L 0.250 1.225 L 0.000 1.225 L 0.000 1.432 L 0.250 1.432 L 0.250 1.528 L 0.250 1.625 L 0.000 1.625 L 0.000 1.832 L 0.250 1.832 L 0.250 1.929 L 0.250 2.025 L 0.000 2.025 L 0.000 2.232 L 0.250 2.232 L 0.250 2.329 L 0.250 2.425 L 0.000 2.425 L 0.000 2.632 L 0.250 2.632 L 0.250 2.728 L 0.250 2.825 L 0.000 2.825 L 0.000 3.032 L 0.250 3.032 L 0.250 3.128 L 0.250 3.225 L 0.000 3.225 L 0.000 3.432 L 0.250 3.432 L 0.250 3.528 L 0.250 3.625 L 0.000 3.625 L 0.000 3.832 L 0.250 3.832 L 0.250 3.928 L 0.250 4.025 L 0.000 4.025 L 0.000 4.232 L 0.250 4.232 L 0.250 4.329 L 0.250 4.425 L 0.000 4.425 L 0.000 4.632 L 0.250 4.632 L 0.250 4.728 L 0.250 4.825 L 0.000 4.825 L 0.000 5.032 L 0.250 5.032 L 0.250 5.128 L 0.250 5.225 L 0.000 5.225 L 0.000 5.432 L 0.250 5.432 L 0.250 5.529 L 0.250 5.625 L 0.000 5.625 L 0.000 5.832 L 0.250 5.832 L 0.250 5.928 L 0.250 6.025 L 0.000 6.025 L 0.000 6.232 L 0.250 6.232 L 0.250 6.329 L 0.250 6.425 L 0.000 6.425 L 0.000 6.632 L 0.250 6.632 L 0.250 6.728 L 0.250 6.825 L 0.000 6.825 L 0.000 7.032 L 0.250 7.032 L 0.250 7.128 L 0.250 7.225 L 0.000 7.225 L 0.000 7.432 L 0.250 7.432 L 0.250 7.529 L 0.250 7.625 L 0.000 7.625 L 0.000 7.832 L 0.250 7.832 L 0.250 7.928 L 0.250 8.025 L 0.000 8.025 L 0.000 8.232 L 0.250 8.232 L 0.250 8.329 L 0.250 8.425 L 0.000 8.425 L 0.000 8.632 L 0.250 8.632 L 0.250 8.729 L 0.250 8.825 L 0.000 8.825 L 0.000 9.032 L 0.250 9.032 L 0.250 9.129 L 0.250 9.225 L 0.000 9.225 L 0.000 9.432 L 0.250 9.432 L 0.250 9.529 L 0.250 9.625 L 0.000 9.625 L 0.000 9.832 L 0.250 9.832 L 0.250 9.929 L 0.250 10.025 L 0.000 10.025 L 0.000 10.232 L 0.250 10.232 L 0.250 10.329 L 0.250 10.425 L 0.000 10.425 L 0.000 10.632 L 0.250 10.632 L 0.250 10.729 L 0.250 10.825 L 0.000 10.825 L 0.000 11.032 L 0.250 11.032 L 0.250 11.129 L 0.250 11.225 L 0.000 11.225 L 0.000 11.432 L 0.250 11.432 L 0.250 11.529 L 0.250 11.625 L 0.000 11.625 L 0.000 11.832 L 0.250 11.832 L 0.250 11.929 L 0.250 12.257 L 0.404 12.257 L 0.500 12.257 L 0.500 12.507 L 0.707 12.507 L 0.707 12.257 L 0.803 12.257 L 0.900 12.257 L 0.900 12.507 L 1.107 12.507 L 1.107 12.257 L 1.204 12.257 L 1.300 12.257 L 1.300 12.507 L 1.507 12.507 L 1.507 12.257 L 1.604 12.257 L 1.700 12.257 L 1.700 12.507 L 1.907 12.507 L 1.907 12.257 L 2.003 12.257 L 2.100 12.257 L 2.100 12.507 L 2.307 12.507 L 2.307 12.257" style="fill:none;stroke:black;stroke-width:0.012" />
</g>
</svg>
