<?xml version="1.0"?>
	<!-- Generated by github.com/dustismo/heavyfishdesign -->
	<svg width="18.000in" height="11.000in" viewBox="0.000 0.000 18.000 11.000"
    	xmlns="http://www.w3.org/2000/svg"
		xmlns:xlink="http://www.w3.org/1999/xlink">
	<g transform="translate(0.100 0.100)">
<path id="side_flat_top" d="M 12.007 5.757 L 12.007 5.725 L 11.757 5.725 L 11.757 5.532 L 12.007 5.532 L 12.007 5.428 L 12.007 5.325 L 11.757 5.325 L 11.757 5.132 L 12.007 5.132 L 12.007 5.029 L 12.007 4.925 L 11.757 4.925 L 11.757 4.732 L 12.007 4.732 L 12.007 4.628 L 12.007 4.525 L 11.757 4.525 L 11.757 4.332 L 12.007 4.332 L 12.007 4.228 L 12.007 4.125 L 11.757 4.125 L 11.757 3.932 L 12.007 3.932 L 12.007 3.829 L 12.007 3.725 L 11.757 3.725 L 11.757 3.532 L 12.007 3.532 L 12.007 3.428 L 12.007 3.325 L 11.757 3.325 L 11.757 3.132 L 12.007 3.132 L 12.007 3.028 L 12.007 2.925 L 11.757 2.925 L 11.757 2.732 L 12.007 2.732 L 12.007 2.628 L 12.007 2.525 L 11.757 2.525 L 11.757 2.332 L 12.007 2.332 L 12.007 2.228 L 12.007 2.125 L 11.757 2.125 L 11.757 1.932 L 12.007 1.932 L 12.007 1.829 L 12.007 1.725 L 11.757 1.725 L 11.757 1.532 L 12.007 1.532 L 12.007 1.429 L 12.007 1.325 L 11.757 1.325 L 11.757 1.132 L 12.007 1.132 L 12.007 1.028 L 12.007 0.925 L 11.757 0.925 L 11.757 0.732 L 12.007 0.732 L 12.007 0.628 L 12.007 0.525 L 11.757 0.525 L 11.757 0.332 L 12.007 0.332 L 12.007 0.229 L 12.007 0.000 L 0.000 0.000 L 0.000 0.229 L 0.000 0.332 L 0.250 0.332 L 0.250 0.525 L 0.000 0.525 L 0.000 0.628 L 0.000 0.732 L 0.250 0.732 L 0.250 0.925 L 0.000 0.925 L 0.000 1.028 L 0.000 1.132 L 0.250 1.132 L 0.250 1.325 L 0.000 1.325 L 0.000 1.429 L 0.000 1.532 L 0.250 1.532 L 0.250 1.725 L 0.000 1.725 L 0.000 1.829 L 0.000 1.932 L 0.250 1.932 L 0.250 2.125 L 0.000 2.125 L 0.000 2.228 L 0.000 2.332 L 0.250 2.332 L 0.250 2.525 L 0.000 2.525 L 0.000 2.628 L 0.000 2.732 L 0.250 2.732 L 0.250 2.925 L 0.000 2.925 L 0.000 3.028 L 0.000 3.132 L 0.250 3.132 L 0.250 3.325 L 0.000 3.325 L 0.000 3.428 L 0.000 3.532 L 0.250 3.532 L 0.250 3.725 L 0.000 3.725 L 0.000 3.829 L 0.000 3.932 L 0.250 3.932 L 0.250 4.125 L 0.000 4.125 L 0.000 4.228 L 0.000 4.332 L 0.250 4.332 L 0.250 4.525 L 0.000 4.525 L 0.000 4.628 L 0.000 4.732 L 0.250 4.732 L 0.250 4.925 L 0.000 4.925 L 0.000 5.029 L 0.000 5.132 L 0.250 5.132 L 0.250 5.325 L 0.000 5.325 L 0.000 5.428 L 0.000 5.532 L 0.250 5.532 L 0.250 5.725 L 0.000 5.725 L 0.000 5.757 M 6.003 0.328 L 6.003 0.528 L 5.753 0.528 L 5.753 0.328 L 6.003 0.328 M 6.003 0.728 L 6.003 0.928 L 5.753 0.928 L 5.753 0.728 L 6.003 0.728 M 6.003 1.128 L 6.003 1.328 L 5.753 1.328 L 5.753 1.128 L 6.003 1.128 M 6.003 1.528 L 6.003 1.728 L 5.753 1.728 L 5.753 1.528 L 6.003 1.528 M 6.003 1.928 L 6.003 2.128 L 5.753 2.128 L 5.753 1.928 L 6.003 1.928 M 6.003 2.328 L 6.003 2.528 L 5.753 2.528 L 5.753 2.328 L 6.003 2.328 M 6.003 2.728 L 6.003 2.928 L 5.753 2.928 L 5.753 2.728 L 6.003 2.728 M 6.003 3.128 L 6.003 3.328 L 5.753 3.328 L 5.753 3.128 L 6.003 3.128 M 6.003 3.528 L 6.003 3.728 L 5.753 3.728 L 5.753 3.528 L 6.003 3.528 M 6.003 3.928 L 6.003 4.128 L 5.753 4.128 L 5.753 3.928 L 6.003 3.928 M 6.003 4.328 L 6.003 4.528 L 5.753 4.528 L 5.753 4.328 L 6.003 4.328 M 6.003 4.728 L 6.003 4.928 L 5.753 4.928 L 5.753 4.728 L 6.003 4.728 M 6.003 5.128 L 6.003 5.328 L 5.753 5.328 L 5.753 5.128 L 6.003 5.128 M 6.003 5.528 L 6.003 5.728 L 5.753 5.728 L 5.753 5.528 L 6.003 5.528 M 0.000 0.000 M 0.000 0.000 M 12.007 5.754 L 0.000 5.754" style="fill:none;stroke:black;stroke-width:0.012" />
</g>
</svg>
