<?xml version="1.0"?>
	<!-- Generated by github.com/dustismo/heavyfishdesign -->
	<svg width="18.000in" height="11.000in" viewBox="0.000 0.000 18.000 11.000"
    	xmlns="http://www.w3.org/2000/svg"
		xmlns:xlink="http://www.w3.org/1999/xlink">
	<g transform="rotate(90 12.107 0.100) translate(12.107 0.100)">
<path id="bottom" d="M 5.400 11.757 L 5.207 11.757 L 5.207 12.007 L 5.103 12.007 L 5.000 12.007 L 5.000 11.757 L 4.807 11.757 L 4.807 12.007 L 4.704 12.007 L 4.600 12.007 L 4.600 11.757 L 4.407 11.757 L 4.407 12.007 L 4.303 12.007 L 4.200 12.007 L 4.200 11.757 L 4.007 11.757 L 4.007 12.007 L 3.903 12.007 L 3.800 12.007 L 3.800 11.757 L 3.607 11.757 L 3.607 12.007 L 3.503 12.007 L 3.400 12.007 L 3.400 11.757 L 3.207 11.757 L 3.207 12.007 L 3.103 12.007 L 3.000 12.007 L 3.000 11.757 L 2.807 11.757 L 2.807 12.007 L 2.704 12.007 L 2.600 12.007 L 2.600 11.757 L 2.407 11.757 L 2.407 12.007 L 2.303 12.007 L 2.200 12.007 L 2.200 11.757 L 2.007 11.757 L 2.007 12.007 L 1.903 12.007 L 1.800 12.007 L 1.800 11.757 L 1.607 11.757 L 1.607 12.007 L 1.504 12.007 L 1.400 12.007 L 1.400 11.757 L 1.207 11.757 L 1.207 12.007 L 1.104 12.007 L 1.000 12.007 L 1.000 11.757 L 0.807 11.757 L 0.807 12.007 L 0.703 12.007 L 0.600 12.007 L 0.600 11.757 L 0.407 11.757 L 0.407 12.007 L 0.303 12.007 L 0.000 12.007 L 0.000 11.604 L 0.000 11.500 L 0.250 11.500 L 0.250 11.307 L 0.000 11.307 L 0.000 11.204 L 0.000 11.100 L 0.250 11.100 L 0.250 10.907 L 0.000 10.907 L 0.000 10.804 L 0.000 10.700 L 0.250 10.700 L 0.250 10.507 L 0.000 10.507 L 0.000 10.404 L 0.000 10.300 L 0.250 10.300 L 0.250 10.107 L 0.000 10.107 L 0.000 10.004 L 0.000 9.900 L 0.250 9.900 L 0.250 9.707 L 0.000 9.707 L 0.000 9.604 L 0.000 9.500 L 0.250 9.500 L 0.250 9.307 L 0.000 9.307 L 0.000 9.204 L 0.000 9.100 L 0.250 9.100 L 0.250 8.907 L 0.000 8.907 L 0.000 8.804 L 0.000 8.700 L 0.250 8.700 L 0.250 8.507 L 0.000 8.507 L 0.000 8.404 L 0.000 8.300 L 0.250 8.300 L 0.250 8.107 L 0.000 8.107 L 0.000 8.004 L 0.000 7.900 L 0.250 7.900 L 0.250 7.707 L 0.000 7.707 L 0.000 7.603 L 0.000 7.500 L 0.250 7.500 L 0.250 7.307 L 0.000 7.307 L 0.000 7.204 L 0.000 7.100 L 0.250 7.100 L 0.250 6.907 L 0.000 6.907 L 0.000 6.803 L 0.000 6.700 L 0.250 6.700 L 0.250 6.507 L 0.000 6.507 L 0.000 6.404 L 0.000 6.300 L 0.250 6.300 L 0.250 6.107 L 0.000 6.107 L 0.000 6.003 L 0.000 5.900 L 0.250 5.900 L 0.250 5.707 L 0.000 5.707 L 0.000 5.603 L 0.000 5.500 L 0.250 5.500 L 0.250 5.307 L 0.000 5.307 L 0.000 5.204 L 0.000 5.100 L 0.250 5.100 L 0.250 4.907 L 0.000 4.907 L 0.000 4.803 L 0.000 4.700 L 0.250 4.700 L 0.250 4.507 L 0.000 4.507 L 0.000 4.404 L 0.000 4.300 L 0.250 4.300 L 0.250 4.107 L 0.000 4.107 L 0.000 4.003 L 0.000 3.900 L 0.250 3.900 L 0.250 3.707 L 0.000 3.707 L 0.000 3.603 L 0.000 3.500 L 0.250 3.500 L 0.250 3.307 L 0.000 3.307 L 0.000 3.204 L 0.000 3.100 L 0.250 3.100 L 0.250 2.907 L 0.000 2.907 L 0.000 2.803 L 0.000 2.700 L 0.250 2.700 L 0.250 2.507 L 0.000 2.507 L 0.000 2.403 L 0.000 2.300 L 0.250 2.300 L 0.250 2.107 L 0.000 2.107 L 0.000 2.003 L 0.000 1.900 L 0.250 1.900 L 0.250 1.707 L 0.000 1.707 L 0.000 1.604 L 0.000 1.500 L 0.250 1.500 L 0.250 1.307 L 0.000 1.307 L 0.000 1.204 L 0.000 1.100 L 0.250 1.100 L 0.250 0.907 L 0.000 0.907 L 0.000 0.803 L 0.000 0.700 L 0.250 0.700 L 0.250 0.507 L 0.000 0.507 L 0.000 0.404 L 0.000 0.000 L 0.303 0.000 L 0.407 0.000 L 0.407 0.250 L 0.600 0.250 L 0.600 0.000 L 0.703 0.000 L 0.807 0.000 L 0.807 0.250 L 1.000 0.250 L 1.000 0.000 L 1.104 0.000 L 1.207 0.000 L 1.207 0.250 L 1.400 0.250 L 1.400 0.000 L 1.504 0.000 L 1.607 0.000 L 1.607 0.250 L 1.800 0.250 L 1.800 0.000 L 1.903 0.000 L 2.007 0.000 L 2.007 0.250 L 2.200 0.250 L 2.200 0.000 L 2.303 0.000 L 2.407 0.000 L 2.407 0.250 L 2.600 0.250 L 2.600 0.000 L 2.704 0.000 L 2.807 0.000 L 2.807 0.250 L 3.000 0.250 L 3.000 0.000 L 3.103 0.000 L 3.207 0.000 L 3.207 0.250 L 3.400 0.250 L 3.400 0.000 L 3.503 0.000 L 3.607 0.000 L 3.607 0.250 L 3.800 0.250 L 3.800 0.000 L 3.903 0.000 L 4.007 0.000 L 4.007 0.250 L 4.200 0.250 L 4.200 0.000 L 4.303 0.000 L 4.407 0.000 L 4.407 0.250 L 4.600 0.250 L 4.600 0.000 L 4.704 0.000 L 4.807 0.000 L 4.807 0.250 L 5.000 0.250 L 5.000 0.000 L 5.103 0.000 L 5.207 0.000 L 5.207 0.250 L 5.400 0.250 L 5.400 0.000 L 5.503 0.000 L 5.607 0.000 L 5.607 0.250 L 5.800 0.250 L 5.800 0.000 L 5.904 0.000 L 6.007 0.000 L 6.007 0.250 L 6.200 0.250 L 6.200 0.000 L 6.303 0.000 L 6.407 0.000 L 6.407 0.250 L 6.600 0.250 L 6.600 0.000 L 6.704 0.000 L 6.807 0.000 L 6.807 0.250 L 7.000 0.250 L 7.000 0.000 L 7.103 0.000 L 7.207 0.000 L 7.207 0.250 L 7.400 0.250 L 7.400 0.000 L 7.503 0.000 L 7.607 0.000 L 7.607 0.250 L 7.800 0.250 L 7.800 0.000 L 7.904 0.000 L 8.007 0.000 L 8.007 0.250 L 8.200 0.250 L 8.200 0.000 L 8.304 0.000 L 8.407 0.000 L 8.407 0.250 L 8.600 0.250 L 8.600 0.000 L 8.704 0.000 L 9.007 0.000 L 9.007 0.404 L 9.007 0.507 L 8.757 0.507 L 8.757 0.700 L 9.007 0.700 L 9.007 0.803 L 9.007 0.907 L 8.757 0.907 L 8.757 1.100 L 9.007 1.100 L 9.007 1.204 L 9.007 1.307 L 8.757 1.307 L 8.757 1.500 L 9.007 1.500 L 9.007 1.604 L 9.007 1.707 L 8.757 1.707 L 8.757 1.900 L 9.007 1.900 L 9.007 2.003 L 9.007 2.107 L 8.757 2.107 L 8.757 2.300 L 9.007 2.300 L 9.007 2.403 L 9.007 2.507 L 8.757 2.507 L 8.757 2.700 L 9.007 2.700 L 9.007 2.803 L 9.007 2.907 L 8.757 2.907 L 8.757 3.100 L 9.007 3.100 L 9.007 3.204 L 9.007 3.307 L 8.757 3.307 L 8.757 3.500 L 9.007 3.500 L 9.007 3.603 L 9.007 3.707 L 8.757 3.707 L 8.757 3.900 L 9.007 3.900 L 9.007 4.003 L 9.007 4.107 L 8.757 4.107 L 8.757 4.300 L 9.007 4.300 L 9.007 4.404 L 9.007 4.507 L 8.757 4.507 L 8.757 4.700 L 9.007 4.700 L 9.007 4.803 L 9.007 4.907 L 8.757 4.907 L 8.757 5.100 L 9.007 5.100 L 9.007 5.204 L 9.007 5.307 L 8.757 5.307 L 8.757 5.500 L 9.007 5.500 L 9.007 5.603 L 9.007 5.707 L 8.757 5.707 L 8.757 5.900 L 9.007 5.900 L 9.007 6.003 L 9.007 6.107 L 8.757 6.107 L 8.757 6.300 L 9.007 6.300 L 9.007 6.404 L 9.007 6.507 L 8.757 6.507 L 8.757 6.700 L 9.007 6.700 L 9.007 6.803 L 9.007 6.907 L 8.757 6.907 L 8.757 7.100 L 9.007 7.100 L 9.007 7.204 L 9.007 7.307 L 8.757 7.307 L 8.757 7.500 L 9.007 7.500 L 9.007 7.603 L 9.007 7.707 L 8.757 7.707 L 8.757 7.900 L 9.007 7.900 L 9.007 8.004 L 9.007 8.107 L 8.757 8.107 L 8.757 8.300 L 9.007 8.300 L 9.007 8.404 L 9.007 8.507 L 8.757 8.507 L 8.757 8.700 L 9.007 8.700 L 9.007 8.804 L 9.007 8.907 L 8.757 8.907 L 8.757 9.100 L 9.007 9.100 L 9.007 9.204 L 9.007 9.307 L 8.757 9.307 L 8.757 9.500 L 9.007 9.500 L 9.007 9.604 L 9.007 9.707 L 8.757 9.707 L 8.757 9.900 L 9.007 9.900 L 9.007 10.004 L 9.007 10.107 L 8.757 10.107 L 8.757 10.300 L 9.007 10.300 L 9.007 10.404 L 9.007 10.507 L 8.757 10.507 L 8.757 10.700 L 9.007 10.700 L 9.007 10.804 L 9.007 10.907 L 8.757 10.907 L 8.757 11.100 L 9.007 11.100 L 9.007 11.204 L 9.007 11.307 L 8.757 11.307 L 8.757 11.500 L 9.007 11.500 L 9.007 11.604 L 9.007 12.007 L 8.704 12.007 L 8.600 12.007 L 8.600 11.757 L 8.407 11.757 L 8.407 12.007 L 8.304 12.007 L 8.200 12.007 L 8.200 11.757 L 8.007 11.757 L 8.007 12.007 L 7.904 12.007 L 7.800 12.007 L 7.800 11.757 L 7.607 11.757 L 7.607 12.007 L 7.503 12.007 L 7.400 12.007 L 7.400 11.757 L 7.207 11.757 L 7.207 12.007 L 7.103 12.007 L 7.000 12.007 L 7.000 11.757 L 6.807 11.757 L 6.807 12.007 L 6.704 12.007 L 6.600 12.007 L 6.600 11.757 L 6.407 11.757 L 6.407 12.007 L 6.303 12.007 L 6.200 12.007 L 6.200 11.757 L 6.007 11.757 L 6.007 12.007 L 5.904 12.007 L 5.800 12.007 L 5.800 11.757 L 5.607 11.757 L 5.607 12.007 L 5.503 12.007 L 5.400 12.007 L 5.400 11.757 M 0.403 6.003 L 0.603 6.003 L 0.603 6.253 L 0.403 6.253 L 0.403 6.003 M 0.803 6.003 L 1.003 6.003 L 1.003 6.253 L 0.803 6.253 L 0.803 6.003 M 1.203 6.003 L 1.403 6.003 L 1.403 6.253 L 1.203 6.253 L 1.203 6.003 M 1.603 6.003 L 1.803 6.003 L 1.803 6.253 L 1.603 6.253 L 1.603 6.003 M 2.003 6.003 L 2.203 6.003 L 2.203 6.253 L 2.003 6.253 L 2.003 6.003 M 2.403 6.003 L 2.603 6.003 L 2.603 6.253 L 2.403 6.253 L 2.403 6.003 M 2.803 6.003 L 3.003 6.003 L 3.003 6.253 L 2.803 6.253 L 2.803 6.003 M 3.203 6.003 L 3.403 6.003 L 3.403 6.253 L 3.203 6.253 L 3.203 6.003 M 3.603 6.003 L 3.803 6.003 L 3.803 6.253 L 3.603 6.253 L 3.603 6.003 M 4.003 6.003 L 4.203 6.003 L 4.203 6.253 L 4.003 6.253 L 4.003 6.003 M 4.403 6.003 L 4.603 6.003 L 4.603 6.253 L 4.403 6.253 L 4.403 6.003 M 4.803 6.003 L 5.003 6.003 L 5.003 6.253 L 4.803 6.253 L 4.803 6.003 M 5.203 6.003 L 5.403 6.003 L 5.403 6.253 L 5.203 6.253 L 5.203 6.003 M 5.603 6.003 L 5.803 6.003 L 5.803 6.253 L 5.603 6.253 L 5.603 6.003 M 6.003 6.003 L 6.204 6.003 L 6.204 6.253 L 6.003 6.253 L 6.003 6.003 M 6.403 6.003 L 6.603 6.003 L 6.603 6.253 L 6.403 6.253 L 6.403 6.003 M 6.803 6.003 L 7.003 6.003 L 7.003 6.253 L 6.803 6.253 L 6.803 6.003 M 7.204 6.003 L 7.404 6.003 L 7.404 6.253 L 7.204 6.253 L 7.204 6.003 M 7.603 6.003 L 7.803 6.003 L 7.803 6.253 L 7.603 6.253 L 7.603 6.003 M 8.004 6.003 L 8.204 6.003 L 8.204 6.253 L 8.004 6.253 L 8.004 6.003 M 8.404 6.003 L 8.604 6.003 L 8.604 6.253 L 8.404 6.253 L 8.404 6.003 M 9.004 6.003" style="fill:none;stroke:black;stroke-width:0.012" />
</g>
</svg>
