<?xml version="1.0"?>
	<!-- Generated by github.com/dustismo/heavyfishdesign -->
	<svg width="18.000in" height="11.000in" viewBox="0.000 0.000 18.000 11.000"
    	xmlns="http://www.w3.org/2000/svg"
		xmlns:xlink="http://www.w3.org/1999/xlink">
	<g transform="rotate(90 11.607 0.100) translate(11.607 0.100)">
<path id="front_flat_top" d="M 8.757 11.257 L 8.757 11.029 L 8.757 10.932 L 9.007 10.932 L 9.007 10.725 L 8.757 10.725 L 8.757 10.629 L 8.757 10.532 L 9.007 10.532 L 9.007 10.325 L 8.757 10.325 L 8.757 10.229 L 8.757 10.132 L 9.007 10.132 L 9.007 9.925 L 8.757 9.925 L 8.757 9.829 L 8.757 9.732 L 9.007 9.732 L 9.007 9.525 L 8.757 9.525 L 8.757 9.429 L 8.757 9.332 L 9.007 9.332 L 9.007 9.125 L 8.757 9.125 L 8.757 9.029 L 8.757 8.932 L 9.007 8.932 L 9.007 8.725 L 8.757 8.725 L 8.757 8.629 L 8.757 8.532 L 9.007 8.532 L 9.007 8.325 L 8.757 8.325 L 8.757 8.229 L 8.757 8.132 L 9.007 8.132 L 9.007 7.925 L 8.757 7.925 L 8.757 7.829 L 8.757 7.732 L 9.007 7.732 L 9.007 7.525 L 8.757 7.525 L 8.757 7.428 L 8.757 7.332 L 9.007 7.332 L 9.007 7.125 L 8.757 7.125 L 8.757 7.029 L 8.757 6.932 L 9.007 6.932 L 9.007 6.725 L 8.757 6.725 L 8.757 6.628 L 8.757 6.532 L 9.007 6.532 L 9.007 6.325 L 8.757 6.325 L 8.757 6.228 L 8.757 6.132 L 9.007 6.132 L 9.007 5.925 L 8.757 5.925 L 8.757 5.829 L 8.757 5.732 L 9.007 5.732 L 9.007 5.525 L 8.757 5.525 L 8.757 5.428 L 8.757 5.332 L 9.007 5.332 L 9.007 5.125 L 8.757 5.125 L 8.757 5.029 L 8.757 4.932 L 9.007 4.932 L 9.007 4.725 L 8.757 4.725 L 8.757 4.628 L 8.757 4.532 L 9.007 4.532 L 9.007 4.325 L 8.757 4.325 L 8.757 4.228 L 8.757 4.132 L 9.007 4.132 L 9.007 3.925 L 8.757 3.925 L 8.757 3.829 L 8.757 3.732 L 9.007 3.732 L 9.007 3.525 L 8.757 3.525 L 8.757 3.428 L 8.757 3.332 L 9.007 3.332 L 9.007 3.125 L 8.757 3.125 L 8.757 3.028 L 8.757 2.932 L 9.007 2.932 L 9.007 2.725 L 8.757 2.725 L 8.757 2.628 L 8.757 2.532 L 9.007 2.532 L 9.007 2.325 L 8.757 2.325 L 8.757 2.228 L 8.757 2.132 L 9.007 2.132 L 9.007 1.925 L 8.757 1.925 L 8.757 1.829 L 8.757 1.732 L 9.007 1.732 L 9.007 1.525 L 8.757 1.525 L 8.757 1.429 L 8.757 1.332 L 9.007 1.332 L 9.007 1.125 L 8.757 1.125 L 8.757 1.028 L 8.757 0.932 L 9.007 0.932 L 9.007 0.725 L 8.757 0.725 L 8.757 0.628 L 8.757 0.532 L 9.007 0.532 L 9.007 0.325 L 8.757 0.325 L 8.757 0.229 L 8.757 0.000 L 0.250 0.000 L 0.250 0.229 L 0.250 0.325 L 0.000 0.325 L 0.000 0.532 L 0.250 0.532 L 0.250 0.628 L 0.250 0.725 L 0.000 0.725 L 0.000 0.932 L 0.250 0.932 L 0.250 1.028 L 0.250 1.125 L 0.000 1.125 L 0.000 1.332 L 0.250 1.332 L 0.250 1.429 L 0.250 1.525 L 0.000 1.525 L 0.000 1.732 L 0.250 1.732 L 0.250 1.829 L 0.250 1.925 L 0.000 1.925 L 0.000 2.132 L 0.250 2.132 L 0.250 2.228 L 0.250 2.325 L 0.000 2.325 L 0.000 2.532 L 0.250 2.532 L 0.250 2.628 L 0.250 2.725 L 0.000 2.725 L 0.000 2.932 L 0.250 2.932 L 0.250 3.028 L 0.250 3.125 L 0.000 3.125 L 0.000 3.332 L 0.250 3.332 L 0.250 3.428 L 0.250 3.525 L 0.000 3.525 L 0.000 3.732 L 0.250 3.732 L 0.250 3.829 L 0.250 3.925 L 0.000 3.925 L 0.000 4.132 L 0.250 4.132 L 0.250 4.228 L 0.250 4.325 L 0.000 4.325 L 0.000 4.532 L 0.250 4.532 L 0.250 4.628 L 0.250 4.725 L 0.000 4.725 L 0.000 4.932 L 0.250 4.932 L 0.250 5.029 L 0.250 5.125 L 0.000 5.125 L 0.000 5.332 L 0.250 5.332 L 0.250 5.428 L 0.250 5.525 L 0.000 5.525 L 0.000 5.732 L 0.250 5.732 L 0.250 5.829 L 0.250 5.925 L 0.000 5.925 L 0.000 6.132 L 0.250 6.132 L 0.250 6.228 L 0.250 6.325 L 0.000 6.325 L 0.000 6.532 L 0.250 6.532 L 0.250 6.628 L 0.250 6.725 L 0.000 6.725 L 0.000 6.932 L 0.250 6.932 L 0.250 7.029 L 0.250 7.125 L 0.000 7.125 L 0.000 7.332 L 0.250 7.332 L 0.250 7.428 L 0.250 7.525 L 0.000 7.525 L 0.000 7.732 L 0.250 7.732 L 0.250 7.829 L 0.250 7.925 L 0.000 7.925 L 0.000 8.132 L 0.250 8.132 L 0.250 8.229 L 0.250 8.325 L 0.000 8.325 L 0.000 8.532 L 0.250 8.532 L 0.250 8.629 L 0.250 8.725 L 0.000 8.725 L 0.000 8.932 L 0.250 8.932 L 0.250 9.029 L 0.250 9.125 L 0.000 9.125 L 0.000 9.332 L 0.250 9.332 L 0.250 9.429 L 0.250 9.525 L 0.000 9.525 L 0.000 9.732 L 0.250 9.732 L 0.250 9.829 L 0.250 9.925 L 0.000 9.925 L 0.000 10.132 L 0.250 10.132 L 0.250 10.229 L 0.250 10.325 L 0.000 10.325 L 0.000 10.532 L 0.250 10.532 L 0.250 10.629 L 0.250 10.725 L 0.000 10.725 L 0.000 10.932 L 0.250 10.932 L 0.250 11.029 L 0.250 11.257 L 0.303 11.257 L 0.400 11.257 L 0.400 11.507 L 0.607 11.507 L 0.607 11.257 L 0.703 11.257 L 0.800 11.257 L 0.800 11.507 L 1.007 11.507 L 1.007 11.257 L 1.104 11.257 L 1.200 11.257 L 1.200 11.507 L 1.407 11.507 L 1.407 11.257 L 1.504 11.257 L 1.600 11.257 L 1.600 11.507 L 1.807 11.507 L 1.807 11.257 L 1.903 11.257 L 2.000 11.257 L 2.000 11.507 L 2.207 11.507 L 2.207 11.257 L 2.303 11.257 L 2.400 11.257 L 2.400 11.507 L 2.607 11.507 L 2.607 11.257 L 2.704 11.257 L 2.800 11.257 L 2.800 11.507 L 3.007 11.507 L 3.007 11.257 L 3.103 11.257 L 3.200 11.257 L 3.200 11.507 L 3.407 11.507 L 3.407 11.257 L 3.503 11.257 L 3.600 11.257 L 3.600 11.507 L 3.807 11.507 L 3.807 11.257 L 3.903 11.257 L 4.000 11.257 L 4.000 11.507 L 4.207 11.507 L 4.207 11.257 L 4.303 11.257 L 4.400 11.257 L 4.400 11.507 L 4.607 11.507 L 4.607 11.257 L 4.704 11.257 L 4.800 11.257 L 4.800 11.507 L 5.007 11.507 L 5.007 11.257 L 5.103 11.257 L 5.200 11.257 L 5.200 11.507 L 5.407 11.507 L 5.407 11.257 L 5.503 11.257 L 5.600 11.257 L 5.600 11.507 L 5.807 11.507 L 5.807 11.257 L 5.904 11.257 L 6.000 11.257 L 6.000 11.507 L 6.207 11.507 L 6.207 11.257 L 6.303 11.257 L 6.400 11.257 L 6.400 11.507 L 6.607 11.507 L 6.607 11.257 L 6.704 11.257 L 6.800 11.257 L 6.800 11.507 L 7.007 11.507 L 7.007 11.257 L 7.103 11.257 L 7.200 11.257 L 7.200 11.507 L 7.407 11.507 L 7.407 11.257 L 7.503 11.257 L 7.600 11.257 L 7.600 11.507 L 7.807 11.507 L 7.807 11.257 L 7.904 11.257 L 8.000 11.257 L 8.000 11.507 L 8.207 11.507 L 8.207 11.257 L 8.304 11.257 L 8.400 11.257 L 8.400 11.507 L 8.607 11.507 L 8.607 11.257 L 8.704 11.257 L 8.757 11.257" style="fill:none;stroke:black;stroke-width:0.012" />
</g>
</svg>
