<?xml version="1.0"?>
	<!-- Generated by github.com/dustismo/heavyfishdesign -->
	<svg width="18.000in" height="11.000in" viewBox="0.000 0.000 18.000 11.000"
    	xmlns="http://www.w3.org/2000/svg"
		xmlns:xlink="http://www.w3.org/1999/xlink">
	<g transform="translate(0.100 0.100)">
<path id="side_flat_top" d="M 12.007 6.261 L 12.007 5.932 L 12.007 5.829 L 11.757 5.829 L 11.757 5.636 L 12.007 5.636 L 12.007 5.532 L 12.007 5.429 L 11.757 5.429 L 11.757 5.236 L 12.007 5.236 L 12.007 5.132 L 12.007 5.029 L 11.757 5.029 L 11.757 4.836 L 12.007 4.836 L 12.007 4.732 L 12.007 4.628 L 11.757 4.628 L 11.757 4.436 L 12.007 4.436 L 12.007 4.332 L 12.007 4.229 L 11.757 4.229 L 11.757 4.035 L 12.007 4.035 L 12.007 3.932 L 12.007 3.829 L 11.757 3.829 L 11.757 3.636 L 12.007 3.636 L 12.007 3.532 L 12.007 3.429 L 11.757 3.429 L 11.757 3.236 L 12.007 3.236 L 12.007 3.132 L 12.007 3.029 L 11.757 3.029 L 11.757 2.836 L 12.007 2.836 L 12.007 2.732 L 12.007 2.628 L 11.757 2.628 L 11.757 2.436 L 12.007 2.436 L 12.007 2.332 L 12.007 2.229 L 11.757 2.229 L 11.757 2.035 L 12.007 2.035 L 12.007 1.932 L 12.007 1.829 L 11.757 1.829 L 11.757 1.635 L 12.007 1.635 L 12.007 1.532 L 12.007 1.428 L 11.757 1.428 L 11.757 1.236 L 12.007 1.236 L 12.007 1.132 L 12.007 1.028 L 11.757 1.028 L 11.757 0.835 L 12.007 0.835 L 12.007 0.732 L 12.007 0.628 L 11.757 0.628 L 11.757 0.435 L 12.007 0.435 L 12.007 0.332 L 12.007 0.228 L 11.757 0.228 L 11.757 0.035 L 12.007 0.035 L 12.007 0.000 M 0.000 0.000 L 0.000 0.035 L 0.250 0.035 L 0.250 0.228 L 0.000 0.228 L 0.000 0.332 L 0.000 0.435 L 0.250 0.435 L 0.250 0.628 L 0.000 0.628 L 0.000 0.732 L 0.000 0.835 L 0.250 0.835 L 0.250 1.028 L 0.000 1.028 L 0.000 1.132 L 0.000 1.236 L 0.250 1.236 L 0.250 1.428 L 0.000 1.428 L 0.000 1.532 L 0.000 1.635 L 0.250 1.635 L 0.250 1.829 L 0.000 1.829 L 0.000 1.932 L 0.000 2.035 L 0.250 2.035 L 0.250 2.229 L 0.000 2.229 L 0.000 2.332 L 0.000 2.436 L 0.250 2.436 L 0.250 2.628 L 0.000 2.628 L 0.000 2.732 L 0.000 2.836 L 0.250 2.836 L 0.250 3.029 L 0.000 3.029 L 0.000 3.132 L 0.000 3.236 L 0.250 3.236 L 0.250 3.429 L 0.000 3.429 L 0.000 3.532 L 0.000 3.636 L 0.250 3.636 L 0.250 3.829 L 0.000 3.829 L 0.000 3.932 L 0.000 4.035 L 0.250 4.035 L 0.250 4.229 L 0.000 4.229 L 0.000 4.332 L 0.000 4.436 L 0.250 4.436 L 0.250 4.628 L 0.000 4.628 L 0.000 4.732 L 0.000 4.836 L 0.250 4.836 L 0.250 5.029 L 0.000 5.029 L 0.000 5.132 L 0.000 5.236 L 0.250 5.236 L 0.250 5.429 L 0.000 5.429 L 0.000 5.532 L 0.000 5.636 L 0.250 5.636 L 0.250 5.829 L 0.000 5.829 L 0.000 5.932 L 0.000 6.261 L 0.404 6.261 L 0.500 6.261 L 0.500 6.511 L 0.707 6.511 L 0.707 6.261 L 0.803 6.261 L 0.900 6.261 L 0.900 6.511 L 1.107 6.511 L 1.107 6.261 L 1.204 6.261 L 1.300 6.261 L 1.300 6.511 L 1.507 6.511 L 1.507 6.261 L 1.604 6.261 L 1.700 6.261 L 1.700 6.511 L 1.907 6.511 L 1.907 6.261 L 2.003 6.261 L 2.100 6.261 L 2.100 6.511 L 2.307 6.511 L 2.307 6.261 L 2.403 6.261 L 2.500 6.261 L 2.500 6.511 L 2.707 6.511 L 2.707 6.261 L 2.803 6.261 L 2.900 6.261 L 2.900 6.511 L 3.107 6.511 L 3.107 6.261 L 3.204 6.261 L 3.300 6.261 L 3.300 6.511 L 3.507 6.511 L 3.507 6.261 L 3.603 6.261 L 3.700 6.261 L 3.700 6.511 L 3.907 6.511 L 3.907 6.261 L 4.003 6.261 L 4.100 6.261 L 4.100 6.511 L 4.307 6.511 L 4.307 6.261 L 4.404 6.261 L 4.500 6.261 L 4.500 6.511 L 4.707 6.511 L 4.707 6.261 L 4.803 6.261 L 4.900 6.261 L 4.900 6.511 L 5.107 6.511 L 5.107 6.261 L 5.204 6.261 L 5.300 6.261 L 5.300 6.511 L 5.507 6.511 L 5.507 6.261 L 5.603 6.261 L 5.700 6.261 L 5.700 6.511 L 5.907 6.511 L 5.907 6.261 L 6.003 6.261 L 6.100 6.261 L 6.100 6.511 L 6.307 6.511 L 6.307 6.261 L 6.404 6.261 L 6.500 6.261 L 6.500 6.511 L 6.707 6.511 L 6.707 6.261 L 6.803 6.261 L 6.900 6.261 L 6.900 6.511 L 7.107 6.511 L 7.107 6.261 L 7.204 6.261 L 7.300 6.261 L 7.300 6.511 L 7.507 6.511 L 7.507 6.261 L 7.603 6.261 L 7.700 6.261 L 7.700 6.511 L 7.907 6.511 L 7.907 6.261 L 8.004 6.261 L 8.100 6.261 L 8.100 6.511 L 8.307 6.511 L 8.307 6.261 L 8.404 6.261 L 8.500 6.261 L 8.500 6.511 L 8.707 6.511 L 8.707 6.261 L 8.804 6.261 L 8.900 6.261 L 8.900 6.511 L 9.107 6.511 L 9.107 6.261 L 9.204 6.261 L 9.300 6.261 L 9.300 6.511 L 9.507 6.511 L 9.507 6.261 L 9.604 6.261 L 9.700 6.261 L 9.700 6.511 L 9.907 6.511 L 9.907 6.261 L 10.004 6.261 L 10.100 6.261 L 10.100 6.511 L 10.307 6.511 L 10.307 6.261 L 10.404 6.261 L 10.500 6.261 L 10.500 6.511 L 10.707 6.511 L 10.707 6.261 L 10.804 6.261 L 10.900 6.261 L 10.900 6.511 L 11.107 6.511 L 11.107 6.261 L 11.204 6.261 L 11.300 6.261 L 11.300 6.511 L 11.507 6.511 L 11.507 6.261 L 11.604 6.261 L 12.007 6.261 M 4.003 0.032 L 4.003 0.232 L 3.754 0.232 L 3.754 0.032 L 4.003 0.032 M 4.003 0.432 L 4.003 0.632 L 3.754 0.632 L 3.754 0.432 L 4.003 0.432 M 4.003 0.832 L 4.003 1.032 L 3.754 1.032 L 3.754 0.832 L 4.003 0.832 M 4.003 1.232 L 4.004 1.432 L 3.754 1.432 L 3.754 1.232 L 4.003 1.232 M 4.004 1.632 L 4.004 1.832 L 3.754 1.832 L 3.754 1.632 L 4.004 1.632 M 4.004 2.032 L 4.004 2.232 L 3.754 2.232 L 3.754 2.032 L 4.004 2.032 M 4.004 2.432 L 4.004 2.632 L 3.754 2.632 L 3.754 2.432 L 4.004 2.432 M 4.004 2.832 L 4.004 3.032 L 3.754 3.032 L 3.754 2.832 L 4.004 2.832 M 4.004 3.232 L 4.004 3.432 L 3.754 3.432 L 3.754 3.232 L 4.004 3.232 M 4.004 3.632 L 4.004 3.832 L 3.754 3.832 L 3.754 3.632 L 4.004 3.632 M 4.004 4.032 L 4.004 4.232 L 3.754 4.232 L 3.754 4.032 L 4.004 4.032 M 4.004 4.432 L 4.004 4.632 L 3.754 4.632 L 3.754 4.432 L 4.004 4.432 M 4.004 4.832 L 4.004 5.032 L 3.754 5.032 L 3.754 4.832 L 4.004 4.832 M 4.004 5.232 L 4.004 5.432 L 3.754 5.432 L 3.754 5.232 L 4.004 5.232 M 4.004 5.632 L 4.004 5.832 L 3.754 5.832 L 3.754 5.632 L 4.004 5.632 M 8.004 0.032 L 8.004 0.232 L 7.753 0.232 L 7.753 0.032 L 8.004 0.032 M 8.004 0.432 L 8.004 0.632 L 7.753 0.632 L 7.753 0.432 L 8.004 0.432 M 8.004 0.832 L 8.004 1.032 L 7.753 1.032 L 7.753 0.832 L 8.004 0.832 M 8.004 1.232 L 8.004 1.432 L 7.753 1.432 L 7.753 1.232 L 8.004 1.232 M 8.004 1.632 L 8.004 1.832 L 7.754 1.832 L 7.754 1.632 L 8.004 1.632 M 8.004 2.032 L 8.004 2.232 L 7.754 2.232 L 7.754 2.032 L 8.004 2.032 M 8.004 2.432 L 8.004 2.632 L 7.754 2.632 L 7.754 2.432 L 8.004 2.432 M 8.004 2.832 L 8.004 3.032 L 7.754 3.032 L 7.754 2.832 L 8.004 2.832 M 8.004 3.232 L 8.004 3.432 L 7.754 3.432 L 7.754 3.232 L 8.004 3.232 M 8.004 3.632 L 8.004 3.832 L 7.754 3.832 L 7.754 3.632 L 8.004 3.632 M 8.004 4.032 L 8.004 4.232 L 7.754 4.232 L 7.754 4.032 L 8.004 4.032 M 8.004 4.432 L 8.004 4.632 L 7.754 4.632 L 7.754 4.432 L 8.004 4.432 M 8.004 4.832 L 8.004 5.032 L 7.754 5.032 L 7.754 4.832 L 8.004 4.832 M 8.004 5.232 L 8.004 5.432 L 7.754 5.432 L 7.754 5.232 L 8.004 5.232 M 8.004 5.632 L 8.004 5.832 L 7.754 5.832 L 7.754 5.632 L 8.004 5.632 M 8.004 6.507 M 0.000 6.511 M 0.000 6.511 M 12.007 0.003 L 0.000 0.003" style="fill:none;stroke:black;stroke-width:0.012" />
</g>
</svg>
