<?xml version="1.0"?>
	<!-- Generated by github.com/dustismo/heavyfishdesign -->
	<svg width="18.000in" height="11.000in" viewBox="0.000 0.000 18.000 11.000"
    	xmlns="http://www.w3.org/2000/svg"
		xmlns:xlink="http://www.w3.org/1999/xlink">
	<g transform="translate(0.100 0.100)">
<path id="side_flat_top" d="M 12.007 6.003 L 12.007 5.928 L 12.007 5.825 L 11.757 5.825 L 11.757 5.632 L 12.007 5.632 L 12.007 5.529 L 12.007 5.425 L 11.757 5.425 L 11.757 5.232 L 12.007 5.232 L 12.007 5.128 L 12.007 5.025 L 11.757 5.025 L 11.757 4.832 L 12.007 4.832 L 12.007 4.728 L 12.007 4.625 L 11.757 4.625 L 11.757 4.432 L 12.007 4.432 L 12.007 4.329 L 12.007 4.225 L 11.757 4.225 L 11.757 4.032 L 12.007 4.032 L 12.007 3.928 L 12.007 3.825 L 11.757 3.825 L 11.757 3.632 L 12.007 3.632 L 12.007 3.528 L 12.007 3.425 L 11.757 3.425 L 11.757 3.232 L 12.007 3.232 L 12.007 3.128 L 12.007 3.025 L 11.757 3.025 L 11.757 2.832 L 12.007 2.832 L 12.007 2.728 L 12.007 2.625 L 11.757 2.625 L 11.757 2.432 L 12.007 2.432 L 12.007 2.329 L 12.007 2.225 L 11.757 2.225 L 11.757 2.032 L 12.007 2.032 L 12.007 1.929 L 12.007 1.825 L 11.757 1.825 L 11.757 1.632 L 12.007 1.632 L 12.007 1.528 L 12.007 1.425 L 11.757 1.425 L 11.757 1.232 L 12.007 1.232 L 12.007 1.129 L 12.007 1.025 L 11.757 1.025 L 11.757 0.832 L 12.007 0.832 L 12.007 0.728 L 12.007 0.625 L 11.757 0.625 L 11.757 0.432 L 12.007 0.432 L 12.007 0.329 L 12.007 0.000 L 0.000 0.000 L 0.000 0.329 L 0.000 0.432 L 0.250 0.432 L 0.250 0.625 L 0.000 0.625 L 0.000 0.728 L 0.000 0.832 L 0.250 0.832 L 0.250 1.025 L 0.000 1.025 L 0.000 1.129 L 0.000 1.232 L 0.250 1.232 L 0.250 1.425 L 0.000 1.425 L 0.000 1.528 L 0.000 1.632 L 0.250 1.632 L 0.250 1.825 L 0.000 1.825 L 0.000 1.929 L 0.000 2.032 L 0.250 2.032 L 0.250 2.225 L 0.000 2.225 L 0.000 2.329 L 0.000 2.432 L 0.250 2.432 L 0.250 2.625 L 0.000 2.625 L 0.000 2.728 L 0.000 2.832 L 0.250 2.832 L 0.250 3.025 L 0.000 3.025 L 0.000 3.128 L 0.000 3.232 L 0.250 3.232 L 0.250 3.425 L 0.000 3.425 L 0.000 3.528 L 0.000 3.632 L 0.250 3.632 L 0.250 3.825 L 0.000 3.825 L 0.000 3.928 L 0.000 4.032 L 0.250 4.032 L 0.250 4.225 L 0.000 4.225 L 0.000 4.329 L 0.000 4.432 L 0.250 4.432 L 0.250 4.625 L 0.000 4.625 L 0.000 4.728 L 0.000 4.832 L 0.250 4.832 L 0.250 5.025 L 0.000 5.025 L 0.000 5.128 L 0.000 5.232 L 0.250 5.232 L 0.250 5.425 L 0.000 5.425 L 0.000 5.529 L 0.000 5.632 L 0.250 5.632 L 0.250 5.825 L 0.000 5.825 L 0.000 5.928 L 0.000 6.003 M 4.003 0.428 L 4.003 0.628 L 3.753 0.628 L 3.753 0.428 L 4.003 0.428 M 4.003 0.828 L 4.003 1.028 L 3.753 1.028 L 3.753 0.828 L 4.003 0.828 M 4.003 1.228 L 4.003 1.428 L 3.753 1.428 L 3.753 1.228 L 4.003 1.228 M 4.003 1.628 L 4.003 1.828 L 3.753 1.828 L 3.753 1.628 L 4.003 1.628 M 4.003 2.028 L 4.003 2.228 L 3.753 2.228 L 3.753 2.028 L 4.003 2.028 M 4.003 2.428 L 4.003 2.628 L 3.753 2.628 L 3.753 2.428 L 4.003 2.428 M 4.003 2.828 L 4.003 3.028 L 3.753 3.028 L 3.753 2.828 L 4.003 2.828 M 4.003 3.228 L 4.003 3.428 L 3.753 3.428 L 3.753 3.228 L 4.003 3.228 M 4.003 3.628 L 4.003 3.828 L 3.753 3.828 L 3.753 3.628 L 4.003 3.628 M 4.003 4.028 L 4.003 4.228 L 3.754 4.228 L 3.754 4.028 L 4.003 4.028 M 4.003 4.428 L 4.003 4.628 L 3.754 4.628 L 3.754 4.428 L 4.003 4.428 M 4.003 4.828 L 4.003 5.028 L 3.754 5.028 L 3.754 4.828 L 4.003 4.828 M 4.003 5.228 L 4.003 5.428 L 3.754 5.428 L 3.754 5.228 L 4.003 5.228 M 4.003 5.628 L 4.003 5.828 L 3.754 5.828 L 3.754 5.628 L 4.003 5.628 M 8.004 0.428 L 8.004 0.628 L 7.753 0.628 L 7.753 0.428 L 8.004 0.428 M 8.004 0.828 L 8.004 1.028 L 7.753 1.028 L 7.753 0.828 L 8.004 0.828 M 8.004 1.228 L 8.004 1.428 L 7.753 1.428 L 7.753 1.228 L 8.004 1.228 M 8.004 1.628 L 8.004 1.828 L 7.753 1.828 L 7.753 1.628 L 8.004 1.628 M 8.004 2.028 L 8.004 2.228 L 7.753 2.228 L 7.753 2.028 L 8.004 2.028 M 8.004 2.428 L 8.004 2.628 L 7.753 2.628 L 7.753 2.428 L 8.004 2.428 M 8.004 2.828 L 8.004 3.028 L 7.753 3.028 L 7.753 2.828 L 8.004 2.828 M 8.004 3.228 L 8.004 3.428 L 7.753 3.428 L 7.753 3.228 L 8.004 3.228 M 8.004 3.628 L 8.004 3.828 L 7.753 3.828 L 7.753 3.628 L 8.004 3.628 M 8.004 4.028 L 8.004 4.228 L 7.753 4.228 L 7.753 4.028 L 8.004 4.028 M 8.004 4.428 L 8.004 4.628 L 7.753 4.628 L 7.753 4.428 L 8.004 4.428 M 8.004 4.828 L 8.004 5.028 L 7.753 5.028 L 7.753 4.828 L 8.004 4.828 M 8.004 5.228 L 8.004 5.428 L 7.753 5.428 L 7.753 5.228 L 8.004 5.228 M 8.004 5.628 L 8.004 5.828 L 7.753 5.828 L 7.753 5.628 L 8.004 5.628 M 8.004 6.028 M 0.000 0.000 M 0.000 0.000 M 12.007 6.000 L 0.000 6.000" style="fill:none;stroke:black;stroke-width:0.012" />
</g>
<g transform="rotate(90 12.107 6.303) translate(12.107 6.303)">
<path id="bottom" d="M 3.307 11.757 L 3.500 11.757 L 3.500 12.007 L 3.603 12.007 L 4.007 12.007 L 4.007 11.604 L 4.007 11.500 L 3.757 11.500 L 3.757 11.307 L 4.007 11.307 L 4.007 11.204 L 4.007 11.100 L 3.757 11.100 L 3.757 10.907 L 4.007 10.907 L 4.007 10.804 L 4.007 10.700 L 3.757 10.700 L 3.757 10.507 L 4.007 10.507 L 4.007 10.404 L 4.007 10.300 L 3.757 10.300 L 3.757 10.107 L 4.007 10.107 L 4.007 10.004 L 4.007 9.900 L 3.757 9.900 L 3.757 9.707 L 4.007 9.707 L 4.007 9.604 L 4.007 9.500 L 3.757 9.500 L 3.757 9.307 L 4.007 9.307 L 4.007 9.204 L 4.007 9.100 L 3.757 9.100 L 3.757 8.907 L 4.007 8.907 L 4.007 8.804 L 4.007 8.700 L 3.757 8.700 L 3.757 8.507 L 4.007 8.507 L 4.007 8.404 L 4.007 8.300 L 3.757 8.300 L 3.757 8.107 L 4.007 8.107 L 4.007 8.004 L 4.007 7.900 L 3.757 7.900 L 3.757 7.707 L 4.007 7.707 L 4.007 7.603 L 4.007 7.500 L 3.757 7.500 L 3.757 7.307 L 4.007 7.307 L 4.007 7.204 L 4.007 7.100 L 3.757 7.100 L 3.757 6.907 L 4.007 6.907 L 4.007 6.803 L 4.007 6.700 L 3.757 6.700 L 3.757 6.507 L 4.007 6.507 L 4.007 6.404 L 4.007 6.300 L 3.757 6.300 L 3.757 6.107 L 4.007 6.107 L 4.007 6.003 L 4.007 5.900 L 3.757 5.900 L 3.757 5.707 L 4.007 5.707 L 4.007 5.603 L 4.007 5.500 L 3.757 5.500 L 3.757 5.307 L 4.007 5.307 L 4.007 5.204 L 4.007 5.100 L 3.757 5.100 L 3.757 4.907 L 4.007 4.907 L 4.007 4.803 L 4.007 4.700 L 3.757 4.700 L 3.757 4.507 L 4.007 4.507 L 4.007 4.404 L 4.007 4.300 L 3.757 4.300 L 3.757 4.107 L 4.007 4.107 L 4.007 4.003 L 4.007 3.900 L 3.757 3.900 L 3.757 3.707 L 4.007 3.707 L 4.007 3.603 L 4.007 3.500 L 3.757 3.500 L 3.757 3.307 L 4.007 3.307 L 4.007 3.204 L 4.007 3.100 L 3.757 3.100 L 3.757 2.907 L 4.007 2.907 L 4.007 2.803 L 4.007 2.700 L 3.757 2.700 L 3.757 2.507 L 4.007 2.507 L 4.007 2.403 L 4.007 2.300 L 3.757 2.300 L 3.757 2.107 L 4.007 2.107 L 4.007 2.003 L 4.007 1.900 L 3.757 1.900 L 3.757 1.707 L 4.007 1.707 L 4.007 1.604 L 4.007 1.500 L 3.757 1.500 L 3.757 1.307 L 4.007 1.307 L 4.007 1.204 L 4.007 1.100 L 3.757 1.100 L 3.757 0.907 L 4.007 0.907 L 4.007 0.803 L 4.007 0.700 L 3.757 0.700 L 3.757 0.507 L 4.007 0.507 L 4.007 0.404 L 4.007 0.000 L 3.603 0.000 L 3.500 0.000 L 3.500 0.250 L 3.307 0.250 L 3.307 0.000 L 3.204 0.000 L 3.100 0.000 L 3.100 0.250 L 2.907 0.250 L 2.907 0.000 L 2.803 0.000 L 2.700 0.000 L 2.700 0.250 L 2.507 0.250 L 2.507 0.000 L 2.403 0.000 L 2.300 0.000 L 2.300 0.250 L 2.107 0.250 L 2.107 0.000 L 2.003 0.000 L 1.900 0.000 L 1.900 0.250 L 1.707 0.250 L 1.707 0.000 L 1.604 0.000 L 1.500 0.000 L 1.500 0.250 L 1.307 0.250 L 1.307 0.000 L 1.204 0.000 L 1.100 0.000 L 1.100 0.250 L 0.907 0.250 L 0.907 0.000 L 0.803 0.000 L 0.700 0.000 L 0.700 0.250 L 0.507 0.250 L 0.507 0.000 L 0.404 0.000 L 0.000 0.000 L 0.000 0.404 L 0.000 0.507 L 0.250 0.507 L 0.250 0.700 L 0.000 0.700 L 0.000 0.803 L 0.000 0.907 L 0.250 0.907 L 0.250 1.100 L 0.000 1.100 L 0.000 1.204 L 0.000 1.307 L 0.250 1.307 L 0.250 1.500 L 0.000 1.500 L 0.000 1.604 L 0.000 1.707 L 0.250 1.707 L 0.250 1.900 L 0.000 1.900 L 0.000 2.003 L 0.000 2.107 L 0.250 2.107 L 0.250 2.300 L 0.000 2.300 L 0.000 2.403 L 0.000 2.507 L 0.250 2.507 L 0.250 2.700 L 0.000 2.700 L 0.000 2.803 L 0.000 2.907 L 0.250 2.907 L 0.250 3.100 L 0.000 3.100 L 0.000 3.204 L 0.000 3.307 L 0.250 3.307 L 0.250 3.500 L 0.000 3.500 L 0.000 3.603 L 0.000 3.707 L 0.250 3.707 L 0.250 3.900 L 0.000 3.900 L 0.000 4.003 L 0.000 4.107 L 0.250 4.107 L 0.250 4.300 L 0.000 4.300 L 0.000 4.404 L 0.000 4.507 L 0.250 4.507 L 0.250 4.700 L 0.000 4.700 L 0.000 4.803 L 0.000 4.907 L 0.250 4.907 L 0.250 5.100 L 0.000 5.100 L 0.000 5.204 L 0.000 5.307 L 0.250 5.307 L 0.250 5.500 L 0.000 5.500 L 0.000 5.603 L 0.000 5.707 L 0.250 5.707 L 0.250 5.900 L 0.000 5.900 L 0.000 6.003 L 0.000 6.107 L 0.250 6.107 L 0.250 6.300 L 0.000 6.300 L 0.000 6.404 L 0.000 6.507 L 0.250 6.507 L 0.250 6.700 L 0.000 6.700 L 0.000 6.803 L 0.000 6.907 L 0.250 6.907 L 0.250 7.100 L 0.000 7.100 L 0.000 7.204 L 0.000 7.307 L 0.250 7.307 L 0.250 7.500 L 0.000 7.500 L 0.000 7.603 L 0.000 7.707 L 0.250 7.707 L 0.250 7.900 L 0.000 7.900 L 0.000 8.004 L 0.000 8.107 L 0.250 8.107 L 0.250 8.300 L 0.000 8.300 L 0.000 8.404 L 0.000 8.507 L 0.250 8.507 L 0.250 8.700 L 0.000 8.700 L 0.000 8.804 L 0.000 8.907 L 0.250 8.907 L 0.250 9.100 L 0.000 9.100 L 0.000 9.204 L 0.000 9.307 L 0.250 9.307 L 0.250 9.500 L 0.000 9.500 L 0.000 9.604 L 0.000 9.707 L 0.250 9.707 L 0.250 9.900 L 0.000 9.900 L 0.000 10.004 L 0.000 10.107 L 0.250 10.107 L 0.250 10.300 L 0.000 10.300 L 0.000 10.404 L 0.000 10.507 L 0.250 10.507 L 0.250 10.700 L 0.000 10.700 L 0.000 10.804 L 0.000 10.907 L 0.250 10.907 L 0.250 11.100 L 0.000 11.100 L 0.000 11.204 L 0.000 11.307 L 0.250 11.307 L 0.250 11.500 L 0.000 11.500 L 0.000 11.604 L 0.000 12.007 L 0.404 12.007 L 0.507 12.007 L 0.507 11.757 L 0.700 11.757 L 0.700 12.007 L 0.803 12.007 L 0.907 12.007 L 0.907 11.757 L 1.100 11.757 L 1.100 12.007 L 1.204 12.007 L 1.307 12.007 L 1.307 11.757 L 1.500 11.757 L 1.500 12.007 L 1.604 12.007 L 1.707 12.007 L 1.707 11.757 L 1.900 11.757 L 1.900 12.007 L 2.003 12.007 L 2.107 12.007 L 2.107 11.757 L 2.300 11.757 L 2.300 12.007 L 2.403 12.007 L 2.507 12.007 L 2.507 11.757 L 2.700 11.757 L 2.700 12.007 L 2.803 12.007 L 2.907 12.007 L 2.907 11.757 L 3.100 11.757 L 3.100 12.007 L 3.204 12.007 L 3.307 12.007 L 3.307 11.757 M 0.503 4.003 L 0.703 4.003 L 0.703 4.253 L 0.503 4.253 L 0.503 4.003 M 0.903 4.003 L 1.104 4.003 L 1.104 4.253 L 0.903 4.253 L 0.903 4.003 M 1.303 4.003 L 1.504 4.003 L 1.504 4.253 L 1.303 4.253 L 1.303 4.003 M 1.704 4.003 L 1.903 4.003 L 1.903 4.253 L 1.704 4.253 L 1.704 4.003 M 2.103 4.003 L 2.304 4.003 L 2.304 4.253 L 2.103 4.253 L 2.103 4.003 M 2.504 4.003 L 2.704 4.003 L 2.704 4.253 L 2.504 4.253 L 2.504 4.003 M 2.904 4.003 L 3.103 4.003 L 3.103 4.253 L 2.904 4.253 L 2.904 4.003 M 3.304 4.003 L 3.504 4.003 L 3.504 4.253 L 3.304 4.253 L 3.304 4.003 M 0.503 8.004 L 0.703 8.004 L 0.703 8.254 L 0.503 8.254 L 0.503 8.004 M 0.903 8.004 L 1.104 8.004 L 1.104 8.254 L 0.903 8.254 L 0.903 8.004 M 1.303 8.004 L 1.504 8.004 L 1.504 8.254 L 1.303 8.254 L 1.303 8.004 M 1.704 8.004 L 1.903 8.004 L 1.903 8.254 L 1.704 8.254 L 1.704 8.004 M 2.103 8.004 L 2.304 8.004 L 2.304 8.254 L 2.103 8.254 L 2.103 8.004 M 2.504 8.004 L 2.704 8.004 L 2.704 8.254 L 2.504 8.254 L 2.504 8.004 M 2.904 8.004 L 3.103 8.004 L 3.103 8.254 L 2.904 8.254 L 2.904 8.004 M 3.304 8.004 L 3.504 8.004 L 3.504 8.254 L 3.304 8.254 L 3.304 8.004 M 4.003 8.004" style="fill:none;stroke:black;stroke-width:0.012" />
</g>
</svg>
