<?xml version="1.0"?>
	<!-- Generated by github.com/dustismo/heavyfishdesign -->
	<svg width="18.000in" height="11.000in" viewBox="0.000 0.000 18.000 11.000"
    	xmlns="http://www.w3.org/2000/svg"
		xmlns:xlink="http://www.w3.org/1999/xlink">
	<g transform="translate(0.100 0.100)">
<path id="side_flat_top" d="M 12.007 5.507 L 12.007 5.279 L 12.007 5.175 L 11.757 5.175 L 11.757 4.982 L 12.007 4.982 L 12.007 4.878 L 12.007 4.775 L 11.757 4.775 L 11.757 4.582 L 12.007 4.582 L 12.007 4.478 L 12.007 4.375 L 11.757 4.375 L 11.757 4.182 L 12.007 4.182 L 12.007 4.078 L 12.007 3.975 L 11.757 3.975 L 11.757 3.782 L 12.007 3.782 L 12.007 3.679 L 12.007 3.575 L 11.757 3.575 L 11.757 3.382 L 12.007 3.382 L 12.007 3.279 L 12.007 3.175 L 11.757 3.175 L 11.757 2.982 L 12.007 2.982 L 12.007 2.878 L 12.007 2.775 L 11.757 2.775 L 11.757 2.582 L 12.007 2.582 L 12.007 2.478 L 12.007 2.375 L 11.757 2.375 L 11.757 2.182 L 12.007 2.182 L 12.007 2.078 L 12.007 1.975 L 11.757 1.975 L 11.757 1.782 L 12.007 1.782 L 12.007 1.678 L 12.007 1.575 L 11.757 1.575 L 11.757 1.382 L 12.007 1.382 L 12.007 1.278 L 12.007 1.175 L 11.757 1.175 L 11.757 0.982 L 12.007 0.982 L 12.007 0.878 L 12.007 0.775 L 11.757 0.775 L 11.757 0.582 L 12.007 0.582 L 12.007 0.478 L 12.007 0.375 L 11.757 0.375 L 11.757 0.182 L 12.007 0.182 L 12.007 0.078 L 12.007 0.000 M 0.000 0.000 L 0.000 0.078 L 0.000 0.182 L 0.250 0.182 L 0.250 0.375 L 0.000 0.375 L 0.000 0.478 L 0.000 0.582 L 0.250 0.582 L 0.250 0.775 L 0.000 0.775 L 0.000 0.878 L 0.000 0.982 L 0.250 0.982 L 0.250 1.175 L 0.000 1.175 L 0.000 1.278 L 0.000 1.382 L 0.250 1.382 L 0.250 1.575 L 0.000 1.575 L 0.000 1.678 L 0.000 1.782 L 0.250 1.782 L 0.250 1.975 L 0.000 1.975 L 0.000 2.078 L 0.000 2.182 L 0.250 2.182 L 0.250 2.375 L 0.000 2.375 L 0.000 2.478 L 0.000 2.582 L 0.250 2.582 L 0.250 2.775 L 0.000 2.775 L 0.000 2.878 L 0.000 2.982 L 0.250 2.982 L 0.250 3.175 L 0.000 3.175 L 0.000 3.279 L 0.000 3.382 L 0.250 3.382 L 0.250 3.575 L 0.000 3.575 L 0.000 3.679 L 0.000 3.782 L 0.250 3.782 L 0.250 3.975 L 0.000 3.975 L 0.000 4.078 L 0.000 4.182 L 0.250 4.182 L 0.250 4.375 L 0.000 4.375 L 0.000 4.478 L 0.000 4.582 L 0.250 4.582 L 0.250 4.775 L 0.000 4.775 L 0.000 4.878 L 0.000 4.982 L 0.250 4.982 L 0.250 5.175 L 0.000 5.175 L 0.000 5.279 L 0.000 5.507 L 0.404 5.507 L 0.500 5.507 L 0.500 5.757 L 0.707 5.757 L 0.707 5.507 L 0.803 5.507 L 0.900 5.507 L 0.900 5.757 L 1.107 5.757 L 1.107 5.507 L 1.204 5.507 L 1.300 5.507 L 1.300 5.757 L 1.507 5.757 L 1.507 5.507 L 1.604 5.507 L 1.700 5.507 L 1.700 5.757 L 1.907 5.757 L 1.907 5.507 L 2.003 5.507 L 2.100 5.507 L 2.100 5.757 L 2.307 5.757 L 2.307 5.507 L 2.403 5.507 L 2.500 5.507 L 2.500 5.757 L 2.707 5.757 L 2.707 5.507 L 2.803 5.507 L 2.900 5.507 L 2.900 5.757 L 3.107 5.757 L 3.107 5.507 L 3.204 5.507 L 3.300 5.507 L 3.300 5.757 L 3.507 5.757 L 3.507 5.507 L 3.603 5.507 L 3.700 5.507 L 3.700 5.757 L 3.907 5.757 L 3.907 5.507 L 4.003 5.507 L 4.100 5.507 L 4.100 5.757 L 4.307 5.757 L 4.307 5.507 L 4.404 5.507 L 4.500 5.507 L 4.500 5.757 L 4.707 5.757 L 4.707 5.507 L 4.803 5.507 L 4.900 5.507 L 4.900 5.757 L 5.107 5.757 L 5.107 5.507 L 5.204 5.507 L 5.300 5.507 L 5.300 5.757 L 5.507 5.757 L 5.507 5.507 L 5.603 5.507 L 5.700 5.507 L 5.700 5.757 L 5.907 5.757 L 5.907 5.507 L 6.003 5.507 L 6.100 5.507 L 6.100 5.757 L 6.307 5.757 L 6.307 5.507 L 6.404 5.507 L 6.500 5.507 L 6.500 5.757 L 6.707 5.757 L 6.707 5.507 L 6.803 5.507 L 6.900 5.507 L 6.900 5.757 L 7.107 5.757 L 7.107 5.507 L 7.204 5.507 L 7.300 5.507 L 7.300 5.757 L 7.507 5.757 L 7.507 5.507 L 7.603 5.507 L 7.700 5.507 L 7.700 5.757 L 7.907 5.757 L 7.907 5.507 L 8.004 5.507 L 8.100 5.507 L 8.100 5.757 L 8.307 5.757 L 8.307 5.507 L 8.404 5.507 L 8.500 5.507 L 8.500 5.757 L 8.707 5.757 L 8.707 5.507 L 8.804 5.507 L 8.900 5.507 L 8.900 5.757 L 9.107 5.757 L 9.107 5.507 L 9.204 5.507 L 9.300 5.507 L 9.300 5.757 L 9.507 5.757 L 9.507 5.507 L 9.604 5.507 L 9.700 5.507 L 9.700 5.757 L 9.907 5.757 L 9.907 5.507 L 10.004 5.507 L 10.100 5.507 L 10.100 5.757 L 10.307 5.757 L 10.307 5.507 L 10.404 5.507 L 10.500 5.507 L 10.500 5.757 L 10.707 5.757 L 10.707 5.507 L 10.804 5.507 L 10.900 5.507 L 10.900 5.757 L 11.107 5.757 L 11.107 5.507 L 11.204 5.507 L 11.300 5.507 L 11.300 5.757 L 11.507 5.757 L 11.507 5.507 L 11.604 5.507 L 12.007 5.507 M 6.253 0.178 L 6.253 0.378 L 6.003 0.378 L 6.003 0.178 L 6.253 0.178 M 6.253 0.578 L 6.253 0.778 L 6.003 0.778 L 6.003 0.578 L 6.253 0.578 M 6.253 0.978 L 6.253 1.178 L 6.003 1.178 L 6.003 0.978 L 6.253 0.978 M 6.253 1.378 L 6.254 1.578 L 6.003 1.578 L 6.003 1.378 L 6.253 1.378 M 6.254 1.778 L 6.254 1.978 L 6.004 1.978 L 6.004 1.778 L 6.254 1.778 M 6.254 2.178 L 6.254 2.378 L 6.004 2.378 L 6.004 2.178 L 6.254 2.178 M 6.254 2.578 L 6.254 2.779 L 6.004 2.779 L 6.004 2.578 L 6.254 2.578 M 6.254 2.978 L 6.254 3.179 L 6.004 3.179 L 6.004 2.978 L 6.254 2.978 M 6.254 3.378 L 6.254 3.579 L 6.004 3.579 L 6.004 3.378 L 6.254 3.378 M 6.254 3.778 L 6.254 3.978 L 6.004 3.978 L 6.004 3.778 L 6.254 3.778 M 6.254 4.178 L 6.254 4.378 L 6.004 4.378 L 6.004 4.178 L 6.254 4.178 M 6.254 4.578 L 6.254 4.779 L 6.004 4.779 L 6.004 4.578 L 6.254 4.578 M 6.254 4.978 L 6.254 5.179 L 6.004 5.179 L 6.004 4.978 L 6.254 4.978 M 6.254 5.753 M 12.007 0.003 M 12.007 0.003 M 12.007 0.003 L 0.000 0.003" style="fill:none;stroke:black;stroke-width:0.012" />
</g>
</svg>
