<?xml version="1.0"?>
	<!-- Generated by github.com/dustismo/heavyfishdesign -->
	<svg width="20.000in" height="12.000in" viewBox="0.000 0.000 20.000 12.000"
    	xmlns="http://www.w3.org/2000/svg"
		xmlns:xlink="http://www.w3.org/1999/xlink">
	<g transform="translate(0.100 0.100)">
<path id="front_flat_top" d="M 0.250 2.282 L 0.250 2.378 L 0.250 2.757 L 0.303 2.757 L 0.400 2.757 L 0.400 3.007 L 0.607 3.007 L 0.607 2.757 L 0.703 2.757 L 0.800 2.757 L 0.800 3.007 L 1.007 3.007 L 1.007 2.757 L 1.104 2.757 L 1.200 2.757 L 1.200 3.007 L 1.407 3.007 L 1.407 2.757 L 1.504 2.757 L 1.600 2.757 L 1.600 3.007 L 1.807 3.007 L 1.807 2.757 L 1.903 2.757 L 2.000 2.757 L 2.000 3.007 L 2.207 3.007 L 2.207 2.757 L 2.303 2.757 L 2.400 2.757 L 2.400 3.007 L 2.607 3.007 L 2.607 2.757 L 2.704 2.757 L 2.757 2.757 L 2.757 2.378 L 2.757 2.282 L 3.007 2.282 L 3.007 2.075 L 2.757 2.075 L 2.757 1.979 L 2.757 1.882 L 3.007 1.882 L 3.007 1.675 L 2.757 1.675 L 2.757 1.579 L 2.757 1.482 L 3.007 1.482 L 3.007 1.275 L 2.757 1.275 L 2.757 1.179 L 2.757 1.082 L 3.007 1.082 L 3.007 0.875 L 2.757 0.875 L 2.757 0.778 L 2.757 0.682 L 3.007 0.682 L 3.007 0.475 L 2.757 0.475 L 2.757 0.379 L 2.757 0.000 L 0.250 0.000 L 0.250 0.379 L 0.250 0.475 L 0.000 0.475 L 0.000 0.682 L 0.250 0.682 L 0.250 0.778 L 0.250 0.875 L 0.000 0.875 L 0.000 1.082 L 0.250 1.082 L 0.250 1.179 L 0.250 1.275 L 0.000 1.275 L 0.000 1.482 L 0.250 1.482 L 0.250 1.579 L 0.250 1.675 L 0.000 1.675 L 0.000 1.882 L 0.250 1.882 L 0.250 1.979 L 0.250 2.075 L 0.000 2.075 L 0.000 2.282 L 0.250 2.282" style="fill:none;stroke:black;stroke-width:0.012" />
</g>
<g transform="translate(0.100 3.307)">
<path id="front_flat_top" d="M 0.250 2.282 L 0.250 2.378 L 0.250 2.757 L 0.303 2.757 L 0.400 2.757 L 0.400 3.007 L 0.607 3.007 L 0.607 2.757 L 0.703 2.757 L 0.800 2.757 L 0.800 3.007 L 1.007 3.007 L 1.007 2.757 L 1.104 2.757 L 1.200 2.757 L 1.200 3.007 L 1.407 3.007 L 1.407 2.757 L 1.504 2.757 L 1.600 2.757 L 1.600 3.007 L 1.807 3.007 L 1.807 2.757 L 1.903 2.757 L 2.000 2.757 L 2.000 3.007 L 2.207 3.007 L 2.207 2.757 L 2.303 2.757 L 2.400 2.757 L 2.400 3.007 L 2.607 3.007 L 2.607 2.757 L 2.704 2.757 L 2.757 2.757 L 2.757 2.378 L 2.757 2.282 L 3.007 2.282 L 3.007 2.075 L 2.757 2.075 L 2.757 1.979 L 2.757 1.882 L 3.007 1.882 L 3.007 1.675 L 2.757 1.675 L 2.757 1.579 L 2.757 1.482 L 3.007 1.482 L 3.007 1.275 L 2.757 1.275 L 2.757 1.179 L 2.757 1.082 L 3.007 1.082 L 3.007 0.875 L 2.757 0.875 L 2.757 0.778 L 2.757 0.682 L 3.007 0.682 L 3.007 0.475 L 2.757 0.475 L 2.757 0.379 L 2.757 0.000 L 0.250 0.000 L 0.250 0.379 L 0.250 0.475 L 0.000 0.475 L 0.000 0.682 L 0.250 0.682 L 0.250 0.778 L 0.250 0.875 L 0.000 0.875 L 0.000 1.082 L 0.250 1.082 L 0.250 1.179 L 0.250 1.275 L 0.000 1.275 L 0.000 1.482 L 0.250 1.482 L 0.250 1.579 L 0.250 1.675 L 0.000 1.675 L 0.000 1.882 L 0.250 1.882 L 0.250 1.979 L 0.250 2.075 L 0.000 2.075 L 0.000 2.282 L 0.250 2.282" style="fill:none;stroke:black;stroke-width:0.012" />
</g>
<g transform="translate(0.100 6.514)">
<path id="front_flat_top" d="M 0.250 2.282 L 0.250 2.378 L 0.250 2.757 L 0.303 2.757 L 0.400 2.757 L 0.400 3.007 L 0.607 3.007 L 0.607 2.757 L 0.703 2.757 L 0.800 2.757 L 0.800 3.007 L 1.007 3.007 L 1.007 2.757 L 1.104 2.757 L 1.200 2.757 L 1.200 3.007 L 1.407 3.007 L 1.407 2.757 L 1.504 2.757 L 1.600 2.757 L 1.600 3.007 L 1.807 3.007 L 1.807 2.757 L 1.903 2.757 L 2.000 2.757 L 2.000 3.007 L 2.207 3.007 L 2.207 2.757 L 2.303 2.757 L 2.400 2.757 L 2.400 3.007 L 2.607 3.007 L 2.607 2.757 L 2.704 2.757 L 2.757 2.757 L 2.757 2.378 L 2.757 2.282 L 3.007 2.282 L 3.007 2.075 L 2.757 2.075 L 2.757 1.979 L 2.757 1.882 L 3.007 1.882 L 3.007 1.675 L 2.757 1.675 L 2.757 1.579 L 2.757 1.482 L 3.007 1.482 L 3.007 1.275 L 2.757 1.275 L 2.757 1.179 L 2.757 1.082 L 3.007 1.082 L 3.007 0.875 L 2.757 0.875 L 2.757 0.778 L 2.757 0.682 L 3.007 0.682 L 3.007 0.475 L 2.757 0.475 L 2.757 0.379 L 2.757 0.000 L 0.250 0.000 L 0.250 0.379 L 0.250 0.475 L 0.000 0.475 L 0.000 0.682 L 0.250 0.682 L 0.250 0.778 L 0.250 0.875 L 0.000 0.875 L 0.000 1.082 L 0.250 1.082 L 0.250 1.179 L 0.250 1.275 L 0.000 1.275 L 0.000 1.482 L 0.250 1.482 L 0.250 1.579 L 0.250 1.675 L 0.000 1.675 L 0.000 1.882 L 0.250 1.882 L 0.250 1.979 L 0.250 2.075 L 0.000 2.075 L 0.000 2.282 L 0.250 2.282" style="fill:none;stroke:black;stroke-width:0.012" />
</g>
<g transform="translate(3.307 0.100)">
<path id="front_flat_top" d="M 0.250 2.282 L 0.250 2.378 L 0.250 2.757 L 0.303 2.757 L 0.400 2.757 L 0.400 3.007 L 0.607 3.007 L 0.607 2.757 L 0.703 2.757 L 0.800 2.757 L 0.800 3.007 L 1.007 3.007 L 1.007 2.757 L 1.104 2.757 L 1.200 2.757 L 1.200 3.007 L 1.407 3.007 L 1.407 2.757 L 1.504 2.757 L 1.600 2.757 L 1.600 3.007 L 1.807 3.007 L 1.807 2.757 L 1.903 2.757 L 2.000 2.757 L 2.000 3.007 L 2.207 3.007 L 2.207 2.757 L 2.303 2.757 L 2.400 2.757 L 2.400 3.007 L 2.607 3.007 L 2.607 2.757 L 2.704 2.757 L 2.757 2.757 L 2.757 2.378 L 2.757 2.282 L 3.007 2.282 L 3.007 2.075 L 2.757 2.075 L 2.757 1.979 L 2.757 1.882 L 3.007 1.882 L 3.007 1.675 L 2.757 1.675 L 2.757 1.579 L 2.757 1.482 L 3.007 1.482 L 3.007 1.275 L 2.757 1.275 L 2.757 1.179 L 2.757 1.082 L 3.007 1.082 L 3.007 0.875 L 2.757 0.875 L 2.757 0.778 L 2.757 0.682 L 3.007 0.682 L 3.007 0.475 L 2.757 0.475 L 2.757 0.379 L 2.757 0.000 L 0.250 0.000 L 0.250 0.379 L 0.250 0.475 L 0.000 0.475 L 0.000 0.682 L 0.250 0.682 L 0.250 0.778 L 0.250 0.875 L 0.000 0.875 L 0.000 1.082 L 0.250 1.082 L 0.250 1.179 L 0.250 1.275 L 0.000 1.275 L 0.000 1.482 L 0.250 1.482 L 0.250 1.579 L 0.250 1.675 L 0.000 1.675 L 0.000 1.882 L 0.250 1.882 L 0.250 1.979 L 0.250 2.075 L 0.000 2.075 L 0.000 2.282 L 0.250 2.282" style="fill:none;stroke:black;stroke-width:0.012" />
</g>
<g transform="translate(3.307 3.307)">
<path id="front_flat_top" d="M 0.250 2.282 L 0.250 2.378 L 0.250 2.757 L 0.303 2.757 L 0.400 2.757 L 0.400 3.007 L 0.607 3.007 L 0.607 2.757 L 0.703 2.757 L 0.800 2.757 L 0.800 3.007 L 1.007 3.007 L 1.007 2.757 L 1.104 2.757 L 1.200 2.757 L 1.200 3.007 L 1.407 3.007 L 1.407 2.757 L 1.504 2.757 L 1.600 2.757 L 1.600 3.007 L 1.807 3.007 L 1.807 2.757 L 1.903 2.757 L 2.000 2.757 L 2.000 3.007 L 2.207 3.007 L 2.207 2.757 L 2.303 2.757 L 2.400 2.757 L 2.400 3.007 L 2.607 3.007 L 2.607 2.757 L 2.704 2.757 L 2.757 2.757 L 2.757 2.378 L 2.757 2.282 L 3.007 2.282 L 3.007 2.075 L 2.757 2.075 L 2.757 1.979 L 2.757 1.882 L 3.007 1.882 L 3.007 1.675 L 2.757 1.675 L 2.757 1.579 L 2.757 1.482 L 3.007 1.482 L 3.007 1.275 L 2.757 1.275 L 2.757 1.179 L 2.757 1.082 L 3.007 1.082 L 3.007 0.875 L 2.757 0.875 L 2.757 0.778 L 2.757 0.682 L 3.007 0.682 L 3.007 0.475 L 2.757 0.475 L 2.757 0.379 L 2.757 0.000 L 0.250 0.000 L 0.250 0.379 L 0.250 0.475 L 0.000 0.475 L 0.000 0.682 L 0.250 0.682 L 0.250 0.778 L 0.250 0.875 L 0.000 0.875 L 0.000 1.082 L 0.250 1.082 L 0.250 1.179 L 0.250 1.275 L 0.000 1.275 L 0.000 1.482 L 0.250 1.482 L 0.250 1.579 L 0.250 1.675 L 0.000 1.675 L 0.000 1.882 L 0.250 1.882 L 0.250 1.979 L 0.250 2.075 L 0.000 2.075 L 0.000 2.282 L 0.250 2.282" style="fill:none;stroke:black;stroke-width:0.012" />
</g>
<g transform="rotate(90 6.314 6.514) translate(6.314 6.514)">
<path id="side_flat_top" d="M 4.607 2.757 L 4.704 2.757 L 5.007 2.757 L 5.007 2.378 L 5.007 2.275 L 4.757 2.275 L 4.757 2.082 L 5.007 2.082 L 5.007 1.979 L 5.007 1.875 L 4.757 1.875 L 4.757 1.682 L 5.007 1.682 L 5.007 1.579 L 5.007 1.475 L 4.757 1.475 L 4.757 1.282 L 5.007 1.282 L 5.007 1.179 L 5.007 1.075 L 4.757 1.075 L 4.757 0.882 L 5.007 0.882 L 5.007 0.778 L 5.007 0.675 L 4.757 0.675 L 4.757 0.482 L 5.007 0.482 L 5.007 0.379 L 5.007 0.000 L 0.000 0.000 L 0.000 0.379 L 0.000 0.482 L 0.250 0.482 L 0.250 0.675 L 0.000 0.675 L 0.000 0.778 L 0.000 0.882 L 0.250 0.882 L 0.250 1.075 L 0.000 1.075 L 0.000 1.179 L 0.000 1.282 L 0.250 1.282 L 0.250 1.475 L 0.000 1.475 L 0.000 1.579 L 0.000 1.682 L 0.250 1.682 L 0.250 1.875 L 0.000 1.875 L 0.000 1.979 L 0.000 2.082 L 0.250 2.082 L 0.250 2.275 L 0.000 2.275 L 0.000 2.378 L 0.000 2.757 L 0.303 2.757 L 0.400 2.757 L 0.400 3.007 L 0.607 3.007 L 0.607 2.757 L 0.703 2.757 L 0.800 2.757 L 0.800 3.007 L 1.007 3.007 L 1.007 2.757 L 1.104 2.757 L 1.200 2.757 L 1.200 3.007 L 1.407 3.007 L 1.407 2.757 L 1.504 2.757 L 1.600 2.757 L 1.600 3.007 L 1.807 3.007 L 1.807 2.757 L 1.903 2.757 L 2.000 2.757 L 2.000 3.007 L 2.207 3.007 L 2.207 2.757 L 2.303 2.757 L 2.400 2.757 L 2.400 3.007 L 2.607 3.007 L 2.607 2.757 L 2.704 2.757 L 2.800 2.757 L 2.800 3.007 L 3.007 3.007 L 3.007 2.757 L 3.103 2.757 L 3.200 2.757 L 3.200 3.007 L 3.407 3.007 L 3.407 2.757 L 3.503 2.757 L 3.600 2.757 L 3.600 3.007 L 3.807 3.007 L 3.807 2.757 L 3.903 2.757 L 4.000 2.757 L 4.000 3.007 L 4.207 3.007 L 4.207 2.757 L 4.303 2.757 L 4.400 2.757 L 4.400 3.007 L 4.607 3.007 L 4.607 2.757 M 1.254 0.478 L 1.254 0.678 L 1.004 0.678 L 1.004 0.478 L 1.254 0.478 M 1.254 0.878 L 1.254 1.079 L 1.004 1.079 L 1.004 0.878 L 1.254 0.878 M 1.254 1.278 L 1.254 1.478 L 1.004 1.478 L 1.004 1.278 L 1.254 1.278 M 1.254 1.679 L 1.254 1.879 L 1.004 1.879 L 1.004 1.679 L 1.254 1.679 M 1.254 2.079 L 1.254 2.279 L 1.004 2.279 L 1.004 2.079 L 1.254 2.079 M 2.753 0.478 L 2.753 0.678 L 2.503 0.678 L 2.503 0.478 L 2.753 0.478 M 2.753 0.878 L 2.753 1.079 L 2.503 1.079 L 2.503 0.878 L 2.753 0.878 M 2.753 1.278 L 2.753 1.478 L 2.503 1.478 L 2.503 1.278 L 2.753 1.278 M 2.753 1.679 L 2.753 1.879 L 2.503 1.879 L 2.503 1.679 L 2.753 1.679 M 2.753 2.079 L 2.753 2.279 L 2.503 2.279 L 2.503 2.079 L 2.753 2.079 M 4.253 0.478 L 4.253 0.678 L 4.003 0.678 L 4.003 0.478 L 4.253 0.478 M 4.253 0.878 L 4.253 1.079 L 4.003 1.079 L 4.003 0.878 L 4.253 0.878 M 4.253 1.278 L 4.253 1.478 L 4.003 1.478 L 4.003 1.278 L 4.253 1.278 M 4.253 1.679 L 4.253 1.879 L 4.003 1.879 L 4.003 1.679 L 4.253 1.679 M 4.253 2.079 L 4.253 2.279 L 4.003 2.279 L 4.003 2.079 L 4.253 2.079 M 4.253 3.003" style="fill:none;stroke:black;stroke-width:0.012" />
</g>
<g transform="translate(6.514 0.100)">
<path id="side_flat_top" d="M 4.607 2.757 L 4.704 2.757 L 5.007 2.757 L 5.007 2.378 L 5.007 2.275 L 4.757 2.275 L 4.757 2.082 L 5.007 2.082 L 5.007 1.979 L 5.007 1.875 L 4.757 1.875 L 4.757 1.682 L 5.007 1.682 L 5.007 1.579 L 5.007 1.475 L 4.757 1.475 L 4.757 1.282 L 5.007 1.282 L 5.007 1.179 L 5.007 1.075 L 4.757 1.075 L 4.757 0.882 L 5.007 0.882 L 5.007 0.778 L 5.007 0.675 L 4.757 0.675 L 4.757 0.482 L 5.007 0.482 L 5.007 0.379 L 5.007 0.000 L 0.000 0.000 L 0.000 0.379 L 0.000 0.482 L 0.250 0.482 L 0.250 0.675 L 0.000 0.675 L 0.000 0.778 L 0.000 0.882 L 0.250 0.882 L 0.250 1.075 L 0.000 1.075 L 0.000 1.179 L 0.000 1.282 L 0.250 1.282 L 0.250 1.475 L 0.000 1.475 L 0.000 1.579 L 0.000 1.682 L 0.250 1.682 L 0.250 1.875 L 0.000 1.875 L 0.000 1.979 L 0.000 2.082 L 0.250 2.082 L 0.250 2.275 L 0.000 2.275 L 0.000 2.378 L 0.000 2.757 L 0.303 2.757 L 0.400 2.757 L 0.400 3.007 L 0.607 3.007 L 0.607 2.757 L 0.703 2.757 L 0.800 2.757 L 0.800 3.007 L 1.007 3.007 L 1.007 2.757 L 1.104 2.757 L 1.200 2.757 L 1.200 3.007 L 1.407 3.007 L 1.407 2.757 L 1.504 2.757 L 1.600 2.757 L 1.600 3.007 L 1.807 3.007 L 1.807 2.757 L 1.903 2.757 L 2.000 2.757 L 2.000 3.007 L 2.207 3.007 L 2.207 2.757 L 2.303 2.757 L 2.400 2.757 L 2.400 3.007 L 2.607 3.007 L 2.607 2.757 L 2.704 2.757 L 2.800 2.757 L 2.800 3.007 L 3.007 3.007 L 3.007 2.757 L 3.103 2.757 L 3.200 2.757 L 3.200 3.007 L 3.407 3.007 L 3.407 2.757 L 3.503 2.757 L 3.600 2.757 L 3.600 3.007 L 3.807 3.007 L 3.807 2.757 L 3.903 2.757 L 4.000 2.757 L 4.000 3.007 L 4.207 3.007 L 4.207 2.757 L 4.303 2.757 L 4.400 2.757 L 4.400 3.007 L 4.607 3.007 L 4.607 2.757 M 1.254 0.478 L 1.254 0.678 L 1.004 0.678 L 1.004 0.478 L 1.254 0.478 M 1.254 0.878 L 1.254 1.079 L 1.004 1.079 L 1.004 0.878 L 1.254 0.878 M 1.254 1.278 L 1.254 1.478 L 1.004 1.478 L 1.004 1.278 L 1.254 1.278 M 1.254 1.679 L 1.254 1.879 L 1.004 1.879 L 1.004 1.679 L 1.254 1.679 M 1.254 2.079 L 1.254 2.279 L 1.004 2.279 L 1.004 2.079 L 1.254 2.079 M 2.753 0.478 L 2.753 0.678 L 2.503 0.678 L 2.503 0.478 L 2.753 0.478 M 2.753 0.878 L 2.753 1.079 L 2.503 1.079 L 2.503 0.878 L 2.753 0.878 M 2.753 1.278 L 2.753 1.478 L 2.503 1.478 L 2.503 1.278 L 2.753 1.278 M 2.753 1.679 L 2.753 1.879 L 2.503 1.879 L 2.503 1.679 L 2.753 1.679 M 2.753 2.079 L 2.753 2.279 L 2.503 2.279 L 2.503 2.079 L 2.753 2.079 M 4.253 0.478 L 4.253 0.678 L 4.003 0.678 L 4.003 0.478 L 4.253 0.478 M 4.253 0.878 L 4.253 1.079 L 4.003 1.079 L 4.003 0.878 L 4.253 0.878 M 4.253 1.278 L 4.253 1.478 L 4.003 1.478 L 4.003 1.278 L 4.253 1.278 M 4.253 1.679 L 4.253 1.879 L 4.003 1.879 L 4.003 1.679 L 4.253 1.679 M 4.253 2.079 L 4.253 2.279 L 4.003 2.279 L 4.003 2.079 L 4.253 2.079 M 4.253 3.003" style="fill:none;stroke:black;stroke-width:0.012" />
</g>
<g transform="rotate(90 16.728 0.100) translate(16.728 0.100)">
<path id="bottom" d="M 0.250 2.807 L 0.250 3.000 L 0.000 3.000 L 0.000 3.103 L 0.000 3.207 L 0.250 3.207 L 0.250 3.400 L 0.000 3.400 L 0.000 3.503 L 0.000 3.607 L 0.250 3.607 L 0.250 3.800 L 0.000 3.800 L 0.000 3.903 L 0.000 4.007 L 0.250 4.007 L 0.250 4.200 L 0.000 4.200 L 0.000 4.303 L 0.000 4.407 L 0.250 4.407 L 0.250 4.600 L 0.000 4.600 L 0.000 4.704 L 0.000 5.007 L 0.303 5.007 L 0.407 5.007 L 0.407 4.757 L 0.600 4.757 L 0.600 5.007 L 0.703 5.007 L 0.807 5.007 L 0.807 4.757 L 1.000 4.757 L 1.000 5.007 L 1.104 5.007 L 1.207 5.007 L 1.207 4.757 L 1.400 4.757 L 1.400 5.007 L 1.504 5.007 L 1.607 5.007 L 1.607 4.757 L 1.800 4.757 L 1.800 5.007 L 1.903 5.007 L 2.007 5.007 L 2.007 4.757 L 2.200 4.757 L 2.200 5.007 L 2.303 5.007 L 2.407 5.007 L 2.407 4.757 L 2.600 4.757 L 2.600 5.007 L 2.704 5.007 L 3.007 5.007 L 3.007 4.704 L 3.007 4.600 L 2.757 4.600 L 2.757 4.407 L 3.007 4.407 L 3.007 4.303 L 3.007 4.200 L 2.757 4.200 L 2.757 4.007 L 3.007 4.007 L 3.007 3.903 L 3.007 3.800 L 2.757 3.800 L 2.757 3.607 L 3.007 3.607 L 3.007 3.503 L 3.007 3.400 L 2.757 3.400 L 2.757 3.207 L 3.007 3.207 L 3.007 3.103 L 3.007 3.000 L 2.757 3.000 L 2.757 2.807 L 3.007 2.807 L 3.007 2.704 L 3.007 2.600 L 2.757 2.600 L 2.757 2.407 L 3.007 2.407 L 3.007 2.303 L 3.007 2.200 L 2.757 2.200 L 2.757 2.007 L 3.007 2.007 L 3.007 1.903 L 3.007 1.800 L 2.757 1.800 L 2.757 1.607 L 3.007 1.607 L 3.007 1.504 L 3.007 1.400 L 2.757 1.400 L 2.757 1.207 L 3.007 1.207 L 3.007 1.104 L 3.007 1.000 L 2.757 1.000 L 2.757 0.807 L 3.007 0.807 L 3.007 0.703 L 3.007 0.600 L 2.757 0.600 L 2.757 0.407 L 3.007 0.407 L 3.007 0.303 L 3.007 0.000 L 2.704 0.000 L 2.600 0.000 L 2.600 0.250 L 2.407 0.250 L 2.407 0.000 L 2.303 0.000 L 2.200 0.000 L 2.200 0.250 L 2.007 0.250 L 2.007 0.000 L 1.903 0.000 L 1.800 0.000 L 1.800 0.250 L 1.607 0.250 L 1.607 0.000 L 1.504 0.000 L 1.400 0.000 L 1.400 0.250 L 1.207 0.250 L 1.207 0.000 L 1.104 0.000 L 1.000 0.000 L 1.000 0.250 L 0.807 0.250 L 0.807 0.000 L 0.703 0.000 L 0.600 0.000 L 0.600 0.250 L 0.407 0.250 L 0.407 0.000 L 0.303 0.000 L 0.000 0.000 L 0.000 0.303 L 0.000 0.407 L 0.250 0.407 L 0.250 0.600 L 0.000 0.600 L 0.000 0.703 L 0.000 0.807 L 0.250 0.807 L 0.250 1.000 L 0.000 1.000 L 0.000 1.104 L 0.000 1.207 L 0.250 1.207 L 0.250 1.400 L 0.000 1.400 L 0.000 1.504 L 0.000 1.607 L 0.250 1.607 L 0.250 1.800 L 0.000 1.800 L 0.000 1.903 L 0.000 2.007 L 0.250 2.007 L 0.250 2.200 L 0.000 2.200 L 0.000 2.303 L 0.000 2.407 L 0.250 2.407 L 0.250 2.600 L 0.000 2.600 L 0.000 2.704 L 0.000 2.807 L 0.250 2.807 M 0.403 1.004 L 0.603 1.004 L 0.603 1.254 L 0.403 1.254 L 0.403 1.004 M 0.803 1.004 L 1.004 1.004 L 1.004 1.254 L 0.803 1.254 L 0.803 1.004 M 1.204 1.004 L 1.403 1.004 L 1.403 1.254 L 1.204 1.254 L 1.204 1.004 M 1.604 1.004 L 1.804 1.004 L 1.804 1.254 L 1.604 1.254 L 1.604 1.004 M 2.004 1.004 L 2.204 1.004 L 2.204 1.254 L 2.004 1.254 L 2.004 1.004 M 2.404 1.004 L 2.604 1.004 L 2.604 1.254 L 2.404 1.254 L 2.404 1.004 M 0.403 2.503 L 0.603 2.503 L 0.603 2.753 L 0.403 2.753 L 0.403 2.503 M 0.803 2.503 L 1.004 2.503 L 1.004 2.753 L 0.803 2.753 L 0.803 2.503 M 1.204 2.503 L 1.403 2.503 L 1.403 2.753 L 1.204 2.753 L 1.204 2.503 M 1.604 2.503 L 1.804 2.503 L 1.804 2.753 L 1.604 2.753 L 1.604 2.503 M 2.004 2.503 L 2.204 2.503 L 2.204 2.753 L 2.004 2.753 L 2.004 2.503 M 2.404 2.503 L 2.604 2.503 L 2.604 2.753 L 2.404 2.753 L 2.404 2.503 M 0.403 4.003 L 0.603 4.003 L 0.603 4.253 L 0.403 4.253 L 0.403 4.003 M 0.803 4.003 L 1.004 4.003 L 1.004 4.253 L 0.803 4.253 L 0.803 4.003 M 1.204 4.003 L 1.403 4.003 L 1.403 4.253 L 1.204 4.253 L 1.204 4.003 M 1.604 4.003 L 1.804 4.003 L 1.804 4.253 L 1.604 4.253 L 1.604 4.003 M 2.004 4.003 L 2.204 4.003 L 2.204 4.253 L 2.004 4.253 L 2.004 4.003 M 2.404 4.003 L 2.604 4.003 L 2.604 4.253 L 2.404 4.253 L 2.404 4.003 M 3.003 4.003" style="fill:none;stroke:black;stroke-width:0.012" />
</g>
</svg>
