<?xml version="1.0"?>
	<!-- Generated by github.com/dustismo/heavyfishdesign -->
	<svg width="20.000in" height="12.000in" viewBox="0.000 0.000 20.000 12.000"
    	xmlns="http://www.w3.org/2000/svg"
		xmlns:xlink="http://www.w3.org/1999/xlink">
	<g transform="translate(0.100 0.100)">
<path id="dragon_butt_joint" d="M 0.000 0.495 L 0.500 0.495 C 0.501 0.468 0.545 0.385 0.569 0.362 C 0.579 0.352 0.615 0.318 0.644 0.304 C 0.690 0.281 0.746 0.270 0.762 0.246 C 0.765 0.241 0.765 0.231 0.765 0.227 C 0.763 0.221 0.747 0.221 0.743 0.225 C 0.739 0.229 0.734 0.232 0.729 0.235 C 0.715 0.243 0.697 0.244 0.680 0.242 C 0.664 0.240 0.649 0.235 0.633 0.231 C 0.631 0.231 0.630 0.230 0.628 0.230 C 0.627 0.230 0.626 0.230 0.625 0.229 C 0.624 0.229 0.623 0.229 0.622 0.229 C 0.622 0.229 0.621 0.229 0.620 0.229 C 0.615 0.229 0.609 0.231 0.606 0.235 C 0.605 0.236 0.604 0.238 0.603 0.239 C 0.602 0.239 0.602 0.239 0.602 0.240 C 0.600 0.242 0.598 0.244 0.596 0.245 C 0.587 0.249 0.577 0.244 0.569 0.242 C 0.569 0.241 0.569 0.241 0.568 0.241 C 0.559 0.238 0.549 0.237 0.540 0.242 C 0.536 0.245 0.533 0.249 0.529 0.254 C 0.527 0.256 0.525 0.259 0.521 0.259 C 0.517 0.258 0.514 0.255 0.512 0.252 C 0.507 0.244 0.507 0.234 0.508 0.225 C 0.509 0.200 0.515 0.176 0.525 0.154 C 0.527 0.150 0.529 0.146 0.532 0.143 C 0.534 0.141 0.538 0.140 0.540 0.145 C 0.543 0.152 0.551 0.154 0.558 0.155 C 0.571 0.156 0.583 0.153 0.595 0.149 C 0.618 0.140 0.640 0.125 0.650 0.103 C 0.650 0.103 0.651 0.102 0.653 0.103 C 0.690 0.117 0.733 0.118 0.764 0.095 C 0.775 0.087 0.783 0.078 0.790 0.067 C 0.797 0.056 0.804 0.044 0.798 0.031 C 0.792 0.020 0.778 0.016 0.773 0.007 C 0.772 0.005 0.772 0.001 0.775 0.000 C 0.779 -0.001 0.782 0.000 0.785 0.001 C 0.811 0.008 0.831 0.033 0.830 0.060 C 0.829 0.079 0.819 0.097 0.808 0.112 C 0.805 0.117 0.801 0.123 0.800 0.128 C 0.800 0.130 0.799 0.132 0.800 0.133 C 0.802 0.134 0.810 0.132 0.810 0.132 C 0.817 0.130 0.823 0.126 0.829 0.122 C 0.845 0.111 0.859 0.098 0.868 0.083 C 0.871 0.078 0.874 0.072 0.875 0.067 C 0.875 0.065 0.875 0.065 0.875 0.064 C 0.875 0.064 0.876 0.063 0.876 0.063 C 0.876 0.063 0.876 0.062 0.876 0.062 C 0.876 0.062 0.876 0.062 0.877 0.061 C 0.877 0.060 0.878 0.058 0.880 0.059 C 0.883 0.059 0.884 0.062 0.885 0.064 C 0.889 0.076 0.888 0.088 0.886 0.100 C 0.882 0.118 0.873 0.135 0.859 0.145 C 0.853 0.149 0.846 0.153 0.843 0.160 C 0.843 0.160 0.843 0.160 0.843 0.160 C 0.843 0.160 0.842 0.160 0.842 0.161 C 0.842 0.162 0.843 0.164 0.845 0.164 C 0.848 0.165 0.851 0.165 0.854 0.164 C 0.863 0.162 0.872 0.158 0.880 0.154 C 0.891 0.148 0.901 0.139 0.911 0.130 C 0.915 0.126 0.919 0.122 0.924 0.121 C 0.927 0.120 0.931 0.121 0.932 0.124 C 0.934 0.129 0.931 0.135 0.929 0.140 C 0.921 0.161 0.904 0.179 0.884 0.189 C 0.893 0.198 0.900 0.210 0.900 0.223 C 0.901 0.240 0.895 0.256 0.887 0.270 C 0.868 0.303 0.817 0.343 0.798 0.356 C 0.777 0.371 0.777 0.389 0.787 0.398 C 0.798 0.409 0.834 0.401 0.849 0.399 C 0.873 0.396 0.911 0.386 0.932 0.374 C 0.971 0.353 1.007 0.326 1.035 0.293 C 1.052 0.273 1.065 0.250 1.067 0.223 C 1.068 0.204 1.062 0.184 1.050 0.168 C 1.036 0.146 1.020 0.125 1.005 0.105 C 0.992 0.087 0.979 0.070 0.974 0.049 C 0.971 0.039 0.972 0.028 0.981 0.022 C 0.989 0.017 0.999 0.018 1.008 0.020 C 1.023 0.024 1.036 0.030 1.050 0.036 C 1.091 0.054 1.130 0.075 1.169 0.096 C 1.206 0.117 1.244 0.139 1.279 0.163 C 1.327 0.196 1.367 0.239 1.401 0.287 C 1.445 0.350 1.477 0.420 1.500 0.494 L 1.500 0.495 C 1.501 0.522 1.545 0.604 1.569 0.627 C 1.579 0.637 1.615 0.671 1.644 0.685 C 1.690 0.708 1.746 0.719 1.762 0.743 C 1.765 0.748 1.765 0.759 1.765 0.762 C 1.763 0.768 1.747 0.768 1.743 0.764 C 1.739 0.760 1.734 0.757 1.729 0.754 C 1.715 0.746 1.697 0.745 1.680 0.747 C 1.664 0.750 1.649 0.754 1.633 0.758 C 1.631 0.759 1.630 0.759 1.628 0.759 C 1.627 0.759 1.626 0.760 1.625 0.760 C 1.624 0.760 1.623 0.760 1.622 0.760 C 1.622 0.760 1.621 0.760 1.620 0.760 C 1.615 0.760 1.609 0.759 1.606 0.754 C 1.605 0.753 1.604 0.751 1.603 0.750 C 1.602 0.750 1.602 0.750 1.602 0.749 C 1.600 0.747 1.598 0.745 1.596 0.744 C 1.587 0.740 1.577 0.745 1.569 0.748 C 1.569 0.748 1.569 0.748 1.568 0.748 C 1.559 0.751 1.549 0.752 1.540 0.747 C 1.536 0.744 1.533 0.740 1.529 0.735 C 1.527 0.733 1.525 0.730 1.521 0.731 C 1.517 0.731 1.514 0.734 1.512 0.737 C 1.507 0.745 1.507 0.755 1.508 0.765 C 1.509 0.789 1.515 0.813 1.525 0.835 C 1.527 0.839 1.529 0.843 1.532 0.846 C 1.534 0.848 1.538 0.849 1.540 0.845 C 1.543 0.837 1.551 0.835 1.558 0.835 C 1.571 0.833 1.583 0.836 1.595 0.841 C 1.618 0.849 1.640 0.864 1.650 0.886 C 1.650 0.886 1.651 0.888 1.653 0.887 C 1.690 0.872 1.733 0.871 1.764 0.894 C 1.775 0.902 1.783 0.912 1.790 0.922 C 1.797 0.933 1.804 0.945 1.798 0.958 C 1.792 0.969 1.778 0.973 1.773 0.982 C 1.772 0.984 1.772 0.988 1.775 0.989 C 1.779 0.990 1.782 0.989 1.785 0.988 C 1.811 0.981 1.831 0.956 1.830 0.929 C 1.829 0.910 1.819 0.892 1.808 0.877 C 1.805 0.872 1.801 0.866 1.800 0.861 C 1.800 0.859 1.799 0.858 1.800 0.857 C 1.802 0.855 1.810 0.857 1.810 0.857 C 1.817 0.859 1.823 0.863 1.829 0.867 C 1.845 0.878 1.859 0.891 1.868 0.906 C 1.871 0.911 1.874 0.917 1.875 0.922 C 1.875 0.924 1.875 0.924 1.875 0.925 C 1.875 0.925 1.876 0.926 1.876 0.926 C 1.876 0.926 1.876 0.927 1.876 0.927 C 1.876 0.927 1.876 0.928 1.877 0.928 C 1.877 0.929 1.878 0.931 1.880 0.931 C 1.883 0.930 1.884 0.927 1.885 0.925 C 1.889 0.913 1.888 0.901 1.886 0.889 C 1.882 0.871 1.873 0.854 1.859 0.844 C 1.853 0.840 1.846 0.836 1.843 0.830 C 1.843 0.829 1.843 0.829 1.843 0.829 C 1.843 0.829 1.842 0.829 1.842 0.829 C 1.842 0.827 1.843 0.825 1.845 0.825 C 1.848 0.824 1.851 0.825 1.854 0.825 C 1.863 0.827 1.872 0.831 1.880 0.835 C 1.891 0.842 1.901 0.850 1.911 0.859 C 1.915 0.863 1.919 0.867 1.924 0.868 C 1.927 0.869 1.931 0.869 1.932 0.865 C 1.934 0.860 1.931 0.854 1.929 0.849 C 1.921 0.828 1.904 0.810 1.884 0.800 C 1.893 0.791 1.900 0.779 1.900 0.766 C 1.901 0.749 1.895 0.733 1.887 0.719 C 1.868 0.686 1.817 0.646 1.798 0.633 C 1.777 0.618 1.777 0.600 1.787 0.591 C 1.798 0.580 1.834 0.588 1.849 0.590 C 1.873 0.593 1.911 0.603 1.932 0.615 C 1.971 0.636 2.007 0.663 2.035 0.696 C 2.052 0.716 2.065 0.739 2.067 0.766 C 2.068 0.785 2.062 0.805 2.050 0.822 C 2.036 0.843 2.020 0.864 2.005 0.884 C 1.992 0.902 1.979 0.919 1.974 0.940 C 1.971 0.950 1.972 0.962 1.981 0.967 C 1.989 0.972 1.999 0.971 2.008 0.969 C 2.023 0.965 2.036 0.959 2.050 0.953 C 2.091 0.935 2.130 0.914 2.169 0.893 C 2.206 0.872 2.244 0.850 2.279 0.826 C 2.327 0.793 2.367 0.750 2.401 0.702 C 2.445 0.639 2.477 0.569 2.500 0.495 L 2.500 0.495 C 2.501 0.468 2.545 0.385 2.569 0.362 C 2.579 0.352 2.615 0.318 2.644 0.304 C 2.690 0.281 2.746 0.270 2.762 0.246 C 2.765 0.241 2.765 0.231 2.765 0.227 C 2.763 0.221 2.747 0.221 2.743 0.225 C 2.739 0.229 2.734 0.232 2.729 0.235 C 2.715 0.243 2.697 0.244 2.680 0.242 C 2.664 0.240 2.649 0.235 2.633 0.231 C 2.631 0.231 2.630 0.230 2.628 0.230 C 2.627 0.230 2.626 0.230 2.625 0.229 C 2.624 0.229 2.623 0.229 2.622 0.229 C 2.622 0.229 2.621 0.229 2.620 0.229 C 2.615 0.229 2.609 0.231 2.606 0.235 C 2.605 0.236 2.604 0.238 2.603 0.239 C 2.602 0.239 2.602 0.239 2.602 0.240 C 2.600 0.242 2.598 0.244 2.596 0.245 C 2.587 0.249 2.577 0.244 2.569 0.242 C 2.569 0.241 2.569 0.241 2.568 0.241 C 2.559 0.238 2.549 0.237 2.540 0.242 C 2.536 0.245 2.533 0.249 2.529 0.254 C 2.527 0.256 2.525 0.259 2.521 0.259 C 2.517 0.258 2.514 0.255 2.512 0.252 C 2.507 0.244 2.507 0.234 2.508 0.225 C 2.509 0.200 2.515 0.176 2.525 0.154 C 2.527 0.150 2.529 0.146 2.532 0.143 C 2.534 0.141 2.538 0.140 2.540 0.145 C 2.543 0.152 2.551 0.154 2.558 0.155 C 2.571 0.156 2.583 0.153 2.595 0.149 C 2.618 0.140 2.640 0.125 2.650 0.103 C 2.650 0.103 2.651 0.102 2.653 0.103 C 2.690 0.117 2.733 0.118 2.764 0.095 C 2.775 0.087 2.783 0.078 2.790 0.067 C 2.797 0.056 2.804 0.044 2.798 0.031 C 2.792 0.020 2.778 0.016 2.773 0.007 C 2.772 0.005 2.772 0.001 2.775 0.000 C 2.779 -0.001 2.782 0.000 2.785 0.001 C 2.811 0.008 2.831 0.033 2.830 0.060 C 2.829 0.079 2.819 0.097 2.808 0.112 C 2.805 0.117 2.801 0.123 2.800 0.128 C 2.800 0.130 2.799 0.132 2.800 0.133 C 2.802 0.134 2.810 0.132 2.810 0.132 C 2.817 0.130 2.823 0.126 2.829 0.122 C 2.845 0.111 2.859 0.098 2.868 0.083 C 2.871 0.078 2.874 0.072 2.875 0.067 C 2.875 0.065 2.875 0.065 2.875 0.064 C 2.875 0.064 2.876 0.063 2.876 0.063 C 2.876 0.063 2.876 0.062 2.876 0.062 C 2.876 0.062 2.876 0.062 2.877 0.061 C 2.877 0.060 2.878 0.058 2.880 0.059 C 2.883 0.059 2.884 0.062 2.885 0.064 C 2.889 0.076 2.888 0.088 2.886 0.100 C 2.882 0.118 2.873 0.135 2.859 0.145 C 2.853 0.149 2.846 0.153 2.843 0.160 C 2.843 0.160 2.843 0.160 2.843 0.160 C 2.843 0.160 2.842 0.160 2.842 0.161 C 2.842 0.162 2.843 0.164 2.845 0.164 C 2.848 0.165 2.851 0.165 2.854 0.164 C 2.863 0.162 2.872 0.158 2.880 0.154 C 2.891 0.148 2.901 0.139 2.911 0.130 C 2.915 0.126 2.919 0.122 2.924 0.121 C 2.927 0.120 2.931 0.121 2.932 0.124 C 2.934 0.129 2.931 0.135 2.929 0.140 C 2.921 0.161 2.904 0.179 2.884 0.189 C 2.893 0.198 2.900 0.210 2.900 0.223 C 2.901 0.240 2.895 0.256 2.887 0.270 C 2.868 0.303 2.817 0.343 2.798 0.356 C 2.777 0.371 2.777 0.389 2.787 0.398 C 2.798 0.409 2.834 0.401 2.849 0.399 C 2.873 0.396 2.911 0.386 2.932 0.374 C 2.971 0.353 3.007 0.326 3.035 0.293 C 3.052 0.273 3.065 0.250 3.067 0.223 C 3.068 0.204 3.062 0.184 3.050 0.168 C 3.036 0.146 3.020 0.125 3.005 0.105 C 2.992 0.087 2.979 0.070 2.974 0.049 C 2.971 0.039 2.972 0.028 2.981 0.022 C 2.989 0.017 2.999 0.018 3.008 0.020 C 3.023 0.024 3.036 0.030 3.050 0.036 C 3.091 0.054 3.130 0.075 3.169 0.096 C 3.206 0.117 3.244 0.139 3.279 0.163 C 3.327 0.196 3.367 0.239 3.401 0.287 C 3.445 0.350 3.477 0.420 3.500 0.494 L 3.500 0.495 C 3.501 0.522 3.545 0.604 3.569 0.627 C 3.579 0.637 3.615 0.671 3.644 0.685 C 3.690 0.708 3.746 0.719 3.762 0.743 C 3.765 0.748 3.765 0.759 3.765 0.762 C 3.763 0.768 3.747 0.768 3.743 0.764 C 3.739 0.760 3.734 0.757 3.729 0.754 C 3.715 0.746 3.697 0.745 3.680 0.747 C 3.664 0.750 3.649 0.754 3.633 0.758 C 3.631 0.759 3.630 0.759 3.628 0.759 C 3.627 0.759 3.626 0.760 3.625 0.760 C 3.624 0.760 3.623 0.760 3.622 0.760 C 3.622 0.760 3.621 0.760 3.620 0.760 C 3.615 0.760 3.609 0.759 3.606 0.754 C 3.605 0.753 3.604 0.751 3.603 0.750 C 3.602 0.750 3.602 0.750 3.602 0.749 C 3.600 0.747 3.598 0.745 3.596 0.744 C 3.587 0.740 3.577 0.745 3.569 0.748 C 3.569 0.748 3.569 0.748 3.568 0.748 C 3.559 0.751 3.549 0.752 3.540 0.747 C 3.536 0.744 3.533 0.740 3.529 0.735 C 3.527 0.733 3.525 0.730 3.521 0.731 C 3.517 0.731 3.514 0.734 3.512 0.737 C 3.507 0.745 3.507 0.755 3.508 0.765 C 3.509 0.789 3.515 0.813 3.525 0.835 C 3.527 0.839 3.529 0.843 3.532 0.846 C 3.534 0.848 3.538 0.849 3.540 0.845 C 3.543 0.837 3.551 0.835 3.558 0.835 C 3.571 0.833 3.583 0.836 3.595 0.841 C 3.618 0.849 3.640 0.864 3.650 0.886 C 3.650 0.886 3.651 0.888 3.653 0.887 C 3.690 0.872 3.733 0.871 3.764 0.894 C 3.775 0.902 3.783 0.912 3.790 0.922 C 3.797 0.933 3.804 0.945 3.798 0.958 C 3.792 0.969 3.778 0.973 3.773 0.982 C 3.772 0.984 3.772 0.988 3.775 0.989 C 3.779 0.990 3.782 0.989 3.785 0.988 C 3.811 0.981 3.831 0.956 3.830 0.929 C 3.829 0.910 3.819 0.892 3.808 0.877 C 3.805 0.872 3.801 0.866 3.800 0.861 C 3.800 0.859 3.799 0.858 3.800 0.857 C 3.802 0.855 3.810 0.857 3.810 0.857 C 3.817 0.859 3.823 0.863 3.829 0.867 C 3.845 0.878 3.859 0.891 3.868 0.906 C 3.871 0.911 3.874 0.917 3.875 0.922 C 3.875 0.924 3.875 0.924 3.875 0.925 C 3.875 0.925 3.876 0.926 3.876 0.926 C 3.876 0.926 3.876 0.927 3.876 0.927 C 3.876 0.927 3.876 0.928 3.877 0.928 C 3.877 0.929 3.878 0.931 3.880 0.931 C 3.883 0.930 3.884 0.927 3.885 0.925 C 3.889 0.913 3.888 0.901 3.886 0.889 C 3.882 0.871 3.873 0.854 3.859 0.844 C 3.853 0.840 3.846 0.836 3.843 0.830 C 3.843 0.829 3.843 0.829 3.843 0.829 C 3.843 0.829 3.842 0.829 3.842 0.829 C 3.842 0.827 3.843 0.825 3.845 0.825 C 3.848 0.824 3.851 0.825 3.854 0.825 C 3.863 0.827 3.872 0.831 3.880 0.835 C 3.891 0.842 3.901 0.850 3.911 0.859 C 3.915 0.863 3.919 0.867 3.924 0.868 C 3.927 0.869 3.931 0.869 3.932 0.865 C 3.934 0.860 3.931 0.854 3.929 0.849 C 3.921 0.828 3.904 0.810 3.884 0.800 C 3.893 0.791 3.900 0.779 3.900 0.766 C 3.901 0.749 3.895 0.733 3.887 0.719 C 3.868 0.686 3.817 0.646 3.798 0.633 C 3.777 0.618 3.777 0.600 3.787 0.591 C 3.798 0.580 3.834 0.588 3.849 0.590 C 3.873 0.593 3.911 0.603 3.932 0.615 C 3.971 0.636 4.007 0.663 4.035 0.696 C 4.052 0.716 4.065 0.739 4.067 0.766 C 4.068 0.785 4.062 0.805 4.050 0.822 C 4.036 0.843 4.020 0.864 4.005 0.884 C 3.992 0.902 3.979 0.919 3.974 0.940 C 3.971 0.950 3.972 0.962 3.981 0.967 C 3.989 0.972 3.999 0.971 4.008 0.969 C 4.023 0.965 4.036 0.959 4.050 0.953 C 4.091 0.935 4.130 0.914 4.169 0.893 C 4.206 0.872 4.244 0.850 4.279 0.826 C 4.327 0.793 4.367 0.750 4.401 0.702 C 4.445 0.639 4.477 0.569 4.500 0.495 L 4.500 0.495 C 4.501 0.468 4.545 0.385 4.569 0.362 C 4.579 0.352 4.615 0.318 4.644 0.304 C 4.690 0.281 4.746 0.270 4.762 0.246 C 4.765 0.241 4.765 0.231 4.765 0.227 C 4.763 0.221 4.747 0.221 4.743 0.225 C 4.739 0.229 4.734 0.232 4.729 0.235 C 4.715 0.243 4.697 0.244 4.680 0.242 C 4.664 0.240 4.649 0.235 4.633 0.231 C 4.631 0.231 4.630 0.230 4.628 0.230 C 4.627 0.230 4.626 0.230 4.625 0.229 C 4.624 0.229 4.623 0.229 4.622 0.229 C 4.622 0.229 4.621 0.229 4.620 0.229 C 4.615 0.229 4.609 0.231 4.606 0.235 C 4.605 0.236 4.604 0.238 4.603 0.239 C 4.602 0.239 4.602 0.239 4.602 0.240 C 4.600 0.242 4.598 0.244 4.596 0.245 C 4.587 0.249 4.577 0.244 4.569 0.242 C 4.569 0.241 4.569 0.241 4.568 0.241 C 4.559 0.238 4.549 0.237 4.540 0.242 C 4.536 0.245 4.533 0.249 4.529 0.254 C 4.527 0.256 4.525 0.259 4.521 0.259 C 4.517 0.258 4.514 0.255 4.512 0.252 C 4.507 0.244 4.507 0.234 4.508 0.225 C 4.509 0.200 4.515 0.176 4.525 0.154 C 4.527 0.150 4.529 0.146 4.532 0.143 C 4.534 0.141 4.538 0.140 4.540 0.145 C 4.543 0.152 4.551 0.154 4.558 0.155 C 4.571 0.156 4.583 0.153 4.595 0.149 C 4.618 0.140 4.640 0.125 4.650 0.103 C 4.650 0.103 4.651 0.102 4.653 0.103 C 4.690 0.117 4.733 0.118 4.764 0.095 C 4.775 0.087 4.783 0.078 4.790 0.067 C 4.797 0.056 4.804 0.044 4.798 0.031 C 4.792 0.020 4.778 0.016 4.773 0.007 C 4.772 0.005 4.772 0.001 4.775 0.000 C 4.779 -0.001 4.782 0.000 4.785 0.001 C 4.811 0.008 4.831 0.033 4.830 0.060 C 4.829 0.079 4.819 0.097 4.808 0.112 C 4.805 0.117 4.801 0.123 4.800 0.128 C 4.800 0.130 4.799 0.132 4.800 0.133 C 4.802 0.134 4.810 0.132 4.810 0.132 C 4.817 0.130 4.823 0.126 4.829 0.122 C 4.845 0.111 4.859 0.098 4.868 0.083 C 4.871 0.078 4.874 0.072 4.875 0.067 C 4.875 0.065 4.875 0.065 4.875 0.064 C 4.875 0.064 4.876 0.063 4.876 0.063 C 4.876 0.063 4.876 0.062 4.876 0.062 C 4.876 0.062 4.876 0.062 4.877 0.061 C 4.877 0.060 4.878 0.058 4.880 0.059 C 4.883 0.059 4.884 0.062 4.885 0.064 C 4.889 0.076 4.888 0.088 4.886 0.100 C 4.882 0.118 4.873 0.135 4.859 0.145 C 4.853 0.149 4.846 0.153 4.843 0.160 C 4.843 0.160 4.843 0.160 4.843 0.160 C 4.843 0.160 4.842 0.160 4.842 0.161 C 4.842 0.162 4.843 0.164 4.845 0.164 C 4.848 0.165 4.851 0.165 4.854 0.164 C 4.863 0.162 4.872 0.158 4.880 0.154 C 4.891 0.148 4.901 0.139 4.911 0.130 C 4.915 0.126 4.919 0.122 4.924 0.121 C 4.927 0.120 4.931 0.121 4.932 0.124 C 4.934 0.129 4.931 0.135 4.929 0.140 C 4.921 0.161 4.904 0.179 4.884 0.189 C 4.893 0.198 4.900 0.210 4.900 0.223 C 4.901 0.240 4.895 0.256 4.887 0.270 C 4.868 0.303 4.817 0.343 4.798 0.356 C 4.777 0.371 4.777 0.389 4.787 0.398 C 4.798 0.409 4.834 0.401 4.849 0.399 C 4.873 0.396 4.911 0.386 4.932 0.374 C 4.971 0.353 5.007 0.326 5.035 0.293 C 5.052 0.273 5.065 0.250 5.067 0.223 C 5.068 0.204 5.062 0.184 5.050 0.168 C 5.036 0.146 5.020 0.125 5.005 0.105 C 4.992 0.087 4.979 0.070 4.974 0.049 C 4.971 0.039 4.972 0.028 4.981 0.022 C 4.989 0.017 4.999 0.018 5.008 0.020 C 5.023 0.024 5.036 0.030 5.050 0.036 C 5.091 0.054 5.130 0.075 5.169 0.096 C 5.206 0.117 5.244 0.139 5.279 0.163 C 5.327 0.196 5.367 0.239 5.401 0.287 C 5.445 0.350 5.477 0.420 5.500 0.494 L 5.500 0.495 C 5.501 0.522 5.545 0.604 5.569 0.627 C 5.579 0.637 5.615 0.671 5.644 0.685 C 5.690 0.708 5.746 0.719 5.762 0.743 C 5.765 0.748 5.765 0.759 5.765 0.762 C 5.763 0.768 5.747 0.768 5.743 0.764 C 5.739 0.760 5.734 0.757 5.729 0.754 C 5.715 0.746 5.697 0.745 5.680 0.747 C 5.664 0.750 5.649 0.754 5.633 0.758 C 5.631 0.759 5.630 0.759 5.628 0.759 C 5.627 0.759 5.626 0.760 5.625 0.760 C 5.624 0.760 5.623 0.760 5.622 0.760 C 5.622 0.760 5.621 0.760 5.620 0.760 C 5.615 0.760 5.609 0.759 5.606 0.754 C 5.605 0.753 5.604 0.751 5.603 0.750 C 5.602 0.750 5.602 0.750 5.602 0.749 C 5.600 0.747 5.598 0.745 5.596 0.744 C 5.587 0.740 5.577 0.745 5.569 0.748 C 5.569 0.748 5.569 0.748 5.568 0.748 C 5.559 0.751 5.549 0.752 5.540 0.747 C 5.536 0.744 5.533 0.740 5.529 0.735 C 5.527 0.733 5.525 0.730 5.521 0.731 C 5.517 0.731 5.514 0.734 5.512 0.737 C 5.507 0.745 5.507 0.755 5.508 0.765 C 5.509 0.789 5.515 0.813 5.525 0.835 C 5.527 0.839 5.529 0.843 5.532 0.846 C 5.534 0.848 5.538 0.849 5.540 0.845 C 5.543 0.837 5.551 0.835 5.558 0.835 C 5.571 0.833 5.583 0.836 5.595 0.841 C 5.618 0.849 5.640 0.864 5.650 0.886 C 5.650 0.886 5.651 0.888 5.653 0.887 C 5.690 0.872 5.733 0.871 5.764 0.894 C 5.775 0.902 5.783 0.912 5.790 0.922 C 5.797 0.933 5.804 0.945 5.798 0.958 C 5.792 0.969 5.778 0.973 5.773 0.982 C 5.772 0.984 5.772 0.988 5.775 0.989 C 5.779 0.990 5.782 0.989 5.785 0.988 C 5.811 0.981 5.831 0.956 5.830 0.929 C 5.829 0.910 5.819 0.892 5.808 0.877 C 5.805 0.872 5.801 0.866 5.800 0.861 C 5.800 0.859 5.799 0.858 5.800 0.857 C 5.802 0.855 5.810 0.857 5.810 0.857 C 5.817 0.859 5.823 0.863 5.829 0.867 C 5.845 0.878 5.859 0.891 5.868 0.906 C 5.871 0.911 5.874 0.917 5.875 0.922 C 5.875 0.924 5.875 0.924 5.875 0.925 C 5.875 0.925 5.876 0.926 5.876 0.926 C 5.876 0.926 5.876 0.927 5.876 0.927 C 5.876 0.927 5.876 0.928 5.877 0.928 C 5.877 0.929 5.878 0.931 5.880 0.931 C 5.883 0.930 5.884 0.927 5.885 0.925 C 5.889 0.913 5.888 0.901 5.886 0.889 C 5.882 0.871 5.873 0.854 5.859 0.844 C 5.853 0.840 5.846 0.836 5.843 0.830 C 5.843 0.829 5.843 0.829 5.843 0.829 C 5.843 0.829 5.842 0.829 5.842 0.829 C 5.842 0.827 5.843 0.825 5.845 0.825 C 5.848 0.824 5.851 0.825 5.854 0.825 C 5.863 0.827 5.872 0.831 5.880 0.835 C 5.891 0.842 5.901 0.850 5.911 0.859 C 5.915 0.863 5.919 0.867 5.924 0.868 C 5.927 0.869 5.931 0.869 5.932 0.865 C 5.934 0.860 5.931 0.854 5.929 0.849 C 5.921 0.828 5.904 0.810 5.884 0.800 C 5.893 0.791 5.900 0.779 5.900 0.766 C 5.901 0.749 5.895 0.733 5.887 0.719 C 5.868 0.686 5.817 0.646 5.798 0.633 C 5.777 0.618 5.777 0.600 5.787 0.591 C 5.798 0.580 5.834 0.588 5.849 0.590 C 5.873 0.593 5.911 0.603 5.932 0.615 C 5.971 0.636 6.007 0.663 6.035 0.696 C 6.052 0.716 6.065 0.739 6.067 0.766 C 6.068 0.785 6.062 0.805 6.050 0.822 C 6.036 0.843 6.020 0.864 6.005 0.884 C 5.992 0.902 5.979 0.919 5.974 0.940 C 5.971 0.950 5.972 0.962 5.981 0.967 C 5.989 0.972 5.999 0.971 6.008 0.969 C 6.023 0.965 6.036 0.959 6.050 0.953 C 6.091 0.935 6.130 0.914 6.169 0.893 C 6.206 0.872 6.244 0.850 6.279 0.826 C 6.327 0.793 6.367 0.750 6.401 0.702 C 6.445 0.639 6.477 0.569 6.500 0.495 L 6.500 0.495 C 6.501 0.468 6.545 0.385 6.569 0.362 C 6.579 0.352 6.615 0.318 6.644 0.304 C 6.690 0.281 6.746 0.270 6.762 0.246 C 6.765 0.241 6.765 0.231 6.765 0.227 C 6.763 0.221 6.747 0.221 6.743 0.225 C 6.739 0.229 6.734 0.232 6.729 0.235 C 6.715 0.243 6.697 0.244 6.680 0.242 C 6.664 0.240 6.649 0.235 6.633 0.231 C 6.631 0.231 6.630 0.230 6.628 0.230 C 6.627 0.230 6.626 0.230 6.625 0.229 C 6.624 0.229 6.623 0.229 6.622 0.229 C 6.622 0.229 6.621 0.229 6.620 0.229 C 6.615 0.229 6.609 0.231 6.606 0.235 C 6.605 0.236 6.604 0.238 6.603 0.239 C 6.602 0.239 6.602 0.239 6.602 0.240 C 6.600 0.242 6.598 0.244 6.596 0.245 C 6.587 0.249 6.577 0.244 6.569 0.242 C 6.569 0.241 6.569 0.241 6.568 0.241 C 6.559 0.238 6.549 0.237 6.540 0.242 C 6.536 0.245 6.533 0.249 6.529 0.254 C 6.527 0.256 6.525 0.259 6.521 0.259 C 6.517 0.258 6.514 0.255 6.512 0.252 C 6.507 0.244 6.507 0.234 6.508 0.225 C 6.509 0.200 6.515 0.176 6.525 0.154 C 6.527 0.150 6.529 0.146 6.532 0.143 C 6.534 0.141 6.538 0.140 6.540 0.145 C 6.543 0.152 6.551 0.154 6.558 0.155 C 6.571 0.156 6.583 0.153 6.595 0.149 C 6.618 0.140 6.640 0.125 6.650 0.103 C 6.650 0.103 6.651 0.102 6.653 0.103 C 6.690 0.117 6.733 0.118 6.764 0.095 C 6.775 0.087 6.783 0.078 6.790 0.067 C 6.797 0.056 6.804 0.044 6.798 0.031 C 6.792 0.020 6.778 0.016 6.773 0.007 C 6.772 0.005 6.772 0.001 6.775 0.000 C 6.779 -0.001 6.782 0.000 6.785 0.001 C 6.811 0.008 6.831 0.033 6.830 0.060 C 6.829 0.079 6.819 0.097 6.808 0.112 C 6.805 0.117 6.801 0.123 6.800 0.128 C 6.800 0.130 6.799 0.132 6.800 0.133 C 6.802 0.134 6.810 0.132 6.810 0.132 C 6.817 0.130 6.823 0.126 6.829 0.122 C 6.845 0.111 6.859 0.098 6.868 0.083 C 6.871 0.078 6.874 0.072 6.875 0.067 C 6.875 0.065 6.875 0.065 6.875 0.064 C 6.875 0.064 6.876 0.063 6.876 0.063 C 6.876 0.063 6.876 0.062 6.876 0.062 C 6.876 0.062 6.876 0.062 6.877 0.061 C 6.877 0.060 6.878 0.058 6.880 0.059 C 6.883 0.059 6.884 0.062 6.885 0.064 C 6.889 0.076 6.888 0.088 6.886 0.100 C 6.882 0.118 6.873 0.135 6.859 0.145 C 6.853 0.149 6.846 0.153 6.843 0.160 C 6.843 0.160 6.843 0.160 6.843 0.160 C 6.843 0.160 6.842 0.160 6.842 0.161 C 6.842 0.162 6.843 0.164 6.845 0.164 C 6.848 0.165 6.851 0.165 6.854 0.164 C 6.863 0.162 6.872 0.158 6.880 0.154 C 6.891 0.148 6.901 0.139 6.911 0.130 C 6.915 0.126 6.919 0.122 6.924 0.121 C 6.927 0.120 6.931 0.121 6.932 0.124 C 6.934 0.129 6.931 0.135 6.929 0.140 C 6.921 0.161 6.904 0.179 6.884 0.189 C 6.893 0.198 6.900 0.210 6.900 0.223 C 6.901 0.240 6.895 0.256 6.887 0.270 C 6.868 0.303 6.817 0.343 6.798 0.356 C 6.777 0.371 6.777 0.389 6.787 0.398 C 6.798 0.409 6.834 0.401 6.849 0.399 C 6.873 0.396 6.911 0.386 6.932 0.374 C 6.971 0.353 7.007 0.326 7.035 0.293 C 7.052 0.273 7.065 0.250 7.067 0.223 C 7.068 0.204 7.062 0.184 7.050 0.168 C 7.036 0.146 7.020 0.125 7.005 0.105 C 6.992 0.087 6.979 0.070 6.974 0.049 C 6.971 0.039 6.972 0.028 6.981 0.022 C 6.989 0.017 6.999 0.018 7.008 0.020 C 7.023 0.024 7.036 0.030 7.050 0.036 C 7.091 0.054 7.130 0.075 7.169 0.096 C 7.206 0.117 7.244 0.139 7.279 0.163 C 7.327 0.196 7.367 0.239 7.401 0.287 C 7.445 0.350 7.477 0.420 7.500 0.494 L 7.500 0.495 C 7.501 0.522 7.545 0.604 7.569 0.627 C 7.579 0.637 7.615 0.671 7.644 0.685 C 7.690 0.708 7.746 0.719 7.762 0.743 C 7.765 0.748 7.765 0.759 7.765 0.762 C 7.763 0.768 7.747 0.768 7.743 0.764 C 7.739 0.760 7.734 0.757 7.729 0.754 C 7.715 0.746 7.697 0.745 7.680 0.747 C 7.664 0.750 7.649 0.754 7.633 0.758 C 7.631 0.759 7.630 0.759 7.628 0.759 C 7.627 0.759 7.626 0.760 7.625 0.760 C 7.624 0.760 7.623 0.760 7.622 0.760 C 7.622 0.760 7.621 0.760 7.620 0.760 C 7.615 0.760 7.609 0.759 7.606 0.754 C 7.605 0.753 7.604 0.751 7.603 0.750 C 7.602 0.750 7.602 0.750 7.602 0.749 C 7.600 0.747 7.598 0.745 7.596 0.744 C 7.587 0.740 7.577 0.745 7.569 0.748 C 7.569 0.748 7.569 0.748 7.568 0.748 C 7.559 0.751 7.549 0.752 7.540 0.747 C 7.536 0.744 7.533 0.740 7.529 0.735 C 7.527 0.733 7.525 0.730 7.521 0.731 C 7.517 0.731 7.514 0.734 7.512 0.737 C 7.507 0.745 7.507 0.755 7.508 0.765 C 7.509 0.789 7.515 0.813 7.525 0.835 C 7.527 0.839 7.529 0.843 7.532 0.846 C 7.534 0.848 7.538 0.849 7.540 0.845 C 7.543 0.837 7.551 0.835 7.558 0.835 C 7.571 0.833 7.583 0.836 7.595 0.841 C 7.618 0.849 7.640 0.864 7.650 0.886 C 7.650 0.886 7.651 0.888 7.653 0.887 C 7.690 0.872 7.733 0.871 7.764 0.894 C 7.775 0.902 7.783 0.912 7.790 0.922 C 7.797 0.933 7.804 0.945 7.798 0.958 C 7.792 0.969 7.778 0.973 7.773 0.982 C 7.772 0.984 7.772 0.988 7.775 0.989 C 7.779 0.990 7.782 0.989 7.785 0.988 C 7.811 0.981 7.831 0.956 7.830 0.929 C 7.829 0.910 7.819 0.892 7.808 0.877 C 7.805 0.872 7.801 0.866 7.800 0.861 C 7.800 0.859 7.799 0.858 7.800 0.857 C 7.802 0.855 7.810 0.857 7.810 0.857 C 7.817 0.859 7.823 0.863 7.829 0.867 C 7.845 0.878 7.859 0.891 7.868 0.906 C 7.871 0.911 7.874 0.917 7.875 0.922 C 7.875 0.924 7.875 0.924 7.875 0.925 C 7.875 0.925 7.876 0.926 7.876 0.926 C 7.876 0.926 7.876 0.927 7.876 0.927 C 7.876 0.927 7.876 0.928 7.877 0.928 C 7.877 0.929 7.878 0.931 7.880 0.931 C 7.883 0.930 7.884 0.927 7.885 0.925 C 7.889 0.913 7.888 0.901 7.886 0.889 C 7.882 0.871 7.873 0.854 7.859 0.844 C 7.853 0.840 7.846 0.836 7.843 0.830 C 7.843 0.829 7.843 0.829 7.843 0.829 C 7.843 0.829 7.842 0.829 7.842 0.829 C 7.842 0.827 7.843 0.825 7.845 0.825 C 7.848 0.824 7.851 0.825 7.854 0.825 C 7.863 0.827 7.872 0.831 7.880 0.835 C 7.891 0.842 7.901 0.850 7.911 0.859 C 7.915 0.863 7.919 0.867 7.924 0.868 C 7.927 0.869 7.931 0.869 7.932 0.865 C 7.934 0.860 7.931 0.854 7.929 0.849 C 7.921 0.828 7.904 0.810 7.884 0.800 C 7.893 0.791 7.900 0.779 7.900 0.766 C 7.901 0.749 7.895 0.733 7.887 0.719 C 7.868 0.686 7.817 0.646 7.798 0.633 C 7.777 0.618 7.777 0.600 7.787 0.591 C 7.798 0.580 7.834 0.588 7.849 0.590 C 7.873 0.593 7.911 0.603 7.932 0.615 C 7.971 0.636 8.007 0.663 8.035 0.696 C 8.052 0.716 8.065 0.739 8.067 0.766 C 8.068 0.785 8.062 0.805 8.050 0.822 C 8.036 0.843 8.020 0.864 8.005 0.884 C 7.992 0.902 7.979 0.919 7.974 0.940 C 7.971 0.950 7.972 0.962 7.981 0.967 C 7.989 0.972 7.999 0.971 8.008 0.969 C 8.023 0.965 8.036 0.959 8.050 0.953 C 8.091 0.935 8.130 0.914 8.169 0.893 C 8.206 0.872 8.244 0.850 8.279 0.826 C 8.327 0.793 8.367 0.750 8.401 0.702 C 8.445 0.639 8.477 0.569 8.500 0.495 L 8.500 0.495 L 9.000 0.495" style="fill:none;stroke:black;stroke-width:0.012" />
</g>
</svg>
