<?xml version="1.0"?>
	<!-- Generated by github.com/dustismo/heavyfishdesign -->
	<svg width="20.000in" height="12.000in" viewBox="0.000 0.000 20.000 12.000"
    	xmlns="http://www.w3.org/2000/svg"
		xmlns:xlink="http://www.w3.org/1999/xlink">
	<g transform="translate(0.100 0.100)">
<path id="dragon_butt_joint" d="M 0.000 0.495 L 0.500 0.495 C 0.501 0.522 0.545 0.604 0.569 0.627 C 0.579 0.637 0.615 0.671 0.644 0.685 C 0.690 0.708 0.746 0.719 0.762 0.743 C 0.765 0.748 0.765 0.759 0.765 0.762 C 0.763 0.768 0.747 0.768 0.743 0.764 C 0.739 0.760 0.734 0.757 0.729 0.754 C 0.715 0.746 0.697 0.745 0.680 0.747 C 0.664 0.750 0.649 0.754 0.633 0.758 C 0.631 0.759 0.630 0.759 0.628 0.759 C 0.627 0.759 0.626 0.760 0.625 0.760 C 0.624 0.760 0.623 0.760 0.622 0.760 C 0.622 0.760 0.621 0.760 0.620 0.760 C 0.615 0.760 0.609 0.759 0.606 0.754 C 0.605 0.753 0.604 0.751 0.603 0.750 C 0.602 0.750 0.602 0.750 0.602 0.749 C 0.600 0.747 0.598 0.745 0.596 0.744 C 0.587 0.740 0.577 0.745 0.569 0.748 C 0.569 0.748 0.569 0.748 0.568 0.748 C 0.559 0.751 0.549 0.752 0.540 0.747 C 0.536 0.744 0.533 0.740 0.529 0.735 C 0.527 0.733 0.525 0.730 0.521 0.731 C 0.517 0.731 0.514 0.734 0.512 0.737 C 0.507 0.745 0.507 0.755 0.508 0.765 C 0.509 0.789 0.515 0.813 0.525 0.835 C 0.527 0.839 0.529 0.843 0.532 0.846 C 0.534 0.848 0.538 0.849 0.540 0.845 C 0.543 0.837 0.551 0.835 0.558 0.835 C 0.571 0.833 0.583 0.836 0.595 0.841 C 0.618 0.849 0.640 0.864 0.650 0.886 C 0.650 0.886 0.651 0.888 0.653 0.887 C 0.690 0.872 0.733 0.871 0.764 0.894 C 0.775 0.902 0.783 0.912 0.790 0.922 C 0.797 0.933 0.804 0.945 0.798 0.958 C 0.792 0.969 0.778 0.973 0.773 0.982 C 0.772 0.984 0.772 0.988 0.775 0.989 C 0.779 0.990 0.782 0.989 0.785 0.988 C 0.811 0.981 0.831 0.956 0.830 0.929 C 0.829 0.910 0.819 0.892 0.808 0.877 C 0.805 0.872 0.801 0.866 0.800 0.861 C 0.800 0.859 0.799 0.858 0.800 0.857 C 0.802 0.855 0.810 0.857 0.810 0.857 C 0.817 0.859 0.823 0.863 0.829 0.867 C 0.845 0.878 0.859 0.891 0.868 0.906 C 0.871 0.911 0.874 0.917 0.875 0.922 C 0.875 0.924 0.875 0.924 0.875 0.925 C 0.875 0.925 0.876 0.926 0.876 0.926 C 0.876 0.926 0.876 0.927 0.876 0.927 C 0.876 0.927 0.876 0.928 0.877 0.928 C 0.877 0.929 0.878 0.931 0.880 0.931 C 0.883 0.930 0.884 0.927 0.885 0.925 C 0.889 0.913 0.888 0.901 0.886 0.889 C 0.882 0.871 0.873 0.854 0.859 0.844 C 0.853 0.840 0.846 0.836 0.843 0.830 C 0.843 0.829 0.843 0.829 0.843 0.829 C 0.843 0.829 0.842 0.829 0.842 0.829 C 0.842 0.827 0.843 0.825 0.845 0.825 C 0.848 0.824 0.851 0.825 0.854 0.825 C 0.863 0.827 0.872 0.831 0.880 0.835 C 0.891 0.842 0.901 0.850 0.911 0.859 C 0.915 0.863 0.919 0.867 0.924 0.868 C 0.927 0.869 0.931 0.869 0.932 0.865 C 0.934 0.860 0.931 0.854 0.929 0.849 C 0.921 0.828 0.904 0.810 0.884 0.800 C 0.893 0.791 0.900 0.779 0.900 0.766 C 0.901 0.749 0.895 0.733 0.887 0.719 C 0.868 0.686 0.817 0.646 0.798 0.633 C 0.777 0.618 0.777 0.600 0.787 0.591 C 0.798 0.580 0.834 0.588 0.849 0.590 C 0.873 0.593 0.911 0.603 0.932 0.615 C 0.971 0.636 1.007 0.663 1.035 0.696 C 1.052 0.716 1.065 0.739 1.067 0.766 C 1.068 0.785 1.062 0.805 1.050 0.822 C 1.036 0.843 1.020 0.864 1.005 0.884 C 0.992 0.902 0.979 0.919 0.974 0.940 C 0.971 0.950 0.972 0.962 0.981 0.967 C 0.989 0.972 0.999 0.971 1.008 0.969 C 1.023 0.965 1.036 0.959 1.050 0.953 C 1.091 0.935 1.130 0.914 1.169 0.893 C 1.206 0.872 1.244 0.850 1.279 0.826 C 1.327 0.793 1.367 0.750 1.401 0.702 C 1.445 0.639 1.477 0.569 1.500 0.495 L 1.500 0.495 C 1.501 0.468 1.545 0.385 1.569 0.362 C 1.579 0.352 1.615 0.318 1.644 0.304 C 1.690 0.281 1.746 0.270 1.762 0.246 C 1.765 0.241 1.765 0.231 1.765 0.227 C 1.763 0.221 1.747 0.221 1.743 0.225 C 1.739 0.229 1.734 0.232 1.729 0.235 C 1.715 0.243 1.697 0.244 1.680 0.242 C 1.664 0.240 1.649 0.235 1.633 0.231 C 1.631 0.231 1.630 0.230 1.628 0.230 C 1.627 0.230 1.626 0.230 1.625 0.229 C 1.624 0.229 1.623 0.229 1.622 0.229 C 1.622 0.229 1.621 0.229 1.620 0.229 C 1.615 0.229 1.609 0.231 1.606 0.235 C 1.605 0.236 1.604 0.238 1.603 0.239 C 1.602 0.239 1.602 0.239 1.602 0.240 C 1.600 0.242 1.598 0.244 1.596 0.245 C 1.587 0.249 1.577 0.244 1.569 0.242 C 1.569 0.241 1.569 0.241 1.568 0.241 C 1.559 0.238 1.549 0.237 1.540 0.242 C 1.536 0.245 1.533 0.249 1.529 0.254 C 1.527 0.256 1.525 0.259 1.521 0.259 C 1.517 0.258 1.514 0.255 1.512 0.252 C 1.507 0.244 1.507 0.234 1.508 0.225 C 1.509 0.200 1.515 0.176 1.525 0.154 C 1.527 0.150 1.529 0.146 1.532 0.143 C 1.534 0.141 1.538 0.140 1.540 0.145 C 1.543 0.152 1.551 0.154 1.558 0.155 C 1.571 0.156 1.583 0.153 1.595 0.149 C 1.618 0.140 1.640 0.125 1.650 0.103 C 1.650 0.103 1.651 0.102 1.653 0.103 C 1.690 0.117 1.733 0.118 1.764 0.095 C 1.775 0.087 1.783 0.078 1.790 0.067 C 1.797 0.056 1.804 0.044 1.798 0.031 C 1.792 0.020 1.778 0.016 1.773 0.007 C 1.772 0.005 1.772 0.001 1.775 0.000 C 1.779 -0.001 1.782 0.000 1.785 0.001 C 1.811 0.008 1.831 0.033 1.830 0.060 C 1.829 0.079 1.819 0.097 1.808 0.112 C 1.805 0.117 1.801 0.123 1.800 0.128 C 1.800 0.130 1.799 0.132 1.800 0.133 C 1.802 0.134 1.810 0.132 1.810 0.132 C 1.817 0.130 1.823 0.126 1.829 0.122 C 1.845 0.111 1.859 0.098 1.868 0.083 C 1.871 0.078 1.874 0.072 1.875 0.067 C 1.875 0.065 1.875 0.065 1.875 0.064 C 1.875 0.064 1.876 0.063 1.876 0.063 C 1.876 0.063 1.876 0.062 1.876 0.062 C 1.876 0.062 1.876 0.062 1.877 0.061 C 1.877 0.060 1.878 0.058 1.880 0.059 C 1.883 0.059 1.884 0.062 1.885 0.064 C 1.889 0.076 1.888 0.088 1.886 0.100 C 1.882 0.118 1.873 0.135 1.859 0.145 C 1.853 0.149 1.846 0.153 1.843 0.160 C 1.843 0.160 1.843 0.160 1.843 0.160 C 1.843 0.160 1.842 0.160 1.842 0.161 C 1.842 0.162 1.843 0.164 1.845 0.164 C 1.848 0.165 1.851 0.165 1.854 0.164 C 1.863 0.162 1.872 0.158 1.880 0.154 C 1.891 0.148 1.901 0.139 1.911 0.130 C 1.915 0.126 1.919 0.122 1.924 0.121 C 1.927 0.120 1.931 0.121 1.932 0.124 C 1.934 0.129 1.931 0.135 1.929 0.140 C 1.921 0.161 1.904 0.179 1.884 0.189 C 1.893 0.198 1.900 0.210 1.900 0.223 C 1.901 0.240 1.895 0.256 1.887 0.270 C 1.868 0.303 1.817 0.343 1.798 0.356 C 1.777 0.371 1.777 0.389 1.787 0.398 C 1.798 0.409 1.834 0.401 1.849 0.399 C 1.873 0.396 1.911 0.386 1.932 0.374 C 1.971 0.353 2.007 0.326 2.035 0.293 C 2.052 0.273 2.065 0.250 2.067 0.223 C 2.068 0.204 2.062 0.184 2.050 0.168 C 2.036 0.146 2.020 0.125 2.005 0.105 C 1.992 0.087 1.979 0.070 1.974 0.049 C 1.971 0.039 1.972 0.028 1.981 0.022 C 1.989 0.017 1.999 0.018 2.008 0.020 C 2.023 0.024 2.036 0.030 2.050 0.036 C 2.091 0.054 2.130 0.075 2.169 0.096 C 2.206 0.117 2.244 0.139 2.279 0.163 C 2.327 0.196 2.367 0.239 2.401 0.287 C 2.445 0.350 2.477 0.420 2.500 0.494 L 2.500 0.495 C 2.501 0.522 2.545 0.604 2.569 0.627 C 2.579 0.637 2.615 0.671 2.644 0.685 C 2.690 0.708 2.746 0.719 2.762 0.743 C 2.765 0.748 2.765 0.759 2.765 0.762 C 2.763 0.768 2.747 0.768 2.743 0.764 C 2.739 0.760 2.734 0.757 2.729 0.754 C 2.715 0.746 2.697 0.745 2.680 0.747 C 2.664 0.750 2.649 0.754 2.633 0.758 C 2.631 0.759 2.630 0.759 2.628 0.759 C 2.627 0.759 2.626 0.760 2.625 0.760 C 2.624 0.760 2.623 0.760 2.622 0.760 C 2.622 0.760 2.621 0.760 2.620 0.760 C 2.615 0.760 2.609 0.759 2.606 0.754 C 2.605 0.753 2.604 0.751 2.603 0.750 C 2.602 0.750 2.602 0.750 2.602 0.749 C 2.600 0.747 2.598 0.745 2.596 0.744 C 2.587 0.740 2.577 0.745 2.569 0.748 C 2.569 0.748 2.569 0.748 2.568 0.748 C 2.559 0.751 2.549 0.752 2.540 0.747 C 2.536 0.744 2.533 0.740 2.529 0.735 C 2.527 0.733 2.525 0.730 2.521 0.731 C 2.517 0.731 2.514 0.734 2.512 0.737 C 2.507 0.745 2.507 0.755 2.508 0.765 C 2.509 0.789 2.515 0.813 2.525 0.835 C 2.527 0.839 2.529 0.843 2.532 0.846 C 2.534 0.848 2.538 0.849 2.540 0.845 C 2.543 0.837 2.551 0.835 2.558 0.835 C 2.571 0.833 2.583 0.836 2.595 0.841 C 2.618 0.849 2.640 0.864 2.650 0.886 C 2.650 0.886 2.651 0.888 2.653 0.887 C 2.690 0.872 2.733 0.871 2.764 0.894 C 2.775 0.902 2.783 0.912 2.790 0.922 C 2.797 0.933 2.804 0.945 2.798 0.958 C 2.792 0.969 2.778 0.973 2.773 0.982 C 2.772 0.984 2.772 0.988 2.775 0.989 C 2.779 0.990 2.782 0.989 2.785 0.988 C 2.811 0.981 2.831 0.956 2.830 0.929 C 2.829 0.910 2.819 0.892 2.808 0.877 C 2.805 0.872 2.801 0.866 2.800 0.861 C 2.800 0.859 2.799 0.858 2.800 0.857 C 2.802 0.855 2.810 0.857 2.810 0.857 C 2.817 0.859 2.823 0.863 2.829 0.867 C 2.845 0.878 2.859 0.891 2.868 0.906 C 2.871 0.911 2.874 0.917 2.875 0.922 C 2.875 0.924 2.875 0.924 2.875 0.925 C 2.875 0.925 2.876 0.926 2.876 0.926 C 2.876 0.926 2.876 0.927 2.876 0.927 C 2.876 0.927 2.876 0.928 2.877 0.928 C 2.877 0.929 2.878 0.931 2.880 0.931 C 2.883 0.930 2.884 0.927 2.885 0.925 C 2.889 0.913 2.888 0.901 2.886 0.889 C 2.882 0.871 2.873 0.854 2.859 0.844 C 2.853 0.840 2.846 0.836 2.843 0.830 C 2.843 0.829 2.843 0.829 2.843 0.829 C 2.843 0.829 2.842 0.829 2.842 0.829 C 2.842 0.827 2.843 0.825 2.845 0.825 C 2.848 0.824 2.851 0.825 2.854 0.825 C 2.863 0.827 2.872 0.831 2.880 0.835 C 2.891 0.842 2.901 0.850 2.911 0.859 C 2.915 0.863 2.919 0.867 2.924 0.868 C 2.927 0.869 2.931 0.869 2.932 0.865 C 2.934 0.860 2.931 0.854 2.929 0.849 C 2.921 0.828 2.904 0.810 2.884 0.800 C 2.893 0.791 2.900 0.779 2.900 0.766 C 2.901 0.749 2.895 0.733 2.887 0.719 C 2.868 0.686 2.817 0.646 2.798 0.633 C 2.777 0.618 2.777 0.600 2.787 0.591 C 2.798 0.580 2.834 0.588 2.849 0.590 C 2.873 0.593 2.911 0.603 2.932 0.615 C 2.971 0.636 3.007 0.663 3.035 0.696 C 3.052 0.716 3.065 0.739 3.067 0.766 C 3.068 0.785 3.062 0.805 3.050 0.822 C 3.036 0.843 3.020 0.864 3.005 0.884 C 2.992 0.902 2.979 0.919 2.974 0.940 C 2.971 0.950 2.972 0.962 2.981 0.967 C 2.989 0.972 2.999 0.971 3.008 0.969 C 3.023 0.965 3.036 0.959 3.050 0.953 C 3.091 0.935 3.130 0.914 3.169 0.893 C 3.206 0.872 3.244 0.850 3.279 0.826 C 3.327 0.793 3.367 0.750 3.401 0.702 C 3.445 0.639 3.477 0.569 3.500 0.495 L 3.500 0.495 C 3.501 0.468 3.545 0.385 3.569 0.362 C 3.579 0.352 3.615 0.318 3.644 0.304 C 3.690 0.281 3.746 0.270 3.762 0.246 C 3.765 0.241 3.765 0.231 3.765 0.227 C 3.763 0.221 3.747 0.221 3.743 0.225 C 3.739 0.229 3.734 0.232 3.729 0.235 C 3.715 0.243 3.697 0.244 3.680 0.242 C 3.664 0.240 3.649 0.235 3.633 0.231 C 3.631 0.231 3.630 0.230 3.628 0.230 C 3.627 0.230 3.626 0.230 3.625 0.229 C 3.624 0.229 3.623 0.229 3.622 0.229 C 3.622 0.229 3.621 0.229 3.620 0.229 C 3.615 0.229 3.609 0.231 3.606 0.235 C 3.605 0.236 3.604 0.238 3.603 0.239 C 3.602 0.239 3.602 0.239 3.602 0.240 C 3.600 0.242 3.598 0.244 3.596 0.245 C 3.587 0.249 3.577 0.244 3.569 0.242 C 3.569 0.241 3.569 0.241 3.568 0.241 C 3.559 0.238 3.549 0.237 3.540 0.242 C 3.536 0.245 3.533 0.249 3.529 0.254 C 3.527 0.256 3.525 0.259 3.521 0.259 C 3.517 0.258 3.514 0.255 3.512 0.252 C 3.507 0.244 3.507 0.234 3.508 0.225 C 3.509 0.200 3.515 0.176 3.525 0.154 C 3.527 0.150 3.529 0.146 3.532 0.143 C 3.534 0.141 3.538 0.140 3.540 0.145 C 3.543 0.152 3.551 0.154 3.558 0.155 C 3.571 0.156 3.583 0.153 3.595 0.149 C 3.618 0.140 3.640 0.125 3.650 0.103 C 3.650 0.103 3.651 0.102 3.653 0.103 C 3.690 0.117 3.733 0.118 3.764 0.095 C 3.775 0.087 3.783 0.078 3.790 0.067 C 3.797 0.056 3.804 0.044 3.798 0.031 C 3.792 0.020 3.778 0.016 3.773 0.007 C 3.772 0.005 3.772 0.001 3.775 0.000 C 3.779 -0.001 3.782 0.000 3.785 0.001 C 3.811 0.008 3.831 0.033 3.830 0.060 C 3.829 0.079 3.819 0.097 3.808 0.112 C 3.805 0.117 3.801 0.123 3.800 0.128 C 3.800 0.130 3.799 0.132 3.800 0.133 C 3.802 0.134 3.810 0.132 3.810 0.132 C 3.817 0.130 3.823 0.126 3.829 0.122 C 3.845 0.111 3.859 0.098 3.868 0.083 C 3.871 0.078 3.874 0.072 3.875 0.067 C 3.875 0.065 3.875 0.065 3.875 0.064 C 3.875 0.064 3.876 0.063 3.876 0.063 C 3.876 0.063 3.876 0.062 3.876 0.062 C 3.876 0.062 3.876 0.062 3.877 0.061 C 3.877 0.060 3.878 0.058 3.880 0.059 C 3.883 0.059 3.884 0.062 3.885 0.064 C 3.889 0.076 3.888 0.088 3.886 0.100 C 3.882 0.118 3.873 0.135 3.859 0.145 C 3.853 0.149 3.846 0.153 3.843 0.160 C 3.843 0.160 3.843 0.160 3.843 0.160 C 3.843 0.160 3.842 0.160 3.842 0.161 C 3.842 0.162 3.843 0.164 3.845 0.164 C 3.848 0.165 3.851 0.165 3.854 0.164 C 3.863 0.162 3.872 0.158 3.880 0.154 C 3.891 0.148 3.901 0.139 3.911 0.130 C 3.915 0.126 3.919 0.122 3.924 0.121 C 3.927 0.120 3.931 0.121 3.932 0.124 C 3.934 0.129 3.931 0.135 3.929 0.140 C 3.921 0.161 3.904 0.179 3.884 0.189 C 3.893 0.198 3.900 0.210 3.900 0.223 C 3.901 0.240 3.895 0.256 3.887 0.270 C 3.868 0.303 3.817 0.343 3.798 0.356 C 3.777 0.371 3.777 0.389 3.787 0.398 C 3.798 0.409 3.834 0.401 3.849 0.399 C 3.873 0.396 3.911 0.386 3.932 0.374 C 3.971 0.353 4.007 0.326 4.035 0.293 C 4.052 0.273 4.065 0.250 4.067 0.223 C 4.068 0.204 4.062 0.184 4.050 0.168 C 4.036 0.146 4.020 0.125 4.005 0.105 C 3.992 0.087 3.979 0.070 3.974 0.049 C 3.971 0.039 3.972 0.028 3.981 0.022 C 3.989 0.017 3.999 0.018 4.008 0.020 C 4.023 0.024 4.036 0.030 4.050 0.036 C 4.091 0.054 4.130 0.075 4.169 0.096 C 4.206 0.117 4.244 0.139 4.279 0.163 C 4.327 0.196 4.367 0.239 4.401 0.287 C 4.445 0.350 4.477 0.420 4.500 0.494 L 4.500 0.495 C 4.501 0.522 4.545 0.604 4.569 0.627 C 4.579 0.637 4.615 0.671 4.644 0.685 C 4.690 0.708 4.746 0.719 4.762 0.743 C 4.765 0.748 4.765 0.759 4.765 0.762 C 4.763 0.768 4.747 0.768 4.743 0.764 C 4.739 0.760 4.734 0.757 4.729 0.754 C 4.715 0.746 4.697 0.745 4.680 0.747 C 4.664 0.750 4.649 0.754 4.633 0.758 C 4.631 0.759 4.630 0.759 4.628 0.759 C 4.627 0.759 4.626 0.760 4.625 0.760 C 4.624 0.760 4.623 0.760 4.622 0.760 C 4.622 0.760 4.621 0.760 4.620 0.760 C 4.615 0.760 4.609 0.759 4.606 0.754 C 4.605 0.753 4.604 0.751 4.603 0.750 C 4.602 0.750 4.602 0.750 4.602 0.749 C 4.600 0.747 4.598 0.745 4.596 0.744 C 4.587 0.740 4.577 0.745 4.569 0.748 C 4.569 0.748 4.569 0.748 4.568 0.748 C 4.559 0.751 4.549 0.752 4.540 0.747 C 4.536 0.744 4.533 0.740 4.529 0.735 C 4.527 0.733 4.525 0.730 4.521 0.731 C 4.517 0.731 4.514 0.734 4.512 0.737 C 4.507 0.745 4.507 0.755 4.508 0.765 C 4.509 0.789 4.515 0.813 4.525 0.835 C 4.527 0.839 4.529 0.843 4.532 0.846 C 4.534 0.848 4.538 0.849 4.540 0.845 C 4.543 0.837 4.551 0.835 4.558 0.835 C 4.571 0.833 4.583 0.836 4.595 0.841 C 4.618 0.849 4.640 0.864 4.650 0.886 C 4.650 0.886 4.651 0.888 4.653 0.887 C 4.690 0.872 4.733 0.871 4.764 0.894 C 4.775 0.902 4.783 0.912 4.790 0.922 C 4.797 0.933 4.804 0.945 4.798 0.958 C 4.792 0.969 4.778 0.973 4.773 0.982 C 4.772 0.984 4.772 0.988 4.775 0.989 C 4.779 0.990 4.782 0.989 4.785 0.988 C 4.811 0.981 4.831 0.956 4.830 0.929 C 4.829 0.910 4.819 0.892 4.808 0.877 C 4.805 0.872 4.801 0.866 4.800 0.861 C 4.800 0.859 4.799 0.858 4.800 0.857 C 4.802 0.855 4.810 0.857 4.810 0.857 C 4.817 0.859 4.823 0.863 4.829 0.867 C 4.845 0.878 4.859 0.891 4.868 0.906 C 4.871 0.911 4.874 0.917 4.875 0.922 C 4.875 0.924 4.875 0.924 4.875 0.925 C 4.875 0.925 4.876 0.926 4.876 0.926 C 4.876 0.926 4.876 0.927 4.876 0.927 C 4.876 0.927 4.876 0.928 4.877 0.928 C 4.877 0.929 4.878 0.931 4.880 0.931 C 4.883 0.930 4.884 0.927 4.885 0.925 C 4.889 0.913 4.888 0.901 4.886 0.889 C 4.882 0.871 4.873 0.854 4.859 0.844 C 4.853 0.840 4.846 0.836 4.843 0.830 C 4.843 0.829 4.843 0.829 4.843 0.829 C 4.843 0.829 4.842 0.829 4.842 0.829 C 4.842 0.827 4.843 0.825 4.845 0.825 C 4.848 0.824 4.851 0.825 4.854 0.825 C 4.863 0.827 4.872 0.831 4.880 0.835 C 4.891 0.842 4.901 0.850 4.911 0.859 C 4.915 0.863 4.919 0.867 4.924 0.868 C 4.927 0.869 4.931 0.869 4.932 0.865 C 4.934 0.860 4.931 0.854 4.929 0.849 C 4.921 0.828 4.904 0.810 4.884 0.800 C 4.893 0.791 4.900 0.779 4.900 0.766 C 4.901 0.749 4.895 0.733 4.887 0.719 C 4.868 0.686 4.817 0.646 4.798 0.633 C 4.777 0.618 4.777 0.600 4.787 0.591 C 4.798 0.580 4.834 0.588 4.849 0.590 C 4.873 0.593 4.911 0.603 4.932 0.615 C 4.971 0.636 5.007 0.663 5.035 0.696 C 5.052 0.716 5.065 0.739 5.067 0.766 C 5.068 0.785 5.062 0.805 5.050 0.822 C 5.036 0.843 5.020 0.864 5.005 0.884 C 4.992 0.902 4.979 0.919 4.974 0.940 C 4.971 0.950 4.972 0.962 4.981 0.967 C 4.989 0.972 4.999 0.971 5.008 0.969 C 5.023 0.965 5.036 0.959 5.050 0.953 C 5.091 0.935 5.130 0.914 5.169 0.893 C 5.206 0.872 5.244 0.850 5.279 0.826 C 5.327 0.793 5.367 0.750 5.401 0.702 C 5.445 0.639 5.477 0.569 5.500 0.495 L 5.500 0.495 C 5.501 0.468 5.545 0.385 5.569 0.362 C 5.579 0.352 5.615 0.318 5.644 0.304 C 5.690 0.281 5.746 0.270 5.762 0.246 C 5.765 0.241 5.765 0.231 5.765 0.227 C 5.763 0.221 5.747 0.221 5.743 0.225 C 5.739 0.229 5.734 0.232 5.729 0.235 C 5.715 0.243 5.697 0.244 5.680 0.242 C 5.664 0.240 5.649 0.235 5.633 0.231 C 5.631 0.231 5.630 0.230 5.628 0.230 C 5.627 0.230 5.626 0.230 5.625 0.229 C 5.624 0.229 5.623 0.229 5.622 0.229 C 5.622 0.229 5.621 0.229 5.620 0.229 C 5.615 0.229 5.609 0.231 5.606 0.235 C 5.605 0.236 5.604 0.238 5.603 0.239 C 5.602 0.239 5.602 0.239 5.602 0.240 C 5.600 0.242 5.598 0.244 5.596 0.245 C 5.587 0.249 5.577 0.244 5.569 0.242 C 5.569 0.241 5.569 0.241 5.568 0.241 C 5.559 0.238 5.549 0.237 5.540 0.242 C 5.536 0.245 5.533 0.249 5.529 0.254 C 5.527 0.256 5.525 0.259 5.521 0.259 C 5.517 0.258 5.514 0.255 5.512 0.252 C 5.507 0.244 5.507 0.234 5.508 0.225 C 5.509 0.200 5.515 0.176 5.525 0.154 C 5.527 0.150 5.529 0.146 5.532 0.143 C 5.534 0.141 5.538 0.140 5.540 0.145 C 5.543 0.152 5.551 0.154 5.558 0.155 C 5.571 0.156 5.583 0.153 5.595 0.149 C 5.618 0.140 5.640 0.125 5.650 0.103 C 5.650 0.103 5.651 0.102 5.653 0.103 C 5.690 0.117 5.733 0.118 5.764 0.095 C 5.775 0.087 5.783 0.078 5.790 0.067 C 5.797 0.056 5.804 0.044 5.798 0.031 C 5.792 0.020 5.778 0.016 5.773 0.007 C 5.772 0.005 5.772 0.001 5.775 0.000 C 5.779 -0.001 5.782 0.000 5.785 0.001 C 5.811 0.008 5.831 0.033 5.830 0.060 C 5.829 0.079 5.819 0.097 5.808 0.112 C 5.805 0.117 5.801 0.123 5.800 0.128 C 5.800 0.130 5.799 0.132 5.800 0.133 C 5.802 0.134 5.810 0.132 5.810 0.132 C 5.817 0.130 5.823 0.126 5.829 0.122 C 5.845 0.111 5.859 0.098 5.868 0.083 C 5.871 0.078 5.874 0.072 5.875 0.067 C 5.875 0.065 5.875 0.065 5.875 0.064 C 5.875 0.064 5.876 0.063 5.876 0.063 C 5.876 0.063 5.876 0.062 5.876 0.062 C 5.876 0.062 5.876 0.062 5.877 0.061 C 5.877 0.060 5.878 0.058 5.880 0.059 C 5.883 0.059 5.884 0.062 5.885 0.064 C 5.889 0.076 5.888 0.088 5.886 0.100 C 5.882 0.118 5.873 0.135 5.859 0.145 C 5.853 0.149 5.846 0.153 5.843 0.160 C 5.843 0.160 5.843 0.160 5.843 0.160 C 5.843 0.160 5.842 0.160 5.842 0.161 C 5.842 0.162 5.843 0.164 5.845 0.164 C 5.848 0.165 5.851 0.165 5.854 0.164 C 5.863 0.162 5.872 0.158 5.880 0.154 C 5.891 0.148 5.901 0.139 5.911 0.130 C 5.915 0.126 5.919 0.122 5.924 0.121 C 5.927 0.120 5.931 0.121 5.932 0.124 C 5.934 0.129 5.931 0.135 5.929 0.140 C 5.921 0.161 5.904 0.179 5.884 0.189 C 5.893 0.198 5.900 0.210 5.900 0.223 C 5.901 0.240 5.895 0.256 5.887 0.270 C 5.868 0.303 5.817 0.343 5.798 0.356 C 5.777 0.371 5.777 0.389 5.787 0.398 C 5.798 0.409 5.834 0.401 5.849 0.399 C 5.873 0.396 5.911 0.386 5.932 0.374 C 5.971 0.353 6.007 0.326 6.035 0.293 C 6.052 0.273 6.065 0.250 6.067 0.223 C 6.068 0.204 6.062 0.184 6.050 0.168 C 6.036 0.146 6.020 0.125 6.005 0.105 C 5.992 0.087 5.979 0.070 5.974 0.049 C 5.971 0.039 5.972 0.028 5.981 0.022 C 5.989 0.017 5.999 0.018 6.008 0.020 C 6.023 0.024 6.036 0.030 6.050 0.036 C 6.091 0.054 6.130 0.075 6.169 0.096 C 6.206 0.117 6.244 0.139 6.279 0.163 C 6.327 0.196 6.367 0.239 6.401 0.287 C 6.445 0.350 6.477 0.420 6.500 0.494 L 6.500 0.495 C 6.501 0.522 6.545 0.604 6.569 0.627 C 6.579 0.637 6.615 0.671 6.644 0.685 C 6.690 0.708 6.746 0.719 6.762 0.743 C 6.765 0.748 6.765 0.759 6.765 0.762 C 6.763 0.768 6.747 0.768 6.743 0.764 C 6.739 0.760 6.734 0.757 6.729 0.754 C 6.715 0.746 6.697 0.745 6.680 0.747 C 6.664 0.750 6.649 0.754 6.633 0.758 C 6.631 0.759 6.630 0.759 6.628 0.759 C 6.627 0.759 6.626 0.760 6.625 0.760 C 6.624 0.760 6.623 0.760 6.622 0.760 C 6.622 0.760 6.621 0.760 6.620 0.760 C 6.615 0.760 6.609 0.759 6.606 0.754 C 6.605 0.753 6.604 0.751 6.603 0.750 C 6.602 0.750 6.602 0.750 6.602 0.749 C 6.600 0.747 6.598 0.745 6.596 0.744 C 6.587 0.740 6.577 0.745 6.569 0.748 C 6.569 0.748 6.569 0.748 6.568 0.748 C 6.559 0.751 6.549 0.752 6.540 0.747 C 6.536 0.744 6.533 0.740 6.529 0.735 C 6.527 0.733 6.525 0.730 6.521 0.731 C 6.517 0.731 6.514 0.734 6.512 0.737 C 6.507 0.745 6.507 0.755 6.508 0.765 C 6.509 0.789 6.515 0.813 6.525 0.835 C 6.527 0.839 6.529 0.843 6.532 0.846 C 6.534 0.848 6.538 0.849 6.540 0.845 C 6.543 0.837 6.551 0.835 6.558 0.835 C 6.571 0.833 6.583 0.836 6.595 0.841 C 6.618 0.849 6.640 0.864 6.650 0.886 C 6.650 0.886 6.651 0.888 6.653 0.887 C 6.690 0.872 6.733 0.871 6.764 0.894 C 6.775 0.902 6.783 0.912 6.790 0.922 C 6.797 0.933 6.804 0.945 6.798 0.958 C 6.792 0.969 6.778 0.973 6.773 0.982 C 6.772 0.984 6.772 0.988 6.775 0.989 C 6.779 0.990 6.782 0.989 6.785 0.988 C 6.811 0.981 6.831 0.956 6.830 0.929 C 6.829 0.910 6.819 0.892 6.808 0.877 C 6.805 0.872 6.801 0.866 6.800 0.861 C 6.800 0.859 6.799 0.858 6.800 0.857 C 6.802 0.855 6.810 0.857 6.810 0.857 C 6.817 0.859 6.823 0.863 6.829 0.867 C 6.845 0.878 6.859 0.891 6.868 0.906 C 6.871 0.911 6.874 0.917 6.875 0.922 C 6.875 0.924 6.875 0.924 6.875 0.925 C 6.875 0.925 6.876 0.926 6.876 0.926 C 6.876 0.926 6.876 0.927 6.876 0.927 C 6.876 0.927 6.876 0.928 6.877 0.928 C 6.877 0.929 6.878 0.931 6.880 0.931 C 6.883 0.930 6.884 0.927 6.885 0.925 C 6.889 0.913 6.888 0.901 6.886 0.889 C 6.882 0.871 6.873 0.854 6.859 0.844 C 6.853 0.840 6.846 0.836 6.843 0.830 C 6.843 0.829 6.843 0.829 6.843 0.829 C 6.843 0.829 6.842 0.829 6.842 0.829 C 6.842 0.827 6.843 0.825 6.845 0.825 C 6.848 0.824 6.851 0.825 6.854 0.825 C 6.863 0.827 6.872 0.831 6.880 0.835 C 6.891 0.842 6.901 0.850 6.911 0.859 C 6.915 0.863 6.919 0.867 6.924 0.868 C 6.927 0.869 6.931 0.869 6.932 0.865 C 6.934 0.860 6.931 0.854 6.929 0.849 C 6.921 0.828 6.904 0.810 6.884 0.800 C 6.893 0.791 6.900 0.779 6.900 0.766 C 6.901 0.749 6.895 0.733 6.887 0.719 C 6.868 0.686 6.817 0.646 6.798 0.633 C 6.777 0.618 6.777 0.600 6.787 0.591 C 6.798 0.580 6.834 0.588 6.849 0.590 C 6.873 0.593 6.911 0.603 6.932 0.615 C 6.971 0.636 7.007 0.663 7.035 0.696 C 7.052 0.716 7.065 0.739 7.067 0.766 C 7.068 0.785 7.062 0.805 7.050 0.822 C 7.036 0.843 7.020 0.864 7.005 0.884 C 6.992 0.902 6.979 0.919 6.974 0.940 C 6.971 0.950 6.972 0.962 6.981 0.967 C 6.989 0.972 6.999 0.971 7.008 0.969 C 7.023 0.965 7.036 0.959 7.050 0.953 C 7.091 0.935 7.130 0.914 7.169 0.893 C 7.206 0.872 7.244 0.850 7.279 0.826 C 7.327 0.793 7.367 0.750 7.401 0.702 C 7.445 0.639 7.477 0.569 7.500 0.495 L 7.500 0.495 C 7.501 0.468 7.545 0.385 7.569 0.362 C 7.579 0.352 7.615 0.318 7.644 0.304 C 7.690 0.281 7.746 0.270 7.762 0.246 C 7.765 0.241 7.765 0.231 7.765 0.227 C 7.763 0.221 7.747 0.221 7.743 0.225 C 7.739 0.229 7.734 0.232 7.729 0.235 C 7.715 0.243 7.697 0.244 7.680 0.242 C 7.664 0.240 7.649 0.235 7.633 0.231 C 7.631 0.231 7.630 0.230 7.628 0.230 C 7.627 0.230 7.626 0.230 7.625 0.229 C 7.624 0.229 7.623 0.229 7.622 0.229 C 7.622 0.229 7.621 0.229 7.620 0.229 C 7.615 0.229 7.609 0.231 7.606 0.235 C 7.605 0.236 7.604 0.238 7.603 0.239 C 7.602 0.239 7.602 0.239 7.602 0.240 C 7.600 0.242 7.598 0.244 7.596 0.245 C 7.587 0.249 7.577 0.244 7.569 0.242 C 7.569 0.241 7.569 0.241 7.568 0.241 C 7.559 0.238 7.549 0.237 7.540 0.242 C 7.536 0.245 7.533 0.249 7.529 0.254 C 7.527 0.256 7.525 0.259 7.521 0.259 C 7.517 0.258 7.514 0.255 7.512 0.252 C 7.507 0.244 7.507 0.234 7.508 0.225 C 7.509 0.200 7.515 0.176 7.525 0.154 C 7.527 0.150 7.529 0.146 7.532 0.143 C 7.534 0.141 7.538 0.140 7.540 0.145 C 7.543 0.152 7.551 0.154 7.558 0.155 C 7.571 0.156 7.583 0.153 7.595 0.149 C 7.618 0.140 7.640 0.125 7.650 0.103 C 7.650 0.103 7.651 0.102 7.653 0.103 C 7.690 0.117 7.733 0.118 7.764 0.095 C 7.775 0.087 7.783 0.078 7.790 0.067 C 7.797 0.056 7.804 0.044 7.798 0.031 C 7.792 0.020 7.778 0.016 7.773 0.007 C 7.772 0.005 7.772 0.001 7.775 0.000 C 7.779 -0.001 7.782 0.000 7.785 0.001 C 7.811 0.008 7.831 0.033 7.830 0.060 C 7.829 0.079 7.819 0.097 7.808 0.112 C 7.805 0.117 7.801 0.123 7.800 0.128 C 7.800 0.130 7.799 0.132 7.800 0.133 C 7.802 0.134 7.810 0.132 7.810 0.132 C 7.817 0.130 7.823 0.126 7.829 0.122 C 7.845 0.111 7.859 0.098 7.868 0.083 C 7.871 0.078 7.874 0.072 7.875 0.067 C 7.875 0.065 7.875 0.065 7.875 0.064 C 7.875 0.064 7.876 0.063 7.876 0.063 C 7.876 0.063 7.876 0.062 7.876 0.062 C 7.876 0.062 7.876 0.062 7.877 0.061 C 7.877 0.060 7.878 0.058 7.880 0.059 C 7.883 0.059 7.884 0.062 7.885 0.064 C 7.889 0.076 7.888 0.088 7.886 0.100 C 7.882 0.118 7.873 0.135 7.859 0.145 C 7.853 0.149 7.846 0.153 7.843 0.160 C 7.843 0.160 7.843 0.160 7.843 0.160 C 7.843 0.160 7.842 0.160 7.842 0.161 C 7.842 0.162 7.843 0.164 7.845 0.164 C 7.848 0.165 7.851 0.165 7.854 0.164 C 7.863 0.162 7.872 0.158 7.880 0.154 C 7.891 0.148 7.901 0.139 7.911 0.130 C 7.915 0.126 7.919 0.122 7.924 0.121 C 7.927 0.120 7.931 0.121 7.932 0.124 C 7.934 0.129 7.931 0.135 7.929 0.140 C 7.921 0.161 7.904 0.179 7.884 0.189 C 7.893 0.198 7.900 0.210 7.900 0.223 C 7.901 0.240 7.895 0.256 7.887 0.270 C 7.868 0.303 7.817 0.343 7.798 0.356 C 7.777 0.371 7.777 0.389 7.787 0.398 C 7.798 0.409 7.834 0.401 7.849 0.399 C 7.873 0.396 7.911 0.386 7.932 0.374 C 7.971 0.353 8.007 0.326 8.035 0.293 C 8.052 0.273 8.065 0.250 8.067 0.223 C 8.068 0.204 8.062 0.184 8.050 0.168 C 8.036 0.146 8.020 0.125 8.005 0.105 C 7.992 0.087 7.979 0.070 7.974 0.049 C 7.971 0.039 7.972 0.028 7.981 0.022 C 7.989 0.017 7.999 0.018 8.008 0.020 C 8.023 0.024 8.036 0.030 8.050 0.036 C 8.091 0.054 8.130 0.075 8.169 0.096 C 8.206 0.117 8.244 0.139 8.279 0.163 C 8.327 0.196 8.367 0.239 8.401 0.287 C 8.445 0.350 8.477 0.420 8.500 0.494 L 8.500 0.495 L 9.000 0.495" style="fill:none;stroke:black;stroke-width:0.012" />
</g>
</svg>
