<?xml version="1.0"?>
	<!-- Generated by github.com/dustismo/heavyfishdesign -->
	<svg width="20.000in" height="12.000in" viewBox="0.000 0.000 20.000 12.000"
    	xmlns="http://www.w3.org/2000/svg"
		xmlns:xlink="http://www.w3.org/1999/xlink">
	<g transform="translate(0.100 0.100)">
<path id="finger_joint_part" d="M 0.000 0.000 L 0.250 0.000 L 0.250 0.200 L 0.000 0.200 L 0.000 0.000 M 0.650 0.000 L 0.900 0.000 L 0.900 0.200 L 0.650 0.200 L 0.650 0.000 M 1.300 0.000 L 1.550 0.000 L 1.550 0.200 L 1.300 0.200 L 1.300 0.000 M 1.950 0.000 L 2.200 0.000 L 2.200 0.200 L 1.950 0.200 L 1.950 0.000 M 2.600 0.000 L 2.850 0.000 L 2.850 0.200 L 2.600 0.200 L 2.600 0.000 M 3.250 0.000 L 3.500 0.000 L 3.500 0.200 L 3.250 0.200 L 3.250 0.000 M 3.900 0.000 L 4.150 0.000 L 4.150 0.200 L 3.900 0.200 L 3.900 0.000 M 4.575 0.000" style="fill:none;stroke:black;stroke-width:0.012" />
</g>
</svg>
