<?xml version="1.0"?>
	<!-- Generated by github.com/dustismo/heavyfishdesign -->
	<svg width="20.000in" height="12.000in" viewBox="0.000 0.000 20.000 12.000"
    	xmlns="http://www.w3.org/2000/svg"
		xmlns:xlink="http://www.w3.org/1999/xlink">
	<g transform="translate(0.100 0.100)">
<path id="finger_joint_part" d="M 0.000 0.200 L 0.225 0.200 L 0.425 0.200 L 0.425 0.000 L 0.675 0.000 L 0.675 0.200 L 0.875 0.200 L 1.075 0.200 L 1.075 0.000 L 1.325 0.000 L 1.325 0.200 L 1.525 0.200 L 1.725 0.200 L 1.725 0.000 L 1.975 0.000 L 1.975 0.200 L 2.175 0.200 L 2.375 0.200 L 2.375 0.000 L 2.625 0.000 L 2.625 0.200 L 2.825 0.200 L 3.025 0.200 L 3.025 0.000 L 3.275 0.000 L 3.275 0.200 L 3.475 0.200 L 3.675 0.200 L 3.675 0.000 L 3.925 0.000 L 3.925 0.200 L 4.125 0.200 L 4.325 0.200 L 4.325 0.000 L 4.575 0.000 L 4.575 0.200 L 4.775 0.200 L 5.000 0.200" style="fill:none;stroke:black;stroke-width:0.012" />
</g>
</svg>
