<?xml version="1.0"?>
	<!-- Generated by github.com/dustismo/heavyfishdesign -->
	<svg width="20.000in" height="12.000in" viewBox="0.000 0.000 20.000 12.000"
    	xmlns="http://www.w3.org/2000/svg"
		xmlns:xlink="http://www.w3.org/1999/xlink">
	<g transform="translate(0.100 0.100)">
<path id="house_floor" d="M 4.150 0.200 L 3.857 0.200 L 3.857 0.000 L 3.753 0.000 L 3.650 0.000 L 3.650 0.200 L 3.357 0.200 L 3.357 0.000 L 3.253 0.000 L 3.150 0.000 L 3.150 0.200 L 2.857 0.200 L 2.857 0.000 L 2.753 0.000 L 2.650 0.000 L 2.650 0.200 L 2.357 0.200 L 2.357 0.000 L 2.253 0.000 L 2.150 0.000 L 2.150 0.200 L 1.857 0.200 L 1.857 0.000 L 1.754 0.000 L 1.650 0.000 L 1.650 0.200 L 1.357 0.200 L 1.357 0.000 L 1.254 0.000 L 1.150 0.000 L 1.150 0.200 L 0.857 0.200 L 0.857 0.000 L 0.753 0.000 L 0.650 0.000 L 0.650 0.200 L 0.357 0.200 L 0.357 0.000 L 0.254 0.000 L 0.000 0.000 L 0.000 0.254 L 0.000 0.357 L 0.200 0.357 L 0.200 0.650 L 0.000 0.650 L 0.000 0.753 L 0.000 0.857 L 0.200 0.857 L 0.200 1.150 L 0.000 1.150 L 0.000 1.254 L 0.000 1.357 L 0.200 1.357 L 0.200 1.650 L 0.000 1.650 L 0.000 1.754 L 0.000 1.857 L 0.200 1.857 L 0.200 2.150 L 0.000 2.150 L 0.000 2.253 L 0.000 2.357 L 0.200 2.357 L 0.200 2.650 L 0.000 2.650 L 0.000 2.753 L 0.000 2.857 L 0.200 2.857 L 0.200 3.150 L 0.000 3.150 L 0.000 3.253 L 0.000 3.357 L 0.200 3.357 L 0.200 3.650 L 0.000 3.650 L 0.000 3.753 L 0.000 3.857 L 0.200 3.857 L 0.200 4.150 L 0.000 4.150 L 0.000 4.253 L 0.000 4.357 L 0.200 4.357 L 0.200 4.650 L 0.000 4.650 L 0.000 4.753 L 0.000 4.857 L 0.200 4.857 L 0.200 5.150 L 0.000 5.150 L 0.000 5.253 L 0.000 5.357 L 0.200 5.357 L 0.200 5.650 L 0.000 5.650 L 0.000 5.753 L 0.000 6.007 L 0.254 6.007 L 0.357 6.007 L 0.357 5.807 L 0.650 5.807 L 0.650 6.007 L 0.753 6.007 L 0.857 6.007 L 0.857 5.807 L 1.150 5.807 L 1.150 6.007 L 1.254 6.007 L 1.357 6.007 L 1.357 5.807 L 1.650 5.807 L 1.650 6.007 L 1.754 6.007 L 1.857 6.007 L 1.857 5.807 L 2.150 5.807 L 2.150 6.007 L 2.253 6.007 L 2.357 6.007 L 2.357 5.807 L 2.650 5.807 L 2.650 6.007 L 2.753 6.007 L 2.857 6.007 L 2.857 5.807 L 3.150 5.807 L 3.150 6.007 L 3.253 6.007 L 3.357 6.007 L 3.357 5.807 L 3.650 5.807 L 3.650 6.007 L 3.753 6.007 L 3.857 6.007 L 3.857 5.807 L 4.150 5.807 L 4.150 6.007 L 4.253 6.007 L 4.357 6.007 L 4.357 5.807 L 4.650 5.807 L 4.650 6.007 L 4.753 6.007 L 5.007 6.007 L 5.007 5.753 L 5.007 5.650 L 4.807 5.650 L 4.807 5.357 L 5.007 5.357 L 5.007 5.253 L 5.007 5.150 L 4.807 5.150 L 4.807 4.857 L 5.007 4.857 L 5.007 4.753 L 5.007 4.650 L 4.807 4.650 L 4.807 4.357 L 5.007 4.357 L 5.007 4.253 L 5.007 4.150 L 4.807 4.150 L 4.807 3.857 L 5.007 3.857 L 5.007 3.753 L 5.007 3.650 L 4.807 3.650 L 4.807 3.357 L 5.007 3.357 L 5.007 3.253 L 5.007 3.150 L 4.807 3.150 L 4.807 2.857 L 5.007 2.857 L 5.007 2.753 L 5.007 2.650 L 4.807 2.650 L 4.807 2.357 L 5.007 2.357 L 5.007 2.253 L 5.007 2.150 L 4.807 2.150 L 4.807 1.857 L 5.007 1.857 L 5.007 1.754 L 5.007 1.650 L 4.807 1.650 L 4.807 1.357 L 5.007 1.357 L 5.007 1.254 L 5.007 1.150 L 4.807 1.150 L 4.807 0.857 L 5.007 0.857 L 5.007 0.753 L 5.007 0.650 L 4.807 0.650 L 4.807 0.357 L 5.007 0.357 L 5.007 0.254 L 5.007 0.000 L 4.753 0.000 L 4.650 0.000 L 4.650 0.200 L 4.357 0.200 L 4.357 0.000 L 4.253 0.000 L 4.150 0.000 L 4.150 0.200" style="fill:none;stroke:black;stroke-width:0.012" />
</g>
</svg>
