<?xml version="1.0"?>
	<!-- Generated by github.com/dustismo/heavyfishdesign -->
	<svg width="12.000in" height="11.000in" viewBox="0.000 0.000 12.000 11.000"
    	xmlns="http://www.w3.org/2000/svg"
		xmlns:xlink="http://www.w3.org/1999/xlink">
	<g transform="translate(0.100 0.100)">
<path id="back" d="M 2.000 1.757 L 2.000 2.007 L 2.207 2.007 L 2.207 1.757 L 2.303 1.757 L 2.400 1.757 L 2.400 2.007 L 2.607 2.007 L 2.607 1.757 L 2.704 1.757 L 3.007 1.757 L 3.007 1.604 L 3.007 1.500 L 2.757 1.500 L 2.757 1.307 L 3.007 1.307 L 3.007 1.204 L 3.007 1.100 L 2.757 1.100 L 2.757 0.907 L 3.007 0.907 L 3.007 0.803 L 3.007 0.700 L 2.757 0.700 L 2.757 0.507 L 3.007 0.507 L 3.007 0.404 L 3.007 0.000 L 0.000 0.000 L 0.000 0.404 L 0.000 0.507 L 0.250 0.507 L 0.250 0.700 L 0.000 0.700 L 0.000 0.803 L 0.000 0.907 L 0.250 0.907 L 0.250 1.100 L 0.000 1.100 L 0.000 1.204 L 0.000 1.307 L 0.250 1.307 L 0.250 1.500 L 0.000 1.500 L 0.000 1.604 L 0.000 1.757 L 0.303 1.757 L 0.400 1.757 L 0.400 2.007 L 0.607 2.007 L 0.607 1.757 L 0.703 1.757 L 0.800 1.757 L 0.800 2.007 L 1.007 2.007 L 1.007 1.757 L 1.104 1.757 L 1.200 1.757 L 1.200 2.007 L 1.407 2.007 L 1.407 1.757 L 1.504 1.757 L 1.600 1.757 L 1.600 2.007 L 1.807 2.007 L 1.807 1.757 L 1.903 1.757 L 2.000 1.757 M 0.853 0.603 C 0.909 0.603 0.953 0.648 0.953 0.703 C 0.953 0.759 0.909 0.803 0.853 0.803 C 0.798 0.803 0.753 0.759 0.753 0.703 C 0.753 0.648 0.798 0.603 0.853 0.603 M 2.154 0.603 C 2.209 0.603 2.253 0.648 2.253 0.703 C 2.253 0.759 2.209 0.803 2.154 0.803 C 2.098 0.803 2.053 0.759 2.053 0.703 C 2.053 0.648 2.098 0.603 2.154 0.603 M 1.629 0.503 L 1.629 0.703 L 1.379 0.703 L 1.379 0.503 L 1.629 0.503 M 1.629 0.903 L 1.629 1.104 L 1.379 1.104 L 1.379 0.903 L 1.629 0.903 M 1.629 1.304 L 1.629 1.504 L 1.379 1.504 L 1.379 1.304 L 1.629 1.304 M 1.629 2.003" style="fill:none;stroke:black;stroke-width:0.012" />
</g>
<g transform="translate(0.100 2.307)">
<path id="side" d="M 3.428 0.510 C 3.428 0.510 3.347 0.525 3.267 0.587 C 3.187 0.649 3.106 0.757 3.106 0.945 C 3.106 1.029 3.123 1.130 3.163 1.249 C 3.165 1.255 3.167 1.262 3.170 1.268 C 3.177 1.288 3.187 1.307 3.199 1.327 C 3.291 1.484 3.496 1.627 3.709 1.627 C 3.728 1.627 3.746 1.625 3.765 1.623 C 3.839 1.614 3.913 1.587 3.982 1.537 C 4.248 1.344 4.459 1.235 4.670 1.231 C 4.674 1.231 4.678 1.231 4.682 1.231 C 4.706 1.231 4.730 1.233 4.754 1.235 L 4.757 1.239 L 4.757 1.615 L 4.757 1.712 L 5.007 1.712 L 5.007 1.919 L 4.757 1.919 L 4.757 2.015 L 4.757 2.069 L 4.704 2.069 L 4.607 2.069 L 4.607 2.319 L 4.400 2.319 L 4.400 2.069 L 4.303 2.069 L 4.207 2.069 L 4.207 2.319 L 4.000 2.319 L 4.000 2.069 L 3.903 2.069 L 3.807 2.069 L 3.807 2.319 L 3.600 2.319 L 3.600 2.069 L 3.503 2.069 L 3.407 2.069 L 3.407 2.319 L 3.200 2.319 L 3.200 2.069 L 3.103 2.069 L 3.007 2.069 L 3.007 2.319 L 2.800 2.319 L 2.800 2.069 L 2.704 2.069 L 2.607 2.069 L 2.607 2.319 L 2.400 2.319 L 2.400 2.069 L 2.303 2.069 L 2.207 2.069 L 2.207 2.319 L 2.000 2.319 L 2.000 2.069 L 1.903 2.069 L 1.807 2.069 L 1.807 2.319 L 1.600 2.319 L 1.600 2.069 L 1.504 2.069 L 1.407 2.069 L 1.407 2.319 L 1.200 2.319 L 1.200 2.069 L 1.104 2.069 L 1.007 2.069 L 1.007 2.319 L 0.800 2.319 L 0.800 2.069 L 0.703 2.069 L 0.607 2.069 L 0.607 2.319 L 0.400 2.319 L 0.400 2.069 L 0.303 2.069 L 0.250 2.069 L 0.250 1.915 L 0.250 1.819 L 0.000 1.819 L 0.000 1.612 L 0.250 1.612 L 0.250 1.515 L 0.250 1.419 L 0.000 1.419 L 0.000 1.212 L 0.250 1.212 L 0.250 1.115 L 0.250 1.019 L 0.000 1.019 L 0.000 0.812 L 0.250 0.812 L 0.250 0.715 L 0.250 0.253 L 0.253 0.250 C 0.299 0.243 0.348 0.239 0.400 0.239 C 0.458 0.239 0.518 0.244 0.579 0.257 C 0.688 0.281 0.797 0.330 0.890 0.420 C 1.065 0.591 1.133 0.714 1.187 0.817 C 1.195 0.833 1.202 0.848 1.210 0.862 C 1.240 0.918 1.269 0.969 1.316 1.020 C 1.330 1.036 1.347 1.051 1.365 1.067 C 1.386 1.086 1.409 1.101 1.431 1.112 C 1.465 1.128 1.499 1.137 1.531 1.137 C 1.560 1.137 1.587 1.130 1.610 1.116 C 1.652 1.091 1.680 1.044 1.680 0.978 C 1.680 0.893 1.635 0.777 1.519 0.637 C 1.426 0.525 1.391 0.428 1.391 0.345 C 1.391 0.229 1.459 0.143 1.527 0.085 C 1.587 0.035 1.646 0.007 1.660 0.000 C 1.661 -0.000 1.662 -0.001 1.668 0.002 C 1.668 0.002 1.691 0.156 1.761 0.309 C 1.774 0.337 1.788 0.364 1.803 0.391 C 1.874 0.512 1.978 0.615 2.128 0.615 C 2.167 0.615 2.208 0.609 2.253 0.594 C 2.303 0.577 2.376 0.556 2.462 0.535 C 2.572 0.509 2.704 0.482 2.837 0.464 C 2.937 0.451 3.037 0.442 3.128 0.442 C 3.256 0.442 3.364 0.459 3.428 0.510 M 0.853 1.565 C 0.909 1.565 0.953 1.610 0.953 1.665 C 0.953 1.720 0.909 1.765 0.853 1.765 C 0.798 1.765 0.753 1.720 0.753 1.665 C 0.753 1.610 0.798 1.565 0.853 1.565 M 4.154 1.565 C 4.209 1.565 4.253 1.610 4.253 1.665 C 4.253 1.720 4.209 1.765 4.154 1.765 C 4.098 1.765 4.053 1.720 4.053 1.665 C 4.053 1.610 4.098 1.565 4.154 1.565" style="fill:none;stroke:black;stroke-width:0.012" />
</g>
<g transform="translate(0.100 4.826)">
<path id="side" d="M 3.428 0.510 C 3.428 0.510 3.347 0.525 3.267 0.587 C 3.187 0.649 3.106 0.757 3.106 0.945 C 3.106 1.029 3.123 1.130 3.163 1.249 C 3.165 1.255 3.167 1.262 3.170 1.268 C 3.177 1.288 3.187 1.307 3.199 1.327 C 3.291 1.484 3.496 1.627 3.709 1.627 C 3.728 1.627 3.746 1.625 3.765 1.623 C 3.839 1.614 3.913 1.587 3.982 1.537 C 4.248 1.344 4.459 1.235 4.670 1.231 C 4.674 1.231 4.678 1.231 4.682 1.231 C 4.706 1.231 4.730 1.233 4.754 1.235 L 4.757 1.239 L 4.757 1.615 L 4.757 1.712 L 5.007 1.712 L 5.007 1.919 L 4.757 1.919 L 4.757 2.015 L 4.757 2.069 L 4.704 2.069 L 4.607 2.069 L 4.607 2.319 L 4.400 2.319 L 4.400 2.069 L 4.303 2.069 L 4.207 2.069 L 4.207 2.319 L 4.000 2.319 L 4.000 2.069 L 3.903 2.069 L 3.807 2.069 L 3.807 2.319 L 3.600 2.319 L 3.600 2.069 L 3.503 2.069 L 3.407 2.069 L 3.407 2.319 L 3.200 2.319 L 3.200 2.069 L 3.103 2.069 L 3.007 2.069 L 3.007 2.319 L 2.800 2.319 L 2.800 2.069 L 2.704 2.069 L 2.607 2.069 L 2.607 2.319 L 2.400 2.319 L 2.400 2.069 L 2.303 2.069 L 2.207 2.069 L 2.207 2.319 L 2.000 2.319 L 2.000 2.069 L 1.903 2.069 L 1.807 2.069 L 1.807 2.319 L 1.600 2.319 L 1.600 2.069 L 1.504 2.069 L 1.407 2.069 L 1.407 2.319 L 1.200 2.319 L 1.200 2.069 L 1.104 2.069 L 1.007 2.069 L 1.007 2.319 L 0.800 2.319 L 0.800 2.069 L 0.703 2.069 L 0.607 2.069 L 0.607 2.319 L 0.400 2.319 L 0.400 2.069 L 0.303 2.069 L 0.250 2.069 L 0.250 1.915 L 0.250 1.819 L 0.000 1.819 L 0.000 1.612 L 0.250 1.612 L 0.250 1.515 L 0.250 1.419 L 0.000 1.419 L 0.000 1.212 L 0.250 1.212 L 0.250 1.115 L 0.250 1.019 L 0.000 1.019 L 0.000 0.812 L 0.250 0.812 L 0.250 0.715 L 0.250 0.253 L 0.253 0.250 C 0.299 0.243 0.348 0.239 0.400 0.239 C 0.458 0.239 0.518 0.244 0.579 0.257 C 0.688 0.281 0.797 0.330 0.890 0.420 C 1.065 0.591 1.133 0.714 1.187 0.817 C 1.195 0.833 1.202 0.848 1.210 0.862 C 1.240 0.918 1.269 0.969 1.316 1.020 C 1.330 1.036 1.347 1.051 1.365 1.067 C 1.386 1.086 1.409 1.101 1.431 1.112 C 1.465 1.128 1.499 1.137 1.531 1.137 C 1.560 1.137 1.587 1.130 1.610 1.116 C 1.652 1.091 1.680 1.044 1.680 0.978 C 1.680 0.893 1.635 0.777 1.519 0.637 C 1.426 0.525 1.391 0.428 1.391 0.345 C 1.391 0.229 1.459 0.143 1.527 0.085 C 1.587 0.035 1.646 0.007 1.660 0.000 C 1.661 -0.000 1.662 -0.001 1.668 0.002 C 1.668 0.002 1.691 0.156 1.761 0.309 C 1.774 0.337 1.788 0.364 1.803 0.391 C 1.874 0.512 1.978 0.615 2.128 0.615 C 2.167 0.615 2.208 0.609 2.253 0.594 C 2.303 0.577 2.376 0.556 2.462 0.535 C 2.572 0.509 2.704 0.482 2.837 0.464 C 2.937 0.451 3.037 0.442 3.128 0.442 C 3.256 0.442 3.364 0.459 3.428 0.510 M 0.853 1.565 C 0.909 1.565 0.953 1.610 0.953 1.665 C 0.953 1.720 0.909 1.765 0.853 1.765 C 0.798 1.765 0.753 1.720 0.753 1.665 C 0.753 1.610 0.798 1.565 0.853 1.565 M 4.154 1.565 C 4.209 1.565 4.253 1.610 4.253 1.665 C 4.253 1.720 4.209 1.765 4.154 1.765 C 4.098 1.765 4.053 1.720 4.053 1.665 C 4.053 1.610 4.098 1.565 4.154 1.565" style="fill:none;stroke:black;stroke-width:0.012" />
</g>
<g transform="translate(0.100 7.344)">
<path id="divider" d="M 3.428 0.510 C 3.428 0.510 3.347 0.525 3.267 0.587 C 3.187 0.649 3.106 0.757 3.106 0.945 C 3.106 1.029 3.123 1.130 3.163 1.249 C 3.165 1.255 3.167 1.262 3.170 1.268 C 3.177 1.288 3.187 1.307 3.199 1.327 C 3.291 1.484 3.496 1.627 3.709 1.627 C 3.728 1.627 3.746 1.625 3.765 1.623 C 3.839 1.614 3.913 1.587 3.982 1.537 C 4.248 1.344 4.459 1.235 4.670 1.231 C 4.674 1.231 4.678 1.231 4.682 1.231 C 4.706 1.231 4.730 1.233 4.754 1.235 L 4.757 1.239 L 4.757 1.615 L 4.757 1.712 L 5.007 1.712 L 5.007 1.919 L 4.757 1.919 L 4.757 2.015 L 4.757 2.069 L 4.704 2.069 L 4.607 2.069 L 4.607 2.319 L 4.400 2.319 L 4.400 2.069 L 4.303 2.069 L 4.207 2.069 L 4.207 2.319 L 4.000 2.319 L 4.000 2.069 L 3.903 2.069 L 3.807 2.069 L 3.807 2.319 L 3.600 2.319 L 3.600 2.069 L 3.503 2.069 L 3.407 2.069 L 3.407 2.319 L 3.200 2.319 L 3.200 2.069 L 3.103 2.069 L 3.007 2.069 L 3.007 2.319 L 2.800 2.319 L 2.800 2.069 L 2.704 2.069 L 2.607 2.069 L 2.607 2.319 L 2.400 2.319 L 2.400 2.069 L 2.303 2.069 L 2.207 2.069 L 2.207 2.319 L 2.000 2.319 L 2.000 2.069 L 1.903 2.069 L 1.807 2.069 L 1.807 2.319 L 1.600 2.319 L 1.600 2.069 L 1.504 2.069 L 1.407 2.069 L 1.407 2.319 L 1.200 2.319 L 1.200 2.069 L 1.104 2.069 L 1.007 2.069 L 1.007 2.319 L 0.800 2.319 L 0.800 2.069 L 0.703 2.069 L 0.607 2.069 L 0.607 2.319 L 0.400 2.319 L 0.400 2.069 L 0.303 2.069 L 0.250 2.069 L 0.250 1.915 L 0.250 1.819 L 0.000 1.819 L 0.000 1.612 L 0.250 1.612 L 0.250 1.515 L 0.250 1.419 L 0.000 1.419 L 0.000 1.212 L 0.250 1.212 L 0.250 1.115 L 0.250 1.019 L 0.000 1.019 L 0.000 0.812 L 0.250 0.812 L 0.250 0.715 L 0.250 0.253 L 0.253 0.250 C 0.299 0.243 0.348 0.239 0.400 0.239 C 0.458 0.239 0.518 0.244 0.579 0.257 C 0.688 0.281 0.797 0.330 0.890 0.420 C 1.065 0.591 1.133 0.714 1.187 0.817 C 1.195 0.833 1.202 0.848 1.210 0.862 C 1.240 0.918 1.269 0.969 1.316 1.020 C 1.330 1.036 1.347 1.051 1.365 1.067 C 1.386 1.086 1.409 1.101 1.431 1.112 C 1.465 1.128 1.499 1.137 1.531 1.137 C 1.560 1.137 1.587 1.130 1.610 1.116 C 1.652 1.091 1.680 1.044 1.680 0.978 C 1.680 0.893 1.635 0.777 1.519 0.637 C 1.426 0.525 1.391 0.428 1.391 0.345 C 1.391 0.229 1.459 0.143 1.527 0.085 C 1.587 0.035 1.646 0.007 1.660 0.000 C 1.661 -0.000 1.662 -0.001 1.668 0.002 C 1.668 0.002 1.691 0.156 1.761 0.309 C 1.774 0.337 1.788 0.364 1.803 0.391 C 1.874 0.512 1.978 0.615 2.128 0.615 C 2.167 0.615 2.208 0.609 2.253 0.594 C 2.303 0.577 2.376 0.556 2.462 0.535 C 2.572 0.509 2.704 0.482 2.837 0.464 C 2.937 0.451 3.037 0.442 3.128 0.442 C 3.256 0.442 3.364 0.459 3.428 0.510" style="fill:none;stroke:black;stroke-width:0.012" />
</g>
<g transform="translate(3.307 0.100)">
<path id="front" d="M 2.000 1.007 L 2.207 1.007 L 2.207 0.757 L 2.303 0.757 L 2.400 0.757 L 2.400 1.007 L 2.607 1.007 L 2.607 0.757 L 2.704 0.757 L 3.007 0.757 L 3.007 0.703 L 3.007 0.600 L 2.757 0.600 L 2.757 0.407 L 3.007 0.407 L 3.007 0.303 L 3.007 0.000 L 0.000 0.000 L 0.000 0.303 L 0.000 0.407 L 0.250 0.407 L 0.250 0.600 L 0.000 0.600 L 0.000 0.703 L 0.000 0.757 L 0.303 0.757 L 0.400 0.757 L 0.400 1.007 L 0.607 1.007 L 0.607 0.757 L 0.703 0.757 L 0.800 0.757 L 0.800 1.007 L 1.007 1.007 L 1.007 0.757 L 1.104 0.757 L 1.200 0.757 L 1.200 1.007 L 1.407 1.007 L 1.407 0.757 L 1.504 0.757 L 1.600 0.757 L 1.600 1.007 L 1.807 1.007 L 1.807 0.757 L 1.903 0.757 L 2.000 0.757 L 2.000 1.007 M 1.629 0.403 L 1.629 0.603 L 1.379 0.603 L 1.379 0.403 L 1.629 0.403 M 1.629 1.003" style="fill:none;stroke:black;stroke-width:0.012" />
</g>
<g transform="translate(5.307 2.307)">
<path id="bottom" d="M 0.250 2.807 L 0.250 3.000 L 0.000 3.000 L 0.000 3.103 L 0.000 3.207 L 0.250 3.207 L 0.250 3.400 L 0.000 3.400 L 0.000 3.503 L 0.000 3.607 L 0.250 3.607 L 0.250 3.800 L 0.000 3.800 L 0.000 3.903 L 0.000 4.007 L 0.250 4.007 L 0.250 4.200 L 0.000 4.200 L 0.000 4.303 L 0.000 4.407 L 0.250 4.407 L 0.250 4.600 L 0.000 4.600 L 0.000 4.704 L 0.000 5.007 L 0.303 5.007 L 0.407 5.007 L 0.407 4.757 L 0.600 4.757 L 0.600 5.007 L 0.703 5.007 L 0.807 5.007 L 0.807 4.757 L 1.000 4.757 L 1.000 5.007 L 1.104 5.007 L 1.207 5.007 L 1.207 4.757 L 1.400 4.757 L 1.400 5.007 L 1.504 5.007 L 1.607 5.007 L 1.607 4.757 L 1.800 4.757 L 1.800 5.007 L 1.903 5.007 L 2.007 5.007 L 2.007 4.757 L 2.200 4.757 L 2.200 5.007 L 2.303 5.007 L 2.407 5.007 L 2.407 4.757 L 2.600 4.757 L 2.600 5.007 L 2.704 5.007 L 3.007 5.007 L 3.007 4.704 L 3.007 4.600 L 2.757 4.600 L 2.757 4.407 L 3.007 4.407 L 3.007 4.303 L 3.007 4.200 L 2.757 4.200 L 2.757 4.007 L 3.007 4.007 L 3.007 3.903 L 3.007 3.800 L 2.757 3.800 L 2.757 3.607 L 3.007 3.607 L 3.007 3.503 L 3.007 3.400 L 2.757 3.400 L 2.757 3.207 L 3.007 3.207 L 3.007 3.103 L 3.007 3.000 L 2.757 3.000 L 2.757 2.807 L 3.007 2.807 L 3.007 2.704 L 3.007 2.600 L 2.757 2.600 L 2.757 2.407 L 3.007 2.407 L 3.007 2.303 L 3.007 2.200 L 2.757 2.200 L 2.757 2.007 L 3.007 2.007 L 3.007 1.903 L 3.007 1.800 L 2.757 1.800 L 2.757 1.607 L 3.007 1.607 L 3.007 1.504 L 3.007 1.400 L 2.757 1.400 L 2.757 1.207 L 3.007 1.207 L 3.007 1.104 L 3.007 1.000 L 2.757 1.000 L 2.757 0.807 L 3.007 0.807 L 3.007 0.703 L 3.007 0.600 L 2.757 0.600 L 2.757 0.407 L 3.007 0.407 L 3.007 0.303 L 3.007 0.000 L 2.704 0.000 L 2.600 0.000 L 2.600 0.250 L 2.407 0.250 L 2.407 0.000 L 2.303 0.000 L 2.200 0.000 L 2.200 0.250 L 2.007 0.250 L 2.007 0.000 L 1.903 0.000 L 1.800 0.000 L 1.800 0.250 L 1.607 0.250 L 1.607 0.000 L 1.504 0.000 L 1.400 0.000 L 1.400 0.250 L 1.207 0.250 L 1.207 0.000 L 1.104 0.000 L 1.000 0.000 L 1.000 0.250 L 0.807 0.250 L 0.807 0.000 L 0.703 0.000 L 0.600 0.000 L 0.600 0.250 L 0.407 0.250 L 0.407 0.000 L 0.303 0.000 L 0.000 0.000 L 0.000 0.303 L 0.000 0.407 L 0.250 0.407 L 0.250 0.600 L 0.000 0.600 L 0.000 0.703 L 0.000 0.807 L 0.250 0.807 L 0.250 1.000 L 0.000 1.000 L 0.000 1.104 L 0.000 1.207 L 0.250 1.207 L 0.250 1.400 L 0.000 1.400 L 0.000 1.504 L 0.000 1.607 L 0.250 1.607 L 0.250 1.800 L 0.000 1.800 L 0.000 1.903 L 0.000 2.007 L 0.250 2.007 L 0.250 2.200 L 0.000 2.200 L 0.000 2.303 L 0.000 2.407 L 0.250 2.407 L 0.250 2.600 L 0.000 2.600 L 0.000 2.704 L 0.000 2.807 L 0.250 2.807 M 1.629 0.403 L 1.629 0.603 L 1.379 0.603 L 1.379 0.403 L 1.629 0.403 M 1.629 0.803 L 1.629 1.003 L 1.379 1.003 L 1.379 0.803 L 1.629 0.803 M 1.629 1.203 L 1.629 1.403 L 1.379 1.403 L 1.379 1.203 L 1.629 1.203 M 1.629 1.603 L 1.629 1.803 L 1.379 1.803 L 1.379 1.603 L 1.629 1.603 M 1.629 2.003 L 1.629 2.203 L 1.379 2.203 L 1.379 2.003 L 1.629 2.003 M 1.629 2.403 L 1.629 2.603 L 1.379 2.603 L 1.379 2.403 L 1.629 2.403 M 1.629 2.803 L 1.629 3.003 L 1.379 3.003 L 1.379 2.803 L 1.629 2.803 M 1.629 3.204 L 1.629 3.403 L 1.379 3.403 L 1.379 3.204 L 1.629 3.204 M 1.629 3.603 L 1.629 3.804 L 1.379 3.804 L 1.379 3.603 L 1.629 3.603 M 1.629 4.003 L 1.629 4.204 L 1.379 4.204 L 1.379 4.003 L 1.629 4.003 M 1.629 4.404 L 1.629 4.604 L 1.379 4.604 L 1.379 4.404 L 1.629 4.404 M 1.629 5.004" style="fill:none;stroke:black;stroke-width:0.012" />
</g>
</svg>
