<?xml version="1.0"?>
	<!-- Generated by github.com/dustismo/heavyfishdesign -->
	<svg width="20.000in" height="12.000in" viewBox="0.000 0.000 20.000 12.000"
    	xmlns="http://www.w3.org/2000/svg"
		xmlns:xlink="http://www.w3.org/1999/xlink">
	<g transform="translate(0.100 0.100)">
<path id="house_front" d="M 2.157 0.200 L 2.157 0.000 L 1.850 0.000 L 1.850 0.200 L 1.754 0.200 L 1.657 0.200 L 1.657 0.000 L 1.350 0.000 L 1.350 0.200 L 1.254 0.200 L 1.157 0.200 L 1.157 0.000 L 0.850 0.000 L 0.850 0.200 L 0.753 0.200 L 0.657 0.200 L 0.657 0.000 L 0.350 0.000 L 0.350 0.200 L 0.254 0.200 L 0.200 0.200 L 0.200 0.404 L 0.200 0.500 L 0.000 0.500 L 0.000 0.807 L 0.200 0.807 L 0.200 0.903 L 0.200 1.000 L 0.000 1.000 L 0.000 1.307 L 0.200 1.307 L 0.200 1.403 L 0.200 1.500 L 0.000 1.500 L 0.000 1.807 L 0.200 1.807 L 0.200 1.903 L 0.200 2.000 L 0.000 2.000 L 0.000 2.307 L 0.200 2.307 L 0.200 2.403 L 0.200 2.500 L 0.000 2.500 L 0.000 2.807 L 0.200 2.807 L 0.200 2.903 L 0.200 3.000 L 0.000 3.000 L 0.000 3.307 L 0.200 3.307 L 0.200 3.403 L 0.200 3.500 L 0.000 3.500 L 0.000 3.807 L 0.200 3.807 L 0.200 3.903 L 0.200 4.000 L 0.000 4.000 L 0.000 4.307 L 0.200 4.307 L 0.200 4.404 L 0.200 4.500 L 0.000 4.500 L 0.000 4.807 L 0.200 4.807 L 0.200 4.904 L 0.200 5.000 L 0.000 5.000 L 0.000 5.307 L 0.200 5.307 L 0.200 5.404 L 0.200 6.007 L 4.807 6.007 L 4.807 5.404 L 4.807 5.307 L 5.007 5.307 L 5.007 5.000 L 4.807 5.000 L 4.807 4.904 L 4.807 4.807 L 5.007 4.807 L 5.007 4.500 L 4.807 4.500 L 4.807 4.404 L 4.807 4.307 L 5.007 4.307 L 5.007 4.000 L 4.807 4.000 L 4.807 3.903 L 4.807 3.807 L 5.007 3.807 L 5.007 3.500 L 4.807 3.500 L 4.807 3.403 L 4.807 3.307 L 5.007 3.307 L 5.007 3.000 L 4.807 3.000 L 4.807 2.903 L 4.807 2.807 L 5.007 2.807 L 5.007 2.500 L 4.807 2.500 L 4.807 2.403 L 4.807 2.307 L 5.007 2.307 L 5.007 2.000 L 4.807 2.000 L 4.807 1.903 L 4.807 1.807 L 5.007 1.807 L 5.007 1.500 L 4.807 1.500 L 4.807 1.403 L 4.807 1.307 L 5.007 1.307 L 5.007 1.000 L 4.807 1.000 L 4.807 0.903 L 4.807 0.807 L 5.007 0.807 L 5.007 0.500 L 4.807 0.500 L 4.807 0.404 L 4.807 0.200 L 4.753 0.200 L 4.657 0.200 L 4.657 0.000 L 4.350 0.000 L 4.350 0.200 L 4.253 0.200 L 4.157 0.200 L 4.157 0.000 L 3.850 0.000 L 3.850 0.200 L 3.753 0.200 L 3.657 0.200 L 3.657 0.000 L 3.350 0.000 L 3.350 0.200 L 3.253 0.200 L 3.157 0.200 L 3.157 0.000 L 2.850 0.000 L 2.850 0.200 L 2.753 0.200 L 2.657 0.200 L 2.657 0.000 L 2.350 0.000 L 2.350 0.200 L 2.253 0.200 L 2.157 0.200" style="fill:none;stroke:black;stroke-width:0.012" />
</g>
</svg>
