<?xml version="1.0"?>
	<!-- Generated by github.com/dustismo/heavyfishdesign -->
	<svg width="20.000in" height="12.000in" viewBox="0.000 0.000 20.000 12.000"
    	xmlns="http://www.w3.org/2000/svg"
		xmlns:xlink="http://www.w3.org/1999/xlink">
	<g transform="translate(0.100 0.100)">
<path id="box_side" d="M 0.200 3.807 L 0.200 3.903 L 0.200 4.000 L 0.000 4.000 L 0.000 4.307 L 0.200 4.307 L 0.200 4.404 L 0.200 4.500 L 0.000 4.500 L 0.000 4.807 L 0.200 4.807 L 0.200 4.904 L 0.200 5.000 L 0.000 5.000 L 0.000 5.307 L 0.200 5.307 L 0.200 5.404 L 0.200 5.807 L 0.254 5.807 L 0.350 5.807 L 0.350 6.007 L 0.657 6.007 L 0.657 5.807 L 0.753 5.807 L 0.850 5.807 L 0.850 6.007 L 1.157 6.007 L 1.157 5.807 L 1.254 5.807 L 1.350 5.807 L 1.350 6.007 L 1.657 6.007 L 1.657 5.807 L 1.754 5.807 L 1.850 5.807 L 1.850 6.007 L 2.157 6.007 L 2.157 5.807 L 2.253 5.807 L 2.350 5.807 L 2.350 6.007 L 2.657 6.007 L 2.657 5.807 L 2.753 5.807 L 2.850 5.807 L 2.850 6.007 L 3.157 6.007 L 3.157 5.807 L 3.253 5.807 L 3.350 5.807 L 3.350 6.007 L 3.657 6.007 L 3.657 5.807 L 3.753 5.807 L 3.850 5.807 L 3.850 6.007 L 4.157 6.007 L 4.157 5.807 L 4.253 5.807 L 4.350 5.807 L 4.350 6.007 L 4.657 6.007 L 4.657 5.807 L 4.753 5.807 L 4.807 5.807 L 4.807 5.404 L 4.807 5.307 L 5.007 5.307 L 5.007 5.000 L 4.807 5.000 L 4.807 4.904 L 4.807 4.807 L 5.007 4.807 L 5.007 4.500 L 4.807 4.500 L 4.807 4.404 L 4.807 4.307 L 5.007 4.307 L 5.007 4.000 L 4.807 4.000 L 4.807 3.903 L 4.807 3.807 L 5.007 3.807 L 5.007 3.500 L 4.807 3.500 L 4.807 3.403 L 4.807 3.307 L 5.007 3.307 L 5.007 3.000 L 4.807 3.000 L 4.807 2.903 L 4.807 2.807 L 5.007 2.807 L 5.007 2.500 L 4.807 2.500 L 4.807 2.403 L 4.807 2.307 L 5.007 2.307 L 5.007 2.000 L 4.807 2.000 L 4.807 1.903 L 4.807 1.807 L 5.007 1.807 L 5.007 1.500 L 4.807 1.500 L 4.807 1.403 L 4.807 1.307 L 5.007 1.307 L 5.007 1.000 L 4.807 1.000 L 4.807 0.903 L 4.807 0.807 L 5.007 0.807 L 5.007 0.500 L 4.807 0.500 L 4.807 0.404 L 4.807 0.000 L 3.000 0.000 L 3.000 3.704 C 3.000 3.813 2.940 3.909 2.852 3.960 C 2.808 3.986 2.758 4.000 2.704 4.000 L 2.503 4.000 L 2.303 4.000 C 2.194 4.000 2.098 3.940 2.047 3.852 C 2.021 3.808 2.007 3.758 2.007 3.704 L 2.007 0.000 L 0.200 0.000 L 0.200 0.404 L 0.200 0.500 L 0.000 0.500 L 0.000 0.807 L 0.200 0.807 L 0.200 0.903 L 0.200 1.000 L 0.000 1.000 L 0.000 1.307 L 0.200 1.307 L 0.200 1.403 L 0.200 1.500 L 0.000 1.500 L 0.000 1.807 L 0.200 1.807 L 0.200 1.903 L 0.200 2.000 L 0.000 2.000 L 0.000 2.307 L 0.200 2.307 L 0.200 2.403 L 0.200 2.500 L 0.000 2.500 L 0.000 2.807 L 0.200 2.807 L 0.200 2.903 L 0.200 3.000 L 0.000 3.000 L 0.000 3.307 L 0.200 3.307 L 0.200 3.403 L 0.200 3.500 L 0.000 3.500 L 0.000 3.807 L 0.200 3.807" style="fill:none;stroke:black;stroke-width:0.012" />
</g>
</svg>
