<?xml version="1.0"?>
	<!-- Generated by github.com/dustismo/heavyfishdesign -->
	<svg width="20.000in" height="12.000in" viewBox="0.000 0.000 20.000 12.000"
    	xmlns="http://www.w3.org/2000/svg"
		xmlns:xlink="http://www.w3.org/1999/xlink">
	<g transform="translate(0.100 0.100)">
<path id="d33d867bf9f0f858" d="M 0.659 1.384 L 0.697 1.388 L 0.695 1.409 L 0.697 1.429 L 0.701 1.448 L 0.707 1.468 L 0.715 1.487 L 0.724 1.507 L 0.775 1.507 L 0.784 1.487 L 0.792 1.468 L 0.798 1.448 L 0.802 1.429 L 0.804 1.409 L 0.802 1.388 L 0.840 1.384 L 0.840 1.384 L 0.878 1.377 L 0.882 1.398 L 0.889 1.416 L 0.899 1.434 L 0.910 1.451 L 0.923 1.467 L 0.938 1.484 L 0.986 1.469 L 0.989 1.448 L 0.991 1.427 L 0.992 1.406 L 0.990 1.386 L 0.986 1.367 L 0.979 1.347 L 1.014 1.333 L 1.014 1.333 L 1.048 1.316 L 1.058 1.335 L 1.070 1.350 L 1.084 1.364 L 1.100 1.377 L 1.117 1.390 L 1.136 1.401 L 1.178 1.374 L 1.175 1.352 L 1.171 1.332 L 1.166 1.312 L 1.159 1.293 L 1.150 1.276 L 1.137 1.259 L 1.166 1.235 L 1.166 1.235 L 1.194 1.209 L 1.209 1.224 L 1.225 1.236 L 1.243 1.245 L 1.262 1.253 L 1.282 1.260 L 1.302 1.266 L 1.335 1.228 L 1.327 1.208 L 1.317 1.189 L 1.306 1.172 L 1.294 1.156 L 1.281 1.142 L 1.263 1.129 L 1.285 1.098 L 1.285 1.098 L 1.305 1.065 L 1.323 1.075 L 1.342 1.082 L 1.361 1.086 L 1.382 1.089 L 1.403 1.090 L 1.424 1.089 L 1.445 1.044 L 1.431 1.027 L 1.417 1.012 L 1.402 0.998 L 1.386 0.986 L 1.369 0.976 L 1.348 0.969 L 1.360 0.933 L 1.360 0.933 L 1.370 0.896 L 1.391 0.901 L 1.410 0.902 L 1.430 0.900 L 1.450 0.897 L 1.471 0.892 L 1.492 0.886 L 1.499 0.836 L 1.481 0.824 L 1.463 0.813 L 1.444 0.804 L 1.425 0.797 L 1.406 0.793 L 1.385 0.792 L 1.386 0.754 L 1.386 0.754 L 1.385 0.715 L 1.406 0.714 L 1.425 0.710 L 1.444 0.703 L 1.463 0.694 L 1.481 0.683 L 1.499 0.671 L 1.492 0.621 L 1.471 0.615 L 1.450 0.610 L 1.430 0.607 L 1.410 0.605 L 1.391 0.606 L 1.370 0.611 L 1.360 0.574 L 1.360 0.574 L 1.348 0.538 L 1.369 0.531 L 1.386 0.521 L 1.402 0.509 L 1.417 0.495 L 1.431 0.480 L 1.445 0.463 L 1.424 0.418 L 1.403 0.417 L 1.382 0.418 L 1.361 0.421 L 1.342 0.425 L 1.323 0.432 L 1.305 0.442 L 1.285 0.409 L 1.285 0.409 L 1.263 0.378 L 1.281 0.365 L 1.294 0.351 L 1.306 0.335 L 1.317 0.318 L 1.327 0.299 L 1.335 0.279 L 1.302 0.241 L 1.282 0.247 L 1.262 0.254 L 1.243 0.262 L 1.225 0.271 L 1.209 0.283 L 1.194 0.298 L 1.166 0.272 L 1.166 0.272 L 1.137 0.248 L 1.150 0.231 L 1.159 0.214 L 1.166 0.195 L 1.171 0.176 L 1.175 0.155 L 1.178 0.133 L 1.136 0.106 L 1.117 0.117 L 1.100 0.130 L 1.084 0.143 L 1.070 0.157 L 1.058 0.172 L 1.048 0.191 L 1.014 0.174 L 1.014 0.174 L 0.979 0.160 L 0.986 0.140 L 0.990 0.121 L 0.992 0.101 L 0.991 0.080 L 0.989 0.059 L 0.986 0.038 L 0.938 0.023 L 0.923 0.040 L 0.910 0.056 L 0.899 0.073 L 0.889 0.091 L 0.882 0.109 L 0.878 0.130 L 0.840 0.123 L 0.840 0.123 L 0.802 0.119 L 0.804 0.098 L 0.802 0.078 L 0.798 0.059 L 0.792 0.039 L 0.784 0.020 L 0.775 0.000 L 0.724 0.000 L 0.715 0.020 L 0.707 0.039 L 0.701 0.059 L 0.697 0.078 L 0.695 0.098 L 0.697 0.119 L 0.659 0.123 L 0.659 0.123 L 0.621 0.130 L 0.617 0.109 L 0.610 0.091 L 0.600 0.073 L 0.589 0.056 L 0.576 0.040 L 0.561 0.023 L 0.513 0.038 L 0.510 0.059 L 0.508 0.080 L 0.507 0.101 L 0.509 0.121 L 0.512 0.140 L 0.520 0.160 L 0.485 0.174 L 0.485 0.174 L 0.451 0.191 L 0.441 0.172 L 0.429 0.157 L 0.415 0.143 L 0.399 0.130 L 0.382 0.117 L 0.363 0.106 L 0.321 0.133 L 0.324 0.155 L 0.328 0.176 L 0.333 0.195 L 0.340 0.214 L 0.349 0.231 L 0.362 0.248 L 0.333 0.272 L 0.333 0.272 L 0.304 0.298 L 0.289 0.283 L 0.274 0.271 L 0.256 0.262 L 0.237 0.254 L 0.217 0.247 L 0.196 0.241 L 0.163 0.279 L 0.172 0.299 L 0.182 0.318 L 0.193 0.335 L 0.205 0.351 L 0.218 0.365 L 0.236 0.378 L 0.214 0.409 L 0.214 0.409 L 0.194 0.442 L 0.175 0.432 L 0.157 0.425 L 0.138 0.421 L 0.117 0.418 L 0.096 0.417 L 0.074 0.418 L 0.054 0.463 L 0.067 0.480 L 0.082 0.495 L 0.097 0.509 L 0.113 0.521 L 0.130 0.531 L 0.150 0.538 L 0.139 0.574 L 0.139 0.574 L 0.129 0.611 L 0.108 0.606 L 0.089 0.605 L 0.069 0.607 L 0.048 0.610 L 0.028 0.615 L 0.007 0.621 L 0.000 0.671 L 0.018 0.683 L 0.036 0.694 L 0.055 0.703 L 0.074 0.710 L 0.093 0.714 L 0.114 0.715 L 0.113 0.754 L 0.113 0.754 L 0.114 0.792 L 0.093 0.793 L 0.074 0.797 L 0.055 0.804 L 0.036 0.813 L 0.018 0.824 L 0.000 0.836 L 0.007 0.886 L 0.028 0.892 L 0.048 0.897 L 0.069 0.900 L 0.089 0.902 L 0.108 0.901 L 0.129 0.896 L 0.139 0.933 L 0.139 0.933 L 0.150 0.969 L 0.130 0.976 L 0.113 0.986 L 0.097 0.998 L 0.082 1.012 L 0.067 1.027 L 0.054 1.044 L 0.074 1.089 L 0.096 1.090 L 0.117 1.089 L 0.138 1.086 L 0.157 1.082 L 0.175 1.075 L 0.194 1.065 L 0.214 1.098 L 0.214 1.098 L 0.236 1.129 L 0.218 1.142 L 0.205 1.156 L 0.193 1.172 L 0.182 1.189 L 0.172 1.208 L 0.163 1.228 L 0.196 1.266 L 0.217 1.260 L 0.237 1.253 L 0.256 1.245 L 0.274 1.236 L 0.289 1.224 L 0.304 1.209 L 0.333 1.235 L 0.333 1.235 L 0.362 1.259 L 0.349 1.276 L 0.340 1.293 L 0.333 1.312 L 0.328 1.332 L 0.324 1.352 L 0.321 1.374 L 0.363 1.401 L 0.382 1.390 L 0.399 1.377 L 0.415 1.364 L 0.429 1.350 L 0.441 1.335 L 0.451 1.316 L 0.485 1.333 L 0.485 1.333 L 0.520 1.347 L 0.512 1.367 L 0.509 1.386 L 0.507 1.406 L 0.508 1.427 L 0.510 1.448 L 0.513 1.469 L 0.561 1.484 L 0.576 1.467 L 0.589 1.451 L 0.600 1.434 L 0.610 1.416 L 0.617 1.398 L 0.621 1.377 L 0.659 1.384 L 0.659 1.384 M 0.749 0.632 C 0.794 0.632 0.834 0.656 0.855 0.693 C 0.865 0.711 0.871 0.731 0.871 0.754 C 0.871 0.798 0.847 0.838 0.810 0.859 C 0.792 0.869 0.772 0.875 0.749 0.875 C 0.704 0.875 0.665 0.851 0.644 0.814 C 0.634 0.796 0.628 0.776 0.628 0.754 C 0.628 0.709 0.652 0.669 0.689 0.648 C 0.707 0.638 0.727 0.632 0.749 0.632" style="fill:none;stroke:black;stroke-width:0.012" />
</g>
</svg>
