<?xml version="1.0"?>
	<!-- Generated by github.com/dustismo/heavyfishdesign -->
	<svg width="20.000in" height="12.000in" viewBox="0.000 0.000 20.000 12.000"
    	xmlns="http://www.w3.org/2000/svg"
		xmlns:xlink="http://www.w3.org/1999/xlink">
	<g transform="translate(0.100 0.100)">
<path id="b7be8611bb86f4b8" d="M 0.584 1.534 L 0.582 1.533 L 0.550 1.520 L 0.545 1.532 L 0.534 1.549 L 0.519 1.565 L 0.504 1.581 L 0.486 1.595 L 0.466 1.610 L 0.418 1.583 L 0.419 1.558 L 0.422 1.536 L 0.427 1.514 L 0.433 1.493 L 0.442 1.474 L 0.448 1.464 L 0.420 1.444 L 0.393 1.424 L 0.385 1.434 L 0.369 1.448 L 0.352 1.460 L 0.333 1.471 L 0.312 1.480 L 0.289 1.490 L 0.249 1.452 L 0.257 1.428 L 0.265 1.407 L 0.275 1.387 L 0.286 1.369 L 0.299 1.352 L 0.308 1.344 L 0.286 1.318 L 0.265 1.291 L 0.255 1.299 L 0.236 1.309 L 0.216 1.316 L 0.195 1.322 L 0.172 1.326 L 0.148 1.330 L 0.118 1.283 L 0.132 1.261 L 0.145 1.243 L 0.159 1.227 L 0.175 1.211 L 0.191 1.199 L 0.202 1.193 L 0.187 1.162 L 0.173 1.131 L 0.161 1.136 L 0.141 1.141 L 0.120 1.143 L 0.098 1.143 L 0.075 1.142 L 0.050 1.139 L 0.033 1.086 L 0.052 1.069 L 0.069 1.055 L 0.087 1.042 L 0.106 1.031 L 0.125 1.023 L 0.137 1.020 L 0.130 0.987 L 0.125 0.954 L 0.112 0.955 L 0.091 0.955 L 0.070 0.952 L 0.048 0.946 L 0.027 0.940 L 0.003 0.930 L 0.000 0.875 L 0.022 0.863 L 0.043 0.854 L 0.063 0.846 L 0.084 0.840 L 0.105 0.837 L 0.117 0.837 L 0.118 0.803 L 0.121 0.769 L 0.109 0.768 L 0.088 0.762 L 0.069 0.754 L 0.049 0.743 L 0.030 0.731 L 0.010 0.717 L 0.020 0.662 L 0.045 0.656 L 0.067 0.652 L 0.089 0.650 L 0.110 0.649 L 0.131 0.651 L 0.143 0.655 L 0.153 0.622 L 0.164 0.590 L 0.152 0.585 L 0.134 0.575 L 0.117 0.562 L 0.101 0.547 L 0.085 0.531 L 0.069 0.511 L 0.093 0.461 L 0.118 0.461 L 0.141 0.463 L 0.163 0.466 L 0.183 0.471 L 0.203 0.478 L 0.214 0.484 L 0.232 0.455 L 0.250 0.427 L 0.240 0.420 L 0.225 0.405 L 0.212 0.388 L 0.200 0.369 L 0.189 0.350 L 0.178 0.327 L 0.213 0.285 L 0.238 0.291 L 0.259 0.298 L 0.280 0.306 L 0.299 0.316 L 0.316 0.329 L 0.325 0.337 L 0.349 0.313 L 0.374 0.290 L 0.366 0.281 L 0.355 0.263 L 0.347 0.243 L 0.340 0.222 L 0.334 0.200 L 0.329 0.176 L 0.374 0.143 L 0.396 0.156 L 0.415 0.168 L 0.432 0.181 L 0.449 0.195 L 0.462 0.211 L 0.469 0.222 L 0.498 0.205 L 0.528 0.189 L 0.523 0.178 L 0.517 0.158 L 0.513 0.136 L 0.512 0.114 L 0.512 0.092 L 0.513 0.067 L 0.565 0.046 L 0.583 0.064 L 0.598 0.080 L 0.612 0.097 L 0.624 0.115 L 0.633 0.134 L 0.637 0.146 L 0.670 0.137 L 0.703 0.129 L 0.700 0.117 L 0.699 0.096 L 0.701 0.074 L 0.705 0.053 L 0.711 0.031 L 0.718 0.007 L 0.773 0.000 L 0.787 0.021 L 0.797 0.041 L 0.806 0.061 L 0.814 0.082 L 0.818 0.102 L 0.819 0.115 L 0.853 0.114 L 0.887 0.115 L 0.887 0.102 L 0.892 0.081 L 0.899 0.061 L 0.908 0.041 L 0.919 0.021 L 0.932 0.000 L 0.987 0.007 L 0.995 0.031 L 1.000 0.053 L 1.004 0.075 L 1.006 0.096 L 1.005 0.117 L 1.002 0.129 L 1.036 0.137 L 1.068 0.146 L 1.072 0.134 L 1.082 0.115 L 1.093 0.097 L 1.107 0.080 L 1.122 0.064 L 1.141 0.046 L 1.192 0.067 L 1.194 0.092 L 1.194 0.115 L 1.192 0.137 L 1.188 0.158 L 1.182 0.178 L 1.177 0.189 L 1.207 0.205 L 1.236 0.222 L 1.243 0.211 L 1.257 0.195 L 1.273 0.181 L 1.291 0.168 L 1.309 0.155 L 1.331 0.143 L 1.376 0.176 L 1.371 0.201 L 1.366 0.222 L 1.358 0.243 L 1.350 0.263 L 1.339 0.281 L 1.331 0.290 L 1.356 0.313 L 1.380 0.337 L 1.390 0.328 L 1.407 0.316 L 1.426 0.306 L 1.446 0.298 L 1.468 0.291 L 1.492 0.285 L 1.527 0.327 L 1.516 0.350 L 1.505 0.370 L 1.493 0.388 L 1.480 0.405 L 1.465 0.420 L 1.455 0.427 L 1.474 0.455 L 1.491 0.484 L 1.502 0.478 L 1.522 0.471 L 1.543 0.466 L 1.565 0.463 L 1.587 0.461 L 1.612 0.461 L 1.636 0.511 L 1.620 0.531 L 1.604 0.547 L 1.588 0.562 L 1.571 0.575 L 1.552 0.585 L 1.541 0.590 L 1.552 0.622 L 1.562 0.655 L 1.574 0.651 L 1.595 0.649 L 1.617 0.650 L 1.638 0.652 L 1.661 0.656 L 1.685 0.662 L 1.695 0.717 L 1.675 0.732 L 1.656 0.743 L 1.636 0.754 L 1.616 0.762 L 1.596 0.768 L 1.584 0.769 L 1.587 0.803 L 1.588 0.837 L 1.601 0.837 L 1.622 0.840 L 1.642 0.846 L 1.663 0.854 L 1.683 0.863 L 1.705 0.875 L 1.702 0.930 L 1.678 0.940 L 1.657 0.946 L 1.635 0.952 L 1.614 0.955 L 1.593 0.955 L 1.581 0.954 L 1.575 0.987 L 1.568 1.020 L 1.580 1.023 L 1.600 1.032 L 1.618 1.042 L 1.636 1.055 L 1.654 1.069 L 1.672 1.086 L 1.655 1.139 L 1.630 1.142 L 1.607 1.143 L 1.585 1.143 L 1.564 1.141 L 1.543 1.136 L 1.532 1.131 L 1.518 1.163 L 1.503 1.193 L 1.514 1.199 L 1.531 1.212 L 1.546 1.227 L 1.560 1.244 L 1.574 1.262 L 1.587 1.283 L 1.558 1.330 L 1.533 1.326 L 1.510 1.322 L 1.489 1.316 L 1.469 1.309 L 1.450 1.299 L 1.440 1.291 L 1.419 1.318 L 1.397 1.344 L 1.406 1.352 L 1.419 1.369 L 1.431 1.387 L 1.440 1.407 L 1.449 1.428 L 1.456 1.452 L 1.416 1.490 L 1.393 1.480 L 1.372 1.471 L 1.353 1.460 L 1.335 1.447 L 1.320 1.433 L 1.312 1.424 L 1.285 1.444 L 1.257 1.464 L 1.264 1.474 L 1.272 1.494 L 1.279 1.514 L 1.283 1.536 L 1.286 1.558 L 1.288 1.583 L 1.239 1.610 L 1.219 1.595 L 1.201 1.580 L 1.186 1.565 L 1.172 1.549 L 1.160 1.531 L 1.155 1.520 L 1.123 1.533 L 1.091 1.545 L 1.095 1.557 L 1.099 1.578 L 1.100 1.599 L 1.099 1.621 L 1.096 1.644 L 1.091 1.668 L 1.038 1.682 L 1.022 1.662 L 1.009 1.644 L 0.997 1.625 L 0.988 1.606 L 0.981 1.586 L 0.978 1.574 L 0.945 1.579 L 0.911 1.583 L 0.912 1.595 L 0.910 1.616 L 0.906 1.637 L 0.899 1.658 L 0.891 1.679 L 0.880 1.702 L 0.825 1.702 L 0.814 1.679 L 0.806 1.658 L 0.800 1.637 L 0.795 1.616 L 0.793 1.595 L 0.794 1.583 L 0.761 1.579 L 0.727 1.574 L 0.724 1.587 L 0.718 1.606 L 0.708 1.626 L 0.696 1.644 L 0.683 1.663 L 0.667 1.682 L 0.614 1.668 L 0.609 1.643 L 0.606 1.621 L 0.605 1.599 L 0.606 1.578 L 0.610 1.557 L 0.584 1.632 L 0.584 1.534 M 0.853 0.653 C 0.925 0.653 0.989 0.692 1.023 0.751 C 1.040 0.780 1.049 0.813 1.049 0.849 C 1.049 0.922 1.010 0.986 0.951 1.019 C 0.922 1.036 0.888 1.046 0.853 1.046 C 0.780 1.046 0.716 1.006 0.682 0.948 C 0.666 0.919 0.656 0.885 0.656 0.849 C 0.656 0.777 0.696 0.713 0.754 0.679 C 0.783 0.662 0.817 0.653 0.853 0.653" style="fill:none;stroke:black;stroke-width:0.012" />
</g>
</svg>
