<?xml version="1.0"?>
	<!-- Generated by github.com/dustismo/heavyfishdesign -->
	<svg width="17.000in" height="10.000in" viewBox="0.000 0.000 17.000 10.000"
    	xmlns="http://www.w3.org/2000/svg"
		xmlns:xlink="http://www.w3.org/1999/xlink">
	<g transform="translate(0.100 0.100)">
<path id="front_flat_top" d="M 3.057 3.557 L 3.153 3.557 L 3.250 3.557 L 3.250 3.757 L 3.457 3.757 L 3.457 3.557 L 3.553 3.557 L 3.650 3.557 L 3.650 3.757 L 3.857 3.757 L 3.857 3.557 L 3.954 3.557 L 4.050 3.557 L 4.050 3.757 L 4.257 3.757 L 4.257 3.557 L 4.353 3.557 L 4.450 3.557 L 4.450 3.757 L 4.657 3.757 L 4.657 3.557 L 4.753 3.557 L 4.850 3.557 L 4.850 3.757 L 5.057 3.757 L 5.057 3.557 L 5.154 3.557 L 5.307 3.557 L 5.307 3.178 L 5.307 3.082 L 5.507 3.082 L 5.507 2.875 L 5.307 2.875 L 5.307 2.778 L 5.307 2.682 L 5.507 2.682 L 5.507 2.475 L 5.307 2.475 L 5.307 2.378 L 5.307 2.282 L 5.507 2.282 L 5.507 2.075 L 5.307 2.075 L 5.307 1.979 L 5.307 1.882 L 5.507 1.882 L 5.507 1.675 L 5.307 1.675 L 5.307 1.579 L 5.307 1.482 L 5.507 1.482 L 5.507 1.275 L 5.307 1.275 L 5.307 1.179 L 5.307 1.082 L 5.507 1.082 L 5.507 0.875 L 5.307 0.875 L 5.307 0.778 L 5.307 0.682 L 5.507 0.682 L 5.507 0.475 L 5.307 0.475 L 5.307 0.379 L 5.307 0.000 L 0.200 0.000 L 0.200 0.379 L 0.200 0.475 L 0.000 0.475 L 0.000 0.682 L 0.200 0.682 L 0.200 0.778 L 0.200 0.875 L 0.000 0.875 L 0.000 1.082 L 0.200 1.082 L 0.200 1.179 L 0.200 1.275 L 0.000 1.275 L 0.000 1.482 L 0.200 1.482 L 0.200 1.579 L 0.200 1.675 L 0.000 1.675 L 0.000 1.882 L 0.200 1.882 L 0.200 1.979 L 0.200 2.075 L 0.000 2.075 L 0.000 2.282 L 0.200 2.282 L 0.200 2.378 L 0.200 2.475 L 0.000 2.475 L 0.000 2.682 L 0.200 2.682 L 0.200 2.778 L 0.200 2.875 L 0.000 2.875 L 0.000 3.082 L 0.200 3.082 L 0.200 3.178 L 0.200 3.557 L 0.353 3.557 L 0.450 3.557 L 0.450 3.757 L 0.657 3.757 L 0.657 3.557 L 0.753 3.557 L 0.850 3.557 L 0.850 3.757 L 1.057 3.757 L 1.057 3.557 L 1.153 3.557 L 1.250 3.557 L 1.250 3.757 L 1.457 3.757 L 1.457 3.557 L 1.554 3.557 L 1.650 3.557 L 1.650 3.757 L 1.857 3.757 L 1.857 3.557 L 1.954 3.557 L 2.050 3.557 L 2.050 3.757 L 2.257 3.757 L 2.257 3.557 L 2.353 3.557 L 2.450 3.557 L 2.450 3.757 L 2.657 3.757 L 2.657 3.557 L 2.753 3.557 L 2.850 3.557 L 2.850 3.757 L 3.057 3.757 L 3.057 3.557" style="fill:none;stroke:black;stroke-width:0.012" />
</g>
<g transform="translate(0.100 4.057)">
<path id="front_flat_top" d="M 3.057 3.557 L 3.153 3.557 L 3.250 3.557 L 3.250 3.757 L 3.457 3.757 L 3.457 3.557 L 3.553 3.557 L 3.650 3.557 L 3.650 3.757 L 3.857 3.757 L 3.857 3.557 L 3.954 3.557 L 4.050 3.557 L 4.050 3.757 L 4.257 3.757 L 4.257 3.557 L 4.353 3.557 L 4.450 3.557 L 4.450 3.757 L 4.657 3.757 L 4.657 3.557 L 4.753 3.557 L 4.850 3.557 L 4.850 3.757 L 5.057 3.757 L 5.057 3.557 L 5.154 3.557 L 5.307 3.557 L 5.307 3.178 L 5.307 3.082 L 5.507 3.082 L 5.507 2.875 L 5.307 2.875 L 5.307 2.778 L 5.307 2.682 L 5.507 2.682 L 5.507 2.475 L 5.307 2.475 L 5.307 2.378 L 5.307 2.282 L 5.507 2.282 L 5.507 2.075 L 5.307 2.075 L 5.307 1.979 L 5.307 1.882 L 5.507 1.882 L 5.507 1.675 L 5.307 1.675 L 5.307 1.579 L 5.307 1.482 L 5.507 1.482 L 5.507 1.275 L 5.307 1.275 L 5.307 1.179 L 5.307 1.082 L 5.507 1.082 L 5.507 0.875 L 5.307 0.875 L 5.307 0.778 L 5.307 0.682 L 5.507 0.682 L 5.507 0.475 L 5.307 0.475 L 5.307 0.379 L 5.307 0.000 L 0.200 0.000 L 0.200 0.379 L 0.200 0.475 L 0.000 0.475 L 0.000 0.682 L 0.200 0.682 L 0.200 0.778 L 0.200 0.875 L 0.000 0.875 L 0.000 1.082 L 0.200 1.082 L 0.200 1.179 L 0.200 1.275 L 0.000 1.275 L 0.000 1.482 L 0.200 1.482 L 0.200 1.579 L 0.200 1.675 L 0.000 1.675 L 0.000 1.882 L 0.200 1.882 L 0.200 1.979 L 0.200 2.075 L 0.000 2.075 L 0.000 2.282 L 0.200 2.282 L 0.200 2.378 L 0.200 2.475 L 0.000 2.475 L 0.000 2.682 L 0.200 2.682 L 0.200 2.778 L 0.200 2.875 L 0.000 2.875 L 0.000 3.082 L 0.200 3.082 L 0.200 3.178 L 0.200 3.557 L 0.353 3.557 L 0.450 3.557 L 0.450 3.757 L 0.657 3.757 L 0.657 3.557 L 0.753 3.557 L 0.850 3.557 L 0.850 3.757 L 1.057 3.757 L 1.057 3.557 L 1.153 3.557 L 1.250 3.557 L 1.250 3.757 L 1.457 3.757 L 1.457 3.557 L 1.554 3.557 L 1.650 3.557 L 1.650 3.757 L 1.857 3.757 L 1.857 3.557 L 1.954 3.557 L 2.050 3.557 L 2.050 3.757 L 2.257 3.757 L 2.257 3.557 L 2.353 3.557 L 2.450 3.557 L 2.450 3.757 L 2.657 3.757 L 2.657 3.557 L 2.753 3.557 L 2.850 3.557 L 2.850 3.757 L 3.057 3.757 L 3.057 3.557" style="fill:none;stroke:black;stroke-width:0.012" />
</g>
<g transform="translate(5.807 0.100)">
<path id="side_flat_top" d="M 3.057 3.075 L 3.257 3.075 L 3.257 3.178 L 3.257 3.557 L 3.028 3.557 L 2.932 3.557 L 2.932 3.757 L 2.725 3.757 L 2.725 3.557 L 2.628 3.557 L 2.532 3.557 L 2.532 3.757 L 2.325 3.757 L 2.325 3.557 L 2.228 3.557 L 2.132 3.557 L 2.132 3.757 L 1.925 3.757 L 1.925 3.557 L 1.829 3.557 L 1.732 3.557 L 1.732 3.757 L 1.525 3.757 L 1.525 3.557 L 1.429 3.557 L 1.332 3.557 L 1.332 3.757 L 1.125 3.757 L 1.125 3.557 L 1.028 3.557 L 0.932 3.557 L 0.932 3.757 L 0.725 3.757 L 0.725 3.557 L 0.628 3.557 L 0.532 3.557 L 0.532 3.757 L 0.325 3.757 L 0.325 3.557 L 0.229 3.557 L 0.000 3.557 L 0.000 3.178 L 0.000 3.075 L 0.200 3.075 L 0.200 2.882 L 0.000 2.882 L 0.000 2.778 L 0.000 2.675 L 0.200 2.675 L 0.200 2.482 L 0.000 2.482 L 0.000 2.378 L 0.000 2.275 L 0.200 2.275 L 0.200 2.082 L 0.000 2.082 L 0.000 1.979 L 0.000 1.875 L 0.200 1.875 L 0.200 1.682 L 0.000 1.682 L 0.000 1.579 L 0.000 1.475 L 0.200 1.475 L 0.200 1.282 L 0.000 1.282 L 0.000 1.179 L 0.000 1.075 L 0.200 1.075 L 0.200 0.882 L 0.000 0.882 L 0.000 0.778 L 0.000 0.675 L 0.200 0.675 L 0.200 0.482 L 0.000 0.482 L 0.000 0.379 L 0.000 0.000 L 3.257 0.000 L 3.257 0.379 L 3.257 0.482 L 3.057 0.482 L 3.057 0.675 L 3.257 0.675 L 3.257 0.778 L 3.257 0.882 L 3.057 0.882 L 3.057 1.075 L 3.257 1.075 L 3.257 1.179 L 3.257 1.282 L 3.057 1.282 L 3.057 1.475 L 3.257 1.475 L 3.257 1.579 L 3.257 1.682 L 3.057 1.682 L 3.057 1.875 L 3.257 1.875 L 3.257 1.979 L 3.257 2.082 L 3.057 2.082 L 3.057 2.275 L 3.257 2.275 L 3.257 2.378 L 3.257 2.482 L 3.057 2.482 L 3.057 2.675 L 3.257 2.675 L 3.257 2.778 L 3.257 2.882 L 3.057 2.882 L 3.057 3.075" style="fill:none;stroke:black;stroke-width:0.012" />
</g>
<g transform="translate(5.807 4.057)">
<path id="side_flat_top" d="M 3.057 3.075 L 3.257 3.075 L 3.257 3.178 L 3.257 3.557 L 3.028 3.557 L 2.932 3.557 L 2.932 3.757 L 2.725 3.757 L 2.725 3.557 L 2.628 3.557 L 2.532 3.557 L 2.532 3.757 L 2.325 3.757 L 2.325 3.557 L 2.228 3.557 L 2.132 3.557 L 2.132 3.757 L 1.925 3.757 L 1.925 3.557 L 1.829 3.557 L 1.732 3.557 L 1.732 3.757 L 1.525 3.757 L 1.525 3.557 L 1.429 3.557 L 1.332 3.557 L 1.332 3.757 L 1.125 3.757 L 1.125 3.557 L 1.028 3.557 L 0.932 3.557 L 0.932 3.757 L 0.725 3.757 L 0.725 3.557 L 0.628 3.557 L 0.532 3.557 L 0.532 3.757 L 0.325 3.757 L 0.325 3.557 L 0.229 3.557 L 0.000 3.557 L 0.000 3.178 L 0.000 3.075 L 0.200 3.075 L 0.200 2.882 L 0.000 2.882 L 0.000 2.778 L 0.000 2.675 L 0.200 2.675 L 0.200 2.482 L 0.000 2.482 L 0.000 2.378 L 0.000 2.275 L 0.200 2.275 L 0.200 2.082 L 0.000 2.082 L 0.000 1.979 L 0.000 1.875 L 0.200 1.875 L 0.200 1.682 L 0.000 1.682 L 0.000 1.579 L 0.000 1.475 L 0.200 1.475 L 0.200 1.282 L 0.000 1.282 L 0.000 1.179 L 0.000 1.075 L 0.200 1.075 L 0.200 0.882 L 0.000 0.882 L 0.000 0.778 L 0.000 0.675 L 0.200 0.675 L 0.200 0.482 L 0.000 0.482 L 0.000 0.379 L 0.000 0.000 L 3.257 0.000 L 3.257 0.379 L 3.257 0.482 L 3.057 0.482 L 3.057 0.675 L 3.257 0.675 L 3.257 0.778 L 3.257 0.882 L 3.057 0.882 L 3.057 1.075 L 3.257 1.075 L 3.257 1.179 L 3.257 1.282 L 3.057 1.282 L 3.057 1.475 L 3.257 1.475 L 3.257 1.579 L 3.257 1.682 L 3.057 1.682 L 3.057 1.875 L 3.257 1.875 L 3.257 1.979 L 3.257 2.082 L 3.057 2.082 L 3.057 2.275 L 3.257 2.275 L 3.257 2.378 L 3.257 2.482 L 3.057 2.482 L 3.057 2.675 L 3.257 2.675 L 3.257 2.778 L 3.257 2.882 L 3.057 2.882 L 3.057 3.075" style="fill:none;stroke:black;stroke-width:0.012" />
</g>
<g transform="translate(9.264 0.100)">
<path id="bottom" d="M 4.650 3.057 L 4.457 3.057 L 4.457 3.257 L 4.353 3.257 L 4.250 3.257 L 4.250 3.057 L 4.057 3.057 L 4.057 3.257 L 3.954 3.257 L 3.850 3.257 L 3.850 3.057 L 3.657 3.057 L 3.657 3.257 L 3.553 3.257 L 3.450 3.257 L 3.450 3.057 L 3.257 3.057 L 3.257 3.257 L 3.153 3.257 L 3.050 3.257 L 3.050 3.057 L 2.857 3.057 L 2.857 3.257 L 2.753 3.257 L 2.650 3.257 L 2.650 3.057 L 2.457 3.057 L 2.457 3.257 L 2.353 3.257 L 2.250 3.257 L 2.250 3.057 L 2.057 3.057 L 2.057 3.257 L 1.954 3.257 L 1.850 3.257 L 1.850 3.057 L 1.657 3.057 L 1.657 3.257 L 1.554 3.257 L 1.450 3.257 L 1.450 3.057 L 1.257 3.057 L 1.257 3.257 L 1.153 3.257 L 1.050 3.257 L 1.050 3.057 L 0.857 3.057 L 0.857 3.257 L 0.753 3.257 L 0.650 3.257 L 0.650 3.057 L 0.457 3.057 L 0.457 3.257 L 0.353 3.257 L 0.000 3.257 L 0.000 3.028 L 0.000 2.925 L 0.200 2.925 L 0.200 2.732 L 0.000 2.732 L 0.000 2.628 L 0.000 2.525 L 0.200 2.525 L 0.200 2.332 L 0.000 2.332 L 0.000 2.228 L 0.000 2.125 L 0.200 2.125 L 0.200 1.932 L 0.000 1.932 L 0.000 1.829 L 0.000 1.725 L 0.200 1.725 L 0.200 1.532 L 0.000 1.532 L 0.000 1.429 L 0.000 1.325 L 0.200 1.325 L 0.200 1.132 L 0.000 1.132 L 0.000 1.028 L 0.000 0.925 L 0.200 0.925 L 0.200 0.732 L 0.000 0.732 L 0.000 0.628 L 0.000 0.525 L 0.200 0.525 L 0.200 0.332 L 0.000 0.332 L 0.000 0.229 L 0.000 0.000 L 0.353 0.000 L 0.457 0.000 L 0.457 0.200 L 0.650 0.200 L 0.650 0.000 L 0.753 0.000 L 0.857 0.000 L 0.857 0.200 L 1.050 0.200 L 1.050 0.000 L 1.153 0.000 L 1.257 0.000 L 1.257 0.200 L 1.450 0.200 L 1.450 0.000 L 1.554 0.000 L 1.657 0.000 L 1.657 0.200 L 1.850 0.200 L 1.850 0.000 L 1.954 0.000 L 2.057 0.000 L 2.057 0.200 L 2.250 0.200 L 2.250 0.000 L 2.353 0.000 L 2.457 0.000 L 2.457 0.200 L 2.650 0.200 L 2.650 0.000 L 2.753 0.000 L 2.857 0.000 L 2.857 0.200 L 3.050 0.200 L 3.050 0.000 L 3.153 0.000 L 3.257 0.000 L 3.257 0.200 L 3.450 0.200 L 3.450 0.000 L 3.553 0.000 L 3.657 0.000 L 3.657 0.200 L 3.850 0.200 L 3.850 0.000 L 3.954 0.000 L 4.057 0.000 L 4.057 0.200 L 4.250 0.200 L 4.250 0.000 L 4.353 0.000 L 4.457 0.000 L 4.457 0.200 L 4.650 0.200 L 4.650 0.000 L 4.753 0.000 L 4.857 0.000 L 4.857 0.200 L 5.050 0.200 L 5.050 0.000 L 5.154 0.000 L 5.507 0.000 L 5.507 0.229 L 5.507 0.332 L 5.307 0.332 L 5.307 0.525 L 5.507 0.525 L 5.507 0.628 L 5.507 0.732 L 5.307 0.732 L 5.307 0.925 L 5.507 0.925 L 5.507 1.028 L 5.507 1.132 L 5.307 1.132 L 5.307 1.325 L 5.507 1.325 L 5.507 1.429 L 5.507 1.532 L 5.307 1.532 L 5.307 1.725 L 5.507 1.725 L 5.507 1.829 L 5.507 1.932 L 5.307 1.932 L 5.307 2.125 L 5.507 2.125 L 5.507 2.228 L 5.507 2.332 L 5.307 2.332 L 5.307 2.525 L 5.507 2.525 L 5.507 2.628 L 5.507 2.732 L 5.307 2.732 L 5.307 2.925 L 5.507 2.925 L 5.507 3.028 L 5.507 3.257 L 5.154 3.257 L 5.050 3.257 L 5.050 3.057 L 4.857 3.057 L 4.857 3.257 L 4.753 3.257 L 4.650 3.257 L 4.650 3.057" style="fill:none;stroke:black;stroke-width:0.012" />
</g>
<g transform="translate(9.264 3.557)">
<path id="lid_underside" d="M 0.000 0.000 L 0.000 2.837 L 5.087 2.837 L 5.087 0.000 L 0.000 0.000 M 2.742 1.513 L 2.345 1.513 L 2.345 1.320 L 2.738 1.320 L 2.738 1.517" style="fill:none;stroke:black;stroke-width:0.012" />
</g>
<g transform="translate(9.264 6.594)">
<path id="lid_top" d="M 0.000 0.000 L 0.000 3.257 L 5.507 3.257 L 5.507 0.000 L 0.000 0.000 M 2.952 1.723 L 2.555 1.723 L 2.555 1.530 L 2.948 1.530 L 2.948 1.727" style="fill:none;stroke:black;stroke-width:0.012" />
</g>
<g transform="translate(0.100 8.014)">
<path id="lid_handle" d="M 1.210 1.225 L 1.210 1.625 L 0.803 1.625 L 0.803 1.225 L 0.373 1.225 C 0.373 1.157 0.336 1.037 0.295 0.997 C 0.231 0.938 0.192 0.960 0.176 0.913 C 0.136 0.902 0.097 0.915 0.060 0.942 C 0.005 0.900 -0.012 0.850 0.008 0.791 L 0.036 0.767 L 0.211 0.739 L 0.293 0.774 L 0.327 0.696 L 0.257 0.647 L 0.154 0.559 L 0.182 0.468 C 0.138 0.489 0.111 0.260 0.141 0.267 C 0.179 0.277 0.407 0.575 0.407 0.575 L 0.450 0.497 L 0.566 0.315 L 0.613 0.331 L 0.635 0.356 L 0.645 0.539 L 0.718 0.573 L 0.729 0.531 C 0.725 0.112 0.787 0.242 0.813 0.311 L 0.900 0.497 L 0.927 0.333 L 0.688 0.074 L 0.822 0.105 C 0.822 0.105 0.941 -0.004 0.992 0.000 C 1.043 0.004 1.117 0.118 1.117 0.118 L 1.291 0.082 L 1.138 0.250 L 1.123 0.297 L 1.153 0.545 L 1.209 0.466 C 1.209 0.466 1.234 0.259 1.257 0.230 C 1.331 0.138 1.346 0.341 1.320 0.370 L 1.309 0.450 L 1.339 0.497 L 1.322 0.598 L 1.383 0.647 C 1.383 0.647 1.382 0.290 1.404 0.243 C 1.426 0.196 1.511 0.362 1.511 0.362 L 1.532 0.390 L 1.567 0.647 C 1.567 0.647 1.912 0.381 1.959 0.374 C 2.006 0.367 1.848 0.601 1.848 0.601 L 1.674 0.741 L 1.694 0.815 L 1.828 0.767 L 1.879 0.765 C 1.879 0.765 2.153 0.536 2.174 0.565 C 2.196 0.594 2.058 0.990 2.058 0.990 L 1.869 0.950 L 1.663 1.044 L 1.658 1.225 L 1.210 1.225" style="fill:none;stroke:black;stroke-width:0.012" />
</g>
</svg>
