<?xml version="1.0"?>
	<!-- Generated by github.com/dustismo/heavyfishdesign -->
	<svg width="11.000in" height="12.000in" viewBox="0.000 0.000 11.000 12.000"
    	xmlns="http://www.w3.org/2000/svg"
		xmlns:xlink="http://www.w3.org/1999/xlink">
	<g transform="translate(0.100 0.100)">
<path id="house_side_left" d="M 3.290 2.521 L 3.127 2.331 L 3.200 2.268 L 3.507 2.005 L 3.507 1.379 L 3.507 1.275 L 3.257 1.275 L 3.257 0.982 L 3.507 0.982 L 3.507 0.878 L 3.507 0.775 L 3.257 0.775 L 3.257 0.482 L 3.507 0.482 L 3.507 0.379 L 3.507 0.250 L 3.003 0.250 L 2.907 0.250 L 2.907 0.000 L 2.600 0.000 L 2.600 0.250 L 2.503 0.250 L 2.407 0.250 L 2.407 0.000 L 2.100 0.000 L 2.100 0.250 L 2.003 0.250 L 1.907 0.250 L 1.907 0.000 L 1.600 0.000 L 1.600 0.250 L 1.504 0.250 L 1.407 0.250 L 1.407 0.000 L 1.100 0.000 L 1.100 0.250 L 1.004 0.250 L 0.907 0.250 L 0.907 0.000 L 0.600 0.000 L 0.600 0.250 L 0.503 0.250 L 0.000 0.250 L 0.000 0.379 L 0.000 0.482 L 0.250 0.482 L 0.250 0.775 L 0.000 0.775 L 0.000 0.878 L 0.000 0.982 L 0.250 0.982 L 0.250 1.275 L 0.000 1.275 L 0.000 1.379 L 0.000 2.005 L 0.307 2.268 L 0.380 2.331 L 0.217 2.521 L 0.450 2.720 L 0.613 2.531 L 0.686 2.593 L 0.760 2.656 L 0.597 2.846 L 0.830 3.046 L 0.993 2.856 L 1.066 2.919 L 1.139 2.982 L 0.977 3.171 L 1.210 3.371 L 1.372 3.181 L 1.446 3.244 L 1.753 3.508 L 2.061 3.244 L 2.135 3.181 L 2.297 3.371 L 2.530 3.171 L 2.368 2.982 L 2.441 2.919 L 2.514 2.856 L 2.677 3.046 L 2.910 2.846 L 2.747 2.656 L 2.821 2.593 L 2.894 2.531 L 3.057 2.720 L 3.290 2.521 M 1.253 0.378 L 1.678 0.378 L 1.678 0.928 L 1.254 0.928 L 1.254 0.378 M 1.829 0.378 L 2.253 0.378 L 2.253 0.928 L 1.829 0.928 L 1.829 0.378 M 1.253 1.079 L 1.678 1.079 L 1.678 1.629 L 1.254 1.629 L 1.254 1.079 M 1.829 1.079 L 2.253 1.079 L 2.253 1.629 L 1.829 1.629 L 1.829 1.079" style="fill:none;stroke:black;stroke-width:0.012" />
</g>
<g transform="translate(3.807 0.100)">
<path id="house_side_right" d="M 3.290 2.521 L 3.127 2.331 L 3.200 2.268 L 3.507 2.005 L 3.507 1.379 L 3.507 1.275 L 3.257 1.275 L 3.257 0.982 L 3.507 0.982 L 3.507 0.878 L 3.507 0.775 L 3.257 0.775 L 3.257 0.482 L 3.507 0.482 L 3.507 0.379 L 3.507 0.250 L 3.003 0.250 L 2.907 0.250 L 2.907 0.000 L 2.600 0.000 L 2.600 0.250 L 2.503 0.250 L 2.407 0.250 L 2.407 0.000 L 2.100 0.000 L 2.100 0.250 L 2.003 0.250 L 1.907 0.250 L 1.907 0.000 L 1.600 0.000 L 1.600 0.250 L 1.504 0.250 L 1.407 0.250 L 1.407 0.000 L 1.100 0.000 L 1.100 0.250 L 1.004 0.250 L 0.907 0.250 L 0.907 0.000 L 0.600 0.000 L 0.600 0.250 L 0.503 0.250 L 0.000 0.250 L 0.000 0.379 L 0.000 0.482 L 0.250 0.482 L 0.250 0.775 L 0.000 0.775 L 0.000 0.878 L 0.000 0.982 L 0.250 0.982 L 0.250 1.275 L 0.000 1.275 L 0.000 1.379 L 0.000 2.005 L 0.307 2.268 L 0.380 2.331 L 0.217 2.521 L 0.450 2.720 L 0.613 2.531 L 0.686 2.593 L 0.760 2.656 L 0.597 2.846 L 0.830 3.046 L 0.993 2.856 L 1.066 2.919 L 1.139 2.982 L 0.977 3.171 L 1.210 3.371 L 1.372 3.181 L 1.446 3.244 L 1.753 3.508 L 2.061 3.244 L 2.135 3.181 L 2.297 3.371 L 2.530 3.171 L 2.368 2.982 L 2.441 2.919 L 2.514 2.856 L 2.677 3.046 L 2.910 2.846 L 2.747 2.656 L 2.821 2.593 L 2.894 2.531 L 3.057 2.720 L 3.290 2.521 M 1.253 0.378 L 1.678 0.378 L 1.678 0.928 L 1.254 0.928 L 1.254 0.378 M 1.829 0.378 L 2.253 0.378 L 2.253 0.928 L 1.829 0.928 L 1.829 0.378 M 1.253 1.079 L 1.678 1.079 L 1.678 1.629 L 1.254 1.629 L 1.254 1.079 M 1.829 1.079 L 2.253 1.079 L 2.253 1.629 L 1.829 1.629 L 1.829 1.079" style="fill:none;stroke:black;stroke-width:0.012" />
</g>
<g transform="translate(0.100 3.808)">
<path id="roof_left" d="M 0.000 0.000 L 0.000 2.712 L 5.007 2.712 L 5.007 0.000 L 0.000 0.000 M 0.750 0.506 L 0.750 0.802 L 0.507 0.802 L 0.507 0.509 L 0.753 0.509 M 0.750 1.009 L 0.750 1.302 L 0.507 1.302 L 0.507 1.009 L 0.750 1.009 M 0.750 1.509 L 0.750 1.802 L 0.507 1.802 L 0.507 1.509 L 0.750 1.509 M 4.500 0.506 L 4.500 0.802 L 4.257 0.802 L 4.257 0.509 L 4.503 0.509 M 4.500 1.009 L 4.500 1.302 L 4.257 1.302 L 4.257 1.009 L 4.500 1.009 M 4.500 1.509 L 4.500 1.802 L 4.257 1.802 L 4.257 1.509 L 4.500 1.509" style="fill:none;stroke:black;stroke-width:0.012" />
</g>
<g transform="translate(0.100 6.720)">
<path id="roof_right" d="M 0.000 0.000 L 0.000 2.712 L 5.007 2.712 L 5.007 0.000 L 0.000 0.000 M 0.750 0.506 L 0.750 0.802 L 0.507 0.802 L 0.507 0.509 L 0.753 0.509 M 0.750 1.009 L 0.750 1.302 L 0.507 1.302 L 0.507 1.009 L 0.750 1.009 M 0.750 1.509 L 0.750 1.802 L 0.507 1.802 L 0.507 1.509 L 0.750 1.509 M 4.500 0.506 L 4.500 0.802 L 4.257 0.802 L 4.257 0.509 L 4.503 0.509 M 4.500 1.009 L 4.500 1.302 L 4.257 1.302 L 4.257 1.009 L 4.500 1.009 M 4.500 1.509 L 4.500 1.802 L 4.257 1.802 L 4.257 1.509 L 4.500 1.509" style="fill:none;stroke:black;stroke-width:0.012" />
</g>
<g transform="translate(0.100 9.632)">
<path id="front_wall" d="M 3.407 0.250 L 3.503 0.250 L 3.757 0.250 L 3.757 0.379 L 3.757 0.475 L 4.007 0.475 L 4.007 0.782 L 3.757 0.782 L 3.757 0.878 L 3.757 0.975 L 4.007 0.975 L 4.007 1.282 L 3.757 1.282 L 3.757 1.379 L 3.757 2.007 L 0.250 2.007 L 0.250 1.379 L 0.250 1.282 L 0.000 1.282 L 0.000 0.975 L 0.250 0.975 L 0.250 0.878 L 0.250 0.782 L 0.000 0.782 L 0.000 0.475 L 0.250 0.475 L 0.250 0.379 L 0.250 0.250 L 0.503 0.250 L 0.600 0.250 L 0.600 0.000 L 0.907 0.000 L 0.907 0.250 L 1.004 0.250 L 1.100 0.250 L 1.100 0.000 L 1.407 0.000 L 1.407 0.250 L 1.504 0.250 L 1.600 0.250 L 1.600 0.000 L 1.907 0.000 L 1.907 0.250 L 2.003 0.250 L 2.100 0.250 L 2.100 0.000 L 2.407 0.000 L 2.407 0.250 L 2.503 0.250 L 2.600 0.250 L 2.600 0.000 L 2.907 0.000 L 2.907 0.250 L 3.003 0.250 L 3.100 0.250 L 3.100 0.000 L 3.407 0.000 L 3.407 0.250" style="fill:none;stroke:black;stroke-width:0.012" />
</g>
<g transform="translate(5.307 3.808)">
<path id="back_wall" d="M 3.407 0.250 L 3.503 0.250 L 3.757 0.250 L 3.757 0.379 L 3.757 0.475 L 4.007 0.475 L 4.007 0.782 L 3.757 0.782 L 3.757 0.878 L 3.757 0.975 L 4.007 0.975 L 4.007 1.282 L 3.757 1.282 L 3.757 1.379 L 3.757 2.007 L 0.250 2.007 L 0.250 1.379 L 0.250 1.282 L 0.000 1.282 L 0.000 0.975 L 0.250 0.975 L 0.250 0.878 L 0.250 0.782 L 0.000 0.782 L 0.000 0.475 L 0.250 0.475 L 0.250 0.379 L 0.250 0.250 L 0.503 0.250 L 0.600 0.250 L 0.600 0.000 L 0.907 0.000 L 0.907 0.250 L 1.004 0.250 L 1.100 0.250 L 1.100 0.000 L 1.407 0.000 L 1.407 0.250 L 1.504 0.250 L 1.600 0.250 L 1.600 0.000 L 1.907 0.000 L 1.907 0.250 L 2.003 0.250 L 2.100 0.250 L 2.100 0.000 L 2.407 0.000 L 2.407 0.250 L 2.503 0.250 L 2.600 0.250 L 2.600 0.000 L 2.907 0.000 L 2.907 0.250 L 3.003 0.250 L 3.100 0.250 L 3.100 0.000 L 3.407 0.000 L 3.407 0.250" style="fill:none;stroke:black;stroke-width:0.012" />
</g>
<g transform="translate(5.307 6.015)">
<path id="floor" d="M 0.607 0.250 L 0.607 0.000 L 0.503 0.000 L 0.000 0.000 L 0.000 0.503 L 0.000 0.607 L 0.250 0.607 L 0.250 0.900 L 0.000 0.900 L 0.000 1.004 L 0.000 1.107 L 0.250 1.107 L 0.250 1.400 L 0.000 1.400 L 0.000 1.504 L 0.000 1.607 L 0.250 1.607 L 0.250 1.900 L 0.000 1.900 L 0.000 2.003 L 0.000 2.107 L 0.250 2.107 L 0.250 2.400 L 0.000 2.400 L 0.000 2.503 L 0.000 2.607 L 0.250 2.607 L 0.250 2.900 L 0.000 2.900 L 0.000 3.003 L 0.000 3.507 L 0.503 3.507 L 0.607 3.507 L 0.607 3.257 L 0.900 3.257 L 0.900 3.507 L 1.004 3.507 L 1.107 3.507 L 1.107 3.257 L 1.400 3.257 L 1.400 3.507 L 1.504 3.507 L 1.607 3.507 L 1.607 3.257 L 1.900 3.257 L 1.900 3.507 L 2.003 3.507 L 2.107 3.507 L 2.107 3.257 L 2.400 3.257 L 2.400 3.507 L 2.503 3.507 L 2.607 3.507 L 2.607 3.257 L 2.900 3.257 L 2.900 3.507 L 3.003 3.507 L 3.107 3.507 L 3.107 3.257 L 3.400 3.257 L 3.400 3.507 L 3.503 3.507 L 4.007 3.507 L 4.007 3.003 L 4.007 2.900 L 3.757 2.900 L 3.757 2.607 L 4.007 2.607 L 4.007 2.503 L 4.007 2.400 L 3.757 2.400 L 3.757 2.107 L 4.007 2.107 L 4.007 2.003 L 4.007 1.900 L 3.757 1.900 L 3.757 1.607 L 4.007 1.607 L 4.007 1.504 L 4.007 1.400 L 3.757 1.400 L 3.757 1.107 L 4.007 1.107 L 4.007 1.004 L 4.007 0.900 L 3.757 0.900 L 3.757 0.607 L 4.007 0.607 L 4.007 0.503 L 4.007 0.000 L 3.503 0.000 L 3.400 0.000 L 3.400 0.250 L 3.107 0.250 L 3.107 0.000 L 3.003 0.000 L 2.900 0.000 L 2.900 0.250 L 2.607 0.250 L 2.607 0.000 L 2.503 0.000 L 2.400 0.000 L 2.400 0.250 L 2.107 0.250 L 2.107 0.000 L 2.003 0.000 L 1.900 0.000 L 1.900 0.250 L 1.607 0.250 L 1.607 0.000 L 1.504 0.000 L 1.400 0.000 L 1.400 0.250 L 1.107 0.250 L 1.107 0.000 L 1.004 0.000 L 0.900 0.000 L 0.900 0.250 L 0.607 0.250" style="fill:none;stroke:black;stroke-width:0.012" />
</g>
</svg>
