<?xml version="1.0"?>
	<!-- Generated by github.com/dustismo/heavyfishdesign -->
	<svg width="20.000in" height="12.000in" viewBox="0.000 0.000 20.000 12.000"
    	xmlns="http://www.w3.org/2000/svg"
		xmlns:xlink="http://www.w3.org/1999/xlink">
	<g transform="translate(0.100 0.100)">
<path id="5cdd95db978c2956" d="M 0.371 0.000 C 0.389 0.000 0.404 0.009 0.412 0.023 C 0.416 0.030 0.418 0.038 0.418 0.046 C 0.418 0.064 0.409 0.079 0.395 0.087 C 0.388 0.091 0.380 0.093 0.371 0.093 C 0.354 0.093 0.339 0.084 0.331 0.070 C 0.327 0.063 0.325 0.055 0.325 0.046 C 0.325 0.029 0.334 0.014 0.348 0.006 C 0.355 0.002 0.363 0.000 0.371 0.000 M 0.371 1.175 C 0.509 1.175 0.629 1.250 0.693 1.361 C 0.725 1.415 0.743 1.479 0.743 1.546 C 0.743 1.684 0.668 1.804 0.557 1.868 C 0.503 1.900 0.439 1.918 0.371 1.918 C 0.234 1.918 0.114 1.843 0.050 1.732 C 0.018 1.678 0.000 1.614 0.000 1.546 C 0.000 1.409 0.075 1.289 0.186 1.225 C 0.240 1.193 0.304 1.175 0.371 1.175 M 0.371 3.000 C 0.389 3.000 0.404 3.009 0.412 3.023 C 0.416 3.030 0.418 3.038 0.418 3.046 C 0.418 3.064 0.409 3.079 0.395 3.087 C 0.388 3.091 0.380 3.093 0.371 3.093 C 0.354 3.093 0.339 3.084 0.331 3.070 C 0.327 3.063 0.325 3.055 0.325 3.046 C 0.325 3.029 0.334 3.014 0.348 3.006 C 0.355 3.002 0.363 3.000 0.371 3.000" style="fill:none;stroke:black;stroke-width:0.012" />
</g>
</svg>
