<?xml version="1.0"?>
	<!-- Generated by github.com/dustismo/heavyfishdesign -->
	<svg width="20.000in" height="12.000in" viewBox="0.000 0.000 20.000 12.000"
    	xmlns="http://www.w3.org/2000/svg"
		xmlns:xlink="http://www.w3.org/1999/xlink">
	<g transform="rotate(90 14.107 0.100) translate(14.107 0.100)">
<path id="bottom" d="M 3.057 13.757 L 3.550 13.757 L 3.550 14.007 L 3.704 14.007 L 3.857 14.007 L 3.857 13.757 L 4.350 13.757 L 4.350 14.007 L 4.503 14.007 L 5.007 14.007 L 5.007 13.404 L 5.007 13.250 L 4.757 13.250 L 4.757 12.757 L 5.007 12.757 L 5.007 12.604 L 5.007 12.450 L 4.757 12.450 L 4.757 11.957 L 5.007 11.957 L 5.007 11.804 L 5.007 11.650 L 4.757 11.650 L 4.757 11.157 L 5.007 11.157 L 5.007 11.004 L 5.007 10.850 L 4.757 10.850 L 4.757 10.357 L 5.007 10.357 L 5.007 10.204 L 5.007 10.050 L 4.757 10.050 L 4.757 9.557 L 5.007 9.557 L 5.007 9.404 L 5.007 9.250 L 4.757 9.250 L 4.757 8.757 L 5.007 8.757 L 5.007 8.604 L 5.007 8.450 L 4.757 8.450 L 4.757 7.957 L 5.007 7.957 L 5.007 7.803 L 5.007 7.650 L 4.757 7.650 L 4.757 7.157 L 5.007 7.157 L 5.007 7.003 L 5.007 6.850 L 4.757 6.850 L 4.757 6.357 L 5.007 6.357 L 5.007 6.204 L 5.007 6.050 L 4.757 6.050 L 4.757 5.557 L 5.007 5.557 L 5.007 5.404 L 5.007 5.250 L 4.757 5.250 L 4.757 4.757 L 5.007 4.757 L 5.007 4.603 L 5.007 4.450 L 4.757 4.450 L 4.757 3.957 L 5.007 3.957 L 5.007 3.803 L 5.007 3.650 L 4.757 3.650 L 4.757 3.157 L 5.007 3.157 L 5.007 3.003 L 5.007 2.850 L 4.757 2.850 L 4.757 2.357 L 5.007 2.357 L 5.007 2.204 L 5.007 2.050 L 4.757 2.050 L 4.757 1.557 L 5.007 1.557 L 5.007 1.403 L 5.007 1.250 L 4.757 1.250 L 4.757 0.757 L 5.007 0.757 L 5.007 0.603 L 5.007 0.000 L 4.503 0.000 L 4.350 0.000 L 4.350 0.250 L 3.857 0.250 L 3.857 0.000 L 3.704 0.000 L 3.550 0.000 L 3.550 0.250 L 3.057 0.250 L 3.057 0.000 L 2.903 0.000 L 2.750 0.000 L 2.750 0.250 L 2.257 0.250 L 2.257 0.000 L 2.103 0.000 L 1.950 0.000 L 1.950 0.250 L 1.457 0.250 L 1.457 0.000 L 1.304 0.000 L 1.150 0.000 L 1.150 0.250 L 0.657 0.250 L 0.657 0.000 L 0.503 0.000 L 0.000 0.000 L 0.000 0.603 L 0.000 0.757 L 0.250 0.757 L 0.250 1.250 L 0.000 1.250 L 0.000 1.403 L 0.000 1.557 L 0.250 1.557 L 0.250 2.050 L 0.000 2.050 L 0.000 2.204 L 0.000 2.357 L 0.250 2.357 L 0.250 2.850 L 0.000 2.850 L 0.000 3.003 L 0.000 3.157 L 0.250 3.157 L 0.250 3.650 L 0.000 3.650 L 0.000 3.803 L 0.000 3.957 L 0.250 3.957 L 0.250 4.450 L 0.000 4.450 L 0.000 4.603 L 0.000 4.757 L 0.250 4.757 L 0.250 5.250 L 0.000 5.250 L 0.000 5.404 L 0.000 5.557 L 0.250 5.557 L 0.250 6.050 L 0.000 6.050 L 0.000 6.204 L 0.000 6.357 L 0.250 6.357 L 0.250 6.850 L 0.000 6.850 L 0.000 7.003 L 0.000 7.157 L 0.250 7.157 L 0.250 7.650 L 0.000 7.650 L 0.000 7.803 L 0.000 7.957 L 0.250 7.957 L 0.250 8.450 L 0.000 8.450 L 0.000 8.604 L 0.000 8.757 L 0.250 8.757 L 0.250 9.250 L 0.000 9.250 L 0.000 9.404 L 0.000 9.557 L 0.250 9.557 L 0.250 10.050 L 0.000 10.050 L 0.000 10.204 L 0.000 10.357 L 0.250 10.357 L 0.250 10.850 L 0.000 10.850 L 0.000 11.004 L 0.000 11.157 L 0.250 11.157 L 0.250 11.650 L 0.000 11.650 L 0.000 11.804 L 0.000 11.957 L 0.250 11.957 L 0.250 12.450 L 0.000 12.450 L 0.000 12.604 L 0.000 12.757 L 0.250 12.757 L 0.250 13.250 L 0.000 13.250 L 0.000 13.404 L 0.000 14.007 L 0.503 14.007 L 0.657 14.007 L 0.657 13.757 L 1.150 13.757 L 1.150 14.007 L 1.304 14.007 L 1.457 14.007 L 1.457 13.757 L 1.950 13.757 L 1.950 14.007 L 2.103 14.007 L 2.257 14.007 L 2.257 13.757 L 2.750 13.757 L 2.750 14.007 L 2.903 14.007 L 3.057 14.007 L 3.057 13.757" style="fill:none;stroke:black;stroke-width:0.012" />
</g>
</svg>
