<?xml version="1.0"?>
	<!-- Generated by github.com/dustismo/heavyfishdesign -->
	<svg width="18.000in" height="11.000in" viewBox="0.000 0.000 18.000 11.000"
    	xmlns="http://www.w3.org/2000/svg"
		xmlns:xlink="http://www.w3.org/1999/xlink">
	<g transform="translate(0.100 0.100)">
<path id="side_flat_top" d="M 0.000 6.003 L 0.000 5.978 L 0.000 5.875 L 0.250 5.875 L 0.250 5.682 L 0.000 5.682 L 0.000 5.579 L 0.000 5.475 L 0.250 5.475 L 0.250 5.282 L 0.000 5.282 L 0.000 5.178 L 0.000 5.075 L 0.250 5.075 L 0.250 4.882 L 0.000 4.882 L 0.000 4.779 L 0.000 4.675 L 0.250 4.675 L 0.250 4.482 L 0.000 4.482 L 0.000 4.378 L 0.000 4.275 L 0.250 4.275 L 0.250 4.082 L 0.000 4.082 L 0.000 3.978 L 0.000 3.875 L 0.250 3.875 L 0.250 3.682 L 0.000 3.682 L 0.000 3.579 L 0.000 3.475 L 0.250 3.475 L 0.250 3.282 L 0.000 3.282 L 0.000 3.178 L 0.000 3.075 L 0.250 3.075 L 0.250 2.882 L 0.000 2.882 L 0.000 2.778 L 0.000 2.675 L 0.250 2.675 L 0.250 2.482 L 0.000 2.482 L 0.000 2.378 L 0.000 2.275 L 0.250 2.275 L 0.250 2.082 L 0.000 2.082 L 0.000 1.979 L 0.000 1.875 L 0.250 1.875 L 0.250 1.682 L 0.000 1.682 L 0.000 1.579 L 0.000 1.475 L 0.250 1.475 L 0.250 1.282 L 0.000 1.282 L 0.000 1.179 L 0.000 1.075 L 0.250 1.075 L 0.250 0.882 L 0.000 0.882 L 0.000 0.778 L 0.000 0.675 L 0.250 0.675 L 0.250 0.482 L 0.000 0.482 L 0.000 0.379 L 0.000 0.000 L 9.007 0.000 L 9.007 0.379 L 9.007 0.482 L 8.757 0.482 L 8.757 0.675 L 9.007 0.675 L 9.007 0.778 L 9.007 0.882 L 8.757 0.882 L 8.757 1.075 L 9.007 1.075 L 9.007 1.179 L 9.007 1.282 L 8.757 1.282 L 8.757 1.475 L 9.007 1.475 L 9.007 1.579 L 9.007 1.682 L 8.757 1.682 L 8.757 1.875 L 9.007 1.875 L 9.007 1.979 L 9.007 2.082 L 8.757 2.082 L 8.757 2.275 L 9.007 2.275 L 9.007 2.378 L 9.007 2.482 L 8.757 2.482 L 8.757 2.675 L 9.007 2.675 L 9.007 2.778 L 9.007 2.882 L 8.757 2.882 L 8.757 3.075 L 9.007 3.075 L 9.007 3.178 L 9.007 3.282 L 8.757 3.282 L 8.757 3.475 L 9.007 3.475 L 9.007 3.579 L 9.007 3.682 L 8.757 3.682 L 8.757 3.875 L 9.007 3.875 L 9.007 3.978 L 9.007 4.082 L 8.757 4.082 L 8.757 4.275 L 9.007 4.275 L 9.007 4.378 L 9.007 4.482 L 8.757 4.482 L 8.757 4.675 L 9.007 4.675 L 9.007 4.779 L 9.007 4.882 L 8.757 4.882 L 8.757 5.075 L 9.007 5.075 L 9.007 5.178 L 9.007 5.282 L 8.757 5.282 L 8.757 5.475 L 9.007 5.475 L 9.007 5.579 L 9.007 5.682 L 8.757 5.682 L 8.757 5.875 L 9.007 5.875 L 9.007 5.978 L 9.007 6.003 M 4.253 0.478 L 4.253 0.678 L 4.003 0.678 L 4.003 0.478 L 4.253 0.478 M 4.253 0.878 L 4.253 1.078 L 4.003 1.078 L 4.003 0.878 L 4.253 0.878 M 4.253 1.278 L 4.253 1.478 L 4.003 1.478 L 4.003 1.278 L 4.253 1.278 M 4.253 1.678 L 4.253 1.878 L 4.003 1.878 L 4.003 1.678 L 4.253 1.678 M 4.253 2.078 L 4.253 2.278 L 4.003 2.278 L 4.003 2.078 L 4.253 2.078 M 4.253 2.478 L 4.253 2.678 L 4.003 2.678 L 4.003 2.478 L 4.253 2.478 M 4.253 2.878 L 4.253 3.078 L 4.003 3.078 L 4.003 2.878 L 4.253 2.878 M 4.253 3.278 L 4.253 3.478 L 4.003 3.478 L 4.003 3.278 L 4.253 3.278 M 4.253 3.678 L 4.253 3.878 L 4.003 3.878 L 4.003 3.678 L 4.253 3.678 M 4.253 4.078 L 4.253 4.278 L 4.003 4.278 L 4.003 4.078 L 4.253 4.078 M 4.253 4.478 L 4.253 4.678 L 4.003 4.678 L 4.003 4.478 L 4.253 4.478 M 4.253 4.878 L 4.253 5.079 L 4.003 5.079 L 4.003 4.878 L 4.253 4.878 M 4.253 5.278 L 4.253 5.478 L 4.003 5.478 L 4.003 5.278 L 4.253 5.278 M 4.253 5.678 L 4.253 5.878 L 4.003 5.878 L 4.003 5.678 L 4.253 5.678 M 8.254 0.478 L 8.254 0.678 L 8.004 0.678 L 8.004 0.478 L 8.254 0.478 M 8.254 0.878 L 8.254 1.078 L 8.004 1.078 L 8.004 0.878 L 8.254 0.878 M 8.254 1.278 L 8.254 1.478 L 8.004 1.478 L 8.004 1.278 L 8.254 1.278 M 8.254 1.678 L 8.254 1.878 L 8.004 1.878 L 8.004 1.678 L 8.254 1.678 M 8.254 2.078 L 8.254 2.278 L 8.004 2.278 L 8.004 2.078 L 8.254 2.078 M 8.254 2.478 L 8.254 2.678 L 8.004 2.678 L 8.004 2.478 L 8.254 2.478 M 8.254 2.878 L 8.254 3.078 L 8.004 3.078 L 8.004 2.878 L 8.254 2.878 M 8.254 3.278 L 8.254 3.478 L 8.004 3.478 L 8.004 3.278 L 8.254 3.278 M 8.254 3.678 L 8.254 3.878 L 8.004 3.878 L 8.004 3.678 L 8.254 3.678 M 8.254 4.078 L 8.254 4.278 L 8.004 4.278 L 8.004 4.078 L 8.254 4.078 M 8.254 4.478 L 8.254 4.678 L 8.004 4.678 L 8.004 4.478 L 8.254 4.478 M 8.254 4.878 L 8.254 5.079 L 8.004 5.079 L 8.004 4.878 L 8.254 4.878 M 8.254 5.278 L 8.254 5.478 L 8.004 5.478 L 8.004 5.278 L 8.254 5.278 M 8.254 5.678 L 8.254 5.878 L 8.004 5.878 L 8.004 5.678 L 8.254 5.678 M 8.254 6.079 M 9.007 6.000 M 9.007 6.000 M 9.007 6.000 L 0.000 6.000" style="fill:none;stroke:black;stroke-width:0.012" />
</g>
<g transform="translate(0.100 6.303)">
<path id="side_flat_top" d="M 9.007 0.278 L 9.007 0.382 L 9.007 0.760 L 8.704 0.760 L 8.607 0.760 L 8.607 1.010 L 8.400 1.010 L 8.400 0.760 L 8.304 0.760 L 8.207 0.760 L 8.207 1.010 L 8.000 1.010 L 8.000 0.760 L 7.904 0.760 L 7.807 0.760 L 7.807 1.010 L 7.600 1.010 L 7.600 0.760 L 7.503 0.760 L 7.407 0.760 L 7.407 1.010 L 7.200 1.010 L 7.200 0.760 L 7.103 0.760 L 7.007 0.760 L 7.007 1.010 L 6.800 1.010 L 6.800 0.760 L 6.704 0.760 L 6.607 0.760 L 6.607 1.010 L 6.400 1.010 L 6.400 0.760 L 6.303 0.760 L 6.207 0.760 L 6.207 1.010 L 6.000 1.010 L 6.000 0.760 L 5.904 0.760 L 5.807 0.760 L 5.807 1.010 L 5.600 1.010 L 5.600 0.760 L 5.503 0.760 L 5.407 0.760 L 5.407 1.010 L 5.200 1.010 L 5.200 0.760 L 5.103 0.760 L 5.007 0.760 L 5.007 1.010 L 4.800 1.010 L 4.800 0.760 L 4.704 0.760 L 4.607 0.760 L 4.607 1.010 L 4.400 1.010 L 4.400 0.760 L 4.303 0.760 L 4.207 0.760 L 4.207 1.010 L 4.000 1.010 L 4.000 0.760 L 3.903 0.760 L 3.807 0.760 L 3.807 1.010 L 3.600 1.010 L 3.600 0.760 L 3.503 0.760 L 3.407 0.760 L 3.407 1.010 L 3.200 1.010 L 3.200 0.760 L 3.103 0.760 L 3.007 0.760 L 3.007 1.010 L 2.800 1.010 L 2.800 0.760 L 2.704 0.760 L 2.607 0.760 L 2.607 1.010 L 2.400 1.010 L 2.400 0.760 L 2.303 0.760 L 2.207 0.760 L 2.207 1.010 L 2.000 1.010 L 2.000 0.760 L 1.903 0.760 L 1.807 0.760 L 1.807 1.010 L 1.600 1.010 L 1.600 0.760 L 1.504 0.760 L 1.407 0.760 L 1.407 1.010 L 1.200 1.010 L 1.200 0.760 L 1.104 0.760 L 1.007 0.760 L 1.007 1.010 L 0.800 1.010 L 0.800 0.760 L 0.703 0.760 L 0.607 0.760 L 0.607 1.010 L 0.400 1.010 L 0.400 0.760 L 0.303 0.760 L 0.000 0.760 L 0.000 0.382 L 0.000 0.278 L 0.250 0.278 L 0.250 0.085 L 0.000 0.085 L 0.000 0.000 M 9.007 0.000 L 9.007 0.085 L 8.757 0.085 L 8.757 0.278 L 9.007 0.278 M 4.253 0.082 L 4.253 0.282 L 4.003 0.282 L 4.003 0.082 L 4.253 0.082 M 8.254 0.082 L 8.254 0.282 L 8.004 0.282 L 8.004 0.082 L 8.254 0.082 M 8.254 1.007 M 9.007 0.004 M 9.007 0.004 M 9.007 0.004 L 0.000 0.003" style="fill:none;stroke:black;stroke-width:0.012" />
</g>
<g transform="rotate(90 15.311 0.100) translate(15.311 0.100)">
<path id="side_flat_top" d="M 0.000 6.003 L 0.000 5.978 L 0.000 5.875 L 0.250 5.875 L 0.250 5.682 L 0.000 5.682 L 0.000 5.579 L 0.000 5.475 L 0.250 5.475 L 0.250 5.282 L 0.000 5.282 L 0.000 5.178 L 0.000 5.075 L 0.250 5.075 L 0.250 4.882 L 0.000 4.882 L 0.000 4.779 L 0.000 4.675 L 0.250 4.675 L 0.250 4.482 L 0.000 4.482 L 0.000 4.378 L 0.000 4.275 L 0.250 4.275 L 0.250 4.082 L 0.000 4.082 L 0.000 3.978 L 0.000 3.875 L 0.250 3.875 L 0.250 3.682 L 0.000 3.682 L 0.000 3.579 L 0.000 3.475 L 0.250 3.475 L 0.250 3.282 L 0.000 3.282 L 0.000 3.178 L 0.000 3.075 L 0.250 3.075 L 0.250 2.882 L 0.000 2.882 L 0.000 2.778 L 0.000 2.675 L 0.250 2.675 L 0.250 2.482 L 0.000 2.482 L 0.000 2.378 L 0.000 2.275 L 0.250 2.275 L 0.250 2.082 L 0.000 2.082 L 0.000 1.979 L 0.000 1.875 L 0.250 1.875 L 0.250 1.682 L 0.000 1.682 L 0.000 1.579 L 0.000 1.475 L 0.250 1.475 L 0.250 1.282 L 0.000 1.282 L 0.000 1.179 L 0.000 1.075 L 0.250 1.075 L 0.250 0.882 L 0.000 0.882 L 0.000 0.778 L 0.000 0.675 L 0.250 0.675 L 0.250 0.482 L 0.000 0.482 L 0.000 0.379 L 0.000 0.000 L 9.007 0.000 L 9.007 0.379 L 9.007 0.482 L 8.757 0.482 L 8.757 0.675 L 9.007 0.675 L 9.007 0.778 L 9.007 0.882 L 8.757 0.882 L 8.757 1.075 L 9.007 1.075 L 9.007 1.179 L 9.007 1.282 L 8.757 1.282 L 8.757 1.475 L 9.007 1.475 L 9.007 1.579 L 9.007 1.682 L 8.757 1.682 L 8.757 1.875 L 9.007 1.875 L 9.007 1.979 L 9.007 2.082 L 8.757 2.082 L 8.757 2.275 L 9.007 2.275 L 9.007 2.378 L 9.007 2.482 L 8.757 2.482 L 8.757 2.675 L 9.007 2.675 L 9.007 2.778 L 9.007 2.882 L 8.757 2.882 L 8.757 3.075 L 9.007 3.075 L 9.007 3.178 L 9.007 3.282 L 8.757 3.282 L 8.757 3.475 L 9.007 3.475 L 9.007 3.579 L 9.007 3.682 L 8.757 3.682 L 8.757 3.875 L 9.007 3.875 L 9.007 3.978 L 9.007 4.082 L 8.757 4.082 L 8.757 4.275 L 9.007 4.275 L 9.007 4.378 L 9.007 4.482 L 8.757 4.482 L 8.757 4.675 L 9.007 4.675 L 9.007 4.779 L 9.007 4.882 L 8.757 4.882 L 8.757 5.075 L 9.007 5.075 L 9.007 5.178 L 9.007 5.282 L 8.757 5.282 L 8.757 5.475 L 9.007 5.475 L 9.007 5.579 L 9.007 5.682 L 8.757 5.682 L 8.757 5.875 L 9.007 5.875 L 9.007 5.978 L 9.007 6.003 M 4.253 0.478 L 4.253 0.678 L 4.003 0.678 L 4.003 0.478 L 4.253 0.478 M 4.253 0.878 L 4.253 1.078 L 4.003 1.078 L 4.003 0.878 L 4.253 0.878 M 4.253 1.278 L 4.253 1.478 L 4.003 1.478 L 4.003 1.278 L 4.253 1.278 M 4.253 1.678 L 4.253 1.878 L 4.003 1.878 L 4.003 1.678 L 4.253 1.678 M 4.253 2.078 L 4.253 2.278 L 4.003 2.278 L 4.003 2.078 L 4.253 2.078 M 4.253 2.478 L 4.253 2.678 L 4.003 2.678 L 4.003 2.478 L 4.253 2.478 M 4.253 2.878 L 4.253 3.078 L 4.003 3.078 L 4.003 2.878 L 4.253 2.878 M 4.253 3.278 L 4.253 3.478 L 4.003 3.478 L 4.003 3.278 L 4.253 3.278 M 4.253 3.678 L 4.253 3.878 L 4.003 3.878 L 4.003 3.678 L 4.253 3.678 M 4.253 4.078 L 4.253 4.278 L 4.003 4.278 L 4.003 4.078 L 4.253 4.078 M 4.253 4.478 L 4.253 4.678 L 4.003 4.678 L 4.003 4.478 L 4.253 4.478 M 4.253 4.878 L 4.253 5.079 L 4.003 5.079 L 4.003 4.878 L 4.253 4.878 M 4.253 5.278 L 4.253 5.478 L 4.003 5.478 L 4.003 5.278 L 4.253 5.278 M 4.253 5.678 L 4.253 5.878 L 4.003 5.878 L 4.003 5.678 L 4.253 5.678 M 8.254 0.478 L 8.254 0.678 L 8.004 0.678 L 8.004 0.478 L 8.254 0.478 M 8.254 0.878 L 8.254 1.078 L 8.004 1.078 L 8.004 0.878 L 8.254 0.878 M 8.254 1.278 L 8.254 1.478 L 8.004 1.478 L 8.004 1.278 L 8.254 1.278 M 8.254 1.678 L 8.254 1.878 L 8.004 1.878 L 8.004 1.678 L 8.254 1.678 M 8.254 2.078 L 8.254 2.278 L 8.004 2.278 L 8.004 2.078 L 8.254 2.078 M 8.254 2.478 L 8.254 2.678 L 8.004 2.678 L 8.004 2.478 L 8.254 2.478 M 8.254 2.878 L 8.254 3.078 L 8.004 3.078 L 8.004 2.878 L 8.254 2.878 M 8.254 3.278 L 8.254 3.478 L 8.004 3.478 L 8.004 3.278 L 8.254 3.278 M 8.254 3.678 L 8.254 3.878 L 8.004 3.878 L 8.004 3.678 L 8.254 3.678 M 8.254 4.078 L 8.254 4.278 L 8.004 4.278 L 8.004 4.078 L 8.254 4.078 M 8.254 4.478 L 8.254 4.678 L 8.004 4.678 L 8.004 4.478 L 8.254 4.478 M 8.254 4.878 L 8.254 5.079 L 8.004 5.079 L 8.004 4.878 L 8.254 4.878 M 8.254 5.278 L 8.254 5.478 L 8.004 5.478 L 8.004 5.278 L 8.254 5.278 M 8.254 5.678 L 8.254 5.878 L 8.004 5.878 L 8.004 5.678 L 8.254 5.678 M 8.254 6.079 M 9.007 6.000 M 9.007 6.000 M 9.007 6.000 L 0.000 6.000" style="fill:none;stroke:black;stroke-width:0.012" />
</g>
<g transform="translate(0.100 7.514)">
<path id="side_flat_top" d="M 9.007 0.278 L 9.007 0.382 L 9.007 0.760 L 8.704 0.760 L 8.607 0.760 L 8.607 1.010 L 8.400 1.010 L 8.400 0.760 L 8.304 0.760 L 8.207 0.760 L 8.207 1.010 L 8.000 1.010 L 8.000 0.760 L 7.904 0.760 L 7.807 0.760 L 7.807 1.010 L 7.600 1.010 L 7.600 0.760 L 7.503 0.760 L 7.407 0.760 L 7.407 1.010 L 7.200 1.010 L 7.200 0.760 L 7.103 0.760 L 7.007 0.760 L 7.007 1.010 L 6.800 1.010 L 6.800 0.760 L 6.704 0.760 L 6.607 0.760 L 6.607 1.010 L 6.400 1.010 L 6.400 0.760 L 6.303 0.760 L 6.207 0.760 L 6.207 1.010 L 6.000 1.010 L 6.000 0.760 L 5.904 0.760 L 5.807 0.760 L 5.807 1.010 L 5.600 1.010 L 5.600 0.760 L 5.503 0.760 L 5.407 0.760 L 5.407 1.010 L 5.200 1.010 L 5.200 0.760 L 5.103 0.760 L 5.007 0.760 L 5.007 1.010 L 4.800 1.010 L 4.800 0.760 L 4.704 0.760 L 4.607 0.760 L 4.607 1.010 L 4.400 1.010 L 4.400 0.760 L 4.303 0.760 L 4.207 0.760 L 4.207 1.010 L 4.000 1.010 L 4.000 0.760 L 3.903 0.760 L 3.807 0.760 L 3.807 1.010 L 3.600 1.010 L 3.600 0.760 L 3.503 0.760 L 3.407 0.760 L 3.407 1.010 L 3.200 1.010 L 3.200 0.760 L 3.103 0.760 L 3.007 0.760 L 3.007 1.010 L 2.800 1.010 L 2.800 0.760 L 2.704 0.760 L 2.607 0.760 L 2.607 1.010 L 2.400 1.010 L 2.400 0.760 L 2.303 0.760 L 2.207 0.760 L 2.207 1.010 L 2.000 1.010 L 2.000 0.760 L 1.903 0.760 L 1.807 0.760 L 1.807 1.010 L 1.600 1.010 L 1.600 0.760 L 1.504 0.760 L 1.407 0.760 L 1.407 1.010 L 1.200 1.010 L 1.200 0.760 L 1.104 0.760 L 1.007 0.760 L 1.007 1.010 L 0.800 1.010 L 0.800 0.760 L 0.703 0.760 L 0.607 0.760 L 0.607 1.010 L 0.400 1.010 L 0.400 0.760 L 0.303 0.760 L 0.000 0.760 L 0.000 0.382 L 0.000 0.278 L 0.250 0.278 L 0.250 0.085 L 0.000 0.085 L 0.000 0.000 M 9.007 0.000 L 9.007 0.085 L 8.757 0.085 L 8.757 0.278 L 9.007 0.278 M 4.253 0.082 L 4.253 0.282 L 4.003 0.282 L 4.003 0.082 L 4.253 0.082 M 8.254 0.082 L 8.254 0.282 L 8.004 0.282 L 8.004 0.082 L 8.254 0.082 M 8.254 1.007 M 9.007 0.004 M 9.007 0.004 M 9.007 0.004 L 0.000 0.003" style="fill:none;stroke:black;stroke-width:0.012" />
</g>
</svg>
