<?xml version="1.0"?>
	<!-- Generated by github.com/dustismo/heavyfishdesign -->
	<svg width="18.000in" height="11.000in" viewBox="0.000 0.000 18.000 11.000"
    	xmlns="http://www.w3.org/2000/svg"
		xmlns:xlink="http://www.w3.org/1999/xlink">
	<g transform="translate(0.100 0.100)">
<path id="front_flat_top" d="M 0.250 5.482 L 0.250 5.579 L 0.250 5.675 L 0.000 5.675 L 0.000 5.882 L 0.250 5.882 L 0.250 5.978 L 0.250 6.075 L 0.000 6.075 L 0.000 6.282 L 0.250 6.282 L 0.250 6.378 L 0.250 6.757 L 0.404 6.757 L 0.500 6.757 L 0.500 7.007 L 0.707 7.007 L 0.707 6.757 L 0.803 6.757 L 0.900 6.757 L 0.900 7.007 L 1.107 7.007 L 1.107 6.757 L 1.204 6.757 L 1.300 6.757 L 1.300 7.007 L 1.507 7.007 L 1.507 6.757 L 1.604 6.757 L 1.700 6.757 L 1.700 7.007 L 1.907 7.007 L 1.907 6.757 L 2.003 6.757 L 2.100 6.757 L 2.100 7.007 L 2.307 7.007 L 2.307 6.757 L 2.403 6.757 L 2.500 6.757 L 2.500 7.007 L 2.707 7.007 L 2.707 6.757 L 2.803 6.757 L 2.900 6.757 L 2.900 7.007 L 3.107 7.007 L 3.107 6.757 L 3.204 6.757 L 3.300 6.757 L 3.300 7.007 L 3.507 7.007 L 3.507 6.757 L 3.603 6.757 L 3.757 6.757 L 3.757 6.378 L 3.757 6.282 L 4.007 6.282 L 4.007 6.075 L 3.757 6.075 L 3.757 5.978 L 3.757 5.882 L 4.007 5.882 L 4.007 5.675 L 3.757 5.675 L 3.757 5.579 L 3.757 5.482 L 4.007 5.482 L 4.007 5.275 L 3.757 5.275 L 3.757 5.178 L 3.757 5.082 L 4.007 5.082 L 4.007 4.875 L 3.757 4.875 L 3.757 4.779 L 3.757 4.682 L 4.007 4.682 L 4.007 4.475 L 3.757 4.475 L 3.757 4.378 L 3.757 4.282 L 4.007 4.282 L 4.007 4.075 L 3.757 4.075 L 3.757 3.978 L 3.757 3.882 L 4.007 3.882 L 4.007 3.675 L 3.757 3.675 L 3.757 3.579 L 3.757 3.482 L 4.007 3.482 L 4.007 3.275 L 3.757 3.275 L 3.757 3.178 L 3.757 3.082 L 4.007 3.082 L 4.007 2.875 L 3.757 2.875 L 3.757 2.778 L 3.757 2.682 L 4.007 2.682 L 4.007 2.475 L 3.757 2.475 L 3.757 2.378 L 3.757 2.282 L 4.007 2.282 L 4.007 2.075 L 3.757 2.075 L 3.757 1.979 L 3.757 1.882 L 4.007 1.882 L 4.007 1.675 L 3.757 1.675 L 3.757 1.579 L 3.757 1.482 L 4.007 1.482 L 4.007 1.275 L 3.757 1.275 L 3.757 1.179 L 3.757 1.082 L 4.007 1.082 L 4.007 0.875 L 3.757 0.875 L 3.757 0.778 L 3.757 0.682 L 4.007 0.682 L 4.007 0.475 L 3.757 0.475 L 3.757 0.379 L 3.757 0.000 L 0.250 0.000 L 0.250 0.379 L 0.250 0.475 L 0.000 0.475 L 0.000 0.682 L 0.250 0.682 L 0.250 0.778 L 0.250 0.875 L 0.000 0.875 L 0.000 1.082 L 0.250 1.082 L 0.250 1.179 L 0.250 1.275 L 0.000 1.275 L 0.000 1.482 L 0.250 1.482 L 0.250 1.579 L 0.250 1.675 L 0.000 1.675 L 0.000 1.882 L 0.250 1.882 L 0.250 1.979 L 0.250 2.075 L 0.000 2.075 L 0.000 2.282 L 0.250 2.282 L 0.250 2.378 L 0.250 2.475 L 0.000 2.475 L 0.000 2.682 L 0.250 2.682 L 0.250 2.778 L 0.250 2.875 L 0.000 2.875 L 0.000 3.082 L 0.250 3.082 L 0.250 3.178 L 0.250 3.275 L 0.000 3.275 L 0.000 3.482 L 0.250 3.482 L 0.250 3.579 L 0.250 3.675 L 0.000 3.675 L 0.000 3.882 L 0.250 3.882 L 0.250 3.978 L 0.250 4.075 L 0.000 4.075 L 0.000 4.282 L 0.250 4.282 L 0.250 4.378 L 0.250 4.475 L 0.000 4.475 L 0.000 4.682 L 0.250 4.682 L 0.250 4.779 L 0.250 4.875 L 0.000 4.875 L 0.000 5.082 L 0.250 5.082 L 0.250 5.178 L 0.250 5.275 L 0.000 5.275 L 0.000 5.482 L 0.250 5.482" style="fill:none;stroke:black;stroke-width:0.012" />
</g>
<g transform="translate(4.307 0.100)">
<path id="front_flat_top" d="M 0.250 5.482 L 0.250 5.579 L 0.250 5.675 L 0.000 5.675 L 0.000 5.882 L 0.250 5.882 L 0.250 5.978 L 0.250 6.075 L 0.000 6.075 L 0.000 6.282 L 0.250 6.282 L 0.250 6.378 L 0.250 6.757 L 0.404 6.757 L 0.500 6.757 L 0.500 7.007 L 0.707 7.007 L 0.707 6.757 L 0.803 6.757 L 0.900 6.757 L 0.900 7.007 L 1.107 7.007 L 1.107 6.757 L 1.204 6.757 L 1.300 6.757 L 1.300 7.007 L 1.507 7.007 L 1.507 6.757 L 1.604 6.757 L 1.700 6.757 L 1.700 7.007 L 1.907 7.007 L 1.907 6.757 L 2.003 6.757 L 2.100 6.757 L 2.100 7.007 L 2.307 7.007 L 2.307 6.757 L 2.403 6.757 L 2.500 6.757 L 2.500 7.007 L 2.707 7.007 L 2.707 6.757 L 2.803 6.757 L 2.900 6.757 L 2.900 7.007 L 3.107 7.007 L 3.107 6.757 L 3.204 6.757 L 3.300 6.757 L 3.300 7.007 L 3.507 7.007 L 3.507 6.757 L 3.603 6.757 L 3.757 6.757 L 3.757 6.378 L 3.757 6.282 L 4.007 6.282 L 4.007 6.075 L 3.757 6.075 L 3.757 5.978 L 3.757 5.882 L 4.007 5.882 L 4.007 5.675 L 3.757 5.675 L 3.757 5.579 L 3.757 5.482 L 4.007 5.482 L 4.007 5.275 L 3.757 5.275 L 3.757 5.178 L 3.757 5.082 L 4.007 5.082 L 4.007 4.875 L 3.757 4.875 L 3.757 4.779 L 3.757 4.682 L 4.007 4.682 L 4.007 4.475 L 3.757 4.475 L 3.757 4.378 L 3.757 4.282 L 4.007 4.282 L 4.007 4.075 L 3.757 4.075 L 3.757 3.978 L 3.757 3.882 L 4.007 3.882 L 4.007 3.675 L 3.757 3.675 L 3.757 3.579 L 3.757 3.482 L 4.007 3.482 L 4.007 3.275 L 3.757 3.275 L 3.757 3.178 L 3.757 3.082 L 4.007 3.082 L 4.007 2.875 L 3.757 2.875 L 3.757 2.778 L 3.757 2.682 L 4.007 2.682 L 4.007 2.475 L 3.757 2.475 L 3.757 2.378 L 3.757 2.282 L 4.007 2.282 L 4.007 2.075 L 3.757 2.075 L 3.757 1.979 L 3.757 1.882 L 4.007 1.882 L 4.007 1.675 L 3.757 1.675 L 3.757 1.579 L 3.757 1.482 L 4.007 1.482 L 4.007 1.275 L 3.757 1.275 L 3.757 1.179 L 3.757 1.082 L 4.007 1.082 L 4.007 0.875 L 3.757 0.875 L 3.757 0.778 L 3.757 0.682 L 4.007 0.682 L 4.007 0.475 L 3.757 0.475 L 3.757 0.379 L 3.757 0.000 L 0.250 0.000 L 0.250 0.379 L 0.250 0.475 L 0.000 0.475 L 0.000 0.682 L 0.250 0.682 L 0.250 0.778 L 0.250 0.875 L 0.000 0.875 L 0.000 1.082 L 0.250 1.082 L 0.250 1.179 L 0.250 1.275 L 0.000 1.275 L 0.000 1.482 L 0.250 1.482 L 0.250 1.579 L 0.250 1.675 L 0.000 1.675 L 0.000 1.882 L 0.250 1.882 L 0.250 1.979 L 0.250 2.075 L 0.000 2.075 L 0.000 2.282 L 0.250 2.282 L 0.250 2.378 L 0.250 2.475 L 0.000 2.475 L 0.000 2.682 L 0.250 2.682 L 0.250 2.778 L 0.250 2.875 L 0.000 2.875 L 0.000 3.082 L 0.250 3.082 L 0.250 3.178 L 0.250 3.275 L 0.000 3.275 L 0.000 3.482 L 0.250 3.482 L 0.250 3.579 L 0.250 3.675 L 0.000 3.675 L 0.000 3.882 L 0.250 3.882 L 0.250 3.978 L 0.250 4.075 L 0.000 4.075 L 0.000 4.282 L 0.250 4.282 L 0.250 4.378 L 0.250 4.475 L 0.000 4.475 L 0.000 4.682 L 0.250 4.682 L 0.250 4.779 L 0.250 4.875 L 0.000 4.875 L 0.000 5.082 L 0.250 5.082 L 0.250 5.178 L 0.250 5.275 L 0.000 5.275 L 0.000 5.482 L 0.250 5.482" style="fill:none;stroke:black;stroke-width:0.012" />
</g>
<g transform="translate(8.514 0.100)">
<path id="front_flat_top" d="M 0.250 5.482 L 0.250 5.579 L 0.250 5.675 L 0.000 5.675 L 0.000 5.882 L 0.250 5.882 L 0.250 5.978 L 0.250 6.075 L 0.000 6.075 L 0.000 6.282 L 0.250 6.282 L 0.250 6.378 L 0.250 6.757 L 0.404 6.757 L 0.500 6.757 L 0.500 7.007 L 0.707 7.007 L 0.707 6.757 L 0.803 6.757 L 0.900 6.757 L 0.900 7.007 L 1.107 7.007 L 1.107 6.757 L 1.204 6.757 L 1.300 6.757 L 1.300 7.007 L 1.507 7.007 L 1.507 6.757 L 1.604 6.757 L 1.700 6.757 L 1.700 7.007 L 1.907 7.007 L 1.907 6.757 L 2.003 6.757 L 2.100 6.757 L 2.100 7.007 L 2.307 7.007 L 2.307 6.757 L 2.403 6.757 L 2.500 6.757 L 2.500 7.007 L 2.707 7.007 L 2.707 6.757 L 2.803 6.757 L 2.900 6.757 L 2.900 7.007 L 3.107 7.007 L 3.107 6.757 L 3.204 6.757 L 3.300 6.757 L 3.300 7.007 L 3.507 7.007 L 3.507 6.757 L 3.603 6.757 L 3.757 6.757 L 3.757 6.378 L 3.757 6.282 L 4.007 6.282 L 4.007 6.075 L 3.757 6.075 L 3.757 5.978 L 3.757 5.882 L 4.007 5.882 L 4.007 5.675 L 3.757 5.675 L 3.757 5.579 L 3.757 5.482 L 4.007 5.482 L 4.007 5.275 L 3.757 5.275 L 3.757 5.178 L 3.757 5.082 L 4.007 5.082 L 4.007 4.875 L 3.757 4.875 L 3.757 4.779 L 3.757 4.682 L 4.007 4.682 L 4.007 4.475 L 3.757 4.475 L 3.757 4.378 L 3.757 4.282 L 4.007 4.282 L 4.007 4.075 L 3.757 4.075 L 3.757 3.978 L 3.757 3.882 L 4.007 3.882 L 4.007 3.675 L 3.757 3.675 L 3.757 3.579 L 3.757 3.482 L 4.007 3.482 L 4.007 3.275 L 3.757 3.275 L 3.757 3.178 L 3.757 3.082 L 4.007 3.082 L 4.007 2.875 L 3.757 2.875 L 3.757 2.778 L 3.757 2.682 L 4.007 2.682 L 4.007 2.475 L 3.757 2.475 L 3.757 2.378 L 3.757 2.282 L 4.007 2.282 L 4.007 2.075 L 3.757 2.075 L 3.757 1.979 L 3.757 1.882 L 4.007 1.882 L 4.007 1.675 L 3.757 1.675 L 3.757 1.579 L 3.757 1.482 L 4.007 1.482 L 4.007 1.275 L 3.757 1.275 L 3.757 1.179 L 3.757 1.082 L 4.007 1.082 L 4.007 0.875 L 3.757 0.875 L 3.757 0.778 L 3.757 0.682 L 4.007 0.682 L 4.007 0.475 L 3.757 0.475 L 3.757 0.379 L 3.757 0.000 L 0.250 0.000 L 0.250 0.379 L 0.250 0.475 L 0.000 0.475 L 0.000 0.682 L 0.250 0.682 L 0.250 0.778 L 0.250 0.875 L 0.000 0.875 L 0.000 1.082 L 0.250 1.082 L 0.250 1.179 L 0.250 1.275 L 0.000 1.275 L 0.000 1.482 L 0.250 1.482 L 0.250 1.579 L 0.250 1.675 L 0.000 1.675 L 0.000 1.882 L 0.250 1.882 L 0.250 1.979 L 0.250 2.075 L 0.000 2.075 L 0.000 2.282 L 0.250 2.282 L 0.250 2.378 L 0.250 2.475 L 0.000 2.475 L 0.000 2.682 L 0.250 2.682 L 0.250 2.778 L 0.250 2.875 L 0.000 2.875 L 0.000 3.082 L 0.250 3.082 L 0.250 3.178 L 0.250 3.275 L 0.000 3.275 L 0.000 3.482 L 0.250 3.482 L 0.250 3.579 L 0.250 3.675 L 0.000 3.675 L 0.000 3.882 L 0.250 3.882 L 0.250 3.978 L 0.250 4.075 L 0.000 4.075 L 0.000 4.282 L 0.250 4.282 L 0.250 4.378 L 0.250 4.475 L 0.000 4.475 L 0.000 4.682 L 0.250 4.682 L 0.250 4.779 L 0.250 4.875 L 0.000 4.875 L 0.000 5.082 L 0.250 5.082 L 0.250 5.178 L 0.250 5.275 L 0.000 5.275 L 0.000 5.482 L 0.250 5.482" style="fill:none;stroke:black;stroke-width:0.012" />
</g>
<g transform="translate(12.721 0.100)">
<path id="front_flat_top" d="M 0.250 5.482 L 0.250 5.579 L 0.250 5.675 L 0.000 5.675 L 0.000 5.882 L 0.250 5.882 L 0.250 5.978 L 0.250 6.075 L 0.000 6.075 L 0.000 6.282 L 0.250 6.282 L 0.250 6.378 L 0.250 6.757 L 0.404 6.757 L 0.500 6.757 L 0.500 7.007 L 0.707 7.007 L 0.707 6.757 L 0.803 6.757 L 0.900 6.757 L 0.900 7.007 L 1.107 7.007 L 1.107 6.757 L 1.204 6.757 L 1.300 6.757 L 1.300 7.007 L 1.507 7.007 L 1.507 6.757 L 1.604 6.757 L 1.700 6.757 L 1.700 7.007 L 1.907 7.007 L 1.907 6.757 L 2.003 6.757 L 2.100 6.757 L 2.100 7.007 L 2.307 7.007 L 2.307 6.757 L 2.403 6.757 L 2.500 6.757 L 2.500 7.007 L 2.707 7.007 L 2.707 6.757 L 2.803 6.757 L 2.900 6.757 L 2.900 7.007 L 3.107 7.007 L 3.107 6.757 L 3.204 6.757 L 3.300 6.757 L 3.300 7.007 L 3.507 7.007 L 3.507 6.757 L 3.603 6.757 L 3.757 6.757 L 3.757 6.378 L 3.757 6.282 L 4.007 6.282 L 4.007 6.075 L 3.757 6.075 L 3.757 5.978 L 3.757 5.882 L 4.007 5.882 L 4.007 5.675 L 3.757 5.675 L 3.757 5.579 L 3.757 5.482 L 4.007 5.482 L 4.007 5.275 L 3.757 5.275 L 3.757 5.178 L 3.757 5.082 L 4.007 5.082 L 4.007 4.875 L 3.757 4.875 L 3.757 4.779 L 3.757 4.682 L 4.007 4.682 L 4.007 4.475 L 3.757 4.475 L 3.757 4.378 L 3.757 4.282 L 4.007 4.282 L 4.007 4.075 L 3.757 4.075 L 3.757 3.978 L 3.757 3.882 L 4.007 3.882 L 4.007 3.675 L 3.757 3.675 L 3.757 3.579 L 3.757 3.482 L 4.007 3.482 L 4.007 3.275 L 3.757 3.275 L 3.757 3.178 L 3.757 3.082 L 4.007 3.082 L 4.007 2.875 L 3.757 2.875 L 3.757 2.778 L 3.757 2.682 L 4.007 2.682 L 4.007 2.475 L 3.757 2.475 L 3.757 2.378 L 3.757 2.282 L 4.007 2.282 L 4.007 2.075 L 3.757 2.075 L 3.757 1.979 L 3.757 1.882 L 4.007 1.882 L 4.007 1.675 L 3.757 1.675 L 3.757 1.579 L 3.757 1.482 L 4.007 1.482 L 4.007 1.275 L 3.757 1.275 L 3.757 1.179 L 3.757 1.082 L 4.007 1.082 L 4.007 0.875 L 3.757 0.875 L 3.757 0.778 L 3.757 0.682 L 4.007 0.682 L 4.007 0.475 L 3.757 0.475 L 3.757 0.379 L 3.757 0.000 L 0.250 0.000 L 0.250 0.379 L 0.250 0.475 L 0.000 0.475 L 0.000 0.682 L 0.250 0.682 L 0.250 0.778 L 0.250 0.875 L 0.000 0.875 L 0.000 1.082 L 0.250 1.082 L 0.250 1.179 L 0.250 1.275 L 0.000 1.275 L 0.000 1.482 L 0.250 1.482 L 0.250 1.579 L 0.250 1.675 L 0.000 1.675 L 0.000 1.882 L 0.250 1.882 L 0.250 1.979 L 0.250 2.075 L 0.000 2.075 L 0.000 2.282 L 0.250 2.282 L 0.250 2.378 L 0.250 2.475 L 0.000 2.475 L 0.000 2.682 L 0.250 2.682 L 0.250 2.778 L 0.250 2.875 L 0.000 2.875 L 0.000 3.082 L 0.250 3.082 L 0.250 3.178 L 0.250 3.275 L 0.000 3.275 L 0.000 3.482 L 0.250 3.482 L 0.250 3.579 L 0.250 3.675 L 0.000 3.675 L 0.000 3.882 L 0.250 3.882 L 0.250 3.978 L 0.250 4.075 L 0.000 4.075 L 0.000 4.282 L 0.250 4.282 L 0.250 4.378 L 0.250 4.475 L 0.000 4.475 L 0.000 4.682 L 0.250 4.682 L 0.250 4.779 L 0.250 4.875 L 0.000 4.875 L 0.000 5.082 L 0.250 5.082 L 0.250 5.178 L 0.250 5.275 L 0.000 5.275 L 0.000 5.482 L 0.250 5.482" style="fill:none;stroke:black;stroke-width:0.012" />
</g>
</svg>
