<?xml version="1.0"?>
	<!-- Generated by github.com/dustismo/heavyfishdesign -->
	<svg width="20.000in" height="12.000in" viewBox="0.000 0.000 20.000 12.000"
    	xmlns="http://www.w3.org/2000/svg"
		xmlns:xlink="http://www.w3.org/1999/xlink">
	<g transform="rotate(90 14.107 0.100) translate(14.107 0.100)">
<path id="bottom" d="M 2.307 13.757 L 2.800 13.757 L 2.800 14.007 L 2.954 14.007 L 3.507 14.007 L 3.507 13.404 L 3.507 13.250 L 3.257 13.250 L 3.257 12.757 L 3.507 12.757 L 3.507 12.604 L 3.507 12.450 L 3.257 12.450 L 3.257 11.957 L 3.507 11.957 L 3.507 11.804 L 3.507 11.650 L 3.257 11.650 L 3.257 11.157 L 3.507 11.157 L 3.507 11.004 L 3.507 10.850 L 3.257 10.850 L 3.257 10.357 L 3.507 10.357 L 3.507 10.204 L 3.507 10.050 L 3.257 10.050 L 3.257 9.557 L 3.507 9.557 L 3.507 9.404 L 3.507 9.250 L 3.257 9.250 L 3.257 8.757 L 3.507 8.757 L 3.507 8.604 L 3.507 8.450 L 3.257 8.450 L 3.257 7.957 L 3.507 7.957 L 3.507 7.803 L 3.507 7.650 L 3.257 7.650 L 3.257 7.157 L 3.507 7.157 L 3.507 7.003 L 3.507 6.850 L 3.257 6.850 L 3.257 6.357 L 3.507 6.357 L 3.507 6.204 L 3.507 6.050 L 3.257 6.050 L 3.257 5.557 L 3.507 5.557 L 3.507 5.404 L 3.507 5.250 L 3.257 5.250 L 3.257 4.757 L 3.507 4.757 L 3.507 4.603 L 3.507 4.450 L 3.257 4.450 L 3.257 3.957 L 3.507 3.957 L 3.507 3.803 L 3.507 3.650 L 3.257 3.650 L 3.257 3.157 L 3.507 3.157 L 3.507 3.003 L 3.507 2.850 L 3.257 2.850 L 3.257 2.357 L 3.507 2.357 L 3.507 2.204 L 3.507 2.050 L 3.257 2.050 L 3.257 1.557 L 3.507 1.557 L 3.507 1.403 L 3.507 1.250 L 3.257 1.250 L 3.257 0.757 L 3.507 0.757 L 3.507 0.603 L 3.507 0.000 L 2.954 0.000 L 2.800 0.000 L 2.800 0.250 L 2.307 0.250 L 2.307 0.000 L 2.153 0.000 L 2.000 0.000 L 2.000 0.250 L 1.507 0.250 L 1.507 0.000 L 1.354 0.000 L 1.200 0.000 L 1.200 0.250 L 0.707 0.250 L 0.707 0.000 L 0.553 0.000 L 0.000 0.000 L 0.000 0.603 L 0.000 0.757 L 0.250 0.757 L 0.250 1.250 L 0.000 1.250 L 0.000 1.403 L 0.000 1.557 L 0.250 1.557 L 0.250 2.050 L 0.000 2.050 L 0.000 2.204 L 0.000 2.357 L 0.250 2.357 L 0.250 2.850 L 0.000 2.850 L 0.000 3.003 L 0.000 3.157 L 0.250 3.157 L 0.250 3.650 L 0.000 3.650 L 0.000 3.803 L 0.000 3.957 L 0.250 3.957 L 0.250 4.450 L 0.000 4.450 L 0.000 4.603 L 0.000 4.757 L 0.250 4.757 L 0.250 5.250 L 0.000 5.250 L 0.000 5.404 L 0.000 5.557 L 0.250 5.557 L 0.250 6.050 L 0.000 6.050 L 0.000 6.204 L 0.000 6.357 L 0.250 6.357 L 0.250 6.850 L 0.000 6.850 L 0.000 7.003 L 0.000 7.157 L 0.250 7.157 L 0.250 7.650 L 0.000 7.650 L 0.000 7.803 L 0.000 7.957 L 0.250 7.957 L 0.250 8.450 L 0.000 8.450 L 0.000 8.604 L 0.000 8.757 L 0.250 8.757 L 0.250 9.250 L 0.000 9.250 L 0.000 9.404 L 0.000 9.557 L 0.250 9.557 L 0.250 10.050 L 0.000 10.050 L 0.000 10.204 L 0.000 10.357 L 0.250 10.357 L 0.250 10.850 L 0.000 10.850 L 0.000 11.004 L 0.000 11.157 L 0.250 11.157 L 0.250 11.650 L 0.000 11.650 L 0.000 11.804 L 0.000 11.957 L 0.250 11.957 L 0.250 12.450 L 0.000 12.450 L 0.000 12.604 L 0.000 12.757 L 0.250 12.757 L 0.250 13.250 L 0.000 13.250 L 0.000 13.404 L 0.000 14.007 L 0.553 14.007 L 0.707 14.007 L 0.707 13.757 L 1.200 13.757 L 1.200 14.007 L 1.354 14.007 L 1.507 14.007 L 1.507 13.757 L 2.000 13.757 L 2.000 14.007 L 2.153 14.007 L 2.307 14.007 L 2.307 13.757" style="fill:none;stroke:black;stroke-width:0.012" />
</g>
</svg>
