<?xml version="1.0"?>
	<!-- Generated by github.com/dustismo/heavyfishdesign -->
	<svg width="18.000in" height="11.000in" viewBox="0.000 0.000 18.000 11.000"
    	xmlns="http://www.w3.org/2000/svg"
		xmlns:xlink="http://www.w3.org/1999/xlink">
	<g transform="translate(0.100 0.100)">
<path id="bottom" d="M 3.307 8.757 L 3.500 8.757 L 3.500 9.007 L 3.603 9.007 L 4.007 9.007 L 4.007 8.704 L 4.007 8.600 L 3.757 8.600 L 3.757 8.407 L 4.007 8.407 L 4.007 8.304 L 4.007 8.200 L 3.757 8.200 L 3.757 8.007 L 4.007 8.007 L 4.007 7.904 L 4.007 7.800 L 3.757 7.800 L 3.757 7.607 L 4.007 7.607 L 4.007 7.503 L 4.007 7.400 L 3.757 7.400 L 3.757 7.207 L 4.007 7.207 L 4.007 7.103 L 4.007 7.000 L 3.757 7.000 L 3.757 6.807 L 4.007 6.807 L 4.007 6.704 L 4.007 6.600 L 3.757 6.600 L 3.757 6.407 L 4.007 6.407 L 4.007 6.303 L 4.007 6.200 L 3.757 6.200 L 3.757 6.007 L 4.007 6.007 L 4.007 5.904 L 4.007 5.800 L 3.757 5.800 L 3.757 5.607 L 4.007 5.607 L 4.007 5.503 L 4.007 5.400 L 3.757 5.400 L 3.757 5.207 L 4.007 5.207 L 4.007 5.103 L 4.007 5.000 L 3.757 5.000 L 3.757 4.807 L 4.007 4.807 L 4.007 4.704 L 4.007 4.600 L 3.757 4.600 L 3.757 4.407 L 4.007 4.407 L 4.007 4.303 L 4.007 4.200 L 3.757 4.200 L 3.757 4.007 L 4.007 4.007 L 4.007 3.903 L 4.007 3.800 L 3.757 3.800 L 3.757 3.607 L 4.007 3.607 L 4.007 3.503 L 4.007 3.400 L 3.757 3.400 L 3.757 3.207 L 4.007 3.207 L 4.007 3.103 L 4.007 3.000 L 3.757 3.000 L 3.757 2.807 L 4.007 2.807 L 4.007 2.704 L 4.007 2.600 L 3.757 2.600 L 3.757 2.407 L 4.007 2.407 L 4.007 2.303 L 4.007 2.200 L 3.757 2.200 L 3.757 2.007 L 4.007 2.007 L 4.007 1.903 L 4.007 1.800 L 3.757 1.800 L 3.757 1.607 L 4.007 1.607 L 4.007 1.504 L 4.007 1.400 L 3.757 1.400 L 3.757 1.207 L 4.007 1.207 L 4.007 1.104 L 4.007 1.000 L 3.757 1.000 L 3.757 0.807 L 4.007 0.807 L 4.007 0.703 L 4.007 0.600 L 3.757 0.600 L 3.757 0.407 L 4.007 0.407 L 4.007 0.303 L 4.007 0.000 L 3.603 0.000 L 3.500 0.000 L 3.500 0.250 L 3.307 0.250 L 3.307 0.000 L 3.204 0.000 L 3.100 0.000 L 3.100 0.250 L 2.907 0.250 L 2.907 0.000 L 2.803 0.000 L 2.700 0.000 L 2.700 0.250 L 2.507 0.250 L 2.507 0.000 L 2.403 0.000 L 2.300 0.000 L 2.300 0.250 L 2.107 0.250 L 2.107 0.000 L 2.003 0.000 L 1.900 0.000 L 1.900 0.250 L 1.707 0.250 L 1.707 0.000 L 1.604 0.000 L 1.500 0.000 L 1.500 0.250 L 1.307 0.250 L 1.307 0.000 L 1.204 0.000 L 1.100 0.000 L 1.100 0.250 L 0.907 0.250 L 0.907 0.000 L 0.803 0.000 L 0.700 0.000 L 0.700 0.250 L 0.507 0.250 L 0.507 0.000 L 0.404 0.000 L 0.000 0.000 L 0.000 0.303 L 0.000 0.407 L 0.250 0.407 L 0.250 0.600 L 0.000 0.600 L 0.000 0.703 L 0.000 0.807 L 0.250 0.807 L 0.250 1.000 L 0.000 1.000 L 0.000 1.104 L 0.000 1.207 L 0.250 1.207 L 0.250 1.400 L 0.000 1.400 L 0.000 1.504 L 0.000 1.607 L 0.250 1.607 L 0.250 1.800 L 0.000 1.800 L 0.000 1.903 L 0.000 2.007 L 0.250 2.007 L 0.250 2.200 L 0.000 2.200 L 0.000 2.303 L 0.000 2.407 L 0.250 2.407 L 0.250 2.600 L 0.000 2.600 L 0.000 2.704 L 0.000 2.807 L 0.250 2.807 L 0.250 3.000 L 0.000 3.000 L 0.000 3.103 L 0.000 3.207 L 0.250 3.207 L 0.250 3.400 L 0.000 3.400 L 0.000 3.503 L 0.000 3.607 L 0.250 3.607 L 0.250 3.800 L 0.000 3.800 L 0.000 3.903 L 0.000 4.007 L 0.250 4.007 L 0.250 4.200 L 0.000 4.200 L 0.000 4.303 L 0.000 4.407 L 0.250 4.407 L 0.250 4.600 L 0.000 4.600 L 0.000 4.704 L 0.000 4.807 L 0.250 4.807 L 0.250 5.000 L 0.000 5.000 L 0.000 5.103 L 0.000 5.207 L 0.250 5.207 L 0.250 5.400 L 0.000 5.400 L 0.000 5.503 L 0.000 5.607 L 0.250 5.607 L 0.250 5.800 L 0.000 5.800 L 0.000 5.904 L 0.000 6.007 L 0.250 6.007 L 0.250 6.200 L 0.000 6.200 L 0.000 6.303 L 0.000 6.407 L 0.250 6.407 L 0.250 6.600 L 0.000 6.600 L 0.000 6.704 L 0.000 6.807 L 0.250 6.807 L 0.250 7.000 L 0.000 7.000 L 0.000 7.103 L 0.000 7.207 L 0.250 7.207 L 0.250 7.400 L 0.000 7.400 L 0.000 7.503 L 0.000 7.607 L 0.250 7.607 L 0.250 7.800 L 0.000 7.800 L 0.000 7.904 L 0.000 8.007 L 0.250 8.007 L 0.250 8.200 L 0.000 8.200 L 0.000 8.304 L 0.000 8.407 L 0.250 8.407 L 0.250 8.600 L 0.000 8.600 L 0.000 8.704 L 0.000 9.007 L 0.404 9.007 L 0.507 9.007 L 0.507 8.757 L 0.700 8.757 L 0.700 9.007 L 0.803 9.007 L 0.907 9.007 L 0.907 8.757 L 1.100 8.757 L 1.100 9.007 L 1.204 9.007 L 1.307 9.007 L 1.307 8.757 L 1.500 8.757 L 1.500 9.007 L 1.604 9.007 L 1.707 9.007 L 1.707 8.757 L 1.900 8.757 L 1.900 9.007 L 2.003 9.007 L 2.107 9.007 L 2.107 8.757 L 2.300 8.757 L 2.300 9.007 L 2.403 9.007 L 2.507 9.007 L 2.507 8.757 L 2.700 8.757 L 2.700 9.007 L 2.803 9.007 L 2.907 9.007 L 2.907 8.757 L 3.100 8.757 L 3.100 9.007 L 3.204 9.007 L 3.307 9.007 L 3.307 8.757 M 0.503 4.003 L 0.703 4.003 L 0.703 4.253 L 0.503 4.253 L 0.503 4.003 M 0.903 4.003 L 1.104 4.003 L 1.104 4.253 L 0.903 4.253 L 0.903 4.003 M 1.303 4.003 L 1.504 4.003 L 1.504 4.253 L 1.303 4.253 L 1.303 4.003 M 1.704 4.003 L 1.903 4.003 L 1.903 4.253 L 1.704 4.253 L 1.704 4.003 M 2.103 4.003 L 2.304 4.003 L 2.304 4.253 L 2.103 4.253 L 2.103 4.003 M 2.504 4.003 L 2.704 4.003 L 2.704 4.253 L 2.504 4.253 L 2.504 4.003 M 2.904 4.003 L 3.103 4.003 L 3.103 4.253 L 2.904 4.253 L 2.904 4.003 M 3.304 4.003 L 3.504 4.003 L 3.504 4.253 L 3.304 4.253 L 3.304 4.003 M 0.503 8.004 L 0.703 8.004 L 0.703 8.254 L 0.503 8.254 L 0.503 8.004 M 0.903 8.004 L 1.104 8.004 L 1.104 8.254 L 0.903 8.254 L 0.903 8.004 M 1.303 8.004 L 1.504 8.004 L 1.504 8.254 L 1.303 8.254 L 1.303 8.004 M 1.704 8.004 L 1.903 8.004 L 1.903 8.254 L 1.704 8.254 L 1.704 8.004 M 2.103 8.004 L 2.304 8.004 L 2.304 8.254 L 2.103 8.254 L 2.103 8.004 M 2.504 8.004 L 2.704 8.004 L 2.704 8.254 L 2.504 8.254 L 2.504 8.004 M 2.904 8.004 L 3.103 8.004 L 3.103 8.254 L 2.904 8.254 L 2.904 8.004 M 3.304 8.004 L 3.504 8.004 L 3.504 8.254 L 3.304 8.254 L 3.304 8.004 M 4.003 8.004" style="fill:none;stroke:black;stroke-width:0.012" />
</g>
</svg>
