<?xml version="1.0"?>
	<!-- Generated by github.com/dustismo/heavyfishdesign -->
	<svg width="20.000in" height="12.000in" viewBox="0.000 0.000 20.000 12.000"
    	xmlns="http://www.w3.org/2000/svg"
		xmlns:xlink="http://www.w3.org/1999/xlink">
	<g transform="translate(0.100 0.100)">
<path id="front_flat_top" d="M 0.250 2.932 L 0.250 3.079 L 0.250 3.757 L 0.553 3.757 L 0.700 3.757 L 0.700 4.007 L 1.207 4.007 L 1.207 3.757 L 1.354 3.757 L 1.500 3.757 L 1.500 4.007 L 2.007 4.007 L 2.007 3.757 L 2.153 3.757 L 2.300 3.757 L 2.300 4.007 L 2.807 4.007 L 2.807 3.757 L 2.954 3.757 L 3.257 3.757 L 3.257 3.079 L 3.257 2.932 L 3.507 2.932 L 3.507 2.425 L 3.257 2.425 L 3.257 2.278 L 3.257 2.132 L 3.507 2.132 L 3.507 1.625 L 3.257 1.625 L 3.257 1.479 L 3.257 1.332 L 3.507 1.332 L 3.507 0.825 L 3.257 0.825 L 3.257 0.678 L 3.257 0.000 L 0.250 0.000 L 0.250 0.678 L 0.250 0.825 L 0.000 0.825 L 0.000 1.332 L 0.250 1.332 L 0.250 1.479 L 0.250 1.625 L 0.000 1.625 L 0.000 2.132 L 0.250 2.132 L 0.250 2.278 L 0.250 2.425 L 0.000 2.425 L 0.000 2.932 L 0.250 2.932" style="fill:none;stroke:black;stroke-width:0.012" />
</g>
<g transform="translate(0.100 4.307)">
<path id="front_flat_top" d="M 0.250 2.932 L 0.250 3.079 L 0.250 3.757 L 0.553 3.757 L 0.700 3.757 L 0.700 4.007 L 1.207 4.007 L 1.207 3.757 L 1.354 3.757 L 1.500 3.757 L 1.500 4.007 L 2.007 4.007 L 2.007 3.757 L 2.153 3.757 L 2.300 3.757 L 2.300 4.007 L 2.807 4.007 L 2.807 3.757 L 2.954 3.757 L 3.257 3.757 L 3.257 3.079 L 3.257 2.932 L 3.507 2.932 L 3.507 2.425 L 3.257 2.425 L 3.257 2.278 L 3.257 2.132 L 3.507 2.132 L 3.507 1.625 L 3.257 1.625 L 3.257 1.479 L 3.257 1.332 L 3.507 1.332 L 3.507 0.825 L 3.257 0.825 L 3.257 0.678 L 3.257 0.000 L 0.250 0.000 L 0.250 0.678 L 0.250 0.825 L 0.000 0.825 L 0.000 1.332 L 0.250 1.332 L 0.250 1.479 L 0.250 1.625 L 0.000 1.625 L 0.000 2.132 L 0.250 2.132 L 0.250 2.278 L 0.250 2.425 L 0.000 2.425 L 0.000 2.932 L 0.250 2.932" style="fill:none;stroke:black;stroke-width:0.012" />
</g>
<g transform="translate(3.807 0.100)">
<path id="side_flat_top" d="M 13.757 2.432 L 13.757 2.925 L 14.007 2.925 L 14.007 3.079 L 14.007 3.757 L 13.404 3.757 L 13.257 3.757 L 13.257 4.007 L 12.750 4.007 L 12.750 3.757 L 12.604 3.757 L 12.457 3.757 L 12.457 4.007 L 11.950 4.007 L 11.950 3.757 L 11.804 3.757 L 11.657 3.757 L 11.657 4.007 L 11.150 4.007 L 11.150 3.757 L 11.004 3.757 L 10.857 3.757 L 10.857 4.007 L 10.350 4.007 L 10.350 3.757 L 10.204 3.757 L 10.057 3.757 L 10.057 4.007 L 9.550 4.007 L 9.550 3.757 L 9.404 3.757 L 9.257 3.757 L 9.257 4.007 L 8.750 4.007 L 8.750 3.757 L 8.604 3.757 L 8.457 3.757 L 8.457 4.007 L 7.950 4.007 L 7.950 3.757 L 7.803 3.757 L 7.657 3.757 L 7.657 4.007 L 7.150 4.007 L 7.150 3.757 L 7.003 3.757 L 6.857 3.757 L 6.857 4.007 L 6.350 4.007 L 6.350 3.757 L 6.204 3.757 L 6.057 3.757 L 6.057 4.007 L 5.550 4.007 L 5.550 3.757 L 5.404 3.757 L 5.257 3.757 L 5.257 4.007 L 4.750 4.007 L 4.750 3.757 L 4.603 3.757 L 4.457 3.757 L 4.457 4.007 L 3.950 4.007 L 3.950 3.757 L 3.803 3.757 L 3.657 3.757 L 3.657 4.007 L 3.150 4.007 L 3.150 3.757 L 3.003 3.757 L 2.857 3.757 L 2.857 4.007 L 2.350 4.007 L 2.350 3.757 L 2.204 3.757 L 2.057 3.757 L 2.057 4.007 L 1.550 4.007 L 1.550 3.757 L 1.403 3.757 L 1.257 3.757 L 1.257 4.007 L 0.750 4.007 L 0.750 3.757 L 0.603 3.757 L 0.000 3.757 L 0.000 3.079 L 0.000 2.925 L 0.250 2.925 L 0.250 2.432 L 0.000 2.432 L 0.000 2.278 L 0.000 2.125 L 0.250 2.125 L 0.250 1.632 L 0.000 1.632 L 0.000 1.479 L 0.000 1.325 L 0.250 1.325 L 0.250 0.832 L 0.000 0.832 L 0.000 0.678 L 0.000 0.000 L 14.007 0.000 L 14.007 0.678 L 14.007 0.832 L 13.757 0.832 L 13.757 1.325 L 14.007 1.325 L 14.007 1.479 L 14.007 1.632 L 13.757 1.632 L 13.757 2.125 L 14.007 2.125 L 14.007 2.278 L 14.007 2.432 L 13.757 2.432" style="fill:none;stroke:black;stroke-width:0.012" />
</g>
<g transform="translate(3.807 4.307)">
<path id="side_flat_top" d="M 13.757 2.432 L 13.757 2.925 L 14.007 2.925 L 14.007 3.079 L 14.007 3.757 L 13.404 3.757 L 13.257 3.757 L 13.257 4.007 L 12.750 4.007 L 12.750 3.757 L 12.604 3.757 L 12.457 3.757 L 12.457 4.007 L 11.950 4.007 L 11.950 3.757 L 11.804 3.757 L 11.657 3.757 L 11.657 4.007 L 11.150 4.007 L 11.150 3.757 L 11.004 3.757 L 10.857 3.757 L 10.857 4.007 L 10.350 4.007 L 10.350 3.757 L 10.204 3.757 L 10.057 3.757 L 10.057 4.007 L 9.550 4.007 L 9.550 3.757 L 9.404 3.757 L 9.257 3.757 L 9.257 4.007 L 8.750 4.007 L 8.750 3.757 L 8.604 3.757 L 8.457 3.757 L 8.457 4.007 L 7.950 4.007 L 7.950 3.757 L 7.803 3.757 L 7.657 3.757 L 7.657 4.007 L 7.150 4.007 L 7.150 3.757 L 7.003 3.757 L 6.857 3.757 L 6.857 4.007 L 6.350 4.007 L 6.350 3.757 L 6.204 3.757 L 6.057 3.757 L 6.057 4.007 L 5.550 4.007 L 5.550 3.757 L 5.404 3.757 L 5.257 3.757 L 5.257 4.007 L 4.750 4.007 L 4.750 3.757 L 4.603 3.757 L 4.457 3.757 L 4.457 4.007 L 3.950 4.007 L 3.950 3.757 L 3.803 3.757 L 3.657 3.757 L 3.657 4.007 L 3.150 4.007 L 3.150 3.757 L 3.003 3.757 L 2.857 3.757 L 2.857 4.007 L 2.350 4.007 L 2.350 3.757 L 2.204 3.757 L 2.057 3.757 L 2.057 4.007 L 1.550 4.007 L 1.550 3.757 L 1.403 3.757 L 1.257 3.757 L 1.257 4.007 L 0.750 4.007 L 0.750 3.757 L 0.603 3.757 L 0.000 3.757 L 0.000 3.079 L 0.000 2.925 L 0.250 2.925 L 0.250 2.432 L 0.000 2.432 L 0.000 2.278 L 0.000 2.125 L 0.250 2.125 L 0.250 1.632 L 0.000 1.632 L 0.000 1.479 L 0.000 1.325 L 0.250 1.325 L 0.250 0.832 L 0.000 0.832 L 0.000 0.678 L 0.000 0.000 L 14.007 0.000 L 14.007 0.678 L 14.007 0.832 L 13.757 0.832 L 13.757 1.325 L 14.007 1.325 L 14.007 1.479 L 14.007 1.632 L 13.757 1.632 L 13.757 2.125 L 14.007 2.125 L 14.007 2.278 L 14.007 2.432 L 13.757 2.432" style="fill:none;stroke:black;stroke-width:0.012" />
</g>
</svg>
