<?xml version="1.0"?>
	<!-- Generated by github.com/dustismo/heavyfishdesign -->
	<svg width="20.000in" height="12.000in" viewBox="0.000 0.000 20.000 12.000"
    	xmlns="http://www.w3.org/2000/svg"
		xmlns:xlink="http://www.w3.org/1999/xlink">
	<g transform="translate(0.100 0.100)">
<path id="d6ca1a6566a5f4fd" d="M 0.288 3.324 C 0.288 3.328 1.013 3.198 1.101 3.323 C 1.188 3.448 1.259 4.035 1.466 3.998 C 1.672 3.962 1.718 3.245 1.838 3.279 C 1.957 3.312 2.528 3.948 2.634 3.787 C 2.740 3.625 2.769 3.101 2.675 2.952 C 2.580 2.803 3.497 3.000 3.474 2.879 C 3.451 2.758 3.022 2.305 3.139 2.086 C 3.257 1.868 3.979 1.885 3.979 1.885 C 4.176 1.700 2.911 1.208 2.918 1.279 C 2.938 1.468 3.164 0.580 3.164 0.580 C 2.823 0.587 2.744 0.643 2.318 0.829 C 2.318 0.829 2.173 0.091 2.033 0.009 C 1.893 -0.073 1.591 0.438 1.352 0.614 C 1.114 0.789 0.309 0.506 0.208 0.829 C 0.107 1.151 0.519 1.413 0.564 1.464 C 0.610 1.514 0.000 1.753 0.000 1.965 C 0.000 2.176 0.577 2.266 0.574 2.511 C 0.571 2.756 0.288 3.319 0.288 3.324 M 1.903 1.753 L 2.096 1.753 L 2.096 2.247 L 1.903 2.247 L 1.903 1.753" style="fill:none;stroke:black;stroke-width:0.012" />
</g>
</svg>
