<?xml version="1.0"?>
	<!-- Generated by github.com/dustismo/heavyfishdesign -->
	<svg width="20.000in" height="12.000in" viewBox="0.000 0.000 20.000 12.000"
    	xmlns="http://www.w3.org/2000/svg"
		xmlns:xlink="http://www.w3.org/1999/xlink">
	<g transform="translate(0.100 0.100)">
<path id="inner_rectangle" d="M 0.000 0.000 L 0.000 5.587 L 4.587 5.587 L 4.587 0.000 L 0.000 0.000 M 2.442 2.888 L 2.145 2.888 L 2.145 2.695 L 2.438 2.695 L 2.438 2.892" style="fill:none;stroke:black;stroke-width:0.012" />
</g>
<g transform="translate(4.887 0.100)">
<path id="outer_rectangle" d="M 0.000 0.000 L 0.000 6.007 L 5.007 6.007 L 5.007 0.000 L 0.000 0.000 M 2.652 3.098 L 2.355 3.098 L 2.355 2.905 L 2.648 2.905 L 2.648 3.102" style="fill:none;stroke:black;stroke-width:0.012" />
</g>
<g transform="translate(0.100 5.887)">
<path id="handle" d="M 0.971 0.681 L 0.971 1.081 L 0.664 1.081 L 0.664 0.681 L 0.170 0.681 C 0.076 0.681 0.000 0.605 0.000 0.511 L 0.000 0.170 C 0.000 0.076 0.076 0.000 0.170 0.000 C 0.403 0.199 0.617 0.285 0.818 0.287 C 1.018 0.285 1.233 0.199 1.465 0.000 C 1.559 0.000 1.635 0.076 1.635 0.170 L 1.635 0.511 C 1.635 0.605 1.559 0.681 1.465 0.681 L 0.971 0.681" style="fill:none;stroke:black;stroke-width:0.012" />
</g>
</svg>
