<?xml version="1.0"?>
	<!-- Generated by github.com/dustismo/heavyfishdesign -->
	<svg width="17.000in" height="10.000in" viewBox="0.000 0.000 17.000 10.000"
    	xmlns="http://www.w3.org/2000/svg"
		xmlns:xlink="http://www.w3.org/1999/xlink">
	<g transform="translate(0.100 0.100)">
<path id="side" d="M 0.850 0.496 L 0.657 0.496 L 0.657 0.204 L 0.850 0.204 L 0.850 0.496 M 1.507 2.557 L 1.507 0.000 L 0.000 0.000 L 0.000 2.557 L 0.254 2.557 L 0.350 2.557 L 0.350 2.757 L 0.657 2.757 L 0.657 2.557 L 0.753 2.557 L 0.850 2.557 L 0.850 2.757 L 1.157 2.757 L 1.157 2.557 L 1.254 2.557 L 1.507 2.557" style="fill:none;stroke:black;stroke-width:0.012" />
</g>
<g transform="translate(0.100 3.057)">
<path id="side" d="M 0.850 0.496 L 0.657 0.496 L 0.657 0.204 L 0.850 0.204 L 0.850 0.496 M 1.507 2.557 L 1.507 0.000 L 0.000 0.000 L 0.000 2.557 L 0.254 2.557 L 0.350 2.557 L 0.350 2.757 L 0.657 2.757 L 0.657 2.557 L 0.753 2.557 L 0.850 2.557 L 0.850 2.757 L 1.157 2.757 L 1.157 2.557 L 1.254 2.557 L 1.507 2.557" style="fill:none;stroke:black;stroke-width:0.012" />
</g>
<g transform="translate(0.100 6.014)">
<path id="bottom" d="M 0.857 2.307 L 1.150 2.307 L 1.150 2.507 L 1.254 2.507 L 1.507 2.507 L 1.507 0.000 L 1.254 0.000 L 1.150 0.000 L 1.150 0.200 L 0.857 0.200 L 0.857 0.000 L 0.753 0.000 L 0.650 0.000 L 0.650 0.200 L 0.357 0.200 L 0.357 0.000 L 0.254 0.000 L 0.000 0.000 L 0.000 2.507 L 0.254 2.507 L 0.357 2.507 L 0.357 2.307 L 0.650 2.307 L 0.650 2.507 L 0.753 2.507 L 0.857 2.507 L 0.857 2.307" style="fill:none;stroke:black;stroke-width:0.012" />
</g>
<g transform="translate(1.807 0.100)">
<path id="a6331031ebdc76b3" d="M 0.000 0.000 L 0.000 1.087 L 2.087 1.087 L 2.087 0.000 L 0.000 0.000 M 1.192 0.638 L 0.895 0.638 L 0.895 0.445 L 1.188 0.445 L 1.188 0.642" style="fill:none;stroke:black;stroke-width:0.012" />
</g>
<g transform="rotate(90 3.314 1.387) translate(3.314 1.387)">
<path id="lid_top" d="M 0.000 1.507 L 0.000 0.000 L 2.507 0.000 L 2.507 1.507 L 0.000 1.507 M 1.398 0.852 L 1.398 0.655 L 1.105 0.655 L 1.105 0.848 L 1.402 0.848" style="fill:none;stroke:black;stroke-width:0.012" />
</g>
<g transform="rotate(90 3.107 4.094) translate(3.107 4.094)">
<path id="lid_handle" d="M 0.200 0.700 L 1.100 0.700 L 1.100 0.000 L 1.400 0.000 L 1.400 0.700 M 1.255 0.100 C 1.299 0.100 1.335 0.136 1.335 0.180 C 1.335 0.224 1.299 0.260 1.255 0.260 C 1.211 0.260 1.175 0.224 1.175 0.180 C 1.175 0.136 1.211 0.100 1.255 0.100 M 1.400 0.700 L 2.300 0.700 L 2.300 0.900 L 2.500 0.900 L 2.500 1.200 L 2.300 1.200 L 2.300 1.300 M 2.300 1.300 C 1.678 0.924 0.977 0.927 0.200 1.300 L 0.200 1.200 L 0.000 1.200 L 0.000 0.900 L 0.200 0.900 L 0.200 0.700" style="fill:none;stroke:black;stroke-width:0.012" />
</g>
</svg>
