<?xml version="1.0"?>
	<!-- Generated by github.com/dustismo/heavyfishdesign -->
	<svg width="10.000in" height="12.000in" viewBox="0.000 0.000 10.000 12.000"
    	xmlns="http://www.w3.org/2000/svg"
		xmlns:xlink="http://www.w3.org/1999/xlink">
	<g transform="translate(0.100 0.100)">
<path id="stem" d="M 0.565 0.769 L 0.565 5.969 L 0.308 5.969 L 0.308 0.769 L 0.126 0.867 L 0.269 0.572 C 0.174 0.538 0.084 0.495 0.000 0.443 C 0.000 0.443 0.210 0.402 0.295 0.423 C 0.351 0.437 0.396 0.000 0.396 0.000 C 0.396 0.000 0.528 0.283 0.528 0.382 C 0.528 0.436 0.872 0.314 0.883 0.332 C 0.902 0.366 0.589 0.536 0.602 0.559 C 0.616 0.582 0.697 0.731 0.793 0.836 C 0.888 0.942 0.565 0.769 0.565 0.769" style="fill:none;stroke:black;stroke-width:0.012" />
</g>
<g transform="translate(0.100 6.269)">
<path id="spacer" d="M 0.250 0.000 C 0.388 0.000 0.500 0.112 0.500 0.250 C 0.500 0.388 0.388 0.500 0.250 0.500 C 0.112 0.500 0.000 0.388 0.000 0.250 C 0.000 0.112 0.112 0.000 0.250 0.000 M 0.347 0.371 L 0.347 0.129 L 0.154 0.129 L 0.154 0.371 L 0.347 0.371" style="fill:none;stroke:black;stroke-width:0.012" />
</g>
<g transform="translate(0.100 6.969)">
<path id="spacer" d="M 0.250 0.000 C 0.388 0.000 0.500 0.112 0.500 0.250 C 0.500 0.388 0.388 0.500 0.250 0.500 C 0.112 0.500 0.000 0.388 0.000 0.250 C 0.000 0.112 0.112 0.000 0.250 0.000 M 0.347 0.371 L 0.347 0.129 L 0.154 0.129 L 0.154 0.371 L 0.347 0.371" style="fill:none;stroke:black;stroke-width:0.012" />
</g>
<g transform="translate(0.100 7.669)">
<path id="spacer" d="M 0.250 0.000 C 0.388 0.000 0.500 0.112 0.500 0.250 C 0.500 0.388 0.388 0.500 0.250 0.500 C 0.112 0.500 0.000 0.388 0.000 0.250 C 0.000 0.112 0.112 0.000 0.250 0.000 M 0.347 0.371 L 0.347 0.129 L 0.154 0.129 L 0.154 0.371 L 0.347 0.371" style="fill:none;stroke:black;stroke-width:0.012" />
</g>
<g transform="translate(0.100 8.369)">
<path id="spacer" d="M 0.250 0.000 C 0.388 0.000 0.500 0.112 0.500 0.250 C 0.500 0.388 0.388 0.500 0.250 0.500 C 0.112 0.500 0.000 0.388 0.000 0.250 C 0.000 0.112 0.112 0.000 0.250 0.000 M 0.347 0.371 L 0.347 0.129 L 0.154 0.129 L 0.154 0.371 L 0.347 0.371" style="fill:none;stroke:black;stroke-width:0.012" />
</g>
<g transform="translate(0.100 9.069)">
<path id="spacer" d="M 0.250 0.000 C 0.388 0.000 0.500 0.112 0.500 0.250 C 0.500 0.388 0.388 0.500 0.250 0.500 C 0.112 0.500 0.000 0.388 0.000 0.250 C 0.000 0.112 0.112 0.000 0.250 0.000 M 0.347 0.371 L 0.347 0.129 L 0.154 0.129 L 0.154 0.371 L 0.347 0.371" style="fill:none;stroke:black;stroke-width:0.012" />
</g>
<g transform="translate(0.100 9.769)">
<path id="spacer" d="M 0.250 0.000 C 0.388 0.000 0.500 0.112 0.500 0.250 C 0.500 0.388 0.388 0.500 0.250 0.500 C 0.112 0.500 0.000 0.388 0.000 0.250 C 0.000 0.112 0.112 0.000 0.250 0.000 M 0.347 0.371 L 0.347 0.129 L 0.154 0.129 L 0.154 0.371 L 0.347 0.371" style="fill:none;stroke:black;stroke-width:0.012" />
</g>
<g transform="translate(0.100 10.469)">
<path id="spacer" d="M 0.250 0.000 C 0.388 0.000 0.500 0.112 0.500 0.250 C 0.500 0.388 0.388 0.500 0.250 0.500 C 0.112 0.500 0.000 0.388 0.000 0.250 C 0.000 0.112 0.112 0.000 0.250 0.000 M 0.347 0.371 L 0.347 0.129 L 0.154 0.129 L 0.154 0.371 L 0.347 0.371" style="fill:none;stroke:black;stroke-width:0.012" />
</g>
<g transform="translate(0.100 11.169)">
<path id="spacer" d="M 0.250 0.000 C 0.388 0.000 0.500 0.112 0.500 0.250 C 0.500 0.388 0.388 0.500 0.250 0.500 C 0.112 0.500 0.000 0.388 0.000 0.250 C 0.000 0.112 0.112 0.000 0.250 0.000 M 0.347 0.371 L 0.347 0.129 L 0.154 0.129 L 0.154 0.371 L 0.347 0.371" style="fill:none;stroke:black;stroke-width:0.012" />
</g>
<g transform="translate(1.183 0.100)">
<path id="spacer" d="M 0.250 0.000 C 0.388 0.000 0.500 0.112 0.500 0.250 C 0.500 0.388 0.388 0.500 0.250 0.500 C 0.112 0.500 0.000 0.388 0.000 0.250 C 0.000 0.112 0.112 0.000 0.250 0.000 M 0.347 0.371 L 0.347 0.129 L 0.154 0.129 L 0.154 0.371 L 0.347 0.371" style="fill:none;stroke:black;stroke-width:0.012" />
</g>
<g transform="translate(1.883 0.100)">
<path id="spacer" d="M 0.250 0.000 C 0.388 0.000 0.500 0.112 0.500 0.250 C 0.500 0.388 0.388 0.500 0.250 0.500 C 0.112 0.500 0.000 0.388 0.000 0.250 C 0.000 0.112 0.112 0.000 0.250 0.000 M 0.347 0.371 L 0.347 0.129 L 0.154 0.129 L 0.154 0.371 L 0.347 0.371" style="fill:none;stroke:black;stroke-width:0.012" />
</g>
<g transform="translate(2.583 0.100)">
<path id="spacer" d="M 0.250 0.000 C 0.388 0.000 0.500 0.112 0.500 0.250 C 0.500 0.388 0.388 0.500 0.250 0.500 C 0.112 0.500 0.000 0.388 0.000 0.250 C 0.000 0.112 0.112 0.000 0.250 0.000 M 0.347 0.371 L 0.347 0.129 L 0.154 0.129 L 0.154 0.371 L 0.347 0.371" style="fill:none;stroke:black;stroke-width:0.012" />
</g>
<g transform="translate(3.283 0.100)">
<path id="spacer" d="M 0.250 0.000 C 0.388 0.000 0.500 0.112 0.500 0.250 C 0.500 0.388 0.388 0.500 0.250 0.500 C 0.112 0.500 0.000 0.388 0.000 0.250 C 0.000 0.112 0.112 0.000 0.250 0.000 M 0.347 0.371 L 0.347 0.129 L 0.154 0.129 L 0.154 0.371 L 0.347 0.371" style="fill:none;stroke:black;stroke-width:0.012" />
</g>
<g transform="translate(3.983 0.100)">
<path id="spacer" d="M 0.250 0.000 C 0.388 0.000 0.500 0.112 0.500 0.250 C 0.500 0.388 0.388 0.500 0.250 0.500 C 0.112 0.500 0.000 0.388 0.000 0.250 C 0.000 0.112 0.112 0.000 0.250 0.000 M 0.347 0.371 L 0.347 0.129 L 0.154 0.129 L 0.154 0.371 L 0.347 0.371" style="fill:none;stroke:black;stroke-width:0.012" />
</g>
<g transform="translate(4.683 0.100)">
<path id="spacer" d="M 0.250 0.000 C 0.388 0.000 0.500 0.112 0.500 0.250 C 0.500 0.388 0.388 0.500 0.250 0.500 C 0.112 0.500 0.000 0.388 0.000 0.250 C 0.000 0.112 0.112 0.000 0.250 0.000 M 0.347 0.371 L 0.347 0.129 L 0.154 0.129 L 0.154 0.371 L 0.347 0.371" style="fill:none;stroke:black;stroke-width:0.012" />
</g>
<g transform="translate(1.183 0.800)">
<path id="tree_base" d="M 0.625 0.000 C 0.970 0.000 1.250 0.280 1.250 0.625 C 1.250 0.970 0.970 1.250 0.625 1.250 C 0.280 1.250 0.000 0.970 0.000 0.625 C 0.000 0.280 0.280 0.000 0.625 0.000 M 0.722 0.746 L 0.722 0.503 L 0.528 0.503 L 0.528 0.746 L 0.722 0.746" style="fill:none;stroke:black;stroke-width:0.012" />
</g>
<g transform="translate(1.183 2.250)">
<path id="branches" d="M 0.234 2.700 C 0.234 2.704 0.823 2.598 0.894 2.700 C 0.965 2.802 1.023 3.278 1.191 3.249 C 1.359 3.219 1.396 2.637 1.493 2.664 C 1.590 2.691 2.054 3.208 2.140 3.077 C 2.226 2.946 2.250 2.520 2.173 2.399 C 2.096 2.277 2.841 2.437 2.823 2.339 C 2.804 2.241 2.455 1.873 2.551 1.695 C 2.646 1.517 3.233 1.531 3.233 1.531 C 3.393 1.381 2.365 0.982 2.371 1.039 C 2.387 1.193 2.570 0.471 2.570 0.471 C 2.294 0.477 2.229 0.523 1.883 0.673 C 1.883 0.673 1.766 0.074 1.652 0.007 C 1.538 -0.060 1.293 0.356 1.099 0.499 C 0.905 0.641 0.251 0.411 0.169 0.673 C 0.087 0.936 0.422 1.148 0.459 1.189 C 0.495 1.230 0.000 1.424 0.000 1.596 C 0.000 1.768 0.469 1.841 0.466 2.040 C 0.464 2.239 0.234 2.697 0.234 2.700 M 1.527 1.505 L 1.723 1.505 L 1.723 1.748 L 1.530 1.748 L 1.530 1.502" style="fill:none;stroke:black;stroke-width:0.012" />
</g>
<g transform="translate(4.633 2.250)">
<path id="branches" d="M 0.000 2.059 C -0.001 2.062 0.540 2.146 0.567 2.261 C 0.593 2.377 0.481 2.833 0.634 2.857 C 0.788 2.882 1.018 2.357 1.092 2.412 C 1.166 2.467 1.388 3.084 1.507 2.990 C 1.625 2.896 1.790 2.512 1.766 2.377 C 1.741 2.242 2.325 2.618 2.343 2.522 C 2.360 2.426 2.186 1.981 2.329 1.846 C 2.471 1.712 2.969 1.905 2.969 1.905 C 3.158 1.817 2.412 1.133 2.398 1.188 C 2.359 1.335 2.762 0.727 2.762 0.727 C 2.523 0.647 2.452 0.670 2.104 0.702 C 2.104 0.702 2.207 0.115 2.132 0.019 C 2.057 -0.078 1.705 0.229 1.491 0.300 C 1.276 0.372 0.793 -0.040 0.634 0.176 C 0.475 0.391 0.689 0.690 0.707 0.739 C 0.724 0.788 0.234 0.814 0.175 0.972 C 0.117 1.130 0.494 1.341 0.424 1.523 C 0.355 1.706 0.001 2.056 0.000 2.059 M 1.596 1.379 L 1.403 1.379 L 1.403 1.621 L 1.596 1.621 L 1.596 1.379" style="fill:none;stroke:black;stroke-width:0.012" />
</g>
<g transform="translate(1.183 5.700)">
<path id="branches" d="M 0.000 1.467 C -0.002 1.469 0.429 1.711 0.415 1.820 C 0.402 1.928 0.164 2.290 0.287 2.360 C 0.409 2.429 0.767 2.044 0.813 2.115 C 0.858 2.186 0.853 2.793 0.982 2.748 C 1.111 2.703 1.371 2.420 1.393 2.294 C 1.414 2.169 1.790 2.679 1.835 2.600 C 1.880 2.522 1.872 2.080 2.034 2.008 C 2.196 1.935 2.557 2.259 2.557 2.259 C 2.744 2.240 2.327 1.413 2.298 1.456 C 2.220 1.571 2.750 1.168 2.750 1.168 C 2.573 1.024 2.506 1.021 2.202 0.941 C 2.202 0.941 2.473 0.461 2.439 0.354 C 2.406 0.247 2.013 0.404 1.809 0.400 C 1.606 0.395 1.326 -0.115 1.124 0.024 C 0.922 0.162 1.010 0.489 1.010 0.537 C 1.010 0.585 0.587 0.455 0.488 0.574 C 0.389 0.694 0.642 0.995 0.526 1.132 C 0.410 1.269 0.002 1.464 0.000 1.467 M 1.278 1.254 L 1.471 1.254 L 1.471 1.496 L 1.278 1.496 L 1.278 1.254" style="fill:none;stroke:black;stroke-width:0.012" />
</g>
<g transform="translate(1.183 8.650)">
<path id="branches" d="M 0.043 0.906 C 0.041 0.908 0.337 1.260 0.291 1.351 C 0.246 1.442 -0.070 1.683 0.014 1.783 C 0.098 1.884 0.525 1.662 0.542 1.739 C 0.559 1.816 0.367 2.347 0.492 2.349 C 0.617 2.352 0.928 2.187 0.985 2.084 C 1.042 1.981 1.209 2.551 1.271 2.496 C 1.334 2.442 1.464 2.052 1.625 2.040 C 1.787 2.029 1.998 2.431 1.998 2.431 C 2.164 2.475 2.061 1.613 2.023 1.641 C 1.920 1.718 2.500 1.535 2.500 1.535 C 2.392 1.352 2.336 1.327 2.099 1.158 C 2.099 1.158 2.480 0.825 2.484 0.720 C 2.489 0.616 2.102 0.626 1.928 0.556 C 1.754 0.486 1.672 -0.052 1.455 0.004 C 1.239 0.060 1.214 0.375 1.198 0.418 C 1.183 0.460 0.860 0.208 0.738 0.281 C 0.616 0.354 0.740 0.700 0.598 0.783 C 0.457 0.866 0.046 0.905 0.043 0.906 M 1.153 1.129 L 1.347 1.129 L 1.347 1.371 L 1.153 1.371 L 1.153 1.129" style="fill:none;stroke:black;stroke-width:0.012" />
</g>
<g transform="translate(4.133 5.700)">
<path id="branches" d="M 0.269 0.317 C 0.267 0.317 0.403 0.712 0.342 0.775 C 0.281 0.838 -0.035 0.942 0.003 1.054 C 0.042 1.167 0.440 1.115 0.432 1.186 C 0.424 1.257 0.126 1.648 0.224 1.690 C 0.322 1.732 0.613 1.692 0.686 1.622 C 0.760 1.553 0.733 2.091 0.798 2.065 C 0.862 2.039 1.073 1.748 1.204 1.791 C 1.334 1.833 1.389 2.242 1.389 2.242 C 1.508 2.334 1.666 1.567 1.628 1.578 C 1.525 1.610 2.034 1.641 2.034 1.641 C 2.000 1.450 1.962 1.411 1.822 1.191 C 1.822 1.191 2.215 1.030 2.248 0.942 C 2.280 0.854 1.972 0.739 1.854 0.623 C 1.737 0.508 1.821 0.023 1.634 0.001 C 1.448 -0.021 1.340 0.240 1.317 0.271 C 1.293 0.302 1.108 -0.016 0.991 0.007 C 0.875 0.030 0.877 0.365 0.742 0.390 C 0.607 0.415 0.272 0.316 0.269 0.317 M 1.029 1.004 L 1.222 1.004 L 1.222 1.247 L 1.029 1.247 L 1.029 1.004" style="fill:none;stroke:black;stroke-width:0.012" />
</g>
<g transform="translate(7.833 2.250)">
<path id="branches" d="M 0.442 0.014 C 0.440 0.014 0.447 0.386 0.375 0.418 C 0.304 0.449 -0.001 0.429 0.000 0.535 C 0.001 0.641 0.364 0.732 0.337 0.788 C 0.310 0.845 -0.062 1.067 0.012 1.135 C 0.085 1.203 0.351 1.268 0.435 1.235 C 0.519 1.202 0.342 1.639 0.406 1.639 C 0.470 1.639 0.737 1.469 0.839 1.548 C 0.941 1.628 0.872 1.985 0.872 1.985 C 0.951 2.100 1.307 1.519 1.270 1.516 C 1.171 1.508 1.607 1.704 1.607 1.704 C 1.631 1.535 1.609 1.490 1.550 1.260 C 1.550 1.260 1.939 1.259 1.992 1.197 C 2.046 1.136 1.809 0.937 1.739 0.802 C 1.670 0.666 1.881 0.293 1.724 0.213 C 1.567 0.132 1.400 0.311 1.370 0.329 C 1.341 0.347 1.269 0.021 1.161 0.001 C 1.053 -0.019 0.959 0.259 0.834 0.234 C 0.709 0.209 0.445 0.015 0.442 0.014 M 0.902 1.120 L 1.098 1.120 L 1.098 0.877 L 0.905 0.877 L 0.905 1.123" style="fill:none;stroke:black;stroke-width:0.012" />
</g>
<g transform="translate(6.583 5.700)">
<path id="branches" d="M 0.696 0.000 C 0.694 -0.001 0.591 0.302 0.521 0.305 C 0.452 0.309 0.198 0.197 0.168 0.283 C 0.139 0.369 0.420 0.556 0.381 0.593 C 0.341 0.630 -0.039 0.694 0.003 0.772 C 0.046 0.850 0.252 0.985 0.333 0.984 C 0.414 0.984 0.137 1.282 0.191 1.302 C 0.245 1.322 0.521 1.267 0.585 1.363 C 0.648 1.459 0.486 1.726 0.486 1.726 C 0.518 1.844 0.990 1.485 0.960 1.471 C 0.879 1.434 1.191 1.728 1.191 1.728 C 1.261 1.599 1.255 1.556 1.272 1.352 C 1.272 1.352 1.602 1.472 1.665 1.439 C 1.729 1.406 1.586 1.171 1.566 1.040 C 1.547 0.909 1.834 0.674 1.725 0.560 C 1.616 0.445 1.421 0.538 1.391 0.543 C 1.361 0.549 1.395 0.263 1.309 0.213 C 1.223 0.163 1.063 0.358 0.964 0.300 C 0.865 0.241 0.698 0.001 0.696 0.000 M 0.779 0.753 L 0.972 0.753 L 0.972 0.996 L 0.779 0.996 L 0.779 0.753" style="fill:none;stroke:black;stroke-width:0.012" />
</g>
<g transform="translate(4.133 8.150)">
<path id="branches" d="M 0.809 0.000 C 0.808 -0.001 0.632 0.207 0.573 0.190 C 0.515 0.172 0.339 0.011 0.289 0.070 C 0.238 0.129 0.415 0.357 0.372 0.375 C 0.328 0.392 -0.006 0.333 0.006 0.406 C 0.018 0.480 0.149 0.645 0.215 0.668 C 0.282 0.692 -0.035 0.846 0.003 0.877 C 0.042 0.908 0.286 0.945 0.310 1.039 C 0.334 1.132 0.120 1.295 0.120 1.295 C 0.112 1.397 0.609 1.251 0.588 1.232 C 0.532 1.179 0.702 1.500 0.702 1.500 C 0.799 1.419 0.807 1.383 0.882 1.228 C 0.882 1.228 1.119 1.417 1.181 1.410 C 1.244 1.402 1.196 1.177 1.219 1.068 C 1.241 0.959 1.549 0.857 1.493 0.736 C 1.437 0.615 1.248 0.632 1.222 0.627 C 1.195 0.623 1.309 0.408 1.252 0.344 C 1.196 0.280 1.005 0.387 0.941 0.313 C 0.877 0.238 0.810 0.001 0.809 0.000 M 0.652 0.630 L 0.848 0.630 L 0.848 0.873 L 0.655 0.873 L 0.655 0.627" style="fill:none;stroke:black;stroke-width:0.012" />
</g>
<g transform="translate(2.633 0.800)">
<path id="branches" d="M 0.931 0.088 C 0.931 0.086 0.730 0.197 0.690 0.169 C 0.649 0.140 0.558 -0.027 0.501 0.004 C 0.444 0.035 0.515 0.253 0.475 0.255 C 0.436 0.257 0.191 0.125 0.178 0.183 C 0.166 0.242 0.219 0.401 0.265 0.436 C 0.310 0.471 0.014 0.504 0.035 0.538 C 0.056 0.571 0.238 0.663 0.229 0.740 C 0.219 0.817 0.002 0.884 0.002 0.884 C -0.035 0.959 0.400 0.979 0.390 0.959 C 0.361 0.905 0.399 1.192 0.399 1.192 C 0.500 1.156 0.517 1.131 0.622 1.033 C 0.622 1.033 0.752 1.239 0.803 1.250 C 0.855 1.260 0.884 1.078 0.935 1.002 C 0.985 0.925 1.258 0.930 1.250 0.823 C 1.242 0.717 1.088 0.680 1.069 0.670 C 1.049 0.659 1.203 0.527 1.178 0.464 C 1.153 0.401 0.970 0.432 0.942 0.358 C 0.914 0.285 0.932 0.089 0.931 0.088 M 0.721 0.503 L 0.528 0.503 L 0.528 0.746 L 0.721 0.746 L 0.721 0.503" style="fill:none;stroke:black;stroke-width:0.012" />
</g>
<g transform="translate(4.083 0.800)">
<path id="branches" d="M 0.928 0.169 C 0.928 0.168 0.747 0.201 0.725 0.169 C 0.703 0.138 0.685 -0.009 0.634 0.000 C 0.582 0.009 0.570 0.189 0.541 0.180 C 0.511 0.172 0.368 0.013 0.342 0.053 C 0.315 0.094 0.308 0.225 0.331 0.262 C 0.355 0.299 0.126 0.250 0.131 0.280 C 0.137 0.311 0.245 0.424 0.215 0.478 C 0.186 0.533 0.005 0.529 0.005 0.529 C -0.044 0.575 0.272 0.698 0.270 0.680 C 0.265 0.633 0.209 0.855 0.209 0.855 C 0.294 0.853 0.314 0.839 0.421 0.793 C 0.421 0.793 0.457 0.977 0.492 0.998 C 0.527 1.018 0.602 0.890 0.662 0.847 C 0.722 0.803 0.923 0.873 0.948 0.793 C 0.973 0.712 0.870 0.647 0.859 0.634 C 0.848 0.622 1.000 0.562 1.000 0.509 C 1.000 0.456 0.856 0.434 0.856 0.372 C 0.857 0.311 0.928 0.170 0.928 0.169 M 0.403 0.379 L 0.596 0.379 L 0.596 0.621 L 0.403 0.621 L 0.403 0.379" style="fill:none;stroke:black;stroke-width:0.012" />
</g>
</svg>
