<?xml version="1.0"?>
	<!-- Generated by github.com/dustismo/heavyfishdesign -->
	<svg width="18.000in" height="11.000in" viewBox="0.000 0.000 18.000 11.000"
    	xmlns="http://www.w3.org/2000/svg"
		xmlns:xlink="http://www.w3.org/1999/xlink">
	<g transform="translate(0.100 0.100)">
<path id="box_bottom" d="M 3.804 4.004 L 3.804 3.857 L 4.004 3.857 L 4.004 3.753 L 4.004 3.650 L 3.804 3.650 L 3.804 3.357 L 4.004 3.357 L 4.004 3.253 L 4.004 3.150 L 3.804 3.150 L 3.804 2.857 L 4.004 2.857 L 4.004 2.753 L 4.004 2.650 L 3.804 2.650 L 3.804 2.357 L 4.004 2.357 L 4.004 2.253 L 4.004 2.150 L 3.804 2.150 L 3.804 1.857 L 4.004 1.857 L 4.004 1.754 L 4.004 1.650 L 3.804 1.650 L 3.804 1.357 L 4.004 1.357 L 4.004 1.254 L 4.004 1.150 L 3.804 1.150 L 3.804 0.857 L 4.004 0.857 L 4.004 0.753 L 4.004 0.650 L 3.804 0.650 L 3.804 0.357 L 4.004 0.357 L 4.004 0.254 L 4.004 0.000 L 3.750 0.000 L 3.647 0.000 L 3.647 0.200 L 3.354 0.200 L 3.354 0.000 L 3.250 0.000 L 3.147 0.000 L 3.147 0.200 L 2.854 0.200 L 2.854 0.000 L 2.750 0.000 L 2.647 0.000 L 2.647 0.200 L 2.354 0.200 L 2.354 0.000 L 2.250 0.000 L 2.147 0.000 L 2.147 0.200 L 1.854 0.200 L 1.854 0.000 L 1.750 0.000 L 1.647 0.000 L 1.647 0.200 L 1.354 0.200 L 1.354 0.000 L 1.250 0.000 L 1.147 0.000 L 1.147 0.200 L 0.854 0.200 L 0.854 0.000 L 0.750 0.000 L 0.647 0.000 L 0.647 0.200 L 0.354 0.200 L 0.354 0.000 L 0.250 0.000 L 0.147 0.000 L 0.147 0.200 L 0.000 0.200 M 0.000 4.004 L 0.000 0.000 M 0.000 0.000 M 0.000 0.000 M 4.004 4.004 L 0.000 4.004" style="fill:none;stroke:black;stroke-width:0.012" />
</g>
<g transform="translate(0.100 4.304)">
<path id="box_bottom" d="M 0.000 0.200 L 0.147 0.200 L 0.147 0.000 L 0.250 0.000 L 0.354 0.000 L 0.354 0.200 L 0.647 0.200 L 0.647 0.000 L 0.750 0.000 L 0.854 0.000 L 0.854 0.200 L 1.147 0.200 L 1.147 0.000 L 1.250 0.000 L 1.354 0.000 L 1.354 0.200 L 1.647 0.200 L 1.647 0.000 L 1.750 0.000 L 1.854 0.000 L 1.854 0.200 L 2.147 0.200 L 2.147 0.000 L 2.250 0.000 L 2.354 0.000 L 2.354 0.200 L 2.647 0.200 L 2.647 0.000 L 2.750 0.000 L 2.854 0.000 L 2.854 0.200 L 3.147 0.200 L 3.147 0.000 L 3.250 0.000 L 3.354 0.000 L 3.354 0.200 L 3.647 0.200 L 3.647 0.000 L 3.750 0.000 L 4.004 0.000 L 4.004 0.254 L 4.004 0.357 L 3.804 0.357 L 3.804 0.650 L 4.004 0.650 L 4.004 0.754 L 4.004 0.857 L 3.804 0.857 L 3.804 1.150 L 4.004 1.150 L 4.004 1.254 L 4.004 1.357 L 3.804 1.357 L 3.804 1.650 L 4.004 1.650 L 4.004 1.754 L 4.004 1.857 L 3.804 1.857 L 3.804 2.150 L 4.004 2.150 L 4.004 2.254 L 4.004 2.357 L 3.804 2.357 L 3.804 2.650 L 4.004 2.650 L 4.004 2.754 L 4.004 2.857 L 3.804 2.857 L 3.804 3.150 L 4.004 3.150 L 4.004 3.254 L 4.004 3.357 L 3.804 3.357 L 3.804 3.650 L 4.004 3.650 L 4.004 3.754 L 4.004 3.857 L 3.804 3.857 L 3.804 4.004 M 0.000 0.000 L 0.000 4.004 M 0.000 0.000 M 0.000 0.000 M 4.004 4.004 L 0.000 4.004" style="fill:none;stroke:black;stroke-width:0.012" />
</g>
<g transform="translate(4.304 0.100)">
<path id="box_bottom" d="M 0.000 0.200 L 0.146 0.200 L 0.146 0.000 L 0.250 0.000 L 0.353 0.000 L 0.353 0.200 L 0.646 0.200 L 0.646 0.000 L 0.750 0.000 L 0.853 0.000 L 0.853 0.200 L 1.146 0.200 L 1.146 0.000 L 1.250 0.000 L 1.353 0.000 L 1.353 0.200 L 1.646 0.200 L 1.646 0.000 L 1.750 0.000 L 1.853 0.000 L 1.853 0.200 L 2.146 0.200 L 2.146 0.000 L 2.250 0.000 L 2.353 0.000 L 2.353 0.200 L 2.646 0.200 L 2.646 0.000 L 2.750 0.000 L 2.853 0.000 L 2.853 0.200 L 3.146 0.200 L 3.146 0.000 L 3.250 0.000 L 3.353 0.000 L 3.353 0.200 L 3.646 0.200 L 3.646 0.000 L 3.750 0.000 L 4.004 0.000 L 4.004 0.254 L 4.004 0.357 L 3.803 0.357 L 3.803 0.650 L 4.004 0.650 L 4.004 0.753 L 4.004 0.857 L 3.803 0.857 L 3.803 1.150 L 4.004 1.150 L 4.004 1.254 L 4.004 1.357 L 3.803 1.357 L 3.803 1.650 L 4.004 1.650 L 4.004 1.754 L 4.004 1.857 L 3.803 1.857 L 3.803 2.150 L 4.004 2.150 L 4.004 2.253 L 4.004 2.357 L 3.803 2.357 L 3.803 2.650 L 4.004 2.650 L 4.004 2.753 L 4.004 2.857 L 3.803 2.857 L 3.803 3.150 L 4.004 3.150 L 4.004 3.253 L 4.004 3.357 L 3.803 3.357 L 3.803 3.650 L 4.004 3.650 L 4.004 3.753 L 4.004 3.857 L 3.803 3.857 L 3.803 4.004 M 0.000 4.004 L 0.000 0.000 M 0.000 0.000 M 0.000 0.000 M 4.004 4.004 L 0.000 4.004" style="fill:none;stroke:black;stroke-width:0.012" />
</g>
<g transform="translate(4.304 4.304)">
<path id="box_bottom" d="M 0.146 0.000 L 0.146 0.200 L 0.000 0.200 M 3.803 4.004 L 3.803 3.857 L 4.004 3.857 L 4.004 3.754 L 4.004 3.650 L 3.803 3.650 L 3.803 3.357 L 4.004 3.357 L 4.004 3.254 L 4.004 3.150 L 3.803 3.150 L 3.803 2.857 L 4.004 2.857 L 4.004 2.754 L 4.004 2.650 L 3.803 2.650 L 3.803 2.357 L 4.004 2.357 L 4.004 2.254 L 4.004 2.150 L 3.803 2.150 L 3.803 1.857 L 4.004 1.857 L 4.004 1.754 L 4.004 1.650 L 3.803 1.650 L 3.803 1.357 L 4.004 1.357 L 4.004 1.254 L 4.004 1.150 L 3.803 1.150 L 3.803 0.857 L 4.004 0.857 L 4.004 0.754 L 4.004 0.650 L 3.803 0.650 L 3.803 0.357 L 4.004 0.357 L 4.004 0.254 L 4.004 0.000 L 3.750 0.000 L 3.646 0.000 L 3.646 0.200 L 3.353 0.200 L 3.353 0.000 L 3.250 0.000 L 3.146 0.000 L 3.146 0.200 L 2.853 0.200 L 2.853 0.000 L 2.750 0.000 L 2.646 0.000 L 2.646 0.200 L 2.353 0.200 L 2.353 0.000 L 2.250 0.000 L 2.146 0.000 L 2.146 0.200 L 1.853 0.200 L 1.853 0.000 L 1.750 0.000 L 1.646 0.000 L 1.646 0.200 L 1.353 0.200 L 1.353 0.000 L 1.250 0.000 L 1.146 0.000 L 1.146 0.200 L 0.853 0.200 L 0.853 0.000 L 0.750 0.000 L 0.646 0.000 L 0.646 0.200 L 0.353 0.200 L 0.353 0.000 L 0.250 0.000 L 0.146 0.000 M 0.000 0.000 L 0.000 4.004 M 0.000 0.000 M 0.000 0.000 M 4.004 4.004 L 0.000 4.004" style="fill:none;stroke:black;stroke-width:0.012" />
</g>
</svg>
