<?xml version="1.0"?>
	<!-- Generated by github.com/dustismo/heavyfishdesign -->
	<svg width="20.000in" height="12.000in" viewBox="0.000 0.000 20.000 12.000"
    	xmlns="http://www.w3.org/2000/svg"
		xmlns:xlink="http://www.w3.org/1999/xlink">
	<g transform="translate(0.100 0.100)">
<path id="6faa13311574825f" d="M 0.827 0.827 M 1.320 0.827 C 1.592 0.827 1.813 1.048 1.813 1.320 C 1.813 1.592 1.592 1.813 1.320 1.813 C 1.048 1.813 0.827 1.592 0.827 1.320 C 0.827 1.048 1.048 0.827 1.320 0.827 M 0.000 0.000 L 2.640 0.000 L 2.640 2.640 L 0.000 2.640 L 0.000 0.000" style="fill:none;stroke:black;stroke-width:0.012" />
<text x="1.320" y="2.640" style="font: 0.118pt serif; fill: blue">pwn:0</text>
</g>
<g transform="translate(0.100 2.940)">
<path id="6faa13311574825f" d="M 0.870 0.870 M 1.320 0.870 C 1.569 0.870 1.770 1.071 1.770 1.320 C 1.770 1.569 1.569 1.770 1.320 1.770 C 1.071 1.770 0.870 1.569 0.870 1.320 C 0.870 1.071 1.071 0.870 1.320 0.870 M 0.000 0.000 L 2.640 0.000 L 2.640 2.640 L 0.000 2.640 L 0.000 0.000" style="fill:none;stroke:black;stroke-width:0.012" />
<text x="1.320" y="2.640" style="font: 0.118pt serif; fill: blue">pwn:1</text>
</g>
<g transform="translate(0.100 5.780)">
<path id="6faa13311574825f" d="M 0.866 0.866 M 1.320 0.866 C 1.571 0.866 1.774 1.069 1.774 1.320 C 1.774 1.571 1.571 1.774 1.320 1.774 C 1.069 1.774 0.866 1.571 0.866 1.320 C 0.866 1.069 1.069 0.866 1.320 0.866 M 0.000 0.000 L 2.640 0.000 L 2.640 2.640 L 0.000 2.640 L 0.000 0.000" style="fill:none;stroke:black;stroke-width:0.012" />
<text x="1.320" y="2.640" style="font: 0.118pt serif; fill: blue">pwn:2</text>
</g>
<g transform="translate(0.100 8.620)">
<path id="6faa13311574825f" d="M 0.714 0.714 M 1.320 0.714 C 1.654 0.714 1.926 0.985 1.926 1.320 C 1.926 1.654 1.654 1.926 1.320 1.926 C 0.985 1.926 0.714 1.654 0.714 1.320 C 0.714 0.985 0.985 0.714 1.320 0.714 M 0.000 0.000 L 2.640 0.000 L 2.640 2.640 L 0.000 2.640 L 0.000 0.000" style="fill:none;stroke:black;stroke-width:0.012" />
<text x="1.320" y="2.640" style="font: 0.118pt serif; fill: blue">pwn:3</text>
</g>
<g transform="translate(2.940 0.100)">
<path id="6faa13311574825f" d="M 0.481 0.481 M 1.320 0.481 C 1.783 0.481 2.159 0.856 2.159 1.320 C 2.159 1.783 1.783 2.159 1.320 2.159 C 0.856 2.159 0.481 1.783 0.481 1.320 C 0.481 0.856 0.856 0.481 1.320 0.481 M 0.000 0.000 L 2.640 0.000 L 2.640 2.640 L 0.000 2.640 L 0.000 0.000" style="fill:none;stroke:black;stroke-width:0.012" />
<text x="1.320" y="2.640" style="font: 0.118pt serif; fill: blue">pwn:4</text>
</g>
<g transform="translate(2.940 2.940)">
<path id="6faa13311574825f" d="M 0.298 0.298 M 1.320 0.298 C 1.884 0.298 2.342 0.756 2.342 1.320 C 2.342 1.884 1.884 2.342 1.320 2.342 C 0.756 2.342 0.298 1.884 0.298 1.320 C 0.298 0.756 0.756 0.298 1.320 0.298 M 0.000 0.000 L 2.640 0.000 L 2.640 2.640 L 0.000 2.640 L 0.000 0.000" style="fill:none;stroke:black;stroke-width:0.012" />
<text x="1.320" y="2.640" style="font: 0.118pt serif; fill: blue">pwn:5</text>
</g>
<g transform="translate(2.940 5.780)">
<path id="6faa13311574825f" d="M 0.251 0.251 M 1.320 0.251 C 1.910 0.251 2.389 0.729 2.389 1.320 C 2.389 1.910 1.910 2.389 1.320 2.389 C 0.729 2.389 0.251 1.910 0.251 1.320 C 0.251 0.729 0.729 0.251 1.320 0.251 M 0.000 0.000 L 2.640 0.000 L 2.640 2.640 L 0.000 2.640 L 0.000 0.000" style="fill:none;stroke:black;stroke-width:0.012" />
<text x="1.320" y="2.640" style="font: 0.118pt serif; fill: blue">pwn:6</text>
</g>
<g transform="translate(2.940 8.620)">
<path id="afe54322672f7670" d="M 0.000 0.000 L 2.640 0.000 L 2.640 2.640 L 0.000 2.640 L 0.000 0.000" style="fill:none;stroke:black;stroke-width:0.012" />
</g>
</svg>
