<?xml version="1.0"?>
	<!-- Generated by github.com/dustismo/heavyfishdesign -->
	<svg width="20.000in" height="12.000in" viewBox="0.000 0.000 20.000 12.000"
    	xmlns="http://www.w3.org/2000/svg"
		xmlns:xlink="http://www.w3.org/1999/xlink">
	<g transform="translate(0.100 0.100)">
<path id="YpTpzlFPhUhSWZdg" d="M 0.898 0.898 L 0.898 -0.004 L -0.004 -0.004 L -0.004 0.898 L 0.898 0.898 M 0.546 0.542 M 0.546 0.542 L 0.349 0.542 L 0.349 0.349 L 0.542 0.349 L 0.542 0.546" style="fill:none;stroke:black;stroke-width:0.012" />
<text x="0.447" y="0.898" style="font: 0.118pt serif; fill: blue">pwn:0</text>
</g>
<g transform="translate(0.100 1.202)">
<path id="YpTpzlFPhUhSWZdg" d="M -0.004 -0.004 L -0.004 0.883 L 0.883 0.883 L 0.883 -0.004 L -0.004 -0.004 M 0.538 0.534 M 0.538 0.534 L 0.341 0.534 L 0.341 0.341 L 0.534 0.341 L 0.534 0.538" style="fill:none;stroke:black;stroke-width:0.012" />
<text x="0.440" y="0.883" style="font: 0.118pt serif; fill: blue">pwn:1</text>
</g>
<g transform="translate(0.100 2.288)">
<path id="YpTpzlFPhUhSWZdg" d="M 0.514 0.514 L 0.514 -0.004 L -0.004 -0.004 L -0.004 0.514 L 0.514 0.514 M 0.159 0.159 M 0.159 0.159 L 0.352 0.159 L 0.352 0.352 L 0.159 0.352 L 0.159 0.159" style="fill:none;stroke:black;stroke-width:0.012" />
<text x="0.255" y="0.514" style="font: 0.118pt serif; fill: blue">pwn:2</text>
</g>
<g transform="translate(0.100 3.006)">
<path id="YpTpzlFPhUhSWZdg" d="M 0.425 0.425 L 0.425 -0.004 L -0.004 -0.004 L -0.004 0.425 L 0.425 0.425 M 0.309 0.306 M 0.309 0.306 L 0.113 0.306 L 0.113 0.113 L 0.306 0.113 L 0.306 0.309" style="fill:none;stroke:black;stroke-width:0.012" />
<text x="0.211" y="0.425" style="font: 0.118pt serif; fill: blue">pwn:3</text>
</g>
<g transform="translate(0.100 3.634)">
<path id="YpTpzlFPhUhSWZdg" d="M 0.811 0.811 L 0.811 -0.004 L -0.004 -0.004 L -0.004 0.811 L 0.811 0.811 M 0.306 0.309 M 0.306 0.309 L 0.502 0.309 L 0.502 0.502 L 0.309 0.502 L 0.309 0.306" style="fill:none;stroke:black;stroke-width:0.012" />
<text x="0.404" y="0.811" style="font: 0.118pt serif; fill: blue">pwn:4</text>
</g>
<g transform="translate(1.202 0.100)">
<path id="YpTpzlFPhUhSWZdg" d="M 1.155 1.155 L 1.155 -0.004 L -0.004 -0.004 L -0.004 1.155 L 1.155 1.155 M 0.479 0.479 M 0.479 0.479 L 0.672 0.479 L 0.672 0.672 L 0.479 0.672 L 0.479 0.479" style="fill:none;stroke:black;stroke-width:0.012" />
<text x="0.576" y="1.155" style="font: 0.118pt serif; fill: blue">pwn:5</text>
</g>
<g transform="translate(2.560 0.100)">
<path id="YpTpzlFPhUhSWZdg" d="M 1.354 1.354 L 1.354 -0.004 L -0.004 -0.004 L -0.004 1.354 L 1.354 1.354 M 0.579 0.579 M 0.579 0.579 L 0.772 0.579 L 0.772 0.772 L 0.579 0.772 L 0.579 0.579" style="fill:none;stroke:black;stroke-width:0.012" />
<text x="0.675" y="1.354" style="font: 0.118pt serif; fill: blue">pwn:6</text>
</g>
<g transform="translate(4.118 0.100)">
<path id="YpTpzlFPhUhSWZdg" d="M 1.389 1.389 L 1.389 -0.004 L -0.004 -0.004 L -0.004 1.389 L 1.389 1.389 M 0.596 0.596 M 0.596 0.596 L 0.789 0.596 L 0.789 0.789 L 0.596 0.789 L 0.596 0.596" style="fill:none;stroke:black;stroke-width:0.012" />
<text x="0.693" y="1.389" style="font: 0.118pt serif; fill: blue">pwn:7</text>
</g>
<g transform="translate(2.560 1.658)">
<path id="YpTpzlFPhUhSWZdg" d="M -0.004 -0.004 L -0.004 1.211 L 1.211 1.211 L 1.211 -0.004 L -0.004 -0.004 M 0.702 0.698 M 0.702 0.698 L 0.505 0.698 L 0.505 0.505 L 0.698 0.505 L 0.698 0.702" style="fill:none;stroke:black;stroke-width:0.012" />
<text x="0.604" y="1.211" style="font: 0.118pt serif; fill: blue">pwn:8</text>
</g>
<g transform="translate(0.100 4.649)">
<path id="YpTpzlFPhUhSWZdg" d="M -0.004 -0.004 L -0.004 0.651 L 0.651 0.651 L 0.651 -0.004 L -0.004 -0.004 M 0.422 0.418 M 0.422 0.418 L 0.225 0.418 L 0.225 0.225 L 0.418 0.225 L 0.418 0.422" style="fill:none;stroke:black;stroke-width:0.012" />
<text x="0.324" y="0.651" style="font: 0.118pt serif; fill: blue">pwn:9</text>
</g>
<g transform="translate(0.100 5.503)">
<path id="YpTpzlFPhUhSWZdg" d="M -0.004 -0.004 L -0.004 0.514 L 0.514 0.514 L 0.514 -0.004 L -0.004 -0.004 M 0.353 0.350 M 0.353 0.350 L 0.157 0.350 L 0.157 0.157 L 0.350 0.157 L 0.350 0.353" style="fill:none;stroke:black;stroke-width:0.012" />
<text x="0.255" y="0.514" style="font: 0.118pt serif; fill: blue">pwn:10</text>
</g>
<g transform="translate(5.710 0.100)">
<path id="YpTpzlFPhUhSWZdg" d="M 1.956 1.956 L 1.956 -0.004 L -0.004 -0.004 L -0.004 1.956 L 1.956 1.956 M 1.073 1.073 M 1.073 1.073 L 0.880 1.073 L 0.880 0.880 L 1.073 0.880 L 1.073 1.073" style="fill:none;stroke:black;stroke-width:0.012" />
<text x="0.976" y="1.956" style="font: 0.118pt serif; fill: blue">pwn:11</text>
</g>
<g transform="translate(7.870 0.100)">
<path id="YpTpzlFPhUhSWZdg" d="M 2.089 2.089 L 2.089 -0.004 L -0.004 -0.004 L -0.004 2.089 L 2.089 2.089 M 0.946 0.946 M 0.946 0.946 L 1.139 0.946 L 1.139 1.139 L 0.946 1.139 L 0.946 0.946" style="fill:none;stroke:black;stroke-width:0.012" />
<text x="1.043" y="2.089" style="font: 0.118pt serif; fill: blue">pwn:12</text>
</g>
<g transform="translate(0.100 6.221)">
<path id="pMVHZdiyeoUqzMJG" d="M 0.000 0.000 L 0.200 0.000 L 0.200 2.400 L 0.000 2.400 L 0.000 0.000" style="fill:none;stroke:black;stroke-width:0.012" />
</g>
<g transform="translate(0.100 8.821)">
<path id="ItIBhgIvarcSbblm" d="M 0.000 0.000 L 0.895 0.000 L 0.895 0.895 L 0.000 0.895 L 0.000 0.000" style="fill:none;stroke:black;stroke-width:0.012" />
</g>
</svg>
