<?xml version="1.0"?>
	<!-- Generated by github.com/dustismo/heavyfishdesign -->
	<svg width="20.000in" height="12.000in" viewBox="0.000 0.000 20.000 12.000"
    	xmlns="http://www.w3.org/2000/svg"
		xmlns:xlink="http://www.w3.org/1999/xlink">
	<g transform="translate(0.100 0.100)">
<path id="roof_left" d="M 0.000 0.000 L 0.000 5.474 L 5.007 5.474 L 5.007 0.000 L 0.000 0.000 M 0.700 0.465 L 0.700 0.758 L 0.507 0.758 L 0.507 0.465 L 0.700 0.465 M 0.700 1.258 L 0.700 0.965 L 0.507 0.965 L 0.507 1.258 L 0.700 1.258 M 0.700 1.465 L 0.700 1.758 L 0.507 1.758 L 0.507 1.465 L 0.700 1.465 M 0.700 1.965 L 0.700 2.258 L 0.507 2.258 L 0.507 1.965 L 0.700 1.965 M 0.700 2.465 L 0.700 2.758 L 0.507 2.758 L 0.507 2.465 L 0.700 2.465 M 0.700 2.965 L 0.700 3.258 L 0.507 3.258 L 0.507 2.965 L 0.700 2.965 M 0.700 3.465 L 0.700 3.758 L 0.507 3.758 L 0.507 3.465 L 0.700 3.465 M 0.700 3.965 L 0.700 4.258 L 0.507 4.258 L 0.507 3.965 L 0.700 3.965 M 4.500 0.465 L 4.500 0.758 L 4.307 0.758 L 4.307 0.465 L 4.500 0.465 M 4.500 1.258 L 4.500 0.965 L 4.307 0.965 L 4.307 1.258 L 4.500 1.258 M 4.500 1.465 L 4.500 1.758 L 4.307 1.758 L 4.307 1.465 L 4.500 1.465 M 4.500 1.965 L 4.500 2.258 L 4.307 2.258 L 4.307 1.965 L 4.500 1.965 M 4.500 2.465 L 4.500 2.758 L 4.307 2.758 L 4.307 2.465 L 4.500 2.465 M 4.500 2.965 L 4.500 3.258 L 4.307 3.258 L 4.307 2.965 L 4.500 2.965 M 4.500 3.465 L 4.500 3.758 L 4.307 3.758 L 4.307 3.465 L 4.500 3.465 M 4.500 3.965 L 4.500 4.258 L 4.307 4.258 L 4.307 3.965 L 4.500 3.965" style="fill:none;stroke:black;stroke-width:0.012" />
</g>
</svg>
