<?xml version="1.0"?>
	<!-- Generated by github.com/dustismo/heavyfishdesign -->
	<svg width="20.000in" height="12.000in" viewBox="0.000 0.000 20.000 12.000"
    	xmlns="http://www.w3.org/2000/svg"
		xmlns:xlink="http://www.w3.org/1999/xlink">
	<g transform="translate(0.100 0.100)">
<path id="dccaab38308606e5" d="M 0.113 0.000 C 0.175 0.000 0.225 0.050 0.225 0.113 C 0.225 0.175 0.175 0.225 0.113 0.225 C 0.050 0.225 0.000 0.175 0.000 0.113 C 0.000 0.050 0.050 0.000 0.113 0.000 M 1.887 0.000 C 1.950 0.000 2.000 0.050 2.000 0.113 C 2.000 0.175 1.950 0.225 1.887 0.225 C 1.825 0.225 1.775 0.175 1.775 0.113 C 1.775 0.050 1.825 0.000 1.887 0.000 M 1.887 1.775 C 1.950 1.775 2.000 1.825 2.000 1.887 C 2.000 1.950 1.950 2.000 1.887 2.000 C 1.825 2.000 1.775 1.950 1.775 1.887 C 1.775 1.825 1.825 1.775 1.887 1.775 M 0.113 1.775 C 0.175 1.775 0.225 1.825 0.225 1.887 C 0.225 1.950 0.175 2.000 0.113 2.000 C 0.050 2.000 0.000 1.950 0.000 1.887 C 0.000 1.825 0.050 1.775 0.113 1.775" style="fill:none;stroke:black;stroke-width:0.012" />
</g>
</svg>
