<?xml version="1.0"?>
	<!-- Generated by github.com/dustismo/heavyfishdesign -->
	<svg width="20.000in" height="12.000in" viewBox="0.000 0.000 20.000 12.000"
    	xmlns="http://www.w3.org/2000/svg"
		xmlns:xlink="http://www.w3.org/1999/xlink">
	<g transform="translate(0.100 0.100)">
<path id="0bd1bcce084884d3" d="M 10.007 3.850 L 10.007 4.157 L 9.807 4.157 L 9.807 4.253 L 9.807 4.350 L 10.007 4.350 L 10.007 4.657 L 9.807 4.657 L 9.807 4.753 L 9.807 4.850 L 10.007 4.850 L 10.007 5.157 L 9.807 5.157 L 9.807 5.253 L 9.807 5.350 L 10.007 5.350 L 10.007 5.657 L 9.807 5.657 L 9.807 5.753 L 9.807 5.850 L 10.007 5.850 L 10.007 6.157 L 9.807 6.157 L 9.807 6.253 L 9.807 6.350 L 10.007 6.350 L 10.007 6.657 L 9.807 6.657 L 9.807 6.753 L 9.807 6.850 L 10.007 6.850 L 10.007 7.157 L 9.807 7.157 L 9.807 7.253 L 9.807 7.350 L 10.007 7.350 L 10.007 7.657 L 9.807 7.657 L 9.807 7.753 L 9.807 7.850 L 10.007 7.850 L 10.007 8.157 L 9.807 8.157 L 9.807 8.254 L 9.807 8.350 L 10.007 8.350 L 10.007 8.657 L 9.807 8.657 L 9.807 8.754 L 9.807 8.850 L 10.007 8.850 L 10.007 9.157 L 9.807 9.157 L 9.807 9.254 L 9.807 9.350 L 10.007 9.350 L 10.007 9.657 L 9.807 9.657 L 9.807 9.754 L 9.807 10.007 L 0.200 10.007 L 0.200 9.754 L 0.200 9.657 L 0.000 9.657 L 0.000 9.350 L 0.200 9.350 L 0.200 9.254 L 0.200 9.157 L 0.000 9.157 L 0.000 8.850 L 0.200 8.850 L 0.200 8.754 L 0.200 8.657 L 0.000 8.657 L 0.000 8.350 L 0.200 8.350 L 0.200 8.254 L 0.200 8.157 L 0.000 8.157 L 0.000 7.850 L 0.200 7.850 L 0.200 7.753 L 0.200 7.657 L 0.000 7.657 L 0.000 7.350 L 0.200 7.350 L 0.200 7.253 L 0.200 7.157 L 0.000 7.157 L 0.000 6.850 L 0.200 6.850 L 0.200 6.753 L 0.200 6.657 L 0.000 6.657 L 0.000 6.350 L 0.200 6.350 L 0.200 6.253 L 0.200 6.157 L 0.000 6.157 L 0.000 5.850 L 0.200 5.850 L 0.200 5.753 L 0.200 5.657 L 0.000 5.657 L 0.000 5.350 L 0.200 5.350 L 0.200 5.253 L 0.200 5.157 L 0.000 5.157 L 0.000 4.850 L 0.200 4.850 L 0.200 4.753 L 0.200 4.657 L 0.000 4.657 L 0.000 4.350 L 0.200 4.350 L 0.200 4.253 L 0.200 4.157 L 0.000 4.157 L 0.000 3.850 L 0.200 3.850 L 0.200 3.753 L 0.200 3.657 L 0.000 3.657 L 0.000 3.350 L 0.200 3.350 L 0.200 3.253 L 0.200 3.157 L 0.000 3.157 L 0.000 2.850 L 0.200 2.850 L 0.200 2.753 L 0.200 2.657 L 0.000 2.657 L 0.000 2.350 L 0.200 2.350 L 0.200 2.253 L 0.200 2.157 L 0.000 2.157 L 0.000 1.850 L 0.200 1.850 L 0.200 1.754 L 0.200 1.657 L 0.000 1.657 L 0.000 1.350 L 0.200 1.350 L 0.200 1.254 L 0.200 1.157 L 0.000 1.157 L 0.000 0.850 L 0.200 0.850 L 0.200 0.753 L 0.200 0.657 L 0.000 0.657 L 0.000 0.350 L 0.200 0.350 L 0.200 0.254 L 0.200 0.000 L 9.807 0.000 L 9.807 0.254 L 9.807 0.350 L 10.007 0.350 L 10.007 0.657 L 9.807 0.657 L 9.807 0.753 L 9.807 0.850 L 10.007 0.850 L 10.007 1.157 L 9.807 1.157 L 9.807 1.254 L 9.807 1.350 L 10.007 1.350 L 10.007 1.657 L 9.807 1.657 L 9.807 1.754 L 9.807 1.850 L 10.007 1.850 L 10.007 2.157 L 9.807 2.157 L 9.807 2.253 L 9.807 2.350 L 10.007 2.350 L 10.007 2.657 L 9.807 2.657 L 9.807 2.753 L 9.807 2.850 L 10.007 2.850 L 10.007 3.157 L 9.807 3.157 L 9.807 3.253 L 9.807 3.350 L 10.007 3.350 L 10.007 3.657 L 9.807 3.657 L 9.807 3.753 L 9.807 3.850 L 10.007 3.850 M 2.503 2.004 L 7.503 2.004 L 7.503 8.004 L 2.503 8.004 L 2.503 2.003" style="fill:none;stroke:black;stroke-width:0.012" />
</g>
</svg>
