<?xml version="1.0"?>
	<!-- Generated by github.com/dustismo/heavyfishdesign -->
	<svg width="20.000in" height="12.000in" viewBox="0.000 0.000 20.000 12.000"
    	xmlns="http://www.w3.org/2000/svg"
		xmlns:xlink="http://www.w3.org/1999/xlink">
	<g transform="translate(0.100 0.100)">
<path id="box_side" d="M 3.850 6.007 L 4.157 6.007 L 4.157 5.807 L 4.253 5.807 L 4.350 5.807 L 4.350 6.007 L 4.657 6.007 L 4.657 5.807 L 4.753 5.807 L 5.007 5.807 L 5.007 5.404 L 5.007 5.300 L 4.807 5.300 L 4.807 5.007 L 5.007 5.007 L 5.007 4.904 L 5.007 4.800 L 4.807 4.800 L 4.807 4.507 L 5.007 4.507 L 5.007 4.404 L 5.007 4.300 L 4.807 4.300 L 4.807 4.007 L 5.007 4.007 L 5.007 3.903 L 5.007 3.800 L 4.807 3.800 L 4.807 3.507 L 5.007 3.507 L 5.007 3.403 L 5.007 3.300 L 4.807 3.300 L 4.807 3.007 L 5.007 3.007 L 5.007 2.903 L 5.007 2.800 L 4.807 2.800 L 4.807 2.507 L 5.007 2.507 L 5.007 2.403 L 5.007 2.300 L 4.807 2.300 L 4.807 2.007 L 5.007 2.007 L 5.007 1.903 L 5.007 1.800 L 4.807 1.800 L 4.807 1.507 L 5.007 1.507 L 5.007 1.403 L 5.007 1.300 L 4.807 1.300 L 4.807 1.007 L 5.007 1.007 L 5.007 0.903 L 5.007 0.800 L 4.807 0.800 L 4.807 0.507 L 5.007 0.507 L 5.007 0.404 L 5.007 0.000 L 0.000 0.000 L 0.000 0.404 L 0.000 0.507 L 0.200 0.507 L 0.200 0.800 L 0.000 0.800 L 0.000 0.903 L 0.000 1.007 L 0.200 1.007 L 0.200 1.300 L 0.000 1.300 L 0.000 1.403 L 0.000 1.507 L 0.200 1.507 L 0.200 1.800 L 0.000 1.800 L 0.000 1.903 L 0.000 2.007 L 0.200 2.007 L 0.200 2.300 L 0.000 2.300 L 0.000 2.403 L 0.000 2.507 L 0.200 2.507 L 0.200 2.800 L 0.000 2.800 L 0.000 2.903 L 0.000 3.007 L 0.200 3.007 L 0.200 3.300 L 0.000 3.300 L 0.000 3.403 L 0.000 3.507 L 0.200 3.507 L 0.200 3.800 L 0.000 3.800 L 0.000 3.903 L 0.000 4.007 L 0.200 4.007 L 0.200 4.300 L 0.000 4.300 L 0.000 4.404 L 0.000 4.507 L 0.200 4.507 L 0.200 4.800 L 0.000 4.800 L 0.000 4.904 L 0.000 5.007 L 0.200 5.007 L 0.200 5.300 L 0.000 5.300 L 0.000 5.404 L 0.000 5.807 L 0.254 5.807 L 0.350 5.807 L 0.350 6.007 L 0.657 6.007 L 0.657 5.807 L 0.753 5.807 L 0.850 5.807 L 0.850 6.007 L 1.157 6.007 L 1.157 5.807 L 1.254 5.807 L 1.350 5.807 L 1.350 6.007 L 1.657 6.007 L 1.657 5.807 L 1.754 5.807 L 1.850 5.807 L 1.850 6.007 L 2.157 6.007 L 2.157 5.807 L 2.253 5.807 L 2.350 5.807 L 2.350 6.007 L 2.657 6.007 L 2.657 5.807 L 2.753 5.807 L 2.850 5.807 L 2.850 6.007 L 3.157 6.007 L 3.157 5.807 L 3.253 5.807 L 3.350 5.807 L 3.350 6.007 L 3.657 6.007 L 3.657 5.807 L 3.753 5.807 L 3.850 5.807 L 3.850 6.007" style="fill:none;stroke:black;stroke-width:0.012" />
</g>
</svg>
