<?xml version="1.0"?>
	<!-- Generated by github.com/dustismo/heavyfishdesign -->
	<svg width="20.000in" height="12.000in" viewBox="0.000 0.000 20.000 12.000"
    	xmlns="http://www.w3.org/2000/svg"
		xmlns:xlink="http://www.w3.org/1999/xlink">
	<g transform="translate(0.100 0.100)">
<path id="cabinet_side_panel" d="M 3.693 2.510 L 3.403 2.587 L 3.352 2.394 L 3.641 2.317 L 3.693 2.510 M 3.210 2.639 L 2.920 2.717 L 2.869 2.524 L 3.158 2.446 L 3.210 2.639 M 2.703 3.282 L 2.777 3.573 L 2.583 3.622 L 2.509 3.332 L 2.703 3.282 M 2.826 3.767 L 2.900 4.058 L 2.706 4.107 L 2.632 3.816 L 2.826 3.767 M 2.949 4.252 L 3.023 4.543 L 2.829 4.592 L 2.755 4.301 L 2.949 4.252 M 3.072 4.736 L 3.145 5.027 L 2.952 5.076 L 2.878 4.786 L 3.072 4.736 M 3.195 5.221 L 3.268 5.512 L 3.075 5.561 L 3.001 5.270 L 3.195 5.221 M 3.318 5.706 L 3.391 5.996 L 3.197 6.046 L 3.124 5.755 L 3.318 5.706 M 3.440 6.190 L 3.514 6.481 L 3.320 6.530 L 3.247 6.239 L 3.440 6.190 M 3.563 6.675 L 3.637 6.966 L 3.443 7.015 L 3.370 6.724 L 3.563 6.675 M 3.686 7.160 L 3.760 7.450 L 3.566 7.500 L 3.492 7.209 L 3.686 7.160 M 3.809 7.644 L 3.883 7.935 L 3.689 7.984 L 3.615 7.693 L 3.809 7.644 M 4.357 8.432 L 4.656 8.451 L 4.644 8.651 L 4.344 8.632 L 4.357 8.432 M 4.856 8.463 L 5.155 8.482 L 5.143 8.682 L 4.843 8.663 L 4.856 8.463 M 5.355 8.495 L 5.654 8.513 L 5.642 8.713 L 5.342 8.694 L 5.355 8.495 M 5.854 8.526 L 6.153 8.545 L 6.141 8.744 L 5.841 8.725 L 5.854 8.526 M 6.353 8.557 L 6.652 8.576 L 6.640 8.775 L 6.340 8.757 L 6.353 8.557 M 6.852 8.588 L 7.151 8.607 L 7.139 8.806 L 6.839 8.788 L 6.852 8.588 M 7.351 8.619 L 7.650 8.638 L 7.638 8.838 L 7.338 8.819 L 7.351 8.619 M 2.811 0.361 L 2.759 0.168 L 2.659 0.195 L 2.559 0.222 L 2.611 0.415 L 2.328 0.491 L 2.276 0.298 L 2.176 0.324 L 2.076 0.351 L 2.128 0.544 L 1.845 0.620 L 1.793 0.427 L 1.693 0.454 L 1.593 0.481 L 1.645 0.674 L 1.362 0.750 L 1.310 0.556 L 1.210 0.583 L 1.110 0.610 L 1.162 0.803 L 0.879 0.879 L 0.827 0.686 L 0.727 0.713 L 0.627 0.739 L 0.679 0.933 L 0.396 1.008 L 0.344 0.815 L 0.244 0.842 L 0.000 0.907 L 0.000 1.160 L 0.000 1.264 L 0.200 1.264 L 0.200 1.557 L 0.000 1.557 L 0.000 1.660 L 0.000 1.764 L 0.200 1.764 L 0.200 2.057 L 0.000 2.057 L 0.000 2.160 L 0.000 2.264 L 0.200 2.264 L 0.200 2.557 L 0.000 2.557 L 0.000 2.660 L 0.000 2.764 L 0.200 2.764 L 0.200 3.057 L 0.000 3.057 L 0.000 3.160 L 0.000 3.264 L 0.200 3.264 L 0.200 3.557 L 0.000 3.557 L 0.000 3.660 L 0.000 3.764 L 0.200 3.764 L 0.200 4.057 L 0.000 4.057 L 0.000 4.160 L 0.000 4.264 L 0.200 4.264 L 0.200 4.557 L 0.000 4.557 L 0.000 4.660 L 0.000 4.764 L 0.200 4.764 L 0.200 5.057 L 0.000 5.057 L 0.000 5.160 L 0.000 5.264 L 0.200 5.264 L 0.200 5.557 L 0.000 5.557 L 0.000 5.660 L 0.000 5.764 L 0.200 5.764 L 0.200 6.057 L 0.000 6.057 L 0.000 6.160 L 0.000 6.264 L 0.200 6.264 L 0.200 6.557 L 0.000 6.557 L 0.000 6.660 L 0.000 6.764 L 0.200 6.764 L 0.200 7.057 L 0.000 7.057 L 0.000 7.160 L 0.000 7.264 L 0.200 7.264 L 0.200 7.557 L 0.000 7.557 L 0.000 7.660 L 0.000 7.764 L 0.200 7.764 L 0.200 8.057 L 0.000 8.057 L 0.000 8.160 L 0.000 8.264 L 0.200 8.264 L 0.200 8.557 L 0.000 8.557 L 0.000 8.660 L 0.000 8.764 L 0.200 8.764 L 0.200 9.057 L 0.000 9.057 L 0.000 9.160 L 0.000 9.264 L 0.200 9.264 L 0.200 9.557 L 0.000 9.557 L 0.000 9.660 L 0.000 9.764 L 0.200 9.764 L 0.200 10.057 L 0.000 10.057 L 0.000 10.160 L 0.000 10.264 L 0.200 10.264 L 0.200 10.557 L 0.000 10.557 L 0.000 10.660 L 0.000 10.914 L 0.254 10.914 L 0.357 10.914 L 0.357 10.714 L 0.650 10.714 L 0.650 10.914 L 0.753 10.914 L 0.857 10.914 L 0.857 10.714 L 1.150 10.714 L 1.150 10.914 L 1.254 10.914 L 1.357 10.914 L 1.357 10.714 L 1.650 10.714 L 1.650 10.914 L 1.754 10.914 L 1.857 10.914 L 1.857 10.714 L 2.150 10.714 L 2.150 10.914 L 2.253 10.914 L 2.357 10.914 L 2.357 10.714 L 2.650 10.714 L 2.650 10.914 L 2.753 10.914 L 2.857 10.914 L 2.857 10.714 L 3.150 10.714 L 3.150 10.914 L 3.253 10.914 L 3.357 10.914 L 3.357 10.714 L 3.650 10.714 L 3.650 10.914 L 3.753 10.914 L 3.857 10.914 L 3.857 10.714 L 4.150 10.714 L 4.150 10.914 L 4.253 10.914 L 4.357 10.914 L 4.357 10.714 L 4.650 10.714 L 4.650 10.914 L 4.753 10.914 L 4.857 10.914 L 4.857 10.714 L 5.150 10.714 L 5.150 10.914 L 5.253 10.914 L 5.357 10.914 L 5.357 10.714 L 5.650 10.714 L 5.650 10.914 L 5.753 10.914 L 5.857 10.914 L 5.857 10.714 L 6.150 10.714 L 6.150 10.914 L 6.253 10.914 L 6.357 10.914 L 6.357 10.714 L 6.650 10.714 L 6.650 10.914 L 6.753 10.914 L 6.857 10.914 L 6.857 10.714 L 7.150 10.714 L 7.150 10.914 L 7.253 10.914 L 7.357 10.914 L 7.357 10.714 L 7.650 10.714 L 7.650 10.914 L 7.753 10.914 L 8.007 10.914 L 8.007 10.535 L 8.007 10.432 L 7.807 10.432 L 7.807 10.139 L 8.007 10.139 L 8.007 10.035 L 8.007 9.932 L 7.807 9.932 L 7.807 9.639 L 8.007 9.639 L 8.007 9.535 L 8.007 9.432 L 7.807 9.432 L 7.807 9.139 L 8.007 9.139 L 8.007 9.035 L 8.007 8.660 L 8.004 8.657 C 8.003 8.656 8.000 8.656 7.995 8.655 C 7.925 8.638 7.499 8.536 7.073 8.429 C 7.048 8.423 7.023 8.416 6.998 8.410 C 6.596 8.309 6.213 8.208 6.150 8.175 C 6.095 8.146 6.036 8.104 5.977 8.057 C 5.930 8.018 5.882 7.976 5.836 7.934 C 5.785 7.887 5.736 7.840 5.692 7.798 C 5.635 7.745 5.585 7.700 5.548 7.674 C 5.455 7.609 5.236 7.516 5.017 7.406 C 4.796 7.295 4.576 7.167 4.484 7.034 C 4.406 6.919 4.188 6.363 3.971 5.780 C 3.957 5.743 3.943 5.705 3.929 5.668 C 3.681 5.001 3.445 4.335 3.427 4.283 C 3.362 4.098 3.337 3.952 3.337 3.822 C 3.337 3.794 3.338 3.766 3.340 3.739 C 3.352 3.590 3.490 3.369 3.659 3.142 C 3.685 3.108 3.711 3.068 3.737 3.025 C 3.772 2.966 3.807 2.902 3.840 2.838 C 3.948 2.629 4.034 2.421 4.035 2.420 L 4.035 2.418 L 3.970 2.177 L 3.943 2.077 L 3.750 2.129 L 3.674 1.845 L 3.867 1.794 L 3.841 1.694 L 3.814 1.594 L 3.621 1.646 L 3.545 1.363 L 3.738 1.311 L 3.711 1.211 L 3.684 1.111 L 3.491 1.163 L 3.415 0.880 L 3.609 0.828 L 3.582 0.728 L 3.555 0.628 L 3.362 0.680 L 3.286 0.397 L 3.479 0.345 L 3.452 0.245 L 3.387 0.000 L 3.142 0.066 L 3.042 0.092 L 3.094 0.286 L 2.811 0.361" style="fill:none;stroke:black;stroke-width:0.012" />
</g>
</svg>
