<?xml version="1.0"?>
	<!-- Generated by github.com/dustismo/heavyfishdesign -->
	<svg width="20.000in" height="12.000in" viewBox="0.000 0.000 20.000 12.000"
    	xmlns="http://www.w3.org/2000/svg"
		xmlns:xlink="http://www.w3.org/1999/xlink">
	<g transform="translate(0.100 0.100)">
<path id="house_side" d="M 2.503 10.010 L 2.311 9.701 L 2.259 9.620 L 2.090 9.726 L 1.927 9.465 L 2.097 9.359 L 2.046 9.277 L 1.994 9.196 L 1.825 9.302 L 1.662 9.041 L 1.832 8.935 L 1.781 8.853 L 1.729 8.772 L 1.560 8.878 L 1.397 8.617 L 1.567 8.511 L 1.516 8.429 L 1.464 8.348 L 1.295 8.454 L 1.132 8.193 L 1.302 8.087 L 1.251 8.005 L 1.199 7.924 L 1.030 8.030 L 0.867 7.769 L 1.037 7.663 L 0.986 7.581 L 0.934 7.500 L 0.765 7.606 L 0.602 7.345 L 0.772 7.239 L 0.721 7.157 L 0.669 7.076 L 0.500 7.182 L 0.337 6.921 L 0.507 6.815 L 0.456 6.733 L 0.404 6.652 L 0.235 6.758 L 0.072 6.497 L 0.242 6.391 L 0.191 6.309 L 0.000 6.005 L 0.000 5.404 L 0.000 5.300 L 0.200 5.300 L 0.200 5.007 L 0.000 5.007 L 0.000 4.904 L 0.000 4.800 L 0.200 4.800 L 0.200 4.507 L 0.000 4.507 L 0.000 4.404 L 0.000 4.300 L 0.200 4.300 L 0.200 4.007 L 0.000 4.007 L 0.000 3.903 L 0.000 3.800 L 0.200 3.800 L 0.200 3.507 L 0.000 3.507 L 0.000 3.403 L 0.000 3.300 L 0.200 3.300 L 0.200 3.007 L 0.000 3.007 L 0.000 2.903 L 0.000 2.800 L 0.200 2.800 L 0.200 2.507 L 0.000 2.507 L 0.000 2.403 L 0.000 2.300 L 0.200 2.300 L 0.200 2.007 L 0.000 2.007 L 0.000 1.903 L 0.000 1.800 L 0.200 1.800 L 0.200 1.507 L 0.000 1.507 L 0.000 1.403 L 0.000 1.300 L 0.200 1.300 L 0.200 1.007 L 0.000 1.007 L 0.000 0.903 L 0.000 0.800 L 0.200 0.800 L 0.200 0.507 L 0.000 0.507 L 0.000 0.404 L 0.000 0.200 L 0.254 0.200 L 0.350 0.200 L 0.350 0.000 L 0.657 0.000 L 0.657 0.200 L 0.753 0.200 L 0.850 0.200 L 0.850 0.000 L 1.157 0.000 L 1.157 0.200 L 1.254 0.200 L 1.350 0.200 L 1.350 0.000 L 1.657 0.000 L 1.657 0.200 L 1.754 0.200 L 1.850 0.200 L 1.850 0.000 L 2.157 0.000 L 2.157 0.200 L 2.253 0.200 L 2.350 0.200 L 2.350 0.000 L 2.657 0.000 L 2.657 0.200 L 2.753 0.200 L 2.850 0.200 L 2.850 0.000 L 3.157 0.000 L 3.157 0.200 L 3.253 0.200 L 3.350 0.200 L 3.350 0.000 L 3.657 0.000 L 3.657 0.200 L 3.753 0.200 L 3.850 0.200 L 3.850 0.000 L 4.157 0.000 L 4.157 0.200 L 4.253 0.200 L 4.350 0.200 L 4.350 0.000 L 4.657 0.000 L 4.657 0.200 L 4.753 0.200 L 5.007 0.200 L 5.007 0.404 L 5.007 0.507 L 4.807 0.507 L 4.807 0.800 L 5.007 0.800 L 5.007 0.903 L 5.007 1.007 L 4.807 1.007 L 4.807 1.300 L 5.007 1.300 L 5.007 1.403 L 5.007 1.507 L 4.807 1.507 L 4.807 1.800 L 5.007 1.800 L 5.007 1.903 L 5.007 2.007 L 4.807 2.007 L 4.807 2.300 L 5.007 2.300 L 5.007 2.403 L 5.007 2.507 L 4.807 2.507 L 4.807 2.800 L 5.007 2.800 L 5.007 2.903 L 5.007 3.007 L 4.807 3.007 L 4.807 3.300 L 5.007 3.300 L 5.007 3.403 L 5.007 3.507 L 4.807 3.507 L 4.807 3.800 L 5.007 3.800 L 5.007 3.903 L 5.007 4.007 L 4.807 4.007 L 4.807 4.300 L 5.007 4.300 L 5.007 4.404 L 5.007 4.507 L 4.807 4.507 L 4.807 4.800 L 5.007 4.800 L 5.007 4.904 L 5.007 5.007 L 4.807 5.007 L 4.807 5.300 L 5.007 5.300 L 5.007 5.404 L 5.007 6.005 L 4.816 6.309 L 4.765 6.391 L 4.935 6.497 L 4.772 6.758 L 4.603 6.652 L 4.551 6.733 L 4.500 6.815 L 4.670 6.921 L 4.507 7.182 L 4.338 7.076 L 4.286 7.157 L 4.235 7.239 L 4.405 7.345 L 4.242 7.606 L 4.073 7.500 L 4.021 7.581 L 3.970 7.663 L 4.140 7.769 L 3.977 8.030 L 3.808 7.924 L 3.756 8.005 L 3.705 8.087 L 3.875 8.193 L 3.712 8.454 L 3.543 8.348 L 3.491 8.429 L 3.440 8.511 L 3.610 8.617 L 3.447 8.878 L 3.278 8.772 L 3.226 8.853 L 3.175 8.935 L 3.345 9.041 L 3.182 9.302 L 3.013 9.196 L 2.961 9.277 L 2.910 9.359 L 3.080 9.465 L 2.917 9.726 L 2.748 9.620 L 2.696 9.701 L 2.503 10.010" style="fill:none;stroke:black;stroke-width:0.012" />
</g>
</svg>
