<?xml version="1.0"?>
	<!-- Generated by github.com/dustismo/heavyfishdesign -->
	<svg width="12.000in" height="11.000in" viewBox="0.000 0.000 12.000 11.000"
    	xmlns="http://www.w3.org/2000/svg"
		xmlns:xlink="http://www.w3.org/1999/xlink">
	<g transform="translate(0.100 0.100)">
<path id="tray_bottom" d="M 0.000 0.000 L 9.225 0.000 L 9.225 9.225 M 2.000 8.209 C 2.000 8.140 2.056 8.084 2.125 8.084 C 2.194 8.084 2.250 8.140 2.250 8.209 C 2.250 8.278 2.194 8.334 2.125 8.334 C 2.056 8.334 2.000 8.278 2.000 8.209 M 8.833 0.300 C 8.833 0.231 8.889 0.175 8.958 0.175 C 9.027 0.175 9.083 0.231 9.083 0.300 C 9.083 0.369 9.027 0.425 8.958 0.425 C 8.889 0.425 8.833 0.369 8.833 0.300 M 0.100 0.000 L 0.100 9.225 M 0.000 0.000 M 0.000 0.000 M 9.225 9.125 L 0.000 9.125" style="fill:none;stroke:black;stroke-width:0.012" />
</g>
</svg>
