<?xml version="1.0"?>
	<!-- Generated by github.com/dustismo/heavyfishdesign -->
	<svg width="12.000in" height="11.000in" viewBox="0.000 0.000 12.000 11.000"
    	xmlns="http://www.w3.org/2000/svg"
		xmlns:xlink="http://www.w3.org/1999/xlink">
	<g transform="translate(0.100 0.100)">
<path id="tray_2" d="M 9.175 9.175 L 0.000 9.175 L 0.000 0.000 M 3.050 8.875 C 3.326 8.875 3.550 8.651 3.550 8.375 L 3.550 0.000 M 0.300 0.000 L 0.300 8.375 C 0.300 8.651 0.524 8.875 0.800 8.875 L 3.050 8.875 M 6.300 8.875 C 6.576 8.875 6.800 8.651 6.800 8.375 L 6.800 0.000 M 3.850 0.000 L 3.850 8.375 C 3.850 8.651 4.074 8.875 4.350 8.875 L 6.300 8.875 M 9.175 1.091 L 7.600 1.091 C 7.324 1.091 7.100 1.315 7.100 1.591 L 7.100 8.341 C 7.100 8.617 7.324 8.841 7.600 8.841 L 9.175 8.841 M 7.100 0.000 L 7.100 0.291 C 7.100 0.567 7.324 0.791 7.600 0.791 L 9.175 0.791 M 7.225 0.966 C 7.225 1.035 7.169 1.091 7.100 1.091 C 7.031 1.091 6.975 1.035 6.975 0.966 C 6.975 0.897 7.031 0.841 7.100 0.841 C 7.169 0.841 7.225 0.897 7.225 0.966 M 0.392 8.875 C 0.392 8.944 0.336 9.000 0.267 9.000 C 0.198 9.000 0.142 8.944 0.142 8.875 C 0.142 8.806 0.198 8.750 0.267 8.750 C 0.336 8.750 0.392 8.806 0.392 8.875 M 9.075 9.175 L 9.075 0.000 M 0.000 9.175 M 0.000 9.175 M 9.175 0.100 L 0.000 0.100" style="fill:none;stroke:black;stroke-width:0.012" />
</g>
</svg>
