<?xml version="1.0"?>
	<!-- Generated by github.com/dustismo/heavyfishdesign -->
	<svg width="12.000in" height="11.000in" viewBox="0.000 0.000 12.000 11.000"
    	xmlns="http://www.w3.org/2000/svg"
		xmlns:xlink="http://www.w3.org/1999/xlink">
	<g transform="translate(0.100 0.100)">
<path id="tray_2" d="M 9.175 10.775 L 9.175 0.000 L 0.000 0.000 M 5.625 10.775 L 5.625 9.950 C 5.625 9.674 5.849 9.450 6.125 9.450 L 8.375 9.450 C 8.651 9.450 8.875 9.674 8.875 9.950 L 8.875 10.775 M 2.375 10.775 L 2.375 9.950 C 2.375 9.674 2.599 9.450 2.875 9.450 L 4.825 9.450 C 5.101 9.450 5.325 9.674 5.325 9.950 L 5.325 10.775 M 2.875 7.521 C 2.599 7.521 2.375 7.297 2.375 7.021 L 2.375 0.800 C 2.375 0.524 2.599 0.300 2.875 0.300 L 5.332 0.300 C 5.608 0.300 5.832 0.524 5.832 0.800 L 5.832 7.021 C 5.832 7.297 5.608 7.521 5.332 7.521 L 2.875 7.521 M 6.632 7.521 C 6.356 7.521 6.132 7.297 6.132 7.021 L 6.132 0.800 C 6.132 0.524 6.356 0.300 6.632 0.300 L 8.375 0.300 C 8.651 0.300 8.875 0.524 8.875 0.800 L 8.875 7.021 C 8.875 7.297 8.651 7.521 8.375 7.521 L 6.632 7.521 M 0.000 8.412 L 1.575 8.412 C 1.851 8.412 2.075 8.636 2.075 8.912 L 2.075 10.775 M 2.875 9.150 C 2.599 9.150 2.375 8.926 2.375 8.650 L 2.375 8.323 C 2.375 8.047 2.599 7.823 2.875 7.823 L 8.375 7.823 C 8.651 7.823 8.875 8.047 8.875 8.323 L 8.875 8.650 C 8.875 8.926 8.651 9.150 8.375 9.150 L 2.875 9.150 M 0.000 4.541 L 1.575 4.541 C 1.851 4.541 2.075 4.765 2.075 5.041 L 2.075 7.612 C 2.075 7.888 1.851 8.112 1.575 8.112 L 0.000 8.112 M 0.000 0.300 L 1.575 0.300 C 1.851 0.300 2.075 0.524 2.075 0.800 L 2.075 3.741 C 2.075 4.017 1.851 4.241 1.575 4.241 L 0.000 4.241 M 2.198 7.700 C 2.198 7.769 2.254 7.825 2.323 7.825 C 2.392 7.825 2.448 7.769 2.448 7.700 C 2.448 7.631 2.392 7.575 2.323 7.575 C 2.254 7.575 2.198 7.631 2.198 7.700 M 2.073 0.300 C 2.073 0.369 2.129 0.425 2.198 0.425 C 2.267 0.425 2.323 0.369 2.323 0.300 C 2.323 0.231 2.267 0.175 2.198 0.175 C 2.129 0.175 2.073 0.231 2.073 0.300 M 8.783 0.300 C 8.783 0.369 8.839 0.425 8.908 0.425 C 8.977 0.425 9.033 0.369 9.033 0.300 C 9.033 0.231 8.977 0.175 8.908 0.175 C 8.839 0.175 8.783 0.231 8.783 0.300 M 0.100 10.775 L 0.100 0.000 M 0.000 0.000 M 0.000 0.000 M 9.175 10.675 L 0.000 10.675" style="fill:none;stroke:black;stroke-width:0.012" />
</g>
</svg>
