<?xml version="1.0"?>
	<!-- Generated by github.com/dustismo/heavyfishdesign -->
	<svg width="12.000in" height="11.000in" viewBox="0.000 0.000 12.000 11.000"
    	xmlns="http://www.w3.org/2000/svg"
		xmlns:xlink="http://www.w3.org/1999/xlink">
	<g transform="translate(0.100 0.100)">
<path id="tray_2" d="M 10.775 0.000 L 10.775 9.175 L 0.000 9.175 M 7.375 8.875 C 7.651 8.875 7.875 8.651 7.875 8.375 L 7.875 0.000 M 4.925 0.000 L 4.925 8.375 C 4.925 8.651 5.149 8.875 5.425 8.875 L 7.375 8.875 M 7.375 8.875 C 7.651 8.875 7.875 8.651 7.875 8.375 L 7.875 0.000 M 4.925 0.000 L 4.925 8.375 C 4.925 8.651 5.149 8.875 5.425 8.875 L 7.375 8.875 M 9.975 8.875 C 10.251 8.875 10.475 8.651 10.475 8.375 L 10.475 0.000 M 8.175 0.000 L 8.175 8.375 C 8.175 8.651 8.399 8.875 8.675 8.875 L 9.975 8.875 M 4.125 8.875 C 4.401 8.875 4.625 8.651 4.625 8.375 L 4.625 1.591 C 4.625 1.315 4.401 1.091 4.125 1.091 L 1.550 1.091 C 1.274 1.091 1.050 1.315 1.050 1.591 L 1.050 8.375 C 1.050 8.651 1.274 8.875 1.550 8.875 L 4.125 8.875 M 0.250 8.841 C 0.526 8.841 0.750 8.617 0.750 8.341 L 0.750 1.591 C 0.750 1.315 0.526 1.091 0.250 1.091 L 0.000 1.091 M 0.000 8.841 L 0.250 8.841 M 4.125 0.791 C 4.401 0.791 4.625 0.567 4.625 0.291 L 4.625 0.000 M 0.000 0.791 L 4.125 0.791 M 4.823 0.966 C 4.823 1.035 4.767 1.091 4.698 1.091 C 4.629 1.091 4.573 1.035 4.573 0.966 C 4.573 0.897 4.629 0.841 4.698 0.841 C 4.767 0.841 4.823 0.897 4.823 0.966 M 10.617 8.920 C 10.617 8.989 10.561 9.045 10.492 9.045 C 10.423 9.045 10.367 8.989 10.367 8.920 C 10.367 8.851 10.423 8.795 10.492 8.795 C 10.561 8.795 10.617 8.851 10.617 8.920 M 0.100 9.175 L 0.100 0.000 M 0.000 9.175 M 0.000 9.175 M 10.775 0.100 L 0.000 0.100" style="fill:none;stroke:black;stroke-width:0.012" />
</g>
</svg>
