<?xml version="1.0"?>
	<!-- Generated by github.com/dustismo/heavyfishdesign -->
	<svg width="12.000in" height="11.000in" viewBox="0.000 0.000 12.000 11.000"
    	xmlns="http://www.w3.org/2000/svg"
		xmlns:xlink="http://www.w3.org/1999/xlink">
	<g transform="translate(0.100 0.100)">
<path id="tray_1" d="M 9.975 0.000 L 9.975 9.975 L 0.000 9.975 M 6.575 9.675 C 6.851 9.675 7.075 9.451 7.075 9.175 L 7.075 0.000 M 4.125 0.000 L 4.125 9.175 C 4.125 9.451 4.349 9.675 4.625 9.675 L 6.575 9.675 M 6.575 9.675 C 6.851 9.675 7.075 9.451 7.075 9.175 L 7.075 0.000 M 4.125 0.000 L 4.125 9.175 C 4.125 9.451 4.349 9.675 4.625 9.675 L 6.575 9.675 M 9.175 9.675 C 9.451 9.675 9.675 9.451 9.675 9.175 L 9.675 0.000 M 7.375 0.000 L 7.375 9.175 C 7.375 9.451 7.599 9.675 7.875 9.675 L 9.175 9.675 M 3.325 9.675 C 3.601 9.675 3.825 9.451 3.825 9.175 L 3.825 2.391 C 3.825 2.115 3.601 1.891 3.325 1.891 L 0.750 1.891 C 0.474 1.891 0.250 2.115 0.250 2.391 L 0.250 9.175 C 0.250 9.451 0.474 9.675 0.750 9.675 L 3.325 9.675 M 3.325 1.591 C 3.601 1.591 3.825 1.367 3.825 1.091 L 3.825 0.000 M 0.000 1.591 L 3.325 1.591 M 4.023 1.766 C 4.023 1.835 3.967 1.891 3.898 1.891 C 3.829 1.891 3.773 1.835 3.773 1.766 C 3.773 1.697 3.829 1.641 3.898 1.641 C 3.967 1.641 4.023 1.697 4.023 1.766 M 9.817 9.720 C 9.817 9.789 9.761 9.845 9.692 9.845 C 9.623 9.845 9.567 9.789 9.567 9.720 C 9.567 9.651 9.623 9.595 9.692 9.595 C 9.761 9.595 9.817 9.651 9.817 9.720 M 0.100 9.975 L 0.100 0.000 M 9.975 0.100 M 9.975 0.100 M 9.975 0.100 L 0.000 0.100" style="fill:none;stroke:black;stroke-width:0.012" />
</g>
</svg>
