<?xml version="1.0"?>
	<!-- Generated by github.com/dustismo/heavyfishdesign -->
	<svg width="12.000in" height="11.000in" viewBox="0.000 0.000 12.000 11.000"
    	xmlns="http://www.w3.org/2000/svg"
		xmlns:xlink="http://www.w3.org/1999/xlink">
	<g transform="translate(0.100 0.100)">
<path id="tray_2" d="M 0.000 0.000 L 9.175 0.000 L 9.175 9.175 M 6.125 0.300 C 5.849 0.300 5.625 0.524 5.625 0.800 L 5.625 9.175 M 8.875 9.175 L 8.875 0.800 C 8.875 0.524 8.651 0.300 8.375 0.300 L 6.125 0.300 M 2.875 0.300 C 2.599 0.300 2.375 0.524 2.375 0.800 L 2.375 9.175 M 5.325 9.175 L 5.325 0.800 C 5.325 0.524 5.101 0.300 4.825 0.300 L 2.875 0.300 M 0.000 8.084 L 1.575 8.084 C 1.851 8.084 2.075 7.860 2.075 7.584 L 2.075 0.834 C 2.075 0.558 1.851 0.334 1.575 0.334 L 0.000 0.334 M 2.075 9.175 L 2.075 8.884 C 2.075 8.608 1.851 8.384 1.575 8.384 L 0.000 8.384 M 1.950 8.209 C 1.950 8.140 2.006 8.084 2.075 8.084 C 2.144 8.084 2.200 8.140 2.200 8.209 C 2.200 8.278 2.144 8.334 2.075 8.334 C 2.006 8.334 1.950 8.278 1.950 8.209 M 8.783 0.300 C 8.783 0.231 8.839 0.175 8.908 0.175 C 8.977 0.175 9.033 0.231 9.033 0.300 C 9.033 0.369 8.977 0.425 8.908 0.425 C 8.839 0.425 8.783 0.369 8.783 0.300 M 0.100 0.000 L 0.100 9.175 M 0.000 0.000 M 0.000 0.000 M 9.175 9.075 L 0.000 9.075" style="fill:none;stroke:black;stroke-width:0.012" />
</g>
</svg>
