<?xml version="1.0"?>
	<!-- Generated by github.com/dustismo/heavyfishdesign -->
	<svg width="12.000in" height="11.000in" viewBox="0.000 0.000 12.000 11.000"
    	xmlns="http://www.w3.org/2000/svg"
		xmlns:xlink="http://www.w3.org/1999/xlink">
	<g transform="translate(0.100 0.100)">
<path id="tray_1" d="M 9.975 9.975 L 9.975 0.000 L 0.000 0.000 M 6.575 0.300 C 6.851 0.300 7.075 0.524 7.075 0.800 L 7.075 9.975 M 4.125 9.975 L 4.125 0.800 C 4.125 0.524 4.349 0.300 4.625 0.300 L 6.575 0.300 M 6.575 0.300 C 6.851 0.300 7.075 0.524 7.075 0.800 L 7.075 9.975 M 4.125 9.975 L 4.125 0.800 C 4.125 0.524 4.349 0.300 4.625 0.300 L 6.575 0.300 M 9.175 0.300 C 9.451 0.300 9.675 0.524 9.675 0.800 L 9.675 9.975 M 7.375 9.975 L 7.375 0.800 C 7.375 0.524 7.599 0.300 7.875 0.300 L 9.175 0.300 M 3.325 0.300 C 3.601 0.300 3.825 0.524 3.825 0.800 L 3.825 7.584 C 3.825 7.860 3.601 8.084 3.325 8.084 L 0.750 8.084 C 0.474 8.084 0.250 7.860 0.250 7.584 L 0.250 0.800 C 0.250 0.524 0.474 0.300 0.750 0.300 L 3.325 0.300 M 3.325 8.384 C 3.601 8.384 3.825 8.608 3.825 8.884 L 3.825 9.975 M 0.000 8.384 L 3.325 8.384 M 4.023 8.209 C 4.023 8.140 3.967 8.084 3.898 8.084 C 3.829 8.084 3.773 8.140 3.773 8.209 C 3.773 8.278 3.829 8.334 3.898 8.334 C 3.967 8.334 4.023 8.278 4.023 8.209 M 9.817 0.255 C 9.817 0.186 9.761 0.130 9.692 0.130 C 9.623 0.130 9.567 0.186 9.567 0.255 C 9.567 0.324 9.623 0.380 9.692 0.380 C 9.761 0.380 9.817 0.324 9.817 0.255 M 0.100 0.000 L 0.100 9.975 M 0.000 0.000 M 0.000 0.000 M 9.975 9.875 L 0.000 9.875" style="fill:none;stroke:black;stroke-width:0.012" />
</g>
</svg>
