<?xml version="1.0"?>
	<!-- Generated by github.com/dustismo/heavyfishdesign -->
	<svg width="12.000in" height="11.000in" viewBox="0.000 0.000 12.000 11.000"
    	xmlns="http://www.w3.org/2000/svg"
		xmlns:xlink="http://www.w3.org/1999/xlink">
	<g transform="translate(0.100 0.100)">
<path id="tray_bottom" d="M 9.225 9.225 L 0.000 9.225 L 0.000 0.000 M 7.225 1.016 C 7.225 1.085 7.169 1.141 7.100 1.141 C 7.031 1.141 6.975 1.085 6.975 1.016 C 6.975 0.947 7.031 0.891 7.100 0.891 C 7.169 0.891 7.225 0.947 7.225 1.016 M 0.392 8.925 C 0.392 8.994 0.336 9.050 0.267 9.050 C 0.198 9.050 0.142 8.994 0.142 8.925 C 0.142 8.856 0.198 8.800 0.267 8.800 C 0.336 8.800 0.392 8.856 0.392 8.925 M 9.125 9.225 L 9.125 0.000 M 0.000 9.225 M 0.000 9.225 M 9.225 0.100 L 0.000 0.100" style="fill:none;stroke:black;stroke-width:0.012" />
</g>
</svg>
