<?xml version="1.0"?>
	<!-- Generated by github.com/dustismo/heavyfishdesign -->
	<svg width="12.000in" height="11.000in" viewBox="0.000 0.000 12.000 11.000"
    	xmlns="http://www.w3.org/2000/svg"
		xmlns:xlink="http://www.w3.org/1999/xlink">
	<g transform="translate(0.100 0.100)">
<path id="tray_2" d="M 10.775 9.175 L 10.775 0.000 L 0.000 0.000 M 7.375 0.300 C 7.651 0.300 7.875 0.524 7.875 0.800 L 7.875 9.175 M 4.925 9.175 L 4.925 0.800 C 4.925 0.524 5.149 0.300 5.425 0.300 L 7.375 0.300 M 7.375 0.300 C 7.651 0.300 7.875 0.524 7.875 0.800 L 7.875 9.175 M 4.925 9.175 L 4.925 0.800 C 4.925 0.524 5.149 0.300 5.425 0.300 L 7.375 0.300 M 9.975 0.300 C 10.251 0.300 10.475 0.524 10.475 0.800 L 10.475 9.175 M 8.175 9.175 L 8.175 0.800 C 8.175 0.524 8.399 0.300 8.675 0.300 L 9.975 0.300 M 4.125 0.300 C 4.401 0.300 4.625 0.524 4.625 0.800 L 4.625 7.584 C 4.625 7.860 4.401 8.084 4.125 8.084 L 1.550 8.084 C 1.274 8.084 1.050 7.860 1.050 7.584 L 1.050 0.800 C 1.050 0.524 1.274 0.300 1.550 0.300 L 4.125 0.300 M 0.250 0.334 C 0.526 0.334 0.750 0.558 0.750 0.834 L 0.750 7.584 C 0.750 7.860 0.526 8.084 0.250 8.084 L 0.000 8.084 M 0.000 0.334 L 0.250 0.334 M 4.125 8.384 C 4.401 8.384 4.625 8.608 4.625 8.884 L 4.625 9.175 M 0.000 8.384 L 4.125 8.384 M 4.823 8.209 C 4.823 8.140 4.767 8.084 4.698 8.084 C 4.629 8.084 4.573 8.140 4.573 8.209 C 4.573 8.278 4.629 8.334 4.698 8.334 C 4.767 8.334 4.823 8.278 4.823 8.209 M 10.617 0.255 C 10.617 0.186 10.561 0.130 10.492 0.130 C 10.423 0.130 10.367 0.186 10.367 0.255 C 10.367 0.324 10.423 0.380 10.492 0.380 C 10.561 0.380 10.617 0.324 10.617 0.255 M 0.100 0.000 L 0.100 9.175 M 0.000 0.000 M 0.000 0.000 M 10.775 9.075 L 0.000 9.075" style="fill:none;stroke:black;stroke-width:0.012" />
</g>
</svg>
