<?xml version="1.0"?>
	<!-- Generated by github.com/dustismo/heavyfishdesign -->
	<svg width="12.000in" height="11.000in" viewBox="0.000 0.000 12.000 11.000"
    	xmlns="http://www.w3.org/2000/svg"
		xmlns:xlink="http://www.w3.org/1999/xlink">
	<g transform="translate(0.100 0.100)">
<path id="tray_bottom" d="M 10.725 9.225 L 10.725 0.000 L 0.000 0.000 M 4.773 8.209 C 4.773 8.140 4.717 8.084 4.648 8.084 C 4.579 8.084 4.523 8.140 4.523 8.209 C 4.523 8.278 4.579 8.334 4.648 8.334 C 4.717 8.334 4.773 8.278 4.773 8.209 M 10.567 0.255 C 10.567 0.186 10.511 0.130 10.442 0.130 C 10.373 0.130 10.317 0.186 10.317 0.255 C 10.317 0.324 10.373 0.380 10.442 0.380 C 10.511 0.380 10.567 0.324 10.567 0.255 M 0.100 0.000 L 0.100 9.225 M 0.000 0.000 M 0.000 0.000 M 10.725 9.125 L 0.000 9.125" style="fill:none;stroke:black;stroke-width:0.012" />
</g>
</svg>
