<?xml version="1.0"?>
	<!-- Generated by github.com/dustismo/heavyfishdesign -->
	<svg width="12.000in" height="11.000in" viewBox="0.000 0.000 12.000 11.000"
    	xmlns="http://www.w3.org/2000/svg"
		xmlns:xlink="http://www.w3.org/1999/xlink">
	<g transform="translate(0.100 0.100)">
<path id="tray_bottom" d="M 0.000 10.725 L 0.000 0.000 L 9.225 0.000 M 6.977 7.700 C 6.977 7.769 6.921 7.825 6.852 7.825 C 6.783 7.825 6.727 7.769 6.727 7.700 C 6.727 7.631 6.783 7.575 6.852 7.575 C 6.921 7.575 6.977 7.631 6.977 7.700 M 7.102 0.300 C 7.102 0.369 7.046 0.425 6.977 0.425 C 6.908 0.425 6.852 0.369 6.852 0.300 C 6.852 0.231 6.908 0.175 6.977 0.175 C 7.046 0.175 7.102 0.231 7.102 0.300 M 0.392 0.300 C 0.392 0.369 0.336 0.425 0.267 0.425 C 0.198 0.425 0.142 0.369 0.142 0.300 C 0.142 0.231 0.198 0.175 0.267 0.175 C 0.336 0.175 0.392 0.231 0.392 0.300 M 9.125 10.725 L 9.125 0.000 M 0.000 0.000 M 0.000 0.000 M 9.225 10.625 L 0.000 10.625" style="fill:none;stroke:black;stroke-width:0.012" />
</g>
</svg>
