<?xml version="1.0"?>
	<!-- Generated by github.com/dustismo/heavyfishdesign -->
	<svg width="12.000in" height="11.000in" viewBox="0.000 0.000 12.000 11.000"
    	xmlns="http://www.w3.org/2000/svg"
		xmlns:xlink="http://www.w3.org/1999/xlink">
	<g transform="translate(0.100 0.100)">
<path id="tray_bottom" d="M 10.725 0.000 L 10.725 9.225 L 0.000 9.225 M 4.773 1.016 C 4.773 1.085 4.717 1.141 4.648 1.141 C 4.579 1.141 4.523 1.085 4.523 1.016 C 4.523 0.947 4.579 0.891 4.648 0.891 C 4.717 0.891 4.773 0.947 4.773 1.016 M 10.567 8.970 C 10.567 9.039 10.511 9.095 10.442 9.095 C 10.373 9.095 10.317 9.039 10.317 8.970 C 10.317 8.901 10.373 8.845 10.442 8.845 C 10.511 8.845 10.567 8.901 10.567 8.970 M 0.100 9.225 L 0.100 0.000 M 0.000 9.225 M 0.000 9.225 M 10.725 0.100 L 0.000 0.100" style="fill:none;stroke:black;stroke-width:0.012" />
</g>
</svg>
