<?xml version="1.0"?>
	<!-- Generated by github.com/dustismo/heavyfishdesign -->
	<svg width="12.000in" height="11.000in" viewBox="0.000 0.000 12.000 11.000"
    	xmlns="http://www.w3.org/2000/svg"
		xmlns:xlink="http://www.w3.org/1999/xlink">
	<g transform="translate(0.100 0.100)">
<path id="tray_1" d="M 9.975 0.000 L 9.975 9.975 M 0.000 0.000 L 9.975 0.000 M 7.075 9.975 L 7.075 9.062 C 7.075 8.786 6.851 8.562 6.575 8.562 L 4.625 8.562 C 4.349 8.562 4.125 8.786 4.125 9.062 L 4.125 9.975 M 7.075 9.975 L 7.075 9.062 C 7.075 8.786 6.851 8.562 6.575 8.562 L 4.625 8.562 C 4.349 8.562 4.125 8.786 4.125 9.062 L 4.125 9.975 M 9.675 9.975 L 9.675 3.532 C 9.675 3.256 9.451 3.032 9.175 3.032 L 7.875 3.032 C 7.599 3.032 7.375 3.256 7.375 3.532 L 7.375 9.975 M 3.825 9.975 L 3.825 8.912 C 3.825 8.636 3.601 8.412 3.325 8.412 L 0.000 8.412 M 9.175 2.718 C 9.451 2.718 9.675 2.494 9.675 2.218 L 9.675 0.800 C 9.675 0.524 9.451 0.300 9.175 0.300 L 4.625 0.300 C 4.349 0.300 4.125 0.524 4.125 0.800 L 4.125 2.218 C 4.125 2.494 4.349 2.718 4.625 2.718 L 9.175 2.718 M 6.575 8.262 C 6.851 8.262 7.075 8.038 7.075 7.762 L 7.075 3.532 C 7.075 3.256 6.851 3.032 6.575 3.032 L 4.625 3.032 C 4.349 3.032 4.125 3.256 4.125 3.532 L 4.125 7.762 C 4.125 8.038 4.349 8.262 4.625 8.262 L 6.575 8.262 M 3.325 8.112 C 3.601 8.112 3.825 7.888 3.825 7.612 L 3.825 5.041 C 3.825 4.765 3.601 4.541 3.325 4.541 L 0.000 4.541 M 0.000 8.112 L 3.325 8.112 M 3.325 4.241 C 3.601 4.241 3.825 4.017 3.825 3.741 L 3.825 0.800 C 3.825 0.524 3.601 0.300 3.325 0.300 L 0.000 0.300 M 0.000 4.241 L 3.325 4.241 M 9.800 0.300 C 9.800 0.369 9.744 0.425 9.675 0.425 C 9.606 0.425 9.550 0.369 9.550 0.300 C 9.550 0.231 9.606 0.175 9.675 0.175 C 9.744 0.175 9.800 0.231 9.800 0.300 M 4.125 8.375 C 4.125 8.444 4.069 8.500 4.000 8.500 C 3.931 8.500 3.875 8.444 3.875 8.375 C 3.875 8.306 3.931 8.250 4.000 8.250 C 4.069 8.250 4.125 8.306 4.125 8.375 M 0.100 9.975 L 0.100 0.000 M 9.975 9.875 M 9.975 9.875 M 9.975 9.875 L 0.000 9.875" style="fill:none;stroke:black;stroke-width:0.012" />
</g>
</svg>
