<?xml version="1.0"?>
	<!-- Generated by github.com/dustismo/heavyfishdesign -->
	<svg width="12.000in" height="11.000in" viewBox="0.000 0.000 12.000 11.000"
    	xmlns="http://www.w3.org/2000/svg"
		xmlns:xlink="http://www.w3.org/1999/xlink">
	<g transform="translate(0.100 0.100)">
<path id="tray_bottom" d="M 9.225 10.725 L 9.225 0.000 L 0.000 0.000 M 2.248 7.700 C 2.248 7.769 2.304 7.825 2.373 7.825 C 2.442 7.825 2.498 7.769 2.498 7.700 C 2.498 7.631 2.442 7.575 2.373 7.575 C 2.304 7.575 2.248 7.631 2.248 7.700 M 2.123 0.300 C 2.123 0.369 2.179 0.425 2.248 0.425 C 2.317 0.425 2.373 0.369 2.373 0.300 C 2.373 0.231 2.317 0.175 2.248 0.175 C 2.179 0.175 2.123 0.231 2.123 0.300 M 8.833 0.300 C 8.833 0.369 8.889 0.425 8.958 0.425 C 9.027 0.425 9.083 0.369 9.083 0.300 C 9.083 0.231 9.027 0.175 8.958 0.175 C 8.889 0.175 8.833 0.231 8.833 0.300 M 0.100 10.725 L 0.100 0.000 M 0.000 0.000 M 0.000 0.000 M 9.225 10.625 L 0.000 10.625" style="fill:none;stroke:black;stroke-width:0.012" />
</g>
</svg>
