<?xml version="1.0"?>
	<!-- Generated by github.com/dustismo/heavyfishdesign -->
	<svg width="12.000in" height="11.000in" viewBox="0.000 0.000 12.000 11.000"
    	xmlns="http://www.w3.org/2000/svg"
		xmlns:xlink="http://www.w3.org/1999/xlink">
	<g transform="translate(0.100 0.100)">
<path id="tray_bottom" d="M 10.725 0.000 L 10.725 10.725 M 0.000 0.000 L 10.725 0.000 M 10.550 0.300 C 10.550 0.369 10.494 0.425 10.425 0.425 C 10.356 0.425 10.300 0.369 10.300 0.300 C 10.300 0.231 10.356 0.175 10.425 0.175 C 10.494 0.175 10.550 0.231 10.550 0.300 M 4.875 8.375 C 4.875 8.444 4.819 8.500 4.750 8.500 C 4.681 8.500 4.625 8.444 4.625 8.375 C 4.625 8.306 4.681 8.250 4.750 8.250 C 4.819 8.250 4.875 8.306 4.875 8.375 M 0.100 10.725 L 0.100 0.000 M 0.000 0.000 M 0.000 0.000 M 10.725 10.625 L 0.000 10.625" style="fill:none;stroke:black;stroke-width:0.012" />
</g>
</svg>
