<?xml version="1.0"?>
	<!-- Generated by github.com/dustismo/heavyfishdesign -->
	<svg width="12.000in" height="11.000in" viewBox="0.000 0.000 12.000 11.000"
    	xmlns="http://www.w3.org/2000/svg"
		xmlns:xlink="http://www.w3.org/1999/xlink">
	<g transform="translate(0.100 0.100)">
<path id="tray_2" d="M 0.000 10.775 L 0.000 0.000 L 9.175 0.000 M 3.550 10.775 L 3.550 9.950 C 3.550 9.674 3.326 9.450 3.050 9.450 L 0.800 9.450 C 0.524 9.450 0.300 9.674 0.300 9.950 L 0.300 10.775 M 6.800 10.775 L 6.800 9.950 C 6.800 9.674 6.576 9.450 6.300 9.450 L 4.350 9.450 C 4.074 9.450 3.850 9.674 3.850 9.950 L 3.850 10.775 M 6.300 7.521 C 6.576 7.521 6.800 7.297 6.800 7.021 L 6.800 0.800 C 6.800 0.524 6.576 0.300 6.300 0.300 L 3.843 0.300 C 3.567 0.300 3.343 0.524 3.343 0.800 L 3.343 7.021 C 3.343 7.297 3.567 7.521 3.843 7.521 L 6.300 7.521 M 2.543 7.521 C 2.819 7.521 3.043 7.297 3.043 7.021 L 3.043 0.800 C 3.043 0.524 2.819 0.300 2.543 0.300 L 0.800 0.300 C 0.524 0.300 0.300 0.524 0.300 0.800 L 0.300 7.021 C 0.300 7.297 0.524 7.521 0.800 7.521 L 2.543 7.521 M 9.175 8.412 L 7.600 8.412 C 7.324 8.412 7.100 8.636 7.100 8.912 L 7.100 10.775 M 6.300 9.150 C 6.576 9.150 6.800 8.926 6.800 8.650 L 6.800 8.323 C 6.800 8.047 6.576 7.823 6.300 7.823 L 0.800 7.823 C 0.524 7.823 0.300 8.047 0.300 8.323 L 0.300 8.650 C 0.300 8.926 0.524 9.150 0.800 9.150 L 6.300 9.150 M 9.175 4.541 L 7.600 4.541 C 7.324 4.541 7.100 4.765 7.100 5.041 L 7.100 7.612 C 7.100 7.888 7.324 8.112 7.600 8.112 L 9.175 8.112 M 9.175 0.300 L 7.600 0.300 C 7.324 0.300 7.100 0.524 7.100 0.800 L 7.100 3.741 C 7.100 4.017 7.324 4.241 7.600 4.241 L 9.175 4.241 M 6.977 7.700 C 6.977 7.769 6.921 7.825 6.852 7.825 C 6.783 7.825 6.727 7.769 6.727 7.700 C 6.727 7.631 6.783 7.575 6.852 7.575 C 6.921 7.575 6.977 7.631 6.977 7.700 M 7.102 0.300 C 7.102 0.369 7.046 0.425 6.977 0.425 C 6.908 0.425 6.852 0.369 6.852 0.300 C 6.852 0.231 6.908 0.175 6.977 0.175 C 7.046 0.175 7.102 0.231 7.102 0.300 M 0.392 0.300 C 0.392 0.369 0.336 0.425 0.267 0.425 C 0.198 0.425 0.142 0.369 0.142 0.300 C 0.142 0.231 0.198 0.175 0.267 0.175 C 0.336 0.175 0.392 0.231 0.392 0.300 M 9.075 10.775 L 9.075 0.000 M 0.000 0.000 M 0.000 0.000 M 9.175 10.675 L 0.000 10.675" style="fill:none;stroke:black;stroke-width:0.012" />
</g>
</svg>
