<?xml version="1.0"?>
	<!-- Generated by github.com/dustismo/heavyfishdesign -->
	<svg width="12.000in" height="11.000in" viewBox="0.000 0.000 12.000 11.000"
    	xmlns="http://www.w3.org/2000/svg"
		xmlns:xlink="http://www.w3.org/1999/xlink">
	<g transform="translate(0.100 0.100)">
<path id="tray_2" d="M 10.775 0.000 L 10.775 10.775 M 0.000 0.000 L 10.775 0.000 M 7.875 10.775 L 7.875 9.062 C 7.875 8.786 7.651 8.562 7.375 8.562 L 5.425 8.562 C 5.149 8.562 4.925 8.786 4.925 9.062 L 4.925 10.775 M 7.875 10.775 L 7.875 9.062 C 7.875 8.786 7.651 8.562 7.375 8.562 L 5.425 8.562 C 5.149 8.562 4.925 8.786 4.925 9.062 L 4.925 10.775 M 10.475 10.775 L 10.475 3.532 C 10.475 3.256 10.251 3.032 9.975 3.032 L 8.675 3.032 C 8.399 3.032 8.175 3.256 8.175 3.532 L 8.175 10.775 M 4.625 10.775 L 4.625 8.912 C 4.625 8.636 4.401 8.412 4.125 8.412 L 0.000 8.412 M 9.975 2.718 C 10.251 2.718 10.475 2.494 10.475 2.218 L 10.475 0.800 C 10.475 0.524 10.251 0.300 9.975 0.300 L 5.425 0.300 C 5.149 0.300 4.925 0.524 4.925 0.800 L 4.925 2.218 C 4.925 2.494 5.149 2.718 5.425 2.718 L 9.975 2.718 M 7.375 8.262 C 7.651 8.262 7.875 8.038 7.875 7.762 L 7.875 3.532 C 7.875 3.256 7.651 3.032 7.375 3.032 L 5.425 3.032 C 5.149 3.032 4.925 3.256 4.925 3.532 L 4.925 7.762 C 4.925 8.038 5.149 8.262 5.425 8.262 L 7.375 8.262 M 4.125 8.112 C 4.401 8.112 4.625 7.888 4.625 7.612 L 4.625 5.041 C 4.625 4.765 4.401 4.541 4.125 4.541 L 0.000 4.541 M 0.000 8.112 L 4.125 8.112 M 4.125 4.241 C 4.401 4.241 4.625 4.017 4.625 3.741 L 4.625 0.800 C 4.625 0.524 4.401 0.300 4.125 0.300 L 0.000 0.300 M 0.000 4.241 L 4.125 4.241 M 10.600 0.300 C 10.600 0.369 10.544 0.425 10.475 0.425 C 10.406 0.425 10.350 0.369 10.350 0.300 C 10.350 0.231 10.406 0.175 10.475 0.175 C 10.544 0.175 10.600 0.231 10.600 0.300 M 4.925 8.375 C 4.925 8.444 4.869 8.500 4.800 8.500 C 4.731 8.500 4.675 8.444 4.675 8.375 C 4.675 8.306 4.731 8.250 4.800 8.250 C 4.869 8.250 4.925 8.306 4.925 8.375 M 0.100 10.775 L 0.100 0.000 M 10.775 10.675 M 10.775 10.675 M 10.775 10.675 L 0.000 10.675" style="fill:none;stroke:black;stroke-width:0.012" />
</g>
</svg>
