<?xml version="1.0"?>
	<!-- Generated by github.com/dustismo/heavyfishdesign -->
	<svg width="12.000in" height="11.000in" viewBox="0.000 0.000 12.000 11.000"
    	xmlns="http://www.w3.org/2000/svg"
		xmlns:xlink="http://www.w3.org/1999/xlink">
	<g transform="translate(0.100 0.100)">
<path id="tray_1" d="M 9.975 9.975 L 0.000 9.975 L 0.000 0.000 M 3.050 9.675 C 3.326 9.675 3.550 9.451 3.550 9.175 L 3.550 0.175 C 3.550 0.113 3.539 0.054 3.518 0.000 M 0.332 0.000 C 0.311 0.054 0.300 0.113 0.300 0.175 L 0.300 9.175 C 0.300 9.451 0.524 9.675 0.800 9.675 L 3.050 9.675 M 6.300 9.675 C 6.576 9.675 6.800 9.451 6.800 9.175 L 6.800 0.175 C 6.800 0.113 6.789 0.054 6.768 0.000 M 3.882 0.000 C 3.861 0.054 3.850 0.113 3.850 0.175 L 3.850 9.175 C 3.850 9.451 4.074 9.675 4.350 9.675 L 6.300 9.675 M 9.225 9.641 C 9.501 9.641 9.725 9.417 9.725 9.141 L 9.725 2.391 C 9.725 2.115 9.501 1.891 9.225 1.891 L 7.600 1.891 C 7.324 1.891 7.100 2.115 7.100 2.391 L 7.100 9.141 C 7.100 9.417 7.324 9.641 7.600 9.641 L 9.225 9.641 M 7.100 0.000 L 7.100 1.091 C 7.100 1.367 7.324 1.591 7.600 1.591 L 9.975 1.591 M 7.225 1.766 C 7.225 1.835 7.169 1.891 7.100 1.891 C 7.031 1.891 6.975 1.835 6.975 1.766 C 6.975 1.697 7.031 1.641 7.100 1.641 C 7.169 1.641 7.225 1.697 7.225 1.766 M 0.392 9.675 C 0.392 9.744 0.336 9.800 0.267 9.800 C 0.198 9.800 0.142 9.744 0.142 9.675 C 0.142 9.606 0.198 9.550 0.267 9.550 C 0.336 9.550 0.392 9.606 0.392 9.675 M 9.875 9.975 L 9.875 0.000 M 0.000 9.975 M 0.000 9.975 M 9.975 0.100 L 0.000 0.100" style="fill:none;stroke:black;stroke-width:0.012" />
</g>
</svg>
