<?xml version="1.0"?>
	<!-- Generated by github.com/dustismo/heavyfishdesign -->
	<svg width="12.000in" height="11.000in" viewBox="0.000 0.000 12.000 11.000"
    	xmlns="http://www.w3.org/2000/svg"
		xmlns:xlink="http://www.w3.org/1999/xlink">
	<g transform="translate(0.100 0.100)">
<path id="tray_1" d="M 9.975 9.975 L 9.975 0.000 L 0.000 0.000 M 6.425 9.975 L 6.425 9.950 C 6.425 9.674 6.649 9.450 6.925 9.450 L 9.175 9.450 C 9.451 9.450 9.675 9.674 9.675 9.950 L 9.675 9.975 M 3.175 9.975 L 3.175 9.950 C 3.175 9.674 3.399 9.450 3.675 9.450 L 5.625 9.450 C 5.901 9.450 6.125 9.674 6.125 9.950 L 6.125 9.975 M 3.675 7.521 C 3.399 7.521 3.175 7.297 3.175 7.021 L 3.175 0.800 C 3.175 0.524 3.399 0.300 3.675 0.300 L 6.132 0.300 C 6.408 0.300 6.632 0.524 6.632 0.800 L 6.632 7.021 C 6.632 7.297 6.408 7.521 6.132 7.521 L 3.675 7.521 M 7.432 7.521 C 7.156 7.521 6.932 7.297 6.932 7.021 L 6.932 0.800 C 6.932 0.524 7.156 0.300 7.432 0.300 L 9.175 0.300 C 9.451 0.300 9.675 0.524 9.675 0.800 L 9.675 7.021 C 9.675 7.297 9.451 7.521 9.175 7.521 L 7.432 7.521 M 0.000 8.412 L 2.375 8.412 C 2.651 8.412 2.875 8.636 2.875 8.912 L 2.875 9.975 M 3.675 9.150 C 3.399 9.150 3.175 8.926 3.175 8.650 L 3.175 8.323 C 3.175 8.047 3.399 7.823 3.675 7.823 L 9.175 7.823 C 9.451 7.823 9.675 8.047 9.675 8.323 L 9.675 8.650 C 9.675 8.926 9.451 9.150 9.175 9.150 L 3.675 9.150 M 0.000 4.541 L 2.375 4.541 C 2.651 4.541 2.875 4.765 2.875 5.041 L 2.875 7.612 C 2.875 7.888 2.651 8.112 2.375 8.112 L 0.000 8.112 M 0.000 0.300 L 2.375 0.300 C 2.651 0.300 2.875 0.524 2.875 0.800 L 2.875 3.741 C 2.875 4.017 2.651 4.241 2.375 4.241 L 0.000 4.241 M 2.998 7.700 C 2.998 7.769 3.054 7.825 3.123 7.825 C 3.192 7.825 3.248 7.769 3.248 7.700 C 3.248 7.631 3.192 7.575 3.123 7.575 C 3.054 7.575 2.998 7.631 2.998 7.700 M 2.873 0.300 C 2.873 0.369 2.929 0.425 2.998 0.425 C 3.067 0.425 3.123 0.369 3.123 0.300 C 3.123 0.231 3.067 0.175 2.998 0.175 C 2.929 0.175 2.873 0.231 2.873 0.300 M 9.583 0.300 C 9.583 0.369 9.639 0.425 9.708 0.425 C 9.777 0.425 9.833 0.369 9.833 0.300 C 9.833 0.231 9.777 0.175 9.708 0.175 C 9.639 0.175 9.583 0.231 9.583 0.300 M 0.100 9.975 L 0.100 0.000 M 0.000 0.000 M 0.000 0.000 M 9.975 9.875 L 0.000 9.875" style="fill:none;stroke:black;stroke-width:0.012" />
</g>
</svg>
