<?xml version="1.0"?>
	<!-- Generated by github.com/dustismo/heavyfishdesign -->
	<svg width="12.000in" height="11.000in" viewBox="0.000 0.000 12.000 11.000"
    	xmlns="http://www.w3.org/2000/svg"
		xmlns:xlink="http://www.w3.org/1999/xlink">
	<g transform="translate(0.100 0.100)">
<path id="tray_1" d="M 0.000 0.000 L 9.975 0.000 L 9.975 9.975 M 6.925 0.300 C 6.649 0.300 6.425 0.524 6.425 0.800 L 6.425 9.800 C 6.425 9.862 6.436 9.921 6.457 9.975 M 9.643 9.975 C 9.664 9.921 9.675 9.862 9.675 9.800 L 9.675 0.800 C 9.675 0.524 9.451 0.300 9.175 0.300 L 6.925 0.300 M 3.675 0.300 C 3.399 0.300 3.175 0.524 3.175 0.800 L 3.175 9.800 C 3.175 9.862 3.186 9.921 3.207 9.975 M 6.093 9.975 C 6.114 9.921 6.125 9.862 6.125 9.800 L 6.125 0.800 C 6.125 0.524 5.901 0.300 5.625 0.300 L 3.675 0.300 M 0.750 0.334 C 0.474 0.334 0.250 0.558 0.250 0.834 L 0.250 7.584 C 0.250 7.860 0.474 8.084 0.750 8.084 L 2.375 8.084 C 2.651 8.084 2.875 7.860 2.875 7.584 L 2.875 0.834 C 2.875 0.558 2.651 0.334 2.375 0.334 L 0.750 0.334 M 2.875 9.975 L 2.875 8.884 C 2.875 8.608 2.651 8.384 2.375 8.384 L 0.000 8.384 M 2.750 8.209 C 2.750 8.140 2.806 8.084 2.875 8.084 C 2.944 8.084 3.000 8.140 3.000 8.209 C 3.000 8.278 2.944 8.334 2.875 8.334 C 2.806 8.334 2.750 8.278 2.750 8.209 M 9.583 0.300 C 9.583 0.231 9.639 0.175 9.708 0.175 C 9.777 0.175 9.833 0.231 9.833 0.300 C 9.833 0.369 9.777 0.425 9.708 0.425 C 9.639 0.425 9.583 0.369 9.583 0.300 M 0.100 0.000 L 0.100 9.975 M 0.000 0.000 M 0.000 0.000 M 9.975 9.875 L 0.000 9.875" style="fill:none;stroke:black;stroke-width:0.012" />
</g>
</svg>
