<?xml version="1.0"?>
	<!-- Generated by github.com/dustismo/heavyfishdesign -->
	<svg width="20.000in" height="12.000in" viewBox="0.000 0.000 20.000 12.000"
    	xmlns="http://www.w3.org/2000/svg"
		xmlns:xlink="http://www.w3.org/1999/xlink">
	<g transform="translate(0.100 0.100)">
<path id="53b8f6e07fe2eec3" d="M 0.050 0.000 C 0.078 0.000 0.100 0.022 0.100 0.050 C 0.100 0.078 0.078 0.100 0.050 0.100 C 0.022 0.100 0.000 0.078 0.000 0.050 C 0.000 0.022 0.022 0.000 0.050 0.000 M 2.950 0.000 C 2.978 0.000 3.000 0.022 3.000 0.050 C 3.000 0.078 2.978 0.100 2.950 0.100 C 2.922 0.100 2.900 0.078 2.900 0.050 C 2.900 0.022 2.922 0.000 2.950 0.000 M 2.950 1.900 C 2.978 1.900 3.000 1.922 3.000 1.950 C 3.000 1.978 2.978 2.000 2.950 2.000 C 2.922 2.000 2.900 1.978 2.900 1.950 C 2.900 1.922 2.922 1.900 2.950 1.900 M 0.050 1.900 C 0.078 1.900 0.100 1.922 0.100 1.950 C 0.100 1.978 0.078 2.000 0.050 2.000 C 0.022 2.000 0.000 1.978 0.000 1.950 C 0.000 1.922 0.022 1.900 0.050 1.900 M 1.126 0.300 L 1.874 0.300 L 1.874 0.500 L 1.126 0.500 L 1.126 0.300 M 0.793 0.700 L 2.207 0.700 L 2.207 0.900 L 0.793 0.900 L 0.793 0.700 M 0.765 1.100 L 2.235 1.100 L 2.235 1.300 L 0.765 1.300 L 0.765 1.100 M 0.990 1.500 L 2.010 1.500 L 2.010 1.700 L 0.990 1.700 L 0.990 1.500" style="fill:none;stroke:black;stroke-width:0.012" />
</g>
</svg>
