<?xml version="1.0"?>
	<!-- Generated by github.com/dustismo/heavyfishdesign -->
	<svg width="12.000in" height="11.000in" viewBox="0.000 0.000 12.000 11.000"
    	xmlns="http://www.w3.org/2000/svg"
		xmlns:xlink="http://www.w3.org/1999/xlink">
	<g transform="translate(0.100 0.100)">
<path id="back" d="M 3.333 0.151 C 3.333 0.151 3.274 0.175 3.215 0.233 C 3.156 0.291 3.097 0.384 3.097 0.522 C 3.097 0.626 3.130 0.754 3.221 0.913 C 3.222 0.914 3.222 0.915 3.223 0.917 C 3.308 1.059 3.514 1.180 3.721 1.180 C 3.722 1.180 3.723 1.180 3.724 1.180 C 3.846 1.179 3.967 1.136 4.064 1.031 C 4.204 0.880 4.329 0.766 4.454 0.692 C 4.566 0.625 4.679 0.591 4.802 0.591 C 4.866 0.591 4.933 0.600 5.004 0.619 L 5.007 0.622 L 5.007 1.172 L 5.007 1.326 L 4.757 1.326 L 4.757 1.719 L 5.007 1.719 L 5.007 1.872 L 5.007 2.176 L 4.603 2.176 L 4.457 2.176 L 4.457 2.426 L 4.050 2.426 L 4.050 2.176 L 3.903 2.176 L 3.757 2.176 L 3.757 2.426 L 3.350 2.426 L 3.350 2.176 L 3.204 2.176 L 3.057 2.176 L 3.057 2.426 L 2.650 2.426 L 2.650 2.176 L 2.503 2.176 L 2.357 2.176 L 2.357 2.426 L 1.950 2.426 L 1.950 2.176 L 1.804 2.176 L 1.657 2.176 L 1.657 2.426 L 1.250 2.426 L 1.250 2.176 L 1.104 2.176 L 0.957 2.176 L 0.957 2.426 L 0.550 2.426 L 0.550 2.176 L 0.404 2.176 L 0.000 2.176 L 0.000 1.872 L 0.000 1.719 L 0.250 1.719 L 0.250 1.326 L 0.000 1.326 L 0.000 1.172 L 0.000 0.622 L 0.002 0.619 C 0.002 0.619 0.002 0.619 0.002 0.619 C 0.004 0.618 0.066 0.578 0.162 0.537 C 0.259 0.497 0.392 0.456 0.534 0.456 C 0.584 0.456 0.634 0.461 0.684 0.472 C 0.749 0.487 0.814 0.513 0.876 0.553 C 1.076 0.682 1.165 0.786 1.236 0.875 C 1.250 0.892 1.263 0.908 1.275 0.924 C 1.324 0.984 1.373 1.036 1.457 1.083 C 1.504 1.110 1.550 1.122 1.592 1.122 C 1.625 1.122 1.656 1.114 1.681 1.099 C 1.721 1.075 1.747 1.033 1.747 0.977 C 1.747 0.891 1.685 0.772 1.522 0.641 C 1.384 0.529 1.338 0.422 1.338 0.328 C 1.338 0.231 1.388 0.149 1.438 0.091 C 1.482 0.041 1.525 0.009 1.536 0.001 C 1.537 0.000 1.538 -0.001 1.543 0.001 C 1.544 0.001 1.590 0.128 1.676 0.255 C 1.762 0.381 1.887 0.508 2.044 0.508 C 2.099 0.508 2.158 0.493 2.220 0.457 C 2.284 0.421 2.392 0.367 2.517 0.313 C 2.602 0.277 2.695 0.241 2.788 0.210 C 2.939 0.159 3.090 0.123 3.207 0.123 C 3.256 0.123 3.299 0.129 3.333 0.151 M 0.853 1.162 C 0.909 1.162 0.953 1.207 0.953 1.262 C 0.953 1.317 0.909 1.362 0.853 1.362 C 0.798 1.362 0.753 1.317 0.753 1.262 C 0.753 1.207 0.798 1.162 0.853 1.162 M 4.154 1.162 C 4.209 1.162 4.253 1.207 4.253 1.262 C 4.253 1.317 4.209 1.362 4.154 1.362 C 4.098 1.362 4.053 1.317 4.053 1.262 C 4.053 1.207 4.098 1.162 4.154 1.162" style="fill:none;stroke:black;stroke-width:0.012" />
</g>
<g transform="translate(5.307 0.100)">
<path id="side" d="M 2.077 0.380 C 2.077 0.380 2.024 0.387 1.971 0.425 C 1.918 0.463 1.865 0.532 1.865 0.658 C 1.865 0.703 1.872 0.756 1.889 0.818 C 1.891 0.827 1.895 0.837 1.899 0.847 C 1.904 0.859 1.910 0.871 1.917 0.883 C 1.974 0.980 2.095 1.068 2.223 1.068 C 2.242 1.068 2.260 1.066 2.279 1.062 C 2.311 1.055 2.343 1.043 2.374 1.023 C 2.535 0.921 2.663 0.863 2.786 0.863 C 2.808 0.863 2.830 0.865 2.852 0.869 C 2.903 0.878 2.953 0.896 3.005 0.926 L 3.007 0.929 L 3.007 1.683 L 2.553 1.683 L 2.407 1.683 L 2.407 1.933 L 2.000 1.933 L 2.000 1.683 L 1.854 1.683 L 1.707 1.683 L 1.707 1.933 L 1.300 1.933 L 1.300 1.683 L 1.153 1.683 L 1.007 1.683 L 1.007 1.933 L 0.600 1.933 L 0.600 1.683 L 0.454 1.683 L 0.250 1.683 L 0.250 1.379 L 0.250 1.233 L 0.000 1.233 L 0.000 0.826 L 0.250 0.826 L 0.250 0.679 L 0.250 0.101 L 0.254 0.097 C 0.281 0.099 0.309 0.103 0.336 0.110 C 0.408 0.127 0.480 0.162 0.539 0.226 C 0.641 0.338 0.677 0.416 0.706 0.482 C 0.709 0.490 0.713 0.498 0.716 0.505 C 0.729 0.535 0.742 0.562 0.762 0.590 C 0.773 0.605 0.786 0.621 0.803 0.637 C 0.819 0.653 0.837 0.665 0.854 0.673 C 0.872 0.682 0.890 0.686 0.907 0.686 C 0.924 0.686 0.939 0.682 0.953 0.674 C 0.979 0.659 0.995 0.629 0.995 0.586 C 0.995 0.536 0.972 0.468 0.911 0.384 C 0.862 0.317 0.844 0.260 0.844 0.212 C 0.844 0.137 0.889 0.084 0.934 0.049 C 0.974 0.019 1.013 0.003 1.022 0.000 C 1.023 -0.000 1.023 -0.000 1.028 0.003 C 1.028 0.003 1.037 0.100 1.075 0.198 C 1.084 0.221 1.095 0.245 1.108 0.267 C 1.148 0.336 1.208 0.392 1.296 0.392 C 1.316 0.392 1.337 0.389 1.360 0.383 C 1.383 0.377 1.414 0.370 1.451 0.363 C 1.525 0.349 1.619 0.335 1.713 0.328 C 1.753 0.325 1.793 0.323 1.832 0.323 C 1.937 0.323 2.031 0.336 2.077 0.380 M 0.853 1.179 C 0.909 1.179 0.953 1.224 0.953 1.279 C 0.953 1.334 0.909 1.379 0.853 1.379 C 0.798 1.379 0.753 1.334 0.753 1.279 C 0.753 1.224 0.798 1.179 0.853 1.179 M 2.154 1.179 C 2.209 1.179 2.253 1.224 2.253 1.279 C 2.253 1.334 2.209 1.379 2.154 1.379 C 2.098 1.379 2.053 1.334 2.053 1.279 C 2.053 1.224 2.098 1.179 2.154 1.179" style="fill:none;stroke:black;stroke-width:0.012" />
</g>
<g transform="translate(8.514 0.100)">
<path id="side" d="M 2.077 0.380 C 2.077 0.380 2.024 0.387 1.971 0.425 C 1.918 0.463 1.865 0.532 1.865 0.658 C 1.865 0.703 1.872 0.756 1.889 0.818 C 1.891 0.827 1.895 0.837 1.899 0.847 C 1.904 0.859 1.910 0.871 1.917 0.883 C 1.974 0.980 2.095 1.068 2.223 1.068 C 2.242 1.068 2.260 1.066 2.279 1.062 C 2.311 1.055 2.343 1.043 2.374 1.023 C 2.535 0.921 2.663 0.863 2.786 0.863 C 2.808 0.863 2.830 0.865 2.852 0.869 C 2.903 0.878 2.953 0.896 3.005 0.926 L 3.007 0.929 L 3.007 1.683 L 2.553 1.683 L 2.407 1.683 L 2.407 1.933 L 2.000 1.933 L 2.000 1.683 L 1.854 1.683 L 1.707 1.683 L 1.707 1.933 L 1.300 1.933 L 1.300 1.683 L 1.153 1.683 L 1.007 1.683 L 1.007 1.933 L 0.600 1.933 L 0.600 1.683 L 0.454 1.683 L 0.250 1.683 L 0.250 1.379 L 0.250 1.233 L 0.000 1.233 L 0.000 0.826 L 0.250 0.826 L 0.250 0.679 L 0.250 0.101 L 0.254 0.097 C 0.281 0.099 0.309 0.103 0.336 0.110 C 0.408 0.127 0.480 0.162 0.539 0.226 C 0.641 0.338 0.677 0.416 0.706 0.482 C 0.709 0.490 0.713 0.498 0.716 0.505 C 0.729 0.535 0.742 0.562 0.762 0.590 C 0.773 0.605 0.786 0.621 0.803 0.637 C 0.819 0.653 0.837 0.665 0.854 0.673 C 0.872 0.682 0.890 0.686 0.907 0.686 C 0.924 0.686 0.939 0.682 0.953 0.674 C 0.979 0.659 0.995 0.629 0.995 0.586 C 0.995 0.536 0.972 0.468 0.911 0.384 C 0.862 0.317 0.844 0.260 0.844 0.212 C 0.844 0.137 0.889 0.084 0.934 0.049 C 0.974 0.019 1.013 0.003 1.022 0.000 C 1.023 -0.000 1.023 -0.000 1.028 0.003 C 1.028 0.003 1.037 0.100 1.075 0.198 C 1.084 0.221 1.095 0.245 1.108 0.267 C 1.148 0.336 1.208 0.392 1.296 0.392 C 1.316 0.392 1.337 0.389 1.360 0.383 C 1.383 0.377 1.414 0.370 1.451 0.363 C 1.525 0.349 1.619 0.335 1.713 0.328 C 1.753 0.325 1.793 0.323 1.832 0.323 C 1.937 0.323 2.031 0.336 2.077 0.380 M 0.853 1.179 C 0.909 1.179 0.953 1.224 0.953 1.279 C 0.953 1.334 0.909 1.379 0.853 1.379 C 0.798 1.379 0.753 1.334 0.753 1.279 C 0.753 1.224 0.798 1.179 0.853 1.179 M 2.154 1.179 C 2.209 1.179 2.253 1.224 2.253 1.279 C 2.253 1.334 2.209 1.379 2.154 1.379 C 2.098 1.379 2.053 1.334 2.053 1.279 C 2.053 1.224 2.098 1.179 2.154 1.179" style="fill:none;stroke:black;stroke-width:0.012" />
</g>
<g transform="translate(0.100 2.726)">
<path id="bottom" d="M 2.350 2.757 L 1.957 2.757 L 1.957 3.007 L 1.804 3.007 L 1.650 3.007 L 1.650 2.757 L 1.257 2.757 L 1.257 3.007 L 1.104 3.007 L 0.950 3.007 L 0.950 2.757 L 0.557 2.757 L 0.557 3.007 L 0.404 3.007 L 0.000 3.007 L 0.000 2.553 L 0.000 2.400 L 0.250 2.400 L 0.250 2.007 L 0.000 2.007 L 0.000 1.854 L 0.000 1.700 L 0.250 1.700 L 0.250 1.307 L 0.000 1.307 L 0.000 1.153 L 0.000 1.000 L 0.250 1.000 L 0.250 0.607 L 0.000 0.607 L 0.000 0.454 L 0.000 0.000 L 5.007 0.000 L 5.007 0.454 L 5.007 0.607 L 4.757 0.607 L 4.757 1.000 L 5.007 1.000 L 5.007 1.153 L 5.007 1.307 L 4.757 1.307 L 4.757 1.700 L 5.007 1.700 L 5.007 1.854 L 5.007 2.007 L 4.757 2.007 L 4.757 2.400 L 5.007 2.400 L 5.007 2.553 L 5.007 3.007 L 4.603 3.007 L 4.450 3.007 L 4.450 2.757 L 4.057 2.757 L 4.057 3.007 L 3.903 3.007 L 3.750 3.007 L 3.750 2.757 L 3.357 2.757 L 3.357 3.007 L 3.204 3.007 L 3.050 3.007 L 3.050 2.757 L 2.657 2.757 L 2.657 3.007 L 2.503 3.007 L 2.350 3.007 L 2.350 2.757" style="fill:none;stroke:black;stroke-width:0.012" />
</g>
</svg>
