<?xml version="1.0"?>
	<!-- Generated by github.com/dustismo/heavyfishdesign -->
	<svg width="12.000in" height="11.000in" viewBox="0.000 0.000 12.000 11.000"
    	xmlns="http://www.w3.org/2000/svg"
		xmlns:xlink="http://www.w3.org/1999/xlink">
	<g transform="translate(0.100 0.100)">
<path id="back" d="M 3.999 0.180 C 3.999 0.180 3.928 0.208 3.857 0.278 C 3.786 0.349 3.715 0.460 3.715 0.626 C 3.715 0.750 3.754 0.905 3.864 1.095 C 3.865 1.097 3.866 1.098 3.867 1.100 C 3.968 1.271 4.216 1.416 4.465 1.416 C 4.466 1.416 4.467 1.416 4.469 1.416 C 4.615 1.415 4.761 1.364 4.877 1.237 C 5.044 1.056 5.194 0.919 5.344 0.830 C 5.479 0.750 5.614 0.709 5.762 0.709 C 5.839 0.709 5.919 0.720 6.004 0.743 L 6.007 0.746 L 6.007 1.196 L 6.007 1.350 L 5.757 1.350 L 5.757 1.743 L 6.007 1.743 L 6.007 1.896 L 6.007 2.050 L 5.757 2.050 L 5.757 2.443 L 6.007 2.443 L 6.007 2.596 L 6.007 2.750 L 5.757 2.750 L 5.757 3.143 L 6.007 3.143 L 6.007 3.296 L 6.007 3.500 L 5.454 3.500 L 5.307 3.500 L 5.307 3.750 L 4.900 3.750 L 4.900 3.500 L 4.753 3.500 L 4.607 3.500 L 4.607 3.750 L 4.200 3.750 L 4.200 3.500 L 4.053 3.500 L 3.907 3.500 L 3.907 3.750 L 3.500 3.750 L 3.500 3.500 L 3.353 3.500 L 3.207 3.500 L 3.207 3.750 L 2.800 3.750 L 2.800 3.500 L 2.653 3.500 L 2.507 3.500 L 2.507 3.750 L 2.100 3.750 L 2.100 3.500 L 1.954 3.500 L 1.807 3.500 L 1.807 3.750 L 1.400 3.750 L 1.400 3.500 L 1.254 3.500 L 1.107 3.500 L 1.107 3.750 L 0.700 3.750 L 0.700 3.500 L 0.553 3.500 L 0.000 3.500 L 0.000 3.296 L 0.000 3.143 L 0.250 3.143 L 0.250 2.750 L 0.000 2.750 L 0.000 2.596 L 0.000 2.443 L 0.250 2.443 L 0.250 2.050 L 0.000 2.050 L 0.000 1.896 L 0.000 1.743 L 0.250 1.743 L 0.250 1.350 L 0.000 1.350 L 0.000 1.196 L 0.000 0.746 L 0.002 0.743 C 0.002 0.743 0.002 0.743 0.002 0.743 C 0.005 0.741 0.079 0.693 0.194 0.645 C 0.311 0.596 0.470 0.547 0.641 0.547 C 0.700 0.547 0.760 0.553 0.820 0.567 C 0.898 0.584 0.975 0.615 1.050 0.664 C 1.290 0.818 1.397 0.944 1.482 1.050 C 1.498 1.070 1.514 1.090 1.529 1.109 C 1.588 1.180 1.647 1.243 1.747 1.300 C 1.803 1.332 1.859 1.346 1.909 1.346 C 1.950 1.346 1.987 1.337 2.017 1.319 C 2.065 1.290 2.096 1.239 2.096 1.172 C 2.096 1.068 2.022 0.926 1.827 0.768 C 1.661 0.633 1.606 0.505 1.606 0.394 C 1.606 0.277 1.666 0.179 1.726 0.109 C 1.778 0.049 1.829 0.011 1.843 0.001 C 1.844 0.000 1.845 -0.001 1.851 0.001 C 1.851 0.001 1.907 0.153 2.010 0.306 C 2.113 0.458 2.263 0.610 2.453 0.610 C 2.518 0.610 2.589 0.592 2.664 0.549 C 2.740 0.505 2.870 0.440 3.020 0.376 C 3.122 0.332 3.234 0.289 3.346 0.252 C 3.527 0.191 3.708 0.148 3.847 0.148 C 3.906 0.148 3.958 0.156 3.999 0.180 M 0.853 1.646 C 0.909 1.646 0.953 1.691 0.953 1.746 C 0.953 1.801 0.909 1.846 0.853 1.846 C 0.798 1.846 0.753 1.801 0.753 1.746 C 0.753 1.691 0.798 1.646 0.853 1.646 M 5.153 1.646 C 5.209 1.646 5.253 1.691 5.253 1.746 C 5.253 1.801 5.209 1.846 5.153 1.846 C 5.098 1.846 5.053 1.801 5.053 1.746 C 5.053 1.691 5.098 1.646 5.153 1.646" style="fill:none;stroke:black;stroke-width:0.012" />
</g>
<g transform="translate(6.307 0.100)">
<path id="side" d="M 3.522 0.881 C 3.522 0.881 3.414 0.881 3.307 0.949 C 3.199 1.017 3.091 1.153 3.091 1.423 C 3.091 1.476 3.095 1.534 3.104 1.598 C 3.109 1.633 3.119 1.669 3.134 1.705 C 3.145 1.731 3.158 1.757 3.173 1.782 C 3.273 1.952 3.469 2.103 3.689 2.103 C 3.758 2.103 3.829 2.088 3.901 2.054 C 4.159 1.931 4.368 1.860 4.557 1.860 C 4.684 1.860 4.803 1.892 4.921 1.962 C 4.949 1.978 4.977 1.997 5.006 2.018 L 5.007 2.021 L 5.007 2.774 L 4.603 2.774 L 4.457 2.774 L 4.457 3.024 L 4.050 3.024 L 4.050 2.774 L 3.903 2.774 L 3.757 2.774 L 3.757 3.024 L 3.350 3.024 L 3.350 2.774 L 3.204 2.774 L 3.057 2.774 L 3.057 3.024 L 2.650 3.024 L 2.650 2.774 L 2.503 2.774 L 2.357 2.774 L 2.357 3.024 L 1.950 3.024 L 1.950 2.774 L 1.804 2.774 L 1.657 2.774 L 1.657 3.024 L 1.250 3.024 L 1.250 2.774 L 1.104 2.774 L 0.957 2.774 L 0.957 3.024 L 0.550 3.024 L 0.550 2.774 L 0.404 2.774 L 0.250 2.774 L 0.250 2.571 L 0.250 2.424 L 0.000 2.424 L 0.000 2.017 L 0.250 2.017 L 0.250 1.871 L 0.250 1.724 L 0.000 1.724 L 0.000 1.317 L 0.250 1.317 L 0.250 1.171 L 0.250 1.024 L 0.000 1.024 L 0.000 0.617 L 0.250 0.617 L 0.250 0.471 L 0.250 0.003 L 0.254 0.000 C 0.337 0.002 0.432 0.013 0.528 0.042 C 0.666 0.083 0.804 0.160 0.904 0.301 C 1.056 0.514 1.101 0.656 1.137 0.775 C 1.141 0.787 1.144 0.799 1.148 0.810 C 1.161 0.853 1.174 0.894 1.192 0.934 C 1.212 0.976 1.236 1.018 1.272 1.063 C 1.309 1.109 1.351 1.140 1.393 1.156 C 1.417 1.166 1.441 1.171 1.465 1.171 C 1.492 1.171 1.518 1.164 1.541 1.151 C 1.589 1.122 1.621 1.064 1.621 0.977 C 1.621 0.893 1.591 0.783 1.515 0.647 C 1.457 0.542 1.434 0.454 1.434 0.379 C 1.434 0.234 1.522 0.142 1.611 0.086 C 1.689 0.037 1.768 0.017 1.785 0.013 C 1.786 0.012 1.787 0.012 1.792 0.015 C 1.792 0.015 1.792 0.017 1.792 0.020 C 1.792 0.022 1.792 0.026 1.792 0.032 C 1.792 0.081 1.795 0.231 1.837 0.382 C 1.854 0.442 1.877 0.503 1.909 0.557 C 1.972 0.665 2.070 0.747 2.221 0.747 C 2.242 0.747 2.263 0.746 2.286 0.743 C 2.381 0.729 2.552 0.716 2.739 0.716 C 2.788 0.716 2.838 0.717 2.888 0.719 C 3.154 0.730 3.420 0.771 3.522 0.881 M 0.853 2.271 C 0.909 2.271 0.953 2.315 0.953 2.371 C 0.953 2.426 0.909 2.471 0.853 2.471 C 0.798 2.471 0.753 2.426 0.753 2.371 C 0.753 2.315 0.798 2.271 0.853 2.271 M 4.154 2.271 C 4.209 2.271 4.253 2.315 4.253 2.371 C 4.253 2.426 4.209 2.471 4.154 2.471 C 4.098 2.471 4.053 2.426 4.053 2.371 C 4.053 2.315 4.098 2.271 4.154 2.271" style="fill:none;stroke:black;stroke-width:0.012" />
</g>
<g transform="translate(0.100 4.050)">
<path id="side" d="M 3.522 0.881 C 3.522 0.881 3.414 0.881 3.307 0.949 C 3.199 1.017 3.091 1.153 3.091 1.423 C 3.091 1.476 3.095 1.534 3.104 1.598 C 3.109 1.633 3.119 1.669 3.134 1.705 C 3.145 1.731 3.158 1.757 3.173 1.782 C 3.273 1.952 3.469 2.103 3.689 2.103 C 3.758 2.103 3.829 2.088 3.901 2.054 C 4.159 1.931 4.368 1.860 4.557 1.860 C 4.684 1.860 4.803 1.892 4.921 1.962 C 4.949 1.978 4.977 1.997 5.006 2.018 L 5.007 2.021 L 5.007 2.774 L 4.603 2.774 L 4.457 2.774 L 4.457 3.024 L 4.050 3.024 L 4.050 2.774 L 3.903 2.774 L 3.757 2.774 L 3.757 3.024 L 3.350 3.024 L 3.350 2.774 L 3.204 2.774 L 3.057 2.774 L 3.057 3.024 L 2.650 3.024 L 2.650 2.774 L 2.503 2.774 L 2.357 2.774 L 2.357 3.024 L 1.950 3.024 L 1.950 2.774 L 1.804 2.774 L 1.657 2.774 L 1.657 3.024 L 1.250 3.024 L 1.250 2.774 L 1.104 2.774 L 0.957 2.774 L 0.957 3.024 L 0.550 3.024 L 0.550 2.774 L 0.404 2.774 L 0.250 2.774 L 0.250 2.571 L 0.250 2.424 L 0.000 2.424 L 0.000 2.017 L 0.250 2.017 L 0.250 1.871 L 0.250 1.724 L 0.000 1.724 L 0.000 1.317 L 0.250 1.317 L 0.250 1.171 L 0.250 1.024 L 0.000 1.024 L 0.000 0.617 L 0.250 0.617 L 0.250 0.471 L 0.250 0.003 L 0.254 0.000 C 0.337 0.002 0.432 0.013 0.528 0.042 C 0.666 0.083 0.804 0.160 0.904 0.301 C 1.056 0.514 1.101 0.656 1.137 0.775 C 1.141 0.787 1.144 0.799 1.148 0.810 C 1.161 0.853 1.174 0.894 1.192 0.934 C 1.212 0.976 1.236 1.018 1.272 1.063 C 1.309 1.109 1.351 1.140 1.393 1.156 C 1.417 1.166 1.441 1.171 1.465 1.171 C 1.492 1.171 1.518 1.164 1.541 1.151 C 1.589 1.122 1.621 1.064 1.621 0.977 C 1.621 0.893 1.591 0.783 1.515 0.647 C 1.457 0.542 1.434 0.454 1.434 0.379 C 1.434 0.234 1.522 0.142 1.611 0.086 C 1.689 0.037 1.768 0.017 1.785 0.013 C 1.786 0.012 1.787 0.012 1.792 0.015 C 1.792 0.015 1.792 0.017 1.792 0.020 C 1.792 0.022 1.792 0.026 1.792 0.032 C 1.792 0.081 1.795 0.231 1.837 0.382 C 1.854 0.442 1.877 0.503 1.909 0.557 C 1.972 0.665 2.070 0.747 2.221 0.747 C 2.242 0.747 2.263 0.746 2.286 0.743 C 2.381 0.729 2.552 0.716 2.739 0.716 C 2.788 0.716 2.838 0.717 2.888 0.719 C 3.154 0.730 3.420 0.771 3.522 0.881 M 0.853 2.271 C 0.909 2.271 0.953 2.315 0.953 2.371 C 0.953 2.426 0.909 2.471 0.853 2.471 C 0.798 2.471 0.753 2.426 0.753 2.371 C 0.753 2.315 0.798 2.271 0.853 2.271 M 4.154 2.271 C 4.209 2.271 4.253 2.315 4.253 2.371 C 4.253 2.426 4.209 2.471 4.154 2.471 C 4.098 2.471 4.053 2.426 4.053 2.371 C 4.053 2.315 4.098 2.271 4.154 2.271" style="fill:none;stroke:black;stroke-width:0.012" />
</g>
<g transform="translate(5.307 4.050)">
<path id="bottom" d="M 0.250 2.350 L 0.250 1.957 L 0.000 1.957 L 0.000 1.804 L 0.000 1.650 L 0.250 1.650 L 0.250 1.257 L 0.000 1.257 L 0.000 1.104 L 0.000 0.950 L 0.250 0.950 L 0.250 0.557 L 0.000 0.557 L 0.000 0.404 L 0.000 0.000 L 6.007 0.000 L 6.007 0.404 L 6.007 0.557 L 5.757 0.557 L 5.757 0.950 L 6.007 0.950 L 6.007 1.104 L 6.007 1.257 L 5.757 1.257 L 5.757 1.650 L 6.007 1.650 L 6.007 1.804 L 6.007 1.957 L 5.757 1.957 L 5.757 2.350 L 6.007 2.350 L 6.007 2.503 L 6.007 2.657 L 5.757 2.657 L 5.757 3.050 L 6.007 3.050 L 6.007 3.204 L 6.007 3.357 L 5.757 3.357 L 5.757 3.750 L 6.007 3.750 L 6.007 3.903 L 6.007 4.057 L 5.757 4.057 L 5.757 4.450 L 6.007 4.450 L 6.007 4.603 L 6.007 5.007 L 5.454 5.007 L 5.300 5.007 L 5.300 4.757 L 4.907 4.757 L 4.907 5.007 L 4.753 5.007 L 4.600 5.007 L 4.600 4.757 L 4.207 4.757 L 4.207 5.007 L 4.053 5.007 L 3.900 5.007 L 3.900 4.757 L 3.507 4.757 L 3.507 5.007 L 3.353 5.007 L 3.200 5.007 L 3.200 4.757 L 2.807 4.757 L 2.807 5.007 L 2.653 5.007 L 2.500 5.007 L 2.500 4.757 L 2.107 4.757 L 2.107 5.007 L 1.954 5.007 L 1.800 5.007 L 1.800 4.757 L 1.407 4.757 L 1.407 5.007 L 1.254 5.007 L 1.100 5.007 L 1.100 4.757 L 0.707 4.757 L 0.707 5.007 L 0.553 5.007 L 0.000 5.007 L 0.000 4.603 L 0.000 4.450 L 0.250 4.450 L 0.250 4.057 L 0.000 4.057 L 0.000 3.903 L 0.000 3.750 L 0.250 3.750 L 0.250 3.357 L 0.000 3.357 L 0.000 3.204 L 0.000 3.050 L 0.250 3.050 L 0.250 2.657 L 0.000 2.657 L 0.000 2.503 L 0.000 2.350 L 0.250 2.350" style="fill:none;stroke:black;stroke-width:0.012" />
</g>
</svg>
