<?xml version="1.0"?>
	<!-- Generated by github.com/dustismo/heavyfishdesign -->
	<svg width="12.000in" height="11.000in" viewBox="0.000 0.000 12.000 11.000"
    	xmlns="http://www.w3.org/2000/svg"
		xmlns:xlink="http://www.w3.org/1999/xlink">
	<g transform="translate(0.100 0.100)">
<path id="back" d="M 2.002 0.093 C 2.002 0.093 1.967 0.107 1.931 0.142 C 1.896 0.177 1.861 0.232 1.861 0.314 C 1.861 0.376 1.881 0.453 1.935 0.548 C 1.936 0.549 1.936 0.550 1.937 0.550 C 1.987 0.635 2.110 0.708 2.234 0.708 C 2.235 0.708 2.235 0.708 2.236 0.708 C 2.309 0.707 2.381 0.682 2.439 0.619 C 2.523 0.528 2.598 0.459 2.673 0.415 C 2.741 0.375 2.809 0.354 2.883 0.354 C 2.921 0.354 2.962 0.360 3.004 0.371 L 3.007 0.374 L 3.007 0.674 L 3.007 0.828 L 2.757 0.828 L 2.757 1.221 L 3.007 1.221 L 3.007 1.374 L 3.007 1.528 L 2.757 1.528 L 2.757 1.921 L 3.007 1.921 L 3.007 2.074 L 3.007 2.128 L 2.553 2.128 L 2.407 2.128 L 2.407 2.378 L 2.000 2.378 L 2.000 2.128 L 1.854 2.128 L 1.707 2.128 L 1.707 2.378 L 1.300 2.378 L 1.300 2.128 L 1.153 2.128 L 1.007 2.128 L 1.007 2.378 L 0.600 2.378 L 0.600 2.128 L 0.454 2.128 L 0.000 2.128 L 0.000 2.074 L 0.000 1.921 L 0.250 1.921 L 0.250 1.528 L 0.000 1.528 L 0.000 1.374 L 0.000 1.221 L 0.250 1.221 L 0.250 0.828 L 0.000 0.828 L 0.000 0.674 L 0.000 0.374 L 0.002 0.371 C 0.002 0.371 0.002 0.371 0.002 0.371 C 0.003 0.370 0.040 0.346 0.098 0.322 C 0.157 0.298 0.237 0.273 0.322 0.273 C 0.352 0.273 0.382 0.276 0.412 0.283 C 0.451 0.292 0.490 0.307 0.528 0.332 C 0.648 0.409 0.701 0.472 0.744 0.525 C 0.752 0.535 0.760 0.545 0.768 0.555 C 0.797 0.590 0.826 0.621 0.876 0.650 C 0.904 0.665 0.932 0.673 0.956 0.673 C 0.976 0.673 0.994 0.668 1.009 0.659 C 1.033 0.645 1.048 0.620 1.048 0.587 C 1.048 0.536 1.011 0.465 0.914 0.386 C 0.831 0.319 0.803 0.254 0.803 0.198 C 0.803 0.140 0.833 0.090 0.863 0.055 C 0.889 0.025 0.915 0.005 0.922 0.000 C 0.923 -0.000 0.923 -0.000 0.929 0.001 C 0.929 0.001 0.957 0.077 1.008 0.153 C 1.059 0.229 1.134 0.305 1.228 0.305 C 1.261 0.305 1.296 0.295 1.333 0.274 C 1.371 0.252 1.436 0.220 1.511 0.188 C 1.562 0.166 1.618 0.144 1.674 0.125 C 1.765 0.095 1.856 0.073 1.925 0.073 C 1.955 0.073 1.981 0.077 2.002 0.093 M 0.853 0.974 C 0.909 0.974 0.953 1.019 0.953 1.074 C 0.953 1.130 0.909 1.174 0.853 1.174 C 0.798 1.174 0.753 1.130 0.753 1.074 C 0.753 1.019 0.798 0.974 0.853 0.974 M 2.154 0.974 C 2.209 0.974 2.253 1.019 2.253 1.074 C 2.253 1.130 2.209 1.174 2.154 1.174 C 2.098 1.174 2.053 1.130 2.053 1.074 C 2.053 1.019 2.098 0.974 2.154 0.974" style="fill:none;stroke:black;stroke-width:0.012" />
</g>
<g transform="rotate(90 2.419 2.678) translate(2.419 2.678)">
<path id="side" d="M 3.428 0.510 C 3.428 0.510 3.347 0.525 3.267 0.587 C 3.187 0.649 3.106 0.757 3.106 0.945 C 3.106 1.029 3.123 1.130 3.163 1.249 C 3.165 1.255 3.167 1.262 3.170 1.268 C 3.177 1.288 3.187 1.307 3.199 1.327 C 3.291 1.484 3.496 1.627 3.709 1.627 C 3.728 1.627 3.746 1.625 3.765 1.623 C 3.839 1.614 3.913 1.587 3.982 1.537 C 4.248 1.344 4.459 1.235 4.670 1.231 C 4.674 1.231 4.678 1.231 4.682 1.231 C 4.787 1.231 4.893 1.257 5.005 1.312 L 5.007 1.315 L 5.007 2.069 L 4.603 2.069 L 4.457 2.069 L 4.457 2.319 L 4.050 2.319 L 4.050 2.069 L 3.903 2.069 L 3.757 2.069 L 3.757 2.319 L 3.350 2.319 L 3.350 2.069 L 3.204 2.069 L 3.057 2.069 L 3.057 2.319 L 2.650 2.319 L 2.650 2.069 L 2.503 2.069 L 2.357 2.069 L 2.357 2.319 L 1.950 2.319 L 1.950 2.069 L 1.804 2.069 L 1.657 2.069 L 1.657 2.319 L 1.250 2.319 L 1.250 2.069 L 1.104 2.069 L 0.957 2.069 L 0.957 2.319 L 0.550 2.319 L 0.550 2.069 L 0.404 2.069 L 0.250 2.069 L 0.250 2.015 L 0.250 1.869 L 0.000 1.869 L 0.000 1.462 L 0.250 1.462 L 0.250 1.315 L 0.250 1.169 L 0.000 1.169 L 0.000 0.762 L 0.250 0.762 L 0.250 0.615 L 0.250 0.253 L 0.253 0.250 C 0.299 0.243 0.348 0.239 0.400 0.239 C 0.458 0.239 0.518 0.244 0.579 0.257 C 0.688 0.281 0.797 0.330 0.890 0.420 C 1.065 0.591 1.133 0.714 1.187 0.817 C 1.195 0.833 1.202 0.848 1.210 0.862 C 1.240 0.918 1.269 0.969 1.316 1.020 C 1.330 1.036 1.347 1.051 1.365 1.067 C 1.386 1.086 1.409 1.101 1.431 1.112 C 1.465 1.128 1.499 1.137 1.531 1.137 C 1.560 1.137 1.587 1.130 1.610 1.116 C 1.652 1.091 1.680 1.044 1.680 0.978 C 1.680 0.893 1.635 0.777 1.519 0.637 C 1.426 0.525 1.391 0.428 1.391 0.345 C 1.391 0.229 1.459 0.143 1.527 0.085 C 1.587 0.035 1.646 0.007 1.660 0.000 C 1.661 -0.000 1.662 -0.001 1.668 0.002 C 1.668 0.002 1.691 0.156 1.761 0.309 C 1.774 0.337 1.788 0.364 1.803 0.391 C 1.874 0.512 1.978 0.615 2.128 0.615 C 2.167 0.615 2.208 0.609 2.253 0.594 C 2.303 0.577 2.376 0.556 2.462 0.535 C 2.572 0.509 2.704 0.482 2.837 0.464 C 2.937 0.451 3.037 0.442 3.128 0.442 C 3.256 0.442 3.364 0.459 3.428 0.510 M 0.853 1.565 C 0.909 1.565 0.953 1.610 0.953 1.665 C 0.953 1.720 0.909 1.765 0.853 1.765 C 0.798 1.765 0.753 1.720 0.753 1.665 C 0.753 1.610 0.798 1.565 0.853 1.565 M 4.154 1.565 C 4.209 1.565 4.253 1.610 4.253 1.665 C 4.253 1.720 4.209 1.765 4.154 1.765 C 4.098 1.765 4.053 1.720 4.053 1.665 C 4.053 1.610 4.098 1.565 4.154 1.565" style="fill:none;stroke:black;stroke-width:0.012" />
</g>
<g transform="translate(3.307 0.100)">
<path id="side" d="M 3.428 0.510 C 3.428 0.510 3.347 0.525 3.267 0.587 C 3.187 0.649 3.106 0.757 3.106 0.945 C 3.106 1.029 3.123 1.130 3.163 1.249 C 3.165 1.255 3.167 1.262 3.170 1.268 C 3.177 1.288 3.187 1.307 3.199 1.327 C 3.291 1.484 3.496 1.627 3.709 1.627 C 3.728 1.627 3.746 1.625 3.765 1.623 C 3.839 1.614 3.913 1.587 3.982 1.537 C 4.248 1.344 4.459 1.235 4.670 1.231 C 4.674 1.231 4.678 1.231 4.682 1.231 C 4.787 1.231 4.893 1.257 5.005 1.312 L 5.007 1.315 L 5.007 2.069 L 4.603 2.069 L 4.457 2.069 L 4.457 2.319 L 4.050 2.319 L 4.050 2.069 L 3.903 2.069 L 3.757 2.069 L 3.757 2.319 L 3.350 2.319 L 3.350 2.069 L 3.204 2.069 L 3.057 2.069 L 3.057 2.319 L 2.650 2.319 L 2.650 2.069 L 2.503 2.069 L 2.357 2.069 L 2.357 2.319 L 1.950 2.319 L 1.950 2.069 L 1.804 2.069 L 1.657 2.069 L 1.657 2.319 L 1.250 2.319 L 1.250 2.069 L 1.104 2.069 L 0.957 2.069 L 0.957 2.319 L 0.550 2.319 L 0.550 2.069 L 0.404 2.069 L 0.250 2.069 L 0.250 2.015 L 0.250 1.869 L 0.000 1.869 L 0.000 1.462 L 0.250 1.462 L 0.250 1.315 L 0.250 1.169 L 0.000 1.169 L 0.000 0.762 L 0.250 0.762 L 0.250 0.615 L 0.250 0.253 L 0.253 0.250 C 0.299 0.243 0.348 0.239 0.400 0.239 C 0.458 0.239 0.518 0.244 0.579 0.257 C 0.688 0.281 0.797 0.330 0.890 0.420 C 1.065 0.591 1.133 0.714 1.187 0.817 C 1.195 0.833 1.202 0.848 1.210 0.862 C 1.240 0.918 1.269 0.969 1.316 1.020 C 1.330 1.036 1.347 1.051 1.365 1.067 C 1.386 1.086 1.409 1.101 1.431 1.112 C 1.465 1.128 1.499 1.137 1.531 1.137 C 1.560 1.137 1.587 1.130 1.610 1.116 C 1.652 1.091 1.680 1.044 1.680 0.978 C 1.680 0.893 1.635 0.777 1.519 0.637 C 1.426 0.525 1.391 0.428 1.391 0.345 C 1.391 0.229 1.459 0.143 1.527 0.085 C 1.587 0.035 1.646 0.007 1.660 0.000 C 1.661 -0.000 1.662 -0.001 1.668 0.002 C 1.668 0.002 1.691 0.156 1.761 0.309 C 1.774 0.337 1.788 0.364 1.803 0.391 C 1.874 0.512 1.978 0.615 2.128 0.615 C 2.167 0.615 2.208 0.609 2.253 0.594 C 2.303 0.577 2.376 0.556 2.462 0.535 C 2.572 0.509 2.704 0.482 2.837 0.464 C 2.937 0.451 3.037 0.442 3.128 0.442 C 3.256 0.442 3.364 0.459 3.428 0.510 M 0.853 1.565 C 0.909 1.565 0.953 1.610 0.953 1.665 C 0.953 1.720 0.909 1.765 0.853 1.765 C 0.798 1.765 0.753 1.720 0.753 1.665 C 0.753 1.610 0.798 1.565 0.853 1.565 M 4.154 1.565 C 4.209 1.565 4.253 1.610 4.253 1.665 C 4.253 1.720 4.209 1.765 4.154 1.765 C 4.098 1.765 4.053 1.720 4.053 1.665 C 4.053 1.610 4.098 1.565 4.154 1.565" style="fill:none;stroke:black;stroke-width:0.012" />
</g>
<g transform="translate(3.307 2.619)">
<path id="bottom" d="M 0.250 2.350 L 0.250 1.957 L 0.000 1.957 L 0.000 1.804 L 0.000 1.650 L 0.250 1.650 L 0.250 1.257 L 0.000 1.257 L 0.000 1.104 L 0.000 0.950 L 0.250 0.950 L 0.250 0.557 L 0.000 0.557 L 0.000 0.404 L 0.000 0.000 L 3.007 0.000 L 3.007 0.404 L 3.007 0.557 L 2.757 0.557 L 2.757 0.950 L 3.007 0.950 L 3.007 1.104 L 3.007 1.257 L 2.757 1.257 L 2.757 1.650 L 3.007 1.650 L 3.007 1.804 L 3.007 1.957 L 2.757 1.957 L 2.757 2.350 L 3.007 2.350 L 3.007 2.503 L 3.007 2.657 L 2.757 2.657 L 2.757 3.050 L 3.007 3.050 L 3.007 3.204 L 3.007 3.357 L 2.757 3.357 L 2.757 3.750 L 3.007 3.750 L 3.007 3.903 L 3.007 4.057 L 2.757 4.057 L 2.757 4.450 L 3.007 4.450 L 3.007 4.603 L 3.007 5.007 L 2.553 5.007 L 2.400 5.007 L 2.400 4.757 L 2.007 4.757 L 2.007 5.007 L 1.854 5.007 L 1.700 5.007 L 1.700 4.757 L 1.307 4.757 L 1.307 5.007 L 1.153 5.007 L 1.000 5.007 L 1.000 4.757 L 0.607 4.757 L 0.607 5.007 L 0.454 5.007 L 0.000 5.007 L 0.000 4.603 L 0.000 4.450 L 0.250 4.450 L 0.250 4.057 L 0.000 4.057 L 0.000 3.903 L 0.000 3.750 L 0.250 3.750 L 0.250 3.357 L 0.000 3.357 L 0.000 3.204 L 0.000 3.050 L 0.250 3.050 L 0.250 2.657 L 0.000 2.657 L 0.000 2.503 L 0.000 2.350 L 0.250 2.350" style="fill:none;stroke:black;stroke-width:0.012" />
</g>
</svg>
