<?xml version="1.0"?>
	<!-- Generated by github.com/dustismo/heavyfishdesign -->
	<svg width="20.000in" height="12.000in" viewBox="0.000 0.000 20.000 12.000"
    	xmlns="http://www.w3.org/2000/svg"
		xmlns:xlink="http://www.w3.org/1999/xlink">
	<g transform="translate(0.100 0.100)">
<path id="DknQXeAJnkxLkNKW" d="M 0.000 0.000 M 1.149 0.000 C 1.784 0.000 2.299 0.515 2.299 1.149 C 2.299 1.784 1.784 2.299 1.149 2.299 C 0.515 2.299 0.000 1.784 0.000 1.149 C 0.000 0.515 0.515 0.000 1.149 0.000 M 0.149 0.149 M 1.149 0.149 C 1.702 0.149 2.149 0.597 2.149 1.149 C 2.149 1.702 1.702 2.149 1.149 2.149 C 0.597 2.149 0.149 1.702 0.149 1.149 C 0.149 0.597 0.597 0.149 1.149 0.149 M 1.049 -0.263 M 1.049 -0.263 L 1.249 -0.263 L 1.249 -0.063 L 1.049 -0.063 L 1.049 -0.263 M 2.322 0.357 M 2.322 0.357 L 2.422 0.530 L 2.249 0.630 L 2.149 0.457 L 2.322 0.357 M 2.422 1.769 M 2.422 1.769 L 2.322 1.942 L 2.148 1.842 L 2.248 1.669 L 2.422 1.769 M 1.249 2.561 M 1.249 2.561 L 1.049 2.561 L 1.049 2.361 L 1.249 2.361 L 1.249 2.561 M -0.024 1.941 M -0.024 1.941 L -0.124 1.768 L 0.049 1.668 L 0.149 1.841 L -0.024 1.941 M -0.124 0.529 M -0.124 0.529 L -0.024 0.356 L 0.150 0.456 L 0.050 0.629 L -0.124 0.529" style="fill:none;stroke:black;stroke-width:0.012" />
<text x="1.149" y="2.561" style="font: 0.118pt serif; fill: blue">votive_top:0</text>
</g>
<g transform="translate(2.846 0.100)">
<path id="DknQXeAJnkxLkNKW" d="M 0.000 0.000 M 1.138 0.000 C 1.767 0.000 2.276 0.510 2.276 1.138 C 2.276 1.767 1.767 2.276 1.138 2.276 C 0.510 2.276 0.000 1.767 0.000 1.138 C 0.000 0.510 0.510 0.000 1.138 0.000 M 0.138 0.138 M 1.138 0.138 C 1.690 0.138 2.138 0.586 2.138 1.138 C 2.138 1.690 1.690 2.138 1.138 2.138 C 0.586 2.138 0.138 1.690 0.138 1.138 C 0.138 0.586 0.586 0.138 1.138 0.138 M 1.038 -0.274 M 1.038 -0.274 L 1.238 -0.274 L 1.238 -0.074 L 1.038 -0.074 L 1.038 -0.274 M 2.311 0.345 M 2.311 0.345 L 2.411 0.519 L 2.238 0.619 L 2.138 0.445 L 2.311 0.345 M 2.411 1.758 M 2.411 1.758 L 2.311 1.931 L 2.138 1.831 L 2.238 1.658 L 2.411 1.758 M 1.238 2.550 M 1.238 2.550 L 1.038 2.550 L 1.038 2.350 L 1.238 2.350 L 1.238 2.550 M -0.035 1.931 M -0.035 1.931 L -0.135 1.757 L 0.038 1.657 L 0.138 1.831 L -0.035 1.931 M -0.135 0.518 M -0.135 0.518 L -0.035 0.345 L 0.138 0.445 L 0.038 0.618 L -0.135 0.518" style="fill:none;stroke:black;stroke-width:0.012" />
<text x="1.138" y="2.550" style="font: 0.118pt serif; fill: blue">votive_top:1</text>
</g>
<g transform="translate(5.592 0.100)">
<path id="DknQXeAJnkxLkNKW" d="M 0.000 0.000 M 1.127 0.000 C 1.749 0.000 2.254 0.504 2.254 1.127 C 2.254 1.749 1.749 2.254 1.127 2.254 C 0.504 2.254 0.000 1.749 0.000 1.127 C 0.000 0.504 0.504 0.000 1.127 0.000 M 0.127 0.127 M 1.127 0.127 C 1.679 0.127 2.127 0.575 2.127 1.127 C 2.127 1.679 1.679 2.127 1.127 2.127 C 0.575 2.127 0.127 1.679 0.127 1.127 C 0.127 0.575 0.575 0.127 1.127 0.127 M 1.027 -0.286 M 1.027 -0.286 L 1.227 -0.286 L 1.227 -0.086 L 1.027 -0.086 L 1.027 -0.286 M 2.300 0.334 M 2.300 0.334 L 2.400 0.507 L 2.227 0.607 L 2.127 0.434 L 2.300 0.334 M 2.400 1.747 M 2.400 1.747 L 2.300 1.920 L 2.127 1.820 L 2.227 1.647 L 2.400 1.747 M 1.227 2.540 M 1.227 2.540 L 1.027 2.540 L 1.027 2.340 L 1.227 2.340 L 1.227 2.540 M -0.046 1.920 M -0.046 1.920 L -0.146 1.747 L 0.027 1.647 L 0.127 1.820 L -0.046 1.920 M -0.146 0.507 M -0.146 0.507 L -0.046 0.334 L 0.127 0.434 L 0.027 0.607 L -0.146 0.507" style="fill:none;stroke:black;stroke-width:0.012" />
<text x="1.127" y="2.540" style="font: 0.118pt serif; fill: blue">votive_top:2</text>
</g>
<g transform="translate(5.592 3.125)">
<path id="MKcSiStqDUZsoLEz" d="M 0.000 0.000 M 1.015 0.000 C 1.575 0.000 2.030 0.454 2.030 1.015 C 2.030 1.575 1.575 2.030 1.015 2.030 C 0.454 2.030 0.000 1.575 0.000 1.015 C 0.000 0.454 0.454 0.000 1.015 0.000 M 0.915 -0.398 M 0.915 -0.398 L 1.115 -0.398 L 1.115 -0.198 L 0.915 -0.198 L 0.915 -0.398 M 2.188 0.222 M 2.188 0.222 L 2.288 0.395 L 2.115 0.495 L 2.015 0.322 L 2.188 0.222 M 2.288 1.635 M 2.288 1.635 L 2.188 1.808 L 2.015 1.708 L 2.115 1.535 L 2.288 1.635 M 1.115 2.428 M 1.115 2.428 L 0.915 2.428 L 0.915 2.228 L 1.115 2.228 L 1.115 2.428 M -0.158 1.808 M -0.158 1.808 L -0.258 1.635 L -0.085 1.535 L 0.015 1.708 L -0.158 1.808 M -0.258 0.395 M -0.258 0.395 L -0.158 0.222 L 0.015 0.322 L -0.085 0.495 L -0.258 0.395" style="fill:none;stroke:black;stroke-width:0.012" />
<text x="1.015" y="2.428" style="font: 0.118pt serif; fill: blue">votive_bottom:0</text>
</g>
<g transform="translate(5.592 6.150)">
<path id="MKcSiStqDUZsoLEz" d="M 0.000 0.000 M 0.326 0.000 C 0.506 0.000 0.652 0.146 0.652 0.326 C 0.652 0.506 0.506 0.652 0.326 0.652 C 0.146 0.652 0.000 0.506 0.000 0.326 C 0.000 0.146 0.146 0.000 0.326 0.000 M 0.226 -1.087 M 0.226 -1.087 L 0.426 -1.087 L 0.426 -0.887 L 0.226 -0.887 L 0.226 -1.087 M 1.499 -0.467 M 1.499 -0.467 L 1.599 -0.294 L 1.426 -0.194 L 1.326 -0.367 L 1.499 -0.467 M 1.599 0.946 M 1.599 0.946 L 1.499 1.119 L 1.326 1.019 L 1.426 0.846 L 1.599 0.946 M 0.426 1.739 M 0.426 1.739 L 0.226 1.739 L 0.226 1.539 L 0.426 1.539 L 0.426 1.739 M -0.847 1.119 M -0.847 1.119 L -0.947 0.946 L -0.774 0.846 L -0.674 1.019 L -0.847 1.119 M -0.947 -0.294 M -0.947 -0.294 L -0.847 -0.467 L -0.674 -0.367 L -0.774 -0.194 L -0.947 -0.294" style="fill:none;stroke:black;stroke-width:0.012" />
<text x="0.326" y="1.739" style="font: 0.118pt serif; fill: blue">votive_bottom:1</text>
</g>
<g transform="translate(8.339 0.100)">
<path id="MKcSiStqDUZsoLEz" d="M 0.000 0.000 M 0.290 0.000 C 0.450 0.000 0.580 0.130 0.580 0.290 C 0.580 0.450 0.450 0.580 0.290 0.580 C 0.130 0.580 0.000 0.450 0.000 0.290 C 0.000 0.130 0.130 0.000 0.290 0.000 M 0.190 -1.122 M 0.190 -1.122 L 0.390 -1.122 L 0.390 -0.922 L 0.190 -0.922 L 0.190 -1.122 M 1.463 -0.503 M 1.463 -0.503 L 1.563 -0.330 L 1.390 -0.230 L 1.290 -0.403 L 1.463 -0.503 M 1.563 0.910 M 1.563 0.910 L 1.463 1.083 L 1.290 0.983 L 1.390 0.810 L 1.563 0.910 M 0.390 1.702 M 0.390 1.702 L 0.190 1.702 L 0.190 1.502 L 0.390 1.502 L 0.390 1.702 M -0.883 1.083 M -0.883 1.083 L -0.983 0.910 L -0.810 0.810 L -0.710 0.983 L -0.883 1.083 M -0.983 -0.330 M -0.983 -0.330 L -0.883 -0.503 L -0.710 -0.403 L -0.810 -0.230 L -0.983 -0.330" style="fill:none;stroke:black;stroke-width:0.012" />
<text x="0.290" y="1.702" style="font: 0.118pt serif; fill: blue">votive_bottom:2</text>
</g>
<g transform="translate(2.846 3.125)">
<path id="MKcSiStqDUZsoLEz" d="M 0.000 0.000 M 0.497 0.000 C 0.772 0.000 0.995 0.223 0.995 0.497 C 0.995 0.772 0.772 0.995 0.497 0.995 C 0.223 0.995 0.000 0.772 0.000 0.497 C 0.000 0.223 0.223 0.000 0.497 0.000 M 0.397 -0.915 M 0.397 -0.915 L 0.597 -0.915 L 0.597 -0.715 L 0.397 -0.715 L 0.397 -0.915 M 1.670 -0.295 M 1.670 -0.295 L 1.770 -0.122 L 1.597 -0.022 L 1.497 -0.195 L 1.670 -0.295 M 1.770 1.117 M 1.770 1.117 L 1.670 1.290 L 1.497 1.190 L 1.597 1.017 L 1.770 1.117 M 0.597 1.909 M 0.597 1.909 L 0.397 1.909 L 0.397 1.709 L 0.597 1.709 L 0.597 1.909 M -0.676 1.289 M -0.676 1.289 L -0.776 1.116 L -0.603 1.016 L -0.503 1.189 L -0.676 1.289 M -0.776 -0.123 M -0.776 -0.123 L -0.676 -0.296 L -0.503 -0.196 L -0.603 -0.023 L -0.776 -0.123" style="fill:none;stroke:black;stroke-width:0.012" />
<text x="0.497" y="1.909" style="font: 0.118pt serif; fill: blue">votive_bottom:3</text>
</g>
<g transform="translate(11.086 0.100)">
<path id="MKcSiStqDUZsoLEz" d="M 0.000 0.000 M 0.676 0.000 C 1.049 0.000 1.351 0.302 1.351 0.676 C 1.351 1.049 1.049 1.351 0.676 1.351 C 0.302 1.351 0.000 1.049 0.000 0.676 C 0.000 0.302 0.302 0.000 0.676 0.000 M 0.576 -0.737 M 0.576 -0.737 L 0.776 -0.737 L 0.776 -0.537 L 0.576 -0.537 L 0.576 -0.737 M 1.849 -0.117 M 1.849 -0.117 L 1.949 0.056 L 1.776 0.156 L 1.676 -0.017 L 1.849 -0.117 M 1.950 1.295 M 1.950 1.295 L 1.850 1.469 L 1.677 1.369 L 1.777 1.195 L 1.950 1.295 M 0.776 2.089 M 0.776 2.089 L 0.576 2.089 L 0.576 1.889 L 0.776 1.889 L 0.776 2.089 M -0.497 1.469 M -0.497 1.469 L -0.597 1.296 L -0.424 1.196 L -0.324 1.369 L -0.497 1.469 M -0.598 0.057 M -0.598 0.057 L -0.498 -0.117 L -0.325 -0.017 L -0.425 0.157 L -0.598 0.057" style="fill:none;stroke:black;stroke-width:0.012" />
<text x="0.676" y="2.089" style="font: 0.118pt serif; fill: blue">votive_bottom:4</text>
</g>
<g transform="translate(2.846 6.149)">
<path id="MKcSiStqDUZsoLEz" d="M 0.000 0.000 M 0.802 0.000 C 1.245 0.000 1.604 0.359 1.604 0.802 C 1.604 1.245 1.245 1.604 0.802 1.604 C 0.359 1.604 0.000 1.245 0.000 0.802 C 0.000 0.359 0.359 0.000 0.802 0.000 M 0.702 -0.610 M 0.702 -0.610 L 0.902 -0.610 L 0.902 -0.410 L 0.702 -0.410 L 0.702 -0.610 M 1.975 0.009 M 1.975 0.009 L 2.075 0.183 L 1.902 0.283 L 1.802 0.109 L 1.975 0.009 M 2.075 1.422 M 2.075 1.422 L 1.975 1.595 L 1.802 1.495 L 1.902 1.322 L 2.075 1.422 M 0.902 2.214 M 0.902 2.214 L 0.702 2.214 L 0.702 2.014 L 0.902 2.014 L 0.902 2.214 M -0.371 1.595 M -0.371 1.595 L -0.471 1.421 L -0.298 1.321 L -0.198 1.495 L -0.371 1.595 M -0.471 0.182 M -0.471 0.182 L -0.371 0.009 L -0.198 0.109 L -0.298 0.282 L -0.471 0.182" style="fill:none;stroke:black;stroke-width:0.012" />
<text x="0.802" y="2.214" style="font: 0.118pt serif; fill: blue">votive_bottom:5</text>
</g>
<g transform="translate(13.833 0.100)">
<path id="MKcSiStqDUZsoLEz" d="M 0.000 0.000 M 0.907 0.000 C 1.408 0.000 1.814 0.406 1.814 0.907 C 1.814 1.408 1.408 1.814 0.907 1.814 C 0.406 1.814 0.000 1.408 0.000 0.907 C 0.000 0.406 0.406 0.000 0.907 0.000 M 0.807 -0.506 M 0.807 -0.506 L 1.007 -0.506 L 1.007 -0.306 L 0.807 -0.306 L 0.807 -0.506 M 2.080 0.114 M 2.080 0.114 L 2.180 0.287 L 2.007 0.387 L 1.907 0.214 L 2.080 0.114 M 2.180 1.527 M 2.180 1.527 L 2.080 1.700 L 1.907 1.600 L 2.007 1.427 L 2.180 1.527 M 1.007 2.320 M 1.007 2.320 L 0.807 2.320 L 0.807 2.120 L 1.007 2.120 L 1.007 2.320 M -0.266 1.700 M -0.266 1.700 L -0.366 1.527 L -0.193 1.427 L -0.093 1.600 L -0.266 1.700 M -0.366 0.287 M -0.366 0.287 L -0.266 0.114 L -0.093 0.214 L -0.193 0.387 L -0.366 0.287" style="fill:none;stroke:black;stroke-width:0.012" />
<text x="0.907" y="2.320" style="font: 0.118pt serif; fill: blue">votive_bottom:6</text>
</g>
<g transform="translate(8.339 3.125)">
<path id="MKcSiStqDUZsoLEz" d="M 0.000 0.000 M 0.996 0.000 C 1.546 0.000 1.992 0.446 1.992 0.996 C 1.992 1.546 1.546 1.992 0.996 1.992 C 0.446 1.992 0.000 1.546 0.000 0.996 C 0.000 0.446 0.446 0.000 0.996 0.000 M 0.896 -0.416 M 0.896 -0.416 L 1.096 -0.416 L 1.096 -0.216 L 0.896 -0.216 L 0.896 -0.416 M 2.169 0.203 M 2.169 0.203 L 2.269 0.377 L 2.096 0.477 L 1.996 0.303 L 2.169 0.203 M 2.269 1.616 M 2.269 1.616 L 2.169 1.789 L 1.996 1.689 L 2.096 1.516 L 2.269 1.616 M 1.096 2.408 M 1.096 2.408 L 0.896 2.408 L 0.896 2.208 L 1.096 2.208 L 1.096 2.408 M -0.177 1.789 M -0.177 1.789 L -0.277 1.615 L -0.104 1.515 L -0.004 1.689 L -0.177 1.789 M -0.277 0.376 M -0.277 0.376 L -0.177 0.203 L -0.004 0.303 L -0.104 0.476 L -0.277 0.376" style="fill:none;stroke:black;stroke-width:0.012" />
<text x="0.996" y="2.408" style="font: 0.118pt serif; fill: blue">votive_bottom:7</text>
</g>
<g transform="translate(16.580 0.100)">
<path id="MKcSiStqDUZsoLEz" d="M 0.000 0.000 M 1.072 0.000 C 1.664 0.000 2.143 0.480 2.143 1.072 C 2.143 1.664 1.664 2.143 1.072 2.143 C 0.480 2.143 0.000 1.664 0.000 1.072 C 0.000 0.480 0.480 0.000 1.072 0.000 M 0.972 -0.341 M 0.972 -0.341 L 1.172 -0.341 L 1.172 -0.141 L 0.972 -0.141 L 0.972 -0.341 M 2.245 0.279 M 2.245 0.279 L 2.345 0.452 L 2.172 0.552 L 2.072 0.379 L 2.245 0.279 M 2.346 1.692 M 2.346 1.692 L 2.246 1.865 L 2.072 1.765 L 2.172 1.592 L 2.346 1.692 M 1.172 2.485 M 1.172 2.485 L 0.972 2.485 L 0.972 2.285 L 1.172 2.285 L 1.172 2.485 M -0.101 1.865 M -0.101 1.865 L -0.201 1.692 L -0.028 1.592 L 0.072 1.765 L -0.101 1.865 M -0.202 0.452 M -0.202 0.452 L -0.102 0.279 L 0.072 0.379 L -0.028 0.552 L -0.202 0.452" style="fill:none;stroke:black;stroke-width:0.012" />
<text x="1.072" y="2.485" style="font: 0.118pt serif; fill: blue">votive_bottom:8</text>
</g>
<g transform="translate(8.339 6.150)">
<path id="MKcSiStqDUZsoLEz" d="M 0.000 0.000 M 1.132 0.000 C 1.758 0.000 2.265 0.507 2.265 1.132 C 2.265 1.758 1.758 2.265 1.132 2.265 C 0.507 2.265 0.000 1.758 0.000 1.132 C 0.000 0.507 0.507 0.000 1.132 0.000 M 1.032 -0.280 M 1.032 -0.280 L 1.232 -0.280 L 1.232 -0.080 L 1.032 -0.080 L 1.032 -0.280 M 2.305 0.340 M 2.305 0.340 L 2.405 0.513 L 2.232 0.613 L 2.132 0.440 L 2.305 0.340 M 2.405 1.752 M 2.405 1.752 L 2.305 1.925 L 2.131 1.825 L 2.231 1.652 L 2.405 1.752 M 1.232 2.544 M 1.232 2.544 L 1.032 2.544 L 1.032 2.344 L 1.232 2.344 L 1.232 2.544 M -0.041 1.924 M -0.041 1.924 L -0.141 1.751 L 0.032 1.651 L 0.132 1.824 L -0.041 1.924 M -0.141 0.512 M -0.141 0.512 L -0.041 0.339 L 0.133 0.439 L 0.033 0.612 L -0.141 0.512" style="fill:none;stroke:black;stroke-width:0.012" />
<text x="1.132" y="2.544" style="font: 0.118pt serif; fill: blue">votive_bottom:9</text>
</g>
<g transform="translate(11.086 3.126)">
<path id="MKcSiStqDUZsoLEz" d="M 0.000 0.000 M 1.172 0.000 C 1.820 0.000 2.344 0.525 2.344 1.172 C 2.344 1.820 1.820 2.344 1.172 2.344 C 0.525 2.344 0.000 1.820 0.000 1.172 C 0.000 0.525 0.525 0.000 1.172 0.000 M 1.072 -0.240 M 1.072 -0.240 L 1.272 -0.240 L 1.272 -0.040 L 1.072 -0.040 L 1.072 -0.240 M 2.345 0.379 M 2.345 0.379 L 2.445 0.553 L 2.272 0.653 L 2.172 0.479 L 2.345 0.379 M 2.445 1.792 M 2.445 1.792 L 2.345 1.965 L 2.172 1.865 L 2.272 1.692 L 2.445 1.792 M 1.272 2.584 M 1.272 2.584 L 1.072 2.584 L 1.072 2.384 L 1.272 2.384 L 1.272 2.584 M -0.001 1.965 M -0.001 1.965 L -0.101 1.791 L 0.072 1.691 L 0.172 1.865 L -0.001 1.965 M -0.101 0.552 M -0.101 0.552 L -0.001 0.379 L 0.172 0.479 L 0.072 0.652 L -0.101 0.552" style="fill:none;stroke:black;stroke-width:0.012" />
<text x="1.172" y="2.584" style="font: 0.118pt serif; fill: blue">votive_bottom:10</text>
</g>
<g transform="translate(13.832 3.126)">
<path id="MKcSiStqDUZsoLEz" d="M 0.000 0.000 M 1.161 0.000 C 1.802 0.000 2.322 0.520 2.322 1.161 C 2.322 1.802 1.802 2.322 1.161 2.322 C 0.520 2.322 0.000 1.802 0.000 1.161 C 0.000 0.520 0.520 0.000 1.161 0.000 M 1.061 -0.251 M 1.061 -0.251 L 1.261 -0.251 L 1.261 -0.051 L 1.061 -0.051 L 1.061 -0.251 M 2.334 0.368 M 2.334 0.368 L 2.434 0.541 L 2.261 0.641 L 2.161 0.468 L 2.334 0.368 M 2.434 1.781 M 2.434 1.781 L 2.334 1.954 L 2.161 1.854 L 2.261 1.681 L 2.434 1.781 M 1.261 2.573 M 1.261 2.573 L 1.061 2.573 L 1.061 2.373 L 1.261 2.373 L 1.261 2.573 M -0.012 1.954 M -0.012 1.954 L -0.112 1.781 L 0.061 1.681 L 0.161 1.854 L -0.012 1.954 M -0.112 0.541 M -0.112 0.541 L -0.012 0.368 L 0.161 0.468 L 0.061 0.641 L -0.112 0.541" style="fill:none;stroke:black;stroke-width:0.012" />
<text x="1.161" y="2.573" style="font: 0.118pt serif; fill: blue">votive_bottom:11</text>
</g>
<g transform="rotate(90 19.403 3.126) translate(19.403 3.126)">
<path id="MKcSiStqDUZsoLEz" d="M 0.000 0.000 M 0.824 0.000 C 1.279 0.000 1.648 0.369 1.648 0.824 C 1.648 1.279 1.279 1.648 0.824 1.648 C 0.369 1.648 0.000 1.279 0.000 0.824 C 0.000 0.369 0.369 0.000 0.824 0.000 M 0.724 -0.589 M 0.724 -0.589 L 0.924 -0.589 L 0.924 -0.389 L 0.724 -0.389 L 0.724 -0.589 M 1.997 0.031 M 1.997 0.031 L 2.097 0.204 L 1.924 0.304 L 1.824 0.131 L 1.997 0.031 M 2.097 1.444 M 2.097 1.444 L 1.997 1.617 L 1.824 1.517 L 1.924 1.344 L 2.097 1.444 M 0.924 2.237 M 0.924 2.237 L 0.724 2.237 L 0.724 2.037 L 0.924 2.037 L 0.924 2.237 M -0.349 1.617 M -0.349 1.617 L -0.449 1.444 L -0.276 1.344 L -0.176 1.517 L -0.349 1.617 M -0.449 0.204 M -0.449 0.204 L -0.349 0.031 L -0.176 0.131 L -0.276 0.304 L -0.449 0.204" style="fill:none;stroke:black;stroke-width:0.012" />
<text x="0.824" y="2.237" style="font: 0.118pt serif; fill: blue">votive_bottom:12</text>
</g>
<g transform="translate(13.832 6.151)">
<path id="MKcSiStqDUZsoLEz" d="M 0.000 0.000 M 0.741 0.000 C 1.150 0.000 1.482 0.332 1.482 0.741 C 1.482 1.150 1.150 1.482 0.741 1.482 C 0.332 1.482 0.000 1.150 0.000 0.741 C 0.000 0.332 0.332 0.000 0.741 0.000 M 0.641 -0.672 M 0.641 -0.672 L 0.841 -0.672 L 0.841 -0.472 L 0.641 -0.472 L 0.641 -0.672 M 1.914 -0.052 M 1.914 -0.052 L 2.014 0.121 L 1.841 0.221 L 1.741 0.048 L 1.914 -0.052 M 2.014 1.361 M 2.014 1.361 L 1.914 1.534 L 1.741 1.434 L 1.841 1.261 L 2.014 1.361 M 0.841 2.154 M 0.841 2.154 L 0.641 2.154 L 0.641 1.954 L 0.841 1.954 L 0.841 2.154 M -0.432 1.534 M -0.432 1.534 L -0.532 1.361 L -0.359 1.261 L -0.259 1.434 L -0.432 1.534 M -0.532 0.121 M -0.532 0.121 L -0.432 -0.052 L -0.259 0.048 L -0.359 0.221 L -0.532 0.121" style="fill:none;stroke:black;stroke-width:0.012" />
<text x="0.741" y="2.154" style="font: 0.118pt serif; fill: blue">votive_bottom:13</text>
</g>
<g transform="translate(16.579 6.151)">
<path id="MKcSiStqDUZsoLEz" d="M 0.000 0.000 M 0.740 0.000 C 1.149 0.000 1.480 0.331 1.480 0.740 C 1.480 1.149 1.149 1.480 0.740 1.480 C 0.331 1.480 0.000 1.149 0.000 0.740 C 0.000 0.331 0.331 0.000 0.740 0.000 M 0.640 -0.672 M 0.640 -0.672 L 0.840 -0.672 L 0.840 -0.472 L 0.640 -0.472 L 0.640 -0.672 M 1.913 -0.053 M 1.913 -0.053 L 2.013 0.120 L 1.840 0.220 L 1.740 0.047 L 1.913 -0.053 M 2.013 1.360 M 2.013 1.360 L 1.913 1.533 L 1.740 1.433 L 1.840 1.260 L 2.013 1.360 M 0.840 2.152 M 0.840 2.152 L 0.640 2.152 L 0.640 1.952 L 0.840 1.952 L 0.840 2.152 M -0.433 1.533 M -0.433 1.533 L -0.533 1.360 L -0.360 1.260 L -0.260 1.433 L -0.433 1.533 M -0.533 0.120 M -0.533 0.120 L -0.433 -0.053 L -0.260 0.047 L -0.360 0.220 L -0.533 0.120" style="fill:none;stroke:black;stroke-width:0.012" />
<text x="0.740" y="2.152" style="font: 0.118pt serif; fill: blue">votive_bottom:14</text>
</g>
<g transform="rotate(90 19.405 9.176) translate(19.405 9.176)">
<path id="MKcSiStqDUZsoLEz" d="M 0.000 0.000 M 0.762 0.000 C 1.182 0.000 1.523 0.341 1.523 0.762 C 1.523 1.182 1.182 1.523 0.762 1.523 C 0.341 1.523 0.000 1.182 0.000 0.762 C 0.000 0.341 0.341 0.000 0.762 0.000 M 0.662 -0.651 M 0.662 -0.651 L 0.862 -0.651 L 0.862 -0.451 L 0.662 -0.451 L 0.662 -0.651 M 1.935 -0.031 M 1.935 -0.031 L 2.035 0.142 L 1.862 0.242 L 1.762 0.069 L 1.935 -0.031 M 2.036 1.381 M 2.036 1.381 L 1.936 1.555 L 1.763 1.455 L 1.863 1.281 L 2.036 1.381 M 0.862 2.175 M 0.862 2.175 L 0.662 2.175 L 0.662 1.975 L 0.862 1.975 L 0.862 2.175 M -0.411 1.555 M -0.411 1.555 L -0.511 1.382 L -0.338 1.282 L -0.238 1.455 L -0.411 1.555 M -0.512 0.143 M -0.512 0.143 L -0.412 -0.031 L -0.239 0.069 L -0.339 0.243 L -0.512 0.143" style="fill:none;stroke:black;stroke-width:0.012" />
<text x="0.762" y="2.175" style="font: 0.118pt serif; fill: blue">votive_bottom:15</text>
</g>
<g transform="translate(11.086 6.150)">
<path id="MKcSiStqDUZsoLEz" d="M 0.000 0.000 M 0.797 0.000 C 1.238 0.000 1.595 0.357 1.595 0.797 C 1.595 1.238 1.238 1.595 0.797 1.595 C 0.357 1.595 0.000 1.238 0.000 0.797 C 0.000 0.357 0.357 0.000 0.797 0.000 M 0.697 -0.615 M 0.697 -0.615 L 0.897 -0.615 L 0.897 -0.415 L 0.697 -0.415 L 0.697 -0.615 M 1.970 0.005 M 1.970 0.005 L 2.070 0.178 L 1.897 0.278 L 1.797 0.105 L 1.970 0.005 M 2.070 1.417 M 2.070 1.417 L 1.970 1.590 L 1.797 1.490 L 1.897 1.317 L 2.070 1.417 M 0.897 2.209 M 0.897 2.209 L 0.697 2.209 L 0.697 2.009 L 0.897 2.009 L 0.897 2.209 M -0.376 1.589 M -0.376 1.589 L -0.476 1.416 L -0.303 1.316 L -0.203 1.489 L -0.376 1.589 M -0.476 0.177 M -0.476 0.177 L -0.376 0.004 L -0.203 0.104 L -0.303 0.277 L -0.476 0.177" style="fill:none;stroke:black;stroke-width:0.012" />
<text x="0.797" y="2.209" style="font: 0.118pt serif; fill: blue">votive_bottom:16</text>
</g>
<g transform="translate(0.100 3.124)">
<path id="vvmsIDSJeKovPdQS" d="M 0.000 0.000 L 0.200 0.000 L 0.200 5.200 L 0.000 5.200 L 0.000 0.000" style="fill:none;stroke:black;stroke-width:0.012" />
</g>
<g transform="translate(0.500 3.124)">
<path id="vvmsIDSJeKovPdQS" d="M 0.000 0.000 L 0.200 0.000 L 0.200 5.200 L 0.000 5.200 L 0.000 0.000" style="fill:none;stroke:black;stroke-width:0.012" />
</g>
<g transform="translate(0.900 3.124)">
<path id="vvmsIDSJeKovPdQS" d="M 0.000 0.000 L 0.200 0.000 L 0.200 5.200 L 0.000 5.200 L 0.000 0.000" style="fill:none;stroke:black;stroke-width:0.012" />
</g>
<g transform="translate(1.300 3.124)">
<path id="vvmsIDSJeKovPdQS" d="M 0.000 0.000 L 0.200 0.000 L 0.200 5.200 L 0.000 5.200 L 0.000 0.000" style="fill:none;stroke:black;stroke-width:0.012" />
</g>
<g transform="translate(1.700 3.124)">
<path id="vvmsIDSJeKovPdQS" d="M 0.000 0.000 L 0.200 0.000 L 0.200 5.200 L 0.000 5.200 L 0.000 0.000" style="fill:none;stroke:black;stroke-width:0.012" />
</g>
<g transform="translate(2.100 3.124)">
<path id="vvmsIDSJeKovPdQS" d="M 0.000 0.000 L 0.200 0.000 L 0.200 5.200 L 0.000 5.200 L 0.000 0.000" style="fill:none;stroke:black;stroke-width:0.012" />
</g>
</svg>
