<?xml version="1.0"?>
	<!-- Generated by github.com/dustismo/heavyfishdesign -->
	<svg width="20.000in" height="12.000in" viewBox="0.000 0.000 20.000 12.000"
    	xmlns="http://www.w3.org/2000/svg"
		xmlns:xlink="http://www.w3.org/1999/xlink">
	<g transform="translate(0.100 0.100)">
<path id="MKcSiStqDUZsoLEz" d="M 0.000 0.000 M 0.844 0.000 C 1.310 0.000 1.687 0.378 1.687 0.844 C 1.687 1.310 1.310 1.687 0.844 1.687 C 0.378 1.687 0.000 1.310 0.000 0.844 C 0.000 0.378 0.378 0.000 0.844 0.000 M 0.744 -0.569 M 0.744 -0.569 L 0.944 -0.569 L 0.944 -0.369 L 0.744 -0.369 L 0.744 -0.569 M 2.017 0.051 M 2.017 0.051 L 2.117 0.224 L 1.944 0.324 L 1.844 0.151 L 2.017 0.051 M 2.118 1.463 M 2.118 1.463 L 2.018 1.637 L 1.845 1.537 L 1.945 1.363 L 2.118 1.463 M 0.944 2.257 M 0.944 2.257 L 0.744 2.257 L 0.744 2.057 L 0.944 2.057 L 0.944 2.257 M -0.329 1.637 M -0.329 1.637 L -0.429 1.464 L -0.256 1.364 L -0.156 1.537 L -0.329 1.637 M -0.430 0.225 M -0.430 0.225 L -0.330 0.051 L -0.157 0.151 L -0.257 0.325 L -0.430 0.225" style="fill:none;stroke:black;stroke-width:0.012" />
<text x="0.844" y="2.257" style="font: 0.118pt serif; fill: blue">votive_bottom:17</text>
</g>
<g transform="translate(0.100 3.126)">
<path id="MKcSiStqDUZsoLEz" d="M 0.000 0.000 M 0.898 0.000 C 1.394 0.000 1.797 0.402 1.797 0.898 C 1.797 1.394 1.394 1.797 0.898 1.797 C 0.402 1.797 0.000 1.394 0.000 0.898 C 0.000 0.402 0.402 0.000 0.898 0.000 M 0.798 -0.514 M 0.798 -0.514 L 0.998 -0.514 L 0.998 -0.314 L 0.798 -0.314 L 0.798 -0.514 M 2.071 0.106 M 2.071 0.106 L 2.171 0.279 L 1.998 0.379 L 1.898 0.206 L 2.071 0.106 M 2.171 1.518 M 2.171 1.518 L 2.071 1.691 L 1.898 1.591 L 1.998 1.418 L 2.171 1.518 M 0.998 2.310 M 0.998 2.310 L 0.798 2.310 L 0.798 2.110 L 0.998 2.110 L 0.998 2.310 M -0.275 1.690 M -0.275 1.690 L -0.375 1.517 L -0.202 1.417 L -0.102 1.590 L -0.275 1.690 M -0.375 0.278 M -0.375 0.278 L -0.275 0.105 L -0.102 0.205 L -0.202 0.378 L -0.375 0.278" style="fill:none;stroke:black;stroke-width:0.012" />
<text x="0.898" y="2.310" style="font: 0.118pt serif; fill: blue">votive_bottom:18</text>
</g>
<g transform="translate(2.847 0.100)">
<path id="MKcSiStqDUZsoLEz" d="M 0.000 0.000 M 0.961 0.000 C 1.491 0.000 1.921 0.430 1.921 0.961 C 1.921 1.491 1.491 1.921 0.961 1.921 C 0.430 1.921 0.000 1.491 0.000 0.961 C 0.000 0.430 0.430 0.000 0.961 0.000 M 0.861 -0.452 M 0.861 -0.452 L 1.061 -0.452 L 1.061 -0.252 L 0.861 -0.252 L 0.861 -0.452 M 2.134 0.168 M 2.134 0.168 L 2.234 0.341 L 2.061 0.441 L 1.961 0.268 L 2.134 0.168 M 2.235 1.580 M 2.235 1.580 L 2.135 1.754 L 1.962 1.654 L 2.062 1.480 L 2.235 1.580 M 1.061 2.374 M 1.061 2.374 L 0.861 2.374 L 0.861 2.174 L 1.061 2.174 L 1.061 2.374 M -0.212 1.754 M -0.212 1.754 L -0.312 1.581 L -0.139 1.481 L -0.039 1.654 L -0.212 1.754 M -0.313 0.342 M -0.313 0.342 L -0.213 0.168 L -0.040 0.268 L -0.140 0.442 L -0.313 0.342" style="fill:none;stroke:black;stroke-width:0.012" />
<text x="0.961" y="2.374" style="font: 0.118pt serif; fill: blue">votive_bottom:19</text>
</g>
<g transform="translate(5.595 0.100)">
<path id="MKcSiStqDUZsoLEz" d="M 0.000 0.000 M 1.652 0.000 C 2.564 0.000 3.304 0.740 3.304 1.652 C 3.304 2.564 2.564 3.304 1.652 3.304 C 0.740 3.304 0.000 2.564 0.000 1.652 C 0.000 0.740 0.740 0.000 1.652 0.000 M 1.552 0.240 M 1.552 0.240 L 1.752 0.240 L 1.752 0.440 L 1.552 0.440 L 1.552 0.240 M 2.825 0.859 M 2.825 0.859 L 2.925 1.032 L 2.752 1.132 L 2.652 0.959 L 2.825 0.859 M 2.925 2.272 M 2.925 2.272 L 2.825 2.445 L 2.652 2.345 L 2.752 2.172 L 2.925 2.272 M 1.752 3.064 M 1.752 3.064 L 1.552 3.064 L 1.552 2.864 L 1.752 2.864 L 1.752 3.064 M 0.479 2.445 M 0.479 2.445 L 0.379 2.272 L 0.552 2.172 L 0.652 2.345 L 0.479 2.445 M 0.379 1.032 M 0.379 1.032 L 0.479 0.859 L 0.652 0.959 L 0.552 1.132 L 0.379 1.032" style="fill:none;stroke:black;stroke-width:0.012" />
<text x="1.652" y="3.304" style="font: 0.118pt serif; fill: blue">votive_bottom:20</text>
</g>
<g transform="translate(5.595 3.604)">
<path id="MKcSiStqDUZsoLEz" d="M 0.000 0.000 M 1.631 0.000 C 2.532 0.000 3.262 0.730 3.262 1.631 C 3.262 2.532 2.532 3.262 1.631 3.262 C 0.730 3.262 0.000 2.532 0.000 1.631 C 0.000 0.730 0.730 0.000 1.631 0.000 M 1.531 0.219 M 1.531 0.219 L 1.731 0.219 L 1.731 0.419 L 1.531 0.419 L 1.531 0.219 M 2.804 0.838 M 2.804 0.838 L 2.904 1.012 L 2.731 1.112 L 2.631 0.938 L 2.804 0.838 M 2.904 2.251 M 2.904 2.251 L 2.804 2.424 L 2.631 2.324 L 2.731 2.151 L 2.904 2.251 M 1.731 3.043 M 1.731 3.043 L 1.531 3.043 L 1.531 2.843 L 1.731 2.843 L 1.731 3.043 M 0.458 2.424 M 0.458 2.424 L 0.358 2.250 L 0.531 2.150 L 0.631 2.324 L 0.458 2.424 M 0.358 1.011 M 0.358 1.011 L 0.458 0.838 L 0.631 0.938 L 0.531 1.111 L 0.358 1.011" style="fill:none;stroke:black;stroke-width:0.012" />
<text x="1.631" y="3.262" style="font: 0.118pt serif; fill: blue">votive_bottom:21</text>
</g>
<g transform="translate(5.595 7.066)">
<path id="MKcSiStqDUZsoLEz" d="M 0.000 0.000 M 1.610 0.000 C 2.500 0.000 3.221 0.721 3.221 1.610 C 3.221 2.500 2.500 3.221 1.610 3.221 C 0.721 3.221 0.000 2.500 0.000 1.610 C 0.000 0.721 0.721 0.000 1.610 0.000 M 1.510 0.198 M 1.510 0.198 L 1.710 0.198 L 1.710 0.398 L 1.510 0.398 L 1.510 0.198 M 2.783 0.818 M 2.783 0.818 L 2.883 0.991 L 2.710 1.091 L 2.610 0.918 L 2.783 0.818 M 2.883 2.230 M 2.883 2.230 L 2.783 2.403 L 2.610 2.303 L 2.710 2.130 L 2.883 2.230 M 1.710 3.022 M 1.710 3.022 L 1.510 3.022 L 1.510 2.822 L 1.710 2.822 L 1.710 3.022 M 0.437 2.402 M 0.437 2.402 L 0.337 2.229 L 0.510 2.129 L 0.610 2.302 L 0.437 2.402 M 0.337 0.990 M 0.337 0.990 L 0.437 0.817 L 0.610 0.917 L 0.510 1.090 L 0.337 0.990" style="fill:none;stroke:black;stroke-width:0.012" />
<text x="1.610" y="3.221" style="font: 0.118pt serif; fill: blue">votive_bottom:22</text>
</g>
</svg>
