<?xml version="1.0"?>
	<!-- Generated by github.com/dustismo/heavyfishdesign -->
	<svg width="20.000in" height="12.000in" viewBox="0.000 0.000 20.000 12.000"
    	xmlns="http://www.w3.org/2000/svg"
		xmlns:xlink="http://www.w3.org/1999/xlink">
	<g transform="translate(0.100 0.100)">
<path id="de1913d75e8d12e1" d="M 0.000 0.000 M 2.044 0.000 C 3.173 0.000 4.088 0.915 4.088 2.044 C 4.088 3.173 3.173 4.088 2.044 4.088 C 0.915 4.088 0.000 3.173 0.000 2.044 C 0.000 0.915 0.915 0.000 2.044 0.000 M 1.944 0.632 M 1.944 0.632 L 2.144 0.632 L 2.144 0.832 L 1.944 0.832 L 1.944 0.632 M 3.217 1.251 M 3.217 1.251 L 3.317 1.425 L 3.144 1.525 L 3.044 1.351 L 3.217 1.251 M 3.317 2.664 M 3.317 2.664 L 3.217 2.837 L 3.044 2.737 L 3.144 2.564 L 3.317 2.664 M 2.144 3.456 M 2.144 3.456 L 1.944 3.456 L 1.944 3.256 L 2.144 3.256 L 2.144 3.456 M 0.871 2.837 M 0.871 2.837 L 0.771 2.663 L 0.944 2.563 L 1.044 2.737 L 0.871 2.837 M 0.771 1.424 M 0.771 1.424 L 0.871 1.251 L 1.044 1.351 L 0.944 1.524 L 0.771 1.424" style="fill:none;stroke:black;stroke-width:0.012" />
<text x="2.044" y="4.088" style="font: 0.118pt serif; fill: blue">votive_bottom:3</text>
</g>
<g transform="translate(0.100 4.388)">
<path id="de1913d75e8d12e1" d="M 0.000 0.000 M 1.973 0.000 C 3.063 0.000 3.947 0.884 3.947 1.973 C 3.947 3.063 3.063 3.947 1.973 3.947 C 0.884 3.947 0.000 3.063 0.000 1.973 C 0.000 0.884 0.884 0.000 1.973 0.000 M 1.873 0.561 M 1.873 0.561 L 2.073 0.561 L 2.073 0.761 L 1.873 0.761 L 1.873 0.561 M 3.146 1.181 M 3.146 1.181 L 3.246 1.354 L 3.073 1.454 L 2.973 1.281 L 3.146 1.181 M 3.246 2.593 M 3.246 2.593 L 3.146 2.766 L 2.972 2.666 L 3.072 2.493 L 3.246 2.593 M 2.073 3.385 M 2.073 3.385 L 1.873 3.385 L 1.873 3.185 L 2.073 3.185 L 2.073 3.385 M 0.800 2.765 M 0.800 2.765 L 0.700 2.592 L 0.873 2.492 L 0.973 2.665 L 0.800 2.765 M 0.700 1.353 M 0.700 1.353 L 0.800 1.180 L 0.974 1.280 L 0.874 1.453 L 0.700 1.353" style="fill:none;stroke:black;stroke-width:0.012" />
<text x="1.973" y="3.947" style="font: 0.118pt serif; fill: blue">votive_bottom:4</text>
</g>
</svg>
