<?xml version="1.0"?>
	<!-- Generated by github.com/dustismo/heavyfishdesign -->
	<svg width="20.000in" height="12.000in" viewBox="0.000 0.000 20.000 12.000"
    	xmlns="http://www.w3.org/2000/svg"
		xmlns:xlink="http://www.w3.org/1999/xlink">
	<g transform="translate(0.100 0.100)">
<path id="679bfac8aefd24db" d="M 0.000 0.000 M 1.158 0.000 C 1.797 0.000 2.315 0.518 2.315 1.158 C 2.315 1.797 1.797 2.315 1.158 2.315 C 0.518 2.315 0.000 1.797 0.000 1.158 C 0.000 0.518 0.518 0.000 1.158 0.000 M 0.158 0.158 M 1.158 0.158 C 1.710 0.158 2.158 0.605 2.158 1.158 C 2.158 1.710 1.710 2.158 1.158 2.158 C 0.605 2.158 0.158 1.710 0.158 1.158 C 0.158 0.605 0.605 0.158 1.158 0.158 M 1.058 -0.255 M 1.058 -0.255 L 1.258 -0.255 L 1.258 -0.055 L 1.058 -0.055 L 1.058 -0.255 M 2.331 0.365 M 2.331 0.365 L 2.431 0.538 L 2.258 0.638 L 2.158 0.465 L 2.331 0.365 M 2.432 1.777 M 2.432 1.777 L 2.332 1.951 L 2.159 1.851 L 2.259 1.677 L 2.432 1.777 M 1.258 2.571 M 1.258 2.571 L 1.058 2.571 L 1.058 2.371 L 1.258 2.371 L 1.258 2.571 M -0.015 1.951 M -0.015 1.951 L -0.115 1.778 L 0.058 1.678 L 0.158 1.851 L -0.015 1.951 M -0.116 0.539 M -0.116 0.539 L -0.016 0.365 L 0.157 0.465 L 0.057 0.639 L -0.116 0.539" style="fill:none;stroke:black;stroke-width:0.012" />
<text x="1.158" y="2.571" style="font: 0.118pt serif; fill: blue">votive_top:0</text>
</g>
<g transform="translate(2.848 0.100)">
<path id="679bfac8aefd24db" d="M 0.000 0.000 M 1.307 0.000 C 2.029 0.000 2.614 0.585 2.614 1.307 C 2.614 2.029 2.029 2.614 1.307 2.614 C 0.585 2.614 0.000 2.029 0.000 1.307 C 0.000 0.585 0.585 0.000 1.307 0.000 M 0.307 0.307 M 1.307 0.307 C 1.859 0.307 2.307 0.755 2.307 1.307 C 2.307 1.859 1.859 2.307 1.307 2.307 C 0.755 2.307 0.307 1.859 0.307 1.307 C 0.307 0.755 0.755 0.307 1.307 0.307 M 1.207 -0.106 M 1.207 -0.106 L 1.407 -0.106 L 1.407 0.094 L 1.207 0.094 L 1.207 -0.106 M 2.480 0.514 M 2.480 0.514 L 2.580 0.687 L 2.407 0.787 L 2.307 0.614 L 2.480 0.514 M 2.580 1.927 M 2.580 1.927 L 2.480 2.100 L 2.307 2.000 L 2.407 1.827 L 2.580 1.927 M 1.407 2.720 M 1.407 2.720 L 1.207 2.720 L 1.207 2.520 L 1.407 2.520 L 1.407 2.720 M 0.134 2.100 M 0.134 2.100 L 0.034 1.927 L 0.207 1.827 L 0.307 2.000 L 0.134 2.100 M 0.034 0.687 M 0.034 0.687 L 0.134 0.514 L 0.307 0.614 L 0.207 0.787 L 0.034 0.687" style="fill:none;stroke:black;stroke-width:0.012" />
<text x="1.307" y="2.720" style="font: 0.118pt serif; fill: blue">votive_top:1</text>
</g>
<g transform="translate(5.661 0.100)">
<path id="679bfac8aefd24db" d="M 0.000 0.000 M 1.694 0.000 C 2.630 0.000 3.388 0.759 3.388 1.694 C 3.388 2.630 2.630 3.388 1.694 3.388 C 0.759 3.388 0.000 2.630 0.000 1.694 C 0.000 0.759 0.759 0.000 1.694 0.000 M 0.694 0.694 M 1.694 0.694 C 2.246 0.694 2.694 1.142 2.694 1.694 C 2.694 2.246 2.246 2.694 1.694 2.694 C 1.142 2.694 0.694 2.246 0.694 1.694 C 0.694 1.142 1.142 0.694 1.694 0.694 M 1.594 0.282 M 1.594 0.282 L 1.794 0.282 L 1.794 0.482 L 1.594 0.482 L 1.594 0.282 M 2.867 0.901 M 2.867 0.901 L 2.967 1.075 L 2.794 1.175 L 2.694 1.001 L 2.867 0.901 M 2.967 2.314 M 2.967 2.314 L 2.867 2.487 L 2.694 2.387 L 2.794 2.214 L 2.967 2.314 M 1.794 3.106 M 1.794 3.106 L 1.594 3.106 L 1.594 2.906 L 1.794 2.906 L 1.794 3.106 M 0.521 2.487 M 0.521 2.487 L 0.421 2.313 L 0.594 2.213 L 0.694 2.387 L 0.521 2.487 M 0.421 1.074 M 0.421 1.074 L 0.521 0.901 L 0.694 1.001 L 0.594 1.174 L 0.421 1.074" style="fill:none;stroke:black;stroke-width:0.012" />
<text x="1.694" y="3.388" style="font: 0.118pt serif; fill: blue">votive_top:2</text>
</g>
<g transform="translate(9.250 0.100)">
<path id="de1913d75e8d12e1" d="M 0.000 0.000 M 1.816 0.000 C 2.819 0.000 3.632 0.813 3.632 1.816 C 3.632 2.819 2.819 3.632 1.816 3.632 C 0.813 3.632 0.000 2.819 0.000 1.816 C 0.000 0.813 0.813 0.000 1.816 0.000 M 1.716 0.404 M 1.716 0.404 L 1.916 0.404 L 1.916 0.604 L 1.716 0.604 L 1.716 0.404 M 2.989 1.023 M 2.989 1.023 L 3.089 1.196 L 2.916 1.296 L 2.816 1.123 L 2.989 1.023 M 3.089 2.436 M 3.089 2.436 L 2.989 2.609 L 2.816 2.509 L 2.916 2.336 L 3.089 2.436 M 1.916 3.228 M 1.916 3.228 L 1.716 3.228 L 1.716 3.028 L 1.916 3.028 L 1.916 3.228 M 0.643 2.609 M 0.643 2.609 L 0.543 2.436 L 0.716 2.336 L 0.816 2.509 L 0.643 2.609 M 0.543 1.196 M 0.543 1.196 L 0.643 1.023 L 0.816 1.123 L 0.716 1.296 L 0.543 1.196" style="fill:none;stroke:black;stroke-width:0.012" />
<text x="1.816" y="3.632" style="font: 0.118pt serif; fill: blue">votive_bottom:0</text>
</g>
<g transform="translate(9.250 3.932)">
<path id="de1913d75e8d12e1" d="M 0.000 0.000 M 1.972 0.000 C 3.061 0.000 3.944 0.883 3.944 1.972 C 3.944 3.061 3.061 3.944 1.972 3.944 C 0.883 3.944 0.000 3.061 0.000 1.972 C 0.000 0.883 0.883 0.000 1.972 0.000 M 1.872 0.560 M 1.872 0.560 L 2.072 0.560 L 2.072 0.760 L 1.872 0.760 L 1.872 0.560 M 3.145 1.179 M 3.145 1.179 L 3.245 1.352 L 3.072 1.452 L 2.972 1.279 L 3.145 1.179 M 3.245 2.592 M 3.245 2.592 L 3.145 2.765 L 2.972 2.665 L 3.072 2.492 L 3.245 2.592 M 2.072 3.384 M 2.072 3.384 L 1.872 3.384 L 1.872 3.184 L 2.072 3.184 L 2.072 3.384 M 0.799 2.765 M 0.799 2.765 L 0.699 2.592 L 0.872 2.492 L 0.972 2.665 L 0.799 2.765 M 0.699 1.352 M 0.699 1.352 L 0.799 1.179 L 0.972 1.279 L 0.872 1.452 L 0.699 1.352" style="fill:none;stroke:black;stroke-width:0.012" />
<text x="1.972" y="3.944" style="font: 0.118pt serif; fill: blue">votive_bottom:1</text>
</g>
<g transform="translate(13.394 3.932)">
<path id="de1913d75e8d12e1" d="M 0.000 0.000 M 2.042 0.000 C 3.170 0.000 4.084 0.914 4.084 2.042 C 4.084 3.170 3.170 4.084 2.042 4.084 C 0.914 4.084 0.000 3.170 0.000 2.042 C 0.000 0.914 0.914 0.000 2.042 0.000 M 1.942 0.629 M 1.942 0.629 L 2.142 0.629 L 2.142 0.829 L 1.942 0.829 L 1.942 0.629 M 3.215 1.249 M 3.215 1.249 L 3.315 1.422 L 3.142 1.522 L 3.042 1.349 L 3.215 1.249 M 3.315 2.662 M 3.315 2.662 L 3.215 2.835 L 3.042 2.735 L 3.142 2.562 L 3.315 2.662 M 2.142 3.455 M 2.142 3.455 L 1.942 3.455 L 1.942 3.255 L 2.142 3.255 L 2.142 3.455 M 0.869 2.835 M 0.869 2.835 L 0.769 2.662 L 0.942 2.562 L 1.042 2.735 L 0.869 2.835 M 0.769 1.422 M 0.769 1.422 L 0.869 1.249 L 1.042 1.349 L 0.942 1.522 L 0.769 1.422" style="fill:none;stroke:black;stroke-width:0.012" />
<text x="2.042" y="4.084" style="font: 0.118pt serif; fill: blue">votive_bottom:2</text>
</g>
<g transform="translate(13.082 0.100)">
<path id="de1913d75e8d12e1" d="M 0.000 0.000 M 1.810 0.000 C 2.810 0.000 3.620 0.810 3.620 1.810 C 3.620 2.810 2.810 3.620 1.810 3.620 C 0.810 3.620 0.000 2.810 0.000 1.810 C 0.000 0.810 0.810 0.000 1.810 0.000 M 1.710 0.398 M 1.710 0.398 L 1.910 0.398 L 1.910 0.598 L 1.710 0.598 L 1.710 0.398 M 2.983 1.017 M 2.983 1.017 L 3.083 1.191 L 2.910 1.291 L 2.810 1.117 L 2.983 1.017 M 3.083 2.430 M 3.083 2.430 L 2.983 2.603 L 2.810 2.503 L 2.910 2.330 L 3.083 2.430 M 1.910 3.222 M 1.910 3.222 L 1.710 3.222 L 1.710 3.022 L 1.910 3.022 L 1.910 3.222 M 0.637 2.603 M 0.637 2.603 L 0.537 2.429 L 0.710 2.329 L 0.810 2.503 L 0.637 2.603 M 0.537 1.190 M 0.537 1.190 L 0.637 1.017 L 0.810 1.117 L 0.710 1.290 L 0.537 1.190" style="fill:none;stroke:black;stroke-width:0.012" />
<text x="1.810" y="3.620" style="font: 0.118pt serif; fill: blue">votive_bottom:5</text>
</g>
<g transform="translate(5.661 3.688)">
<path id="de1913d75e8d12e1" d="M 0.000 0.000 M 1.513 0.000 C 2.348 0.000 3.026 0.677 3.026 1.513 C 3.026 2.348 2.348 3.026 1.513 3.026 C 0.677 3.026 0.000 2.348 0.000 1.513 C 0.000 0.677 0.677 0.000 1.513 0.000 M 1.413 0.100 M 1.413 0.100 L 1.613 0.100 L 1.613 0.300 L 1.413 0.300 L 1.413 0.100 M 2.686 0.720 M 2.686 0.720 L 2.786 0.893 L 2.613 0.993 L 2.513 0.820 L 2.686 0.720 M 2.786 2.133 M 2.786 2.133 L 2.686 2.306 L 2.513 2.206 L 2.613 2.033 L 2.786 2.133 M 1.613 2.926 M 1.613 2.926 L 1.413 2.926 L 1.413 2.726 L 1.613 2.726 L 1.613 2.926 M 0.340 2.306 M 0.340 2.306 L 0.240 2.133 L 0.413 2.033 L 0.513 2.206 L 0.340 2.306 M 0.240 0.893 M 0.240 0.893 L 0.340 0.720 L 0.513 0.820 L 0.413 0.993 L 0.240 0.893" style="fill:none;stroke:black;stroke-width:0.012" />
<text x="1.513" y="3.026" style="font: 0.118pt serif; fill: blue">votive_bottom:6</text>
</g>
<g transform="translate(0.100 3.126)">
<path id="de1913d75e8d12e1" d="M 0.000 0.000 M 1.158 0.000 C 1.797 0.000 2.315 0.518 2.315 1.158 C 2.315 1.797 1.797 2.315 1.158 2.315 C 0.518 2.315 0.000 1.797 0.000 1.158 C 0.000 0.518 0.518 0.000 1.158 0.000 M 1.058 -0.255 M 1.058 -0.255 L 1.258 -0.255 L 1.258 -0.055 L 1.058 -0.055 L 1.058 -0.255 M 2.331 0.365 M 2.331 0.365 L 2.431 0.538 L 2.258 0.638 L 2.158 0.465 L 2.331 0.365 M 2.432 1.777 M 2.432 1.777 L 2.332 1.951 L 2.159 1.851 L 2.259 1.677 L 2.432 1.777 M 1.258 2.571 M 1.258 2.571 L 1.058 2.571 L 1.058 2.371 L 1.258 2.371 L 1.258 2.571 M -0.015 1.951 M -0.015 1.951 L -0.115 1.778 L 0.058 1.678 L 0.158 1.851 L -0.015 1.951 M -0.116 0.539 M -0.116 0.539 L -0.016 0.365 L 0.157 0.465 L 0.057 0.639 L -0.116 0.539" style="fill:none;stroke:black;stroke-width:0.012" />
<text x="1.158" y="2.571" style="font: 0.118pt serif; fill: blue">votive_bottom:7</text>
</g>
<g transform="translate(0.100 6.151)">
<path id="d2f38cd33365829b" d="M 0.000 0.000 L 0.200 0.000 L 0.200 2.200 L 0.000 2.200 L 0.000 0.000" style="fill:none;stroke:black;stroke-width:0.012" />
</g>
<g transform="translate(0.500 6.151)">
<path id="d2f38cd33365829b" d="M 0.000 0.000 L 0.200 0.000 L 0.200 2.200 L 0.000 2.200 L 0.000 0.000" style="fill:none;stroke:black;stroke-width:0.012" />
</g>
<g transform="translate(0.900 6.151)">
<path id="d2f38cd33365829b" d="M 0.000 0.000 L 0.200 0.000 L 0.200 2.200 L 0.000 2.200 L 0.000 0.000" style="fill:none;stroke:black;stroke-width:0.012" />
</g>
<g transform="translate(1.300 6.151)">
<path id="d2f38cd33365829b" d="M 0.000 0.000 L 0.200 0.000 L 0.200 2.200 L 0.000 2.200 L 0.000 0.000" style="fill:none;stroke:black;stroke-width:0.012" />
</g>
<g transform="translate(1.700 6.151)">
<path id="d2f38cd33365829b" d="M 0.000 0.000 L 0.200 0.000 L 0.200 2.200 L 0.000 2.200 L 0.000 0.000" style="fill:none;stroke:black;stroke-width:0.012" />
</g>
<g transform="translate(2.100 6.151)">
<path id="d2f38cd33365829b" d="M 0.000 0.000 L 0.200 0.000 L 0.200 2.200 L 0.000 2.200 L 0.000 0.000" style="fill:none;stroke:black;stroke-width:0.012" />
</g>
</svg>
