<?xml version="1.0"?>
	<!-- Generated by github.com/dustismo/heavyfishdesign -->
	<svg width="20.000in" height="11.000in" viewBox="0.000 0.000 20.000 11.000"
    	xmlns="http://www.w3.org/2000/svg"
		xmlns:xlink="http://www.w3.org/1999/xlink">
	<g transform="translate(0.100 0.100)">
<path id="d5617ac09a73a0ba" d="M 1.621 -0.004 C 1.020 -0.004 0.495 0.323 0.214 0.808 C 0.076 1.047 -0.004 1.325 -0.004 1.621 C -0.004 2.222 0.323 2.747 0.808 3.027 C 1.047 3.166 1.325 3.245 1.621 3.245 C 2.222 3.245 2.747 2.919 3.027 2.433 C 3.166 2.194 3.245 1.917 3.245 1.621 C 3.245 1.020 2.919 0.495 2.433 0.214 C 2.194 0.076 1.917 -0.004 1.621 -0.004 M 1.473 1.716 M 1.473 1.716 L 1.769 1.716 L 1.769 1.523 L 1.476 1.523 L 1.476 1.719" style="fill:none;stroke:black;stroke-width:0.012" />
<text x="1.621" y="3.245" style="font: 0.118pt serif; fill: blue">votive_bottom:21</text>
</g>
</svg>
