<?xml version="1.0"?>
	<!-- Generated by github.com/dustismo/heavyfishdesign -->
	<svg width="20.000in" height="11.000in" viewBox="0.000 0.000 20.000 11.000"
    	xmlns="http://www.w3.org/2000/svg"
		xmlns:xlink="http://www.w3.org/1999/xlink">
	<g transform="translate(0.100 0.100)">
<path id="d1d2a271b0cef555" d="M 0.000 0.000 M 1.149 0.000 C 1.784 0.000 2.299 0.515 2.299 1.149 C 2.299 1.784 1.784 2.299 1.149 2.299 C 0.515 2.299 0.000 1.784 0.000 1.149 C 0.000 0.515 0.515 0.000 1.149 0.000 M 0.399 0.399 M 1.149 0.399 C 1.564 0.399 1.899 0.735 1.899 1.149 C 1.899 1.564 1.564 1.899 1.149 1.899 C 0.735 1.899 0.399 1.564 0.399 1.149 C 0.399 0.735 0.735 0.399 1.149 0.399" style="fill:none;stroke:black;stroke-width:0.012" />
<text x="1.149" y="2.299" style="font: 0.118pt serif; fill: blue">votive_top:0</text>
</g>
<g transform="translate(0.100 2.599)">
<path id="d1d2a271b0cef555" d="M 0.000 0.000 M 1.138 0.000 C 1.767 0.000 2.276 0.510 2.276 1.138 C 2.276 1.767 1.767 2.276 1.138 2.276 C 0.510 2.276 0.000 1.767 0.000 1.138 C 0.000 0.510 0.510 0.000 1.138 0.000 M 0.388 0.388 M 1.138 0.388 C 1.552 0.388 1.888 0.724 1.888 1.138 C 1.888 1.552 1.552 1.888 1.138 1.888 C 0.724 1.888 0.388 1.552 0.388 1.138 C 0.388 0.724 0.724 0.388 1.138 0.388" style="fill:none;stroke:black;stroke-width:0.012" />
<text x="1.138" y="2.276" style="font: 0.118pt serif; fill: blue">votive_top:1</text>
</g>
<g transform="translate(0.100 5.075)">
<path id="d1d2a271b0cef555" d="M 0.000 0.000 M 1.127 0.000 C 1.749 0.000 2.254 0.504 2.254 1.127 C 2.254 1.749 1.749 2.254 1.127 2.254 C 0.504 2.254 0.000 1.749 0.000 1.127 C 0.000 0.504 0.504 0.000 1.127 0.000 M 0.377 0.377 M 1.127 0.377 C 1.541 0.377 1.877 0.713 1.877 1.127 C 1.877 1.541 1.541 1.877 1.127 1.877 C 0.713 1.877 0.377 1.541 0.377 1.127 C 0.377 0.713 0.713 0.377 1.127 0.377" style="fill:none;stroke:black;stroke-width:0.012" />
<text x="1.127" y="2.254" style="font: 0.118pt serif; fill: blue">votive_top:2</text>
</g>
<g transform="translate(0.100 7.529)">
<path id="d5617ac09a73a0ba" d="M 0.414 -0.004 C 0.259 -0.004 0.125 0.080 0.052 0.205 C 0.017 0.267 -0.004 0.338 -0.004 0.414 C -0.004 0.568 0.080 0.703 0.205 0.775 C 0.267 0.811 0.338 0.831 0.414 0.831 C 0.568 0.831 0.703 0.747 0.775 0.623 C 0.811 0.561 0.831 0.490 0.831 0.414 C 0.831 0.259 0.747 0.125 0.623 0.052 C 0.561 0.017 0.490 -0.004 0.414 -0.004 M 0.562 0.509 M 0.562 0.509 L 0.266 0.509 L 0.266 0.316 L 0.559 0.316 L 0.559 0.512" style="fill:none;stroke:black;stroke-width:0.012" />
<text x="0.414" y="0.831" style="font: 0.118pt serif; fill: blue">votive_bottom:0</text>
</g>
<g transform="translate(1.135 7.529)">
<path id="d5617ac09a73a0ba" d="M 0.283 -0.004 C 0.177 -0.004 0.084 0.054 0.035 0.140 C 0.010 0.182 -0.004 0.231 -0.004 0.283 C -0.004 0.389 0.054 0.482 0.140 0.531 C 0.182 0.556 0.231 0.570 0.283 0.570 C 0.389 0.570 0.482 0.512 0.531 0.427 C 0.556 0.384 0.570 0.335 0.570 0.283 C 0.570 0.177 0.512 0.084 0.427 0.035 C 0.384 0.010 0.335 -0.004 0.283 -0.004 M 0.431 0.378 M 0.431 0.378 L 0.135 0.378 L 0.135 0.185 L 0.428 0.185 L 0.428 0.381" style="fill:none;stroke:black;stroke-width:0.012" />
<text x="0.283" y="0.570" style="font: 0.118pt serif; fill: blue">votive_bottom:1</text>
</g>
<g transform="translate(0.100 8.564)">
<path id="d5617ac09a73a0ba" d="M 0.359 -0.004 C 0.225 -0.004 0.108 0.069 0.045 0.178 C 0.014 0.231 -0.004 0.293 -0.004 0.359 C -0.004 0.493 0.069 0.611 0.178 0.673 C 0.231 0.704 0.293 0.722 0.359 0.722 C 0.493 0.722 0.611 0.649 0.673 0.541 C 0.704 0.487 0.722 0.425 0.722 0.359 C 0.722 0.225 0.649 0.108 0.541 0.045 C 0.487 0.014 0.425 -0.004 0.359 -0.004 M 0.507 0.454 M 0.507 0.454 L 0.211 0.454 L 0.211 0.261 L 0.504 0.261 L 0.504 0.457" style="fill:none;stroke:black;stroke-width:0.012" />
<text x="0.359" y="0.722" style="font: 0.118pt serif; fill: blue">votive_bottom:2</text>
</g>
<g transform="translate(0.100 9.489)">
<path id="d5617ac09a73a0ba" d="M 0.598 -0.004 C 0.375 -0.004 0.181 0.117 0.077 0.297 C 0.026 0.385 -0.004 0.488 -0.004 0.598 C -0.004 0.820 0.117 1.014 0.297 1.118 C 0.385 1.170 0.488 1.199 0.598 1.199 C 0.820 1.199 1.014 1.078 1.118 0.898 C 1.170 0.810 1.199 0.707 1.199 0.598 C 1.199 0.375 1.078 0.181 0.898 0.077 C 0.810 0.026 0.707 -0.004 0.598 -0.004 M 0.742 0.696 M 0.742 0.696 L 0.742 0.499 L 0.449 0.499 L 0.449 0.692 L 0.746 0.692" style="fill:none;stroke:black;stroke-width:0.012" />
<text x="0.598" y="1.199" style="font: 0.118pt serif; fill: blue">votive_bottom:3</text>
</g>
<g transform="translate(2.599 0.100)">
<path id="d5617ac09a73a0ba" d="M 0.742 -0.004 C 0.466 -0.004 0.225 0.146 0.096 0.369 C 0.033 0.479 -0.004 0.606 -0.004 0.742 C -0.004 1.018 0.146 1.259 0.369 1.388 C 0.479 1.452 0.606 1.488 0.742 1.488 C 1.018 1.488 1.259 1.338 1.388 1.116 C 1.452 1.006 1.488 0.878 1.488 0.742 C 1.488 0.466 1.338 0.225 1.116 0.096 C 1.006 0.033 0.878 -0.004 0.742 -0.004 M 0.594 0.837 M 0.594 0.837 L 0.891 0.837 L 0.891 0.644 L 0.598 0.644 L 0.598 0.841" style="fill:none;stroke:black;stroke-width:0.012" />
<text x="0.742" y="1.488" style="font: 0.118pt serif; fill: blue">votive_bottom:4</text>
</g>
<g transform="translate(4.291 0.100)">
<path id="d5617ac09a73a0ba" d="M 0.857 -0.004 C 0.538 -0.004 0.260 0.169 0.112 0.426 C 0.038 0.553 -0.004 0.700 -0.004 0.857 C -0.004 1.175 0.169 1.453 0.426 1.602 C 0.553 1.675 0.700 1.717 0.857 1.717 C 1.175 1.717 1.453 1.544 1.602 1.287 C 1.675 1.160 1.717 1.013 1.717 0.857 C 1.717 0.538 1.544 0.260 1.287 0.112 C 1.160 0.038 1.013 -0.004 0.857 -0.004 M 1.005 0.951 M 1.005 0.951 L 0.708 0.951 L 0.708 0.758 L 1.001 0.758 L 1.001 0.955" style="fill:none;stroke:black;stroke-width:0.012" />
<text x="0.857" y="1.717" style="font: 0.118pt serif; fill: blue">votive_bottom:5</text>
</g>
<g transform="translate(6.211 0.100)">
<path id="d5617ac09a73a0ba" d="M 0.953 -0.004 C 0.599 -0.004 0.290 0.189 0.125 0.475 C 0.043 0.615 -0.004 0.779 -0.004 0.953 C -0.004 1.307 0.189 1.616 0.475 1.782 C 0.615 1.863 0.779 1.910 0.953 1.910 C 1.307 1.910 1.616 1.718 1.782 1.432 C 1.863 1.291 1.910 1.128 1.910 0.953 C 1.910 0.599 1.718 0.290 1.432 0.125 C 1.291 0.043 1.128 -0.004 0.953 -0.004 M 1.098 1.051 M 1.098 1.051 L 1.098 0.855 L 0.805 0.855 L 0.805 1.048 L 1.101 1.048" style="fill:none;stroke:black;stroke-width:0.012" />
<text x="0.953" y="1.910" style="font: 0.118pt serif; fill: blue">votive_bottom:6</text>
</g>
<g transform="translate(8.325 0.100)">
<path id="d5617ac09a73a0ba" d="M 1.036 -0.004 C 0.651 -0.004 0.315 0.205 0.136 0.516 C 0.047 0.669 -0.004 0.846 -0.004 1.036 C -0.004 1.420 0.205 1.756 0.516 1.936 C 0.669 2.024 0.846 2.075 1.036 2.075 C 1.420 2.075 1.756 1.866 1.936 1.555 C 2.024 1.403 2.075 1.225 2.075 1.036 C 2.075 0.651 1.866 0.315 1.555 0.136 C 1.403 0.047 1.225 -0.004 1.036 -0.004 M 1.180 1.134 M 1.180 1.134 L 1.180 0.937 L 0.887 0.937 L 0.887 1.130 L 1.184 1.130" style="fill:none;stroke:black;stroke-width:0.012" />
<text x="1.036" y="2.075" style="font: 0.118pt serif; fill: blue">votive_bottom:7</text>
</g>
<g transform="translate(10.603 0.100)">
<path id="d5617ac09a73a0ba" d="M 1.104 -0.004 C 0.694 -0.004 0.336 0.219 0.145 0.550 C 0.051 0.713 -0.004 0.902 -0.004 1.104 C -0.004 1.514 0.219 1.872 0.550 2.063 C 0.713 2.158 0.902 2.212 1.104 2.212 C 1.514 2.212 1.872 1.989 2.063 1.658 C 2.158 1.495 2.212 1.306 2.212 1.104 C 2.212 0.694 1.989 0.336 1.658 0.145 C 1.495 0.051 1.306 -0.004 1.104 -0.004 M 1.249 1.202 M 1.249 1.202 L 1.249 1.006 L 0.956 1.006 L 0.956 1.199 L 1.252 1.199" style="fill:none;stroke:black;stroke-width:0.012" />
<text x="1.104" y="2.212" style="font: 0.118pt serif; fill: blue">votive_bottom:8</text>
</g>
<g transform="translate(10.603 2.515)">
<path id="d5617ac09a73a0ba" d="M 1.156 -0.004 C 0.727 -0.004 0.352 0.229 0.152 0.576 C 0.053 0.746 -0.004 0.944 -0.004 1.156 C -0.004 1.585 0.229 1.959 0.576 2.160 C 0.746 2.258 0.944 2.315 1.156 2.315 C 1.585 2.315 1.959 2.082 2.160 1.736 C 2.258 1.565 2.315 1.367 2.315 1.156 C 2.315 0.727 2.082 0.352 1.736 0.152 C 1.565 0.053 1.367 -0.004 1.156 -0.004 M 1.300 1.254 M 1.300 1.254 L 1.300 1.057 L 1.007 1.057 L 1.007 1.250 L 1.304 1.250" style="fill:none;stroke:black;stroke-width:0.012" />
<text x="1.156" y="2.315" style="font: 0.118pt serif; fill: blue">votive_bottom:9</text>
</g>
<g transform="translate(13.121 2.515)">
<path id="d5617ac09a73a0ba" d="M 1.178 -0.004 C 0.741 -0.004 0.359 0.234 0.155 0.587 C 0.054 0.761 -0.004 0.963 -0.004 1.178 C -0.004 1.615 0.234 1.997 0.587 2.202 C 0.761 2.302 0.963 2.360 1.178 2.360 C 1.615 2.360 1.997 2.122 2.202 1.769 C 2.302 1.595 2.360 1.394 2.360 1.178 C 2.360 0.741 2.122 0.359 1.769 0.155 C 1.595 0.054 1.394 -0.004 1.178 -0.004 M 1.323 1.276 M 1.323 1.276 L 1.323 1.080 L 1.030 1.080 L 1.030 1.273 L 1.326 1.273" style="fill:none;stroke:black;stroke-width:0.012" />
<text x="1.178" y="2.360" style="font: 0.118pt serif; fill: blue">votive_bottom:10</text>
</g>
<g transform="translate(13.018 0.100)">
<path id="d5617ac09a73a0ba" d="M 1.036 -0.004 C 0.652 -0.004 0.316 0.205 0.136 0.516 C 0.047 0.669 -0.004 0.847 -0.004 1.036 C -0.004 1.421 0.205 1.757 0.516 1.937 C 0.669 2.026 0.847 2.076 1.036 2.076 C 1.421 2.076 1.757 1.867 1.937 1.557 C 2.026 1.404 2.076 1.226 2.076 1.036 C 2.076 0.652 1.867 0.316 1.557 0.136 C 1.404 0.047 1.226 -0.004 1.036 -0.004 M 1.181 1.135 M 1.181 1.135 L 1.181 0.938 L 0.888 0.938 L 0.888 1.131 L 1.185 1.131" style="fill:none;stroke:black;stroke-width:0.012" />
<text x="1.036" y="2.076" style="font: 0.118pt serif; fill: blue">votive_bottom:11</text>
</g>
<g transform="translate(4.291 2.020)">
<path id="d5617ac09a73a0ba" d="M 0.756 -0.004 C 0.475 -0.004 0.229 0.149 0.098 0.376 C 0.034 0.488 -0.004 0.617 -0.004 0.756 C -0.004 1.037 0.149 1.282 0.376 1.413 C 0.488 1.478 0.617 1.515 0.756 1.515 C 1.037 1.515 1.282 1.362 1.413 1.135 C 1.478 1.024 1.515 0.894 1.515 0.756 C 1.515 0.475 1.362 0.229 1.135 0.098 C 1.024 0.034 0.894 -0.004 0.756 -0.004 M 0.900 0.854 M 0.900 0.854 L 0.900 0.657 L 0.607 0.657 L 0.607 0.850 L 0.904 0.850" style="fill:none;stroke:black;stroke-width:0.012" />
<text x="0.756" y="1.515" style="font: 0.118pt serif; fill: blue">votive_bottom:12</text>
</g>
<g transform="translate(2.599 1.792)">
<path id="d5617ac09a73a0ba" d="M 0.737 -0.004 C 0.463 -0.004 0.224 0.145 0.096 0.366 C 0.033 0.475 -0.004 0.602 -0.004 0.737 C -0.004 1.011 0.145 1.250 0.366 1.378 C 0.475 1.441 0.602 1.477 0.737 1.477 C 1.011 1.477 1.250 1.328 1.378 1.107 C 1.441 0.998 1.477 0.872 1.477 0.737 C 1.477 0.463 1.328 0.224 1.107 0.096 C 0.998 0.033 0.872 -0.004 0.737 -0.004 M 0.882 0.835 M 0.882 0.835 L 0.882 0.639 L 0.589 0.639 L 0.589 0.832 L 0.885 0.832" style="fill:none;stroke:black;stroke-width:0.012" />
<text x="0.737" y="1.477" style="font: 0.118pt serif; fill: blue">votive_bottom:13</text>
</g>
<g transform="translate(4.291 3.739)">
<path id="d5617ac09a73a0ba" d="M 0.749 -0.004 C 0.470 -0.004 0.227 0.148 0.097 0.372 C 0.033 0.483 -0.004 0.612 -0.004 0.749 C -0.004 1.027 0.148 1.270 0.372 1.400 C 0.483 1.464 0.612 1.501 0.749 1.501 C 1.027 1.501 1.270 1.350 1.400 1.125 C 1.464 1.014 1.501 0.886 1.501 0.749 C 1.501 0.470 1.350 0.227 1.125 0.097 C 1.014 0.033 0.886 -0.004 0.749 -0.004 M 0.600 0.843 M 0.600 0.843 L 0.897 0.843 L 0.897 0.650 L 0.604 0.650 L 0.604 0.847" style="fill:none;stroke:black;stroke-width:0.012" />
<text x="0.749" y="1.501" style="font: 0.118pt serif; fill: blue">votive_bottom:14</text>
</g>
<g transform="translate(4.291 5.443)">
<path id="d5617ac09a73a0ba" d="M 0.778 -0.004 C 0.489 -0.004 0.236 0.154 0.101 0.387 C 0.035 0.502 -0.004 0.636 -0.004 0.778 C -0.004 1.067 0.154 1.320 0.387 1.455 C 0.502 1.521 0.636 1.559 0.778 1.559 C 1.067 1.559 1.320 1.402 1.455 1.169 C 1.521 1.054 1.559 0.920 1.559 0.778 C 1.559 0.489 1.402 0.236 1.169 0.101 C 1.054 0.035 0.920 -0.004 0.778 -0.004 M 0.926 0.873 M 0.926 0.873 L 0.630 0.873 L 0.630 0.680 L 0.923 0.680 L 0.923 0.876" style="fill:none;stroke:black;stroke-width:0.012" />
<text x="0.778" y="1.559" style="font: 0.118pt serif; fill: blue">votive_bottom:15</text>
</g>
<g transform="translate(4.291 7.206)">
<path id="d5617ac09a73a0ba" d="M 0.819 -0.004 C 0.515 -0.004 0.249 0.162 0.107 0.408 C 0.037 0.529 -0.004 0.669 -0.004 0.819 C -0.004 1.124 0.162 1.390 0.408 1.532 C 0.529 1.602 0.669 1.642 0.819 1.642 C 1.124 1.642 1.390 1.477 1.532 1.231 C 1.602 1.110 1.642 0.969 1.642 0.819 C 1.642 0.515 1.477 0.249 1.231 0.107 C 1.110 0.037 0.969 -0.004 0.819 -0.004 M 0.671 0.914 M 0.671 0.914 L 0.968 0.914 L 0.968 0.721 L 0.675 0.721 L 0.675 0.918" style="fill:none;stroke:black;stroke-width:0.012" />
<text x="0.819" y="1.642" style="font: 0.118pt serif; fill: blue">votive_bottom:16</text>
</g>
<g transform="translate(6.211 2.213)">
<path id="d5617ac09a73a0ba" d="M 0.870 -0.004 C 0.547 -0.004 0.265 0.172 0.113 0.433 C 0.039 0.562 -0.004 0.711 -0.004 0.870 C -0.004 1.193 0.172 1.475 0.433 1.626 C 0.562 1.701 0.711 1.743 0.870 1.743 C 1.193 1.743 1.475 1.568 1.626 1.307 C 1.701 1.178 1.743 1.029 1.743 0.870 C 1.743 0.547 1.568 0.265 1.307 0.113 C 1.178 0.039 1.029 -0.004 0.870 -0.004 M 1.015 0.968 M 1.015 0.968 L 1.015 0.772 L 0.722 0.772 L 0.722 0.965 L 1.018 0.965" style="fill:none;stroke:black;stroke-width:0.012" />
<text x="0.870" y="1.743" style="font: 0.118pt serif; fill: blue">votive_bottom:17</text>
</g>
<g transform="translate(6.211 4.160)">
<path id="d5617ac09a73a0ba" d="M 0.928 -0.004 C 0.584 -0.004 0.283 0.184 0.121 0.462 C 0.042 0.599 -0.004 0.759 -0.004 0.928 C -0.004 1.273 0.184 1.574 0.462 1.736 C 0.599 1.815 0.759 1.860 0.928 1.860 C 1.273 1.860 1.574 1.673 1.736 1.395 C 1.815 1.258 1.860 1.098 1.860 0.928 C 1.860 0.584 1.673 0.283 1.395 0.121 C 1.258 0.042 1.098 -0.004 0.928 -0.004 M 0.780 1.023 M 0.780 1.023 L 1.077 1.023 L 1.077 0.830 L 0.784 0.830 L 0.784 1.027" style="fill:none;stroke:black;stroke-width:0.012" />
<text x="0.928" y="1.860" style="font: 0.118pt serif; fill: blue">votive_bottom:18</text>
</g>
<g transform="translate(13.121 5.079)">
<path id="d5617ac09a73a0ba" d="M 1.207 -0.004 C 0.759 -0.004 0.368 0.240 0.159 0.602 C 0.056 0.780 -0.004 0.987 -0.004 1.207 C -0.004 1.655 0.240 2.046 0.602 2.256 C 0.780 2.359 0.987 2.418 1.207 2.418 C 1.655 2.418 2.046 2.175 2.256 1.813 C 2.359 1.635 2.418 1.428 2.418 1.207 C 2.418 0.759 2.175 0.368 1.813 0.159 C 1.635 0.056 1.428 -0.004 1.207 -0.004 M 1.352 1.305 M 1.352 1.305 L 1.352 1.109 L 1.059 1.109 L 1.059 1.302 L 1.355 1.302" style="fill:none;stroke:black;stroke-width:0.012" />
<text x="1.207" y="2.418" style="font: 0.118pt serif; fill: blue">votive_bottom:19</text>
</g>
<g transform="translate(15.743 5.079)">
<path id="d5617ac09a73a0ba" d="M 1.642 -0.004 C 1.033 -0.004 0.501 0.327 0.217 0.819 C 0.077 1.061 -0.004 1.342 -0.004 1.642 C -0.004 2.250 0.327 2.782 0.819 3.066 C 1.061 3.206 1.342 3.287 1.642 3.287 C 2.250 3.287 2.782 2.956 3.066 2.465 C 3.206 2.223 3.287 1.941 3.287 1.642 C 3.287 1.033 2.956 0.501 2.465 0.217 C 2.223 0.077 1.941 -0.004 1.642 -0.004 M 1.786 1.740 M 1.786 1.740 L 1.786 1.543 L 1.493 1.543 L 1.493 1.736 L 1.790 1.736" style="fill:none;stroke:black;stroke-width:0.012" />
<text x="1.642" y="3.287" style="font: 0.118pt serif; fill: blue">votive_bottom:20</text>
</g>
<g transform="translate(2.599 3.472)">
<path id="4d80812bad9d328c" d="M 0.000 0.000 L 0.300 0.000 L 0.300 4.400 L 0.000 4.400 L 0.000 0.000" style="fill:none;stroke:black;stroke-width:0.012" />
</g>
</svg>
