<?xml version="1.0"?>
	<!-- Generated by github.com/dustismo/heavyfishdesign -->
	<svg width="20.000in" height="12.000in" viewBox="0.000 0.000 20.000 12.000"
    	xmlns="http://www.w3.org/2000/svg"
		xmlns:xlink="http://www.w3.org/1999/xlink">
	<g transform="translate(0.100 0.100)">
<path id="e24f5c41555d2af3" d="M 0.340 0.000 L 0.435 0.000 L 0.435 0.100 L 0.340 0.100 L 0.340 0.000 M 0.364 0.200 L 0.639 0.200 L 0.639 0.300 L 0.364 0.300 L 0.364 0.200 M 0.403 0.400 L 1.141 0.400 L 1.141 0.500 L 0.403 0.500 L 0.403 0.400 M 0.243 0.600 L 1.356 0.600 L 1.356 0.700 L 0.243 0.700 L 0.243 0.600 M 0.033 0.800 L 1.453 0.800 L 1.453 0.900 L 0.033 0.900 L 0.033 0.800 M 0.000 1.000 L 1.553 1.000 L 1.553 1.100 L 0.000 1.100 L 0.000 1.000 M 0.160 1.200 L 0.248 1.200 L 0.248 1.300 L 0.160 1.300 L 0.160 1.200 M 0.637 1.200 L 2.705 1.200 L 2.705 1.300 L 0.637 1.300 L 0.637 1.200 M 0.687 1.400 L 2.923 1.400 L 2.923 1.500 L 0.687 1.500 L 0.687 1.400 M 0.725 1.600 L 2.967 1.600 L 2.967 1.700 L 0.725 1.700 L 0.725 1.600 M 0.757 1.800 L 2.976 1.800 L 2.976 1.900 L 0.757 1.900 L 0.757 1.800 M 0.783 2.000 L 2.978 2.000 L 2.978 2.100 L 0.783 2.100 L 0.783 2.000 M 0.806 2.200 L 2.976 2.200 L 2.976 2.300 L 0.806 2.300 L 0.806 2.200 M 0.824 2.400 L 1.265 2.400 L 1.265 2.500 L 0.824 2.500 L 0.824 2.400 M 2.437 2.400 L 2.972 2.400 L 2.972 2.500 L 2.437 2.500 L 2.437 2.400 M 0.839 2.600 L 1.249 2.600 L 1.249 2.700 L 0.839 2.700 L 0.839 2.600 M 2.490 2.600 L 2.966 2.600 L 2.966 2.700 L 2.490 2.700 L 2.490 2.600 M 0.849 2.800 L 1.231 2.800 L 1.231 2.900 L 0.849 2.900 L 0.849 2.800 M 2.544 2.800 L 2.959 2.800 L 2.959 2.900 L 2.544 2.900 L 2.544 2.800 M 0.854 3.000 L 1.206 3.000 L 1.206 3.100 L 0.854 3.100 L 0.854 3.000 M 2.597 3.000 L 2.950 3.000 L 2.950 3.100 L 2.597 3.100 L 2.597 3.000" style="fill:none;stroke:black;stroke-width:0.012" />
</g>
</svg>
