<?xml version="1.0" encoding="UTF-8" standalone="no"?><!DOCTYPE svg PUBLIC "-//W3C//DTD SVG 1.1//EN" "http://www.w3.org/Graphics/SVG/1.1/DTD/svg11.dtd"><svg width="100%" height="100%" viewBox="0 0 816 1056" version="1.1" xmlns="http://www.w3.org/2000/svg" xmlns:xlink="http://www.w3.org/1999/xlink" xml:space="preserve" xmlns:serif="http://www.serif.com/" style="fill-rule:evenodd;clip-rule:evenodd;stroke-linecap:round;stroke-linejoin:round;stroke-miterlimit:1.5;"><g id="NADIA"><path d="M292.771,543.092L349.314,543.092" style="fill:none;stroke:black;stroke-width:3.33px;"/><path d="M239.995,789.399L239.995,771.145L251.627,767.975C247.57,716.659 253.216,672.875 283.399,648.14C267.34,656.171 253.014,609.001 263.339,606.933C263.339,606.933 213.721,584.69 217.001,575.177C217.001,575.177 274.782,542.789 292.771,543.094" style="fill:none;stroke:black;stroke-width:3.33px;"/><path d="M402.09,789.399L402.09,771.145L390.458,767.975C394.515,716.659 388.869,672.875 358.685,648.14C374.745,656.171 389.071,609.001 378.745,606.933C378.745,606.933 428.363,584.69 425.084,575.177C425.084,575.177 367.303,542.789 349.314,543.094" style="fill:none;stroke:black;stroke-width:3.33px;"/><path d="M240.185,789.399L402.017,789.399" style="fill:none;stroke:black;stroke-width:3.33px;"/></g></svg>