<?xml version="1.0" encoding="UTF-8" standalone="no"?><!DOCTYPE svg PUBLIC "-//W3C//DTD SVG 1.1//EN" "http://www.w3.org/Graphics/SVG/1.1/DTD/svg11.dtd"><svg width="100%" height="100%" viewBox="0 0 816 1056" version="1.1" xmlns="http://www.w3.org/2000/svg" xmlns:xlink="http://www.w3.org/1999/xlink" xml:space="preserve" xmlns:serif="http://www.serif.com/" style="fill-rule:evenodd;clip-rule:evenodd;stroke-linecap:round;stroke-linejoin:round;stroke-miterlimit:1.5;"><g id="GUS"><path d="M330.846,713.309L544.551,713.309" style="fill:none;stroke:black;stroke-width:3.33px;"/><path d="M330.846,713.309L326.837,674.805L371.513,672.49C371.513,672.49 393.52,611.864 387.424,580.586C384.806,567.158 363.927,569.229 360.067,559.481C352.839,541.228 384.167,464.518 408,450.36C432.837,435.606 408,417.779 408,417.779L362.771,411.838L360.93,379.385" style="fill:none;stroke:black;stroke-width:3.33px;"/><path d="M360.93,379.385L514.467,379.385" style="fill:none;stroke:black;stroke-width:3.33px;"/><path d="M544.551,713.309L548.56,674.805L503.884,672.49C503.884,672.49 481.877,611.864 487.973,580.586C490.59,567.158 511.469,569.229 515.329,559.481C522.557,541.228 491.23,464.518 467.397,450.36C442.559,435.606 467.397,417.779 467.397,417.779L512.626,411.838L514.467,379.385" style="fill:none;stroke:black;stroke-width:3.33px;"/></g></svg>