<?xml version="1.0" encoding="UTF-8" standalone="no"?><!DOCTYPE svg PUBLIC "-//W3C//DTD SVG 1.1//EN" "http://www.w3.org/Graphics/SVG/1.1/DTD/svg11.dtd"><svg width="3600px" height="5400px" version="1.1" xmlns="http://www.w3.org/2000/svg" xmlns:xlink="http://www.w3.org/1999/xlink" xml:space="preserve" xmlns:serif="http://www.serif.com/" style="fill-rule:evenodd;clip-rule:evenodd;stroke-linecap:round;stroke-linejoin:round;stroke-miterlimit:1.5;"><path d="M1737.67,3223.05C1741.93,3012.42 1703.38,2657.78 1658.39,2489.74C1649.81,2457.71 1638.98,2420.24 1626.27,2419.2C1573.9,2414.94 1504.61,2480.79 1465.52,2467.06C1426.43,2453.32 1379.52,2368.44 1391.72,2336.79C1411.18,2286.31 1564.16,2172.07 1564.16,2172.07C1564.16,2172.07 1519.7,1980.33 1538.54,1969.65C1557.37,1958.97 1651.32,2078.64 1691.67,2098.76C1744.27,2124.97 1812.38,2109.49 1897.38,2177.11C1954.91,2222.88 1985.17,2351.02 2020.89,2392.29C2041.92,2416.6 2085.96,2426.2 2117.75,2430.94C2189.66,2441.66 2376.35,2431.3 2452.37,2456.64C2507.8,2475.12 2564.63,2525.31 2573.87,2583.01C2593.27,2704.22 2575.87,3105.21 2569.81,3215.11C2567.41,3258.64 2446.55,3238.29 2446.55,3238.29L2350.8,2880.27C2350.8,2880.27 2208.87,2914.91 2140,2915.31C2046.77,2915.85 1906.13,2874.09 1906.13,2874.09C1906.13,2874.09 1889.05,3152.16 1871.36,3213.33C1864.27,3237.85 1822.28,3239.49 1800,3241.11C1778.43,3242.68 1737.67,3223.05 1737.67,3223.05Z" style="fill:none;stroke:rgb(11,9,9);stroke-width:3.96px;"/><g transform="matrix(1,0,0,1,-64.0746,-19.6221)"><circle cx="2136.96" cy="2514.4" r="26.584" style="fill:none;stroke:rgb(11,9,9);stroke-width:3.96px;"/></g></svg>