<?xml version="1.0" encoding="UTF-8" standalone="no"?><!DOCTYPE svg PUBLIC "-//W3C//DTD SVG 1.1//EN" "http://www.w3.org/Graphics/SVG/1.1/DTD/svg11.dtd"><svg width="1152px" height="1728px" version="1.1" xmlns="http://www.w3.org/2000/svg" xmlns:xlink="http://www.w3.org/1999/xlink" xml:space="preserve" xmlns:serif="http://www.serif.com/" style="fill-rule:evenodd;clip-rule:evenodd;stroke-linecap:round;stroke-linejoin:round;stroke-miterlimit:1.5;"><g transform="matrix(0.32,0,0,0.32,0,0)"><g id="Dragon-M" serif:id="Dragon M" transform="matrix(1.12055,0,0,1.12055,-427.765,-2301.56)"><path d="M554.44,2862.71C554.793,2846.36 581.929,2796.2 595.955,2782.31C602.028,2776.3 624.353,2755.67 641.639,2747.23C669.751,2733.51 703.396,2726.61 713.102,2712.23C715.055,2709.34 715.3,2702.72 714.81,2700.37C714.061,2696.77 704.004,2696.97 701.724,2699.37C699.34,2701.89 696.39,2703.88 693.279,2705.59C684.519,2710.39 673.936,2711.05 663.783,2709.58C653.973,2708.15 644.505,2705.31 634.773,2702.91C633.889,2702.7 633.001,2702.5 632.107,2702.33C631.409,2702.2 630.707,2702.09 630.003,2702C629.529,2701.94 629.054,2701.89 628.578,2701.85C628.146,2701.82 627.712,2701.8 627.278,2701.79C624.032,2701.72 620.597,2702.77 618.476,2705.33C617.793,2706.16 617.198,2707.05 616.573,2707.92C616.439,2708.1 616.439,2708.1 616.304,2708.29C615.259,2709.67 614.015,2710.93 612.422,2711.63C607.11,2713.95 601.036,2711.1 596.552,2709.42C596.247,2709.31 596.247,2709.31 595.941,2709.2C590.33,2707.24 583.836,2706.41 578.917,2709.62C576.17,2711.41 574.227,2714.18 572.138,2716.75C570.896,2718.25 569.38,2719.8 567.439,2719.72C564.938,2719.62 562.886,2717.42 561.671,2715.61C558.65,2711.11 558.832,2704.92 559.199,2699.06C560.113,2684.48 563.725,2669.8 569.665,2656.63C570.821,2654.07 571.971,2651.4 574.013,2649.49C575.185,2648.39 577.26,2648.14 578.378,2650.64C580.345,2654.91 585.612,2656.31 589.742,2656.7C597.299,2657.42 604.993,2655.7 612.214,2653.08C626.229,2647.99 639.284,2638.88 645.572,2625.52C645.572,2625.52 645.822,2624.57 647.268,2625.16C669.397,2634 695.602,2634.6 714.595,2620.62C720.898,2615.98 726.045,2609.99 730.365,2603.49C734.66,2597.04 738.615,2589.48 734.839,2581.95C731.535,2575.36 723.141,2572.63 720.006,2567.22C719.248,2565.92 719.411,2563.8 721.32,2563.26C723.245,2562.7 725.404,2563.18 727.424,2563.75C742.729,2568.03 754.987,2582.82 754.347,2599.3C753.891,2611.03 747.635,2621.94 741.361,2630.98C739.224,2634.1 736.977,2637.41 736.229,2640.8C736.034,2641.68 735.894,2642.71 736.467,2643.36C737.456,2644.49 742,2643.21 742.368,2643.08C746.54,2641.62 750.389,2639.29 754.085,2636.78C763.417,2630.45 772.023,2622.64 777.688,2613.1C779.454,2610.13 780.795,2606.91 781.51,2603.52C781.721,2602.56 781.748,2602.49 781.876,2602.05C781.962,2601.76 782.056,2601.46 782.162,2601.17C782.237,2600.97 782.319,2600.76 782.408,2600.56C782.469,2600.43 782.533,2600.29 782.603,2600.16C783.037,2599.33 783.753,2598.45 784.825,2598.54C786.572,2598.74 787.204,2600.79 787.639,2602.09C789.908,2608.89 789.452,2616.61 788.131,2623.71C786.136,2634.42 780.721,2644.76 771.86,2651.05C768.295,2653.58 764.259,2655.9 762.228,2659.67C762.172,2659.77 762.118,2659.88 762.068,2659.99C762.024,2660.09 761.982,2660.19 761.945,2660.29C761.606,2661.2 762.295,2662.34 763.596,2662.6C765.405,2662.97 767.309,2662.72 769.169,2662.36C774.645,2661.33 779.86,2659.02 784.764,2656.29C791.637,2652.47 797.739,2647.38 803.38,2641.97C805.84,2639.64 808.37,2637.22 811.579,2636.17C813.301,2635.61 815.631,2636.06 816.27,2638.18C817.186,2641.22 815.916,2644.66 814.554,2647.93C809.256,2660.67 799.01,2671.41 786.858,2677.76C792.814,2683.01 796.756,2690.27 797.133,2698.38C797.597,2708.39 793.558,2718.01 788.791,2726.47C777.494,2746.52 746.815,2770.92 735.055,2779.01C722.285,2787.79 722.382,2798.92 728.17,2804.29C735.263,2810.86 756.805,2805.92 766.088,2804.86C780.717,2803.19 803.504,2797.13 816.512,2789.92C839.827,2776.99 861.769,2760.62 878.49,2740.63C888.685,2728.44 896.965,2714.37 897.99,2698.28C898.745,2686.46 894.761,2674.74 887.9,2664.57C879.189,2651.64 869.806,2639 860.572,2626.52C852.794,2615.96 844.738,2605.32 841.378,2592.6C839.838,2586.77 840.407,2579.75 845.988,2576.4C850.867,2573.47 857.005,2574.19 862.31,2575.38C871.099,2577.35 879.447,2581.13 887.771,2584.83C912.305,2595.72 936.082,2608.33 959.622,2621.38C982.462,2634.04 1005.06,2647.04 1026.66,2661.84C1055.71,2681.75 1079.95,2708.14 1100.36,2737.06C1127.14,2775 1146.75,2817.61 1160.26,2862.19L1160.42,2862.71" style="fill:none;stroke:black;stroke-width:3.72px;"/></g></g></svg>