<?xml version="1.0" encoding="UTF-8" standalone="no"?><!DOCTYPE svg PUBLIC "-//W3C//DTD SVG 1.1//EN" "http://www.w3.org/Graphics/SVG/1.1/DTD/svg11.dtd"><svg width="1728px" height="1056px" version="1.1" xmlns="http://www.w3.org/2000/svg" xmlns:xlink="http://www.w3.org/1999/xlink" xml:space="preserve" xmlns:serif="http://www.serif.com/" style="fill-rule:evenodd;clip-rule:evenodd;stroke-linecap:round;stroke-linejoin:round;stroke-miterlimit:1.5;"><g transform="matrix(0.32,0,0,0.32,0,0)"><path d="M1537.48,1800C1506.02,1556.56 1606.32,1490.7 1626.24,1124.67C1632.05,1017.81 1547.76,595.253 1748.66,575.624C1755.13,574.991 1761.5,574.401 1767.76,573.851L1767.76,570.917L1767.93,570.919C1769.22,570.932 1810.1,565.894 1885.93,567.345C1961.76,565.894 2002.63,570.932 2003.92,570.919L2004.1,570.917L2004.1,573.851C2010.36,574.401 2016.72,574.991 2023.19,575.624C2224.09,595.253 2139.8,1017.81 2145.62,1124.67C2165.54,1490.7 2265.84,1556.56 2234.37,1800L1537.48,1800Z" style="fill:none;stroke:black;stroke-width:1px;"/></g></svg>