<?xml version="1.0" encoding="UTF-8" standalone="no"?><!DOCTYPE svg PUBLIC "-//W3C//DTD SVG 1.1//EN" "http://www.w3.org/Graphics/SVG/1.1/DTD/svg11.dtd"><svg width="100%" height="100%" viewBox="0 0 480 480" version="1.1" xmlns="http://www.w3.org/2000/svg" xmlns:xlink="http://www.w3.org/1999/xlink" xml:space="preserve" xmlns:serif="http://www.serif.com/" style="fill-rule:evenodd;clip-rule:evenodd;stroke-linecap:round;stroke-linejoin:round;stroke-miterlimit:1.5;"><path d="M240,78.616C266.787,77.517 270.594,110.263 270.594,110.263C270.594,110.263 272.62,144.304 245.985,153.396C219.349,162.489 250.011,191.707 250.011,191.707C250.011,191.707 295.474,226.478 299.615,263.082C303.756,299.686 283.699,308.011 275.217,313.853C266.735,319.695 250.054,329.772 247.471,335.888C244.889,342.003 238.901,352.817 248.67,356.073C258.439,359.329 265.163,361.042 286.701,360.999C308.239,360.956 338.967,371.801 342.354,392.554C345.742,413.308 343.059,429.092 343.059,429.092L203.858,427.563" style="fill:none;stroke:black;stroke-width:0.32px;"/><path d="M186.345,78.616C159.558,77.517 155.751,110.263 155.751,110.263C155.751,110.263 153.725,144.304 180.36,153.396C206.995,162.489 176.333,191.707 176.333,191.707C176.333,191.707 130.871,226.478 126.73,263.082C122.589,299.686 142.646,308.011 151.128,313.853C159.61,319.695 176.291,329.772 178.873,335.888C181.456,342.003 187.443,352.817 177.675,356.073C167.906,359.329 161.182,361.042 139.644,360.999C118.106,360.956 87.378,371.801 83.99,392.554C80.603,413.308 83.285,429.092 83.285,429.092L222.486,427.563" style="fill:none;stroke:black;stroke-width:0.32px;"/></svg>