<?xml version="1.0" encoding="UTF-8" standalone="no"?><!DOCTYPE svg PUBLIC "-//W3C//DTD SVG 1.1//EN" "http://www.w3.org/Graphics/SVG/1.1/DTD/svg11.dtd"><svg width="100%" height="100%" viewBox="0 0 2016 2016" version="1.1" xmlns="http://www.w3.org/2000/svg" xmlns:xlink="http://www.w3.org/1999/xlink" xml:space="preserve" xmlns:serif="http://www.serif.com/" style="fill-rule:evenodd;clip-rule:evenodd;stroke-linecap:round;stroke-linejoin:round;stroke-miterlimit:1.5;"><g id="Main-Design-2" serif:id="Main Design 2"><rect id="base_outer" x="60" y="60" width="1896" height="1896" style="fill:none;stroke:black;stroke-width:1.33px;"/><path d="M1927.2,1663.2C1927.2,1636.71 1905.69,1615.2 1879.2,1615.2L1015.2,1615.2C988.708,1615.2 967.2,1636.71 967.2,1663.2L967.2,1879.2C967.2,1905.69 988.708,1927.2 1015.2,1927.2L1879.2,1927.2C1905.69,1927.2 1927.2,1905.69 1927.2,1879.2L1927.2,1663.2Z" style="fill:none;stroke:black;stroke-width:1.33px;"/><path d="M1927.2,1351.2C1927.2,1324.71 1905.69,1303.2 1879.2,1303.2L1015.2,1303.2C988.708,1303.2 967.2,1324.71 967.2,1351.2L967.2,1538.4C967.2,1564.89 988.708,1586.4 1015.2,1586.4L1879.2,1586.4C1905.69,1586.4 1927.2,1564.89 1927.2,1538.4L1927.2,1351.2Z" style="fill:none;stroke:black;stroke-width:1.33px;"/><path d="M1927.2,386.4C1927.2,359.908 1905.69,338.4 1879.2,338.4L929.947,338.4C903.455,338.4 881.947,359.908 881.947,386.4L881.947,573.6C881.947,600.092 903.455,621.6 929.947,621.6L1879.2,621.6C1905.69,621.6 1927.2,600.092 1927.2,573.6L1927.2,386.4Z" style="fill:none;stroke:black;stroke-width:1.33px;"/><path d="M1927.2,386.4C1927.2,359.908 1905.69,338.4 1879.2,338.4L929.947,338.4C903.455,338.4 881.947,359.908 881.947,386.4L881.947,573.6C881.947,600.092 903.455,621.6 929.947,621.6L1879.2,621.6C1905.69,621.6 1927.2,600.092 1927.2,573.6L1927.2,386.4Z" style="fill:none;stroke:black;stroke-width:1.33px;"/><path d="M1927.2,136.8C1927.2,110.308 1905.69,88.8 1879.2,88.8L399.043,88.8C372.551,88.8 351.043,110.308 351.043,136.8L351.043,261.6C351.043,288.092 372.551,309.6 399.043,309.6L1879.2,309.6C1905.69,309.6 1927.2,288.092 1927.2,261.6L1927.2,136.8Z" style="fill:none;stroke:black;stroke-width:1.33px;"/><path d="M781.981,1351.2C781.981,1324.71 760.473,1303.2 733.981,1303.2L136.8,1303.2C110.308,1303.2 88.8,1324.71 88.8,1351.2L88.8,1587.1C88.8,1613.59 110.308,1635.1 136.8,1635.1L733.981,1635.1C760.473,1635.1 781.981,1613.59 781.981,1587.1L781.981,1351.2Z" style="fill:none;stroke:black;stroke-width:1.33px;"/><path d="M781.981,1711.89C781.981,1685.4 760.473,1663.89 733.981,1663.89L136.8,1663.89C110.308,1663.89 88.8,1685.4 88.8,1711.89L88.8,1879.2C88.8,1905.69 110.308,1927.2 136.8,1927.2L733.981,1927.2C760.473,1927.2 781.981,1905.69 781.981,1879.2L781.981,1711.89Z" style="fill:none;stroke:black;stroke-width:1.33px;"/><path d="M1927.2,698.4C1927.2,671.908 1905.69,650.4 1879.2,650.4L1227.96,650.4C1201.47,650.4 1179.96,671.908 1179.96,698.4L1179.96,945.6C1179.96,972.092 1201.47,993.6 1227.96,993.6L1879.2,993.6C1905.69,993.6 1927.2,972.092 1927.2,945.6L1927.2,698.4Z" style="fill:none;stroke:black;stroke-width:1.33px;"/><path d="M1923.96,1070.4C1923.96,1043.91 1902.45,1022.4 1875.96,1022.4L1227.96,1022.4C1201.47,1022.4 1179.96,1043.91 1179.96,1070.4L1179.96,1226.4C1179.96,1252.89 1201.47,1274.4 1227.96,1274.4L1875.96,1274.4C1902.45,1274.4 1923.96,1252.89 1923.96,1226.4L1923.96,1070.4Z" style="fill:none;stroke:black;stroke-width:1.33px;"/><path d="M1151.16,698.4C1151.16,671.908 1129.65,650.4 1103.16,650.4L915.547,650.4C889.055,650.4 867.547,671.908 867.547,698.4L867.547,1226.4C867.547,1252.89 889.055,1274.4 915.547,1274.4L1103.16,1274.4C1129.65,1274.4 1151.16,1252.89 1151.16,1226.4L1151.16,698.4Z" style="fill:none;stroke:black;stroke-width:1.33px;"/><path d="M938.4,1351.2C938.4,1324.71 916.892,1303.2 890.4,1303.2L858.992,1303.2C832.5,1303.2 810.992,1324.71 810.992,1351.2L810.992,1879.2C810.992,1905.69 832.5,1927.2 858.992,1927.2L890.4,1927.2C916.892,1927.2 938.4,1905.69 938.4,1879.2L938.4,1351.2Z" style="fill:none;stroke:black;stroke-width:1.33px;"/><path d="M320.905,136.8C320.905,110.308 299.397,88.8 272.905,88.8L136.8,88.8C110.308,88.8 88.8,110.308 88.8,136.8L88.8,573.6C88.8,600.092 110.308,621.6 136.8,621.6L272.905,621.6C299.397,621.6 320.905,600.092 320.905,573.6L320.905,136.8Z" style="fill:none;stroke:black;stroke-width:1.33px;"/><path d="M853.147,386.4C853.147,359.908 831.638,338.4 805.147,338.4L399.043,338.4C372.551,338.4 351.043,359.908 351.043,386.4L351.043,573.6C351.043,600.092 372.551,621.6 399.043,621.6L805.147,621.6C831.638,621.6 853.147,600.092 853.147,573.6L853.147,386.4Z" style="fill:none;stroke:black;stroke-width:1.33px;"/><path d="M838.747,698.4C838.747,671.908 817.238,650.4 790.747,650.4L543.895,650.4C517.403,650.4 495.895,671.908 495.895,698.4L495.895,1226.4C495.895,1252.89 517.403,1274.4 543.895,1274.4L790.747,1274.4C817.238,1274.4 838.747,1252.89 838.747,1226.4L838.747,698.4Z" style="fill:none;stroke:black;stroke-width:1.33px;"/><path d="M467.095,698.4C467.095,671.908 445.587,650.4 419.095,650.4L136.8,650.4C110.308,650.4 88.8,671.908 88.8,698.4L88.8,1226.4C88.8,1252.89 110.308,1274.4 136.8,1274.4L419.095,1274.4C445.587,1274.4 467.095,1252.89 467.095,1226.4L467.095,698.4Z" style="fill:none;stroke:black;stroke-width:1.33px;"/><circle id="screw_hole" cx="88.8" cy="88.8" r="12" style="fill:none;stroke:black;stroke-width:1.33px;"/><circle id="screw_hole1" serif:id="screw_hole" cx="863.96" cy="633.6" r="12" style="fill:none;stroke:black;stroke-width:1.33px;"/><circle id="screw_hole2" serif:id="screw_hole" cx="799.195" cy="1298.22" r="12" style="fill:none;stroke:black;stroke-width:1.33px;"/><circle id="screw_hole3" serif:id="screw_hole" cx="1167.96" cy="1274.4" r="12" style="fill:none;stroke:black;stroke-width:1.33px;"/><circle id="screw_hole4" serif:id="screw_hole" cx="1167.96" cy="643.435" r="12" style="fill:none;stroke:black;stroke-width:1.33px;"/><circle id="screw_hole5" serif:id="screw_hole" cx="88.8" cy="1286.22" r="12" style="fill:none;stroke:black;stroke-width:1.33px;"/><circle id="screw_hole6" serif:id="screw_hole" cx="88.8" cy="1930.38" r="12" style="fill:none;stroke:black;stroke-width:1.33px;"/><circle id="screw_hole7" serif:id="screw_hole" cx="1927.2" cy="1930.38" r="12" style="fill:none;stroke:black;stroke-width:1.33px;"/><circle id="screw_hole8" serif:id="screw_hole" cx="1931.52" cy="87.183" r="12" style="fill:none;stroke:black;stroke-width:1.33px;"/></g></svg>