<?xml version="1.0" encoding="UTF-8" standalone="no"?><!DOCTYPE svg PUBLIC "-//W3C//DTD SVG 1.1//EN" "http://www.w3.org/Graphics/SVG/1.1/DTD/svg11.dtd"><svg width="794px" height="1123px" version="1.1" xmlns="http://www.w3.org/2000/svg" xmlns:xlink="http://www.w3.org/1999/xlink" xml:space="preserve" xmlns:serif="http://www.serif.com/" style="fill-rule:evenodd;clip-rule:evenodd;stroke-linecap:round;stroke-linejoin:round;stroke-miterlimit:1.5;"><g transform="matrix(0.32,0,0,0.32,0,0)"><path d="M267.358,694.888C268.652,694.888 448.664,656.528 535.623,776.709C621.134,894.889 595.541,939.494 647.546,1003.3C704.753,1073.48 805.466,1026.36 720.663,877.21C635.86,728.059 799.57,688.774 799.57,688.774C799.57,688.774 794.363,928.838 950.037,905.454C1025.29,894.149 1259.27,883.217 1318.77,941.52C1318.77,941.52 1162.77,943.306 1194.99,1157.64C1207.63,1241.7 1321.72,1347.79 1435.11,1292.48C1575.52,1223.98 1666.72,1208.55 1763.42,1278.73" style="fill:none;stroke:black;stroke-width:4.17px;"/></g></svg>